<svg id="Layer_1" data-name="Layer 1" xmlns="http://www.w3.org/2000/svg" viewBox="0 0 90.442 117.567"><defs><style>.cls-1{fill:#191516;}.cls-2{fill:#6161ff;}.cls-3{fill:#f7e034;}.cls-4{fill:#ffcc05;}</style></defs><title>Vector Smart Object21</title><path class="cls-1" d="M65.678,119.284a10.2,10.2,0,1,1,7.088-17.533h0a10.2,10.2,0,0,1-6.906,17.531Zm.009-19.453h-.166a9.31,9.31,0,1,0,.166,0Z" transform="translate(-1.279 -1.716)"/><path class="cls-2" d="M82.931,60.211a39.222,39.222,0,0,0-54.495,56.425c.821.793,1.638,1.384,2.459,2.177l54.3-56.22C84.371,61.8,83.752,61,82.931,60.211Z" transform="translate(-1.279 -1.716)"/><path class="cls-1" d="M35.486,45.409a24.487,24.487,0,0,1-17.062-6.884h0c-.259-.251-.487-.5-.715-.754-.214-.236-.428-.473-.672-.709a.47.47,0,0,1-.011-.666L50.38,1.86a.471.471,0,0,1,.33-.144.5.5,0,0,1,.336.133c.244.236.487.441.731.647.259.219.519.439.779.69a24.554,24.554,0,0,1-17.07,42.223ZM19.079,37.848A23.623,23.623,0,1,0,51.9,3.863c-.244-.236-.487-.442-.731-.648-.144-.121-.288-.243-.432-.37L18.022,36.72c.132.14.259.279.385.419.214.236.428.473.672.709Z" transform="translate(-1.279 -1.716)"/><path class="cls-1" d="M5.685,72.428a.471.471,0,0,1-.327-.133c-.1-.1-.208-.187-.312-.275-.119-.1-.238-.2-.358-.318a11.157,11.157,0,0,1,15.5-16.05c.12.116.225.232.33.349.091.1.181.2.285.3a.47.47,0,0,1,.011.666L6.024,72.284a.475.475,0,0,1-.331.144Zm6.756-18.961a10.21,10.21,0,0,0-7.1,17.558c.1.1.208.188.312.276l0,0L19.826,56.636l0,0c-.091-.1-.182-.2-.287-.3h0A10.178,10.178,0,0,0,12.441,53.467Z" transform="translate(-1.279 -1.716)"/><path class="cls-2" d="M44.228,33.676l-.119.216a.369.369,0,0,1-.5.145L32.869,28.1a.368.368,0,0,1-.145-.5l.119-.216a.369.369,0,0,1,.5-.145L44.1,33.182A.366.366,0,0,1,44.228,33.676Z" transform="translate(-1.279 -1.716)"/><path class="cls-2" d="M39.946,37.617l-.164.185a.369.369,0,0,1-.523.03l-9.168-8.153a.369.369,0,0,1-.03-.523l.164-.185a.369.369,0,0,1,.523-.031l9.183,8.168A.365.365,0,0,1,39.946,37.617Z" transform="translate(-1.279 -1.716)"/><path class="cls-3" d="M50.31,79.908l-.1.227a.368.368,0,0,1-.486.2l-11.292-4.8a.369.369,0,0,1-.2-.486l.1-.227a.369.369,0,0,1,.486-.2l11.311,4.8A.364.364,0,0,1,50.31,79.908Z" transform="translate(-1.279 -1.716)"/><circle class="cls-2" cx="82.286" cy="85.276" r="8.156"/><circle class="cls-2" cx="23.124" cy="9.255" r="7.039"/><path class="cls-2" d="M72.045,26.792c-2.746,3.087-2.116,8.122,1.409,11.258s8.6,3.175,11.345.088c.145-.163.248-.325.393-.488l-12.708-11.3C72.34,26.507,72.19,26.629,72.045,26.792Z" transform="translate(-1.279 -1.716)"/><circle class="cls-4" cx="62.596" cy="63.588" r="5.757"/><path class="cls-3" d="M28.934,82.109H39.01a1.422,1.422,0,0,1,1.422,1.422V96.38a1.763,1.763,0,0,1-1.763,1.763H28.934a0,0,0,0,1,0,0V82.109A0,0,0,0,1,28.934,82.109Z" transform="translate(-33.079 18.37) rotate(-22.459)"/><path class="cls-3" d="M43.256,14.984H50.6a1.208,1.208,0,0,1,1.208,1.208v11.2A1.213,1.213,0,0,1,50.6,28.606H43.256a1.213,1.213,0,0,1-1.213-1.213V16.2a1.213,1.213,0,0,1,1.213-1.213Z" transform="translate(18.258 63.976) rotate(-82.95)"/></svg>