<svg id="Layer_1" data-name="Layer 1" xmlns="http://www.w3.org/2000/svg" viewBox="0 0 54.062 35.081"><defs><style>.cls-1{opacity:0.7;}.cls-2{fill:#ffcc05;}.cls-3{fill:none;stroke:#494949;stroke-linecap:round;stroke-linejoin:round;stroke-width:2.2px;}</style></defs><title>2 - create a lisitng</title><g class="cls-1"><path class="cls-2" d="M8.335,37.865a15.743,15.743,0,0,1,31.486,0" transform="translate(-6.482 -10.533)"/></g><path class="cls-3" d="M7.582,16.663V14.058a2.425,2.425,0,0,1,2.425-2.425H49.845a2.28,2.28,0,0,1,2.28,2.28V35.44A2.425,2.425,0,0,1,49.7,37.865H10.007A2.425,2.425,0,0,1,7.582,35.44V29.512" transform="translate(-6.482 -10.533)"/><path class="cls-3" d="M52.125,18.282h5.039a2.28,2.28,0,0,1,2.28,2.28V42.089a2.425,2.425,0,0,1-2.425,2.425H17.326A2.425,2.425,0,0,1,14.9,42.089V37.865" transform="translate(-6.482 -10.533)"/><line class="cls-3" x1="1.1" y1="14.731" x2="1.1" y2="10.661"/><line class="cls-3" x1="23.648" y1="10.871" x2="40.117" y2="10.871"/><line class="cls-3" x1="23.648" y1="16.966" x2="31.882" y2="16.966"/><rect class="cls-3" x="6.474" y="9.211" width="10.499" height="10.499"/></svg>