<svg id="Layer_1" data-name="Layer 1" xmlns="http://www.w3.org/2000/svg" viewBox="0 0 48.158 41.548"><defs><style>.cls-1{opacity:0.7;}.cls-2{fill:#ffcc05;}.cls-3{fill:#494949;}</style></defs><title>Vector Smart Object</title><g class="cls-1"><path class="cls-2" d="M10.187,45.481a13.821,13.821,0,1,1,27.641,0" transform="translate(-0.442 -4.158)"/></g><path class="cls-3" d="M19.908,25.119c-5.193,0-9.419-4.7-9.419-10.481s4.226-10.48,9.419-10.48,9.418,4.7,9.418,10.48S25.1,25.119,19.908,25.119Zm0-18.761c-3.981,0-7.22,3.714-7.22,8.28s3.239,8.281,7.22,8.281,7.219-3.715,7.219-8.281S23.888,6.358,19.908,6.358Z" transform="translate(-0.442 -4.158)"/><path class="cls-3" d="M29.617,45.706a1.1,1.1,0,0,1-1.1-1.1v-6.3a1.1,1.1,0,1,1,2.2,0v6.3A1.1,1.1,0,0,1,29.617,45.706Z" transform="translate(-0.442 -4.158)"/><path class="cls-3" d="M10.187,45.706a1.1,1.1,0,0,1-1.1-1.1v-6.3a1.1,1.1,0,1,1,2.2,0v6.3A1.1,1.1,0,0,1,10.187,45.706Z" transform="translate(-0.442 -4.158)"/><path class="cls-3" d="M2.649,37.754a1.065,1.065,0,0,1-.215-.021,1.1,1.1,0,0,1-.865-1.293l.487-2.457a1.1,1.1,0,0,1,2.159.428l-.488,2.457A1.1,1.1,0,0,1,2.649,37.754Z" transform="translate(-0.442 -4.158)"/><path class="cls-3" d="M35.885,45.706H3.919A3.481,3.481,0,0,1,.442,42.229a1.094,1.094,0,0,1,.021-.214L.87,39.964a1.1,1.1,0,1,1,2.158.429l-.383,1.928a1.278,1.278,0,0,0,1.274,1.184H35.885a1.278,1.278,0,0,0,1.274-1.184L35.647,34.7a1.1,1.1,0,0,1,2.158-.428l1.536,7.741a1.094,1.094,0,0,1,.021.214A3.481,3.481,0,0,1,35.885,45.706Z" transform="translate(-0.442 -4.158)"/><path class="cls-3" d="M3.765,32.131a1.065,1.065,0,0,1-.215-.021,1.1,1.1,0,0,1-.865-1.293l.155-.778A3.574,3.574,0,0,1,6.3,26.776H30.231a1.1,1.1,0,0,1,0,2.2H6.3c-.786,0-1.186.779-1.29,1.446l-.163.822A1.1,1.1,0,0,1,3.765,32.131Z" transform="translate(-0.442 -4.158)"/><path class="cls-3" d="M38.983,35.343A9.617,9.617,0,1,1,48.6,25.727,9.627,9.627,0,0,1,38.983,35.343Zm0-17.033A7.417,7.417,0,1,0,46.4,25.727,7.425,7.425,0,0,0,38.983,18.31Z" transform="translate(-0.442 -4.158)"/><path class="cls-3" d="M37.434,30.157a1.1,1.1,0,0,1-.806-.352l-3.242-3.494A1.1,1.1,0,0,1,35,24.815l2.529,2.727,5.142-4.313a1.1,1.1,0,0,1,1.414,1.686L38.141,29.9A1.1,1.1,0,0,1,37.434,30.157Z" transform="translate(-0.442 -4.158)"/></svg>