<svg id="Layer_1" data-name="Layer 1" xmlns="http://www.w3.org/2000/svg" xmlns:xlink="http://www.w3.org/1999/xlink" viewBox="0 0 75 75"><defs><style>.cls-1{fill:none;}.cls-2{fill:#fff;}.cls-3{clip-path:url(#clip-path);}.cls-4{opacity:0.5;}.cls-5{fill:#4343e8;}</style><clipPath id="clip-path"><circle class="cls-1" cx="37.5" cy="37.5" r="36.834"/></clipPath></defs><title>Default dp</title><circle class="cls-2" cx="37.5" cy="37.5" r="36.834"/><g class="cls-3"><g class="cls-4"><path class="cls-5" d="M64.4,76.639c0-10.089-10.178-18.253-22.756-18.253S18.891,66.55,18.891,76.639v1.526H64.4Z"/></g><path d="M64.954,83.815H8.974a.318.318,0,0,1-.317-.317V81.157c0-12.335,8.465-23.525,20.586-27.212a.317.317,0,0,1,.186.607C17.572,58.158,9.291,69.1,9.291,81.157v2.024H64.637V81.157c0-12.169-8.109-22.67-20.18-26.131a.316.316,0,0,1-.217-.391.31.31,0,0,1,.392-.218C56.977,57.956,65.271,68.7,65.271,81.157V83.5A.317.317,0,0,1,64.954,83.815Z"/><path d="M37.143,53.41c-5.733,0-11.456-6.029-12.071-12.682a11.9,11.9,0,0,1-1.818-6.455,2.322,2.322,0,0,1,1.157-2.055c.182-1.007,1.258-5.913,5.234-7.457a.322.322,0,0,1,.258.012.312.312,0,0,1,.163.2c.005.01.8,2.025,8.331,1.644,8.109-.412,9.375,1.026,11.908,5.625a1.642,1.642,0,0,1,1,.793c.746,1.3.261,3.718-1.44,7.2C49.81,46.408,43.064,53.41,37.143,53.41ZM29.616,25.46c-3.783,1.687-4.6,6.969-4.607,7.023a.315.315,0,0,1-.2.25,1.579,1.579,0,0,0-.9,1.419,11.29,11.29,0,0,0,1.64,6.159.366.366,0,0,1,.146.241c.53,6.4,5.988,12.224,11.451,12.224,5.648,0,12.086-6.721,12.086-12.616a.324.324,0,0,1,.033-.14c2.135-4.349,1.851-6.045,1.492-6.67a.961.961,0,0,0-.678-.511.313.313,0,0,1-.255-.164c-2.542-4.629-3.532-5.822-11.391-5.426C31.87,27.587,30.09,26.143,29.616,25.46Z"/><path d="M50.086,32.836a.28.28,0,0,1-.108-.02.313.313,0,0,1-.156-.138c-2.925-5.208-4.613-5.992-12-5.622-3.4.171-5.826-.106-7.2-.827h0l.147-.281-.155.278c-1.249-.652-1.882-2.23-1.781-4.441a6.736,6.736,0,0,1,2.123-4.742,7.248,7.248,0,0,1,5.4-1.747c6.873.535,11.508,2.6,14.181,6.318,2.272,3.162.332,10.48-.144,11.085A.39.39,0,0,1,50.086,32.836Zm-9.7-6.488c5.266,0,7.191,1.212,9.677,5.477.545-1.72,1.756-7.32-.056-9.841-2.556-3.555-7.039-5.536-13.706-6.056a6.669,6.669,0,0,0-4.928,1.585,6.023,6.023,0,0,0-1.917,4.3c-.089,1.951.423,3.318,1.442,3.849l.008,0c.877.459,2.774.963,6.878.757C38.737,26.375,39.6,26.348,40.388,26.348Z"/><path d="M25.009,30.579a.319.319,0,0,1-.263-.14,6.5,6.5,0,0,1-1.077-5.095l.05-.324c.382-2.535.906-6.006,5.938-6.037h0a.317.317,0,0,1,.3.416,10.142,10.142,0,0,0-.471,2.314,7.111,7.111,0,0,0,.342,3.243.319.319,0,0,1-.162.41,8.193,8.193,0,0,0-3.725,3.662,12.623,12.623,0,0,0-.642,1.353.316.316,0,0,1-.26.2ZM29.227,19.63c-4.085.207-4.508,3.006-4.882,5.484l-.049.327a5.83,5.83,0,0,0,.661,4.142c.133-.294.278-.582.432-.861a8.931,8.931,0,0,1,3.75-3.8,8.065,8.065,0,0,1-.281-3.256A10.7,10.7,0,0,1,29.227,19.63Z"/><path d="M37.118,61.577a.288.288,0,0,1-.065-.007c-2.2-.461-7.877-7.051-7.923-7.115a.32.32,0,0,1-.036-.3,21.652,21.652,0,0,0,.657-3.474c.037-.271.069-.505.095-.676a.317.317,0,0,1,.511-.2c2.58,2.071,4.8,3.078,6.786,3.078,2.214,0,4.569-1.408,6.147-2.468a.316.316,0,0,1,.3-.031.32.32,0,0,1,.192.226c.042.191.092.458.15.767a12.314,12.314,0,0,0,.879,3.231.314.314,0,0,1-.025.37c-.048.059-5.721,6.1-7.583,6.583A.313.313,0,0,1,37.118,61.577Zm-7.37-7.368c.864,1.009,5.586,6.233,7.362,6.723,1.49-.5,6.107-5.181,7.041-6.193A14.626,14.626,0,0,1,43.3,51.5c-.019-.1-.036-.2-.054-.29-1.73,1.129-3.916,2.314-6.106,2.314-2.02,0-4.232-.942-6.747-2.876-.007.041-.011.083-.018.126A24.706,24.706,0,0,1,29.748,54.209Z"/></g><path d="M37.5,74.718A37.218,37.218,0,1,1,74.718,37.5,37.261,37.261,0,0,1,37.5,74.718Zm0-73.668A36.45,36.45,0,1,0,73.95,37.5,36.491,36.491,0,0,0,37.5,1.05Z"/></svg>