<svg id="Layer_1" data-name="Layer 1" xmlns="http://www.w3.org/2000/svg" viewBox="0 0 44.937 38.015"><defs><style>.cls-1{opacity:0.7;}.cls-2{fill:#ffcc05;}.cls-3{fill:#494949;}</style></defs><title>Vector Smart Object4</title><g class="cls-1"><path class="cls-2" d="M32.661,42.415a12.52,12.52,0,0,0-25.039,0" transform="translate(-1.381 -5.5)"/></g><path class="cls-3" d="M45.218,43.515H31.273a1.1,1.1,0,0,1,0-2.2H45.218a1.1,1.1,0,0,1,0,2.2Z" transform="translate(-1.381 -5.5)"/><path class="cls-3" d="M22.215,43.515H18.068a1.1,1.1,0,0,1,0-2.2h4.147a1.1,1.1,0,0,1,0,2.2Z" transform="translate(-1.381 -5.5)"/><path class="cls-3" d="M12.374,43.515H7.918a1.1,1.1,0,0,1-1.058-.8l-5.436-19a1.1,1.1,0,0,1,1.057-1.4h20.1a1.1,1.1,0,0,1,0,2.2H3.94l4.807,16.8h3.627a1.1,1.1,0,0,1,0,2.2Z" transform="translate(-1.381 -5.5)"/><path class="cls-3" d="M33.655,43.515h-6.44a1.1,1.1,0,0,1,0-2.2H32.2L29.178,30.769a1.1,1.1,0,0,1,2.116-.6l3.419,11.948a1.1,1.1,0,0,1-1.058,1.4Z" transform="translate(-1.381 -5.5)"/><path class="cls-3" d="M32.123,31.747A11.007,11.007,0,1,1,43.129,20.74,11.019,11.019,0,0,1,32.123,31.747Zm0-19.813a8.807,8.807,0,1,0,8.806,8.806A8.817,8.817,0,0,0,32.123,11.934Z" transform="translate(-1.381 -5.5)"/><path class="cls-3" d="M36.178,7.7H28.066a1.1,1.1,0,0,1,0-2.2h8.112a1.1,1.1,0,0,1,0,2.2Z" transform="translate(-1.381 -5.5)"/><path class="cls-3" d="M32.123,21.84A1.1,1.1,0,0,1,31.313,20l3.719-4.047a1.1,1.1,0,1,1,1.619,1.489l-3.719,4.046A1.092,1.092,0,0,1,32.123,21.84Z" transform="translate(-1.381 -5.5)"/></svg>