<svg id="Layer_1" data-name="Layer 1" xmlns="http://www.w3.org/2000/svg" viewBox="0 0 57.298 41.548"><defs><style>.cls-1{opacity:0.7;}.cls-2{fill:#ffcc05;}.cls-3{fill:none;stroke:#494949;stroke-linecap:round;stroke-linejoin:round;stroke-width:2.2px;}</style></defs><title>3 - we find tennants</title><g class="cls-1"><path class="cls-2" d="M34.914,47.581a12.52,12.52,0,1,0-25.039,0" transform="translate(-3.633 -7.151)"/></g><line class="cls-3" x1="29.893" y1="40.43" x2="43.838" y2="40.43"/><line class="cls-3" x1="16.687" y1="40.43" x2="20.835" y2="40.43"/><polyline class="cls-3" points="25.833 40.43 32.274 40.43 26.837 21.427 1.1 21.427 6.537 40.43 10.993 40.43"/><ellipse class="cls-3" cx="37.832" cy="10.481" rx="8.319" ry="9.381"/><line class="cls-3" x1="47.553" y1="34.151" x2="47.553" y2="40.448"/><path class="cls-3" d="M33.526,47.6H57.455a2.377,2.377,0,0,0,2.377-2.377l-.407-2.05-.7-3.524-.487-2.458-.629-3.165-.154-.779a2.528,2.528,0,0,0-2.377-2.376H31.142" transform="translate(-3.633 -7.151)"/></svg>