<svg id="Layer_1" data-name="Layer 1" xmlns="http://www.w3.org/2000/svg" viewBox="0 0 51.736 41.402"><defs><style>.cls-1{opacity:0.7;}.cls-2{fill:#ffcc05;}.cls-3{fill:none;stroke:#494949;stroke-linecap:round;stroke-linejoin:round;stroke-width:2.2px;}.cls-4{font-size:12px;fill:#494949;font-family:Poppins-SemiBold, Poppins;font-weight:700;}</style></defs><title>1 - Sign up for free</title><g class="cls-1"><path class="cls-2" d="M4.249,39.405a15.743,15.743,0,1,1,31.485,0" transform="translate(-2.395 -6.446)"/></g><path class="cls-3" d="M35.734,39.778H5.92A2.425,2.425,0,0,1,3.5,37.353V25.425" transform="translate(-2.395 -6.446)"/><path class="cls-3" d="M3.5,12.576V9.971A2.425,2.425,0,0,1,5.92,7.546H45.758a2.28,2.28,0,0,1,2.28,2.28v19.9" transform="translate(-2.395 -6.446)"/><line class="cls-3" x1="1.1" y1="14.731" x2="1.1" y2="10.661"/><text class="cls-4" transform="translate(6.244 16.458)">Free</text><polygon class="cls-3" points="46.982 24.332 43.121 28.194 50.636 35.709 46.044 40.302 38.529 32.786 34.667 36.647 32.231 21.884 46.982 24.332"/></svg>