<svg xmlns="http://www.w3.org/2000/svg" width="750" height="454" fill="none"><g clip-path="url(#a)"><path fill="#0077EB" d="M718.74 261.33a3.6 3.6 0 0 1-3.62 3.62 3.6 3.6 0 0 1-3.61-3.62 3.6 3.6 0 0 1 3.61-3.61 3.6 3.6 0 0 1 3.62 3.61zM136.95 411.41a3.6 3.6 0 0 1-3.61 3.62 3.6 3.6 0 0 1-3.62-3.62 3.6 3.6 0 0 1 3.62-3.61 3.6 3.6 0 0 1 3.61 3.61z"/><path fill="#FF293E" d="M150.87 69.6a2.23 2.23 0 0 1-2.22 2.23 2.23 2.23 0 0 1-2.23-2.22 2.23 2.23 0 0 1 2.23-2.23 2.23 2.23 0 0 1 2.22 2.23z"/><path fill="#00D46E" d="M50.26 45.41a2.23 2.23 0 1 0 0-4.45 2.23 2.23 0 0 0 0 4.45zm132.8 71.17a3.6 3.6 0 0 1-3.63 3.62 3.6 3.6 0 0 1-3.61-3.62 3.6 3.6 0 0 1 3.61-3.61 3.6 3.6 0 0 1 3.62 3.61zM13.55 267.82a3.62 3.62 0 1 0 0-7.24 3.62 3.62 0 0 0 0 7.23z"/><path fill="#0077EB" d="M13.92 80.3 25.3 91.47l2.9-3.38-6.77-12.22-7.5 4.43z"/><path fill="#00D46E" d="m49.6 214.37-7.26 14.19 4.1 1.76 9.64-10.12-6.48-5.83z"/><path fill="#0077EB" d="m170.27 413.67-7.58 14.01 4.03 1.85 9.89-9.89-6.34-5.97zm39.27-145.56-7.58 14 4.05 1.86 9.89-9.88-6.36-5.98z"/><path fill="#FF293E" d="m535.92 424.04 10.36 12.1-3.56 2.67-11.75-7.58 4.95-7.2z"/><path fill="#0077EB" d="m719.1 359.92-10.26 12.18-3.22-3.09 5.58-12.82 7.9 3.73z"/><path fill="#00D46E" d="m239.75 48.37-4.1 15.4 4.37.86 7.3-11.93-7.58-4.33z"/><path fill="#0077EB" d="m350.79 319.09 4.9 15.16-4.32 1.08-7.92-11.51 7.34-4.73z"/><path fill="#FF293E" d="m42.68 91.2-4.09 15.4 4.37.86 7.3-11.93-7.58-4.33zM31.36 317.96l11.28 11.25 2.93-3.35-6.67-12.3-7.54 4.4z"/><path fill="#FFD400" d="m11.04 144.63 8.75 9.32-2.75 2.27-9.7-5.65 3.7-5.94zm193.2.14-4.7 15.21 4.32 1.03 7.77-11.6-7.39-4.64zm4.69 197.3 2.24 15.77 4.35-.91 2.07-13.83-8.66-1.03zm111.01 48.95 9.96 12.45 3.28-3-5.25-12.96-7.99 3.52zM64.3 393.33l12.24 10.21 2.61-3.6-7.73-11.64-7.12 5.03z"/><path fill="#0077EB" d="M658.47 94.56a3.6 3.6 0 0 0 3.62 3.61 3.6 3.6 0 0 0 3.61-3.61 3.61 3.61 0 0 0-3.62-3.62 3.6 3.6 0 0 0-3.61 3.62zM357.88 222.34a3.62 3.62 0 1 0 0-7.23 3.62 3.62 0 0 0 0 7.23z"/><path fill="#FF293E" d="M501.52 84.72a2.23 2.23 0 0 0 2.22 2.23 2.23 2.23 0 0 0 2.23-2.23 2.23 2.23 0 0 0-2.23-2.22 2.23 2.23 0 0 0-2.22 2.22z"/><path fill="#00D46E" d="M215.26 193.49a2.23 2.23 0 0 0 2.22 2.22 2.23 2.23 0 0 0 2.23-2.22 2.23 2.23 0 0 0-2.23-2.23 2.23 2.23 0 0 0-2.22 2.23z"/><path fill="#0077EB" d="M272.91 79.94a2.23 2.23 0 0 0 2.23 2.23 2.23 2.23 0 0 0 2.22-2.23 2.23 2.23 0 0 0-2.22-2.22 2.23 2.23 0 0 0-2.23 2.22zm37.68-77.4a2.23 2.23 0 0 0 2.22 2.22 2.23 2.23 0 0 0 2.23-2.22A2.23 2.23 0 0 0 312.8.3a2.23 2.23 0 0 0-2.22 2.23zM201.13 236.39a2.23 2.23 0 0 0 2.22 2.22 2.23 2.23 0 0 0 2.23-2.22 2.23 2.23 0 0 0-2.23-2.23 2.23 2.23 0 0 0-2.23 2.23z"/><path fill="#FF293E" d="M345.12 175.5a2.23 2.23 0 0 0 2.22 2.23 2.23 2.23 0 0 0 2.23-2.23 2.23 2.23 0 0 0-2.23-2.22 2.23 2.23 0 0 0-2.22 2.22z"/><path fill="#00D46E" d="M690 69.93a2.23 2.23 0 0 0 2.23 2.22 2.23 2.23 0 0 0 2.23-2.22 2.23 2.23 0 0 0-2.23-2.23 2.23 2.23 0 0 0-2.22 2.23z"/><path fill="#FF293E" d="M525.47 323.6a3.6 3.6 0 0 0 3.62 3.6 3.6 3.6 0 0 0 3.61-3.6 3.6 3.6 0 0 0-3.62-3.62 3.6 3.6 0 0 0-3.61 3.61z"/><path fill="#00D46E" d="M459.4 435.82a3.6 3.6 0 0 0 3.62 3.61 3.6 3.6 0 0 0 3.62-3.61 3.6 3.6 0 0 0-3.62-3.62 3.6 3.6 0 0 0-3.61 3.62zm43.63-315.62a3.6 3.6 0 0 0 3.62 3.62 3.6 3.6 0 0 0 3.61-3.62 3.6 3.6 0 0 0-3.61-3.62 3.61 3.61 0 0 0-3.62 3.62z"/><path fill="#0077EB" d="m745.66 148.96-11.38 11.16-2.9-3.38 6.77-12.22 7.5 4.44z"/><path fill="#00D46E" d="M657.63 243.09a2.23 2.23 0 0 0 2.23 2.22 2.23 2.23 0 0 0 2.22-2.22 2.23 2.23 0 0 0-2.22-2.23 2.23 2.23 0 0 0-2.23 2.23zM367.05 383.17a2.23 2.23 0 0 0 2.22 2.22 2.23 2.23 0 0 0 2.23-2.22 2.23 2.23 0 0 0-2.23-2.23 2.23 2.23 0 0 0-2.22 2.23z"/><path fill="#0077EB" d="m721.73 217.93-11.38 11.16-2.9-3.37 6.77-12.24 7.5 4.45z"/><path fill="#FFD400" d="m560.48 267.72 8.05 13.74-3.97 2-10.22-9.55 6.14-6.2zm127.34 29 8.05 13.75-3.98 2-10.22-9.54 6.15-6.2zM431.87 407.28l-12.89 9.37-2.36-3.77 8.48-11.1 6.77 5.5zM409.9 108.94l3.85 15.46-4.38.8-7.1-12.05 7.63-4.22z"/><path fill="#0077EB" d="m665.96 431.77-7.1 14.27 4.12 1.7 9.53-10.21-6.55-5.76zm-45.4-354.3 10.79 11.72-3.47 2.8-12.01-7.17 4.7-7.35z"/><path fill="#FF7004" d="m526.83 216.9 10.86 11.67-3.45 2.81-12.04-7.08 4.63-7.4z"/><path fill="#0077EB" d="m364.99 87.3-11.3 11.25-2.92-3.35 6.68-12.28 7.54 4.38z"/><path fill="#FFD400" d="m688.77 22.66 1.36 12.71 3.52-.61 2.04-11.03-6.92-1.07zM466.7 65.86l-2.87 12.45 3.53.59 5.53-9.77-6.19-3.28z"/><path fill="#FF293E" d="m416.47 52.24-5.15 15.07 4.3 1.17 8.1-11.39-7.25-4.85zm167.22 39.8 7.28 14.18-4.1 1.77-9.64-10.11 6.46-5.84zM199.5 82.6l8.57 13.42 3.58-2.63-3.83-13.45-8.32 2.66z"/><path fill="#453239" d="m633.22 150.85-28.42 55.57-18.07-4.26 2.73-18.52-5.63 17.84-8.28-1.96 2.47-9.2c2.47-9.21 6.74-9.04 10.02-14.8 3.28-5.76-1.3-10.51 5.1-22.56 6.42-12.04 11.5-8.34 19.22-13.11 7.72-4.78 7.57-12.4 7.57-12.4l13.3 23.41v-.01zm28.48-52.68c2.7-.07 5.3 1.2 7.26 3.06a19.55 19.55 0 0 1 4.35 6.75c.84 2 1.5 4.11 1.56 6.28a8.85 8.85 0 0 1-1.97 6.05 10.38 10.38 0 0 1-3.38 2.4c-1.8.83-4 1.34-5.72.37a6.82 6.82 0 0 1-2.2-2.34c-3.44-5.17-12.12-22.23.12-22.55l-.02-.02z"/><path fill="#453239" d="M698.92 201.91s-2.34.88-5.97 2.19c-1.96-4.84-6.69-16.04-10.75-21.36l4.9 23.44c-10.86 3.83-26.1 8.87-31.57 9.2-8.89.56-30.36-109.56-30.36-109.56s6.15-7.57 18.2-5.6c12.05 1.98 16.97 7.35 18.5 13.7 1.53 6.35-.76 14.68 1.21 18.63 1.98 3.93 9.43 2.51 12.49 12.26 3.06 9.77-1.75 16.33 4.06 21.25 5.81 4.94 13.27 4.72 16.55 19.3 3.28 14.56 2.74 16.54 2.74 16.54v.01z"/><path fill="#453239" d="M651.87 102.64s7.83.34 11.34 10.65c3.5 10.3-.84 15.86 2.1 21.41 2.93 5.55 5.9 8.14 5.9 8.14l-9.67-6.43-2.5-10.38-7.18-23.38.01-.01z"/><path fill="#5787FF" d="m659.77 206.42-12.96 31.93-5.56-.3c.56-2.28 1.32-4.5 2.06-6.73a276.58 276.58 0 0 0 5.87-20.33c.48-1.94.89-7.71 2.63-8.44 1.82-.78 5.9 1.48 7.85 2.71l.11 1.16z" opacity=".27" style="mix-blend-mode:multiply"/><path fill="#5787FF" d="M664.3 288.08c-.83-1.32-1.42-2.8-2.1-4.22-3.38-7.06-8.85-12.87-13.5-19.17-4.64-6.3-8.63-13.67-8.25-21.49.06-1.26.23-2.5.48-3.73.09-.47.21-.96.32-1.43l5.56.3c-.29 12.98 4.68 10.67 11.32 27.78 2.87 7.35 4.62 13.17 5.44 18v.02c.35 1.14.6 2.46.75 3.9l-.01.04z" opacity=".27" style="mix-blend-mode:multiply"/><path fill="#B86CE1" d="M656.44 444.84s-.43.1-1.03-.04l-.46-.15c-.8-.36-1.75-1.25-2.23-3.37-.44-1.97-1.29-5.77-2.3-9.66l-.09-.3c-.55-2.1-1.15-4.2-1.75-6.07l-.1-.32c-.47-1.4-.93-2.62-1.39-3.59l-.14-.3a11.1 11.1 0 0 1-.29-.55c-.42-.75-.82-1.5-1.2-2.24a2.94 2.94 0 0 1-.16-.29 90.77 90.77 0 0 1-2.77-6l4.81-12.63.06-.16.15-.1c.9-.68 6.25-4.29 13.43-.9.13.06.26.11.38.2.5.25 1.03.54 1.56.86a2 2 0 0 1 .93 1.56c.25 3.57 1.07 15.67.61 20.44-.54 5.63-1.86 23.85-8.02 23.61z"/><path fill="#FFD9D6" d="M660.27 438.2c-.74 2.12-1.86 4.74-4.12 6.17a7.26 7.26 0 0 1-.75.43l-.45-.15a5.34 5.34 0 0 0 1.04-.55c2.15-1.37 3.27-3.93 3.98-6a40.9 40.9 0 0 0 1.41-5.15c.05-.1.06-.2.07-.3 1.42-6.76 1.45-13.81 1.32-20.56a89.64 89.64 0 0 0-.2-5.14 44.94 44.94 0 0 0-.73-5.24c0-.12-.04-.21-.07-.31a39.58 39.58 0 0 0-.78-3.25c.13.05.26.1.38.19.3 1.04.54 2.1.75 3.16.38 1.79.63 3.6.76 5.42.14 1.7.19 3.42.21 5.17.14 6.79.11 13.9-1.35 20.72 0 0 0 .09-.02.1a43.99 43.99 0 0 1-1.44 5.27v.01z"/><path fill="#FFD9D6" d="M652.05 400.77c-2.67-.7-4.67-1.44-4.71-1.46-.08-.02-.13-.12-.1-.2.03-.09.14-.13.21-.1.1.04 9.05 3.42 14.48 2.36a.18.18 0 0 1 .2.13c0 .08-.05.16-.13.2-2.94.58-6.89-.13-9.95-.93zm-1.72 30.83s-.11-.07-.13-.14c0-.08.06-.16.14-.18.06 0 5.66-.68 11.3 1.42.08.03.12.13.1.21-.04.08-.13.13-.22.1a26.44 26.44 0 0 0-11.14-1.4h-.05zm3.88-16.13c0 .1-.07.17-.17.15-3.25.07-6.62 1.56-8.6 2.6-.06-.1-.12-.19-.16-.29 2.02-1.04 5.44-2.57 8.76-2.62.09 0 .15.07.15.16h.02zm1.77 3a.16.16 0 0 1-.17.17c-3.32.06-6.77 1.63-8.73 2.69l-.14-.3c2-1.08 5.5-2.65 8.87-2.7.08-.02.15.06.17.15zm1.15 4.1c0 .1-.07.16-.15.17-3.16.06-6.41 1.46-8.41 2.5-.05-.1-.07-.21-.1-.31 2.04-1.05 5.33-2.45 8.5-2.5.1 0 .16.06.15.16l.01-.01z"/><path fill="#FF9D88" d="m633.88 408.48 8.65 3.46s2.9-3.32 3.9-8.05l.98-4.73-7.71-4.03-5.82 13.35z"/><path fill="#B86CE1" d="M730.26 425.67s-.4.2-1 .22c-.15 0-.32 0-.48-.04-.88-.14-2-.78-3-2.7-.94-1.81-2.7-5.27-4.65-8.78l-.15-.27c-1.08-1.9-2.17-3.79-3.22-5.44-.07-.1-.1-.2-.18-.28-.8-1.22-1.56-2.3-2.24-3.13l-.2-.26a13.56 13.56 0 0 0-.44-.45c-.6-.61-1.16-1.25-1.72-1.86l-.22-.25c-2.38-2.7-4.19-5.12-4.19-5.12l1.5-13.43v-.17l.13-.14c.7-.88 4.98-5.7 12.78-4.23l.41.09c.56.1 1.13.26 1.73.44.61.18 1.08.67 1.3 1.28 1.12 3.4 4.94 14.9 5.7 19.65.87 5.6 4.15 23.56-1.87 24.88l.01-.02z"/><path fill="#FFD9D6" d="M732.32 418.27c-.18 2.24-.61 5.06-2.45 7-.17.19-.39.4-.61.62-.15 0-.32 0-.49-.04.27-.19.57-.45.88-.78 1.75-1.87 2.17-4.62 2.35-6.82.14-1.78.17-3.56.08-5.32v-.3c-.3-6.9-2.04-13.75-3.86-20.23a92.7 92.7 0 0 0-1.5-4.94 46.26 46.26 0 0 0-2-4.9c-.04-.09-.08-.19-.13-.27a35.03 35.03 0 0 0-1.57-2.95l.41.09a40.33 40.33 0 0 1 1.52 2.86 44.49 44.49 0 0 1 2.1 5.06 79 79 0 0 1 1.49 4.95c1.82 6.54 3.57 13.45 3.88 20.4v.1a42.3 42.3 0 0 1-.09 5.47h-.01z"/><path fill="#FFD9D6" d="M715 384.1c-2.76 0-4.87-.24-4.91-.24-.09 0-.16-.08-.14-.18 0-.08.1-.16.18-.14.1 0 9.62 1.06 14.6-1.33.08-.04.18 0 .2.07.05.08 0 .18-.06.2-2.7 1.3-6.7 1.6-9.86 1.6v.02zm6.03 30.27s-.13-.04-.15-.1c-.03-.08 0-.17.1-.2.05-.02 5.3-2.07 11.29-1.46.08 0 .15.08.14.18 0 .08-.1.15-.19.14-5.9-.6-11.08 1.42-11.13 1.43h-.06v.01zm-.25-16.59c.03.09-.03.18-.1.2-3.15.87-6.03 3.17-7.7 4.67l-.22-.25c1.68-1.52 4.62-3.85 7.83-4.74.08-.03.16.02.2.1v.02zm2.45 2.47c.02.08-.03.18-.12.2-3.2.9-6.16 3.27-7.78 4.77l-.21-.26c1.67-1.53 4.66-3.92 7.91-4.83.08-.04.17.03.2.1v.01zm2.14 3.68c.03.08-.03.17-.1.2-3.03.83-5.84 3.01-7.52 4.51-.07-.1-.11-.19-.18-.27 1.71-1.52 4.55-3.7 7.6-4.55.09-.03.19.03.2.11z"/><path fill="#FF9D88" d="m699.33 396.09 9.24 1.2s1.97-3.96 1.75-8.77l-.22-4.82-8.49-1.98-2.29 14.38.01-.01z"/><path fill="#5787FF" d="m659.77 206.42-12.96 31.93a82.16 82.16 0 0 1-5.88 1.12c-22.93 3.6-38.26-3.49-38.26-3.49 0-4.38-5.66-21.73-4.1-34.01 1.64-12.99 17.42-40.34 17.42-40.34h9.2c11.4 3.32 21.63-.94 21.63-.94h8.58l4.27 44.55.11 1.15-.01.03z"/><path fill="#FFCC05" d="M625.17 161.64s-16.02 21.14-10.84 25.88c5.38 4.94 14.8.82 21.2-5.6 6.41-6.4 11.27-21.21 11.27-21.21s-11.77 8.62-17.36 6.2c-5.59-2.42-4.27-5.28-4.27-5.28v.01z"/><path fill="#5787FF" d="m701.88 380.08-2.92 18.33s-32.57 1.82-57.82-.75l-9.4 15.1s-56.97-24.38-59.16-38.23C570.4 360.7 592.3 293 592.3 293c3.06-13 10.35-57 10.35-57l38.59 2.05 5.56.3c-.3 12.98 4.67 10.67 11.32 27.78 2.87 7.35 4.62 13.17 5.44 18v.02c.35 1.14.6 2.46.75 3.9 2.32 21.54-14.66 74.5-14.66 74.5l52.23 17.53v.01z"/><path fill="#FFD9D6" d="M642.76 187.76a2.26 2.26 0 0 1-2.25 2.26 2.28 2.28 0 0 1-2.27-2.26 2.27 2.27 0 0 1 2.27-2.27 2.25 2.25 0 0 1 2.25 2.27zm-31.6-3.54a2.27 2.27 0 1 1-4.53 0 2.27 2.27 0 0 1 4.54 0z"/><path stroke="#FFD9D6" stroke-linecap="round" stroke-linejoin="round" stroke-width=".23" d="M605.62 191.7s17.16 2.23 34.06 3.05c0 0-4.42 22.77-22.71 20.65-18.29-2.11-11.35-23.7-11.35-23.7zm-2.96 44.3s27.42 5.7 44.13 2.36m-46.15 2.14s29.44 5.83 46.17 2.48"/><path stroke="#FFD9D6" stroke-linecap="round" stroke-linejoin="round" stroke-width=".23" d="M655.93 205.26s-15.09 30.9-13.17 38.78c1.92 7.85 19.89 30.56 18.36 52.07-1.53 21.52-17.6 61.62-14.17 68.63 3.43 7.01 54.44 18.4 54.44 18.4"/><path stroke="#FFD9D6" stroke-linecap="round" stroke-linejoin="round" stroke-width=".23" d="M630.45 244.19c-.4 8.83 1.39 17.96 6.42 25.24 5.02 7.27 13.56 12.37 22.39 12"/><path stroke="#453239" stroke-linecap="round" stroke-linejoin="round" stroke-width=".23" d="m602.66 277.9 10.63 12.25s-8.59 84.91 0 96.08c8.6 11.16 27.85 11.44 27.85 11.44"/><path fill="#5787FF" d="M609.49 313.43c-3 14.9-6.02 29.85-6.6 45.03-.23 6.52 0 13.14 1.78 19.42 1.6 5.64 5.43 11.6 11.29 11.96-5.9-5.03-6.55-13.78-6.62-21.54a720.68 720.68 0 0 1 .51-35.53c.46-11.57 2.25-23.94 2.75-35.07-1.6 3.49-2.32 11.78-3.11 15.71v.02z" opacity=".27" style="mix-blend-mode:multiply"/><path fill="#FFCC05" d="M552.2 98.17s3.62 34.48 14.47 49.34c10.85 14.87 34.72 44.2 34.72 44.2l14.58-30.06s-24-17.02-27.62-24.25c-3.62-7.23-24-46.03-24-46.03l-12.17 6.82.03-.02z"/><path fill="#FF9D88" d="m554.6 96.84-4.54-18.3 8.56-3.94 5.75 16.77-9.77 5.47z"/><path fill="#FF9D88" d="M550.06 78.55s-4.55-4.27-3.56-10.74c.99-6.46 3.56-10.62 3.56-10.62s-2.52-.11-3.22-1.98c-1.23-3.17-1-8.44.76-10.19 1.75-1.75 10.85-1.86 13.15-.76 2.3 1.1 3.51 3.39 3.62 7.23.11 3.83.99 5.7.45 8.33-.55 2.63-6.2 14.8-6.2 14.8l-8.54 3.94-.02-.01z"/><path stroke="#453239" stroke-linecap="round" stroke-linejoin="round" stroke-width=".23" d="M563.47 58.98s-1.72-15.61-3.86-13.8c-2.14 1.8-2.96 10.02-2.38 13.8 0 0-4.94 1.48-6.16 4.77m-.4-19.85s-1.76 3.86-1.32 7.59c.45 3.72 1.31 5.68 1.31 5.68"/><path stroke="#453239" stroke-linecap="round" stroke-linejoin="round" stroke-width=".23" d="M554.35 43.55s-1.27 3.13-1.1 6.98c.17 3.85.88 6.55.88 6.55"/><path stroke="#453239" stroke-linecap="round" stroke-linejoin="round" stroke-width=".23" d="M558.78 43.76s-1.15 2.68-1.57 7.4c-.42 4.7-.17 5.64-.17 5.64-1.62.38-6.98.39-6.98.39"/><path fill="#FFCC05" d="m655.38 160.72-.49 1.02c-3 6.31-17.98 40.23 4.9 44.7 0 0 8.47-14.92 15.1-22.86 6.63-7.94 42.57-62.7 42.57-62.7l-14.03-16.02s-30.68 45.61-33.1 48.12l-14.95 7.76v-.02z"/><path fill="#FF9D88" d="m704.55 106.14 18.15-26.06 8.33 4.6-16.68 32.65-9.8-11.19z"/><path fill="#FF9D88" d="M749.43 62.21c-.88 3.52-7.9 11.18-9.43 13.81a16.64 16.64 0 0 1-6.13 5.91c-2.42 1.43-3.05 3.13-3.05 3.13l-8.12-4.98s-1.43-1.64 0-8.55c1.42-6.9 3.94-18.53 5.9-18.75 1.91-.2 2.37 8.14 2.42 9.92v.16c0 .1.05.09.16 0 1.25-1.22 9.32-15.47 11.24-14.78.58.22 1.47 1.15 2.4 2.48l.2.27a32.4 32.4 0 0 1 2.03 3.36c.07.1.11.2.17.32a30.4 30.4 0 0 1 1.6 3.64c.05.12.1.25.12.36.49 1.47.71 2.81.47 3.71l.02-.01z"/><path fill="#453239" d="M732.25 72.63c-.08 0-.15-.09-.15-.17.23-3.95-1.21-9.49-1.23-9.54-.02-.08.03-.18.11-.2.09-.02.17.03.2.12.01.05 1.49 5.63 1.24 9.63 0 .09-.09.16-.17.16zm12.78-21.8-9.1 12.54s-.09.06-.13.06c-.04 0-.07 0-.1-.04-.07-.05-.08-.14-.03-.22l9.17-12.61c.07.08.12.18.2.27zm2.2 3.68-8.18 10.65s-.08.07-.12.07c-.03 0-.07 0-.09-.03-.08-.07-.08-.15-.04-.24l8.26-10.77c.07.1.11.2.17.32zm1.72 4-7.17 9.37s-.09.07-.13.07c-.04 0-.08 0-.1-.04a.16.16 0 0 1-.02-.22l7.31-9.54c.04.12.09.25.11.36z"/><path stroke="#453239" stroke-linecap="round" stroke-linejoin="round" stroke-width=".23" d="m665.95 181.26-7.82 24.77m-59.85-32.15 3.12 17.83 1.26-21.77m97.53-60.3 14.35 15.65m-161.26-19.33 14.67-7.79"/><path fill="#FF9D88" d="M653.44 130.27c0 .1-.06.25-.08.4-.07.36-.17.75-.27 1.07-.96 3.62-2.53 7-4.18 10.32a30.01 30.01 0 0 0-3.03 9.7 21.87 21.87 0 0 0 0 5.23c.14 1.03.65 2 .87 3 .6 2.62-3.07 5.04-4.96 6.32a20.53 20.53 0 0 1-8.83 3.45 16.96 16.96 0 0 1-4.83 0c-2.75-.37-5.4-1.25-4.42-4.6.43-1.48 1.33-2.74 1.67-4.26.28-1.32.43-2.67.62-4l.09-.49c.02-.11.04-.22.04-.32v-.08a3.11 3.11 0 0 0 .08-.53l.09-.53.05-.5c0-.08.03-.15.03-.22.08-.56.28-1.59.05-1.96v-.09s0-.05-.02-.07c0-.02-.03-.04-.03-.04-1.3-.26-2.67-.2-3.84-.82-2.71-1.37-4.03-4.1-4.7-7-.03-.13-.07-.27-.08-.41a32.34 32.34 0 0 1-.63-4.56 53.92 53.92 0 0 1 .08-9.7c0-.27.06-.54.09-.79a52.35 52.35 0 0 1 .54-3.65l.04-.2c.07-.43.16-.85.27-1.3l.16-.66.05-.14.51-2 .11-.43.06-.17.2-.7c.09-.27.16-.5.27-.76 1.11-3.11 2.66-6.08 4.92-8.38a18.18 18.18 0 0 1 12.77-5.6c1.28 0 2.57.14 3.84.45.28.06.54.14.83.22l.42.13.85.29c3.99 1.52 7.17 4.5 9.22 8.36 1.3 2.46 1.61 5.73 1.72 8.5.08 2.53-.1 5.01-.63 7.46v.06z"/><path fill="#FF7878" d="M638.24 149s-6.17 7.62-12.26 7.92c.32-1.52.52-3.04.47-4.63v-.07l-.01-.08c0-.03-.03-.04-.03-.04s9.02-1.15 11.86-3.12l-.03.02z"/><path fill="#FF9D88" d="M650.4 133.78c.68-.58 3.56-5.46 7.26-3.92 3.7 1.53 2.4 10.96-2.8 12.5-5.18 1.52-6.9-1.14-6.9-1.14l2.44-7.44z"/><path stroke="#453239" stroke-linecap="round" stroke-linejoin="round" stroke-width=".23" d="M653.11 133.3c.53-.95 1.25-1.99 2.33-2.02.77 0 1.46.56 1.89 1.21 1.25 1.9.94 4.52-.27 6.46a4.7 4.7 0 0 1-2.1 1.93c-.9.36-2.03.25-2.7-.46a3.02 3.02 0 0 1-.7-1.8"/><path stroke="#453239" stroke-linecap="round" stroke-linejoin="round" stroke-width=".23" d="M656.64 131.75s-3.15 2.03-4.78 8.08"/><path fill="#453239" d="M653.36 130.67s-1.33-1.07-4.3-2.04h-.04L647.97 118s.13 7.6.05 10.25c-1.3-.53-2.77-1.2-4.4-1.9-.2-3.62-.41-10.64.5-14.15-.34.99-2.75 8.05-3.6 12.95a30.25 30.25 0 0 0-2.86-.8c-2.18-.5-6.67-1.19-10.89-1.8.25-3.06.88-9.17 2.23-12.38-.43.78-3.9 6.93-5.22 11.92a565.54 565.54 0 0 0-6.81-.93s.96-8.43 8.2-15.34c7.23-6.91 19.62-2.2 19.62-2.2s5.15.99 8.57 7.12c3.42 6.15 0 19.92 0 19.92v.01z"/><path fill="#453239" d="M649.7 136.04c0 .1 0 .2.06.28.17.2.5-.02.66-.24 1.28-1.78 2.04-3.9 3.43-5.6.45-.55.95-1.05 1.27-1.67.32-.63.4-1.44 0-2-.32-.47-.9-.67-1.44-.76-1.82-.25-3.42.7-3.65 2.5a46.6 46.6 0 0 0-.34 7.49zm-25.56 2.52s.1 0 .13-.05c.04-.05.03-.12-.03-.16a4.9 4.9 0 0 1-1.3-1.38c-.08-.14-.16-.3-.17-.46-.03-.36.3-.64.6-.9l.22-.2c1.11-1.03 1.15-2.72 1.08-4.09a36.23 36.23 0 0 0-.51-4.24c0-.07-.09-.1-.16-.1-.06 0-.1.08-.1.14.26 1.4.44 2.81.52 4.22.09 1.39.03 2.95-1 3.9l-.2.19c-.34.29-.73.62-.7 1.1.01.2.1.4.22.57a4.97 4.97 0 0 0 1.36 1.44c.02 0 .03.02.04.03v-.01zm-3.96-10.71c-.14.6.23 1.24.83 1.36.6.14 1.21-.25 1.35-.88a1.12 1.12 0 0 0-.83-1.36c-.6-.14-1.21.25-1.35.88zm12.3 1.89a1.3 1.3 0 0 0 .68 1.7c.64.29 1.39-.03 1.66-.7a1.3 1.3 0 0 0-.66-1.71c-.64-.28-1.4.04-1.67.7z"/><path stroke="#453239" stroke-linecap="round" stroke-linejoin="round" stroke-width=".19" d="M627.54 143.03s-2.37.56-4.06-.2"/><path stroke="#453239" stroke-linecap="round" stroke-linejoin="round" stroke-width=".22" d="M630.24 140.28s-4 2.66-9.28.11"/><path fill="url(#b)" d="M631.82 138.88a7.93 7.93 0 1 0 15.74 2 7.93 7.93 0 0 0-15.74-2z"/><path fill="url(#c)" d="M622.39 137.66a7.69 7.69 0 0 1-1.06 3.06 7.91 7.91 0 0 1-3.56 3.16 32.32 32.32 0 0 1-.62-4.56 53.9 53.9 0 0 1 .08-9.7c0-.13.03-.27.06-.4a7.94 7.94 0 0 1 5.11 8.43l-.01.02z"/><path fill="#453239" d="M631.22 124.8c.74-.5 1.56-.72 2.4-.8a6.66 6.66 0 0 1 4.83 1.41 3.8 3.8 0 0 1 1.56 2.23.4.4 0 0 1-.3.49.39.39 0 0 1-.31-.06l-.2-.13a11.92 11.92 0 0 0-1.74-.89c-.6-.25-1.3-.54-1.92-.72a23.03 23.03 0 0 0-4.11-.86h-.04a.38.38 0 0 1-.3-.42.37.37 0 0 1 .14-.25zm-7.42-.98a.4.4 0 0 1-.3.02l-.23-.08a12.9 12.9 0 0 0-1.9-.45c-.67-.1-1.4-.22-2.03-.26a12.07 12.07 0 0 0-1.02-.04l.04-.14.52-2c.2 0 .4-.03.6 0a7.5 7.5 0 0 1 2.48.6c.78.38 1.56.82 2.03 1.82a.4.4 0 0 1-.18.54l-.01-.01z"/><path fill="#FF9D88" d="m31.39 338.9-10.12 1.62.5 9.38 10.36.71-.74-11.7z"/><path fill="#FF7878" d="M5.58 378.43c-.1.07-.18.12-.28.16-.36.23-.68.3-.93.2C.56 377.12-1.21 367.4.9 357.72c2.12-9.68.4-17.87 4.43-21.2.7-.58 1.8-.74 3.1-.63l.44.02c2.6.31 5.89 1.56 8.42 2.66l.47.2a67.05 67.05 0 0 1 3.42 1.66l.57 9.45-2.27 5.03-.14.3-1.2 2.75-.14.3-.9 2.09c-.18.39-.37.82-.6 1.29a105.98 105.98 0 0 1-5.66 10.06 4.4 4.4 0 0 0-.16.26c-1.9 2.95-3.8 5.48-5.13 6.45l.03.01z"/><path fill="#fff" d="M5.58 378.43c-.1.07-.18.12-.28.16a12.35 12.35 0 0 1-2.07-4.38 27.76 27.76 0 0 1-1.07-8.29v-.2c0-.78.07-1.58.15-2.36.17-1.6.5-3.24.8-4.8.35-1.76.7-3.55.87-5.36.11-1.34.12-2.71.12-4.06.02-2.7.05-5.5.95-8.08a12.85 12.85 0 0 1 3.36-5.16l.45.03a12.5 12.5 0 0 0-2.8 3.57c-.07.1-.1.2-.16.3-.22.47-.4.9-.56 1.36-.87 2.54-.89 5.3-.92 7.97-.01 1.34-.01 2.73-.14 4.1-.16 1.8-.51 3.61-.86 5.38-.3 1.56-.62 3.18-.8 4.78-.09.78-.14 1.57-.16 2.37 0 .12 0 .25-.02.36a27.69 27.69 0 0 0 1.07 8c.36 1.25.93 2.94 2.03 4.3h.04zm13.78-23.2c-.35-.33-.7-.64-1.07-.93a10.55 10.55 0 0 0-4.38-2.21c-.03 0-.05-.03-.07-.06-.05-.03-.06-.08-.05-.14 0-.1.1-.15.18-.12 1.52.32 3.04 1.08 4.52 2.28.37.28.69.57 1 .87-.04.1-.1.2-.13.31zM18 358.29a14.85 14.85 0 0 0-.71-.61 10.53 10.53 0 0 0-4.46-2.25c-.05-.03-.06-.1-.05-.16 0-.1.1-.14.19-.12a11.2 11.2 0 0 1 4.52 2.28l.65.55-.14.3zm-1.64 3.67c-.28-.28-.57-.51-.88-.76a10.46 10.46 0 0 0-4.38-2.21c-.02 0-.04-.03-.07-.05a.15.15 0 0 1-.05-.15.18.18 0 0 1 .2-.13c1.5.31 3.02 1.08 4.51 2.27.28.22.57.46.82.73-.04.1-.1.19-.15.29v.01z"/><path fill="#fff" d="M17.78 338.8a37.74 37.74 0 0 1-11.85 1.02h-.04c-.04 0-.07 0-.1-.03-.04-.02-.06-.08-.06-.14 0-.1.09-.16.17-.15h.2a37.47 37.47 0 0 0 11.2-.9l.48.2zM10.7 372a55.9 55.9 0 0 0-8.24-5.86 2.4 2.4 0 0 0-.25-.15s-.02 0-.04-.01v-.03c-.04-.04-.04-.13 0-.18h.02s.12-.1.2-.06c.03.03.06.06.12.07a57.59 57.59 0 0 1 8.38 5.94l-.17.26-.02.02z"/><path fill="#FF9D88" d="m104.27 385.6-6.57 7.87 6.57 6.75 8.26-6.29-8.26-8.33z"/><path fill="#FF7878" d="M110.86 432.36a5.2 5.2 0 0 1-.08.3c-.12.42-.3.68-.57.77-3.96 1.25-11.7-4.9-16.48-13.6-4.78-8.67-11.47-13.69-10.64-18.86.14-.9.87-1.74 1.92-2.52l.37-.26c2.17-1.48 5.46-2.7 8.08-3.55.16-.06.33-.1.5-.15 2.1-.64 3.67-1 3.67-1l6.64 6.73s.67 2.25 1.62 5.28l.08.32.9 2.87.09.32.7 2.16.41 1.37.08.32a107.88 107.88 0 0 1 2.34 11.28c.5 3.47.75 6.63.39 8.23l-.01-.02z"/><path fill="#fff" d="m110.87 432.35-.09.31a12.33 12.33 0 0 1-4.43-1.93 27.93 27.93 0 0 1-6.27-5.54l-.13-.15a30.65 30.65 0 0 1-1.45-1.88c-.94-1.32-1.76-2.77-2.56-4.16a58.92 58.92 0 0 0-2.86-4.6c-.8-1.08-1.7-2.13-2.57-3.14-1.77-2.05-3.58-4.16-4.6-6.7a12.85 12.85 0 0 1-.87-6.1c.11-.1.24-.19.36-.27a12.46 12.46 0 0 0 .27 4.53 10.83 10.83 0 0 0 .54 1.72c1.02 2.5 2.82 4.6 4.56 6.61.88 1.03 1.8 2.07 2.59 3.18 1.07 1.48 2 3.06 2.89 4.62.8 1.38 1.63 2.81 2.55 4.13.44.64.93 1.28 1.44 1.88l.22.28a27.64 27.64 0 0 0 6.08 5.3c1.1.7 2.64 1.6 4.35 1.9l-.02.01zm-4.9-26.53a11.98 11.98 0 0 0-1.42 0c-1.85.09-3.46.49-4.76 1.23h-.08c-.06 0-.1-.03-.13-.09-.05-.08-.02-.18.06-.22 1.35-.77 3-1.18 4.9-1.27.45-.02.9-.02 1.34 0l.09.32v.03zm.98 3.17h-.94c-1.85.09-3.46.49-4.76 1.23l-.08.02c-.06 0-.1-.04-.13-.08-.05-.08-.02-.17.06-.22 1.35-.75 3-1.17 4.9-1.27h.87c.03.1.07.22.08.32zm1.2 3.85c-.39-.02-.78 0-1.16 0-1.84.09-3.44.5-4.75 1.23h-.08a.15.15 0 0 1-.14-.09c-.04-.08 0-.18.07-.22a10.74 10.74 0 0 1 4.9-1.26c.35 0 .73-.03 1.09 0l.08.32-.01.02z"/><path fill="#fff" d="M93.95 394.49a38.27 38.27 0 0 1-8.24 8.56l-.04.05a.15.15 0 0 1-.09.04.15.15 0 0 1-.12-.07c-.06-.09-.04-.18.02-.24l.16-.11a37.75 37.75 0 0 0 7.83-8.07l.5-.15-.02-.01zm16.52 29.63c-3.38.03-6.74.38-10.05 1.02-.1 0-.2.03-.3.05h-.07c-.07 0-.1-.07-.12-.12v-.03s.05-.14.12-.15c.06 0 .09 0 .14-.03a57.1 57.1 0 0 1 10.22-1.04c0 .1.03.2.06.3z"/><path fill="#0A3AA5" d="M162.74 308.62c-5.48-19.07-24.7-77.13-24.7-77.13l-26.44-.3-39.32-4.86-4.87 32.97s8.19 42.58 15.63 72.44c-33.85.18-55.5 4.72-55.5 4.72v19.4c8.83 2.55 56.58 5.38 69.24 6.09.83.14 1.7.2 2.6.14.3 0 .47.02.47.02v-.05c7.41-.66 16.34-7.67 17.48-22.2.59-7.5 1.36-24.3 2.1-42.44 5.41 12.35 15.92 36.74 15.92 36.74s-24.65 24-32.87 49.63l11.07 11.18s51.7-38.46 54.34-60.8c0 0 .34-6.48-5.14-25.54l-.01-.01z"/><path stroke="#453239" stroke-linecap="round" stroke-linejoin="round" stroke-width=".23" d="m121.67 260.51-2.24 36.9m3.58-65.68s2.3 25.7 1.48 27.57c-.82 1.88-3.95 1.02-3.95 1.02"/><path fill="#fff" d="M127.44 238.75a1.83 1.83 0 1 0 0-3.67 1.83 1.83 0 0 0 0 3.67z"/><path stroke="#453239" stroke-miterlimit="10" stroke-width=".23" d="M75.24 232.26c-2.2 32.13 7.74 63.69 12.7 95.52.4 2.59.62 5.66-1.36 7.38-1.28 1.13-3.11 1.3-4.8 1.42a626.29 626.29 0 0 1-54.58 1.34m92.94-48.77 17.81 41.15c.28.65.57 1.3.68 2 .42 2.47-1.3 4.74-2.9 6.66a551.6 551.6 0 0 0-32.92 43.82"/><path stroke="#453239" stroke-miterlimit="10" stroke-width=".23" d="M76.21 262.24c3.78-1.66 7.1-5.86 8.82-9.61 2.9-6.37 4.49-13.57 3.1-20.44"/><path fill="#5787FF" d="M154.63 235.1s-.66 6.26-12.55 8.67L138.2 232s10.95-.4 16.43 3.12v-.02z"/><path fill="#5787FF" d="M154.63 235.1s-.66 6.26-12.55 8.67L138.2 232s10.95-.4 16.43 3.12v-.02z" opacity=".43" style="mix-blend-mode:multiply"/><path fill="#FF9D88" d="M168.71 146.29s-4.6 43.55 0 51.12c4.6 7.56 12.93 4.28 12.96-13.71.03-18.01-3.43-35.92-3.43-35.92l-9.53-1.48v-.01zm0 0s-3.45-3.95-5.59-4.94c-2.14-.99-5.34-1.39-6.33-7.23-.98-5.84-2.3-11.92-.65-12.66 1.64-.73 4.19 1.24 4.85 3.45l.66 2.23s-.34-3.28 1.07-3.78c1.39-.5 13.89-1.16 16.35-.17 2.46.99 2.06 12.14 1.4 15.3-.66 3.2-2.23 9.27-2.23 9.27l-9.53-1.47z"/><path stroke="#453239" stroke-linecap="round" stroke-linejoin="round" stroke-width=".23" d="M179.3 128.7s.74 4.35-1.55 5.34c-2.3.98-14.92.46-15.7-.9-.64-1.16-.42-6-.42-6s-.23-2.11 1.07-3.78"/><path stroke="#453239" stroke-linecap="round" stroke-linejoin="round" stroke-width=".23" d="M166.44 122.94c-.7 1.39-.93 2.96-1.08 4.52-.2 2.2-.28 4.45-.2 6.67m6.7-11.6a35.58 35.58 0 0 0-1.17 11.85c0 .07.03.17.1.17s.04-.15 0-.1m5.18-11.79a33.34 33.34 0 0 0-.77 11.8m-7.15 0a7.65 7.65 0 0 1 3.2 2.62"/><path fill="#FF9D88" d="m17.72 178.47-6.88 25.74 11.27 1.64 9.82-21.63-14.21-5.75zm-6.89 25.74S.61 222.65 1.68 225.9c1.07 3.25 16.67 8.63 21.78 4.05 5.09-4.57-1.35-24.11-1.35-24.11l-11.28-1.64z"/><path fill="#FF9D88" d="M2.5 229.67c.47.25 1 .26 1.5.45.78.29 1.34.97 2.08 1.36 1.66.9 3.7.16 5.6.23 1.22.05 2.4.43 3.6.62a11.23 11.23 0 0 0 6.7-1.05 5.1 5.1 0 0 0 1.94-1.51c.6-.82.8-1.87.95-2.88.4-2.42.7-5.1-.68-7.14a7.44 7.44 0 0 0-2.64-2.22 13.91 13.91 0 0 0-11.44-.77c-3.01 1.16-5.15 3.27-6.93 5.89-1.12 1.64-3.41 5.53-.69 7l.02.02zm19.61-23.82s5.02 6.6 6.27 10.1c1.27 3.51 4.14 8.03 3.14 9.55s-4.95-2.94-6.32-5.8l-3.34-6.91.32-7.48"/><path fill="#FF7878" d="M91.76 127.67s5.94 55.48 6.57 74.1c.64 18.62 1.97 28.93 1.97 28.93l35.05 1.75s-10.69-24.65-15.3-51.88c-4.64-27.23-5.65-45.2-5.65-45.2l-22.64-7.7z"/><path fill="#453239" d="M123.6 93.46c.03.5.04 1.04-.2 1.48-.6-.94-.94-2.03-1.26-3.1a138.12 138.12 0 0 1-1.97-7.5c-.21-.87-.3-2 .5-2.42 2.4-1.33 2.86 10.18 2.93 11.55v-.01zm-43.47 2.07c-1-1.56-2.3-3.17-2.16-5.02.04-.49.18-.97.17-1.46-.03-.85-.5-1.6-.88-2.35-1.2-2.4-1.42-5.65.5-7.52.54-.53 1.21-.9 1.71-1.48 1.06-1.2 1.18-3.09 2.37-4.18 1.28-1.19 3.36-1.02 4.86-.13 2.33 1.36 3.56 3.96 4.62 6.44 1.07 2.49 2.1 5.3 1.17 7.84a9.74 9.74 0 0 1-1.4 2.4 42.47 42.47 0 0 1-5.43 6.09c-.75.69-1.89 2.14-3.02 2.05-1.25-.08-1.96-1.82-2.53-2.7l.02.02z"/><path fill="#FF9D88" d="M123.68 98.53a45.65 45.65 0 0 0-.25-3.68 19.06 19.06 0 0 0-.18-1.5l-.59-3.3-.04-.18-.15-.72c-.07-.27-.11-.5-.2-.77a22.63 22.63 0 0 0-4.25-8.76 18.15 18.15 0 0 0-12.28-6.6 16.4 16.4 0 0 0-3.87.16 6.44 6.44 0 0 0-.84.15l-.44.09-.86.23c-4.1 1.2-7.52 3.91-9.86 7.58-1.5 2.35-2.05 5.6-2.39 8.36a30.6 30.6 0 0 0 .03 7.48c0 .11.04.25.07.4.04.38.1.77.18 1.1.67 3.69 1.97 7.18 3.35 10.63a29.62 29.62 0 0 1 2.25 9.91 20.5 20.5 0 0 1-.43 5.22c-.22 1.01-.8 1.92-1.11 2.9-.8 2.58 2.67 5.28 4.45 6.72 2.48 2 5.42 3.47 8.54 4.15 1.58.34 3.2.48 4.81.39 2.77-.17 5.48-.82 4.76-4.23-.32-1.5-1.12-2.84-1.32-4.37-.21-1.5-.25-3.02-.35-4.53-.04-.66-.1-1.3-.11-2 0-.46-.2-1.77.08-2.16v-.08c0-.03 0-.06.03-.07 0 0 0-.03.04-.04 1.3-.16 2.67 0 3.9-.52 2.82-1.15 4.33-3.77 5.24-6.6.52-1.65.84-3.36 1.1-4.9.54-3.34.79-6.9.68-10.47v.01z"/><path fill="#FF7878" d="M101.21 116.96s5.55 8.1 11.6 8.89c-.2-1.55-.28-3.08-.1-4.66v-.06c0-.04 0-.06.03-.07 0-.03.03-.04.04-.04 0 0-8.91-1.86-11.57-4.05v-.01z"/><path fill="#FF9D88" d="M90.3 100.83c-.63-.64-3.12-5.73-6.93-4.5-3.8 1.24-3.27 10.74 1.78 12.69 5.05 1.95 6.97-.57 6.97-.57l-1.84-7.6.02-.02z"/><path stroke="#453239" stroke-linecap="round" stroke-linejoin="round" stroke-width=".23" d="M87.64 100.13c-.45-.97-1.09-2.08-2.16-2.18-.78-.07-1.5.45-1.99 1.06-1.4 1.79-1.3 4.43-.25 6.45a4.6 4.6 0 0 0 1.95 2.1c.88.43 2 .4 2.73-.24.48-.44.72-1.1.84-1.74"/><path stroke="#453239" stroke-linecap="round" stroke-linejoin="round" stroke-width=".23" d="M84.23 98.31s2.98 2.28 4.12 8.43"/><path fill="#453239" d="M115.4 107.21s-.1-.01-.13-.07c-.05-.07 0-.15.05-.18a4.71 4.71 0 0 0 1.49-1.33c.11-.16.2-.31.25-.5.07-.38-.24-.74-.51-1.1l-.2-.24c-1.01-1.32-.86-3.23-.61-4.73a44.17 44.17 0 0 1 1.04-4.66c.02-.07.1-.1.17-.1.07.03.11.1.08.17A43.68 43.68 0 0 0 116 99.1c-.25 1.55-.39 3.29.56 4.52.05.09.12.16.2.24.31.38.66.8.57 1.33-.04.24-.16.44-.29.6a5.08 5.08 0 0 1-1.57 1.4l-.05.02h-.02zm4.87-10.51c.07.6-.33 1.12-.9 1.2-.57.06-1.1-.35-1.18-.95-.07-.6.33-1.13.9-1.2.57-.07 1.1.35 1.18.95zm-12.84.66c.19.66-.16 1.35-.8 1.56a1.21 1.21 0 0 1-1.51-.82c-.2-.65.15-1.35.79-1.56a1.21 1.21 0 0 1 1.51.82zm-8.72-6.14c-.33.53-.58 1.3-.12 1.7.39.37 1.01.2 1.53.04a30.56 30.56 0 0 1 6.1-1.38c.47-.06.95-.1 1.38-.3.43-.19.8-.58.83-1.05.14-1.72-3.11-2.72-4.46-2.47a8.07 8.07 0 0 0-5.26 3.46zm23.72-2.62a2.16 2.16 0 0 0-1.61-.83c-.71-.06-1.36.32-1.97.7-.34.2-.67.41-.92.7-.27.31-.42.7-.32 1.07.08.35.36.62.67.78.31.16.68.23 1.02.3.5.1.98.18 1.48.26l2.03.37c.05 0 .14.02.18 0v-.04l-.57-3.3h.01z"/><path stroke="#453239" stroke-linecap="round" stroke-linejoin="round" stroke-width=".2" d="M111.1 111.4s2.26 1.1 4.16.72"/><path stroke="#453239" stroke-linecap="round" stroke-linejoin="round" stroke-width=".23" d="M107.48 107.21s4.97 4.47 10.71 2.55"/><path fill="url(#d)" d="M107.48 106.52a8.22 8.22 0 0 1-8.21 8.21 8.2 8.2 0 0 1-8.22-8.21 8.2 8.2 0 0 1 8.22-8.22 8.2 8.2 0 0 1 8.21 8.22z"/><path fill="url(#e)" d="M123 109a33.58 33.58 0 0 1-1.1 4.89 8.21 8.21 0 0 1-4.59-7.37 8.2 8.2 0 0 1 6.36-8 55.14 55.14 0 0 1-.68 10.47h.01z"/><path fill="#453239" d="M89.15 95.26a37.14 37.14 0 0 0 2.13-4.2c1.01-2.33 1.8-4.93 1.51-7.52-.29-2.59-1.93-5.13-4.21-5.5-2.49-.42-4.87 1.89-5.63 4.61-.75 2.73-.25 5.69.54 8.4a22.63 22.63 0 0 0 2.21 5.41c1.38 2.25 2.42.52 3.42-1.2h.03z"/><path fill="#453239" d="M90.95 65c1.75-.47 3.73-.2 5.31-1.07.87-.47 1.53-1.2 2.21-1.9a11.3 11.3 0 0 1 4.32-2.87 6.3 6.3 0 0 1 5.08.3c.92.51 1.66 1.3 2.6 1.82 2.52 1.39 6.03.46 8.3 2.2 1.83 1.43 2.26 4.2 4.3 5.33 1.16.66 2.73.67 3.6 1.69 1 1.2.4 2.95.48 4.49.07 1.36.72 2.67.61 4.03-.15 1.88-1.75 3.4-3.5 4.2-.43.2-.88.36-1.35.38-.82.03-1.59-.42-2.4-.49-2-.2-3.75 1.7-5.72 1.42-1.35-.2-2.31-1.32-3.47-2.03a5.85 5.85 0 0 0-3.97-.78c-.92.15-1.8.52-2.72.61-1.54.16-3.05-.47-4.43-1.17-.25-.12-.52-.26-.8-.27-.47-.03-.87.25-1.26.47a7.57 7.57 0 0 1-7.45-.08c-5.23-3.15-6.98-14.4.26-16.27v-.02zM90 101.36c.18.35.42.72.8.8.64.15 1.1-.6 1.29-1.22.85-2.99.01-6.24-1.46-8.98-.45-.82-1.18-1.72-2.09-1.54-.91.18-1.25 1.28-1.41 2.2a7.82 7.82 0 0 0-.18 2.04c.1 1.16.8 2.1 1.37 3.08.67 1.16 1.09 2.44 1.68 3.63v-.01z"/><path fill="#4343E8" d="M107 245.84s-11.32-3.52-25.78-.22c-14.46 3.28-14.46 19.5-15.12 17.95-.65-1.53-1.97-12.7-.87-22.57.63-5.78.52-20.06.33-30.9-.14-7.65-.34-13.58-.34-13.58s-2.17-12.96-3.56-27.13c-1.47-14.73-2.1-30.76 1.37-34.9 6.78-8.1 29.4-8.73 29.4-8.73L107 245.81v.03zm47.63-10.76c-9.86-4.37-20.92-2.84-20.92-2.84s-5.56-16.53-9.97-34.26a339.8 339.8 0 0 1-1.93-8.23c-4.5-20.6-9.03-62.07-9.03-62.07s7.05 4.05 13.1 7.8c3.42 2.14 6.5 4.19 7.83 5.38 3.63 3.3 5.8 41.86 6.45 57.2.64 15.09 14.05 36.35 14.46 37.02z"/><path fill="#4343E8" d="M65.46 132.34s-40.33 24.74-48.88 34.17c0 0 18.19 9.6 21.04 14.88 0 0 33.97-17.51 34.63-17.73.65-.23-6.8-31.32-6.8-31.32zm106.91 69.88s-14.84-2.78-29.94-14.02a77.86 77.86 0 0 1-2.85-2.2l-.03-.02-.04-.34v-.08l-.65-5.06-5.13-39.65 33.2 30.45 5.46 30.9-.02.02z"/><path fill="#5787FF" d="M165.4 169.34c-.86.25-1.08 1.37-1.14 2.27-.34 6.23 0 12.5 1 18.66.56 3.35 1.36 6.79 3.39 9.53.95 1.3 2.29 2.47 3.9 2.67 2.58.3 4.73-1.9 6.18-4.06 1.9-2.88 3.43-6.32 2.8-9.7-.4-2.18-1.63-4.1-2.86-5.95-3.11-4.7-6.27-9.37-9.47-14.03-.23-.33-.5-.7-.89-.8-1.35-.37-1.5 1.57-1.11 2.37-.35-.58-1.06-1.17-1.78-.96h-.01z"/><path fill="#5787FF" d="M165.4 169.34c-.86.25-1.08 1.37-1.14 2.27-.34 6.23 0 12.5 1 18.66.56 3.35 1.36 6.79 3.39 9.53.95 1.3 2.29 2.47 3.9 2.67 2.58.3 4.73-1.9 6.18-4.06 1.9-2.88 3.43-6.32 2.8-9.7-.4-2.18-1.63-4.1-2.86-5.95-3.11-4.7-6.27-9.37-9.47-14.03-.23-.33-.5-.7-.89-.8-1.35-.37-1.5 1.57-1.11 2.37-.35-.58-1.06-1.17-1.78-.96h-.01zm-22.22 13.81c0 1.7-.22 3.44-.75 5.05a78.18 78.18 0 0 1-2.85-2.2l-.07-.36v-.08c-.2-1.09-.37-1.99-.41-2.34l-.25-2.71c-.19-2.25-.32-4.5-.44-6.76-.12-2.65-1-6.78-.23-9.32.89-2.89 3.22 1.83 3.57 3.27.45 1.9.4 3.9.53 5.84.2 3.22.88 6.4.89 9.63l.01-.02z" opacity=".36" style="mix-blend-mode:multiply"/><path stroke="#453239" stroke-linecap="round" stroke-linejoin="round" stroke-width=".23" d="M137.65 161.08s1.6 19.03 1.92 24.9m1.35-16.87-1.36 14.92"/><path fill="#5787FF" d="M17.25 166.69c-.73-.2-1.52-.38-2.23-.11-.7.26-1.25 1.14-.92 1.85.21.44.74.73.8 1.23.05.43-.28.8-.56 1.12a12.57 12.57 0 0 0-2.67 4.9c-.11.4-.2.84-.07 1.24.17.46.6.74 1 .98l6.97 4.18 13.2 7.93c.65.39 1.57.75 2.08.17.96-1.1-.04-2.16 1.36-3.2 1.52-1.13 1.88-.99 2.47-3.19.89-3.32-1.02-4.75-3.34-6.92a43.54 43.54 0 0 0-18.1-10.18z"/><path fill="#5787FF" d="M17.25 166.69c-.73-.2-1.52-.38-2.23-.11-.7.26-1.25 1.14-.92 1.85.21.44.74.73.8 1.23.05.43-.28.8-.56 1.12a12.57 12.57 0 0 0-2.67 4.9c-.11.4-.2.84-.07 1.24.17.46.6.74 1 .98l6.97 4.18 13.2 7.93c.65.39 1.57.75 2.08.17.96-1.1-.04-2.16 1.36-3.2 1.52-1.13 1.88-.99 2.47-3.19.89-3.32-1.02-4.75-3.34-6.92a43.54 43.54 0 0 0-18.1-10.18zM76.02 128l13.47 14.66-7.72 16.6 19.75 41.3-9.08-74.78s-7.51-1.07-16.42 2.22zm47.7 69.65.03.3a338.77 338.77 0 0 1-1.93-8.23c-4.5-20.6-9.02-62.06-9.02-62.06s7.05 4.04 13.1 7.8l-4.19 9.33 8.87 18.29s-7.97 26.45-6.85 34.57h-.02zm-23.96 7.65a1.4 1.4 0 1 0 0-2.81 1.4 1.4 0 0 0 0 2.8zm.34 7.38a1.4 1.4 0 1 0 0-2.81 1.4 1.4 0 0 0 0 2.81zm1.96 6a1.41 1.41 0 0 1-.74 1.84 1.41 1.41 0 0 1-1.85-.73 1.42 1.42 0 0 1 .74-1.85 1.41 1.41 0 0 1 1.85.73zm.75 9.27a1.41 1.41 0 0 1-.74 1.85 1.41 1.41 0 0 1-1.85-.74 1.41 1.41 0 0 1 .74-1.85 1.41 1.41 0 0 1 1.85.74z" opacity=".36" style="mix-blend-mode:multiply"/><path stroke="#453239" stroke-linecap="round" stroke-linejoin="round" stroke-width=".23" d="M17.66 167.88s18.44-14.9 33.31-24.39A930.35 930.35 0 0 1 76 128.01m.01 33.07-14.52 8.03m4.8-2.66s3.63 19.12 3.63 41.64c0 22.51-1.38 43.52-.85 47.07"/><path fill="#5787FF" d="M70.41 192.94c-.14 5.5-.42 11.36-3.57 15.88-.35.5-.77 1-1.28 1.31-.14-7.65-.34-13.59-.34-13.59s-2.17-12.96-3.56-27.13l.71-.47c1.88-1.21 3.74-2.43 5.64-3.64 2.8 8.87 2.65 18.35 2.4 27.66v-.02z" opacity=".36" style="mix-blend-mode:multiply"/><path fill="#453239" d="M274.33 95.86a19.64 19.64 0 0 0-2.52.71c-5.67 2.03-9.84 6.62-15.49 8.65-3.66 1.3-7.63 2.31-10.51 5.08a11.41 11.41 0 0 0-3.4 9.37c.25 2.23 1.34 4.85.45 7.05-.85 2.13-3.28 3.17-5.15 4.26-3.06 1.78-5.85 4.21-7.37 7.4-1.51 3.2-1.53 7.25.59 10.1.9 1.2 2.18 2.27 2.35 3.77.16 1.48-.84 2.8-1.56 4.1-1.52 2.7-1.98 6.15-.56 8.9 2.24 4.34 6.57 3.5 10.53 2.95 8.84-1.22 18.12-1.79 26.77-4.07 1.96-.51 3.95-1.2 5.47-2.55 1.91-1.7 2.83-4.24 3.46-6.73 1.3-5.2 1.58-10.58 2.04-15.9a233.2 233.2 0 0 1 3.02-22.21 222.72 222.72 0 0 1 2.28-10.88c.47-2.03 2.45-6.09.54-7.84-2.89-2.64-7.15-2.94-10.93-2.14l-.01-.02z"/><path fill="#FF9D88" d="M300.4 136.82s5.73-38.77 7.05-48.76c1.33-9.97 9.7-46.04 9.7-46.04l8.05.16s-2.96 37.45-2.96 45.9c0 8.44-2.7 45.94-4.24 52.2-1.53 6.24-2.45 10.35-2.45 10.35l-15.16-13.81h.01z"/><path fill="#FF9D88" d="M326.46 38.33c-.48 1.98-1.26 3.87-1.26 3.87l-8.05-.17s-10.68-4.9-10.52-9.1c.16-4.23 2.63-9.06 4.05-9.6a2 2 0 0 1 .27-.09c.96-.25 3.2-.4 5.61-.08h.05c1.1.14 2.25.38 3.32.77.12.04.26.08.39.14a8.13 8.13 0 0 1 2.78 1.68c.08.08.18.16.26.26a26.67 26.67 0 0 1 1.7 1.99v.03l.3.46c.94 1.43.6 1.86.63 2.51.04.67-.18 2.21-.29 3.03 0 .13-.03.24-.04.32l-.04.21s1.36 1.82.87 3.79l-.03-.02z"/><path fill="#FF9D88" d="M310.09 28.22s1.32-11.1 3.86-11.18c2.55-.08 2.6 4.86 2.66 7.8.05 2.97 0 3.79 0 3.79l-6.52-.42v.01z"/><path stroke="#453239" stroke-linecap="round" stroke-linejoin="round" stroke-width=".23" d="M311.28 32.13s-1.92-1.89-1.47-3.5c.44-1.62 1.2-5.8 1.2-5.8s.77-5.66 2.93-5.8c2.17-.14 2.67 4.21 2.66 5.8 0 1.57-.82 4.42 0 5.8.82 1.36 4 1.7 5.59 5.09"/><path fill="#453239" d="m320.1 31-.04.09c-.03.04-.09.05-.12.05h-.02c-.09 0-.14-.08-.13-.18v-.07c.36-2.2.77-4.68.1-6.98.12.04.26.08.39.14.6 2.32.18 4.77-.2 6.95h.02zm1.8 1.58-.08.16c-.04.06-.08.09-.14.09h-.08c-.08-.05-.11-.14-.08-.23a11.85 11.85 0 0 0 1.17-7.17c.12.1.26.2.37.32.26 2.32-.14 4.75-1.17 6.84l.02-.01z"/><path fill="#453239" d="M325.66 34c0 .13-.02.24-.04.33h-.18c-.16 0-.36 0-.55-.07a10.52 10.52 0 0 1-3.22-1.48c-.03-.02-.05-.05-.05-.08-.04-.04-.04-.08 0-.14a.18.18 0 0 1 .22-.07c.03 0 .04.03.07.04a14.71 14.71 0 0 0 2.17 1.14c.28.1.58.2.88.27.15.04.43.08.7.04V34z"/><path fill="#453239" d="M325.34 28.46a12.77 12.77 0 0 1-1.24 5.23s0 .03-.03.03a.13.13 0 0 1-.11.07h-.08c-.07-.03-.1-.1-.09-.17v-.06a12.48 12.48 0 0 0 1.23-5.55V28l.3.48.02-.01z"/><path fill="#B86CE1" d="m318 149.07-1.88 5.14-5.72 15.68-.1.32-.22.58-17.28-11.36-4.37-2.88 1.1-2.9 4.06-10.87 1.49-3.97.94.43 13.81 6.17 6.27 2.81.13.06 1.77.79z"/><path stroke="#453239" stroke-linecap="round" stroke-linejoin="round" stroke-width=".23" d="M301.64 160.93s5.08 4 8.7 9.32"/><path fill="#B86CE1" d="M319.3 149.72a6.76 6.76 0 0 1-2.53 4.1c-.2.14-.43.27-.64.4l-5.71 15.68c-.9-.9-1.87-1.97-2.26-3.02-.48-1.33.7-2.85 1.16-4.11.78-2.17 1.3-4.43 2-6.64.32-1.1.7-2.2 1.17-3.28.5-1.14 1.12-2.3 1.97-3.21.46-.52.99-.96 1.62-1.28a.43.43 0 0 1 .15-.08c.03 0 .04-.03.07-.05.6-.29 1.3-.47 1.9-.2.64.27.96.97 1.12 1.68l-.02.01z" opacity=".32" style="mix-blend-mode:multiply"/><path fill="#B86CE1" d="M263.48 156.79s-8.6 6.88-11.47 11.87c0 0 8.6 19.89 13.45 28.65 4.83 8.76 6.55 18.69 5.59 22.01-.27.92-.03 1.23-.03 1.23s24.43 12.96 40.26 4.63c.78-.42.91-4.35 1.07-5.23.5-2.81 1.01-5.6 1.42-8.44a188.04 188.04 0 0 0 1.6-16.5c.27-5.25.47-11.05-.77-16.15-1.2-4.9-4.59-9.46-7.87-12.98a72.97 72.97 0 0 0-7.79-7.03c-1.32-1.06-2.82-2-4.04-3.16-.63-.6-1.48-2.52-2.5-2.4l-28.92 3.5z"/><path fill="#B86CE1" d="M252.01 168.66s-9.74 11.78-9.74 30.2v14.34l29.12-1.2s1.44-7.01-3.81-17.1c-5.26-10.08-15.57-26.24-15.57-26.24z"/><path stroke="#453239" stroke-linecap="round" stroke-linejoin="round" stroke-width=".23" d="M265.16 184.6s4.74 14.69 5.47 21.04l.74 6.36"/><path stroke="#453239" stroke-linecap="round" stroke-linejoin="round" stroke-width=".23" d="M269.09 198.16s.54-6.89 0-9.51m-26.84 21.26 28.76-1.13m-21.38-36.9s9.7.23 16.1 9.27"/><path fill="#FF9D88" d="m246.76 213.01-4.83 36.24-7.81 33.85 8.17 2.9s10.73-25.46 13.87-35.7c3.14-10.26 9-38.06 9-38.06l-18.4.77z"/><path fill="#FF9D88" d="m242.3 286-4.25 12.84c-1.25 4.4-13.8 18.73-15.48 19.15-.57.14-1.63-1.18-2.73-3.1-.07-.1-.1-.21-.18-.3a37.19 37.19 0 0 1-1.78-3.67c-.05-.1-.1-.2-.14-.32a40.1 40.1 0 0 1-1.12-3.05l-.1-.38c-.47-1.7-.63-3.13-.24-3.81 1.48-2.52 17.82-20.25 17.82-20.25l8.19 2.9h.01z"/><path fill="#FF9D88" d="M236.8 297.49s-1.99 13.71-.63 14.13c1.37.42 3.24-1 3.77-3.64.53-2.65 2.35-21.96 2.35-21.96l-4.54 3.42-.95 8.05z"/><path fill="#453239" d="m231.5 301-11.66 13.89c-.06-.1-.1-.21-.18-.3l11.59-13.79s.15-.08.22-.03c.08.07.08.17.03.24zm-2.87-2.87-10.73 12.78a2.09 2.09 0 0 1-.14-.32l10.64-12.67s.15-.08.22-.03c.08.07.08.17.03.24h-.02zm-2.16-2.32-9.83 11.72-.1-.37 9.7-11.56s.16-.08.23 0c.07.06.08.15 0 .22v-.01zm93.02-147.26c-.03.4-.09.78-.18 1.16a6.76 6.76 0 0 1-2.53 4.09c-.21.15-.43.27-.64.4-1.48.85-3.27 1.17-4.8 1.92a5.8 5.8 0 0 0-1.49.96c-1.17 1.03-1.85 2.54-3.14 3.4-1.46.97-3.37.9-5.05.44a1.67 1.67 0 0 0-.25-.07c-1.58-.46-3.1-1.17-4.73-1.5a9.36 9.36 0 0 0-3.88.07 9.38 9.38 0 0 0-2.8 1.04c-.55.3-1.1.67-1.66.86-.32.1-.66.15-.99.11-.8-.1-1.45-.72-1.97-1.35a18.52 18.52 0 0 1-3.19-5.57 15.26 15.26 0 0 1-.43-1.28c-.51-1.67-.83-3.41-1.01-5.18a33.18 33.18 0 0 1-.17-2.85v-1.43c.04-2.3.26-4.57.55-6.84l.27-2.02c.26-1.85.53-3.7.76-5.55l.04-.3c.19-1.45.32-2.88.45-4.34.06-.64.1-1.3.14-1.95a180 180 0 0 0 .2-3.88c.04-.87.05-1.74.06-2.6v-2.8c0-2.3-.1-4.6-.26-6.9 0-.2-.03-.38-.04-.56-.1-1.47-.15-2.62.1-3.62.18-.7.48-1.3 1.05-1.92.13-.16.3-.32.49-.48a2.34 2.34 0 0 1 .35-.28 8.29 8.29 0 0 1 1.05-.75 13.66 13.66 0 0 1 8.41-1.93c2.22.2 4.53.96 5.88 2.7.68.9 1.08 1.97 1.73 2.86a7.26 7.26 0 0 0 3.22 2.33c3.07 1.23 6.99 1.3 9.73 3.29 1.98 1.41 3.13 3.72 3.71 6.09.59 2.43.62 4.99.07 7.44-.58 2.57-1.75 4.95-2.63 7.44-.87 2.49-1.43 5.2-.72 7.73.47 1.74 1.52 3.24 2.42 4.82l.49.9c.92 1.82 1.5 3.85 1.36 5.86l.03.04z"/><path fill="#FF9D88" d="M282.04 167.73c-8.65 2.4-18.56-10.94-18.56-10.94s1.47-.8 3.1-6.91c1.66-6.15.88-16.66.88-16.66l12.73 10.24 4.8 3.9c-.08 1.44.24 3.36.69 5.3.9 3.9 2.38 7.85 2.38 7.85s2.63 4.83-6.02 7.24v-.02z"/><path fill="#FF7878" d="M285.68 152.64c-.75.36-1.7.6-2.9.66-7.25.34-12.91-14.15-12.91-14.15l10.32 4.3 4.8 3.9c-.08 1.44.24 3.36.69 5.3z"/><path fill="#FF7878" d="M285.68 152.64c-.75.36-1.7.6-2.9.66-7.25.34-12.91-14.15-12.91-14.15l10.32 4.3 4.8 3.9c-.08 1.44.24 3.36.69 5.3z" opacity=".35" style="mix-blend-mode:multiply"/><path fill="#FF9D88" d="M300.34 122.16a56.53 56.53 0 0 1-1 7.86c-.38 1.85-.77 3.3-1.04 4.13a26.03 26.03 0 0 1-5.47 9.45c-2.14 2.24-4.87 4-8.26 4.48-7.8 1.14-14.3-5.35-16.83-12.06-2.53-6.7-2.58-11.77-2.58-11.77s-.2-23.97 20.27-23.78c13.17.1 15.42 11.91 14.9 21.68v.01z"/><path fill="#453239" d="M285.08 104.14c1.49.36 3.04.14 4.56.32 3.3.39 6.15 2.7 7.95 5.49 1.81 2.8 2.71 6.06 3.5 9.3.12.43.23.9.56 1.21.32.3.94.38 1.2 0 .12-.16.14-.4.15-.6a24.9 24.9 0 0 0-2.83-13.14 12.7 12.7 0 0 0-2.56-3.49 12.71 12.71 0 0 0-5.26-2.64 24.46 24.46 0 0 0-8.93-.74c-3.07.32.11 3.91 1.66 4.29z"/><path fill="#FF9D88" d="M269.87 121.72s-3.4-8.99-7.68-6.58c-4.27 2.4-3.95 15.67 1.86 15.45 5.82-.23 5.82-1.64 5.82-1.64v-7.23z"/><path stroke="#453239" stroke-linecap="round" stroke-linejoin="round" stroke-width=".23" d="M267.1 120.8c-.18-1.07-.52-2.31-1.53-2.7-.75-.28-1.6.03-2.24.5-1.86 1.38-2.48 3.96-2 6.2.22.96.62 1.9 1.36 2.56.74.65 1.86.93 2.75.49.6-.3 1.02-.88 1.3-1.48"/><path stroke="#453239" stroke-linecap="round" stroke-linejoin="round" stroke-width=".23" d="M264.25 118.11s2.32 3 1.8 9.3"/><path fill="#FF9489" d="M274.57 123.86a8.2 8.2 0 0 0-8.2 7.9 41.68 41.68 0 0 0 1.38 4.3c.17.42.35.87.54 1.3a8.2 8.2 0 0 0 6.29 2.92 8.22 8.22 0 0 0 8.22-8.22 8.2 8.2 0 0 0-8.22-8.22l-.01.02zm24.78 6.17c-.37 1.85-.76 3.31-1.04 4.13a26.02 26.02 0 0 1-5.47 9.46 8.1 8.1 0 0 1-2.03-5.4 8.2 8.2 0 0 1 8.22-8.22h.34l-.02.03z"/><path fill="#453239" d="M278.04 116.8c-.82.28-1.7.73-1.95 1.56a33.55 33.55 0 0 1 9.9 1.26c.98.27 2.77-.05 2.02-1.5-.39-.73-1.76-.98-2.47-1.23-2.4-.84-5.07-.9-7.49-.1v.02zm22.3 5.36c-.06.95-.13 1.85-.23 2.74a31.89 31.89 0 0 0-3.11-1.28c-.96-.33-2.26-1.63-.8-2.37.74-.38 2 .21 2.74.42.48.13.95.3 1.4.49zm-11.87 13.71s-.1-.05-.1-.11c-.02-.08.02-.17.09-.18a5.3 5.3 0 0 0 1.9-1c.14-.13.3-.27.37-.45.18-.4-.03-.87-.24-1.33l-.14-.32c-.7-1.71-.03-3.69.64-5.23a47.24 47.24 0 0 1 2.32-4.69c.05-.07.13-.1.2-.05.07.04.08.14.04.2a45.34 45.34 0 0 0-2.3 4.66c-.7 1.58-1.29 3.41-.65 5l.14.3c.22.5.47 1.06.24 1.59a1.68 1.68 0 0 1-.46.55 5.3 5.3 0 0 1-2 1.06h-.05zm-5.9-13.1c.17 0 .34.02.5.1.15.08.25.25.19.4l-.1.2c-.07.32.64.7.88.86.36.28.74.57.96.96.08.15.1.39-.16.37a2.02 2.02 0 0 1-.79-.25c-.54-.26-1.05-.55-1.61-.77a9.61 9.61 0 0 0-1.75-.5c-1-.2-1.98-.15-3-.12-.09 0-.17 0-.27-.03-.13 0-.25-.05-.3-.16-.04-.07 0-.16.03-.22a.66.66 0 0 1 .2-.16c.74-.4 1.74-.51 2.57-.6a18.78 18.78 0 0 1 2.66-.1v.02zm14.75 4.47a.74.74 0 0 1 .39.1c.1.06.16.2.1.33-.02.05-.08.1-.09.15-.1.26.45.61.61.75.27.24.55.5.67.85.06.14.03.32-.17.3-.23-.02-.43-.13-.62-.25-.42-.23-.81-.51-1.24-.72a6.55 6.55 0 0 0-1.4-.49c-.8-.2-1.6-.2-2.45-.23a1.2 1.2 0 0 1-.22-.03c-.1-.01-.21-.06-.23-.15 0-.06.02-.13.07-.18a.5.5 0 0 1 .18-.11c.67-.31 1.52-.35 2.21-.4a14.62 14.62 0 0 1 2.22.06l-.03.02z"/><path stroke="#453239" stroke-linecap="round" stroke-linejoin="round" stroke-width=".23" d="M281.05 134.52s3.72 4.55 9.43 3.56m-6.92.16s2.03 1.22 4.27 1.16"/><path fill="#453239" d="M267.86 122.16c.04.2.1.43.27.57.25.22.68.12.93-.11.25-.24.36-.57.5-.9 1.18-2.83 3.88-4.68 6.17-6.72a32.49 32.49 0 0 0 8.01-10.9c.69-1.5 1.23-3.3.42-4.75-.86-1.53-2.9-1.94-4.63-1.76-2.63.27-5.06 1.54-7.19 3.13a17.63 17.63 0 0 0-5.66 6.64c-2.27 4.98.11 9.82 1.2 14.79l-.02.01z"/><path fill="#5787FF" d="m321.52 307.49-.04.1c-.13.37-.27.76-.4 1.18-1.65 4.63-4.46 12.47-9.37 25.71-10.84 29.25-29.58 68.98-29.58 68.98l-14.46-6.52c-.65-15.45 12.82-44.05 12.82-44.05l4.77-39.13.2-1.54.03-.22c-12.34.65-14.12.45-14.12.45l-3.71-16.75 13.63-6.7c-11.48-1.67-27.22-8.04-29.3-24.97-2.52-20.5 19.03-44.7 19.03-44.7l40.22 5.85 7.72 28.53c13.24 7.18 27.37 16.8 28.23 25.6 1.22 12.44-9.03 22.9-25.72 28.2l.05-.02z"/><path fill="#5787FF" d="m321.47 307.6-.4 1.18c-.75.6-1.64 1.03-2.52 1.4-2.66 1.13-5.44 1.87-8.22 2.62-4.6 1.25-9.22 2.52-13.82 3.76-2.43.66-5.06 1.32-7.43.4-.97-.39-3.21-1.8-3.82-3.2l.15-1.5.04-.04c1.19-1.25 5.5-.82 6.87-.93 5.43-.4 10.82-.82 16.23-1.3 4.38-.36 8.83-.78 12.9-2.4l.02.01zm-40.91-18.31c.08 0 .18-.05.26-.07 2.17-.55 5-2.24 5.66-2.58a188.23 188.23 0 0 1 28.4-11.37c.04 0 .08-.03.1-.03a49.18 49.18 0 0 1 2.04-.63c.28-.41-.43-.77-.93-.77a55.64 55.64 0 0 0-11.25 1.07 58.53 58.53 0 0 0-19.08 7.4c-1.35.83-7.7 4.18-7.54 5.9 0 .09 0 .17.04.26l2.26.83.04-.01z" opacity=".27" style="mix-blend-mode:multiply"/><path stroke="#FFD9D6" stroke-linecap="round" stroke-linejoin="round" stroke-width=".23" d="M278.17 223.68c-4.47 7.5-6.16 12.64-8.37 21.08-.77 2.92-1.38 6.03-.48 8.91.98 3.09 3.6 5.44 6.53 6.84 2.92 1.4 6.14 2 9.33 2.63a315.39 315.39 0 0 1 29.9 7.48c1.85.56 4 1.48 4.3 3.38.35 2.3-2.22 3.87-4.37 4.7-15.84 6.15-32.7 10.17-47.17 19.06"/><path stroke="#FFD9D6" stroke-linecap="round" stroke-linejoin="round" stroke-width=".23" d="M270.85 240.78a6.9 6.9 0 0 0 3.27.77c5.1.18 9.47-.95 13.1-4.54 3.7-3.64 4.77-6.56 6.77-10.27m15.8 1.22c.54 8.2.61 13.34.3 21.55"/><path stroke="#FFD9D6" stroke-linecap="round" stroke-linejoin="round" stroke-width=".23" d="M310.03 241.17c-.94.38-2.06-.28-2.53-1.18-.49-.9-.5-1.96-.5-3-.01-4.1-.11-4.93-.13-9.03m-37.02-7.58c2.14 1.7 4.87 2.48 7.51 3.14a155.56 155.56 0 0 0 34.67 4.44m-19.7 83.74c-1.69 10.72-3.37 21-5.07 31.72-.65 4.13-1.3 8.3-2.7 12.24-1.12 3.12-2.67 6.04-4.14 9-5.24 10.6-9.44 21.98-9.8 33.82"/><path stroke="#453239" stroke-linecap="round" stroke-linejoin="round" stroke-width=".23" d="M294.74 245.75s13.94 1.9 24.26 7.98m-51.31 41.98s36.26-18.84 50.07-21.04m-32.26 37.32s29.6-2.07 36.02-4.5"/><path fill="#5787FF" d="M276.73 415.9s-1.29 3.83-3.11 9.01a2.38 2.38 0 0 0-.11.34c-.5 1.42-1.05 2.95-1.63 4.52l-.11.32c-1.23 3.38-2.55 7-3.85 10.32l-.11.3c-2.05 5.23-4 9.72-5.25 11.53-.07.1-.12.2-.2.27-.24.31-.45.5-.63.57-2.8.8-7.57-9.35-8.44-13.47-.88-4.11 2.89-12.57 3.49-15.78.6-3.21-3.03-8.82-.77-13.56a6.26 6.26 0 0 1 3.38-2.99l.38-.14c2.35-.9 5.03-.96 6.32-.96h.34c.26 0 .42.03.42.03l9.9 9.68-.02.01z"/><path fill="#FFD9D6" d="M262.6 452.59h-.08a9.56 9.56 0 0 1-3.6-2.92 18.94 18.94 0 0 1-3.86-11.06c-.14-3.56.55-7.47 2.05-11.62.07-.21.16-.4.23-.62.47-1.29.97-2.62 1.05-4 .07-1.13-.12-2.27-.32-3.38a21.56 21.56 0 0 1-.2-1.32 18.93 18.93 0 0 1 1.6-10.57c.04-.08.13-.11.2-.08.09.04.11.14.09.2a18.66 18.66 0 0 0-1.57 10.4c.05.42.13.87.2 1.3.2 1.13.4 2.3.32 3.45-.1 1.42-.6 2.78-1.08 4.09l-.22.61c-1.5 4.12-2.19 7.98-2.05 11.5.16 4.16 1.5 8.02 3.8 10.87a9.2 9.2 0 0 0 3.48 2.83c.08.04.12.12.08.2a.17.17 0 0 1-.15.1l.02.02z"/><path fill="#FFD9D6" d="M258.08 413.97s-.11-.03-.14-.1a.15.15 0 0 1 .08-.2 19.77 19.77 0 0 0 6.86-5.33 5.55 5.55 0 0 0 1.28-2.31c.01-.08.1-.14.2-.13.07.02.13.1.12.2-.2.96-.8 1.77-1.35 2.45a20.08 20.08 0 0 1-6.97 5.4l-.07.02h-.01zm9.84 26.42-.11.3a27.56 27.56 0 0 0-12.63-1.45c-.04 0-.07 0-.08-.03-.06 0-.08-.07-.08-.1 0-.07.02-.12.08-.15 0-.03.04-.04.07-.04.08 0 .17-.03.26-.03 3.9-.5 8.78.1 12.52 1.5h-.03zm5.7-15.48a2.52 2.52 0 0 0-.11.34c-1.03-.1-2.11-.38-3.23-.78a31.88 31.88 0 0 1-5.13-2.66c-.08-.04-.1-.14-.07-.22.06-.08.14-.1.22-.05a32.6 32.6 0 0 0 5.1 2.6c1.13.43 2.2.68 3.23.77zm-1.74 4.86a4.26 4.26 0 0 1-.1.32 13.47 13.47 0 0 1-7.63-3.3.16.16 0 0 1 0-.24.16.16 0 0 1 .24 0 13.11 13.11 0 0 0 7.52 3.22h-.02z"/><path fill="#FF9D88" d="m269.16 397.62-2.47 10.83c-.25 1.13.32 2.46.74 3.49a6.35 6.35 0 0 0 2.23 3.04c1.12.76 2.44.98 3.77 1.16.34.04 2.97.61 3.14.2l5.02-13.13-12.42-5.6h-.01z"/><path fill="#5787FF" d="M263.26 313.73s-2.1 2.76-5.11 6.6l-.21.27-2.77 3.52-.2.25c-3.22 4.05-6.9 8.58-10.12 12.28l-.23.26c-2.71 3.12-5.07 5.62-6.47 6.68l-.28.2c-.33.23-.61.34-.78.33-2.89-.13-4.15-11.28-3.67-15.47.5-4.18 6.8-10.97 8.39-13.82 1.6-2.85 0-9.31 3.64-13.08a5.33 5.33 0 0 1 3.09-1.52c1.86-.33 3.98 0 5.66.44l.36.1a22.19 22.19 0 0 1 2.88 1.02l5.81 11.94h.01z"/><path fill="#FFD9D6" d="M248.53 300.22a13.1 13.1 0 0 0-2.46 5.17l-.08.32v.03c-.21.86-.4 1.74-.57 2.6a27.85 27.85 0 0 1-1.44 5.34c-.93 2.2-2.39 4.17-3.8 6.06a38.4 38.4 0 0 0-2.93 4.26 18.53 18.53 0 0 0-1.75 4.28.92.92 0 0 0-.08.32c-1 3.8-.85 7.91.51 11.64.59 1.6 1.31 2.68 2.23 3.32l-.28.2c-.92-.67-1.65-1.81-2.25-3.41a20 20 0 0 1 1.35-16.5 38.34 38.34 0 0 1 2.94-4.3c1.4-1.88 2.87-3.82 3.77-6 .7-1.68 1.06-3.52 1.42-5.28a43.48 43.48 0 0 1 .57-2.62 14.2 14.2 0 0 1 2.37-5.34c.16-.05.32-.08.48-.1z"/><path fill="#FFD9D6" d="m244.85 336.64-.24.26a29.8 29.8 0 0 0-5.63-6.41c-1-.86-2.21-1.74-3.58-1.88-.07 0-.14-.03-.2-.03l.02-.32c.09 0 .18 0 .27.03 1.43.17 2.67 1.07 3.7 1.96a30.82 30.82 0 0 1 5.64 6.39h.02zm9.7-35.87a26.13 26.13 0 0 1-5.25 4.06 6.7 6.7 0 0 1-2.92.92c-.12 0-.26 0-.39-.03-.07 0-.12 0-.2-.03l.06-.31.23.02c1.04.11 2.08-.34 3.07-.86a25 25 0 0 0 5.05-3.87l.36.1zm3.58 19.57-.21.26a28.92 28.92 0 0 1-6.43-5.11.17.17 0 0 1 0-.23.16.16 0 0 1 .24 0 27.78 27.78 0 0 0 6.38 5.1l.02-.02zm-2.96 3.78-.21.25c-2.09-1.04-4-2.67-5.89-4.38-.06-.05-.06-.15 0-.22.07-.07.17-.08.24 0 1.98 1.78 3.83 3.36 5.87 4.37l-.01-.02z"/><path fill="#FF9D88" d="m267.84 296.77-10.66 5.25s-1.39 5.04 2.05 8.9c2.42 2.69 4.02 2.81 4.02 2.81l7.95-2.04-3.36-14.94v.02z"/><path fill="#5787FF" d="M454.03 362s1.06 2.57 3.44 6.22l.18.28c.6.89 1.26 1.86 2 2.86.06.09.14.17.2.27l.56.75a23.81 23.81 0 0 1 1.5 2.15 39.28 39.28 0 0 1 3.83 8.18l.13.35c.9 2.63 1.6 5.3 2.22 7.83.15.57.28 1.15.54 1.68.8 1.51 3.02 1.97 4.58 2.11 1.97.2 4.2-.05 5.9-1.12a5.53 5.53 0 0 0 1.54-1.42c.92-1.21 1.43-2.67 1.72-4.15.95-4.54-.18-8.77-2.01-12.91-1.63-3.68-3.65-7.42-3.65-11.55 0-6.16-1.4-12.43-4.81-17.62a9.12 9.12 0 0 0-2.15-2.46c-.55-.4-1.2-.65-1.9-.8l-.4-.06c-2.14-.3-4.69.33-6.55.72a57.38 57.38 0 0 0-3.38.8c-.07.04-.14.04-.2.07-.58.16-1.15.33-1.7.5 1.47 7.66-1.57 17.32-1.57 17.32h-.02z"/><path fill="#FFD9D6" d="m467.44 342.59 3.5 6.65.1.2.06.12c.8 1.53 1.64 3.13 2.21 4.78.87 2.5 1.17 5.19 1.46 7.78.21 1.89.42 3.83.87 5.72a49.03 49.03 0 0 0 2.51 7.33c.35.9.73 1.81 1.06 2.71l.15.42c0 .03 0 .06.03.08 1.07 2.95 2.2 6.82 1.6 10.68a9.48 9.48 0 0 1-1.88 4.48c.3-.18.57-.39.82-.62a10.44 10.44 0 0 0 1.38-3.81c.64-3.98-.54-7.93-1.64-10.93-.4-1.06-.8-2.12-1.23-3.15a50.5 50.5 0 0 1-2.48-7.28c-.43-1.85-.64-3.8-.87-5.7-.29-2.6-.58-5.3-1.47-7.83-.58-1.73-1.45-3.36-2.28-4.96l-3.5-6.63-.4-.07v.03z"/><path fill="#FFD9D6" d="m465.74 382.7.13.34c3.37-3.38 8.2-5.2 12.97-4.9.18 0 .38.06.45.15v.08l.32.07a.44.44 0 0 0-.07-.35.7.7 0 0 0-.34-.2 1.16 1.16 0 0 0-.34-.09 17.5 17.5 0 0 0-13.13 4.9h.01zm-.1-33.84c1.64.38 3.46.61 5.6.71v-.32a27.97 27.97 0 0 1-7.45-1.24 14.74 14.74 0 0 1-6.33-3.95l-.23.23a15.13 15.13 0 0 0 6.46 4.04c.63.21 1.28.4 1.96.55v-.02zm-8.18 19.36.18.28a14.7 14.7 0 0 1 5.16-2.76c.08-.02.14-.1.11-.2-.01-.07-.1-.13-.2-.1a14.91 14.91 0 0 0-5.23 2.8l-.02-.02zm2.19 3.14c.05.09.14.17.2.27a14.55 14.55 0 0 1 4.98-2.62c.09-.03.14-.1.12-.2-.02-.08-.11-.13-.2-.1a14.96 14.96 0 0 0-5.1 2.67v-.02zm2.08 2.9.18.26a14.38 14.38 0 0 1 4.83-2.5c.08-.02.14-.12.11-.18-.03-.1-.11-.14-.2-.12a14.74 14.74 0 0 0-4.9 2.53h-.02z"/><path fill="#D26259" d="m446.88 344.22 8.91.51s3.06 3.48 1.78 9.99c-1.15 5.9-3.49 7.3-3.49 7.3l-10.4-3.47 3.19-14.33z"/><path fill="#0D22B7" d="m382.18 347.61 66.26 13.57 4.97-18.55-43.07-16.57.1-.1.38-.3 31.32-26.76 5.97-27.83-40.43 1.99s-27.17 34.12-33.8 52.36c-6.62 18.21 8.28 22.2 8.28 22.2l.02-.01z"/><path fill="#FFD9D6" d="M405.12 325.92c0 .08.1.15.18.13.82-.1 1.74-.12 2.71-.13h.32c.68 0 1.42 0 2.12.04l.37-.3a74.7 74.7 0 0 0-2.49-.06H408c-.99 0-1.9.05-2.74.13-.1 0-.16.1-.14.19z"/><path fill="#FFD9D6" d="M427.92 338.26c.07 0 .13-.04.15-.1.03-.09-.03-.19-.11-.2a56.8 56.8 0 0 1-16.5-7.87c-1.36-.95-2.66-2.02-3.04-3.5-.43-1.72.43-3.66 2.57-5.78 3.06-3 6.62-5.67 10.07-8.24 4.5-3.36 9.12-6.83 12.6-11.03a.16.16 0 0 0-.03-.23.16.16 0 0 0-.22.03c-3.46 4.18-8.08 7.64-12.54 10.98-3.47 2.58-7.04 5.25-10.11 8.27-2.24 2.2-3.13 4.24-2.67 6.08.4 1.58 1.76 2.7 3.17 3.68a57.37 57.37 0 0 0 16.57 7.91h.09z"/><path fill="#0D22B7" d="M485.44 269.96s-7.28 44.4-19.88 59.64l34.68 5.3v17c-16.54 6.17-35.77 11.27-53.48 9.64-5.2-.47-11.24-1.39-15.4-4.85-5.78-4.81-3.87-13.18-3.23-19.75 1.24-12.85 3.79-25.53 6.68-38.1 1.38-5.97 2.57-11.96 3.88-17.91.22-1.03 1.93-11.45 3.24-11.43l43.51.44v.02z"/><path stroke="#FFD9D6" stroke-linecap="round" stroke-linejoin="round" stroke-width=".23" d="m426.8 284.86 8.29 8.63s-8.52 44.73-7.85 55c.67 10.27 12.05 12.15 16.36 12.8m22.32-32.08s-5.08 3.42-6.36 4.05"/><path stroke="#FFD9D6" stroke-linecap="round" stroke-linejoin="round" stroke-width=".23" d="M478.67 270.37c-3.12 19.1-6.35 38.54-15.2 55.74-.58 1.14-1.21 2.35-1.1 3.63.13 1.36 1.13 2.52 2.3 3.2 1.18.68 2.54.97 3.88 1.24a246.76 246.76 0 0 0 31.44 4.22"/><path stroke="#FFD9D6" stroke-linecap="round" stroke-linejoin="round" stroke-width=".23" d="M472.9 298.42a53.6 53.6 0 0 1-13.2-31.77"/><path fill="#5787FF" d="M511.21 351.85s1.62 2.27 4.75 5.3l.23.24c.78.73 1.66 1.53 2.6 2.33l.25.21.73.6a25.03 25.03 0 0 1 1.7 1.54 39.3 39.3 0 0 1 5.78 7.33l.2.3a86.76 86.76 0 0 1 3.93 7.14c.28.52.53 1.07.9 1.52 1.11 1.29 3.4 1.25 4.94 1.04 1.97-.25 4.07-1 5.5-2.42a5.15 5.15 0 0 0 1.2-1.73c.61-1.37.78-2.92.74-4.42-.1-4.64-2.14-8.5-4.85-12.14-2.42-3.21-5.22-6.4-6.14-10.43-1.37-6-4.16-11.79-8.63-16.09a9.4 9.4 0 0 0-2.65-1.92 4.7 4.7 0 0 0-2.03-.34c-.12 0-.26 0-.4.02-2.15.2-4.5 1.38-6.22 2.17a59.32 59.32 0 0 0-3.11 1.55l-.2.1-1.54.87c3.16 7.12 2.34 17.22 2.34 17.22l-.02.01z"/><path fill="#FFD9D6" d="m519.95 329.93 4.89 5.7.14.17.1.1c1.12 1.3 2.3 2.68 3.2 4.17 1.41 2.24 2.3 4.79 3.18 7.26.63 1.8 1.26 3.64 2.11 5.38a48.17 48.17 0 0 0 4.1 6.58c.53.8 1.09 1.6 1.63 2.4l.25.38c0 .03.03.06.06.09 1.7 2.62 3.67 6.14 3.95 10.05a9.47 9.47 0 0 1-.84 4.78c.25-.25.48-.5.67-.79.42-1.2.59-2.57.49-4.02-.28-4.02-2.31-7.6-4.05-10.28-.61-.94-1.27-1.87-1.9-2.8a48.42 48.42 0 0 1-4.04-6.53c-.83-1.7-1.47-3.56-2.11-5.35-.88-2.48-1.77-5.05-3.2-7.32-.96-1.54-2.17-2.94-3.34-4.3l-4.88-5.7c-.12 0-.26 0-.4.03h-.02z"/><path fill="#FFD9D6" d="m527.24 369.4.2.3a17.13 17.13 0 0 1 11.55-7.68.72.72 0 0 1 .48.05l.02.08h.32a.43.43 0 0 0-.13-.32.68.68 0 0 0-.38-.12c-.13-.03-.25 0-.35 0-4.75.8-9.08 3.66-11.7 7.7v-.01zm-7.67-32.94c1.68 0 3.5-.18 5.6-.56l-.05-.32c-2.94.53-5.34.67-7.55.46a14.75 14.75 0 0 1-7.05-2.43l-.18.26a15.1 15.1 0 0 0 7.21 2.49 19.42 19.42 0 0 0 2.03.1h-.01zm-3.63 20.69.23.24a14.6 14.6 0 0 1 4.41-3.84c.09-.06.1-.14.07-.23a.16.16 0 0 0-.22-.07 15.26 15.26 0 0 0-4.5 3.9zm2.83 2.57.25.21a14.7 14.7 0 0 1 4.29-3.67c.08-.06.1-.14.07-.22a.16.16 0 0 0-.23-.07 15.3 15.3 0 0 0-4.38 3.75zm2.7 2.35.23.22a14.32 14.32 0 0 1 4.14-3.5.18.18 0 0 0 .07-.22c-.05-.1-.14-.11-.22-.07a14.28 14.28 0 0 0-4.22 3.57z"/><path fill="#D26259" d="m500.25 336.1 8.8-1.48s3.76 2.71 3.98 9.33c.2 6-1.77 7.9-1.77 7.9l-10.9-1.04-.11-14.69v-.01z"/><path fill="#5787FF" d="M487.98 300.55s-3.13 4.53-10.75 2.88l3-10.06s6.84 3.1 7.75 7.18z"/><path fill="#5787FF" d="M487.98 300.55s-3.13 4.53-10.75 2.88l3-10.06s6.84 3.1 7.75 7.18z" opacity=".3" style="mix-blend-mode:multiply"/><path fill="#FFCC05" d="m463.58 155.3 2.35-1.4s6.5 44.12 5.19 66.19c-1.3 22.07-9.08 50.62-9.08 50.62L429.59 272s11.69-36.34 10.4-66.2c-1.3-29.84 0-42.83 0-42.83l23.6-7.67z"/><path fill="#3A272E" d="M434.58 104.28c-.41 1.83.03 3.97-1.15 5.43-.35.44-.8.77-1.22 1.15a5.88 5.88 0 0 0-1.95 5.35c.3 1.53 1.3 3.17.53 4.52-.34.58-.95.96-1.4 1.46a4.13 4.13 0 0 0-.56 4.4 6.08 6.08 0 0 0 3.45 3.04c.47.18.98.32 1.49.2.45-.1.86-.4 1.2-.73 1.4-1.4 2.06-3.4 2.47-5.37.4-1.96.62-3.97 1.37-5.82 1.37-3.36 4.4-5.94 5.15-9.47.5-2.34-.07-7.25-2.64-8.42-2.73-1.24-6.16 1.75-6.72 4.27l-.01-.01z"/><path fill="#3A272E" d="M448.34 93.01c2.06-.39 4.19.07 6.2.68 2.02.62 4 1.37 6.1 1.58 1.64.16 3.3-.03 4.96-.03 2.21 0 4.47.33 6.47 1.28 2 .94 3.74 2.54 4.6 4.57.65 1.53.8 3.3 1.75 4.66.71 1.02 1.78 1.73 2.55 2.7a5.33 5.33 0 0 1 .98 4.27c-.24 1.24-.94 2.46-.66 3.7.29 1.37 1.64 2.2 2.63 3.2a7.53 7.53 0 0 1 2.17 5.6 7.55 7.55 0 0 1-2.66 5.4c-.71.6-1.53 1.07-2.13 1.76-1.18 1.38-1.3 3.34-1.85 5.08-.61 1.92-1.93 3.71-3.8 4.4-1.18.45-2.47.44-3.66.81-1.72.54-3.1 1.85-4.83 2.34-1.86.53-3.9.04-5.55-1a13.42 13.42 0 0 1-3.96-4.19 20.22 20.22 0 0 1-2.63-5.6c-.5-1.76-.71-3.58-1.21-5.33s-1.35-3.49-2.81-4.57c-1.46-1.09-3.35-1.38-4.96-2.22-3.63-1.86-5.44-6.35-4.82-10.38.27-1.71.9-3.37.92-5.1 0-1.3-.35-2.58-.3-3.87.08-3.72 2.61-9.03 6.55-9.78l-.05.04z"/><path fill="#D26259" d="M466.64 129.7c.63-.63 3.1-5.68 6.86-4.45 3.77 1.22 3.23 10.62-1.77 12.55-4.99 1.94-6.9-.57-6.9-.57l1.81-7.53z"/><path stroke="#3A272E" stroke-linecap="round" stroke-linejoin="round" stroke-width=".23" d="M469.27 129c.44-.97 1.07-2.06 2.14-2.17.77-.07 1.49.43 1.96 1.05 1.4 1.76 1.3 4.39.25 6.38a4.73 4.73 0 0 1-1.92 2.09c-.86.43-1.99.4-2.7-.24a3.04 3.04 0 0 1-.84-1.73"/><path stroke="#3A272E" stroke-linecap="round" stroke-linejoin="round" stroke-width=".23" d="M472.64 127.2s-2.95 2.26-4.08 8.37"/><path fill="#D26259" d="M433.57 127.42a52.53 52.53 0 0 1 .42-5.14l.57-3.26.04-.18.16-.71c.07-.25.1-.5.2-.75.85-3.16 2.15-6.22 4.2-8.67a17.94 17.94 0 0 1 12.17-6.52 16.01 16.01 0 0 1 3.83.15c.27.03.54.09.84.16l.42.08c.28.08.54.14.85.24a17.42 17.42 0 0 1 9.76 7.5c1.5 2.34 2.05 5.54 2.38 8.28a30.04 30.04 0 0 1-.03 7.41c0 .11-.04.24-.07.4a8.18 8.18 0 0 1-.18 1.08c-.67 3.64-1.94 7.1-3.3 10.5a29.32 29.32 0 0 0-2.23 9.83 20.65 20.65 0 0 0 .41 5.16c.23 1 .8 1.9 1.1 2.88.8 2.55-2.64 5.22-4.4 6.64a20.33 20.33 0 0 1-8.46 4.1 17.2 17.2 0 0 1-4.77.4c-2.74-.16-5.42-.81-4.71-4.2.3-1.48 1.1-2.8 1.3-4.32.21-1.48.24-2.99.35-4.49.04-.65.1-1.3.11-1.96 0-.47.2-1.76-.08-2.15v-.09c0-.03 0-.05-.03-.07 0 0 0-.02-.04-.04-1.98-.24-3.45-.11-5.13-1.33a10.72 10.72 0 0 1-3.4-4.38c-1.14-2.6-1.33-5.3-1.78-8.06-.45-2.8-.57-5.64-.48-8.5h-.02z"/><path fill="#D26259" d="M455.83 145.68s-5.5 8-11.47 8.78c.2-1.53.28-3.04.1-4.61v-.06c0-.04 0-.05-.03-.07 0-.03-.03-.04-.04-.04 0 0 8.81-1.85 11.46-4h-.02z" opacity=".36" style="mix-blend-mode:multiply"/><path fill="#3A272E" d="M436.95 125.6a1.07 1.07 0 0 0 .9 1.2c.58.07 1.1-.34 1.17-.93a1.07 1.07 0 0 0-.9-1.2 1.07 1.07 0 0 0-1.17.94zm12.73.68c-.2.65.15 1.33.78 1.54a1.2 1.2 0 0 0 1.5-.82c.2-.65-.15-1.33-.78-1.54a1.2 1.2 0 0 0-1.5.82z"/><path stroke="#3A272E" stroke-linecap="round" stroke-linejoin="round" stroke-width=".23" d="M440.74 121.91a33.08 33.08 0 0 0-.43 12.15c.04.27.08.53.23.74.25.33.7.45 1.11.47a5.97 5.97 0 0 0 2.95-.51"/><path stroke="#3A272E" stroke-linecap="round" stroke-linejoin="round" stroke-width=".19" d="M446.03 140.16s-2.24 1.08-4.12.72"/><path stroke="#3A272E" stroke-linecap="round" stroke-linejoin="round" stroke-width=".23" d="M449.62 136.01s-4.9 4.42-10.6 2.52"/><path fill="url(#f)" d="M449.62 135.33a8.14 8.14 0 0 0 8.13 8.13 8.14 8.14 0 0 0 0-16.27 8.14 8.14 0 0 0-8.13 8.14z" opacity=".38" style="mix-blend-mode:multiply"/><path fill="url(#g)" d="M434.25 137.8c.24 1.52.56 3.22 1.09 4.83a8.12 8.12 0 0 0 4.53-7.29 8.1 8.1 0 0 0-6.3-7.9 53.97 53.97 0 0 0 .68 10.35z" opacity=".38" style="mix-blend-mode:multiply"/><path fill="#3A272E" d="M454.92 120.7c.3.24.6.52.82.83.48.67.84 1.88.1 2.5-.8.67-1.86-.28-2.57-.63a7.88 7.88 0 0 0-3.23-.8c-.56 0-1.18 0-1.56-.4-1.35-1.47 1.66-2.72 2.7-2.78 1.07-.04 2.11.3 3.05.83l.7.46v-.01zm-15.8-1.2c.47.24.92.59 1.11 1.08.2.48.06 1.14-.4 1.39-.37.2-.85.1-1.26.05a5.58 5.58 0 0 0-2.2.14c-.22.06-.46.14-.68.07-.42-.11-.59-.61-.57-1.03.1-2.14 2.49-2.46 4.02-1.68l-.02-.02zm8.51-25.67c-2.75.88-4.55 3.5-5.9 6.07-.82 1.57-1.57 3.3-1.37 5.06.2 1.76 1.74 3.48 3.5 3.25.94-.12 1.83-.75 2.76-.58.94.17 1.55 1.11 1.86 2.03.3.92.42 1.92.93 2.74a4.15 4.15 0 0 0 3 1.75c1.19.15 2.4-.06 3.57-.33 1.48-.35 3.3-.74 4.38.34.68.67.83 1.7.89 2.65.1 1.62 0 3.28.41 4.85.42 1.57 1.5 3.1 3.08 3.49 1.01.25 2.2.03 2.99.74.26.23.44.55.73.73.64.4 1.45-.04 2.15-.33a6.3 6.3 0 0 1 3.85-.35c.48.11.97.3 1.46.25 1.29-.08 2.07-1.43 2.6-2.61.37-.82.75-1.67.86-2.56.2-1.95-.93-3.8-1.1-5.76-.12-1.46.3-2.89.5-4.34.21-1.44.18-3.04-.7-4.2-1.4-1.85-4.26-1.82-5.96-3.39-1.14-1.06-1.59-2.66-2.5-3.9a6.22 6.22 0 0 0-5.19-2.5c-1.83.07-3.64.98-5.46.71-1.42-.2-2.63-1.1-3.94-1.7a9.56 9.56 0 0 0-5.24-.73c-1.66.24-3.3.92-4.95.6"/><path fill="#3A272E" d="M466.2 132.2c-.1.2-.2.45-.4.56-.27.14-.6 0-.8-.23-.2-.22-.26-.53-.34-.82l-1.17-4.54c-.27-1.06-.55-2.15-.43-3.22.1-1.08.7-2.18 1.7-2.6 1.05-.44 2.34 0 3.08.88 2.32 2.78-.5 7.3-1.63 10l-.01-.03z"/><path fill="#D26259" d="m533.25 132.13.89-20.86 7.48-.8 5.13 21.42-13.5.24z"/><path fill="#D26259" d="M534.15 111.27s-6.7-3.25-6.42-6.21c.3-2.97 2.2-4.95 2.2-4.95a230.85 230.85 0 0 1-2.8-8.43 121.83 121.83 0 0 1-1.45-5c-.46-1.72-1.24-3.74-1.06-5.54.03-.3.15-.59.38-.77.7-.56 1.7.04 2.14.63.76.97 1.26 2.22 1.85 3.32l1.29 2.5c.93 1.81 1.85 3.6 2.75 5.41l.92 1.82.64-.22s-2.35-16.18-.07-16.56c2.28-.38 2.83 5.2 3.13 7.4.33 2.35 1.78 8.02 1.78 8.02s1.59-.6 2.45.6c.86 1.2 5.02 7 4.96 8.7-.05 1.68-5.25 8.48-5.25 8.48l-7.49.79.05.01z"/><path stroke="#3A272E" stroke-linecap="round" stroke-linejoin="round" stroke-width=".23" d="M540.55 92.68s-4.25 7.19-3.93 8.1c.32.91 3.25 3.9 4.55 3.65 1.29-.25 4.56-4.91 4.56-4.91m-7.1 3.5 5.4-6.43"/><path fill="#D26259" d="M529.94 100.1s5.66-5.42 7.05-5.14c1.4.28 2.12 2.34 1.34 4.02-.77 1.68-6.23 8.26-6.23 8.26l-2.17-7.15h.01z"/><path stroke="#3A272E" stroke-linecap="round" stroke-linejoin="round" stroke-width=".23" d="M529.95 100.09s5.93-6.04 7.56-4.88c1.61 1.15 1.4 3.38.74 4.45-.67 1.07-5.33 5.63-5.33 5.63m2.9-2.78s2 .25 3.66 2.63m-7.02-10.47s2.63-1.37 4.21-1.46"/><path fill="#4343E8" d="M465.92 153.9s6.5 48.01 1.3 80.46c-5.2 32.44-9.09 49.3-9.09 49.3s23.37 6.5 29.85 16.88c0 0 11.68-32.45 11.68-68.78s-3.9-84.36-3.9-84.36-14.28-2.6-29.85 6.5"/><path fill="#3872DF" d="M465.92 153.9s2.77 20.44 3.24 43.65l13.9-30.54-7.11-2.84 2.89-15.59a50.22 50.22 0 0 0-12.93 5.31z"/><path fill="#4343E8" d="m494.5 185.9 3.48-1.55c.1-.04.2-.1.3-.13 9.72-4.38 35.7-16.15 47.67-22.37l.3-.18c2.83-1.46 4.81-2.63 5.57-3.26 2.64-2.26 2.16-8.24 1.27-12.96l-.06-.33c-.69-3.4-1.55-6.1-1.55-6.1l-18.38 1.18-1.57.3-1.07.21-34.69 6.7-1.26 38.5z"/><path fill="#4343E8" d="M548.73 128.35s3.1 11.04 4.1 15.9c1 4.87-9.84 7.63-9.84 7.63l-13.92-4.65 2.21-16.78 17.45-2.1z"/><path fill="#FFD9D6" d="M530.96 133.53h.03l18.44-2.43c.08 0 .15-.1.14-.18 0-.08-.09-.15-.19-.14l-18.44 2.44c-.08 0-.15.1-.13.18 0 .08.08.13.16.13h-.01zm1.1-1.89c0 .42.33.76.75.76a.75.75 0 0 0 .75-.76.75.75 0 0 0-.75-.75.75.75 0 0 0-.76.75zm-72 152.7c.08 0 .15-.05.16-.12a481.6 481.6 0 0 0 7.54-30.3c.98-4.61 1.67-8.16 2.22-11.47a159.99 159.99 0 0 0 .66-47.57c0-.09-.1-.14-.18-.14-.09 0-.16.1-.14.18a160.28 160.28 0 0 1-.66 47.47c-.54 3.31-1.22 6.85-2.2 11.46a478.82 478.82 0 0 1-7.55 30.3c-.02.07.03.17.12.19h.04z"/><path fill="#231F20" d="m531.54 140.49-1.07.2-.99.2a22.8 22.8 0 0 1 10.49 10.52c-.8-4.36-3.1-8.4-6.42-11.25l-.42.02-1.57.3h-.02z" opacity=".2" style="mix-blend-mode:multiply"/><path fill="#231F20" d="M503.75 167c-4.87 3.51-5.47 17.21-5.47 17.21.74-.33 1.59-.7 2.49-1.13 1-7.73 2.98-16.07 2.98-16.07zm-5.25-20.11-2.73.51-.57 17.43 3.3-17.94z" opacity=".1" style="mix-blend-mode:multiply"/><path fill="#231F20" d="M490.69 174.18c4.04 3 7.3 10.15 7.3 10.15l2.46-1.1c-3.63-8.62-9.76-9.06-9.76-9.06v.01z" opacity=".1" style="mix-blend-mode:multiply"/><path fill="#D26259" d="m386.7 180.15-4.3-20.43-7.51.45-1.55 21.97 13.37-2zM382.4 159.72s6.08-4.31 5.3-7.17c-.78-2.88-2.98-4.54-2.98-4.54a229.04 229.04 0 0 0 2-13.93c.17-1.78.62-3.9.13-5.65-.08-.28-.24-.55-.5-.7-.8-.42-1.66.33-2.02.98-.58 1.09-.89 2.4-1.28 3.57-.29.9-.58 1.78-.86 2.69l-1.83 5.8c-.21.65-.4 1.3-.62 1.94l-.67-.1s-.33-16.36-2.65-16.36-1.93 5.59-1.88 7.81c.06 2.38-.44 8.2-.44 8.2s-1.66-.32-2.33 1c-.66 1.32-3.8 7.73-3.47 9.38.33 1.66 6.58 7.51 6.58 7.51l7.5-.44.02.01z"/><path fill="#3A272E" d="M374.37 154.28c1.42 0 3.86-3.46 4.04-4.47.16-.98-4.34-6.4-5.25-7.47-.05-.07-.15-.07-.22-.02-.07.06-.07.16-.01.23 2.06 2.44 5.28 6.57 5.17 7.21-.15.88-2.46 4.22-3.71 4.22h-.03c-1.03-.03-4.1-2.94-5.19-4.05a.14.14 0 0 0-.22 0 .14.14 0 0 0 0 .22c.17.17 4.03 4.1 5.41 4.15h.03l-.02-.02z"/><path fill="#3A272E" d="M376.63 152.48s.08-.02.12-.06c.06-.07.06-.17-.01-.22l-6.38-5.47s-.17-.05-.23.02c-.05.07-.05.16.02.22l6.38 5.46s.07.05.1.05z"/><path fill="#D26259" d="M384.72 148.01s-6.49-4.4-7.8-3.9c-1.33.5-1.7 2.65-.67 4.18 1.03 1.53 7.5 7.12 7.5 7.12l.95-7.4h.02z"/><path fill="#3A272E" d="M382.63 153.8s.1-.03.13-.07c.05-.07.03-.17-.04-.22-.06-.05-5.34-3.73-6.15-4.66-.83-.96-1.3-3 0-4.3 1.07-1.08 6.17 2.23 8.05 3.59.07.05.17.04.22-.04a.16.16 0 0 0-.02-.23c-.71-.51-7.01-5.02-8.47-3.56-1.45 1.44-.93 3.67 0 4.73.83.96 5.98 4.55 6.2 4.7a.2.2 0 0 0 .1.03l-.02.03z"/><path fill="#3A272E" d="M376.13 154.7s.1-.03.13-.1c1.2-2.5 3.08-3.1 3.1-3.1.08-.03.13-.1.1-.2a.17.17 0 0 0-.2-.1c-.07.03-2.02.62-3.27 3.27-.05.08 0 .18.07.2l.07.02v.01zm5.2-11.47s.14-.04.16-.11a.15.15 0 0 0-.1-.2c-.1-.04-2.86-.91-4.44-.75-.09 0-.16.09-.14.18 0 .09.08.16.18.14 1.53-.17 4.3.72 4.32.74h.06-.03z"/><path fill="#4343E8" d="M442.57 161.68s-18.17 5.19-24.65 9.08c0 0 9.08 37.63 2.6 59.7-6.5 22.07-25.96 59.7-25.96 59.7s9.13-7.3 23.36-9.08l10.39-1.3s14.28-31.05 14.28-66.19v-51.9h-.02z"/><path fill="#3872DF" d="m433.96 178.12-5.32 8.6 13.92 18.21v-43.25s-8.42 2.4-15.84 5.18l7.23 11.26h.01z"/><path fill="#4343E8" d="M373.44 199.05s.46 3.8 1.45 8.17c.22 1.02.49 2.06.77 3.1.02.09.05.2.1.3 1.45 5.2 3.68 10.04 6.75 9.41 2.05-.42 6.95-1.96 12.71-3.85l.32-.11c10.25-3.4 23.04-7.89 27.04-9.29.08-.03.13-.06.2-.07l.12-.06.91-.32s-.1-24.62-5.74-35.22c-.06-.11-.1-.24-.17-.33l-.15.1-27.46 17.46-.07.06-.64.4-16.15 10.26.01-.01z"/><path fill="#4343E8" d="m393.21 199.48-5.3-19.66-16.56 2.65s1.32 18.55 3.31 24.3c2 5.74 18.55-7.3 18.55-7.3z"/><path fill="#FFD9D6" d="M371.65 186.73h.04l16.9-3.81c.08-.02.13-.11.12-.2-.01-.08-.1-.14-.2-.12l-16.9 3.8c-.07.02-.13.12-.12.2a.16.16 0 0 0 .16.13zm1.16-2.8c0 .36.3.67.67.67a.66.66 0 0 0 .67-.67.66.66 0 0 0-.67-.67.66.66 0 0 0-.67.67zm53.86 96.22s.13-.04.15-.11a289.94 289.94 0 0 0 13-51.22c1.3-8.37 2.33-17.35.94-26.21-.02-.09-.1-.16-.18-.14-.09.01-.16.1-.14.18 1.38 8.82.36 17.76-.95 26.1a288.87 288.87 0 0 1-12.97 51.16c-.03.09 0 .18.1.21h.05v.03z"/><path fill="#5787FF" d="M435.52 211.33a1.74 1.74 0 1 0 3.48 0 1.74 1.74 0 0 0-3.48 0zm-.82 12.6a1.74 1.74 0 1 0 3.47 0 1.74 1.74 0 0 0-3.48 0zm-1.99 12.75a1.74 1.74 0 1 0 3.48 0 1.74 1.74 0 0 0-3.48 0zm-2.15 12.1a1.74 1.74 0 1 0 3.47 0 1.74 1.74 0 0 0-3.47 0zm-3.98 12.41a1.74 1.74 0 0 0 3.47 0 1.74 1.74 0 0 0-3.47 0zm-5.05 13.02a1.74 1.74 0 1 0 3.48 0 1.74 1.74 0 0 0-3.48 0z" opacity=".36" style="mix-blend-mode:multiply"/><path fill="#231F20" d="M390.31 188.31c-1.22 4.16-2.75 11.18-1.6 17.3 0 0 2.54-12.97 5.2-19.6l-3.6 2.3zm33.42 14.47c-.07-1.87-.2-4.34-.42-7.15-.1-.52-.26-1-.51-1.46-.04 1.39-.1 2.78-.28 4.16a24.1 24.1 0 0 1-.8 3.83c-.58-2.3-2.1-4.21-3.2-6.31a72.12 72.12 0 0 1 2.49 11.46l1.55-.54c.09-.03.93-1.1.99-1.5.11-.83.15-1.66.17-2.5h.01zm-4.28-19.27-1.12-7.27a22.9 22.9 0 0 1-.39-5.4l-.04-.1-.15.1-2.16 1.37a26.03 26.03 0 0 0 3.86 11.3z" opacity=".2" style="mix-blend-mode:multiply"/></g><defs><linearGradient id="b" x1="653.41" x2="632.31" y1="149.56" y2="134.69" gradientUnits="userSpaceOnUse"><stop stop-color="#FF9D88" stop-opacity="0"/><stop offset="1" stop-color="#FF7878" stop-opacity=".5"/></linearGradient><linearGradient id="c" x1="624.27" x2="612.95" y1="142.92" y2="131.31" gradientUnits="userSpaceOnUse"><stop stop-color="#FF9D88" stop-opacity="0"/><stop offset="1" stop-color="#FF7878" stop-opacity=".5"/></linearGradient><linearGradient id="d" x1="83.91" x2="107.54" y1="114.64" y2="102.15" gradientUnits="userSpaceOnUse"><stop stop-color="#FF9D88" stop-opacity="0"/><stop offset="1" stop-color="#FF7878" stop-opacity=".5"/></linearGradient><linearGradient id="e" x1="128.31" x2="117.35" y1="112.19" y2="100.97" gradientUnits="userSpaceOnUse"><stop stop-color="#FF9D88" stop-opacity="0"/><stop offset="1" stop-color="#FF7878" stop-opacity=".5"/></linearGradient><linearGradient id="f" x1="469.11" x2="450.23" y1="147.9" y2="127.01" gradientUnits="userSpaceOnUse"><stop stop-color="#EC6969" stop-opacity="0"/><stop offset="1" stop-color="#D26259" stop-opacity=".5"/></linearGradient><linearGradient id="g" x1="439.87" x2="433.55" y1="135.02" y2="135.02" gradientUnits="userSpaceOnUse"><stop stop-color="#EC6969" stop-opacity="0"/><stop offset="1" stop-color="#D26259" stop-opacity=".5"/></linearGradient><clipPath id="a"><path fill="#fff" d="M0 0h750v454H0z"/></clipPath></defs></svg>