<svg width="222" height="36" viewBox="0 0 222 36" fill="none" xmlns="http://www.w3.org/2000/svg">
<path d="M17.5069 2.68829V33.441H17.4836C17.4719 33.4433 17.4602 33.4457 17.4485 33.4457C17.4112 33.448 17.3761 33.4527 17.3387 33.455H17.3317C16.9019 33.4924 16.4675 33.5111 16.0284 33.5111C15.5869 33.5111 15.1501 33.4924 14.718 33.455C6.85326 32.7865 0.679688 26.1507 0.679688 18.0658C0.679688 9.76348 7.18961 2.9898 15.351 2.63453C15.5752 2.62284 15.8018 2.61816 16.0284 2.61816C16.2549 2.61816 16.4815 2.62284 16.7057 2.63453C16.916 2.64154 17.1238 2.65556 17.3317 2.67426C17.3714 2.6766 17.4112 2.67894 17.4485 2.68361C17.4602 2.68361 17.4719 2.68595 17.4836 2.68829H17.5069Z" fill="#F7E034"/>
<path d="M24.0851 34.5896C24.0851 35.3025 23.4741 35.8806 22.7203 35.8806C21.9665 35.8806 21.3555 35.3023 21.3555 34.5896V1.4103C21.3555 0.697171 21.9665 0.119141 22.7203 0.119141C23.4741 0.119141 24.0851 0.697171 24.0851 1.4103V34.5896Z" fill="black"/>
<path d="M82.0825 22.8393C81.4392 24.2223 80.6647 25.3961 79.7596 26.3617C78.8537 27.3275 77.8832 28.1201 76.8468 28.7399C75.8104 29.36 74.7383 29.8128 73.6304 30.0989C72.5225 30.385 71.456 30.528 70.4319 30.528C68.645 30.528 66.9831 30.1942 65.4464 29.5267C63.9096 28.8596 62.5749 27.9476 61.4437 26.7908C60.3118 25.635 59.4244 24.2938 58.7813 22.7677C58.1381 21.2424 57.8164 19.6207 57.8164 17.9041C57.8164 16.1876 58.1381 14.5603 58.7813 13.0226C59.4246 11.4848 60.312 10.1439 61.4437 8.99949C62.5749 7.85511 63.9096 6.94939 65.4464 6.2816C66.9831 5.61452 68.645 5.28027 70.4319 5.28027C71.3611 5.28027 72.3317 5.39995 73.3445 5.63789C74.3568 5.87653 75.3575 6.25215 76.3465 6.76427C77.3347 7.27732 78.2702 7.95048 79.152 8.78492C80.0331 9.61982 80.8076 10.6445 81.475 11.8604C80.9506 12.266 80.4028 12.6533 79.831 13.0226C79.2592 13.3926 78.6517 13.8037 78.0084 14.2565C77.0311 12.6829 75.8938 11.5089 74.5953 10.7338C73.2963 9.95944 71.9089 9.57167 70.4319 9.57167C69.2643 9.57167 68.1744 9.79863 67.162 10.2511C66.149 10.7044 65.2679 11.3123 64.5174 12.075C63.7669 12.8384 63.1773 13.7261 62.7485 14.7391C62.3196 15.7526 62.1052 16.8077 62.1052 17.9039C62.1052 19.0724 62.3313 20.163 62.7842 21.176C63.2367 22.1897 63.8503 23.0713 64.6246 23.8223C65.3987 24.5733 66.2866 25.1635 67.2872 25.5927C68.2879 26.0218 69.336 26.2364 70.4322 26.2364C71.0755 26.2364 71.7722 26.1352 72.5227 25.9323C73.2732 25.7301 74.006 25.4139 74.7207 24.9847C75.4355 24.5553 76.0905 24.0072 76.6863 23.3394C77.2815 22.6721 77.7585 21.8856 78.1158 20.9792L82.0825 22.8393Z" fill="white"/>
<path d="M112.711 17.9041C112.711 19.6922 112.377 21.3553 111.71 22.8928C111.043 24.4305 110.138 25.7661 108.994 26.8981C107.85 28.031 106.516 28.9187 104.991 29.5624C103.466 30.2062 101.846 30.528 100.131 30.528C98.344 30.528 96.6821 30.1942 95.1456 29.5267C93.6088 28.8596 92.2742 27.9476 91.1429 26.7908C90.011 25.635 89.1236 24.2938 88.4806 22.7677C87.8373 21.2424 87.5156 19.6207 87.5156 17.9041C87.5156 16.1876 87.8373 14.5603 88.4806 13.0226C89.1238 11.4848 90.0112 10.1439 91.1429 8.99949C92.2742 7.85511 93.6088 6.94939 95.1456 6.2816C96.6823 5.61452 98.344 5.28027 100.131 5.28027C101.918 5.28027 103.58 5.61452 105.116 6.2816C106.653 6.94939 107.981 7.85511 109.101 8.99949C110.221 10.1439 111.102 11.485 111.746 13.0226C112.389 14.5605 112.711 16.1876 112.711 17.9041ZM108.458 17.9041C108.458 16.8079 108.237 15.7584 107.797 14.7571C107.356 13.7558 106.754 12.8795 105.992 12.1285C105.229 11.3775 104.348 10.7817 103.347 10.3404C102.347 9.89961 101.275 9.67896 100.131 9.67896C98.9873 9.67896 97.9152 9.89961 96.9145 10.3404C95.9138 10.7817 95.0321 11.3775 94.2699 12.1285C93.507 12.8795 92.9058 13.7556 92.465 14.7571C92.0238 15.7584 91.804 16.8077 91.804 17.9041C91.804 19.0011 92.024 20.0498 92.465 21.0512C92.9055 22.0525 93.507 22.9288 94.2699 23.6798C95.0321 24.4308 95.9138 25.027 96.9145 25.4679C97.9152 25.9094 98.9873 26.1293 100.131 26.1293C101.203 26.1293 102.239 25.9208 103.24 25.5034C104.241 25.0866 105.128 24.5081 105.903 23.7691C106.677 23.0304 107.297 22.1598 107.761 21.1585C108.226 20.1571 108.458 19.0726 108.458 17.9041Z" fill="white"/>
<path d="M137.12 9.53591H123.111V15.079H133.225V19.4777H123.147V30.4922H118.93V5.28027H137.12V9.53591Z" fill="white"/>
<path d="M165.353 5.28027L156.597 18.0114V30.4922H151.701V18.0114L142.945 5.28027H148.056L154.274 14.1492L160.564 5.28027H165.353Z" fill="white"/>
<path d="M192.764 30.4922L175.789 15.6869V30.4922H171.5V5.28027L188.476 20.0856V5.28027H192.764V30.4922V30.4922Z" fill="white"/>
<path d="M221.495 17.9041C221.495 19.0249 221.322 20.1929 220.977 21.4088C220.631 22.6247 220.102 23.7868 219.387 24.8954C218.672 26.004 217.755 27.0114 216.635 27.9174C215.515 28.8236 214.181 29.5031 212.632 29.9558C212.441 30.0273 212.197 30.0933 211.899 30.1526C211.601 30.2125 211.304 30.2721 211.006 30.3314C210.708 30.3913 210.446 30.4333 210.22 30.4565C209.993 30.4808 209.845 30.4922 209.773 30.4922H200.195V5.28027H209.773C209.963 5.28027 210.256 5.31604 210.649 5.38756C211.042 5.45908 211.441 5.54837 211.846 5.65565C212.251 5.76294 212.632 5.87022 212.99 5.97751C213.347 6.08479 213.585 6.17408 213.704 6.24561C215.086 6.86571 216.271 7.61694 217.26 8.49859C218.249 9.38095 219.059 10.3404 219.691 11.3775C220.321 12.4146 220.78 13.4935 221.067 14.6138C221.352 15.7351 221.495 16.8313 221.495 17.9041ZM217.243 17.9041C217.243 16.8313 217.034 15.7942 216.617 14.7929C216.2 13.7915 215.622 12.9036 214.884 12.1287C214.145 11.3541 213.269 10.734 212.257 10.2691C211.244 9.80424 210.154 9.57191 208.987 9.57191H204.377V26.2368H208.808C209.904 26.2368 210.964 26.0284 211.989 25.6109C213.013 25.1941 213.913 24.6156 214.687 23.8766C215.461 23.138 216.081 22.2556 216.546 21.2302C217.01 20.2053 217.243 19.0967 217.243 17.9041Z" fill="white"/>
<path d="M40.2232 18.0586C40.2232 21.8236 37.1728 24.876 33.4103 24.876C29.6478 24.876 26.5977 21.8236 26.5977 18.0586C26.5977 14.2936 29.648 11.2412 33.4103 11.2412C37.1728 11.2414 40.2232 14.2936 40.2232 18.0586Z" fill="#FFCC05"/>
</svg>
