<svg width="1000" height="95" viewBox="0 0 1000 95" fill="none" xmlns="http://www.w3.org/2000/svg">
<g clip-path="url(#clip0_9147_2938)">
<path d="M0 0H1000V95H0V0Z" fill="url(#paint0_linear_9147_2938)"/>
<path d="M0 0H1000V95H0V0Z" fill="url(#paint1_linear_9147_2938)" fill-opacity="0.2"/>
<path d="M93.2129 135C93.2129 122.079 98.4494 110.384 106.917 101.916C115.384 93.4489 127.078 88.2126 140 88.2126C152.921 88.2126 164.616 93.4489 173.084 101.916C181.551 110.384 186.788 122.079 186.788 135H187.571C187.571 108.727 166.273 87.429 140 87.429C113.728 87.429 92.4293 108.727 92.4293 135H93.2129Z" fill="#FAE9F9" fill-opacity="0.5"/>
<path d="M88.8431 135C88.8431 120.872 94.5679 108.086 103.826 98.8268C113.085 89.5689 125.872 83.8438 140 83.8435C154.128 83.8438 166.914 89.5689 176.173 98.8268C185.431 108.086 191.156 120.872 191.156 135H191.939C191.939 106.314 168.685 83.0602 140 83.06C111.314 83.0602 88.0595 106.314 88.0595 135H88.8431Z" fill="#FAE9F9" fill-opacity="0.5"/>
<path d="M84.4744 135C84.4744 119.666 90.6883 105.787 100.737 95.7375C110.786 85.6886 124.665 79.4747 139.999 79.4744C155.334 79.4747 169.213 85.6886 179.263 95.7375C189.311 105.787 195.525 119.666 195.525 135H196.309C196.309 103.901 171.098 78.6912 139.999 78.6908C108.901 78.6912 83.6908 103.901 83.6908 135H84.4744Z" fill="#FAE9F9" fill-opacity="0.5"/>
<path d="M80.1045 135C80.1054 118.459 86.8081 103.488 97.6473 92.6478C108.487 81.8083 123.459 75.1053 139.999 75.105C156.54 75.1053 171.511 81.8083 182.351 92.6478C193.191 103.488 199.894 118.459 199.895 135H200.679C200.678 101.488 173.512 74.3217 139.999 74.3214C106.488 74.3217 79.3219 101.488 79.3209 135H80.1045Z" fill="#FAE9F9" fill-opacity="0.5"/>
<path d="M75.735 135C75.7359 117.253 82.9277 101.189 94.5575 89.5585C106.188 77.9283 122.252 70.7362 139.999 70.7359C157.747 70.7362 173.81 77.9283 185.442 89.5585C197.072 101.189 204.263 117.253 204.264 135H205.048C205.047 99.0747 175.925 69.9526 139.999 69.9523C104.074 69.9526 74.9523 99.0747 74.9514 135H75.735Z" fill="#FAE9F9" fill-opacity="0.5"/>
<path d="M71.3671 135C71.3671 116.046 79.0487 98.8905 91.4694 86.4691C103.891 74.0484 121.046 66.3671 140 66.3671C158.954 66.3671 176.11 74.0484 188.531 86.4691C200.952 98.8905 208.633 116.046 208.633 135H209.417C209.417 96.6621 178.338 65.5838 140 65.5835C101.662 65.5835 70.5835 96.6621 70.5835 135H71.3671Z" fill="#FAE9F9" fill-opacity="0.5"/>
<path d="M66.9977 135C66.9977 114.84 75.1681 96.5918 88.3794 83.3798C101.591 70.1684 119.84 61.9983 140 61.998C160.16 61.9983 178.408 70.1684 191.62 83.3798C204.831 96.5918 213.002 114.84 213.002 135H213.785C213.785 94.249 180.751 61.2147 140 61.2144C99.2493 61.2147 66.2141 94.249 66.2141 135H66.9977Z" fill="#FAE9F9" fill-opacity="0.5"/>
<path d="M62.6282 135C62.6282 113.633 71.2877 94.2927 85.2897 80.2901C99.2923 66.2881 118.633 57.6289 140 57.6286C161.366 57.6289 180.707 66.2881 194.709 80.2901C208.711 94.2927 217.371 113.633 217.371 135H218.154C218.154 91.8358 183.164 56.8453 140 56.845C96.8356 56.8453 61.8446 91.8358 61.8446 135H62.6282Z" fill="#FAE9F9" fill-opacity="0.5"/>
<path d="M58.2596 135C58.2596 112.427 67.4079 91.994 82.2005 77.2008C96.9938 62.4082 117.427 53.2598 139.999 53.2595C162.573 53.2598 183.006 62.4082 197.799 77.2008C212.591 91.994 221.74 112.427 221.74 135H222.523C222.523 89.4232 185.577 52.4762 139.999 52.4759C94.4229 52.4762 57.476 89.4232 57.476 135H58.2596Z" fill="#FAE9F9" fill-opacity="0.5"/>
<path d="M53.8894 135C53.8903 111.22 63.5275 89.6953 79.1107 74.1114C94.6946 58.5278 116.22 48.8904 139.999 48.8904C163.779 48.8904 185.304 58.5278 200.888 74.1114C216.471 89.6953 226.108 111.22 226.109 135H226.893C226.892 87.01 187.989 48.1076 139.999 48.1068C92.0102 48.1076 53.1067 87.01 53.1058 135H53.8894Z" fill="#FAE9F9" fill-opacity="0.5"/>
<path d="M49.4128 135C49.4134 109.984 59.5517 87.34 75.9451 70.9459C92.3392 54.5521 114.983 44.4137 139.999 44.4137C165.015 44.4137 187.659 54.5521 204.053 70.9459C220.448 87.34 230.586 109.984 230.586 135H231.369C231.369 84.5374 190.461 43.6302 139.999 43.6302C89.537 43.6302 48.6298 84.5374 48.6298 135H49.4134" fill="#FAE9F9" fill-opacity="0.5"/>
<path d="M45.1524 135C45.1524 108.807 55.7676 85.0978 72.9328 67.9324C90.0982 50.7679 113.807 40.1526 140 40.1518C166.193 40.1526 189.902 50.7679 207.068 67.9324C224.232 85.0978 234.848 108.807 234.848 135H235.632C235.632 82.1842 192.816 39.369 140 39.3683C87.1848 39.369 44.3688 82.1842 44.3688 135H45.1524Z" fill="#FAE9F9" fill-opacity="0.5"/>
<path d="M40.7836 135C40.7836 107.601 51.8876 82.7989 69.8437 64.8431C87.7994 46.8875 112.601 35.7833 140 35.7833C167.399 35.7833 192.201 46.8875 210.156 64.8431C228.112 82.7991 239.216 107.601 239.216 135H240C240 79.771 195.228 34.9998 140 34.9998C84.7716 34.9998 40 79.771 40 135H40.7836Z" fill="#FAE9F9" fill-opacity="0.5"/>
<path d="M886.787 -30C886.787 -17.0788 881.551 -5.38437 873.083 3.08384C864.616 11.5511 852.922 16.7874 840 16.7874C827.079 16.7874 815.384 11.5511 806.916 3.08384C798.449 -5.38437 793.212 -17.0788 793.212 -30H792.429C792.429 -3.72693 813.727 17.571 840 17.571C866.272 17.571 887.571 -3.72693 887.571 -30H886.787Z" fill="#FAE9F9" fill-opacity="0.5"/>
<path d="M891.157 -30C891.157 -15.8722 885.432 -3.08572 876.174 6.17321C866.915 15.4311 854.128 21.1562 840 21.1565C825.872 21.1562 813.086 15.4311 803.827 6.17321C794.569 -3.08572 788.844 -15.8722 788.844 -30H788.061C788.061 -1.31403 811.315 21.9398 840 21.94C868.686 21.9398 891.94 -1.31403 891.94 -30H891.157Z" fill="#FAE9F9" fill-opacity="0.5"/>
<path d="M895.526 -30C895.526 -14.6659 889.312 -0.786989 879.263 9.26249C869.214 19.3114 855.335 25.5253 840.001 25.5256C824.666 25.5253 810.787 19.3114 800.737 9.26249C790.689 -0.786989 784.475 -14.6656 784.475 -30H783.691C783.691 1.09887 808.902 26.3088 840.001 26.3092C871.099 26.3088 896.309 1.09887 896.309 -30H895.526Z" fill="#FAE9F9" fill-opacity="0.5"/>
<path d="M899.896 -30C899.895 -13.4593 893.192 1.51206 882.353 12.3522C871.513 23.1917 856.541 29.8947 840.001 29.895C823.46 29.8947 808.489 23.1917 797.649 12.3522C786.809 1.51206 780.106 -13.459 780.105 -30H779.321C779.322 3.51208 806.488 30.6783 840.001 30.6786C873.512 30.6783 900.678 3.51208 900.679 -30H899.896Z" fill="#FAE9F9" fill-opacity="0.5"/>
<path d="M904.265 -30C904.264 -12.2527 897.072 3.81078 885.442 15.4415C873.812 27.0717 857.748 34.2638 840.001 34.2641C822.253 34.2638 806.19 27.0717 794.558 15.4415C782.928 3.81078 775.737 -12.2527 775.736 -30H774.952C774.953 5.92528 804.075 35.0474 840.001 35.0477C875.926 35.0474 905.048 5.92528 905.049 -30H904.265Z" fill="#FAE9F9" fill-opacity="0.5"/>
<path d="M908.633 -30C908.633 -11.0461 900.951 6.10951 888.531 18.5309C876.109 30.9516 858.954 38.6329 840 38.6329C821.046 38.6329 803.89 30.9516 791.469 18.5309C779.048 6.10951 771.367 -11.0461 771.367 -30H770.583C770.583 8.33786 801.662 39.4162 840 39.4165C878.338 39.4165 909.416 8.33786 909.416 -30H908.633Z" fill="#FAE9F9" fill-opacity="0.5"/>
<path d="M913.002 -30C913.002 -9.83983 904.832 8.40823 891.621 21.6202C878.409 34.8316 860.16 43.0017 840 43.002C819.84 43.0017 801.592 34.8316 788.38 21.6202C775.169 8.40823 766.998 -9.83983 766.998 -30H766.215C766.215 10.751 799.249 43.7853 840 43.7856C880.751 43.7853 913.786 10.751 913.786 -30H913.002Z" fill="#FAE9F9" fill-opacity="0.5"/>
<path d="M917.372 -30C917.372 -8.63318 908.712 10.7073 894.71 24.7099C880.708 38.7119 861.367 47.3711 840 47.3714C818.634 47.3711 799.293 38.7119 785.291 24.7099C771.289 10.7073 762.629 -8.63318 762.629 -30H761.846C761.846 13.1642 796.836 48.1547 840 48.155C883.164 48.1547 918.155 13.1642 918.155 -30H917.372Z" fill="#FAE9F9" fill-opacity="0.5"/>
<path d="M921.74 -30C921.74 -7.42694 912.592 13.006 897.799 27.7992C883.006 42.5918 862.573 51.7402 840.001 51.7405C817.427 51.7402 796.994 42.5918 782.201 27.7992C767.409 13.006 758.26 -7.42662 758.26 -30H757.477C757.477 15.5768 794.423 52.5238 840.001 52.5241C885.577 52.5238 922.524 15.5768 922.524 -30H921.74Z" fill="#FAE9F9" fill-opacity="0.5"/>
<path d="M926.111 -30C926.11 -6.22029 916.473 15.3047 900.889 30.8886C885.305 46.4722 863.78 56.1096 840.001 56.1096C816.221 56.1096 794.696 46.4722 779.112 30.8886C763.529 15.3047 753.892 -6.22005 753.891 -30H753.107C753.108 17.99 792.011 56.8924 840.001 56.8932C887.99 56.8924 926.893 17.99 926.894 -30H926.111Z" fill="#FAE9F9" fill-opacity="0.5"/>
<path d="M930.587 -30C930.587 -4.98403 920.448 17.66 904.055 34.0541C887.661 50.4479 865.017 60.5863 840.001 60.5863C814.985 60.5863 792.341 50.4479 775.947 34.0541C759.552 17.66 749.414 -4.98403 749.414 -30H748.631C748.631 20.4626 789.539 61.3698 840.001 61.3698C890.463 61.3698 931.37 20.4626 931.37 -30H930.587" fill="#FAE9F9" fill-opacity="0.5"/>
<path d="M934.848 -30C934.848 -3.80716 924.232 19.9022 907.067 37.0676C889.902 54.2321 866.193 64.8474 840 64.8482C813.807 64.8474 790.098 54.2321 772.932 37.0676C755.768 19.9022 745.152 -3.80716 745.152 -30H744.368C744.368 22.8158 787.184 65.631 840 65.6317C892.815 65.631 935.631 22.8158 935.631 -30H934.848Z" fill="#FAE9F9" fill-opacity="0.5"/>
<path d="M939.216 -30C939.216 -2.60052 928.112 22.2011 910.156 40.1569C892.201 58.1125 867.399 69.2167 840 69.2167C812.601 69.2167 787.799 58.1125 769.844 40.1569C751.888 22.2009 740.784 -2.60052 740.784 -30H740C740 25.229 784.772 70.0002 840 70.0002C895.228 70.0002 940 25.229 940 -30H939.216Z" fill="#FAE9F9" fill-opacity="0.5"/>
</g>
<defs>
<linearGradient id="paint0_linear_9147_2938" x1="500" y1="0" x2="500" y2="95" gradientUnits="userSpaceOnUse">
<stop stop-color="#EAE6FF" stop-opacity="0.3"/>
<stop offset="0.541667" stop-color="#F3F0FB" stop-opacity="0.1375"/>
<stop offset="1" stop-color="#EDF5FD" stop-opacity="0.2"/>
</linearGradient>
<linearGradient id="paint1_linear_9147_2938" x1="0" y1="47.5905" x2="1000" y2="47.5907" gradientUnits="userSpaceOnUse">
<stop stop-color="#FAE9F9" stop-opacity="0.5"/>
<stop offset="1" stop-color="#FAE9F9" stop-opacity="0.1"/>
</linearGradient>
<clipPath id="clip0_9147_2938">
<rect width="1000" height="95" fill="white"/>
</clipPath>
</defs>
</svg>
