<?xml version="1.0" encoding="utf-8"?>
<!-- Generator: Adobe Illustrator 22.1.0, SVG Export Plug-In . SVG Version: 6.00 Build 0)  -->
<svg version="1.1" id="Layer_1" xmlns="http://www.w3.org/2000/svg" xmlns:xlink="http://www.w3.org/1999/xlink" x="0px" y="0px"
	 viewBox="0 0 370 208" style="enable-background:new 0 0 370 208;" xml:space="preserve">
<style type="text/css">
	.st0{fill:#E5E5E5;}
	.st1{fill:#e8e8e8;}
</style>
<circle class="st0" cx="231.1" cy="103.8" r="24.5"/>
<path class="st0" d="M169.6,48.9c-30.5,0-55.2,24.7-55.2,55.1s24.7,55.2,55.1,55.2c0,0,0,0,0,0c1.6,0,3-0.2,4.6-0.2V49.1
	C172.6,49.1,171.2,48.9,169.6,48.9z"/>
<path class="st1" d="M194,167.4h-2.4c-2,0-3.6-1.6-3.6-3.6c0,0,0,0,0,0V44.2c0-2,1.6-3.6,3.6-3.6c0,0,0,0,0,0h2.4
	c2,0,3.6,1.6,3.6,3.6c0,0,0,0,0,0V164C197.6,165.9,196,167.4,194,167.4z"/>
</svg>
