<svg id="Layer_1" data-name="Layer 1" xmlns="http://www.w3.org/2000/svg" viewBox="0 0 370 208"><defs><style>.cls-1{fill:#efefef;}.cls-2{fill:#f4f4f4;}.cls-3{fill:#bfbfbf;}.cls-4{fill:#d8d8d8;}</style></defs><title>coworkspace image dp</title><path class="cls-1" d="M123.559,137.172l1.874,1.094a145.287,145.287,0,0,0,144.794,1.019h0L124.145,53.95h0C91.911,72.176,91.585,118.494,123.559,137.172Z"/><polygon class="cls-2" points="163.311 111.875 159.828 113.719 156.345 111.875 156.345 79.144 163.311 79.144 163.311 111.875"/><polygon class="cls-2" points="188.483 125.462 185 127.306 181.517 125.462 181.517 92.731 188.483 92.731 188.483 125.462"/><polygon class="cls-2" points="213.941 112.203 210.458 113.976 206.975 112.203 206.975 80.711 213.941 80.711 213.941 112.203"/><polygon class="cls-2" points="186.094 64.426 213.611 80.8 185 96.996 156.582 80.26 186.094 64.426"/><path class="cls-3" d="M185,127.918a.573.573,0,0,1-.3-.085l-3.336-2.045a.579.579,0,0,1-.275-.492V95.338a.577.577,0,1,1,1.154,0v29.635l2.182,1.337V92.7a.577.577,0,0,1,1.154,0v34.645a.576.576,0,0,1-.295.5A.569.569,0,0,1,185,127.918Z"/><path class="cls-3" d="M185,127.918a.576.576,0,0,1-.577-.577V92.7a.577.577,0,0,1,1.154,0V126.31l2.18-1.337V95.554a.577.577,0,0,1,1.154,0V125.3a.577.577,0,0,1-.275.492l-3.334,2.045A.582.582,0,0,1,185,127.918Z"/><path class="cls-3" d="M210.433,114.68a.573.573,0,0,1-.3-.085l-3.307-2.027a.579.579,0,0,1-.275-.492V85.148a.577.577,0,0,1,1.154,0v26.605l2.153,1.319V83.864a.577.577,0,0,1,1.154,0V114.1a.579.579,0,0,1-.577.577Z"/><path class="cls-3" d="M210.433,114.68a.578.578,0,0,1-.577-.577V82.79a.577.577,0,1,1,1.154,0v30.282l2.152-1.319V80.959a.577.577,0,1,1,1.154,0v31.117a.579.579,0,0,1-.275.492l-3.306,2.027A.575.575,0,0,1,210.433,114.68Z"/><path class="cls-3" d="M159.9,114.5a.569.569,0,0,1-.282-.074.576.576,0,0,1-.3-.5V82.512a.577.577,0,0,1,1.154,0V112.9l2.488-1.525V84.589a.577.577,0,1,1,1.154,0v27.1a.58.58,0,0,1-.275.492l-3.642,2.232A.573.573,0,0,1,159.9,114.5Z"/><path class="cls-3" d="M159.9,114.5a.573.573,0,0,1-.3-.085l-3.642-2.232a.58.58,0,0,1-.275-.492V79.311a.577.577,0,1,1,1.154,0V111.37l2.488,1.525V82.512a.577.577,0,0,1,1.154,0v31.413a.576.576,0,0,1-.295.5A.569.569,0,0,1,159.9,114.5Z"/><path class="cls-3" d="M185,97.544a.575.575,0,0,1-.295-.081L155.966,80.342a.577.577,0,0,1,.014-1l28.739-16.019a.576.576,0,0,1,.576.008l28.739,17.121a.577.577,0,0,1-.014,1L185.281,97.47A.573.573,0,0,1,185,97.544ZM157.416,79.863,185.01,96.3l27.574-15.37L184.99,64.493Z"/><path class="cls-4" d="M185,97,156.261,79.875V43.08a5.588,5.588,0,0,1,8.447-4.8l12.074,7.194A16.834,16.834,0,0,1,185,59.936Z"/><path class="cls-3" d="M185,97.573a.575.575,0,0,1-.295-.081L155.966,80.371a.576.576,0,0,1-.282-.5V43.08a6.164,6.164,0,0,1,9.319-5.3l12.074,7.193a17.491,17.491,0,0,1,8.5,14.957V97a.579.579,0,0,1-.577.577ZM156.838,79.547l27.585,16.434V59.935a16.332,16.332,0,0,0-7.937-13.966l-12.073-7.193a5.011,5.011,0,0,0-7.575,4.3Z"/></svg>