<svg id="Layer_1" data-name="Layer 1" xmlns="http://www.w3.org/2000/svg" viewBox="0 0 45.124 41.506"><defs><style>.cls-1{opacity:0.7;}.cls-2{fill:#ffcc05;}.cls-3{fill:#494949;}</style></defs><title>Vector Smart Object1</title><g class="cls-1"><path class="cls-2" d="M4.314,44.856a8.481,8.481,0,1,1,16.961,0" transform="translate(-3.215 -4.883)"/></g><path class="cls-3" d="M21.987,46.39H4.314a1.1,1.1,0,0,1-1.1-1.1V31.933a1.1,1.1,0,0,1,1.1-1.1H19.472a3.62,3.62,0,0,1,3.615,3.615V45.29A1.1,1.1,0,0,1,21.987,46.39Zm-16.573-2.2H20.887V34.448a1.416,1.416,0,0,0-1.415-1.415H5.414Z" transform="translate(-3.215 -4.883)"/><path class="cls-3" d="M12.644,33.033H4.314a1.1,1.1,0,0,1-1.1-1.1V25.875a1.1,1.1,0,1,1,2.2,0v4.958h6.131V12.022a1.466,1.466,0,0,0-1.464-1.463h-3.2a1.465,1.465,0,0,0-1.464,1.463v2.6a1.1,1.1,0,1,1-2.2,0v-2.6A3.667,3.667,0,0,1,6.878,8.358h3.2a3.668,3.668,0,0,1,3.663,3.664V31.933A1.1,1.1,0,0,1,12.644,33.033Z" transform="translate(-3.215 -4.883)"/><path class="cls-3" d="M4.314,22.35a1.1,1.1,0,0,1-1.1-1.1V17.917a1.1,1.1,0,1,1,2.2,0V21.25A1.1,1.1,0,0,1,4.314,22.35Z" transform="translate(-3.215 -4.883)"/><path class="cls-3" d="M26.2,25.726H20.465a1.1,1.1,0,0,1,0-2.2H26.2a1.1,1.1,0,0,1,0,2.2Z" transform="translate(-3.215 -4.883)"/><path class="cls-3" d="M40.8,46.39H18.667a1.1,1.1,0,0,1,0-2.2H40.8a1.1,1.1,0,0,1,0,2.2Z" transform="translate(-3.215 -4.883)"/><path class="cls-3" d="M33.076,46.39a1.1,1.1,0,0,1-1.1-1.1V30.424a1.1,1.1,0,1,1,2.2,0V45.29A1.1,1.1,0,0,1,33.076,46.39Z" transform="translate(-3.215 -4.883)"/><path class="cls-3" d="M36.344,32.024A12,12,0,1,1,40.022,8.609a1.1,1.1,0,0,1-.674,2.094,9.8,9.8,0,1,0,5.33,4.178,1.1,1.1,0,0,1,1.871-1.158,12,12,0,0,1-10.2,18.3Z" transform="translate(-3.215 -4.883)"/><path class="cls-3" d="M33.406,21.566a2.448,2.448,0,0,1-.162.9,1.777,1.777,0,0,1-.724.9,2.192,2.192,0,0,1-1.2.324,2.127,2.127,0,0,1-1.2-.342,1.9,1.9,0,0,1-.742-.927,2.531,2.531,0,0,1-.145-.756.1.1,0,0,1,.109-.108H30.4a.1.1,0,0,1,.108.108,1.671,1.671,0,0,0,.1.441.723.723,0,0,0,.266.365.734.734,0,0,0,.436.13A.692.692,0,0,0,32,22.16a1.476,1.476,0,0,0,.126-.63,1.535,1.535,0,0,0-.136-.693.713.713,0,0,0-.693-.423.439.439,0,0,0-.207.059,2.573,2.573,0,0,0-.26.166.125.125,0,0,1-.073.027.086.086,0,0,1-.081-.054l-.531-.747a.11.11,0,0,1-.017-.063.118.118,0,0,1,.036-.09l1.43-1.251a.037.037,0,0,0,.014-.036c0-.012-.014-.018-.031-.018H29.465a.1.1,0,0,1-.078-.032.107.107,0,0,1-.031-.076v-.873a.107.107,0,0,1,.031-.076.108.108,0,0,1,.078-.032h3.752a.106.106,0,0,1,.077.032.1.1,0,0,1,.031.076v.99a.189.189,0,0,1-.063.135l-1.178,1.08a.036.036,0,0,0-.014.036c0,.012.017.018.04.018a1.469,1.469,0,0,1,1.116.927A2.373,2.373,0,0,1,33.406,21.566Z" transform="translate(-3.215 -4.883)"/><path class="cls-3" d="M38.33,21.6a2.451,2.451,0,0,1-.171.936,1.833,1.833,0,0,1-.73.837,2.4,2.4,0,0,1-2.367-.013,1.808,1.808,0,0,1-.728-.887,2.291,2.291,0,0,1-.162-.882V18.884a1.48,1.48,0,0,1,.256-.859,1.65,1.65,0,0,1,.715-.576,2.574,2.574,0,0,1,1.054-.2,2.486,2.486,0,0,1,1.035.2,1.609,1.609,0,0,1,.7.567,1.46,1.46,0,0,1,.247.841v.252a.106.106,0,0,1-.107.108H37.015a.106.106,0,0,1-.107-.108v-.081a.676.676,0,0,0-.2-.495.694.694,0,0,0-.513-.2.755.755,0,0,0-.545.2.684.684,0,0,0-.211.517V19.9c0,.018.006.029.018.032a.039.039,0,0,0,.036-.014,1.457,1.457,0,0,1,.98-.315,1.9,1.9,0,0,1,.968.248,1.719,1.719,0,0,1,.671.715A2.2,2.2,0,0,1,38.33,21.6Zm-1.27.018a1.126,1.126,0,0,0-.143-.594.729.729,0,0,0-.658-.36.69.69,0,0,0-.674.369,1.2,1.2,0,0,0-.135.6,1.179,1.179,0,0,0,.117.549.78.78,0,0,0,1.358,0A1.117,1.117,0,0,0,37.06,21.62Z" transform="translate(-3.215 -4.883)"/><path class="cls-3" d="M39.617,23.164a1.991,1.991,0,0,1-.576-1.508V19.28a1.951,1.951,0,0,1,.576-1.485,2.174,2.174,0,0,1,1.565-.549,2.2,2.2,0,0,1,1.572.549,1.95,1.95,0,0,1,.58,1.485v2.376a1.99,1.99,0,0,1-.58,1.508,2.187,2.187,0,0,1-1.572.553A2.163,2.163,0,0,1,39.617,23.164Zm2.209-.783a.915.915,0,0,0,.239-.662V19.244a.912.912,0,0,0-.239-.661.848.848,0,0,0-.644-.248.834.834,0,0,0-.633.248.909.909,0,0,0-.24.661v2.475a.911.911,0,0,0,.24.662.837.837,0,0,0,.633.247A.851.851,0,0,0,41.826,22.381Z" transform="translate(-3.215 -4.883)"/><path class="cls-3" d="M36.345,13.708a1.1,1.1,0,0,1-.652-1.987L38.717,9.5,36.689,6.617a1.1,1.1,0,1,1,1.8-1.266l2.649,3.766a1.1,1.1,0,0,1-.248,1.519L37,13.494A1.1,1.1,0,0,1,36.345,13.708Z" transform="translate(-3.215 -4.883)"/></svg>