<svg id="Layer_1" data-name="Layer 1" xmlns="http://www.w3.org/2000/svg" viewBox="0 0 48.729 34.267"><defs><style>.cls-1{opacity:0.7;}.cls-2{fill:#ffcc05;}.cls-3{fill:#494949;}</style></defs><title>Vector Smart Object2</title><g class="cls-1"><path class="cls-2" d="M1.937,31.467a13.7,13.7,0,0,1,27.41,0" transform="translate(-0.085 -4.135)"/></g><path class="cls-3" d="M16.409,32.567H3.609A3.528,3.528,0,0,1,.085,29.042V23.114a1.1,1.1,0,1,1,2.2,0v5.928a1.327,1.327,0,0,0,1.325,1.325h12.8a1.1,1.1,0,0,1,0,2.2Z" transform="translate(-0.085 -4.135)"/><path class="cls-3" d="M1.184,11.365a1.1,1.1,0,0,1-1.1-1.1v-2.6A3.529,3.529,0,0,1,3.609,4.135H38.447a3.383,3.383,0,0,1,3.38,3.38V8.679a1.1,1.1,0,1,1-2.2,0V7.515a1.183,1.183,0,0,0-1.181-1.18H3.609A1.327,1.327,0,0,0,2.284,7.661v2.6A1.1,1.1,0,0,1,1.184,11.365Z" transform="translate(-0.085 -4.135)"/><path class="cls-3" d="M40.727,30.635a1.1,1.1,0,0,1-1.1-1.1V26.592a1.1,1.1,0,1,1,2.2,0v2.943A1.1,1.1,0,0,1,40.727,30.635Z" transform="translate(-0.085 -4.135)"/><path class="cls-3" d="M45.8,26.9H18.329a3.024,3.024,0,0,1-3.02-3.02V10.95a3.024,3.024,0,0,1,3.02-3.02H45.91a2.908,2.908,0,0,1,2.9,2.905V23.877A3.023,3.023,0,0,1,45.8,26.9ZM18.329,10.13a.822.822,0,0,0-.821.82V23.877a.822.822,0,0,0,.821.82H45.8a.821.821,0,0,0,.82-.82V10.835a.705.705,0,0,0-.705-.7Z" transform="translate(-0.085 -4.135)"/><path class="cls-3" d="M45.8,38.4H18.329a2.926,2.926,0,0,1-3.02-2.813v-3.5a2.926,2.926,0,0,1,3.02-2.813H45.91a2.816,2.816,0,0,1,2.9,2.711v3.607A2.925,2.925,0,0,1,45.8,38.4Zm-27.466-6.93c-.445,0-.821.28-.821.612v3.5c0,.332.376.613.821.613H45.8c.444,0,.82-.281.82-.613V31.982c0-.272-.33-.51-.705-.51Z" transform="translate(-0.085 -4.135)"/><path class="cls-3" d="M1.184,19.967a1.1,1.1,0,0,1-1.1-1.1V14.8a1.1,1.1,0,1,1,2.2,0v4.071A1.1,1.1,0,0,1,1.184,19.967Z" transform="translate(-0.085 -4.135)"/><path class="cls-3" d="M33.8,16.95H22.7a1.1,1.1,0,1,1,0-2.2H33.8a1.1,1.1,0,1,1,0,2.2Z" transform="translate(-0.085 -4.135)"/><path class="cls-3" d="M28.252,21.057H22.7a1.1,1.1,0,0,1,0-2.2h5.549a1.1,1.1,0,0,1,0,2.2Z" transform="translate(-0.085 -4.135)"/></svg>