<?xml version="1.0" encoding="utf-8"?>
<!-- Generator: Adobe Illustrator 22.1.0, SVG Export Plug-In . SVG Version: 6.00 Build 0)  -->
<svg version="1.1" xmlns="http://www.w3.org/2000/svg" xmlns:xlink="http://www.w3.org/1999/xlink" x="0px" y="0px"
	 viewBox="0 0 151.4 116.3" style="enable-background:new 0 0 151.4 116.3;" xml:space="preserve">
<style type="text/css">
	.st0{opacity:0.7;}
	.st1{fill:#FFCC05;}
	.st2{opacity:0.2;}
	.st3{fill:#6161FF;}
	.st4{opacity:0.2;fill:#6161FF;enable-background:new    ;}
	.st5{fill:#494949;}
</style>
<g class="st0">
	<path class="st1" d="M95.5,21.2c10.4,9.6,11.1,25.7,1.5,36.1c-9.6,10.4-25.7,11.1-36.1,1.5l0,0L95.5,21.2z"/>
</g>
<g class="st2">
	<path class="st3" d="M141.3,25.2c-5.1-0.4-8.9-4.9-8.4-10s4.9-8.9,10-8.4c5.1,0.4,8.9,4.9,8.4,10c0,0,0,0,0,0
		C150.9,21.9,146.4,25.7,141.3,25.2z M142.6,10.8c-2.9-0.2-5.4,1.9-5.7,4.8c-0.2,2.9,1.9,5.4,4.8,5.7c2.9,0.2,5.4-1.9,5.7-4.8
		C147.6,13.5,145.5,11,142.6,10.8z"/>
</g>
<g class="st2">
	<path class="st3" d="M20.5,90.7c-6.7-0.6-11.6-6.4-11-13.1s6.4-11.6,13.1-11s11.6,6.4,11,13.1c0,0,0,0,0,0
		C33.1,86.3,27.2,91.3,20.5,90.7z M22.2,70.5c-4.5-0.4-8.4,2.9-8.8,7.4c-0.4,4.5,2.9,8.4,7.4,8.8c4.5,0.4,8.4-2.9,8.8-7.4
		c0,0,0,0,0,0C30,74.9,26.7,70.9,22.2,70.5z"/>
</g>
<g class="st2">
	<path class="st3" d="M12,28C4.8,27.4-0.6,21.1,0,13.9C0.5,8.3,4.4,3.7,9.8,2.3l0,0c0.2-0.1,0.4-0.1,0.6-0.1c0.1,0,0.2,0,0.3-0.1
		c1.1-0.3,2.2,0.4,2.4,1.4c0,0,0,0,0,0l5.7,21.4c0.3,1.1-0.4,2.2-1.4,2.4c-0.1,0-0.2,0.1-0.3,0.1c-0.2,0.1-0.4,0.1-0.6,0.2
		C15,28,13.5,28.2,12,28z M9.8,6.5c-4.7,1.9-7,7.2-5.1,11.8c1.6,3.9,5.6,6.3,9.8,5.7L9.8,6.5z"/>
</g>
<path class="st4" d="M123.9,78.6c-0.1-0.5,0.1-1.1,0.4-1.5l13.9-17.8c0.7-0.9,1.9-1.1,2.8-0.4c0.9,0.7,1.1,1.9,0.4,2.8
	c0,0,0,0,0,0.1l-13.9,17.8c-0.7,0.9-1.9,1-2.8,0.3C124.2,79.6,124,79.1,123.9,78.6L123.9,78.6z"/>
<g>
	<path class="st5" d="M79.5,56.6V46.2c0-2,1.6-3.6,3.6-3.6h14.6c0.6,0,1.1,0.5,1.1,1.1c0,0,0,0,0,0v12.9c0,0.6-0.5,1.1-1.1,1.1h-17
		C80,57.8,79.5,57.3,79.5,56.6L79.5,56.6z M96.5,44.9H83.1c-0.7,0-1.3,0.6-1.3,1.3v9.3h14.7L96.5,44.9z"/>
	<path class="st5" d="M88.5,43.8V24.6c0-2,1.6-3.6,3.6-3.6h3.1c2,0,3.6,1.6,3.6,3.6v19.2c0,0.6-0.5,1.1-1.1,1.1c0,0,0,0,0,0h-8
		C89,44.9,88.5,44.4,88.5,43.8C88.5,43.8,88.5,43.8,88.5,43.8z M96.5,24.6c0-0.7-0.6-1.3-1.3-1.3h-3.1c-0.7,0-1.3,0.6-1.3,1.3v18
		h5.7V24.6z"/>
	<path class="st5" d="M57.2,37.1h24.3c0.6,0,1.1-0.5,1.1-1.2c0-0.6-0.5-1.1-1.1-1.1H57.2c-0.6,0-1.1,0.5-1.1,1.2
		C56.1,36.6,56.6,37,57.2,37.1z"/>
	<path class="st5" d="M64.5,57.8h9.9c0.6,0,1.1-0.5,1.1-1.2c0-0.6-0.5-1.1-1.1-1.1h-9.9c-0.6,0-1.1,0.5-1.1,1.2
		C63.4,57.3,63.9,57.8,64.5,57.8z"/>
	<path class="st5" d="M69.4,57.8c0.6,0,1.1-0.5,1.1-1.1V36.3c0-0.6-0.5-1.1-1.2-1.1c-0.6,0-1.1,0.5-1.1,1.1v20.4
		C68.2,57.3,68.8,57.8,69.4,57.8C69.4,57.8,69.4,57.8,69.4,57.8z"/>
	<path class="st5" d="M77.7,33.8h-8.5c-0.4,0-0.8-0.2-1-0.6L63.9,25c-0.3-0.6-0.1-1.3,0.5-1.5c0.6-0.3,1.3-0.1,1.5,0.5l3.9,7.5h7.8
		c0.6,0,1.1,0.5,1.1,1.2C78.8,33.3,78.3,33.8,77.7,33.8L77.7,33.8z"/>
</g>
<path class="st3" d="M87.7,77.3c-21,5.6-42.5-6.8-48.2-27.8C33.9,28.6,46.3,7,67.3,1.4s42.5,6.8,48.2,27.8
	c3.7,13.8-0.4,28.6-10.7,38.5C99.9,72.3,94.1,75.6,87.7,77.3z M68.3,5.2c-18.9,5.1-30.1,24.5-25.1,43.4s24.5,30.1,43.4,25.1
	s30.1-24.5,25.1-43.4C107.6,15.1,93.9,4.4,78.1,4C74.8,4,71.5,4.4,68.3,5.2z"/>
<path class="st3" d="M103,87.6c-0.7,0-1.4-0.4-1.8-1l-3.9-7c-0.6-1-0.2-2.2,0.7-2.7c1-0.6,2.2-0.2,2.7,0.7c0,0,0,0.1,0.1,0.1l3.9,7
	c0.5,1,0.2,2.2-0.8,2.7C103.7,87.6,103.3,87.6,103,87.6L103,87.6z"/>
<path class="st3" d="M105.6,90.3L105.6,90.3c2-1.1,4.6-0.4,5.7,1.7l9.9,18c1.1,2,0.4,4.6-1.7,5.7l0,0c-2,1.1-4.6,0.4-5.7-1.7
	l-9.9-18C102.8,94,103.6,91.5,105.6,90.3z"/>
</svg>
