<svg id="Layer_1" data-name="Layer 1" xmlns="http://www.w3.org/2000/svg" viewBox="0 0 22 22"><defs><style>.cls-1{fill:#ffda66;}.cls-2{fill:#494949;}</style></defs><title>Iconset for Detail page</title><path class="cls-1" d="M2.323,7.713a8.655,8.655,0,0,0,17.31,0V6.989H2.323Z"/><path class="cls-2" d="M.832,10.168a10.168,10.168,0,0,1,20.336,0,.416.416,0,0,1-.416.416H1.248A.416.416,0,0,1,.832,10.168Zm19.494-.416a9.336,9.336,0,0,0-18.653,0Z"/><path class="cls-2" d="M6.481,6.989h9.038a.416.416,0,1,1,0,.832H6.481a.416.416,0,0,1,0-.832Z"/><path class="cls-2" d="M11.679,13.447a2.168,2.168,0,0,1,2.166-2.166.417.417,0,0,1,0,.833,1.333,1.333,0,1,0,0,2.666,2.166,2.166,0,0,1,0,4.331.417.417,0,0,1,0-.833,1.333,1.333,0,1,0,0-2.665A2.169,2.169,0,0,1,11.679,13.447Z"/><path class="cls-2" d="M9.325,17.873a1.655,1.655,0,0,1,1.653-1.652.417.417,0,0,1,0,.833.82.82,0,1,0,0,1.64,1.653,1.653,0,0,1,0,3.306.416.416,0,0,1,0-.832.821.821,0,0,0,0-1.642A1.655,1.655,0,0,1,9.325,17.873Z"/><path class="cls-2" d="M5.938,13.824a1.352,1.352,0,0,1,1.349-1.35.417.417,0,1,1,0,.833.517.517,0,0,0,0,1.034,1.35,1.35,0,1,1,0,2.7.417.417,0,0,1,0-.833.517.517,0,0,0,0-1.034A1.351,1.351,0,0,1,5.938,13.824Z"/></svg>