<svg width="512" height="512" viewBox="0 0 512 512" fill="none" xmlns="http://www.w3.org/2000/svg">
<g clip-path="url(#clip0_6483_251)">
<circle cx="256" cy="512" r="200" fill="#FFE785"/>
<path d="M504 491.027H431.674C430.226 485.128 427.194 479.737 422.906 475.435C418.618 471.133 413.236 468.084 407.342 466.617L389.949 462.266L411.934 355.643C416.152 335.156 404.527 314.295 384.402 307.34C335.214 290.27 352.038 297.827 306.791 287.494C322.536 277.924 344.225 264.228 350.993 257.46C358.921 249.521 383.047 225.362 383.047 202.254C383.047 195.74 381.079 188.563 377.192 180.854L503.493 54.5527C508.979 49.068 512 41.7744 512 34.0169C512 8.30639 480.667 -4.76385 462.423 13.4811C461.68 14.2238 461.09 15.1055 460.688 16.076C460.286 17.0465 460.079 18.0867 460.079 19.1373C460.079 20.1878 460.286 21.228 460.688 22.1985C461.09 23.169 461.68 24.0507 462.423 24.7934C463.923 26.2934 465.957 27.1361 468.079 27.1361C470.2 27.1361 472.235 26.2934 473.735 24.7934C481.932 16.5979 496.001 22.4726 496.001 34.0159C496.005 35.7293 495.67 37.4266 495.014 39.0096C494.359 40.5927 493.396 42.03 492.181 43.2383L344.987 190.433C339.933 195.486 343.582 204.089 350.644 204.089C354.983 204.089 356.242 201.805 365.068 192.979C366.361 196.41 367.048 199.546 367.048 202.254C367.048 213.194 357.838 227.965 339.633 246.194C333.155 252.672 303.732 270.891 284.071 282.444L257.008 279.062C252.622 278.509 248.626 281.622 248.078 286.007C247.815 288.112 248.399 290.236 249.702 291.91C251.004 293.585 252.919 294.673 255.024 294.937L284.32 298.599C352.356 315.282 325.585 304.041 379.29 322.502C391.599 326.785 398.896 339.645 396.267 352.413L386.094 401.752H359.915L364.138 364.731C364.646 360.276 361.387 356.264 356.913 355.858C261.439 347.197 270.39 357.712 237.629 346.308C235.481 345.583 232.221 344.315 229.935 343.132C210.378 333.008 206.173 303.692 212.352 287.21C219.928 281.848 227.475 275.644 234.791 268.755C236.336 267.301 237.239 265.292 237.303 263.171C237.367 261.051 236.585 258.991 235.131 257.447C233.676 255.902 231.668 254.999 229.547 254.935C227.426 254.871 225.367 255.652 223.823 257.107C215.573 264.874 205.262 272.857 204.609 273.008C202.595 273.477 202.035 274.138 194.075 279.366C174.185 292.436 178.043 289.896 74.8943 376.598L12.4199 418.279C1.48258 425.576 -2.83816 439.235 1.91256 451.495C14.8628 484.913 14.8438 485.919 18.4496 491.027H8.0292C5.90759 491.027 3.87288 491.87 2.37268 493.37C0.872475 494.87 0.0296699 496.905 0.0296699 499.027C0.0296699 501.148 0.872475 503.183 2.37268 504.683C3.87288 506.183 5.90759 507.026 8.0292 507.026H504C506.122 507.026 508.156 506.183 509.657 504.683C511.157 503.183 512 501.148 512 499.027C512 496.905 511.157 494.87 509.657 493.37C508.156 491.87 506.122 491.027 504 491.027ZM193.776 298.828C192.491 319.059 200.166 341.722 216.888 353.811C187.141 367.652 147.225 383.535 98.2629 408.787L89.2204 385.455C168.476 318.825 181.722 307.274 193.776 298.828ZM21.2994 431.589L75.8392 395.201L84.2037 416.783L47.0739 440.43C45.7419 441.278 44.6908 442.502 44.053 443.947C43.4153 445.392 43.2194 446.993 43.4901 448.549L50.8707 490.963C41.5862 491.634 32.5358 486.243 29.001 477.122L16.8307 445.715C14.8098 440.5 16.6477 434.691 21.2994 431.589ZM60.1661 451.06C96.54 427.896 101.982 422.06 192.685 382.171C209.039 374.98 223.307 368.695 235.706 362.515C268.551 372.945 266.209 364.141 347.31 371.072C335.668 473.109 338.568 453.253 333.772 472.435C332.189 478.766 332.861 485.282 335.576 491.026H67.1207L60.1661 451.06ZM360.779 491.027C353.081 491.027 347.422 483.797 349.293 476.317C354.421 455.805 352.191 469.421 358.087 417.752H382.792L372.731 466.55C372.314 468.571 372.694 470.675 373.793 472.422C374.891 474.169 376.622 475.424 378.624 475.925L403.461 482.138C405.86 482.735 408.104 483.836 410.043 485.369C411.983 486.902 413.573 488.831 414.707 491.027H360.779Z" fill="#494949"/>
<path d="M277.974 85.7648C279.109 101.485 285.553 116.049 296.278 127.616C289.11 156.994 278.042 184.05 263.331 208.088C262.782 208.984 262.416 209.979 262.252 211.017C262.088 212.054 262.13 213.114 262.376 214.136C262.622 215.157 263.066 216.12 263.684 216.969C264.302 217.819 265.082 218.539 265.978 219.087C269.768 221.408 274.684 220.185 276.977 216.44C291.265 193.095 302.304 167.115 309.868 139.063C313.858 141.652 318.096 143.836 322.52 145.583L326.98 148.925L315.231 160.674C310.176 165.728 313.825 174.331 320.887 174.331C321.938 174.332 322.979 174.126 323.95 173.724C324.92 173.322 325.802 172.732 326.544 171.988L429.099 69.4328C444.179 54.3527 452.485 34.3028 452.485 12.9761C452.485 10.8545 451.642 8.81977 450.142 7.31957C448.642 5.81937 446.607 4.97656 444.485 4.97656C442.364 4.97656 440.329 5.81937 438.829 7.31957C437.328 8.81977 436.486 10.8545 436.486 12.9761C436.486 30.0291 429.845 46.0622 417.787 58.1204L383.049 92.8584C383.049 74.2805 384.416 63.6801 376.301 49.391C362.548 25.1534 331.411 16.2279 306.277 28.8732C294.241 8.30137 262.904 11.1122 254.953 33.6209L249.588 48.863C242.99 67.5299 257.766 86.8968 277.974 85.7648ZM359.819 53.4257C352.3 63.9131 340.154 70.0668 327.153 70.2427C315.477 70.4057 316.264 86.2608 326.58 86.2608C341.582 86.2608 356.09 80.4081 366.733 69.9088C367.159 73.0246 367.048 71.0427 367.048 108.855L341.703 134.2C331.271 132.778 321.831 128.57 314.221 122.508L320.953 105.8C322.758 101.32 320.213 96.1362 315.302 95.0173C311.537 94.1573 307.599 96.1242 306.111 99.82L302.26 109.379C296.763 100.901 293.771 91.0985 293.771 80.7391C293.771 79.7212 293.658 79.9962 294.336 79.4462C298.596 75.9954 301.518 71.5527 303.099 67.0919C308.461 51.8738 309.527 49.5929 309.927 45.1922C325.965 34.7478 347.989 38.0326 359.819 53.4257ZM264.674 54.1827L270.039 38.9396C271.784 34.0019 276.571 30.901 281.706 30.901C290.104 30.901 296.099 38.8186 293.377 46.5371C288.164 61.3343 287.82 65.178 282.703 68.1079C272.477 73.8765 261.097 64.3121 264.674 54.1827ZM246.04 245.632C249.476 248.394 254.54 247.825 257.314 244.375C257.721 243.869 258.128 243.362 258.535 242.846C259.849 241.18 260.447 239.06 260.198 236.954C259.949 234.847 258.874 232.925 257.208 231.611C256.383 230.961 255.439 230.479 254.428 230.193C253.417 229.908 252.359 229.824 251.316 229.947C250.273 230.071 249.264 230.398 248.347 230.911C247.431 231.425 246.624 232.113 245.974 232.938C245.598 233.415 245.222 233.882 244.789 234.42C242.021 237.864 242.597 242.864 246.04 245.632Z" fill="#494949"/>
</g>
<defs>
<clipPath id="clip0_6483_251">
<rect width="512" height="512" fill="white"/>
</clipPath>
</defs>
</svg>
