<svg xmlns="http://www.w3.org/2000/svg" viewBox="0 0 17.26 17.61"><defs><style>.cls-1{fill:#ffda66;}.cls-2{fill:#494949;}</style></defs><g id="Layer_2" data-name="Layer 2"><g id="Layer_1-2" data-name="Layer 1"><path class="cls-1" d="M1,17.23A7.19,7.19,0,0,0,1,2.85H.37V17.23Z"/><path class="cls-2" d="M9.56,17.61H1.47A1.48,1.48,0,0,1,0,16.13V1.48A1.47,1.47,0,0,1,1.47,0H9.56A1.48,1.48,0,0,1,11,1.48V7.81a.38.38,0,0,1-.38.38.37.37,0,0,1-.37-.38V1.48A.73.73,0,0,0,9.56.75H1.47a.73.73,0,0,0-.72.73V16.13a.73.73,0,0,0,.72.73H9.56a.73.73,0,0,0,.73-.73v-.28a.37.37,0,0,1,.37-.37.38.38,0,0,1,.38.37v.28A1.49,1.49,0,0,1,9.56,17.61Z"/><circle class="cls-2" cx="5.52" cy="15.63" r="0.68"/><path class="cls-2" d="M11.92,16.44a4.13,4.13,0,0,1-1.65-.34L6.58,14.52a1.4,1.4,0,0,1,1-2.63l.86.29L5.63,6.76a1.42,1.42,0,0,1-.09-1.07A1.4,1.4,0,0,1,7.28,4.8a1.41,1.41,0,0,1,.81.69l1.2,2.34a1.45,1.45,0,0,1,.39-.3,1.41,1.41,0,0,1,1.43.09,1.36,1.36,0,0,1,.51-.44,1.42,1.42,0,0,1,1.07-.09,1.22,1.22,0,0,1,.36.18,1.36,1.36,0,0,1,.5-.45,1.41,1.41,0,0,1,1.87.6h0l1.43,2.82a3.73,3.73,0,0,1,.23,2.84,3.64,3.64,0,0,1-1.84,2.16L13.82,16A4.1,4.1,0,0,1,11.92,16.44ZM7.13,12.57a.66.66,0,0,0-.62.87.62.62,0,0,0,.37.39l3.68,1.58a3.43,3.43,0,0,0,2.92-.1l1.42-.72a3,3,0,0,0,1.28-4L14.75,7.77a.64.64,0,0,0-.85-.28.65.65,0,0,0-.35.52.37.37,0,0,1-.3.33.36.36,0,0,1-.4-.18.65.65,0,0,0-.4-.35.63.63,0,0,0-.84.55.37.37,0,0,1-.3.34.38.38,0,0,1-.41-.2.64.64,0,0,0-1.22.21A.38.38,0,0,1,9,8.85l-1.55-3a.65.65,0,0,0-.37-.32.62.62,0,0,0-.48,0,.58.58,0,0,0-.31.36.62.62,0,0,0,0,.5l3,5.91a.52.52,0,0,1-.07.58.49.49,0,0,1-.5.17L7.32,12.6Z"/><path class="cls-2" d="M14.07,10.1a.38.38,0,0,1-.33-.2l-.9-1.75A.39.39,0,0,1,13,7.64a.38.38,0,0,1,.51.17l.9,1.75a.37.37,0,0,1-.17.5A.33.33,0,0,1,14.07,10.1Z"/><path class="cls-2" d="M12.14,10.45a.38.38,0,0,1-.34-.2L10.91,8.5a.37.37,0,1,1,.66-.34l.9,1.75a.37.37,0,0,1-.16.5A.35.35,0,0,1,12.14,10.45Z"/><path class="cls-2" d="M10.21,10.83a.38.38,0,0,1-.33-.2L9,8.85a.38.38,0,0,1,.16-.5.37.37,0,0,1,.51.16l.91,1.78a.37.37,0,0,1-.17.5A.33.33,0,0,1,10.21,10.83Z"/></g></g></svg>