<svg xmlns="http://www.w3.org/2000/svg" viewBox="0 0 13.43 14.89"><defs><style>.cls-1{fill:#ffda66;}.cls-2{fill:#494949;}</style></defs><g id="Layer_2" data-name="Layer 2"><g id="Layer_1-2" data-name="Layer 1"><path class="cls-1" d="M13.06,9.53a5,5,0,0,0-9.94,0V10h9.94Z"/><path class="cls-2" d="M13.06,10.32H.41A.43.43,0,0,1,0,9.92V9.71a6.91,6.91,0,0,1,6.55-7,6.75,6.75,0,0,1,4.86,1.91,6.67,6.67,0,0,1,2,4.81V10A.38.38,0,0,1,13.06,10.32ZM.75,9.57H12.68V9.42a6,6,0,0,0-6.12-6A6.15,6.15,0,0,0,.75,9.57Z"/><path class="cls-2" d="M6.72,3.45a.38.38,0,0,1-.38-.37A2.32,2.32,0,0,0,4,.75H.38A.38.38,0,0,1,0,.38.38.38,0,0,1,.38,0H4A3.08,3.08,0,0,1,7.09,3.08.38.38,0,0,1,6.72,3.45Z"/><path class="cls-2" d="M1.39,13A.37.37,0,0,1,1,12.58V11.34A.36.36,0,0,1,1.39,11a.37.37,0,0,1,.38.37v1.24A.38.38,0,0,1,1.39,13Z"/><path class="cls-2" d="M12,13a.37.37,0,0,1-.37-.37V11.34A.36.36,0,0,1,12,11a.37.37,0,0,1,.38.37v1.24A.38.38,0,0,1,12,13Z"/><path class="cls-2" d="M3.24,14.89a.38.38,0,0,1-.37-.38V13.28a.38.38,0,1,1,.75,0v1.23A.38.38,0,0,1,3.24,14.89Z"/><path class="cls-2" d="M4.93,13a.38.38,0,0,1-.38-.37V11.34A.37.37,0,0,1,4.93,11a.36.36,0,0,1,.37.37v1.24A.37.37,0,0,1,4.93,13Z"/><path class="cls-2" d="M10.57,14.89a.37.37,0,0,1-.37-.38V13.28a.37.37,0,0,1,.37-.38.38.38,0,0,1,.38.38v1.23A.38.38,0,0,1,10.57,14.89Z"/><path class="cls-2" d="M8.72,13a.38.38,0,0,1-.38-.37V11.34A.37.37,0,0,1,8.72,11a.36.36,0,0,1,.37.37v1.24A.37.37,0,0,1,8.72,13Z"/><path class="cls-2" d="M7,14.89a.38.38,0,0,1-.37-.38V13.28a.38.38,0,1,1,.75,0v1.23A.38.38,0,0,1,7,14.89Z"/></g></g></svg>