<svg xmlns="http://www.w3.org/2000/svg" viewBox="0 0 18.58 13.68"><defs><style>.cls-1{fill:#ffda66;}.cls-2{fill:#494949;}</style></defs><g id="Layer_2" data-name="Layer 2"><g id="Layer_1-2" data-name="Layer 1"><path class="cls-1" d="M.62,2.37a4.6,4.6,0,0,1,0,9.2"/><path class="cls-2" d="M9.6,12.34H1.3A1.3,1.3,0,0,1,0,11V2.9A1.3,1.3,0,0,1,1.3,1.6h9.61a.38.38,0,0,1,0,.75H1.3a.55.55,0,0,0-.55.55V11a.55.55,0,0,0,.55.55H9.6a.38.38,0,1,1,0,.75Z"/><path class="cls-2" d="M7.43,6.4H3.92a.38.38,0,1,1,0-.75H7.43a.38.38,0,1,1,0,.75Z"/><path class="cls-2" d="M7.39,5.19H3.88a.38.38,0,1,1,0-.75H7.39a.38.38,0,1,1,0,.75Z"/><path class="cls-2" d="M6,9.5a.37.37,0,0,1-.32-.17L4.57,7.68a.38.38,0,0,1-.06-.29.39.39,0,0,1,.17-.23L4.92,7a1.31,1.31,0,0,0,.66-1.92.45.45,0,0,1,0-.19.38.38,0,0,1,.4-.38.36.36,0,0,1,.35.3A2,2,0,0,1,5.4,7.59l.87,1.33a.38.38,0,0,1-.11.52A.36.36,0,0,1,6,9.5Z"/><path class="cls-2" d="M17.17,13.68l-.15,0-1.33-.35a.7.7,0,0,1-.48-.42L14,10a.37.37,0,0,1,.07-.4.36.36,0,0,1,.39-.1.81.81,0,0,0,.29,0,1.09,1.09,0,0,0,1-.58.48.48,0,0,1,.44-.22,1.07,1.07,0,0,0,.71-.09.35.35,0,0,1,.3,0,.38.38,0,0,1,.22.21l1.09,2.68a.64.64,0,0,1-.07.64l-.68,1.16A.74.74,0,0,1,17.17,13.68ZM15.9,12.59l1.3.34.63-1.15-.95-2.3a1.59,1.59,0,0,1-.58,0A1.87,1.87,0,0,1,15,10.3Zm0,.05h0Z"/><path class="cls-2" d="M10.63,13.68a.7.7,0,0,1-.6-.36l-.7-1.17a.67.67,0,0,1-.05-.63l1.09-2.67a.4.4,0,0,1,.22-.22.42.42,0,0,1,.31,0,1.07,1.07,0,0,0,.67.09A.52.52,0,0,1,12,9a1.19,1.19,0,0,0,1.32.57.37.37,0,0,1,.45.5L12.59,12.9a.7.7,0,0,1-.46.41l-1.33.35h0Zm.07-.39h0Zm.23-3.82-1,2.34.69,1.11,1.27-.34.92-2.28a1.85,1.85,0,0,1-1.38-.78A1.94,1.94,0,0,1,10.93,9.47Z"/><path class="cls-2" d="M14.73,9a1,1,0,0,1-.54-.17L14,8.67a.17.17,0,0,0-.19,0l-.18.13a1,1,0,0,1-1.35-.33L12.2,8.3A.17.17,0,0,0,12,8.2h0a.23.23,0,0,0,.08,0l-.31.11h-.14a.92.92,0,0,1-1-.86l0-.21a.16.16,0,0,0-.13-.16l-.19,0a1,1,0,0,1-.59-.49,1,1,0,0,1,0-.76l.08-.2a.16.16,0,0,0,0-.2L9.6,5.21a1,1,0,0,1-.31-.71.9.9,0,0,1,.32-.68l.15-.14a.18.18,0,0,0,.06-.19l-.09-.21a.91.91,0,0,1,0-.74A.92.92,0,0,1,10.33,2l.23,0a.17.17,0,0,0,.11-.16l0-.22a.92.92,0,0,1,.92-.87l.16,0h0l.21,0c.09,0,.15,0,.17-.08l.11-.19A.94.94,0,0,1,13.6.23l.19.14a.17.17,0,0,0,.19,0L14.16.2a.9.9,0,0,1,1.38.3l.1.17a.16.16,0,0,0,.15.1L16,.72l.16,0a.93.93,0,0,1,.92.88v.21a.16.16,0,0,0,.13.16l.2.05a.94.94,0,0,1,.61,1.25l-.08.2a.18.18,0,0,0,0,.2l.18.19a.89.89,0,0,1,.3.7.9.9,0,0,1-.32.68L18,5.35a.2.2,0,0,0-.05.2l.08.21A.91.91,0,0,1,17.46,7l-.22.06a.16.16,0,0,0-.12.16v.22a.94.94,0,0,1-.92.87l-.16,0h0l-.22,0a.16.16,0,0,0-.17.07l-.11.19A.91.91,0,0,1,14.73,9Zm-.81-1.09a.93.93,0,0,1,.53.17l.19.14c.07.06.17.06.24-.06L15,8a.92.92,0,0,1,.81-.47h.12l.25,0,.1,0s.09-.09.1-.18V7.18A.93.93,0,0,1,17,6.34l.22-.06a.18.18,0,0,0,.11-.1.19.19,0,0,0,0-.13l-.08-.21a.92.92,0,0,1,.24-1l.16-.15a.15.15,0,0,0,.06-.12.17.17,0,0,0-.06-.14l0,0-.16-.17a.91.91,0,0,1-.21-1L17.37,3a.23.23,0,0,0,0-.15.21.21,0,0,0-.11-.09l-.2,0a1,1,0,0,1-.68-.85V1.62a.18.18,0,0,0-.17-.17L16,1.5h0l-.16,0A.89.89,0,0,1,15,1l-.1-.17c-.05-.09-.11-.17-.25-.06L14.44,1a.9.9,0,0,1-1.1,0L13.16.83a.17.17,0,0,0-.25.06l-.1.19a.92.92,0,0,1-.81.47l-.12,0-.25,0-.1,0s-.09.09-.09.18l0,.22a.93.93,0,0,1-.66.84l-.23.06a.18.18,0,0,0-.1.09.16.16,0,0,0,0,.14l.09.21a.94.94,0,0,1-.24,1l-.16.14a.17.17,0,0,0-.07.13.2.2,0,0,0,.06.14l.17.15a.89.89,0,0,1,.23,1L10.43,6a.19.19,0,0,0,0,.15.21.21,0,0,0,.11.09l.2,0a1,1,0,0,1,.68.85l0,.21a.16.16,0,0,0,.17.17l.23-.08a.46.46,0,0,1,.2,0,.91.91,0,0,1,.82.5l.09.17c.05.09.12.17.26.06l.17-.12A1,1,0,0,1,13.92,7.89Z"/><path class="cls-2" d="M13.48,5.86a.38.38,0,0,1-.26-.11L12.07,4.6a.37.37,0,0,1,.53-.53l.88.88L15.2,3.24a.37.37,0,0,1,.53,0,.39.39,0,0,1,0,.53l-2,2A.4.4,0,0,1,13.48,5.86Z"/></g></g></svg>