<svg id="Layer_1" data-name="Layer 1" xmlns="http://www.w3.org/2000/svg" viewBox="0 0 22 22"><defs><style>.cls-1{fill:#ffda66;}.cls-2{fill:#494949;}.cls-3{fill:#fff;}</style></defs><title>Iconset for Detail page</title><rect class="cls-1" x="3.528" y="8.014" width="19.359" height="6.149" rx="3.075" ry="3.075" transform="translate(24.295 -2.119) rotate(90)"/><path class="cls-2" d="M14.383,14.183h-6.8a.427.427,0,0,1-.427-.426V5.148a.427.427,0,0,1,.853,0v8.183h5.944V5.148a.427.427,0,0,1,.853,0v8.609A.427.427,0,0,1,14.383,14.183Z"/><path class="cls-3" d="M6.708,10.732h8.548a0,0,0,0,1,0,0v1.531a4.274,4.274,0,0,1-4.274,4.274h0a4.274,4.274,0,0,1-4.274-4.274V10.732a0,0,0,0,1,0,0Z" transform="translate(21.963 27.269) rotate(-180)"/><path class="cls-2" d="M15.256,16.964H6.707a.427.427,0,0,1-.426-.427V15.006a4.7,4.7,0,1,1,9.4,0v1.531A.427.427,0,0,1,15.256,16.964Zm-8.122-.853h7.7V15.006a3.848,3.848,0,1,0-7.7,0Z"/><path class="cls-2" d="M10.984,21.99a3.172,3.172,0,0,1-3.169-3.169v-.983a.427.427,0,1,1,.853,0v.983a2.317,2.317,0,1,0,4.634,0v-.983a.427.427,0,1,1,.853,0v.983A3.174,3.174,0,0,1,10.984,21.99Z"/><circle class="cls-3" cx="10.982" cy="2.8" r="2.363"/><path class="cls-2" d="M10.981,5.589A2.79,2.79,0,1,1,13.771,2.8,2.792,2.792,0,0,1,10.981,5.589Zm0-4.727A1.937,1.937,0,1,0,12.919,2.8,1.939,1.939,0,0,0,10.981.862Z"/><path class="cls-2" d="M18.907,3.226H15.76a.426.426,0,1,1,0-.852h3.147a.426.426,0,0,1,0,.852Z"/><path class="cls-2" d="M6.24,3.226H3.093a.426.426,0,0,1,0-.852H6.24a.426.426,0,0,1,0,.852Z"/></svg>