<svg id="Layer_1" data-name="Layer 1" xmlns="http://www.w3.org/2000/svg" viewBox="0 0 22 22"><defs><style>.cls-1{fill:#ffda66;}.cls-2{fill:#494949;}.cls-3{fill:#fff;}</style></defs><title>Iconset for Detail page</title><rect class="cls-1" x="1.689" y="12.235" width="20.25" height="6.432" rx="3.216" ry="3.216"/><path class="cls-2" d="M5.294,20.318A2.217,2.217,0,0,1,3.079,18.1V17.45a.392.392,0,0,1,.784,0V18.1a1.431,1.431,0,0,0,2.862,0V17.45a.392.392,0,1,1,.784,0V18.1A2.217,2.217,0,0,1,5.294,20.318Z"/><path class="cls-2" d="M16.742,20.318A2.216,2.216,0,0,1,14.528,18.1V17.45a.392.392,0,1,1,.783,0V18.1a1.432,1.432,0,0,0,2.863,0V17.45a.392.392,0,0,1,.784,0V18.1A2.218,2.218,0,0,1,16.742,20.318Z"/><path class="cls-2" d="M17.561,8.37a.391.391,0,0,1-.392-.392,5.792,5.792,0,0,0-5.786-5.786h-.729A5.792,5.792,0,0,0,4.868,7.978a.392.392,0,0,1-.784,0,6.577,6.577,0,0,1,6.57-6.569h.729a6.577,6.577,0,0,1,6.57,6.569A.392.392,0,0,1,17.561,8.37Z"/><path class="cls-2" d="M18.269,16.618H3.768a3.767,3.767,0,0,1,0-7.534h14.5a3.767,3.767,0,0,1,0,7.534Zm-14.5-6.75a2.983,2.983,0,0,0,0,5.966h14.5a2.983,2.983,0,0,0,0-5.966Z"/><circle class="cls-3" cx="17.026" cy="12.851" r="1.54"/><path class="cls-2" d="M17.026,14.783a1.932,1.932,0,1,1,1.932-1.932A1.935,1.935,0,0,1,17.026,14.783Zm0-3.08a1.148,1.148,0,1,0,1.148,1.148A1.149,1.149,0,0,0,17.026,11.7Z"/><circle class="cls-3" cx="5.01" cy="12.851" r="1.54"/><path class="cls-2" d="M5.01,14.783a1.932,1.932,0,1,1,1.932-1.932A1.934,1.934,0,0,1,5.01,14.783Zm0-3.08a1.148,1.148,0,1,0,1.148,1.148A1.148,1.148,0,0,0,5.01,11.7Z"/></svg>