<?xml version="1.0" encoding="utf-8"?>
<!-- Generator: Adobe Illustrator 26.1.0, SVG Export Plug-In . SVG Version: 6.00 Build 0)  -->
<svg version="1.1" id="Layer_1" xmlns="http://www.w3.org/2000/svg" xmlns:xlink="http://www.w3.org/1999/xlink" x="0px" y="0px"
	 viewBox="0 0 100 100" style="enable-background:new 0 0 100 100;" xml:space="preserve">
<style type="text/css">
	.st0{opacity:0.7;fill:#FFCC05;}
</style>
<g>
	<path class="st0" d="M22.13,25.31c0,7.66-6.22,13.88-13.88,13.88c-2.13,0-4.15-0.48-5.95-1.34l10.05-25.8
		C18.01,13.79,22.13,19.08,22.13,25.31z"/>
	<path d="M94.43,38.27C69.07,29.05,43.72,19.82,18.35,10.6c-4.52-1.64-8.63,0.28-10.31,4.82c-2.17,5.9-4.34,11.81-6.43,17.74
		c-0.39,1.13-0.62,2.42-0.53,3.61c0.25,3.38,2.2,5.54,5.34,6.68c6.98,2.53,13.95,5.08,20.94,7.6c0.67,0.24,1,0.49,0.92,1.32
		c-0.19,2.02,0.4,3.87,1.47,5.59c0.2,0.34,0.29,0.9,0.16,1.27c-1.41,3.99-2.88,7.96-4.33,11.94c-0.44,1.2-0.83,1.48-2.11,1.48H10
		c0-1.57,0.03-3.05,0-4.53c-0.07-2.64-1.96-4.52-4.59-4.58c-0.91-0.02-1.83-0.02-2.75,0c-1.19,0.02-1.76,0.57-1.77,1.75
		C0.88,73.23,0.88,81.18,0.9,89.12c0,1.17,0.59,1.71,1.77,1.76c0.19,0.01,0.38-0.01,0.57,0.01c4.98,0.37,7.15-1.59,6.77-6.72
		c-0.05-0.78,0-1.56,0-2.4h1.14c4.09,0,8.17,0.01,12.25-0.01c0.92-0.01,1.85-0.07,2.74-0.27c3.96-0.89,6.58-3.33,7.97-7.11
		c1.42-3.85,2.82-7.72,4.21-11.58c0.21-0.58,0.46-0.91,1.14-1.05c2.11-0.46,3.87-1.58,5.12-3.36c0.51-0.72,0.93-0.75,1.69-0.46
		c8.19,3.01,16.39,5.97,24.58,8.96c3.03,1.11,5.79,0.75,8.23-1.4c0.52-0.45,0.93-1.02,1.42-1.56c0.8,0.29,1.59,0.58,2.39,0.87
		c2.3,0.82,3.78,0.13,4.62-2.17c1.19-3.26,2.34-6.54,3.59-9.78c0.69-1.78,0.86-3.37-0.9-4.76c1.58-0.73,3.02-1.42,4.48-2.08
		c1.51-0.68,2.77-1.61,3.46-3.17v-1.33C97.54,39.7,96.09,38.88,94.43,38.27z M6.97,85.24c0,2.34-0.51,2.78-2.97,2.54V66.57h1.11
		c1.3,0.03,1.85,0.56,1.85,1.87c0.01,3.29,0.01,6.58,0.01,9.87V85.24z M35.23,62.43c-1.32,3.65-2.64,7.3-3.98,10.95
		c-1.29,3.48-3.97,5.34-7.69,5.34c-4.21,0.02-8.42,0.01-12.63,0.01h-0.87v-3.04h13.43c2.57-0.01,4.06-1.05,4.94-3.47
		c1.27-3.47,2.53-6.95,3.8-10.42c0.13-0.35,0.27-0.7,0.41-1.06c0.92,0.38,1.79,0.73,2.73,1.11C35.33,62.03,35.3,62.24,35.23,62.43z
		 M35.81,58.75c-2.79-0.75-4.65-3.3-4.46-6.23c3.63,1.32,7.17,2.61,10.73,3.9C41.13,58.35,38.24,59.4,35.81,58.75z M84.47,62.12
		c-0.98-0.35-1.86-0.66-2.81-1c0.08-0.3,0.14-0.57,0.23-0.82c1.12-3.08,2.24-6.16,3.36-9.24c0.41-1.13,0.76-1.29,1.91-0.87
		c0.44,0.16,0.89,0.32,1.46,0.53C87.22,54.55,85.86,58.3,84.47,62.12z M93.51,43.18c-3.97,1.88-7.93,3.79-11.95,5.56
		c-3.5,1.53-7.13,1.64-10.73,0.34c-14.17-5.12-28.33-10.29-42.5-15.43c-0.41-0.15-0.83-0.31-1.26-0.38
		c-0.76-0.12-1.31,0.25-1.58,0.93c-0.27,0.7-0.08,1.33,0.55,1.75c0.28,0.2,0.62,0.32,0.94,0.43c14.25,5.19,28.51,10.37,42.76,15.55
		c3.57,1.3,7.18,1.28,10.83,0.4c0.24-0.06,0.48-0.13,0.73-0.19c0.05-0.01,0.12,0.01,0.32,0.04c-1.16,3.17-2.23,6.31-3.46,9.39
		c-1.01,2.56-3.45,3.48-6.21,2.48c-6.92-2.51-13.83-5.03-20.75-7.54C36.62,51.2,22.04,45.9,7.47,40.59
		c-2.99-1.08-4.08-3.43-3.02-6.41c0.18-0.52,0.37-1.05,0.57-1.57c0-0.02,0-0.03,0-0.03l0.97-2.65c0.08-0.21,0.16-0.43,0.24-0.65
		l3.6-9.91c0.12-0.35,0.24-0.7,0.38-1.04l0.08-0.23c0.31-0.84,0.65-1.68,1-2.5c0.96-2.23,3.37-3.07,5.86-2.19
		c3.57,1.27,7.12,2.59,10.69,3.89c21.67,7.88,43.35,15.75,65.02,23.64c0.75,0.28,1.46,0.65,2.48,1.11
		C94.55,42.55,94.06,42.93,93.51,43.18z"/>
</g>
</svg>
