<svg width="512" height="512" viewBox="0 0 512 512" fill="none" xmlns="http://www.w3.org/2000/svg">
<g clip-path="url(#clip0_6483_101)">
<circle cx="256" cy="512" r="200" fill="#FFE785"/>
<path d="M499.726 248.698C506.74 248.698 512 253.959 512 259.219V260.972V436.315C512 443.329 506.74 448.589 501.48 448.589H499.726H401.534L408.548 476.644C410.301 483.657 406.795 488.918 399.781 492.425H398.027C391.014 494.178 385.754 490.671 382.247 483.658V481.904L375.233 448.589H310.356L303.343 481.904C301.589 488.918 296.329 492.425 289.315 492.425H287.562C280.548 490.671 277.041 485.411 277.041 478.397V476.644L284.055 448.589H210.411L217.425 476.644C219.178 483.657 215.671 488.918 208.658 492.425H206.904C199.89 494.178 194.63 490.671 191.123 483.658V481.904L184.11 448.589H119.233L112.219 481.904C110.466 488.918 105.205 492.425 98.1918 492.425H96.4384C89.4247 490.671 85.9178 485.411 85.9178 478.397V476.644L92.9316 448.589H12.2739C5.26022 448.589 0 443.329 0 438.068V436.315V260.972C0 253.959 5.26025 248.698 10.5205 248.698H12.2739H499.726ZM487.452 275H22.7946V424.041H96.4384L115.726 336.37H113.973H112.219C98.1918 334.616 98.1918 311.822 112.219 310.068H113.973H184.11C201.644 310.068 201.644 334.616 185.863 336.37H184.11H182.356L201.644 424.041H287.562L306.849 336.37H305.096H303.343C289.315 334.616 289.315 311.822 303.343 310.068H305.096H375.233C392.767 310.068 392.767 334.616 376.986 336.37H375.233H373.48L392.767 424.041H483.945V275H487.452ZM156.055 336.37H142.027L122.74 424.041H175.342L156.055 336.37ZM348.931 336.37H334.904L315.616 424.041H368.219L348.931 336.37ZM254.247 19C261.26 19 266.521 24.2604 266.521 29.5207V31.2737V40.0408C296.329 47.0545 319.123 73.3561 319.123 104.918C319.123 111.931 313.863 117.192 308.603 117.192H306.849H201.644C194.63 117.192 187.616 111.931 187.616 103.164C187.616 71.6025 210.411 45.3015 240.219 38.2878V29.5207C241.973 24.2604 247.233 19 254.247 19ZM254.247 64.5892C238.466 64.5892 226.192 73.356 219.178 85.6299L217.425 87.3835V89.137H291.068V87.3835C285.808 75.1095 273.534 66.3425 261.26 62.8356H257.753L254.247 64.5892Z" fill="#494949"/>
<path d="M254.238 125.96C261.252 125.96 266.512 131.22 266.512 136.481V138.234V173.303C266.512 180.316 261.252 187.33 254.238 187.33C247.224 187.33 241.964 182.07 241.964 176.81V175.056V139.988C240.211 132.974 247.224 127.714 254.238 125.96ZM206.896 127.713C212.156 131.22 215.663 138.234 213.909 143.495V145.248L196.375 180.316C192.868 187.33 185.855 189.084 178.841 185.577C173.581 182.07 170.074 175.056 171.827 169.796V168.043L189.361 132.974C192.868 127.714 201.635 124.207 206.896 127.713ZM317.361 132.974L336.649 169.796C340.156 176.81 336.649 183.823 331.389 187.33C326.128 190.837 319.115 189.084 313.855 183.823L312.101 182.07L294.567 147.001C291.06 139.988 294.567 132.974 299.827 129.467C306.841 125.96 312.101 127.714 317.361 132.974Z" fill="#494949"/>
</g>
<defs>
<clipPath id="clip0_6483_101">
<rect width="512" height="512" fill="white"/>
</clipPath>
</defs>
</svg>
