<svg width="25" height="25" viewBox="0 0 25 25" fill="none" xmlns="http://www.w3.org/2000/svg">
<g clip-path="url(#clip0_12029_809)">
<circle cx="12.5" cy="27.1973" r="9.76562" fill="#FFE785"/>
<path d="M24.8788 22.9798C24.8451 22.8807 24.7734 22.7991 24.6794 22.7528C24.5855 22.7066 24.4771 22.6996 24.378 22.7333L22.5715 23.3484L20.0199 15.9844C20.1411 15.9333 20.2604 15.8783 20.3761 15.8171C20.5836 15.7074 20.7822 15.5816 20.9701 15.441C21.5947 14.9736 22.0949 14.3471 22.4095 13.6179C22.9128 12.4511 22.8989 11.119 22.3734 9.96743L19.5973 3.68418C19.5575 3.59387 19.4852 3.52178 19.3948 3.48214C19.3044 3.44251 19.2024 3.4382 19.109 3.47007L12.5242 5.71226L5.93929 3.47007C5.84586 3.43822 5.74389 3.44254 5.65349 3.48218C5.56309 3.52181 5.49083 3.59389 5.45096 3.68418L2.67845 9.95981L2.6783 9.96011L2.67698 9.96318C2.41589 10.536 2.27773 11.1571 2.27142 11.7866C2.26461 12.4161 2.38982 13.0399 2.63895 13.618C3.10032 14.6875 3.96165 15.5351 5.0285 15.9846L2.47684 23.3485L0.670392 22.7334C0.571285 22.6997 0.462847 22.7067 0.36892 22.7529C0.274994 22.7992 0.203268 22.8808 0.169514 22.9799C0.152801 23.029 0.145918 23.0808 0.149258 23.1326C0.152598 23.1843 0.166095 23.2349 0.18898 23.2814C0.211864 23.3279 0.243687 23.3694 0.282631 23.4036C0.321574 23.4379 0.366876 23.4641 0.415949 23.4808L2.59149 24.2215L2.59207 24.2217L2.59251 24.2218L4.8158 24.9788C4.85677 24.9928 4.89976 24.9999 4.94305 25C5.02547 24.9999 5.1058 24.9741 5.17281 24.9261C5.23981 24.8781 5.29012 24.8103 5.31668 24.7323C5.33339 24.6833 5.34028 24.6314 5.33694 24.5796C5.3336 24.5279 5.3201 24.4774 5.29722 24.4308C5.27433 24.3843 5.24251 24.3428 5.20356 24.3086C5.16462 24.2744 5.11932 24.2481 5.07025 24.2314L3.2242 23.6029L5.77654 16.237C6.88993 16.519 8.06896 16.3659 9.07337 15.8088C9.34897 15.6556 9.60768 15.4739 9.84525 15.2666C10.5528 14.6492 11.0576 13.8196 11.2724 12.8948L12.5241 7.78735L13.1188 10.2138L13.1188 10.2141L13.7747 12.8901C14.0622 14.1278 14.8642 15.1916 15.9749 15.8087C16.6478 16.1826 17.3999 16.3736 18.1559 16.375L18.1647 16.3751C18.5359 16.3751 18.9078 16.3292 19.2717 16.2369L21.8241 23.6028L19.9781 24.2313C19.879 24.2651 19.7974 24.3368 19.7512 24.4307C19.7049 24.5247 19.6979 24.6331 19.7317 24.7322C19.7582 24.8102 19.8086 24.878 19.8756 24.926C19.9426 24.974 20.0229 24.9998 20.1053 24.9999C20.1474 24.9999 20.1904 24.993 20.2326 24.9787L22.4558 24.2217L22.4563 24.2216L22.4569 24.2213L24.6324 23.4806C24.6815 23.4639 24.7268 23.4377 24.7657 23.4035C24.8047 23.3693 24.8365 23.3278 24.8594 23.2813C24.8823 23.2347 24.8958 23.1842 24.8991 23.1325C24.9024 23.0807 24.8956 23.0289 24.8788 22.9798ZM11.2363 9.72544H6.31673C6.09871 9.72544 5.922 9.9021 5.922 10.1202C5.922 10.3382 6.09876 10.5149 6.31673 10.5149H11.0429L10.5045 12.7115C10.297 13.6047 9.76463 14.3881 9.02112 14.911C8.91446 14.986 8.80389 15.0553 8.68987 15.1187C8.12191 15.4338 7.48134 15.5947 6.83187 15.5855C6.44239 15.5802 6.05619 15.5135 5.68743 15.3881L5.65692 15.3777L5.65648 15.3776L5.65594 15.3774L5.57786 15.3509C5.4544 15.3089 5.33325 15.2603 5.21492 15.2055C5.06054 15.1335 4.91129 15.051 4.76824 14.9585C4.49747 14.7844 4.25039 14.5759 4.03319 14.3382C3.75692 14.036 3.52884 13.6881 3.36365 13.3052C3.36243 13.3024 3.36146 13.2996 3.36024 13.2967C3.3367 13.2418 3.31449 13.1864 3.29363 13.1304C3.28607 13.11 3.27947 13.0893 3.27225 13.0688C3.25867 13.0303 3.24505 12.9917 3.23275 12.9527C3.22513 12.9285 3.21849 12.9041 3.21136 12.8798C3.2007 12.8442 3.19059 12.8084 3.18104 12.7725C3.17435 12.7467 3.16844 12.7209 3.16229 12.695C3.1539 12.6602 3.14599 12.6253 3.13856 12.5903C3.13304 12.5638 3.12821 12.5371 3.12322 12.5104C3.1168 12.4759 3.11084 12.4413 3.10535 12.4066C3.1012 12.3796 3.09736 12.3525 3.09383 12.3253C3.08561 12.2637 3.07893 12.2018 3.07381 12.1398C3.07095 12.1048 3.06861 12.0697 3.06678 12.0346C3.06529 12.0078 3.06407 11.981 3.06312 11.9541C3.06207 11.9183 3.06153 11.8825 3.06151 11.8466C3.06141 11.8205 3.06121 11.7943 3.06165 11.7682C3.06234 11.7311 3.06395 11.694 3.06575 11.6569C3.06693 11.6321 3.0678 11.6073 3.06951 11.5825C3.0722 11.5428 3.07611 11.5032 3.08011 11.4636C3.08231 11.4415 3.08402 11.4194 3.0866 11.3974C3.09207 11.3507 3.09901 11.3042 3.10628 11.2579C3.10858 11.2429 3.11033 11.2279 3.11287 11.213C3.12337 11.1511 3.13529 11.0894 3.14891 11.0279C3.15003 11.0229 3.15145 11.018 3.15252 11.013C3.16512 10.9572 3.17889 10.9016 3.19412 10.8462C3.1993 10.8274 3.2054 10.8088 3.21087 10.79C3.22293 10.7488 3.23509 10.7075 3.24862 10.6666C3.25604 10.6441 3.26429 10.6218 3.2722 10.5995C3.28216 10.5712 3.29237 10.543 3.30301 10.5149H4.73792C4.95594 10.5149 5.13265 10.3382 5.13265 10.1202C5.13265 9.9021 4.95589 9.72544 4.73792 9.72544H3.64515L6.02713 4.33394L12.0548 6.38633L11.2363 9.72544ZM19.4704 15.3509L19.3921 15.3775L19.3917 15.3776L19.3915 15.3777L19.3609 15.3881C18.3689 15.7259 17.2745 15.6277 16.3585 15.1187C15.4424 14.6097 14.781 13.7323 14.5428 12.7069L14.0055 10.5149H18.3447C18.5627 10.5149 18.7394 10.3382 18.7394 10.1202C18.7394 9.9021 18.5626 9.72544 18.3447 9.72544H13.8121L12.9937 6.38633L19.0214 4.33398L21.4034 9.72549H19.9237C19.8718 9.72548 19.8205 9.73569 19.7726 9.75552C19.7247 9.77536 19.6812 9.80443 19.6445 9.84109C19.6079 9.87774 19.5788 9.92126 19.559 9.96915C19.5391 10.017 19.5289 10.0684 19.5289 10.1202C19.5289 10.2249 19.5705 10.3253 19.6446 10.3993C19.7186 10.4734 19.819 10.5149 19.9237 10.5149H21.7458C21.7562 10.5425 21.7662 10.5703 21.776 10.598C21.7844 10.6218 21.7931 10.6454 21.801 10.6692C21.8138 10.7082 21.8254 10.7475 21.8369 10.7868C21.8429 10.8073 21.8496 10.8277 21.8552 10.8483C21.8703 10.9036 21.8841 10.9591 21.8966 11.0148C21.8977 11.0197 21.8992 11.0245 21.9002 11.0294C21.9136 11.0901 21.9253 11.1511 21.9357 11.2123C21.939 11.2318 21.9413 11.2515 21.9443 11.2711C21.9507 11.3128 21.957 11.3546 21.9619 11.3965C21.9648 11.4206 21.9666 11.4447 21.969 11.4688C21.9726 11.5063 21.9764 11.5439 21.9789 11.5816C21.9807 11.6075 21.9816 11.6335 21.9828 11.6594C21.9846 11.6954 21.9861 11.7313 21.9868 11.7673C21.9872 11.7941 21.987 11.8209 21.9869 11.8478C21.9868 11.883 21.9864 11.9181 21.9853 11.9533C21.9843 11.9805 21.9831 12.0078 21.9815 12.035C21.9797 12.0698 21.9773 12.1045 21.9745 12.1393C21.9723 12.1665 21.9698 12.1938 21.9669 12.221C21.9604 12.2829 21.9525 12.3446 21.943 12.4061C21.9375 12.441 21.9315 12.4757 21.925 12.5104C21.9201 12.5369 21.9153 12.5634 21.9097 12.5898C21.9023 12.6251 21.8943 12.6603 21.8858 12.6954C21.8797 12.7209 21.8739 12.7465 21.8673 12.772C21.8578 12.8084 21.8472 12.8446 21.8366 12.8808C21.8296 12.9046 21.8231 12.9285 21.8157 12.9521C21.8028 12.992 21.7894 13.0316 21.7752 13.071C21.7683 13.0907 21.762 13.1104 21.7548 13.13C21.7329 13.189 21.7095 13.2475 21.6846 13.3053C21.6552 13.3729 21.6238 13.4396 21.5905 13.5054C21.2829 14.1151 20.8133 14.6255 20.2399 14.9839C20.1641 15.0318 20.0866 15.0769 20.0076 15.1191C19.8349 15.2104 19.6553 15.2879 19.4704 15.3509ZM12.5242 3.02107e-09C12.4723 -6.41059e-06 12.421 0.0101991 12.3731 0.0300337C12.3252 0.0498683 12.2817 0.0789434 12.245 0.115598C12.2084 0.152253 12.1793 0.19577 12.1595 0.243664C12.1396 0.291557 12.1294 0.342889 12.1294 0.394727V1.89941C12.1294 2.0041 12.171 2.1045 12.245 2.17853C12.3191 2.25255 12.4195 2.29414 12.5242 2.29414C12.6288 2.29414 12.7292 2.25255 12.8033 2.17853C12.8773 2.1045 12.9189 2.0041 12.9189 1.89941V0.394727C12.9189 0.342889 12.9087 0.291557 12.8888 0.243664C12.869 0.19577 12.8399 0.152253 12.8033 0.115598C12.7666 0.0789434 12.7231 0.0498683 12.6752 0.0300337C12.6273 0.0101991 12.576 -6.41059e-06 12.5242 3.02107e-09ZM15.9143 1.33027C15.8465 1.25052 15.7498 1.20096 15.6454 1.19251C15.5411 1.18406 15.4377 1.2174 15.3579 1.28521L14.1046 2.35098C14.0249 2.4188 13.9753 2.51552 13.9669 2.61988C13.9584 2.72423 13.9918 2.82766 14.0596 2.90742C14.1274 2.98718 14.2241 3.03673 14.3285 3.04518C14.4329 3.05362 14.5363 3.02026 14.616 2.95244L15.8693 1.88667C15.9088 1.8531 15.9413 1.81207 15.9649 1.76593C15.9886 1.7198 16.0029 1.66946 16.0071 1.61779C16.0112 1.56612 16.0052 1.51413 15.9893 1.4648C15.9734 1.41547 15.9479 1.36975 15.9143 1.33027ZM10.9436 2.35098L9.69031 1.28521C9.61034 1.21913 9.50758 1.18719 9.40424 1.19629C9.3009 1.20539 9.2053 1.2548 9.13811 1.33383C9.07091 1.41286 9.03753 1.51517 9.04517 1.61862C9.05281 1.72208 9.10086 1.81837 9.17894 1.88667L10.4322 2.95244C10.5035 3.01318 10.5941 3.04651 10.6877 3.04644C10.745 3.04651 10.8015 3.03411 10.8535 3.0101C10.9055 2.98608 10.9516 2.95103 10.9886 2.90737C11.0222 2.86789 11.0477 2.82217 11.0636 2.77284C11.0795 2.7235 11.0855 2.67152 11.0814 2.61985C11.0772 2.56818 11.0629 2.51784 11.0392 2.47171C11.0156 2.42557 10.9831 2.38455 10.9436 2.35098Z" fill="#494949"/>
</g>
<defs>
<clipPath id="clip0_12029_809">
<rect width="25" height="25" fill="white"/>
</clipPath>
</defs>
</svg>
