<svg width="512" height="512" viewBox="0 0 512 512" fill="none" xmlns="http://www.w3.org/2000/svg">
<g clip-path="url(#clip0_6483_261)">
<circle cx="256" cy="512" r="200" fill="#FFE785"/>
<path d="M374.55 53C377.987 53 379.705 54.7198 381.423 54.7198L383.141 56.4375L444.993 116.572C446.712 118.29 446.711 118.289 448.43 120.007L487.946 159.525V157.807C487.946 150.935 494.819 147.497 499.973 147.497C506.846 147.497 512 152.653 512 157.807V159.525V412.088C512 418.96 506.846 425.834 498.255 425.834C491.383 425.834 486.228 420.68 486.228 415.525V413.805V389.753L365.96 195.605H142.604L24.0537 389.753V413.805V415.525C24.0537 422.398 17.1813 425.834 12.0269 425.834C5.15444 425.834 0 420.68 0 415.525V413.805V161.242V159.525C0 152.652 6.87256 149.216 12.0269 149.216C18.8994 149.216 24.0537 154.37 24.0537 159.525V161.242L127.141 58.1552C128.859 56.4371 132.295 54.7198 134.014 54.7198H135.732H374.55V53ZM450.148 245.431V278.076C450.148 279.794 450.148 279.793 450.148 281.511L487.946 341.645V293.537L450.148 245.431ZM61.8523 241.993L22.3356 293.537V341.645L61.8523 278.076V241.993ZM450.148 161.242V204.195L487.946 252.304V199.04L450.148 161.242ZM61.8523 157.807L22.3356 197.323V250.584L61.8523 199.04V157.807ZM386.577 162.96V180.141L424.376 240.276V212.786L386.577 162.96ZM121.987 162.96L87.6242 207.631V235.122L121.987 178.424V162.96ZM202.738 137.188H149.477V169.833H202.738V137.188ZM360.806 137.188H307.544V169.833H360.806V137.188ZM281.772 137.188H228.51V169.833H281.772V137.188ZM386.577 97.6728V120.007L424.376 168.115V133.753L386.577 97.6728ZM121.987 97.6728L87.6242 132.035V164.678L121.987 120.007V97.6728ZM202.738 78.7718H149.477V111.417H202.738V78.7718ZM360.806 78.7718H307.544V111.417H360.806V78.7718ZM281.772 78.7718H228.51V111.417H281.772V78.7718Z" fill="#494949"/>
<path d="M214.753 279.787C221.625 279.787 226.78 284.941 226.78 290.095V291.813V444.726C226.78 451.599 221.625 458.472 213.035 458.472C206.162 458.472 201.008 453.316 201.008 448.162V446.444V293.531C202.726 284.94 207.88 279.787 214.753 279.787ZM266.296 279.787C273.169 279.787 278.323 284.941 278.323 290.095V291.813V444.726C278.323 451.599 273.169 458.472 264.578 458.472C257.706 458.472 252.551 453.316 252.551 448.162V446.444V293.531C254.27 284.94 259.424 279.787 266.296 279.787ZM317.84 279.787C324.712 279.787 329.867 284.941 329.867 290.095V291.813V444.726C329.867 451.599 324.712 458.472 316.122 458.472C309.249 458.472 304.095 453.316 304.095 448.162V446.444V293.531C305.813 284.94 310.967 279.787 317.84 279.787Z" fill="#494949"/>
</g>
<defs>
<clipPath id="clip0_6483_261">
<rect width="512" height="512" fill="white"/>
</clipPath>
</defs>
</svg>
