<svg xmlns="http://www.w3.org/2000/svg" viewBox="0 0 11.39 18.31"><defs><style>.cls-1{fill:#ffda66;}.cls-2{fill:#494949;}</style></defs><g id="Layer_2" data-name="Layer 2"><g id="Layer_1-2" data-name="Layer 1"><path class="cls-1" d="M1,16.45A7.18,7.18,0,0,0,1,2.1H.38V16.45Z"/><path class="cls-2" d="M9.91,16.83H1.48A1.48,1.48,0,0,1,0,15.35V1.48A1.48,1.48,0,0,1,1.48,0H9.91a1.48,1.48,0,0,1,1.48,1.48V15.35A1.48,1.48,0,0,1,9.91,16.83ZM1.48.75a.73.73,0,0,0-.73.73V15.35a.73.73,0,0,0,.73.73H9.91a.73.73,0,0,0,.73-.73V1.48A.73.73,0,0,0,9.91.75Z"/><path class="cls-2" d="M5.69,15.17a.38.38,0,0,1-.37-.37V2a.38.38,0,0,1,.75,0V14.8A.38.38,0,0,1,5.69,15.17Z"/><path class="cls-2" d="M7.17,9.86a.38.38,0,0,1-.37-.38V7.35a.38.38,0,1,1,.75,0V9.48A.38.38,0,0,1,7.17,9.86Z"/><path class="cls-2" d="M4.26,9.86a.38.38,0,0,1-.37-.38V7.35a.38.38,0,1,1,.75,0V9.48A.38.38,0,0,1,4.26,9.86Z"/><path class="cls-2" d="M1.56,18.31a.37.37,0,0,1-.37-.37V16.45a.38.38,0,0,1,.75,0v1.49A.37.37,0,0,1,1.56,18.31Z"/><path class="cls-2" d="M9.83,18.31a.37.37,0,0,1-.38-.37V16.45a.38.38,0,0,1,.75,0v1.49A.37.37,0,0,1,9.83,18.31Z"/></g></g></svg>