<svg xmlns="http://www.w3.org/2000/svg" viewBox="0 0 16.53 11.68"><defs><style>.cls-1{fill:#ffda66;}.cls-2{fill:#494949;}</style></defs><g id="Layer_2" data-name="Layer 2"><g id="Layer_1-2" data-name="Layer 1"><path class="cls-1" d="M15.44,9.24A4.21,4.21,0,0,0,7,9.24v.35h8.42Z"/><path class="cls-2" d="M7.54,4.67H3.36A.38.38,0,0,1,3,4.29V4.12a2.47,2.47,0,1,1,4.93,0v.17A.37.37,0,0,1,7.54,4.67ZM3.75,3.92h3.4a1.71,1.71,0,0,0-3.4,0Z"/><path class="cls-2" d="M13.42,4.67H9.24a.38.38,0,0,1-.38-.38V4.12a2.47,2.47,0,1,1,4.93,0v.17A.38.38,0,0,1,13.42,4.67Zm-3.8-.75H13a1.72,1.72,0,0,0-3.41,0Z"/><path class="cls-2" d="M15.06,10H1.47A1.47,1.47,0,0,1,0,8.49V5.39A1.47,1.47,0,0,1,1.47,3.92H15.06a1.47,1.47,0,0,1,1.47,1.47v3.1A1.47,1.47,0,0,1,15.06,10ZM1.47,4.67a.72.72,0,0,0-.72.72v3.1a.73.73,0,0,0,.72.73H15.06a.73.73,0,0,0,.72-.73V5.39a.72.72,0,0,0-.72-.72Z"/><path class="cls-2" d="M15,4.67a.38.38,0,0,1-.38-.38V1.89A1.16,1.16,0,0,0,13.38.75H3.16A1.17,1.17,0,0,0,2,1.89v2.4a.38.38,0,1,1-.75,0V1.89A1.92,1.92,0,0,1,3.16,0H13.38a1.92,1.92,0,0,1,1.94,1.89v2.4A.37.37,0,0,1,15,4.67Z"/><path class="cls-2" d="M1.58,11.42a.38.38,0,0,1-.37-.37V9.59a.38.38,0,0,1,.75,0v1.46A.38.38,0,0,1,1.58,11.42Z"/><path class="cls-2" d="M15,11.68a.38.38,0,0,1-.38-.38V9.59A.37.37,0,0,1,15,9.22a.36.36,0,0,1,.37.37V11.3A.37.37,0,0,1,15,11.68Z"/></g></g></svg>