<svg width="512" height="512" viewBox="0 0 512 512" fill="none" xmlns="http://www.w3.org/2000/svg">
<g clip-path="url(#clip0_6483_159)">
<circle cx="256" cy="512" r="200" fill="#FFE785"/>
<path d="M328.887 108.169C377.563 108.169 415.422 146.029 417.225 192.903V196.507V499.381C417.225 506.592 411.817 512 406.408 512H404.605H188.268C181.056 512 175.648 506.592 175.648 501.184V499.381V196.507C175.648 149.634 211.704 111.775 256.775 108.169H260.38H263.986H328.887ZM390.183 439.887H200.887V488.565H390.183V439.887ZM263.986 135.211H260.38C227.929 137.014 202.69 162.254 200.887 194.705V198.31V412.845H390.183V380.396H260.38C253.169 380.396 247.76 374.986 247.76 369.577V367.775V205.521C247.76 198.31 253.169 192.903 258.577 192.903H260.38H390.183C386.577 164.058 363.141 142.424 336.098 138.818H332.493H328.887L263.986 135.211ZM391.986 216.338H274.803V351.549H391.986V216.338ZM350.521 292.057C357.732 292.057 364.943 297.465 364.943 306.479C364.943 313.69 359.535 319.1 354.126 319.1H352.324H316.267C309.056 319.1 301.845 313.69 301.845 304.676C301.845 297.465 307.253 292.057 312.662 292.057H314.465H350.521ZM200.887 57.6914C208.098 57.6914 215.31 63.0985 215.31 72.1126C215.31 81.1267 209.901 86.536 200.887 86.536C139.591 86.536 89.1127 135.212 85.5071 196.507V200.114V252.394C85.5071 259.605 80.0986 266.818 71.0845 266.818C63.8732 266.818 58.4648 261.41 58.4648 256.001V254.199V201.917C60.2677 120.79 123.366 57.6914 200.887 57.6914ZM350.521 237.973C357.732 237.973 364.943 243.38 364.943 252.394C364.943 259.605 359.535 265.015 354.126 265.015H352.324H316.267C309.056 265.015 301.845 259.606 301.845 250.592C301.845 243.381 307.253 237.973 312.662 237.973H314.465H350.521ZM391.986 57.6914H471.309C489.338 57.6914 489.338 82.9308 473.112 84.7336H471.309H420.831L435.253 102.762C440.662 108.17 438.859 117.184 433.451 122.592C428.042 126.198 420.831 126.198 415.422 122.592L413.619 120.79L381.169 82.9313C377.563 81.1285 375.76 77.5228 375.76 73.9172V72.1126C375.76 64.9014 379.366 59.4942 388.38 57.6914H391.986ZM296.436 0C323.479 0 346.915 21.6347 346.915 50.4797C346.915 79.3248 325.281 100.959 296.436 100.959C267.591 100.959 245.958 79.3248 245.958 50.4797C245.958 21.6347 269.394 0 296.436 0ZM296.436 27.0422C283.817 27.0422 273 37.86 273 50.4797C273 63.0994 283.817 73.9172 296.436 73.9172C309.056 73.9172 319.873 63.0994 319.873 50.4797C319.873 37.86 309.056 27.0422 296.436 27.0422Z" fill="#494949"/>
<path d="M105.324 268.616L119.746 402.024H26L40.4226 268.616C42.2254 257.799 54.845 248.785 72.8732 248.785C90.9013 248.785 103.521 257.799 105.324 268.616Z" fill="#494949"/>
</g>
<defs>
<clipPath id="clip0_6483_159">
<rect width="512" height="512" fill="white"/>
</clipPath>
</defs>
</svg>
