<svg xmlns="http://www.w3.org/2000/svg" viewBox="0 0 10.79 18.03"><defs><style>.cls-1{fill:#ffda66;}.cls-2{fill:#494949;}</style></defs><g id="Layer_2" data-name="Layer 2"><g id="Layer_1-2" data-name="Layer 1"><path class="cls-1" d="M2.61,17.55a6.74,6.74,0,0,0,0-13.48H2V17.55Z"/><path class="cls-2" d="M1.78,18a.38.38,0,0,1-.38-.38V.38A.38.38,0,0,1,1.78,0a9,9,0,0,1,0,18ZM2.15.76V17.27A8.26,8.26,0,0,0,2.15.76Z"/><path class="cls-2" d="M10.12,7.67H1.78a.38.38,0,1,1,0-.75h8.34a.38.38,0,1,1,0,.75Z"/><path class="cls-2" d="M4,5.9a.37.37,0,0,1-.37-.38V4A.36.36,0,0,1,4,3.6.37.37,0,0,1,4.33,4V5.52A.38.38,0,0,1,4,5.9Z"/><path class="cls-2" d="M4,13.14a.37.37,0,0,1-.37-.38V9.25A.37.37,0,0,1,4,8.88a.38.38,0,0,1,.38.37v3.51A.38.38,0,0,1,4,13.14Z"/><path class="cls-2" d="M.38,17A.38.38,0,0,1,0,16.59V1.12A.38.38,0,0,1,.38.74a.38.38,0,0,1,.37.38V16.59A.38.38,0,0,1,.38,17Z"/></g></g></svg>