<svg width="512" height="512" viewBox="0 0 512 512" fill="none" xmlns="http://www.w3.org/2000/svg">
<g clip-path="url(#clip0_6483_128)">
<circle cx="256" cy="512" r="200" fill="#FFE785"/>
<path d="M184.11 6C191.123 6 196.384 11.2598 196.384 16.5201V18.2737V135.753C196.384 146.274 205.151 155.041 215.671 155.041C226.192 155.041 234.959 148.027 234.959 137.507V135.753V119.973C234.959 93.6712 256 72.6299 282.301 72.6299C306.849 72.6299 327.89 91.9177 329.644 118.219V121.726V200.63H394.521C457.644 200.63 510.247 251.479 512 314.602V318.109V440.849C512 475.918 483.945 503.973 448.877 505.726H445.37H419.068C389.26 505.726 361.206 489.945 347.178 463.643L345.425 460.137L334.904 440.849C327.89 428.575 315.616 419.808 303.342 419.808H299.836H206.904C192.877 419.808 180.603 426.822 173.589 439.096L171.836 440.849L161.315 460.137C147.288 486.438 120.986 503.973 91.178 505.726H87.6712H64.8767C29.8082 505.726 1.75342 477.671 0 442.603V439.096V316.356C0 253.233 50.8493 200.63 113.973 198.877H117.479H306.849V119.973C306.849 107.699 298.082 98.9313 285.808 98.9313C275.288 98.9313 264.767 107.699 264.767 118.219V119.973V135.753C264.767 162.055 243.726 181.342 219.178 181.342C194.63 181.342 173.589 162.055 173.589 137.507V134V16.5201C171.836 13.0133 177.096 6 184.11 6ZM398.027 225.178H117.479C68.3835 225.178 28.0548 263.753 26.3014 312.849V316.356V439.096C26.3014 460.137 42.0822 477.671 63.1233 477.671H66.6301H92.9314C113.973 477.671 131.507 467.151 142.027 449.616L143.781 446.109L154.301 426.822C164.822 405.781 185.863 391.753 208.657 390H212.164H305.096C327.89 390 350.685 402.274 362.959 423.315L364.712 426.822L375.233 446.109C384 463.643 403.288 475.918 422.575 477.671H426.082H452.384C473.425 477.671 490.959 461.89 490.959 440.849V437.342V314.602C490.959 265.506 452.384 225.178 403.288 223.425L398.027 225.178ZM389.26 353.178C403.288 353.178 415.562 365.452 415.562 379.479C415.562 393.507 403.288 405.781 389.26 405.781C375.233 405.781 362.959 393.507 362.959 379.479C362.959 365.452 375.233 353.178 389.26 353.178ZM441.863 300.575C455.89 300.575 468.164 312.849 468.164 326.877C468.164 340.904 455.89 353.178 441.863 353.178C427.836 353.178 415.562 340.904 415.562 326.877C415.562 312.849 427.836 300.575 441.863 300.575ZM336.658 300.575C350.685 300.575 362.959 312.849 362.959 326.877C362.959 340.904 350.685 353.178 336.658 353.178C322.63 353.178 310.356 340.904 310.356 326.877C310.356 312.849 322.63 300.575 336.658 300.575ZM389.26 247.972C403.288 247.972 415.562 260.246 415.562 274.274C415.562 288.301 403.288 300.575 389.26 300.575C375.233 300.575 362.959 288.301 362.959 274.274C362.959 260.246 375.233 247.972 389.26 247.972Z" fill="#494949"/>
<path d="M117.451 251.479C124.464 251.479 129.724 256.739 129.724 262V263.753V304.082H170.053C177.067 304.082 184.081 309.342 184.081 318.109C184.081 325.123 178.82 330.384 173.56 330.384H171.807H131.478V370.712C131.478 377.726 126.218 384.739 117.451 384.739C110.437 384.739 105.177 379.48 105.177 374.219V372.466V332.137H64.8478C57.8341 332.137 50.8203 326.877 50.8203 318.109C50.8203 311.096 56.0807 305.835 61.341 305.835H63.0944H103.423V265.507C105.176 258.493 110.437 251.479 117.451 251.479Z" fill="#494949"/>
</g>
<defs>
<clipPath id="clip0_6483_128">
<rect width="512" height="512" fill="white"/>
</clipPath>
</defs>
</svg>
