<svg xmlns="http://www.w3.org/2000/svg" viewBox="0 0 26.103 17.665"><defs><style>.cls-1{fill:#494949;}.cls-2{fill:#ffda66;}</style></defs><title>Asset 11</title><g id="Layer_2" data-name="Layer 2"><g id="Layer_1-2" data-name="Layer 1"><path class="cls-1" d="M5.874,14.808a.375.375,0,0,1-.375-.375V11.861a.375.375,0,0,1,.75,0v2.572A.375.375,0,0,1,5.874,14.808Z"/><path class="cls-1" d="M3.289,14.808a.375.375,0,0,1-.375-.375V11.861a.375.375,0,0,1,.75,0v2.572A.375.375,0,0,1,3.289,14.808Z"/><path class="cls-1" d="M5.874,17.437a.375.375,0,0,1-.375-.375V15.92a.375.375,0,0,1,.75,0v1.142A.375.375,0,0,1,5.874,17.437Z"/><path class="cls-1" d="M3.289,17.437a.375.375,0,0,1-.375-.375V15.92a.375.375,0,0,1,.75,0v1.142A.375.375,0,0,1,3.289,17.437Z"/><path class="cls-2" d="M1.375,11.147a4.206,4.206,0,0,1,8.412,0Z"/><path class="cls-1" d="M8.787,10.522H.375A.375.375,0,0,1,0,10.147a4.581,4.581,0,0,1,9.162,0A.375.375,0,0,1,8.787,10.522ZM.769,9.772H8.394a3.831,3.831,0,0,0-7.625,0Z"/><path class="cls-1" d="M4.432,4.493A2.247,2.247,0,1,1,6.678,2.247,2.249,2.249,0,0,1,4.432,4.493Zm0-3.743a1.5,1.5,0,1,0,1.5,1.5A1.5,1.5,0,0,0,4.432.75Z"/><path class="cls-1" d="M13.182,17.665a2.447,2.447,0,1,1,2.446-2.447A2.45,2.45,0,0,1,13.182,17.665Zm0-4.144a1.7,1.7,0,1,0,1.7,1.7A1.7,1.7,0,0,0,13.182,13.521Z"/><path class="cls-2" d="M17.691,11.147a4.206,4.206,0,0,1,8.412,0Z"/><path class="cls-1" d="M22.19,14.808a.375.375,0,0,1-.375-.375V11.861a.375.375,0,0,1,.75,0v2.572A.375.375,0,0,1,22.19,14.808Z"/><path class="cls-1" d="M19.6,14.808a.375.375,0,0,1-.375-.375V11.861a.375.375,0,0,1,.75,0v2.572A.374.374,0,0,1,19.6,14.808Z"/><path class="cls-1" d="M22.19,17.437a.375.375,0,0,1-.375-.375V15.92a.375.375,0,1,1,.75,0v1.142A.375.375,0,0,1,22.19,17.437Z"/><path class="cls-1" d="M19.6,17.437a.375.375,0,0,1-.375-.375V15.92a.375.375,0,0,1,.75,0v1.142A.374.374,0,0,1,19.6,17.437Z"/><path class="cls-1" d="M25.1,10.522H16.69a.375.375,0,0,1-.375-.375,4.582,4.582,0,0,1,9.163,0A.375.375,0,0,1,25.1,10.522Zm-8.019-.75h7.625a3.831,3.831,0,0,0-7.625,0Z"/><path class="cls-1" d="M20.747,4.493a2.247,2.247,0,1,1,2.246-2.246A2.249,2.249,0,0,1,20.747,4.493Zm0-3.743a1.5,1.5,0,1,0,1.5,1.5A1.5,1.5,0,0,0,20.747.75Z"/></g></g></svg>