<svg xmlns="http://www.w3.org/2000/svg" viewBox="0 0 9.91 16.77"><defs><style>.cls-1{fill:#ffda66;}.cls-2{fill:#494949;}</style></defs><g id="Layer_2" data-name="Layer 2"><g id="Layer_1-2" data-name="Layer 1"><path class="cls-1" d="M.78,12.29a4.88,4.88,0,1,0,0-9.75H.38v9.75Z"/><path class="cls-2" d="M8.44,12.67h-7A1.48,1.48,0,0,1,0,11.19V1.48A1.48,1.48,0,0,1,1.48,0h7A1.47,1.47,0,0,1,9.91,1.48v9.71A1.48,1.48,0,0,1,8.44,12.67ZM1.48.75a.73.73,0,0,0-.73.73v9.71a.73.73,0,0,0,.73.73h7a.73.73,0,0,0,.72-.73V1.48A.73.73,0,0,0,8.44.75Z"/><path class="cls-2" d="M7.86,8.1H2.06a.38.38,0,0,1-.38-.38,3.28,3.28,0,0,1,6.55,0A.38.38,0,0,1,7.86,8.1Zm-5.4-.75h5a2.52,2.52,0,0,0-5,0Z"/><path class="cls-2" d="M5,8.1A.41.41,0,0,1,4.74,8a.38.38,0,0,1-.09-.53l1-1.38a.38.38,0,1,1,.61.44l-1,1.38A.38.38,0,0,1,5,8.1Z"/><path class="cls-2" d="M6,9.55H3.93a.38.38,0,0,1,0-.75H6a.38.38,0,1,1,0,.75Z"/><path class="cls-2" d="M2,16.77a.37.37,0,0,1-.38-.37v-.92A1.45,1.45,0,0,1,3,14a.71.71,0,0,0,.7-.71v-1a.38.38,0,0,1,.75,0v1A1.46,1.46,0,0,1,3,14.78a.7.7,0,0,0-.71.7v.92A.37.37,0,0,1,2,16.77Z"/><path class="cls-2" d="M8,16.77a.37.37,0,0,1-.38-.37v-.92a.7.7,0,0,0-.7-.7,1.47,1.47,0,0,1-1.46-1.46v-1a.37.37,0,0,1,.38-.37.36.36,0,0,1,.37.37v1a.71.71,0,0,0,.71.71,1.45,1.45,0,0,1,1.45,1.45v.92A.37.37,0,0,1,8,16.77Z"/></g></g></svg>