<svg width="512" height="512" viewBox="0 0 512 512" fill="none" xmlns="http://www.w3.org/2000/svg">
<g clip-path="url(#clip0_5973_1371)">
<circle cx="256" cy="512" r="200" fill="#FFE785"/>
<path d="M305.434 105.512C333.11 105.512 360.785 117.622 379.813 138.379L383.272 141.838L416.137 181.623C428.245 197.19 426.516 219.675 410.948 231.783C404.029 238.702 393.651 240.432 385.002 240.432H381.542L345.218 233.515V486.054H497.435C504.354 486.054 511.273 491.244 511.273 499.893C511.273 506.812 506.084 512 500.894 512H499.165H14.8378C7.91887 512 1 506.81 1 498.161C1 491.242 6.18919 486.054 11.3784 486.054H13.1081H276.028L269.109 403.026H198.19C170.514 403.026 146.298 380.541 146.298 352.865V349.406C146.298 337.298 149.757 325.187 158.406 316.539L160.136 313.08L215.487 254.271V235.242L184.352 242.163C167.055 245.623 149.757 235.244 144.568 219.676V216.217V214.486C142.838 205.837 144.568 195.457 149.757 186.808L151.487 185.081L184.352 145.296C201.65 122.81 229.325 110.7 257.001 108.97H262.19H305.434V105.512ZM281.218 219.676L239.704 228.325V245.622H255.271C272.569 245.622 272.569 269.838 257.001 271.568H255.271H232.785L179.163 330.378C175.704 335.567 172.244 340.758 172.244 345.948V347.675C172.244 361.513 182.622 373.621 196.46 373.621H198.19H267.38L265.65 351.134H232.785H231.055C217.217 349.404 217.217 326.917 231.055 325.187H232.785H263.92L262.19 313.08C260.461 295.783 284.677 294.054 288.137 309.621V311.353L303.704 484.327H319.272V271.568H300.245H298.515C284.677 269.838 284.677 247.352 298.515 245.622H300.245H319.272V228.325L281.218 219.676ZM305.434 131.458H257.001C236.244 131.458 217.217 140.109 203.379 155.676L199.92 159.135L167.055 198.92C165.325 200.65 165.325 204.109 165.325 207.569C167.055 212.758 170.514 214.486 175.704 214.486H177.433L279.488 193.73C281.218 193.73 281.218 193.73 282.947 193.73H284.677L386.732 214.486C390.191 214.486 391.921 214.484 395.38 212.754C398.84 209.295 400.569 204.107 397.11 200.647L395.38 198.92L362.515 159.135C348.677 143.567 329.65 133.189 310.623 133.189L305.434 131.458ZM281.218 0C301.974 0 319.272 15.5651 319.272 36.322V39.7806V57.078C319.272 77.8349 301.974 96.8628 279.488 96.8628C258.731 96.8628 241.434 81.2977 241.434 60.5408V57.078V39.7806C243.163 17.294 260.461 0 281.218 0ZM281.218 25.9461C274.299 25.9461 269.109 31.1328 269.109 36.322V38.0534V55.3508C269.109 62.2697 274.299 69.1895 282.947 69.1895C289.866 69.1895 295.056 63.9986 295.056 58.8094V57.078V39.7806C295.056 31.1319 288.137 25.9461 281.218 25.9461Z" fill="#494949"/>
<path d="M191.257 458.385C205.095 460.114 205.095 482.601 191.257 484.331H189.527H135.905C128.986 484.331 122.067 479.141 122.067 470.492C122.067 463.573 127.257 458.385 132.446 458.385H134.175H148.013V432.439H70.1752V458.385H82.2833C99.5807 458.385 99.5806 482.601 84.013 484.331H82.2833H26.9317C20.0128 484.331 13.0938 479.141 13.0938 470.492C13.0938 463.573 18.2829 458.385 23.4722 458.385H25.2019H42.4992V420.327C42.4992 413.408 47.6886 408.22 52.8778 408.22H54.6075H158.392C165.311 408.22 170.5 413.411 170.5 418.6V420.327V458.385H182.608H191.257Z" fill="#494949"/>
</g>
<defs>
<clipPath id="clip0_5973_1371">
<rect width="512" height="512" fill="white"/>
</clipPath>
</defs>
</svg>
