<svg xmlns="http://www.w3.org/2000/svg" viewBox="0 0 27.015 38.312"><defs><style>.cls-1{fill:#fff;}.cls-2{fill:#494949;}.cls-3{fill:#ffda66;}</style></defs><title>Asset 35</title><g id="Layer_2" data-name="Layer 2"><g id="Layer_1-2" data-name="Layer 1"><path class="cls-1" d="M20.322,20.2V15.054c0-3.914-3.914-5.48-5.089-5.48H6.426C2.9,9.574.75,13.293.75,15.642V35.018c0,1.957,2.74,2.544,2.74,2.544H16.326a4,4,0,0,0,4-4Z"/><path class="cls-2" d="M16.326,38.312H3.49a.7.7,0,0,1-.157-.017C3.2,38.266,0,37.552,0,35.018V15.642c0-2.78,2.5-6.818,6.426-6.818h8.807c1.609,0,5.839,1.916,5.839,6.23V33.565A4.752,4.752,0,0,1,16.326,38.312ZM3.58,36.812H16.326a3.25,3.25,0,0,0,3.246-3.247V15.054c0-3.5-3.573-4.73-4.339-4.73H6.426c-2.961,0-4.926,3.2-4.926,5.318V35.018C1.5,36.205,3.212,36.716,3.58,36.812Z"/><path class="cls-3" d="M12.622,15.867,7.512,26.031a5.522,5.522,0,0,0,.7,6.028l.029.036a5.523,5.523,0,0,0,8.581-.143h0a5.524,5.524,0,0,0,.651-5.752Z"/><path class="cls-2" d="M10.446,31.04a5.192,5.192,0,0,1-4.631-7.5L9.9,15.422a.74.74,0,0,1,.679-.413.752.752,0,0,1,.669.431l3.874,8.249a5.158,5.158,0,0,1-4.584,7.35Zm.1-13.565L7.155,24.21A3.658,3.658,0,0,0,7.62,28.2a3.578,3.578,0,0,0,2.889,1.336,3.659,3.659,0,0,0,3.251-5.212Z"/><path class="cls-2" d="M26.265,11.841a.75.75,0,0,1-.75-.75V7.982A6.49,6.49,0,0,0,19.032,1.5H4.633a.75.75,0,0,1,0-1.5h14.4a7.992,7.992,0,0,1,7.983,7.982v3.109A.75.75,0,0,1,26.265,11.841Z"/><path class="cls-2" d="M10.436,8.067a.75.75,0,0,1-.75-.75V1.04a.75.75,0,1,1,1.5,0V7.317A.75.75,0,0,1,10.436,8.067Z"/></g></g></svg>