<svg width="512" height="512" viewBox="0 0 512 512" fill="none" xmlns="http://www.w3.org/2000/svg">
<g clip-path="url(#clip0_6483_167)">
<circle cx="256" cy="512" r="200" fill="#FFE785"/>
<path d="M220.228 16.7896L397.439 18.5792C413.549 18.5792 426.079 31.1088 427.869 47.219V49.0085L429.659 226.22C429.659 240.541 418.919 254.862 404.599 256.652H479.78C495.89 256.652 508.42 269.182 510.21 285.292V287.081L512 464.293C512 480.403 499.47 494.722 483.36 496.512H479.78L302.568 494.723C286.458 494.723 273.928 482.193 272.138 466.083V464.293V394.482L175.477 485.773C162.947 496.513 145.047 496.512 134.307 487.562L132.517 485.773L9.00574 358.682C-1.73435 347.942 -3.52434 328.251 7.21575 315.721L9.00574 313.932L137.887 192.21C150.417 181.47 168.317 181.47 179.057 190.42L180.847 192.21L189.797 201.16L188.007 47.219C188.007 31.1088 200.537 16.79 216.648 15L220.228 16.7896ZM302.568 283.502C300.778 283.502 298.988 285.291 298.988 287.081V288.871V313.932L306.148 321.092C316.888 331.832 318.678 351.523 307.938 364.053L306.148 365.842L300.778 371.211V466.083C300.778 467.873 302.568 469.662 304.358 469.662H306.148L483.36 471.454C485.15 471.454 486.94 469.662 486.94 467.872V466.083L485.15 288.871C485.15 287.081 483.36 285.292 481.57 285.292H479.78L302.568 283.502ZM161.157 211.902C159.367 210.112 157.577 210.112 155.787 211.902H153.997L25.1159 333.621C23.3259 335.411 23.3259 337.202 25.1159 338.992V340.782L148.627 467.872C150.417 469.662 152.207 469.662 153.997 467.872H155.787L284.668 346.153V344.361C284.668 342.571 286.458 340.782 284.668 338.992V337.203L161.157 211.902ZM397.439 308.561C408.179 308.561 415.339 310.352 422.499 312.142C429.659 315.722 436.819 321.093 440.399 328.253C443.979 335.413 447.559 342.572 447.559 349.732C447.559 355.102 445.769 362.262 443.979 367.632L442.189 371.211L443.979 373.003L445.77 374.793C451.14 381.953 454.72 390.903 454.72 399.853C454.72 407.013 452.93 414.173 449.349 419.543C445.769 424.913 442.189 430.282 436.819 433.862C431.449 437.442 426.079 439.232 420.709 441.022C415.339 442.812 409.969 442.812 404.599 442.812H399.229H356.269C349.109 442.812 343.738 437.442 343.738 432.072V430.283V321.092C343.738 313.932 349.109 308.561 354.479 308.561H356.269H397.439ZM417.129 387.322H370.589V419.543H399.229C404.599 419.543 409.969 419.543 413.549 417.753C417.129 417.753 418.919 415.962 420.709 414.172C422.499 412.382 424.289 410.593 424.289 408.803C426.079 407.013 426.079 403.433 426.079 399.853C426.079 396.273 426.079 394.483 424.289 390.903C422.499 389.113 420.709 387.322 418.919 385.532L417.129 387.322ZM368.799 335.411V362.261H411.759L413.549 360.472C415.339 358.682 417.129 358.682 417.129 356.892C418.919 355.102 418.919 353.311 418.919 351.521C418.919 349.731 418.919 346.151 417.129 344.361C415.339 342.571 413.549 340.782 411.759 338.992C408.179 337.202 404.599 337.203 399.229 337.203H395.649L368.799 335.411ZM243.498 256.652L272.138 285.292C273.928 270.972 282.878 260.232 297.198 256.652H243.498ZM220.228 43.6398C218.438 43.6398 216.648 45.4289 216.648 47.219V49.0085L218.438 226.22C218.438 228.01 220.228 229.802 222.018 229.802H223.808L401.019 231.591H402.809C404.599 231.591 406.389 229.8 406.389 228.01V226.22L404.599 49.0085C404.599 47.2185 402.809 45.4294 401.019 45.4294H399.229L220.228 43.6398ZM311.518 86.6006C322.258 86.6006 331.209 88.3906 338.369 95.5507C345.529 100.921 349.108 106.29 352.689 115.24L354.479 118.82L329.419 127.77C327.629 122.4 325.838 118.82 322.258 117.03C320.468 115.24 316.888 113.451 311.518 113.451C306.148 113.451 300.778 115.24 297.198 117.03C293.618 118.82 291.828 122.4 290.038 125.98C288.248 131.35 286.458 136.721 286.458 142.091C286.458 149.251 288.248 156.41 290.038 161.78C291.828 165.36 293.618 168.94 297.198 170.73C300.778 172.52 304.358 174.31 309.728 174.31C315.098 174.31 318.678 172.52 322.258 170.73C325.838 168.94 327.629 165.361 329.419 159.991V158.201L356.269 163.57C354.479 176.1 349.109 185.05 340.158 192.21C331.208 199.37 322.258 202.952 311.518 202.952C302.568 202.952 293.618 201.161 286.458 195.791C277.508 190.421 272.138 183.26 268.558 174.31C264.978 165.359 263.188 156.41 263.188 145.67C263.188 136.72 264.978 127.769 266.768 120.609C270.348 111.659 275.718 102.71 284.668 97.3402C290.038 90.1802 298.988 86.6006 311.518 86.6006Z" fill="#494949"/>
<path d="M100.372 303.196C96.792 292.456 105.742 283.506 116.482 285.296H118.272L205.983 315.725L209.563 317.515L243.573 330.046C259.683 335.417 252.523 358.687 236.413 355.107H234.623L204.193 344.365L155.863 385.537L166.603 415.966C171.973 432.076 148.702 441.028 141.542 426.708V424.916L129.012 387.326L100.372 303.196ZM134.382 319.307L146.912 356.897L175.553 331.836L134.382 319.307Z" fill="#494949"/>
</g>
<defs>
<clipPath id="clip0_6483_167">
<rect width="512" height="512" fill="white"/>
</clipPath>
</defs>
</svg>
