<svg width="512" height="512" viewBox="0 0 512 512" fill="none" xmlns="http://www.w3.org/2000/svg">
<g clip-path="url(#clip0_6483_203)">
<circle cx="256" cy="512" r="200" fill="#FFE785"/>
<path d="M116.68 33C151.51 33 179.374 60.8635 181.116 95.6935V99.1767V104.401H482.395C498.068 104.401 512 116.592 512 132.265V134.007V449.218C512 464.891 499.81 477.081 484.136 478.823H482.395H29.6054C13.9319 478.823 0 466.633 0 450.959V449.218V134.007C0 118.333 12.1905 106.142 27.8639 104.401H29.6054H52.2449V99.1767C52.2449 64.3467 80.1088 36.4826 114.939 34.7411L116.68 33ZM52.2449 128.782H29.6054C27.8639 128.782 26.1225 130.524 26.1225 132.265V134.007V449.218C26.1225 450.959 27.8639 452.7 29.6054 452.7H31.3469H484.136C485.878 452.7 487.619 450.959 487.619 449.218V447.476V134.007C487.619 132.265 485.878 130.523 484.136 130.523H482.395H181.116V362.143C181.116 396.973 153.252 424.836 118.422 426.578H114.939C80.1088 426.578 52.2448 398.714 50.5033 363.884V360.401V128.782H52.2449ZM116.68 59.1225C95.7823 59.1225 78.3674 74.7955 78.3674 95.6935V99.1767V360.401C78.3674 381.299 95.7823 400.455 118.422 400.455C139.32 400.455 156.735 384.782 156.735 363.884V360.401V99.1767C156.735 78.2787 137.578 59.1225 116.68 59.1225ZM430.15 154.905C445.823 154.905 459.755 167.095 459.755 182.768V184.51V201.925C459.755 217.598 447.565 231.531 431.891 231.531H430.15H238.585C222.912 231.531 208.98 219.34 208.98 203.666V201.925V184.51C208.98 168.836 221.17 154.905 236.844 154.905H238.585H430.15ZM430.15 181.027H238.585C236.844 181.027 235.102 182.768 235.102 184.51V186.252V203.666C235.102 205.408 236.844 207.15 238.585 207.15H240.327H431.891C433.633 207.15 435.374 205.408 435.374 203.666V201.925V184.51C435.374 184.51 433.633 182.769 430.15 181.027Z" fill="#494949"/>
<path d="M282.111 386.521C287.335 386.521 290.818 390.004 290.818 395.228V412.643C290.818 417.867 287.335 421.35 282.111 421.35H264.696C259.471 421.35 255.988 417.867 255.988 412.643V395.228C255.988 390.004 259.471 386.521 264.696 386.521H282.111ZM343.063 386.521C348.288 386.521 351.771 390.004 351.771 395.228V412.643C351.771 417.867 348.288 421.35 343.063 421.35H325.648C320.424 421.35 316.941 417.867 316.941 412.643V395.228C316.941 390.004 320.424 386.521 325.648 386.521H343.063ZM404.016 386.521C409.24 386.521 412.723 390.004 412.723 395.228V412.643C412.723 417.867 409.24 421.35 404.016 421.35H386.601C381.376 421.35 377.893 417.867 377.893 412.643V395.228C377.893 390.004 381.376 386.521 386.601 386.521H404.016ZM282.111 325.568C287.335 325.568 290.818 329.051 290.818 334.276V351.691C290.818 356.915 287.335 360.398 282.111 360.398H264.696C259.471 360.398 255.988 356.915 255.988 351.691V334.276C255.988 329.051 259.471 325.568 264.696 325.568H282.111ZM343.063 325.568C348.288 325.568 351.771 329.051 351.771 334.276V351.691C351.771 356.915 348.288 360.398 343.063 360.398H325.648C320.424 360.398 316.941 356.915 316.941 351.691V334.276C316.941 329.051 320.424 325.568 325.648 325.568H343.063ZM404.016 325.568C409.24 325.568 412.723 329.051 412.723 334.276V351.691C412.723 356.915 409.24 360.398 404.016 360.398H386.601C381.376 360.398 377.893 356.915 377.893 351.691V334.276C377.893 329.051 381.376 325.568 386.601 325.568H404.016ZM282.111 264.616C287.335 264.616 290.818 268.099 290.818 273.323V290.738C290.818 295.963 287.335 299.446 282.111 299.446H264.696C259.471 299.446 255.988 295.963 255.988 290.738V273.323C255.988 268.099 259.471 264.616 264.696 264.616H282.111ZM343.063 264.616C348.288 264.616 351.771 268.099 351.771 273.323V290.738C351.771 295.963 348.288 299.446 343.063 299.446H325.648C320.424 299.446 316.941 295.963 316.941 290.738V273.323C316.941 268.099 320.424 264.616 325.648 264.616H343.063ZM404.016 264.616C409.24 264.616 412.723 268.099 412.723 273.323V290.738C412.723 295.963 409.24 299.446 404.016 299.446H386.601C381.376 299.446 377.893 295.963 377.893 290.738V273.323C377.893 268.099 381.376 264.616 386.601 264.616H404.016Z" fill="#494949"/>
</g>
<defs>
<clipPath id="clip0_6483_203">
<rect width="512" height="512" fill="white"/>
</clipPath>
</defs>
</svg>
