<svg width="512" height="512" viewBox="0 0 512 512" fill="none" xmlns="http://www.w3.org/2000/svg">
<g clip-path="url(#clip0_6483_266)">
<circle cx="256" cy="512" r="200" fill="#FFE785"/>
<path d="M187.687 115.791C203.013 102.169 223.446 97.0604 243.88 97.0604H248.989L286.45 102.169C311.993 105.575 329.021 127.711 327.318 151.55V154.956L347.752 190.715C347.752 190.715 347.752 192.418 349.455 192.418L422.676 226.474C438.001 233.286 446.515 252.017 439.704 269.045C432.893 284.37 415.864 292.884 400.539 287.776L398.836 286.073L315.398 253.719C311.993 252.017 310.29 250.314 306.884 248.611L298.37 286.073L405.648 458.057C414.162 471.68 410.756 490.411 398.836 502.33L397.134 504.033L395.431 505.736L392.025 507.439C376.7 514.25 359.671 510.845 347.752 498.925L346.049 497.222L262.611 391.647L260.908 395.053C259.205 400.161 255.8 405.27 252.394 408.676L248.989 412.081L170.659 497.222C157.037 512.547 134.9 515.953 116.169 507.439C114.466 507.439 112.763 505.736 111.061 504.033C95.7352 493.816 92.3295 473.383 100.844 459.76L102.546 458.057L167.253 367.808C168.956 364.403 172.362 360.997 172.362 355.888V352.483L187.687 275.856C187.687 272.45 187.687 270.748 189.39 267.342L191.093 262.233L208.121 195.824L194.498 204.338C194.498 204.338 194.498 204.338 192.796 206.041V207.743L172.362 291.181C167.253 308.21 150.225 320.129 133.197 316.724C116.169 313.318 104.249 299.696 105.952 282.667V279.262L128.089 180.498C129.792 171.984 134.9 163.47 141.711 156.659L145.117 154.956L187.687 115.791ZM70.1929 476.788C77.0042 476.788 83.8154 481.897 83.8154 490.411C83.8154 497.222 78.707 502.33 73.5985 502.33H71.8957H27.6226C20.8113 502.33 14 497.222 14 488.708C14 481.897 19.1084 476.788 24.2169 476.788H25.9198H70.1929ZM300.073 476.788C306.884 476.788 313.695 481.897 313.695 490.411C313.695 497.222 308.587 502.33 303.479 502.33H301.776H221.744C214.932 502.33 208.121 497.222 208.121 488.708C208.121 481.897 213.229 476.788 218.338 476.788H220.041H300.073ZM483.977 476.788C490.788 476.788 497.6 481.897 497.6 490.411C497.6 497.222 492.491 502.33 487.383 502.33H485.68H436.298C429.487 502.33 422.676 497.222 422.676 488.708C422.676 481.897 427.784 476.788 432.892 476.788H434.595H483.977ZM206.418 320.129L199.607 355.888C197.904 362.7 196.201 369.511 191.093 376.322L189.39 379.728L124.683 469.977C121.277 473.383 122.98 478.491 126.386 481.897C126.386 481.897 126.386 481.897 128.089 481.897C134.9 485.302 145.117 483.6 150.225 478.491L151.928 476.788L230.258 391.647C233.663 388.242 235.366 384.836 237.069 381.43L238.772 378.025L243.88 364.402L206.418 320.129ZM245.583 122.603C231.96 120.9 218.338 124.306 206.418 132.82L203.012 134.522L157.036 171.984C153.631 173.687 151.928 177.093 150.225 182.201V183.904L128.089 282.667C128.089 286.073 129.791 289.479 133.197 289.479C138.305 289.479 141.711 287.776 143.414 284.37V282.667L163.848 199.229C165.551 192.418 168.956 187.31 174.065 182.201L175.767 180.498L216.635 154.956C225.149 149.848 237.069 156.659 235.366 166.876V168.579L211.527 263.936L209.824 274.153C209.824 280.965 211.527 289.479 216.635 294.587L218.338 297.993L359.671 478.491C363.077 481.897 368.186 483.6 373.294 481.897H374.997L376.7 480.194C380.105 478.491 380.105 473.383 378.402 471.68V469.977L269.422 292.884C267.719 291.181 267.719 287.776 267.719 284.37V282.667L300.073 151.55V149.848C301.776 139.631 294.965 129.414 283.045 126.008H281.342L245.583 122.603ZM320.507 190.715L315.398 212.852L322.209 224.772C322.209 224.772 322.21 226.474 323.912 226.474L407.35 258.828C410.756 260.531 415.864 258.828 415.864 255.422C417.567 252.017 415.864 248.611 414.162 246.908H412.459L339.238 212.852C334.129 211.149 330.724 207.743 327.318 202.635L325.615 200.932L320.507 190.715ZM293.262 0C322.21 0 344.346 22.1366 344.346 51.0845C344.346 80.0323 322.21 102.169 293.262 102.169C264.314 102.169 242.177 80.0323 242.177 51.0845C242.177 22.1366 264.314 0 293.262 0ZM293.262 25.5422C279.639 25.5422 267.719 37.4619 267.719 51.0845C267.719 64.707 279.639 76.6267 293.262 76.6267C306.884 76.6267 318.804 64.707 318.804 51.0845C318.804 37.4619 306.884 25.5422 293.262 25.5422Z" fill="#494949"/>
<path d="M148.45 107.274C151.855 112.382 151.855 119.193 148.45 124.302L146.747 126.004L121.205 148.141C116.096 153.249 110.988 160.061 109.285 166.872V170.278L99.068 221.362C97.3651 228.173 90.5539 233.282 83.7426 231.579C76.9313 229.876 73.5257 224.768 73.5257 217.957V216.254L83.7426 165.169C85.4454 151.547 92.2568 141.33 102.474 131.113L105.879 127.707L131.421 105.571C136.53 102.165 145.044 102.165 148.45 107.274ZM102.474 90.2454C107.582 95.3539 107.582 102.165 102.474 107.274L100.771 108.976L83.7426 126.004C80.337 129.41 76.9313 134.519 75.2285 139.627L73.5257 143.033L65.0117 171.981C63.3088 178.792 56.4976 182.197 49.6863 180.495C42.875 178.792 39.4694 171.981 41.1722 166.872V165.169L49.6863 136.221C53.0919 127.707 58.2004 119.193 63.3089 112.382L66.7144 108.976L83.7426 91.9481C90.5539 85.1368 97.3652 85.137 102.474 90.2454Z" fill="#494949"/>
</g>
<defs>
<clipPath id="clip0_6483_266">
<rect width="512" height="512" fill="white"/>
</clipPath>
</defs>
</svg>
