<svg width="512" height="512" viewBox="0 0 512 512" fill="none" xmlns="http://www.w3.org/2000/svg">
<g clip-path="url(#clip0_5981_1424)">
<circle cx="256" cy="512" r="200" fill="#FFE785"/>
<path d="M165.15 432.282C194.813 441.552 224.477 445.259 255.994 445.259C283.804 445.259 311.613 441.552 337.569 434.136L346.839 432.282L354.255 458.237C322.737 467.507 289.366 473.069 255.994 473.069C224.477 473.069 194.813 469.361 167.004 460.091L157.734 456.383L165.15 432.282ZM26.1016 339.583C50.2032 369.247 79.8669 393.348 113.238 410.034L120.654 413.742L107.676 437.844C70.597 419.304 37.2254 393.348 9.41578 361.831L3.85394 354.415L26.1016 339.583ZM487.741 337.729L509.989 354.415C485.887 385.932 454.369 411.888 419.144 430.428L411.728 434.136L398.75 410.034C432.122 393.348 463.639 367.392 487.741 337.729ZM157.734 33.6774L159.588 37.3853L163.296 39.2394C198.521 52.2172 228.185 80.0267 241.162 115.252L243.017 120.814L252.286 148.624L317.175 146.77C332.007 146.77 346.839 150.478 357.963 157.894L361.671 156.04C406.166 133.792 450.662 152.332 471.055 193.119C480.325 211.659 480.325 237.614 471.055 256.154C465.493 267.278 459.931 274.694 448.807 276.548C437.684 278.402 428.414 270.986 422.852 258.008L420.998 256.154C411.728 230.199 400.604 220.929 391.334 220.929L393.188 274.694L426.56 332.167C433.976 326.605 439.538 319.189 445.099 311.773L467.347 328.459C417.29 389.64 339.423 426.72 255.994 426.72C176.273 426.72 102.114 393.348 52.0572 337.729L48.3493 332.167L68.743 313.627C78.0129 324.751 87.2827 334.021 98.4065 343.291L144.756 261.716V259.862C142.902 239.468 137.34 219.075 129.924 198.681L126.216 191.265L78.0129 233.907L2 193.119L78.0129 70.7569L50.2033 13.2836L63.181 7.72192C98.4065 -8.96384 137.34 2.15989 157.734 33.6774ZM317.175 315.481H217.061L178.127 384.078C204.083 393.348 230.039 397.056 257.848 397.056C291.22 397.056 324.591 389.64 354.255 378.517L317.175 315.481ZM172.565 267.278L120.654 358.123C129.924 363.685 139.194 369.247 148.464 372.955L200.375 283.964C204.083 278.402 200.375 269.132 192.959 265.424C187.397 259.862 178.127 261.716 172.565 267.278ZM341.277 263.57L339.423 265.424C332.007 269.132 328.299 276.548 330.153 280.256V282.11L378.357 365.539C387.626 359.977 396.896 354.415 406.166 346.999L369.087 282.11H367.233V278.402L359.817 265.424C356.109 261.716 348.693 259.862 341.277 263.57ZM90.9906 28.1155L109.53 70.7569L42.7874 181.995L76.1589 198.681L139.194 143.062L146.61 159.748C157.734 183.849 167.004 209.805 170.712 235.76C181.835 232.052 194.813 232.053 207.791 239.469C224.477 248.738 233.747 269.132 230.039 285.818H302.344C298.636 269.132 306.052 250.592 322.737 241.322L324.591 239.469C337.569 232.053 352.401 232.052 365.379 235.76V215.367C365.379 191.265 344.985 170.871 320.883 170.871H317.175L231.893 172.725L215.207 124.522C205.937 93.0045 179.981 68.9028 150.318 59.6329L146.61 57.7791L141.048 55.9251L135.486 46.6552C126.216 35.5314 109.53 26.2615 90.9906 28.1155ZM380.21 176.433C382.064 181.995 383.918 185.703 385.772 189.411C408.02 183.849 430.268 202.389 445.099 233.907L446.954 239.469V235.76C448.808 226.491 448.807 213.513 445.099 204.243L443.246 202.389C430.268 178.287 408.02 167.164 382.065 174.58L380.21 176.433Z" fill="#494949"/>
<path d="M126.189 408.182C153.998 408.182 178.1 430.43 178.1 460.093C178.1 489.757 155.852 512.005 126.189 512.005C96.5251 512.005 74.2773 489.757 74.2773 460.093C74.2773 430.43 98.3791 408.182 126.189 408.182ZM385.745 408.182C413.554 408.182 437.656 430.43 437.656 460.093C437.656 489.757 415.408 512.005 385.745 512.005C356.081 512.005 333.834 489.757 333.834 460.093C333.834 430.43 357.935 408.182 385.745 408.182ZM126.189 435.992C113.211 435.992 102.087 447.116 102.087 460.093C102.087 473.071 113.211 484.195 126.189 484.195C139.166 484.195 150.29 473.071 150.29 460.093C150.29 447.116 139.166 435.992 126.189 435.992ZM385.745 435.992C372.767 435.992 361.643 447.116 361.643 460.093C361.643 473.071 372.767 484.195 385.745 484.195C398.723 484.195 409.847 473.071 409.847 460.093C409.847 447.116 398.723 435.992 385.745 435.992Z" fill="#494949"/>
</g>
<defs>
<clipPath id="clip0_5981_1424">
<rect width="512" height="512" fill="white"/>
</clipPath>
</defs>
</svg>
