<svg xmlns="http://www.w3.org/2000/svg" viewBox="0 0 13.39 18.01"><defs><style>.cls-1{fill:#ffda66;}.cls-2{fill:#494949;}</style></defs><g id="Layer_2" data-name="Layer 2"><g id="Layer_1-2" data-name="Layer 1"><path class="cls-1" d="M.86,12.46A5.8,5.8,0,0,0,.86.86H.37v11.6Z"/><path class="cls-2" d="M11.91,18H1.47A1.47,1.47,0,0,1,0,16.53v-15A1.47,1.47,0,0,1,1.47,0H11.91a1.48,1.48,0,0,1,1.48,1.48V16.53A1.48,1.48,0,0,1,11.91,18ZM1.47.75a.73.73,0,0,0-.72.73V16.53a.73.73,0,0,0,.72.73H11.91a.73.73,0,0,0,.73-.73v-15a.73.73,0,0,0-.73-.73Z"/><path class="cls-2" d="M4.41,15.73H3.23a.38.38,0,1,1,0-.75H4.41a.38.38,0,1,1,0,.75Z"/><path class="cls-2" d="M10,15.73H8.78a.38.38,0,0,1,0-.75H10a.38.38,0,1,1,0,.75Z"/><path class="cls-2" d="M9.37,16.32A.37.37,0,0,1,9,16V14.77a.38.38,0,1,1,.75,0V16A.37.37,0,0,1,9.37,16.32Z"/><path class="cls-2" d="M10.57,13.42H2.82a.38.38,0,0,1,0-.75h7.75a.38.38,0,0,1,0,.75Z"/><path class="cls-2" d="M6.75,11.27a4.61,4.61,0,1,1,4.61-4.61A4.62,4.62,0,0,1,6.75,11.27Zm0-8.47a3.86,3.86,0,1,0,3.86,3.86A3.86,3.86,0,0,0,6.75,2.8Z"/><path class="cls-2" d="M5.92,9.2a.34.34,0,0,1-.19,0,.38.38,0,0,1-.13-.52l.3-.49a.75.75,0,0,0-.2-1,1.52,1.52,0,0,1-.42-2l.36-.62a.38.38,0,0,1,.51-.14.37.37,0,0,1,.14.51l-.36.63a.75.75,0,0,0,.21,1,1.5,1.5,0,0,1,.4,2L6.24,9A.36.36,0,0,1,5.92,9.2Z"/><path class="cls-2" d="M7.67,9.2a.35.35,0,0,1-.2,0,.39.39,0,0,1-.13-.52l.3-.49a.74.74,0,0,0-.2-1,1.52,1.52,0,0,1-.41-2l.36-.62A.37.37,0,1,1,8,4.92l-.36.63a.75.75,0,0,0,.21,1,1.52,1.52,0,0,1,.4,2L8,9A.37.37,0,0,1,7.67,9.2Z"/></g></g></svg>