<svg xmlns="http://www.w3.org/2000/svg" viewBox="0 0 19.63 12.97"><defs><style>.cls-1{fill:#ffda66;}.cls-2{fill:#494949;}</style></defs><g id="Layer_2" data-name="Layer 2"><g id="Layer_1-2" data-name="Layer 1"><path class="cls-1" d="M17.49,1.62a4.3,4.3,0,0,1-5,7Z"/><path class="cls-1" d="M2.2,1.62a4.3,4.3,0,0,0,5,7Z"/><path class="cls-2" d="M14.66,9.09a4.9,4.9,0,0,1-2.86-.91.33.33,0,0,1-.15-.24.35.35,0,0,1,.06-.28L17,.16a.37.37,0,0,1,.52-.09,5,5,0,0,1-2.87,9ZM12.55,7.77A4.22,4.22,0,0,0,17.4.91Z"/><path class="cls-2" d="M17.71,13H12.53a.37.37,0,0,1-.38-.37,3,3,0,1,1,5.93,0A.36.36,0,0,1,17.71,13Zm-4.78-.75H17.3a2.22,2.22,0,0,0-4.37,0Z"/><path class="cls-2" d="M5,9.09A5,5,0,0,1,2.1.07a.38.38,0,0,1,.53.09l5.3,7.5a.37.37,0,0,1-.09.52A4.9,4.9,0,0,1,5,9.09ZM2.24.91A4.22,4.22,0,0,0,7.09,7.77Z"/><path class="cls-2" d="M7.11,13H1.93a.37.37,0,0,1-.38-.37,3,3,0,1,1,5.93,0A.36.36,0,0,1,7.11,13Zm-4.78-.75H6.7a2.22,2.22,0,0,0-4.37,0Z"/></g></g></svg>