<svg width="512" height="512" viewBox="0 0 512 512" fill="none" xmlns="http://www.w3.org/2000/svg">
<g clip-path="url(#clip0_6483_198)">
<circle cx="256" cy="512" r="200" fill="#FFE785"/>
<path d="M256.81 1.80865L348.961 19.8775C350.768 19.8775 352.575 21.6839 354.382 21.6839L356.189 23.4903L410.395 77.6968C414.009 81.3106 415.816 88.539 414.009 92.1527L412.202 93.9592L377.871 144.551V280.067C377.871 296.329 372.451 312.591 361.609 325.239L357.996 328.854L336.313 350.535C330.892 355.956 323.665 361.378 314.63 364.991V383.06L345.347 392.095H347.154L450.146 424.617C470.022 430.038 484.477 444.494 493.512 464.37L495.318 467.983L504.353 495.086C506.16 502.314 502.546 509.541 495.318 511.348C488.091 513.155 482.67 511.348 479.057 504.12V502.314L470.022 475.211C466.408 464.369 457.374 455.335 446.533 449.914L442.919 448.108L348.961 419.198L311.017 484.245C307.403 491.473 298.368 493.279 291.141 487.858L289.334 486.052L253.196 449.914L213.445 486.052C208.024 491.472 197.183 489.666 193.569 484.245L191.762 482.439L162.852 419.198L68.8945 448.108C58.0532 451.721 49.0187 460.757 43.5981 471.598L41.7912 475.211L32.7568 502.314C30.9499 509.541 21.9155 513.155 16.4949 511.348C9.26734 509.541 5.65357 502.313 7.46045 496.892V495.086L16.4949 467.983C23.7224 448.107 38.1775 433.653 56.2463 426.426L59.86 424.617L162.852 392.095H164.659L195.376 381.254V363.185C188.149 359.571 182.728 355.956 177.307 352.342L173.694 348.729L152.011 327.047C141.17 316.206 133.942 299.944 132.135 283.682V280.067V144.551L97.8045 93.9592C94.1908 88.5385 94.1908 83.1174 97.8045 77.6968L99.6115 75.8903L153.818 21.6839C155.625 19.877 157.432 19.8757 159.239 18.0688H161.045L251.389 0C255.003 1.80688 256.81 0.00176451 256.81 1.80865ZM305.596 408.357L274.879 435.46L298.369 458.948L323.665 415.583L305.596 408.357ZM206.217 410.163L188.149 415.583L208.024 458.948L233.321 435.46L206.217 410.163ZM289.334 372.219H226.093V390.288L255.003 417.391L289.334 388.48V372.219ZM256.81 209.6C215.252 209.6 179.114 193.337 161.045 169.847V281.875C161.045 290.91 162.852 298.136 168.273 305.363L170.08 308.979L171.887 310.785L193.569 332.467C200.797 339.694 209.831 343.309 218.866 345.116H222.479H285.72C294.755 345.116 303.789 341.502 311.017 336.082L312.823 334.273L334.506 312.591C341.734 305.364 345.347 296.329 347.154 287.295V283.682V171.654C334.506 193.336 298.368 209.6 256.81 209.6ZM278.493 278.26C285.72 278.26 292.948 283.682 292.948 292.716C292.948 299.944 287.527 305.363 282.107 305.363H280.3H244.162C236.935 305.363 229.707 299.944 229.707 290.91C229.707 283.682 235.128 278.26 240.548 278.26H242.355H278.493ZM329.085 155.394H184.535C195.376 169.849 222.479 182.497 256.81 182.497C291.141 182.497 318.244 169.849 329.085 155.394ZM256.81 28.9119L173.694 45.172L130.328 88.5376L155.625 128.29H357.996L383.292 88.5376L339.927 45.172L256.81 28.9119Z" fill="#494949"/>
<path d="M256.773 95.7566L240.511 104.791C238.704 104.791 236.897 104.791 236.897 102.985V101.178L240.511 83.1093L227.863 70.4598C226.056 68.6529 226.056 68.6538 227.863 66.8469H229.67L247.739 65.0405L256.773 48.7781C256.773 46.9712 258.58 46.9717 260.387 46.9717C260.387 46.9717 262.194 46.9712 262.194 48.7781L271.228 65.0405L289.297 66.8469C291.104 66.8469 291.104 68.6529 291.104 70.4598V72.2663L278.456 84.9158L282.069 102.985C282.069 104.791 282.069 106.597 280.263 106.597H278.456L256.773 95.7566Z" fill="#494949"/>
</g>
<defs>
<clipPath id="clip0_6483_198">
<rect width="512" height="512" fill="white"/>
</clipPath>
</defs>
</svg>
