<svg xmlns="http://www.w3.org/2000/svg" viewBox="0 0 31.614 23.587"><defs><style>.cls-1{fill:#ffda66;}.cls-2{fill:#494949;}</style></defs><title>Asset 35</title><g id="Layer_2" data-name="Layer 2"><g id="Layer_1-2" data-name="Layer 1"><path class="cls-1" d="M17.948,23.586c5.761-.218,7.028-4.056,7.459-6.64a80.55,80.55,0,0,0,.443-8.867c-4.865-2.27-7.12-2.642-7.98-2.679l-.537,0c-.925.059-3.189.482-7.887,2.674a80.37,80.37,0,0,0,.444,8.867c.431,2.587,1.7,6.432,7.479,6.641Z"/><path class="cls-2" d="M23.165,16.223a.75.75,0,0,1-.27-1.45c1.762-.68,5.719-4.329,6.9-8.25A5.324,5.324,0,0,0,29.252,1.7C29.1,1.49,29,1.5,28.942,1.5c-1.019.054-3.19,2.838-4.616,5.386a.75.75,0,0,1-1.309-.732C23.58,5.15,26.5.129,28.862,0a1.794,1.794,0,0,1,1.613.83,6.834,6.834,0,0,1,.756,6.122c-1.292,4.288-5.48,8.323-7.8,9.218A.759.759,0,0,1,23.165,16.223Z"/><path class="cls-2" d="M8.449,16.223a.759.759,0,0,1-.271-.05c-2.315-.895-6.5-4.93-7.8-9.218A6.834,6.834,0,0,1,1.139.833,1.811,1.811,0,0,1,2.752,0C5.111.129,8.035,5.15,8.6,6.155a.749.749,0,1,1-1.308.732C5.862,4.339,3.691,1.555,2.672,1.5c-.061,0-.161-.011-.31.2A5.324,5.324,0,0,0,1.82,6.523c1.18,3.921,5.137,7.57,6.9,8.25a.75.75,0,0,1-.27,1.45Z"/><path class="cls-2" d="M15.534,22.155c-4.518-.163-7.173-2.518-7.921-7a76.637,76.637,0,0,1-.435-8.634.75.75,0,0,1,.433-.68c4.61-2.151,6.889-2.574,7.838-2.635l.557-.006c.977.04,3.256.436,7.983,2.641a.751.751,0,0,1,.432.68,76.79,76.79,0,0,1-.434,8.633c-.748,4.476-3.4,6.83-7.871,7h-.582Zm.553-.751h0ZM8.68,7a69.824,69.824,0,0,0,.413,7.909c.4,2.381,1.5,5.568,6.467,5.748l.512,0c4.94-.192,6.038-3.371,6.434-5.746A69.361,69.361,0,0,0,22.919,7c-4.351-1.991-6.294-2.273-6.937-2.3l-.479,0C14.886,4.745,12.929,5.056,8.68,7Z"/></g></g></svg>