<svg width="512" height="512" viewBox="0 0 512 512" fill="none" xmlns="http://www.w3.org/2000/svg">
<g clip-path="url(#clip0_3800_3187)">
<circle cx="256" cy="557" r="200" fill="#FFE785"/>
<path d="M496.941 480.151H454.475V285.742C459.143 288.076 464.188 289.431 469.534 289.431C478.795 289.431 487.529 285.742 493.929 278.965C500.254 272.49 503.567 263.906 503.416 254.871C503.19 245.76 499.501 237.327 492.95 231.078L454.475 194.184V91.7087C454.475 68.4428 435.576 49.544 412.31 49.544C389.045 49.544 370.146 68.4428 370.146 91.7087V113.318L279.492 26.2781C266.315 13.6287 245.685 13.6287 232.508 26.2781L196.668 60.6875C193.656 63.5487 193.581 68.2922 196.442 71.304C199.303 74.3157 204.122 74.391 207.059 71.5298L242.974 37.1204C250.278 30.1181 261.722 30.1181 269.026 37.1204L482.56 241.996C486.174 245.459 488.207 250.127 488.358 255.172C488.433 260.142 486.551 264.96 483.087 268.575C476.085 275.803 463.736 276.104 456.508 269.102L261.195 81.7698C258.334 78.984 253.666 78.984 250.805 81.7698L55.4916 269.102C48.0375 276.33 36.0658 276.029 28.9128 268.575C25.4493 264.96 23.5669 260.142 23.6422 255.172C23.7928 250.127 25.8258 245.459 29.4399 241.996L175.285 102.024C178.296 99.1628 178.372 94.4193 175.51 91.4075C172.649 88.3957 167.83 88.3204 164.894 91.1816L19.0493 231.078C12.4987 237.327 8.8093 245.76 8.58341 254.871C8.43283 263.906 11.7458 272.49 18.0705 278.965C28.5364 289.958 44.574 292.142 57.5246 285.742V339.803C57.5246 343.944 60.9128 347.332 65.054 347.332C69.1952 347.332 72.5834 343.944 72.5834 339.803V273.619L256 97.6569L439.416 273.619V480.151H361.863V426.09C361.863 400.942 341.383 380.462 316.235 380.462H294.023C286.569 380.462 279.567 384.452 275.652 390.852L256 423.153L236.273 390.777C232.433 384.452 225.355 380.462 217.901 380.462H195.765C170.616 380.462 150.136 400.942 150.136 426.09V480.151H72.5834V386.033C72.5834 381.892 69.1952 378.504 65.054 378.504C60.9128 378.504 57.5246 381.892 57.5246 386.033V480.151H15.0587C10.9175 480.151 7.5293 483.539 7.5293 487.68C7.5293 491.822 10.9175 495.21 15.0587 495.21H496.941C501.082 495.21 504.47 491.822 504.47 487.68C504.47 483.539 501.082 480.151 496.941 480.151ZM439.416 179.727L385.205 127.699V91.7087C385.205 76.7251 397.402 64.6028 412.31 64.6028C427.294 64.6028 439.416 76.7251 439.416 91.7087V179.727ZM346.805 480.151H165.195V426.09C165.195 409.224 178.899 395.52 195.765 395.52H217.901C220.16 395.52 222.268 396.725 223.398 398.607L243.576 431.812C246.287 436.179 250.88 438.739 256 438.739C261.12 438.739 265.713 436.179 268.348 431.812L288.527 398.607C289.656 396.725 291.765 395.52 294.023 395.52H316.235C333.101 395.52 346.805 409.224 346.805 426.09V480.151Z" fill="#494949"/>
<path d="M255.999 360.81C291.463 360.81 320.301 331.973 320.301 296.509C320.301 261.121 291.463 232.283 255.999 232.283C220.536 232.283 191.774 261.121 191.774 296.509C191.698 331.973 220.536 360.81 255.999 360.81ZM255.999 247.342C283.181 247.342 305.242 269.403 305.242 296.509C305.242 323.69 283.181 345.751 255.999 345.751C228.894 345.751 206.832 323.69 206.832 296.509C206.757 269.403 228.818 247.342 255.999 247.342Z" fill="#494949"/>
</g>
<defs>
<clipPath id="clip0_3800_3187">
<rect width="512" height="512" fill="white"/>
</clipPath>
</defs>
</svg>
