<svg xmlns="http://www.w3.org/2000/svg" viewBox="0 0 11.04 17.61"><defs><style>.cls-1{fill:#ffda66;}.cls-2{fill:#494949;}</style></defs><g id="Layer_2" data-name="Layer 2"><g id="Layer_1-2" data-name="Layer 1"><path class="cls-1" d="M1,17.23A7.19,7.19,0,0,0,1,2.85H.37V17.23Z"/><path class="cls-2" d="M9.56,17.61H1.47A1.48,1.48,0,0,1,0,16.13V1.48A1.47,1.47,0,0,1,1.47,0H9.56A1.48,1.48,0,0,1,11,1.48V16.13A1.49,1.49,0,0,1,9.56,17.61ZM1.47.75a.73.73,0,0,0-.72.73V16.13a.73.73,0,0,0,.72.73H9.56a.73.73,0,0,0,.73-.73V1.48A.73.73,0,0,0,9.56.75Z"/><path class="cls-2" d="M2.2,2.28V6.51l.17,0a8.2,8.2,0,0,1,.85-.1h.14V4.83Z"/><polygon class="cls-2" points="4.37 1.58 4.37 3.24 5.52 5.8 5.52 1.58 4.37 1.58"/><path class="cls-2" d="M4.37,3.94l-.11-.23L3.31,1.58H2.2L3.82,5.16l.55,1.21h.09c.3,0,.6,0,.9.1l.16,0Z"/><path class="cls-2" d="M7.36,10.45h0a3.93,3.93,0,0,0-.84.09,1.56,1.56,0,0,0-.37.1,1.22,1.22,0,0,0-.71,1.54.94.94,0,0,0,.46.52,1.17,1.17,0,0,0,.76.09,1.38,1.38,0,0,0,.6-.25l.25-.22,0,0a4.35,4.35,0,0,0,.34.41.15.15,0,0,0,.19,0l.51-.43a.05.05,0,0,0,0,0,.13.13,0,0,0,0-.13L8.43,12a.71.71,0,0,1-.13-.31,1,1,0,0,1,0-.17V10.06a1.57,1.57,0,0,0,0-.37,1,1,0,0,0-.34-.47,1.72,1.72,0,0,0-1.8-.09,1.22,1.22,0,0,0-.62.84.12.12,0,0,0,.08.15h0l.33,0,.24,0a.13.13,0,0,0,.15-.09.62.62,0,0,1,.81-.4.41.41,0,0,1,.24.39v.38Zm-.12,1.38a1.21,1.21,0,0,1-.21.24.41.41,0,0,1-.35.08l-.15-.06a.4.4,0,0,1-.19-.28.68.68,0,0,1,0-.4.61.61,0,0,1,.28-.33.67.67,0,0,1,.31-.1l.4,0h0v.43A.75.75,0,0,1,7.24,11.83Z"/><path class="cls-2" d="M4.92,13.19l-.19-.11A.57.57,0,0,1,4.6,13l-.2-.12s0,0-.06,0h0a0,0,0,0,0,0,.07l.15.16s.07.06.1.1l.34.28.2.13.27.16.27.12.17.06a2,2,0,0,0,.35.09l.31,0h.21l.34,0L7.32,14,7.6,14l.21-.07L8,13.82l.22-.12.19-.12.14-.11.18-.17a.08.08,0,0,0,0-.08.11.11,0,0,0-.08,0l-.08,0-.39.17a2.67,2.67,0,0,1-.4.13l-.19.06-.13,0-.2.05H6.36l-.13,0-.3-.05a2.07,2.07,0,0,1-.33-.1l-.26-.1-.21-.1Z"/><path class="cls-2" d="M9.49,13a1.52,1.52,0,0,0,0-.21.16.16,0,0,0-.15-.17l-.2,0-.33,0a1.42,1.42,0,0,0-.4.17l0,0h0l.14,0,.31,0,.22,0a.15.15,0,0,1,.13.17v0c0,.05,0,.11,0,.17s-.06.2-.1.31,0,.09,0,.14,0,0,0,0h0s0,0,0,0a2,2,0,0,0,.19-.22,1.34,1.34,0,0,0,.12-.24A.59.59,0,0,0,9.49,13Z"/><path class="cls-2" d="M2.51,10.28a.38.38,0,0,1-.22-.69l6-4.19A.37.37,0,0,1,8.67,6l-5.95,4.2A.4.4,0,0,1,2.51,10.28Z"/><circle class="cls-2" cx="5.52" cy="15.63" r="0.68"/></g></g></svg>