<svg xmlns="http://www.w3.org/2000/svg" viewBox="0 0 30.189 41.486"><defs><style>.cls-1{fill:#ffda66;}.cls-2{fill:#494949;}</style></defs><title>Asset 35</title><g id="Layer_2" data-name="Layer 2"><g id="Layer_1-2" data-name="Layer 1"><circle class="cls-1" cx="17.828" cy="25.098" r="12.361"/><path class="cls-2" d="M13.11,41.486A13.111,13.111,0,1,1,26.222,28.375,13.125,13.125,0,0,1,13.11,41.486Zm0-24.721a11.611,11.611,0,1,0,11.612,11.61A11.624,11.624,0,0,0,13.11,16.765Z"/><path class="cls-2" d="M21.146,19.777a.75.75,0,0,1-.75-.75V8.785a7.285,7.285,0,1,0-14.57,0,.75.75,0,0,1-1.5,0,8.785,8.785,0,1,1,17.57,0V19.027A.75.75,0,0,1,21.146,19.777Z"/><path class="cls-2" d="M13.11,36.071a.75.75,0,0,1-.75-.75V21.43a.75.75,0,0,1,1.5,0V35.321A.75.75,0,0,1,13.11,36.071Z"/></g></g></svg>