<svg xmlns="http://www.w3.org/2000/svg" viewBox="0 0 42.235 42.235"><defs><style>.cls-1{fill:#ffda66;}.cls-2{fill:#494949;}.cls-3{fill:#fff;}</style></defs><title>Asset 35</title><g id="Layer_2" data-name="Layer 2"><g id="Layer_1-2" data-name="Layer 1"><path class="cls-1" d="M36.3,34.675a13.526,13.526,0,1,0-27.051,0Z"/><path class="cls-2" d="M34.012,32.374H6.961a.75.75,0,0,1-.75-.75,14.276,14.276,0,0,1,28.551,0A.75.75,0,0,1,34.012,32.374Zm-26.28-1.5H33.24a12.776,12.776,0,0,0-25.508,0Z"/><circle class="cls-1" cx="16.381" cy="9.684" r="3.056"/><circle class="cls-3" cx="20.486" cy="17.225" r="3.739"/><path class="cls-2" d="M20.486,21.714a4.489,4.489,0,1,1,4.49-4.489A4.494,4.494,0,0,1,20.486,21.714Zm0-7.478a2.989,2.989,0,1,0,2.99,2.989A2.993,2.993,0,0,0,20.486,14.236Z"/><path class="cls-2" d="M15.618,11.965a3.806,3.806,0,1,1,3.807-3.806A3.81,3.81,0,0,1,15.618,11.965Zm0-6.112a2.306,2.306,0,1,0,2.307,2.306A2.309,2.309,0,0,0,15.618,5.853Z"/><path class="cls-2" d="M25.354,23.146H15.618a.75.75,0,0,1,0-1.5h9.736a.75.75,0,0,1,0,1.5Z"/><path class="cls-2" d="M21.118,42.235A21.118,21.118,0,1,1,42.235,21.118,21.142,21.142,0,0,1,21.118,42.235Zm0-40.735A19.618,19.618,0,1,0,40.735,21.118,19.64,19.64,0,0,0,21.118,1.5Z"/><path class="cls-2" d="M5.57,34.638a.75.75,0,0,1-.527-1.283L33.48,5.211a.75.75,0,0,1,1.055,1.067L6.1,34.421A.746.746,0,0,1,5.57,34.638Z"/></g></g></svg>