<svg xmlns="http://www.w3.org/2000/svg" viewBox="0 0 19.41 17.29"><defs><style>.cls-1{opacity:0.7;}.cls-2{fill:#ffcc05;}.cls-3{fill:#494949;}</style></defs><g id="Layer_2" data-name="Layer 2"><g id="Layer_1-2" data-name="Layer 1"><g class="cls-1"><path class="cls-2" d="M1.68,0a8.65,8.65,0,1,1,0,17.29Z"/></g><path class="cls-3" d="M14.9,15.38a4.51,4.51,0,1,1,4.51-4.5A4.51,4.51,0,0,1,14.9,15.38Zm0-8.26a3.76,3.76,0,1,0,3.76,3.76A3.77,3.77,0,0,0,14.9,7.12Z"/><path class="cls-3" d="M14.51,12.15a.36.36,0,0,1-.27-.11L13.2,11a.37.37,0,0,1,.54-.52l.79.81,1.56-1.34a.38.38,0,1,1,.49.57l-1.82,1.57A.4.4,0,0,1,14.51,12.15Z"/><path class="cls-3" d="M15.11,17.15A52.79,52.79,0,0,1,6.84,15.8L6,15.47l-.38-.16a3.22,3.22,0,0,1-2-1.55,3.22,3.22,0,0,1,.32-2.47C4.71,9.56,5.73,9,7.18,9.49l.44.2L8,9.88l.39.18a27.17,27.17,0,0,1,2.68,1.49.39.39,0,0,1,.12.52.38.38,0,0,1-.52.12,23.3,23.3,0,0,0-2.59-1.44l-.41-.19-.39-.19-.41-.18C6.22,10,5.41,9.83,4.62,11.6a2.55,2.55,0,0,0-.31,1.89c.22.56.88.84,1.57,1.13l.4.17.79.3a51.82,51.82,0,0,0,8.39,1.35,10.63,10.63,0,0,0-1-1.07.4.4,0,0,1,0-.54.39.39,0,0,1,.53,0c1.44,1.44,1.47,1.74,1.35,2S15.78,17.15,15.11,17.15ZM1.27,14.29a1.2,1.2,0,0,1-1.12-.77A1.19,1.19,0,0,1,.84,12a14,14,0,0,1,2.09-.32.34.34,0,0,1,.33.13.35.35,0,0,1,.07.34,4,4,0,0,0-.16.94.43.43,0,0,1-.16.3,6.79,6.79,0,0,1-1.32.83A1.25,1.25,0,0,1,1.27,14.29Zm1.22-1.82a8.86,8.86,0,0,0-1.38.22.44.44,0,1,0,.32.82,8.85,8.85,0,0,0,1-.65A3.1,3.1,0,0,1,2.49,12.47Zm.63-.82H3.06l-.28-.05a13.85,13.85,0,0,1-2.07-.41A1.21,1.21,0,0,1,1.68,9a18.24,18.24,0,0,1,1.93,1.45.36.36,0,0,1,.08.48.77.77,0,0,0-.08.19l-.06.14a1.33,1.33,0,0,1-.11.24A.38.38,0,0,1,3.12,11.65Zm-1.92-2a.44.44,0,0,0-.41.27.45.45,0,0,0,.23.6,17.19,17.19,0,0,0,1.88.36h0v0A17.82,17.82,0,0,0,1.39,9.66.58.58,0,0,0,1.2,9.62Zm2.58.76a.37.37,0,0,1-.3-.16A13.59,13.59,0,0,1,2.32,8.45a1.17,1.17,0,0,1,0-.9A1.29,1.29,0,0,1,3,6.9a1.2,1.2,0,0,1,1.54.69,9.15,9.15,0,0,1,.26,1.54.39.39,0,0,1-.14.33,2.68,2.68,0,0,0-.57.73.38.38,0,0,1-.31.19Zm-.34-2.8-.15,0A.49.49,0,0,0,3,7.86a.4.4,0,0,0,0,.32H3a9.47,9.47,0,0,0,.75,1.16A2.92,2.92,0,0,1,4.05,9a6.76,6.76,0,0,0-.19-1.16A.45.45,0,0,0,3.44,7.58Z"/><path class="cls-3" d="M10.94,9.87a.35.35,0,0,1-.19-.06A18.36,18.36,0,0,1,7.86,7.33,6.26,6.26,0,0,0,7,6.61a2.41,2.41,0,0,1,1.8-4.33,7.23,7.23,0,0,0,1.15.12,14.3,14.3,0,0,1,4.32.51,3.88,3.88,0,0,1,2.36,3.87.37.37,0,0,1-.4.34.38.38,0,0,1-.35-.4A3.13,3.13,0,0,0,14,3.6a14.45,14.45,0,0,0-4-.45A7.28,7.28,0,0,1,8.66,3,1.67,1.67,0,0,0,6.87,4a1.65,1.65,0,0,0,.54,2,6.75,6.75,0,0,1,1,.81,18.07,18.07,0,0,0,2.74,2.36.37.37,0,0,1,.12.52A.38.38,0,0,1,10.94,9.87ZM5.41,4.53l-.15,0L3.63,3.81a1.35,1.35,0,0,1-1.69.62,1.37,1.37,0,0,1-.71-.73,1.36,1.36,0,0,1,0-1A1.4,1.4,0,0,1,2,2a1.32,1.32,0,0,1,0-1A1.35,1.35,0,0,1,3.74.22a1.35,1.35,0,0,1,.71.72,1.33,1.33,0,0,1,0,.92l1.63.68a.38.38,0,0,1,.22.26.4.4,0,0,1-.07.33,3.38,3.38,0,0,0-.36.54,1.52,1.52,0,0,0-.12.5.38.38,0,0,1-.17.3A.36.36,0,0,1,5.41,4.53ZM2.47,2.63A.58.58,0,0,0,1.93,3a.56.56,0,0,0,0,.44.54.54,0,0,0,.3.31A.59.59,0,0,0,3,3.43a.27.27,0,0,0,0-.12A.39.39,0,0,1,3.17,3a.38.38,0,0,1,.36,0l1.59.67c0-.1.06-.19.1-.29l.17-.29L3.8,2.38a.38.38,0,0,1-.14-.59l.12-.17a.6.6,0,0,0,0-.39.59.59,0,0,0-.3-.32.58.58,0,0,0-.75.31.57.57,0,0,0,.14.65.38.38,0,0,1,.05.48l-.08.12a.35.35,0,0,1-.32.16Z"/></g></g></svg>