<svg id="Layer_1" data-name="Layer 1" xmlns="http://www.w3.org/2000/svg" viewBox="0 0 22 22"><defs><style>.cls-1{fill:#ffda66;}.cls-2{fill:#494949;}</style></defs><title>Iconset for Detail page</title><path class="cls-1" d="M3.414,12.474a8.888,8.888,0,0,0,17.775,0V11.73H3.414Z"/><path class="cls-2" d="M11,22A11,11,0,1,1,22,11,11.011,11.011,0,0,1,11,22ZM11,.822A10.178,10.178,0,1,0,21.178,11,10.189,10.189,0,0,0,11,.822Z"/><path class="cls-2" d="M12.486,16.507a.411.411,0,0,1-.411-.41V5.9a.411.411,0,0,1,.822,0V16.1A.411.411,0,0,1,12.486,16.507Z"/><path class="cls-2" d="M13.633,10.406a.411.411,0,1,1,0-.822,1.635,1.635,0,0,0,0-3.27.411.411,0,1,1,0-.821,2.457,2.457,0,0,1,0,4.913Z"/><path class="cls-2" d="M7.458,16.507a.411.411,0,0,1-.411-.41V9.744a.411.411,0,0,1,.822,0V16.1A.411.411,0,0,1,7.458,16.507Z"/><path class="cls-2" d="M7.458,11.039a.411.411,0,0,1-.411-.411V5.9a.411.411,0,0,1,.822,0v4.725A.411.411,0,0,1,7.458,11.039Z"/><path class="cls-2" d="M8.883,9.109A.411.411,0,0,1,8.472,8.7V5.9a.411.411,0,0,1,.822,0V8.7A.411.411,0,0,1,8.883,9.109Z"/><path class="cls-2" d="M6.048,9.109A.411.411,0,0,1,5.637,8.7V5.9a.411.411,0,0,1,.822,0V8.7A.411.411,0,0,1,6.048,9.109Z"/></svg>