<svg width="512" height="512" viewBox="0 0 512 512" fill="none" xmlns="http://www.w3.org/2000/svg">
<g clip-path="url(#clip0_6483_84)">
<circle cx="256" cy="512" r="200" fill="#FFE785"/>
<path d="M244.896 342.217C251.745 342.217 258.595 347.354 258.595 355.916C258.595 362.765 253.458 367.903 248.321 367.903H246.608H80.508C73.6585 367.903 66.8089 362.766 66.8089 354.204C66.8089 347.354 71.946 342.217 77.0831 342.217H78.7956H244.896ZM238.046 299.408C244.896 299.408 251.745 304.545 251.745 313.106C251.745 319.956 246.608 325.093 241.471 325.093H239.759H75.3708C68.5213 325.093 61.6719 319.956 61.6719 311.395C61.6719 304.545 66.809 299.408 71.9461 299.408H73.6584H238.046Z" fill="#494949"/>
<path d="M414.394 22C450.354 22 479.465 51.1102 479.465 87.07C479.465 90.4948 479.465 92.2071 479.465 95.6319V99.0568L477.753 102.482C488.027 114.468 494.876 129.88 496.588 145.291V150.428V155.565C496.588 160.702 496.589 167.552 494.876 172.689L493.164 176.114C503.438 189.813 510.288 205.224 512 220.635V225.773V230.91C512 275.432 476.04 313.104 428.094 319.954V463.792H491.451C498.301 463.792 505.15 468.929 505.15 477.491C505.15 484.341 500.013 489.478 494.876 489.478H493.164H13.699C6.84955 489.478 0 484.341 0 475.779C0 468.93 5.13723 463.792 10.2743 463.792H11.9867H68.495V446.669C68.495 431.257 73.6321 417.558 83.9064 408.996L87.3312 405.572C75.3446 397.01 68.495 385.024 65.0703 371.325V367.9L54.7961 299.405C54.7961 295.98 51.3713 292.555 46.2342 290.843H44.5218H13.699C6.84955 290.843 0 285.706 0 277.144C0 270.295 5.13723 265.157 10.2743 265.157H11.9867H44.5218C61.6456 265.157 75.3446 277.144 78.7693 292.555V295.98L89.0435 364.475C90.7559 379.886 102.742 390.16 118.154 391.872H121.579H126.716H128.428H243.157C238.02 385.023 236.308 378.174 234.595 369.612V366.187L226.033 295.98C226.033 294.267 224.321 292.555 222.609 292.555H220.896H202.06C195.211 292.555 188.361 287.418 188.361 278.856C188.361 272.007 193.498 266.869 198.636 266.869H200.348H219.184C232.883 266.869 244.869 277.144 248.294 290.843V294.268L256.856 364.475C258.568 379.886 270.555 390.16 285.967 391.872H289.391H296.241C327.064 391.872 351.037 415.846 352.749 444.957V448.382V465.505H402.408V321.665C354.461 316.528 316.789 280.568 315.077 236.047V232.622C315.077 213.786 320.214 196.663 332.201 182.964L335.625 179.539C333.913 176.114 333.913 170.977 333.913 165.84V160.702V155.565C333.913 138.441 339.05 121.318 349.324 107.619L352.749 104.194V100.769V97.3449V93.9199V90.495C349.324 49.398 378.435 22 414.394 22ZM128.428 415.846H126.716H125.003C109.592 417.558 97.6054 429.545 97.6054 443.244V444.957V462.08H159.251V444.957C157.538 429.545 143.839 417.558 128.428 415.846ZM183.224 439.82V443.244V446.669V463.792H241.445V446.669C241.445 436.394 244.87 424.408 250.007 415.846H172.95C179.799 422.696 181.512 431.258 183.224 439.82ZM267.13 444.957V446.669V463.792H328.776V448.382V446.669C327.063 431.257 316.789 420.983 303.09 417.558H292.816C279.117 419.27 268.843 431.258 267.13 444.957ZM414.394 47.6856C393.846 47.6856 375.01 64.8091 375.01 87.07C375.01 92.2071 376.722 97.344 378.435 100.769C380.147 105.906 378.435 111.044 375.01 114.469C364.736 124.743 357.886 138.442 357.886 153.853C357.886 160.703 359.599 167.552 361.311 174.402C363.023 179.539 361.311 184.676 357.886 188.1C345.9 200.087 339.05 215.498 339.05 230.91C339.05 263.445 366.448 289.131 400.696 294.268V218.923L375.01 205.224C369.873 201.799 366.448 194.95 368.16 189.812V188.1C371.585 182.963 376.722 181.251 383.572 182.964H385.284L398.983 191.525V138.441C398.983 121.317 422.956 121.318 424.669 136.729V138.441V218.923L434.943 205.224C440.08 200.087 446.93 198.374 452.067 203.511C457.204 206.936 458.916 213.785 455.492 220.635L453.779 222.348L422.956 261.732V297.692C455.491 290.842 481.177 265.158 481.177 234.335C481.177 218.923 474.328 203.512 462.341 191.525C458.916 188.101 457.204 182.963 458.916 177.826C462.341 170.976 462.341 164.127 462.341 157.278C462.341 141.867 455.492 128.167 445.217 117.893C441.793 114.468 440.08 109.331 441.793 104.194C443.505 99.0566 445.217 93.9197 445.217 90.495C452.067 64.8094 434.943 47.6856 414.394 47.6856Z" fill="#494949"/>
</g>
<defs>
<clipPath id="clip0_6483_84">
<rect width="512" height="512" fill="white"/>
</clipPath>
</defs>
</svg>
