<svg width="512" height="512" viewBox="0 0 512 512" fill="none" xmlns="http://www.w3.org/2000/svg">
<g clip-path="url(#clip0_3714_204)">
<circle cx="256" cy="512" r="200" fill="#FFE785"/>
<path d="M130.496 200.953H287.961C295.676 200.953 301.952 194.677 301.952 186.962V29.497C301.952 21.782 295.676 15.505 287.961 15.505H130.496C122.781 15.505 116.505 21.782 116.505 29.497V32.768H89.636V26.662C89.636 11.96 77.676 0 62.974 0C48.272 0 36.312 11.96 36.312 26.662V302.332C36.312 306.474 39.67 309.832 43.812 309.832C47.954 309.832 51.312 306.474 51.312 302.332V26.662C51.312 20.231 56.543 15 62.974 15C69.405 15 74.636 20.231 74.636 26.662V40.268V76.41V140.048V176.19V454.423H51.312V336.547C51.312 332.405 47.954 329.047 43.812 329.047C39.67 329.047 36.312 332.405 36.312 336.547V454.423H28.76C12.901 454.423 0 467.312 0 483.155V500.078C0 506.605 5.31 511.915 11.837 511.915H114.111C120.653 511.915 125.976 506.605 125.976 500.078V483.155C125.976 467.312 113.075 454.423 97.216 454.423H89.635V183.69H116.503V186.961C116.504 194.677 122.781 200.953 130.496 200.953V200.953ZM110.977 483.155V496.915H15V483.155C15 475.583 21.173 469.423 28.76 469.423H43.812H82.136H97.217C104.804 469.423 110.977 475.583 110.977 483.155ZM89.636 83.911H116.504V132.549H89.636V83.911ZM131.504 30.505H286.952V185.953H131.504V176.19V140.048V76.411V40.269V30.505ZM116.504 47.769V68.911H89.636V47.769H116.504ZM89.636 168.69V147.548H116.504V168.69H89.636Z" fill="#494949"/>
<path d="M512 316.024C512 299.103 498.31 285.336 481.482 285.336H452.809L442.99 264.622C437.062 252.118 432.582 243.587 424.623 239.123C417.275 235.002 408.889 235.03 393.63 235.075L267.829 235.078L266.822 235.075C251.586 235.026 243.196 235.002 235.851 239.124C227.896 243.588 223.416 252.118 217.489 264.622L207.67 285.336H178.997C162.169 285.336 148.479 299.102 148.479 316.024C148.479 332.805 161.945 346.476 178.581 346.701L169.898 365.019C165.059 375.2 164.723 376.605 164.77 386.502C164.774 387.371 164.778 454.724 164.778 454.724C164.778 460.392 164.786 469.12 172.857 472.339V493.247C172.857 503.588 181.27 512 191.61 512H226.391C236.716 512 245.116 503.587 245.116 493.247V473.59H313.387C317.53 473.59 320.887 470.232 320.887 466.09C320.887 461.948 317.53 458.59 313.387 458.59H180.357C180.174 458.59 180.006 458.588 179.852 458.584C179.778 457.33 179.773 387.322 179.769 386.432C179.736 379.263 179.736 379.263 183.449 371.451L195.176 346.712H465.302L477.033 371.459C480.72 379.215 480.72 379.215 480.682 386.302C480.677 387.227 480.672 457.33 480.6 458.586C480.454 458.59 347.516 458.592 347.516 458.592C343.373 458.592 340.016 461.95 340.016 466.092C340.016 470.234 343.373 473.592 347.516 473.592H415.333V493.248C415.333 503.589 423.745 512.001 434.086 512.001H468.867C479.208 512.001 487.621 503.588 487.621 493.248V472.334C495.664 469.111 495.672 460.389 495.672 454.725C495.672 454.725 495.677 387.281 495.682 386.379C495.733 376.654 495.351 375.057 490.583 365.027L481.896 346.702C498.533 346.476 512 332.805 512 316.024V316.024ZM163.479 316.024C163.479 307.374 170.44 300.336 178.997 300.336H200.56L185.688 331.711H178.998C170.44 331.711 163.479 324.674 163.479 316.024ZM230.117 473.59V493.246C230.117 495.281 228.411 496.999 226.392 496.999H191.611C189.576 496.999 187.858 495.28 187.858 493.246V473.59H230.117ZM231.043 271.047C236.305 259.947 239.465 254.297 243.191 252.206C247.095 250.016 254.495 250.035 266.776 250.076L392.667 250.079L393.676 250.076C405.966 250.035 413.378 250.015 417.286 252.207C421.015 254.298 424.175 259.948 429.435 271.047L458.192 331.712H202.287L231.043 271.047ZM472.622 493.247C472.622 495.282 470.903 497 468.868 497H434.087C432.053 497 430.334 495.281 430.334 493.247V473.59H472.622V493.247ZM481.482 331.711H474.792L459.919 300.336H481.482C490.039 300.336 497 307.374 497 316.024C497 324.674 490.039 331.711 481.482 331.711Z" fill="#494949"/>
<path d="M292.213 399.436H368.267C372.41 399.436 375.767 396.078 375.767 391.936C375.767 387.794 372.41 384.436 368.267 384.436H292.213C288.07 384.436 284.713 387.794 284.713 391.936C284.713 396.078 288.07 399.436 292.213 399.436V399.436Z" fill="#494949"/>
<path d="M292.213 433.338H368.267C372.41 433.338 375.767 429.98 375.767 425.838C375.767 421.696 372.41 418.338 368.267 418.338H292.213C288.07 418.338 284.713 421.696 284.713 425.838C284.713 429.98 288.07 433.338 292.213 433.338V433.338Z" fill="#494949"/>
<path d="M456.129 401.829C456.129 384.454 442.007 370.32 424.648 370.32C407.274 370.32 393.139 384.455 393.139 401.829C393.139 419.203 407.274 433.339 424.648 433.339C442.007 433.338 456.129 419.203 456.129 401.829ZM408.139 401.829C408.139 392.726 415.545 385.32 424.648 385.32C433.736 385.32 441.129 392.726 441.129 401.829C441.129 410.933 433.735 418.339 424.648 418.339C415.545 418.338 408.139 410.932 408.139 401.829Z" fill="#494949"/>
<path d="M204.35 401.829C204.35 419.204 218.473 433.339 235.831 433.339C253.206 433.339 267.34 419.204 267.34 401.829C267.34 384.454 253.205 370.32 235.831 370.32C218.473 370.319 204.35 384.454 204.35 401.829V401.829ZM252.341 401.829C252.341 410.933 244.935 418.339 235.832 418.339C226.744 418.339 219.351 410.933 219.351 401.829C219.351 392.726 226.745 385.32 235.832 385.32C244.935 385.319 252.341 392.726 252.341 401.829Z" fill="#494949"/>
<path d="M211.309 45.459H180.53C176.449 45.459 173.03 48.877 173.03 52.959V163.5C173.03 167.642 176.388 171 180.53 171C184.672 171 188.03 167.642 188.03 163.5V122.944C195.238 122.904 205.972 122.849 211.309 122.849C232.982 122.849 250.615 105.491 250.615 84.154C250.615 62.817 232.982 45.459 211.309 45.459V45.459ZM211.309 107.849C206.004 107.849 195.423 107.903 188.201 107.943C188.16 100.539 188.106 89.565 188.106 84.154C188.106 79.6 188.075 68.153 188.052 60.459H211.308C224.483 60.459 235.614 71.31 235.614 84.154C235.614 96.998 224.483 107.849 211.309 107.849V107.849Z" fill="#494949"/>
</g>
<defs>
<clipPath id="clip0_3714_204">
<rect width="512" height="512" fill="white"/>
</clipPath>
</defs>
</svg>
