<svg xmlns="http://www.w3.org/2000/svg" viewBox="0 0 18.03 12.33"><defs><style>.cls-1{fill:#ffda66;}.cls-2{fill:#494949;}</style></defs><g id="Layer_2" data-name="Layer 2"><g id="Layer_1-2" data-name="Layer 1"><path class="cls-1" d="M.82,10.75a4.31,4.31,0,0,1,8.61,0"/><path class="cls-2" d="M10.74,11.13H1.13A1.14,1.14,0,0,1,0,10V3.31A1.14,1.14,0,0,1,1.13,2.18h6.7a.38.38,0,1,1,0,.75H1.13a.38.38,0,0,0-.38.38V10a.39.39,0,0,0,.38.39h9.61a.37.37,0,0,1,.37.37A.38.38,0,0,1,10.74,11.13Z"/><path class="cls-2" d="M6.17,6.25H3.28a.38.38,0,0,1,0-.75H6.17a.38.38,0,0,1,0,.75Z"/><path class="cls-2" d="M6.13,5.26H3.25a.38.38,0,0,1,0-.75H6.13a.38.38,0,1,1,0,.75Z"/><path class="cls-2" d="M5,8.8a.36.36,0,0,1-.31-.18L3.76,7.27a.34.34,0,0,1,0-.29.38.38,0,0,1,.16-.23l.2-.13a1,1,0,0,0,.51-1.49.39.39,0,0,1,.34-.56h0a.36.36,0,0,1,.36.29A1.7,1.7,0,0,1,4.6,7.18l.67,1a.38.38,0,0,1-.11.52A.39.39,0,0,1,5,8.8Z"/><path class="cls-2" d="M12.74,12.33a.28.28,0,0,1-.15,0c-4.73-2.15-5.2-6.41-5.14-9.44,0-.11,0-.22,0-.32V2.24a.37.37,0,0,1,.36-.37A7.28,7.28,0,0,0,12.49.09a.38.38,0,0,1,.49,0,8,8,0,0,0,2.25,1.32,8.53,8.53,0,0,0,2.43.46.37.37,0,0,1,.35.37,2.81,2.81,0,0,0,0,.29c0,.1,0,.21,0,.33.06,3-.41,7.29-5.13,9.43A.32.32,0,0,1,12.74,12.33ZM8.21,2.59a2.44,2.44,0,0,0,0,.27c-.06,2.78.36,6.69,4.54,8.68,4.18-2,4.59-5.89,4.54-8.67,0-.1,0-.19,0-.28A8.94,8.94,0,0,1,15,2.12,9.42,9.42,0,0,1,12.74.86,8,8,0,0,1,8.21,2.59Z"/><path class="cls-2" d="M12.28,7.85A.38.38,0,0,1,12,7.74L10.75,6.48a.39.39,0,0,1,0-.53.37.37,0,0,1,.53,0l1,1L14.2,5a.39.39,0,0,1,.53,0,.37.37,0,0,1,0,.53L12.55,7.74A.39.39,0,0,1,12.28,7.85Z"/></g></g></svg>