<svg xmlns="http://www.w3.org/2000/svg" viewBox="0 0 19.21 13.5"><defs><style>.cls-1{fill:#ffda66;}.cls-2{fill:#494949;}</style></defs><g id="Layer_2" data-name="Layer 2"><g id="Layer_1-2" data-name="Layer 1"><path class="cls-1" d="M17,11.38a7.36,7.36,0,0,0-14.72,0V12H17Z"/><path class="cls-2" d="M16,13.5H3.2a.37.37,0,0,1-.37-.37,6.78,6.78,0,0,1,13.56,0A.37.37,0,0,1,16,13.5ZM3.59,12.75h12a6,6,0,0,0-12,0Z"/><path class="cls-2" d="M11.72,12a.38.38,0,0,1-.38-.38,1.74,1.74,0,0,0-3.47,0,.38.38,0,1,1-.75,0,2.49,2.49,0,0,1,5,0A.37.37,0,0,1,11.72,12Z"/><path class="cls-2" d="M6.72,5.17A2.59,2.59,0,1,1,9.31,2.59,2.59,2.59,0,0,1,6.72,5.17Zm0-4.42A1.84,1.84,0,1,0,8.56,2.59,1.83,1.83,0,0,0,6.72.75Z"/><path class="cls-2" d="M12.49,5.17a2.59,2.59,0,1,1,2.59-2.58A2.59,2.59,0,0,1,12.49,5.17Zm0-4.42a1.84,1.84,0,1,0,1.84,1.84A1.84,1.84,0,0,0,12.49.75Z"/><path class="cls-2" d="M17,8.79a2.23,2.23,0,1,1,2.22-2.23A2.23,2.23,0,0,1,17,8.79Zm0-3.7a1.48,1.48,0,1,0,1.47,1.47A1.48,1.48,0,0,0,17,5.09Z"/><path class="cls-2" d="M2.22,8.79A2.23,2.23,0,1,1,4.45,6.56,2.23,2.23,0,0,1,2.22,8.79Zm0-3.7A1.48,1.48,0,1,0,3.7,6.56,1.47,1.47,0,0,0,2.22,5.09Z"/></g></g></svg>