<svg id="Layer_1" data-name="Layer 1" xmlns="http://www.w3.org/2000/svg" viewBox="0 0 22 22"><defs><style>.cls-1{fill:#ffda66;}.cls-2{fill:#494949;}</style></defs><title>Iconset for Detail page</title><path class="cls-1" d="M21.328,12.832a9.318,9.318,0,0,0-18.635,0v.78H21.328Z"/><path class="cls-2" d="M21.328,12.087H.672A.375.375,0,0,1,.3,11.712a10.7,10.7,0,0,1,21.406,0A.375.375,0,0,1,21.328,12.087Zm-20.274-.75H20.946a9.953,9.953,0,0,0-19.892,0Z"/><path class="cls-2" d="M14.718,8.938H7.282a.375.375,0,0,1,0-.75h7.436a.375.375,0,0,1,0,.75Z"/><path class="cls-2" d="M16.8,20.991H9.675a.375.375,0,0,1-.375-.375V13.983a.375.375,0,0,1,.75,0v6.258h6.372V13.983a.375.375,0,0,1,.75,0v6.633A.375.375,0,0,1,16.8,20.991Z"/><path class="cls-2" d="M9.675,17.94H4.714a.375.375,0,0,1-.375-.375V13.983a.375.375,0,0,1,.75,0V17.19H9.3V13.983a.375.375,0,0,1,.75,0v3.582A.375.375,0,0,1,9.675,17.94Z"/><path class="cls-2" d="M14.123,15.712H11.176a.375.375,0,1,1,0-.75h2.947a.375.375,0,1,1,0,.75Z"/><path class="cls-2" d="M14.123,17.94H11.176a.375.375,0,1,1,0-.75h2.947a.375.375,0,1,1,0,.75Z"/></svg>