<svg width="512" height="512" viewBox="0 0 512 512" fill="none" xmlns="http://www.w3.org/2000/svg">
<g clip-path="url(#clip0_6483_117)">
<circle cx="256" cy="512" r="200" fill="#FFE785"/>
<path d="M80.3203 15.8203V51.0169C80.3203 58.4267 85.8775 65.835 95.1397 65.835C102.549 65.835 109.959 60.2791 109.959 51.0169V15.8203C109.959 8.41062 104.402 1 95.1397 1C87.7299 2.85243 80.3203 8.41062 80.3203 15.8203ZM80.3203 102.884V123.262C80.3203 126.967 82.1727 130.672 84.0251 132.524L95.1397 143.638C100.697 149.196 109.959 149.196 115.516 143.638C121.074 138.081 121.074 128.819 115.516 123.262L104.402 112.146L108.107 121.408V101.032C108.107 93.6219 102.549 86.2135 93.2873 86.2135C87.73 89.9184 80.3203 95.4739 80.3203 102.884ZM132.188 180.687L156.27 204.767C161.827 210.324 171.089 210.324 176.647 204.767C182.204 199.21 182.204 189.948 176.647 184.391L152.565 160.311C147.008 154.753 137.746 154.753 132.188 160.311C126.631 165.868 126.631 175.13 132.188 180.687ZM193.318 241.816L217.4 265.898C222.957 271.456 232.219 271.456 237.777 265.898C243.334 260.341 243.334 251.079 237.777 245.522L213.695 221.44C208.138 215.882 198.876 215.882 193.318 221.44C189.614 226.997 189.614 236.258 193.318 241.816ZM171.089 15.8203V51.0169C171.089 58.4267 176.647 65.835 185.909 65.835C195.171 65.835 200.728 60.2791 200.728 51.0169V15.8203C200.728 8.41062 195.171 1 185.909 1C176.647 1 171.089 8.41062 171.089 15.8203ZM171.089 102.884V136.228C171.089 143.638 176.647 151.049 185.909 151.049C195.171 151.049 200.728 145.49 200.728 136.228V102.884C200.728 95.4739 195.171 88.0655 185.909 88.0655C176.647 88.0655 171.089 95.4739 171.089 102.884ZM258.153 15.8203V51.0169C258.153 58.4267 263.711 65.835 271.12 65.835C278.53 65.835 285.94 60.2786 285.94 52.8689V17.6723C285.94 10.2626 280.383 2.85424 272.973 2.85424C263.711 1.00181 258.153 8.41062 258.153 15.8203ZM258.153 102.884V138.08C258.153 145.49 263.711 152.901 271.12 152.901C278.53 152.901 285.94 147.342 285.94 139.932V104.738C285.94 97.3281 280.383 89.9175 272.973 89.9175C263.711 89.9175 258.153 95.4739 258.153 102.884ZM256.301 189.949V210.325C256.301 217.735 261.858 225.146 269.268 225.146C276.678 225.146 284.088 219.587 284.088 212.177V191.801C284.088 184.391 278.53 176.981 271.12 176.981C263.711 176.981 256.301 182.539 256.301 189.949ZM256.301 302.947L280.383 327.029C285.94 332.587 295.202 332.587 300.759 327.029C306.317 321.472 306.317 312.208 300.759 306.651L276.678 282.571C271.12 277.013 261.858 277.013 256.301 282.571C250.744 289.98 250.744 297.39 256.301 302.947ZM311.874 356.668V391.864C311.874 399.274 317.431 406.682 326.693 406.682C335.955 406.682 341.513 401.126 341.513 391.864V356.668C341.513 349.258 335.955 341.847 326.693 341.847C317.431 341.847 311.874 349.258 311.874 356.668ZM493.412 432.617V460.403H280.383V432.617H493.412Z" fill="#494949"/>
<path d="M499.033 362.215C506.443 362.215 512 367.774 512 373.331V375.183V497.443C512 504.853 506.443 510.409 500.886 510.409H499.033H273.037C265.627 510.409 260.07 504.853 260.07 499.295V497.443V375.183C260.07 367.774 265.627 360.363 274.889 360.363C282.299 360.363 287.856 365.92 287.856 371.477V373.331V480.771H486.066V373.331C486.066 365.922 491.623 360.363 497.181 360.363L499.033 362.215ZM24.8112 117.695L228.578 321.463C241.545 334.43 223.021 352.953 210.054 341.839L208.202 339.987L195.235 327.021V493.739C195.235 501.149 189.677 506.705 184.12 506.705H182.268H17.4015C9.99178 506.705 2.58201 501.147 2.58201 491.885C2.58201 484.475 8.13941 478.919 13.6967 478.919H15.5491H165.596V297.38L4.43455 136.22C-1.12274 130.662 -1.12285 123.253 2.58201 117.695L4.43455 115.843C11.8443 113.991 21.1064 112.138 24.8112 117.695ZM87.7939 304.79C95.2036 304.79 100.761 310.347 100.761 315.904V317.759V388.15C100.761 395.559 95.2035 401.118 89.6463 401.118H87.7939H17.4015C9.99178 401.118 4.43455 395.559 4.43455 390.002V388.15V317.759C4.43455 310.349 9.99181 304.79 15.5491 304.79H17.4015H87.7939ZM74.8268 332.577H32.221V375.183H74.8268V332.577Z" fill="#494949"/>
</g>
<defs>
<clipPath id="clip0_6483_117">
<rect width="512" height="512" fill="white"/>
</clipPath>
</defs>
</svg>
