<svg width="512" height="512" viewBox="0 0 512 512" fill="none" xmlns="http://www.w3.org/2000/svg">
<g clip-path="url(#clip0_6483_256)">
<circle cx="256" cy="512" r="200" fill="#FFE785"/>
<path d="M170.116 319.646L171.701 348.186L171.702 348.203L171.704 348.22C172.53 354.825 169.236 361.067 163.358 365.685C157.481 370.303 149.059 373.258 139.774 373.258H138.067C128.766 373.258 120.335 370.721 114.244 366.521C108.159 362.324 104.439 356.496 104.434 349.88L106.113 319.646H170.116ZM393.567 48.2832V72.8832H317.767V48.2832H393.567Z" fill="#494949" stroke="black"/>
<path d="M383.907 0C390.663 0 395.73 5.1175 395.73 10.2375V11.9458V121.171C395.73 127.998 397.418 136.53 402.485 141.65L404.175 145.067L427.82 175.783C437.954 189.437 443.021 204.8 444.71 221.867V226.983V500.05C444.71 506.877 439.643 512 434.576 512H432.887H263.989C257.233 512 252.166 506.878 252.166 501.758V500.05V226.983C252.166 209.917 257.233 194.558 265.678 180.904L269.056 177.492L292.702 146.771C297.769 141.651 299.458 133.118 301.146 126.292V122.879V13.65C301.146 6.82333 306.214 1.70417 311.28 1.70417H312.969H383.907V0ZM186.296 235.517C191.363 235.517 196.43 238.93 198.119 244.05V245.758L213.319 334.504C215.008 373.758 189.674 407.89 152.516 414.717H150.827V455.679L196.43 484.692C206.564 491.518 203.186 506.877 191.363 508.583H189.674H88.3347C76.5119 508.583 71.4449 493.227 79.8898 486.4L81.5788 484.692L127.181 455.679V414.717H125.492C91.7128 407.89 64.689 378.878 63 343.038V339.625V336.213V332.8L78.2009 245.758C79.8899 240.638 83.2678 235.517 88.3347 235.517H90.0237H186.296ZM372.084 23.8917H324.792V119.467C324.792 131.413 321.414 141.652 316.347 151.892L314.658 155.304L312.969 158.717L289.324 189.438C282.568 197.971 279.19 208.212 277.501 220.158V223.571V336.213H341.682C348.438 336.213 355.194 341.333 355.194 349.867C355.194 356.693 350.127 361.813 345.06 361.813H343.371H279.19V482.983H422.753V361.813H394.041C387.285 361.813 380.529 356.692 380.529 348.158C380.529 341.332 385.596 336.213 390.663 336.213H392.352H421.064V223.571C421.064 213.331 419.375 204.8 414.308 196.267L412.619 192.85L410.93 189.438L387.285 158.717C378.84 148.477 375.462 136.533 373.773 122.879V119.467L372.084 23.8917ZM137.315 477.867L130.559 482.983H145.76L137.315 477.867ZM176.162 261.117H100.158L88.3347 336.213V339.625C88.3347 366.932 110.292 389.118 135.626 390.825H139.004H140.693H142.382C169.406 389.118 189.674 366.933 189.674 341.333V337.917L176.162 261.117ZM331.548 192.85C336.615 196.263 338.304 203.09 334.926 209.917L333.237 211.625L326.481 220.158C324.792 223.572 323.103 226.987 323.103 230.4V232.104V279.892C323.103 286.718 318.036 293.546 309.591 293.546C302.835 293.546 297.769 288.424 297.769 283.304V281.6V233.813C297.769 225.279 301.147 216.746 304.525 208.213L306.213 204.8L312.969 196.267C318.036 189.44 326.481 189.437 331.548 192.85Z" fill="#494949"/>
</g>
<defs>
<clipPath id="clip0_6483_256">
<rect width="512" height="512" fill="white"/>
</clipPath>
</defs>
</svg>
