<svg width="512" height="512" viewBox="0 0 512 512" fill="none" xmlns="http://www.w3.org/2000/svg">
<g clip-path="url(#clip0_869_84)">
<circle cx="256" cy="557" r="200" fill="#FFE785"/>
<path d="M141.466 353.563L205.536 418.134C212.427 425.079 221.805 428.984 231.587 428.984H371.979L431.268 488.273" stroke="#494949" stroke-width="16" stroke-miterlimit="10" stroke-linecap="round" stroke-linejoin="round"/>
<path d="M312.69 367.74H216.302L134.836 286.273C126.499 277.938 112.985 277.938 104.65 286.273H104.649C96.3137 294.609 96.3137 308.124 104.649 316.459L120.385 332.317" stroke="#494949" stroke-width="16" stroke-miterlimit="10" stroke-linecap="round" stroke-linejoin="round"/>
<path d="M229.472 326.39L175.672 272.59C168.144 265.063 155.94 265.063 148.412 272.59V272.591C140.884 280.117 140.884 292.323 148.412 299.85L216.302 367.74" stroke="#494949" stroke-width="16" stroke-miterlimit="10" stroke-linecap="round" stroke-linejoin="round"/>
<path d="M276.685 317.343L220.161 260.819C212.393 253.05 199.798 253.05 192.03 260.819C184.262 268.587 184.262 281.181 192.03 288.949L230.6 327.519" stroke="#494949" stroke-width="16" stroke-miterlimit="10" stroke-linecap="round" stroke-linejoin="round"/>
<path d="M322.842 367.741H317.229H250.831C236.914 367.741 225.632 356.458 225.632 342.542C225.632 328.624 236.914 317.342 250.831 317.342H312.965C315.869 317.342 318.511 315.716 319.871 313.149C328.783 296.332 346.465 284.875 366.823 284.875C391.667 284.875 412.527 301.936 418.324 324.981L487.624 394.281" stroke="#494949" stroke-width="16" stroke-miterlimit="10" stroke-linecap="round" stroke-linejoin="round"/>
<path d="M75.0151 23.5682H49.8752C45.3619 23.5682 41.7036 27.2264 41.7036 31.7397V49.9705C41.7036 54.4838 45.3619 58.1421 49.8752 58.1421H202.145C203.854 58.1421 205.24 59.5278 205.24 61.2369V83.965C205.24 88.0578 208.558 91.376 212.651 91.376H232.403C236.496 91.376 239.814 88.0578 239.814 83.965V61.2369C239.814 40.4327 222.949 23.5682 202.146 23.5682H104.881" stroke="#494949" stroke-width="16" stroke-miterlimit="10" stroke-linecap="round" stroke-linejoin="round"/>
<path d="M75.0149 140.376V111.463C75.0149 103.086 81.8054 96.2952 90.1816 96.2952H127.599C135.976 96.2952 142.767 103.086 142.767 111.463V140.376" stroke="#494949" stroke-width="16" stroke-miterlimit="10" stroke-linecap="round" stroke-linejoin="round"/>
<path d="M123.007 60.0108V94.4268" stroke="#494949" stroke-width="16" stroke-miterlimit="10" stroke-linecap="round" stroke-linejoin="round"/>
<path d="M94.7749 94.4268V60.0108" stroke="#494949" stroke-width="16" stroke-miterlimit="10" stroke-linecap="round" stroke-linejoin="round"/>
<path d="M24 254.474V460.418C24 475.801 36.4718 488.273 51.8563 488.273H165.926C181.31 488.273 193.781 475.801 193.781 460.418V444.789" stroke="#494949" stroke-width="16" stroke-miterlimit="10" stroke-linecap="round" stroke-linejoin="round"/>
<path d="M193.781 228.559V215.673C193.781 201.577 188.298 188.033 178.491 177.906L145.767 144.114H72.0141L39.2894 177.906C29.4826 188.033 24.0002 201.577 24.0002 215.673V224.607" stroke="#494949" stroke-width="16" stroke-miterlimit="10" stroke-linecap="round" stroke-linejoin="round"/>
<path d="M293.12 153.011C287.579 142.451 280.269 131.367 274.128 122.652C268.233 114.288 255.834 114.288 249.939 122.652C238.295 139.177 222.438 164.218 222.438 178.057C222.438 193.001 230.72 206.006 242.939 212.747" stroke="#494949" stroke-width="16" stroke-miterlimit="10" stroke-linecap="round" stroke-linejoin="round"/>
<path d="M323.016 227.205C323.016 242.218 310.846 254.389 295.831 254.389C280.818 254.389 268.646 242.218 268.646 227.205C268.646 215.642 284.768 192.689 292.182 182.746C294.002 180.305 297.66 180.305 299.48 182.746C306.893 192.689 323.016 215.642 323.016 227.205Z" stroke="#494949" stroke-width="16" stroke-miterlimit="10" stroke-linecap="round" stroke-linejoin="round"/>
</g>
<defs>
<clipPath id="clip0_869_84">
<rect width="512" height="512" fill="white"/>
</clipPath>
</defs>
</svg>
