<svg xmlns="http://www.w3.org/2000/svg" viewBox="0 0 46.246 33"><defs><style>.cls-1{fill:#ffda66;}.cls-2{fill:#494949;}</style></defs><title>Asset 35</title><g id="Layer_2" data-name="Layer 2"><g id="Layer_1-2" data-name="Layer 1"><path class="cls-1" d="M14.219,9.217h.691a0,0,0,0,1,0,0V28.846a0,0,0,0,1,0,0h-.691A9.814,9.814,0,0,1,4.4,19.032v0a9.814,9.814,0,0,1,9.814-9.814Z" transform="translate(7.755 40.289) rotate(-147.981)"/><path class="cls-2" d="M12.935,33a3.067,3.067,0,0,1-1.766-.572c-.5-.37-5.876-3.7-9.366-5.853A4.009,4.009,0,0,1,.066,24.213a3.484,3.484,0,0,1,.7-2.784l7.1-11.348C9.8,6.973,13.722,7.5,14.883,8.226L21.076,12.1A5.146,5.146,0,0,1,23.4,15.991a6.317,6.317,0,0,1-.764,3.9L15.3,31.637a2.765,2.765,0,0,1-1.84,1.314A2.83,2.83,0,0,1,12.935,33Zm-.52-23.828a3.706,3.706,0,0,0-3.282,1.7L2.025,22.243,2,22.281A2.078,2.078,0,0,0,1.532,23.9a2.484,2.484,0,0,0,1.052,1.4c.9.555,8.76,5.4,9.474,5.928a1.528,1.528,0,0,0,1.115.256,1.286,1.286,0,0,0,.85-.635L21.365,19.1a4.836,4.836,0,0,0,.547-2.936,3.679,3.679,0,0,0-1.631-2.793L14.088,9.5A3.794,3.794,0,0,0,12.415,9.172ZM1.389,21.845h0Z"/><path class="cls-2" d="M36.236,8.243a.793.793,0,0,1-.153-.015l-1.469-.3a.75.75,0,0,1,.3-1.469l1.468.3a.75.75,0,0,1-.151,1.484Z"/><path class="cls-2" d="M41.43,9.318a.737.737,0,0,1-.153-.016l-2.6-.537a.75.75,0,0,1,.3-1.469l2.6.538a.75.75,0,0,1-.152,1.484Z"/><path class="cls-2" d="M45.5,10.159a.739.739,0,0,1-.154-.016l-1.468-.3a.75.75,0,0,1,.3-1.468l1.469.3a.75.75,0,0,1-.151,1.485Z"/><path class="cls-2" d="M35.215,10.05a.738.738,0,0,1-.4-.114l-1.271-.795a.75.75,0,1,1,.794-1.272l1.272.8a.75.75,0,0,1-.4,1.385Z"/><path class="cls-2" d="M40.548,13.386a.746.746,0,0,1-.4-.114L37.485,11.6a.75.75,0,0,1,.8-1.271L40.947,12a.75.75,0,0,1-.4,1.386Z"/><path class="cls-2" d="M44.488,15.849a.741.741,0,0,1-.4-.114l-1.272-.8a.75.75,0,0,1,.795-1.271l1.272.8a.75.75,0,0,1-.4,1.386Z"/><path class="cls-2" d="M34.11,11.7a.746.746,0,0,1-.563-.255l-.99-1.128a.75.75,0,1,1,1.127-.989l.989,1.128A.749.749,0,0,1,34.11,11.7Z"/><path class="cls-2" d="M37.673,15.757a.749.749,0,0,1-.564-.256l-1.781-2.029a.75.75,0,1,1,1.127-.989l1.781,2.029a.75.75,0,0,1-.563,1.245Z"/><path class="cls-2" d="M40.443,18.914a.746.746,0,0,1-.563-.255l-.99-1.128a.75.75,0,1,1,1.127-.989l.99,1.127a.75.75,0,0,1-.564,1.245Z"/><rect class="cls-2" x="6.861" y="19.408" width="9.592" height="2.633" rx="1.317" ry="1.317" transform="translate(12.761 -3.028) rotate(32.019)"/><rect class="cls-2" x="6.861" y="19.408" width="9.592" height="2.633" rx="1.317" ry="1.317" transform="translate(35.41 21.829) rotate(122.019)"/><path class="cls-2" d="M18.94,9.827a.736.736,0,0,1-.4-.115.749.749,0,0,1-.239-1.033L22.55,1.891a.75.75,0,0,1,1.272.8L19.577,9.474A.75.75,0,0,1,18.94,9.827Z"/><path class="cls-2" d="M31.517,8.017a1,1,0,0,1-.529-.152L23.64,3.27A8.355,8.355,0,0,0,17.917,2.1l-2.551.4A1,1,0,1,1,15.055.524l2.551-.4A10.366,10.366,0,0,1,24.7,1.575l7.347,4.594a1,1,0,0,1-.531,1.848Z"/><path class="cls-2" d="M26.876,12.344a.75.75,0,0,1-.748-.707L25.683,3.88a.75.75,0,0,1,1.5-.086l.445,7.757a.75.75,0,0,1-.706.791Z"/></g></g></svg>