<svg width="512" height="512" viewBox="0 0 512 512" fill="none" xmlns="http://www.w3.org/2000/svg">
<g clip-path="url(#clip0_3800_3217)">
<circle cx="256" cy="557" r="200" fill="#FFE785"/>
<path d="M502.988 264.039C495.103 280.525 481.689 292.813 470.425 306.637C451.481 329.882 431.871 352.563 412.825 375.706C395.161 397.159 372.275 407.45 344.883 407.655C302.899 407.962 260.915 408.064 218.931 407.552C204.441 407.347 195.532 415.488 186.777 424.704C186.111 425.421 186.163 427.111 186.367 428.237C188.569 439.655 185.548 449.28 177.151 457.421C162.406 471.757 147.814 486.298 133.119 500.736C126.975 506.88 122.111 506.88 116.019 500.736C80.6393 465.101 45.2089 429.415 9.82971 393.728C3.99291 387.84 3.94171 382.771 9.72731 376.935C24.3193 362.189 39.0137 347.546 53.6569 332.851C60.3129 326.144 68.1977 322.919 77.7209 323.277C79.2057 323.328 81.4585 322.151 82.1753 320.871C114.483 264.192 185.087 250.266 235.878 269.824C238.387 270.797 241.203 271.155 243.916 271.207C277.145 271.309 310.374 271.411 343.603 271.207C357.171 271.104 368.844 274.791 379.494 287.232C380.313 285.389 380.671 283.546 381.746 282.419C399.769 263.783 417.894 245.197 435.916 226.611C457.625 204.237 490.393 210.637 502.169 239.616C502.323 240.026 502.732 240.384 502.988 240.743C502.988 248.474 502.988 256.256 502.988 264.039ZM174.284 409.293C175.155 408.525 176.332 407.655 177.305 406.579C189.542 393.114 204.646 387.84 222.924 388.096C263.116 388.711 303.308 388.301 343.5 388.301C362.802 388.301 380.62 382.976 393.369 368.23C422.86 334.182 451.43 299.315 480.204 264.704C487.219 256.256 486.143 244.583 478.259 237.568C470.425 230.605 458.751 231.066 451.071 238.951C430.335 260.147 409.702 281.447 389.068 302.797C387.993 303.923 387.02 305.767 387.02 307.303C386.815 333.056 370.79 349.235 345.139 349.287C320.665 349.338 296.191 349.338 271.718 349.287C269.619 349.287 267.468 349.133 265.471 348.57C261.324 347.392 258.611 343.245 258.867 338.893C259.123 334.541 262.195 330.855 266.547 330.087C268.595 329.728 270.745 329.728 272.844 329.728C296.857 329.728 320.818 329.728 344.831 329.677C347.238 329.677 349.695 329.626 352.102 329.165C362.137 327.322 369.049 317.133 367.257 307.098C365.363 296.602 357.631 290.714 345.395 290.714C310.732 290.663 276.019 290.765 241.356 290.611C237.875 290.611 234.188 290.048 230.963 288.768C200.806 277.248 170.956 278.323 141.67 291.482C122.316 300.186 107.878 314.522 98.0985 332.851C123.596 358.503 148.838 383.847 174.284 409.293ZM126.924 481.997C138.649 469.658 150.886 456.704 163.225 443.853C169.215 437.607 169.369 432.845 163.225 426.701C136.755 400.23 110.284 373.76 83.7625 347.29C77.6697 341.197 72.9081 341.248 66.7129 347.443C55.0393 359.117 43.3657 370.842 31.6921 382.567C30.8217 383.437 30.0537 384.41 28.7737 385.843C61.0809 417.485 93.1321 448.871 126.924 481.997Z" fill="#494949"/>
<path d="M305.509 6.29729C311.499 7.52609 317.592 8.44769 323.531 10.0349C373.093 23.3981 405.195 68.2493 402.738 120.422C400.485 168.499 362.853 210.432 314.162 219.033C254.411 229.632 197.221 187.443 189.541 127.181C182.015 67.9933 223.538 14.5405 282.776 7.11649C283.903 6.96289 284.927 6.55329 286.053 6.24609C292.555 6.29729 299.058 6.29729 305.509 6.29729ZM295.525 201.062C343.858 201.216 383.231 162.253 383.435 113.971C383.64 65.5869 344.626 26.0093 296.549 25.8045C247.909 25.5997 208.331 64.5629 208.178 112.947C208.024 161.587 246.936 200.857 295.525 201.062Z" fill="#494949"/>
<path d="M337.203 84.0704H316.314C318.31 85.8112 319.898 87.7568 321.075 90.0096C321.638 91.0848 322.15 92.1599 322.56 93.2863H337.203V102.605H324.71C324.762 103.475 324.813 104.346 324.813 105.267C324.813 111.821 323.226 117.504 320.051 122.214C316.826 126.976 312.32 130.611 306.432 133.069C305.715 133.376 304.998 133.683 304.23 133.939L326.554 167.936H307.917L287.539 136.755C286.822 136.806 286.054 136.806 285.286 136.806H260.25V122.317H284.211C292.454 122.317 298.394 120.576 301.978 117.094C305.562 113.664 307.405 109.414 307.405 104.448C307.405 103.834 307.405 103.219 307.302 102.605H252.416V93.2863H304.538C303.718 91.9039 302.694 90.6239 301.466 89.4975C297.523 85.8111 291.379 84.0192 283.034 84.0704H252.416V74.752H337.203V84.0704Z" fill="#494949"/>
</g>
<defs>
<clipPath id="clip0_3800_3217">
<rect width="512" height="512" fill="white"/>
</clipPath>
</defs>
</svg>
