<?xml version="1.0" encoding="utf-8"?>
<!-- Generator: Adobe Illustrator 26.1.0, SVG Export Plug-In . SVG Version: 6.00 Build 0)  -->
<svg version="1.1" id="Layer_1" xmlns="http://www.w3.org/2000/svg" xmlns:xlink="http://www.w3.org/1999/xlink" x="0px" y="0px"
	 viewBox="0 0 100 100" style="enable-background:new 0 0 100 100;" xml:space="preserve">
<style type="text/css">
	.st0{opacity:0.7;fill:#FFCC05;}
	.st1{fill:none;}
</style>
<g>
	<path class="st0" d="M26.35,85.29c0,3.57-1.67,6.74-4.27,8.78l-15.7-15.7c2.04-2.59,5.21-4.27,8.78-4.27
		C21.34,74.1,26.35,79.12,26.35,85.29z"/>
	<path d="M98.24,51.57c-1.54,3.22-4.16,5.62-6.36,8.32c-3.7,4.54-7.53,8.97-11.25,13.49c-3.45,4.19-7.92,6.2-13.27,6.24
		c-8.2,0.06-16.4,0.08-24.6-0.02c-2.83-0.04-4.57,1.55-6.28,3.35c-0.13,0.14-0.12,0.47-0.08,0.69c0.43,2.23-0.16,4.11-1.8,5.7
		c-2.88,2.8-5.73,5.64-8.6,8.46C24.8,99,23.85,99,22.66,97.8C15.75,90.84,8.83,83.87,1.92,76.9c-1.14-1.15-1.15-2.14-0.02-3.28
		c2.85-2.88,5.72-5.74,8.58-8.61c1.3-1.31,2.84-1.94,4.7-1.87c0.29,0.01,0.73-0.22,0.87-0.47c6.31-11.07,20.1-13.79,30.02-9.97
		c0.49,0.19,1.04,0.26,1.57,0.27c6.49,0.02,12.98,0.04,19.47,0c2.65-0.02,4.93,0.7,7.01,3.13c0.16-0.36,0.23-0.72,0.44-0.94
		c3.52-3.64,7.06-7.27,10.58-10.9c4.24-4.37,10.64-3.12,12.94,2.54c0.03,0.08,0.11,0.15,0.16,0.22
		C98.24,48.53,98.24,50.05,98.24,51.57z M34.04,79.94c0.17-0.15,0.4-0.32,0.59-0.53c2.39-2.63,5.34-3.66,8.91-3.61
		c7.85,0.12,15.7,0.04,23.55,0.04c3.77,0,7.25-1.04,9.74-3.92c5.76-6.65,11.34-13.46,16.96-20.22c1.37-1.65,1.16-3.93-0.38-5.3
		c-1.53-1.36-3.81-1.27-5.31,0.27c-4.05,4.14-8.08,8.3-12.11,12.47c-0.21,0.22-0.4,0.58-0.4,0.88c-0.04,5.03-3.17,8.19-8.18,8.2
		c-4.78,0.01-9.56,0.01-14.34,0c-0.41,0-0.83-0.03-1.22-0.14c-0.81-0.23-1.34-1.04-1.29-1.89c0.05-0.85,0.65-1.57,1.5-1.72
		c0.4-0.07,0.82-0.07,1.23-0.07c4.69,0,9.37,0,14.06-0.01c0.47,0,0.95-0.01,1.42-0.1c1.96-0.36,3.31-2.35,2.96-4.31
		c-0.37-2.05-1.88-3.2-4.27-3.2c-6.77-0.01-13.55,0.01-20.32-0.02c-0.68,0-1.4-0.11-2.03-0.36c-5.89-2.25-11.72-2.04-17.44,0.53
		c-3.78,1.7-6.6,4.5-8.51,8.08C24.14,70.02,29.07,74.97,34.04,79.94z M24.79,94.14c2.29-2.41,4.68-4.94,7.09-7.45
		c1.17-1.22,1.2-2.15,0-3.35c-5.17-5.17-10.34-10.34-15.52-15.51c-1.19-1.19-2.12-1.18-3.33,0.03c-2.28,2.28-4.56,4.57-6.84,6.86
		c-0.17,0.17-0.32,0.36-0.57,0.64C11.93,81.54,18.19,87.67,24.79,94.14z"/>
	<path d="M59.67,1.23c1.17,0.24,2.36,0.42,3.52,0.73c9.68,2.61,15.95,11.37,15.47,21.56c-0.44,9.39-7.79,17.58-17.3,19.26
		c-11.67,2.07-22.84-6.17-24.34-17.94c-1.47-11.56,6.64-22,18.21-23.45c0.22-0.03,0.42-0.11,0.64-0.17
		C57.14,1.23,58.41,1.23,59.67,1.23z M57.72,39.27c9.44,0.03,17.13-7.58,17.17-17.01c0.04-9.45-7.58-17.18-16.97-17.22
		c-9.5-0.04-17.23,7.57-17.26,17.02C40.63,31.56,48.23,39.23,57.72,39.27z"/>
	<path d="M46.39,66.03c-0.02,1.03-0.86,1.86-1.88,1.86c-1.03,0-1.93-0.92-1.9-1.95c0.03-1.05,0.93-1.88,2-1.83
		C45.64,64.15,46.41,64.98,46.39,66.03z"/>
</g>
<g>
	<path d="M65.86,16.42h-4.08c0.39,0.34,0.7,0.72,0.93,1.16c0.11,0.21,0.21,0.42,0.29,0.64h2.86v1.82h-2.44
		c0.01,0.17,0.02,0.34,0.02,0.52c0,1.28-0.31,2.39-0.93,3.31c-0.63,0.93-1.51,1.64-2.66,2.12c-0.14,0.06-0.28,0.12-0.43,0.17
		l4.36,6.64h-3.64l-3.98-6.09c-0.14,0.01-0.29,0.01-0.44,0.01h-4.89v-2.83h4.68c1.61,0,2.77-0.34,3.47-1.02
		c0.7-0.67,1.06-1.5,1.06-2.47c0-0.12,0-0.24-0.02-0.36H49.3v-1.82h10.18c-0.16-0.27-0.36-0.52-0.6-0.74
		c-0.77-0.72-1.97-1.07-3.6-1.06H49.3V14.6h16.56V16.42z"/>
</g>
<line class="st1" x1="23.11" y1="95.86" x2="4.59" y2="77.34"/>
</svg>
