<svg xmlns="http://www.w3.org/2000/svg" viewBox="0 0 19.26 17.21"><defs><style>.cls-1{fill:#ffda66;}.cls-2{fill:#494949;}</style></defs><g id="Layer_2" data-name="Layer 2"><g id="Layer_1-2" data-name="Layer 1"><path class="cls-1" d="M19.12,16.68a6.35,6.35,0,1,0-12.69,0v.53H19.12Z"/><path class="cls-2" d="M11.59,8.65A3.74,3.74,0,0,1,8.07,4.73,3.74,3.74,0,0,1,11.59.81,3.73,3.73,0,0,1,15.1,4.73,3.73,3.73,0,0,1,11.59,8.65Zm0-7.09A3,3,0,0,0,8.82,4.73,3,3,0,0,0,11.59,7.9a3,3,0,0,0,2.76-3.17A3,3,0,0,0,11.59,1.56Z"/><path class="cls-2" d="M18.89,16.91H4.29a.37.37,0,0,1-.37-.38,7.67,7.67,0,0,1,15.34,0A.37.37,0,0,1,18.89,16.91ZM4.68,16.16H18.5a6.92,6.92,0,0,0-13.82,0Z"/><path class="cls-2" d="M12.41,11.42H10.8a.38.38,0,0,1-.38-.37V9.4A.38.38,0,0,1,10.8,9a.37.37,0,0,1,.37.38v1.27H12V9.4A.37.37,0,0,1,12.41,9a.38.38,0,0,1,.38.38v1.65A.38.38,0,0,1,12.41,11.42Z"/><path class="cls-2" d="M13.51,16.91H9.7a.37.37,0,0,1-.29-.14.35.35,0,0,1-.07-.31L10.43,11a.38.38,0,0,1,.37-.3h1.61a.38.38,0,0,1,.37.3l1.1,5.49a.39.39,0,0,1-.08.31A.37.37,0,0,1,13.51,16.91Zm-3.35-.75h2.89l-1-4.74h-1Z"/><path class="cls-2" d="M4.94,13.41a.45.45,0,0,1-.16,0C-.14,11.14,0,6.67,0,3.08,0,3,0,2.85,0,2.73V2.42A.38.38,0,0,1,.39,2,8,8,0,0,0,5.52.09.38.38,0,0,1,6,.09a7.44,7.44,0,0,0,3.31,1.7.37.37,0,0,1-.17.73A8.14,8.14,0,0,1,5.76.87a8.66,8.66,0,0,1-5,1.9c0,.1,0,.21,0,.32C.69,6.82.61,10.66,5.09,12.7a.37.37,0,0,1,.19.49A.37.37,0,0,1,4.94,13.41Z"/><path class="cls-2" d="M10.46,9.53a.36.36,0,0,1-.14,0A.39.39,0,0,1,10.11,9a7,7,0,0,0,.29-.88.38.38,0,0,1,.46-.27.38.38,0,0,1,.27.46,8.47,8.47,0,0,1-.32,1A.37.37,0,0,1,10.46,9.53Z"/><path class="cls-2" d="M5.38,8.25a.4.4,0,0,1-.27-.11L4,7.05a.38.38,0,0,1,0-.53.4.4,0,0,1,.54,0l.82.83L7,5.74a.37.37,0,0,1,.53,0,.38.38,0,0,1,0,.53L5.64,8.14A.38.38,0,0,1,5.38,8.25Z"/></g></g></svg>