<svg xmlns="http://www.w3.org/2000/svg" viewBox="0 0 17.07 17.44"><defs><style>.cls-1{fill:#ffda66;}.cls-2{fill:#494949;}</style></defs><g id="Layer_2" data-name="Layer 2"><g id="Layer_1-2" data-name="Layer 1"><path class="cls-1" d="M11.12,12.1a5.68,5.68,0,0,0,5.57-5.78A5.68,5.68,0,0,0,11.12.53h-.47V12.1Z"/><path class="cls-2" d="M10.62,17.44a.36.36,0,0,1-.28-.12s-.45-.5-1.07-1.26a.38.38,0,0,1,.06-.53.36.36,0,0,1,.52.06c.31.38.58.69.76.9,1.18-1.39,5.71-6.95,5.71-9.83A5.82,5.82,0,0,0,10.62.75,5.75,5.75,0,0,0,5.1,5.15L5,5.79a.39.39,0,0,1-.45.29.38.38,0,0,1-.29-.44L4.37,5a6.5,6.5,0,0,1,6.25-5,6.56,6.56,0,0,1,6.45,6.66c0,3.57-5.92,10.37-6.17,10.65A.43.43,0,0,1,10.62,17.44Z"/><path class="cls-2" d="M10.29,15.7H1a1,1,0,0,1-1-1V6.38a1,1,0,0,1,1-1h9.25a1,1,0,0,1,1,1v8.28A1,1,0,0,1,10.29,15.7ZM1,6.09a.29.29,0,0,0-.29.29v8.28A.29.29,0,0,0,1,15h9.25a.29.29,0,0,0,.29-.29V6.38a.29.29,0,0,0-.29-.29Z"/><path class="cls-2" d="M9.8,12.87H1.53a.38.38,0,0,1,0-.75H9.8a.38.38,0,1,1,0,.75Z"/><path class="cls-2" d="M8.45,17.44A1.46,1.46,0,0,1,7,16V15.4A.38.38,0,0,1,7.36,15a.37.37,0,0,1,.37.37V16a.72.72,0,0,0,1.43,0V15.4A.37.37,0,0,1,9.53,15a.38.38,0,0,1,.38.37V16A1.46,1.46,0,0,1,8.45,17.44Z"/><path class="cls-2" d="M2.89,17.44A1.46,1.46,0,0,1,1.43,16V15.4A.37.37,0,0,1,1.8,15a.38.38,0,0,1,.38.37V16A.71.71,0,0,0,3.6,16V15.4a.38.38,0,0,1,.75,0V16A1.46,1.46,0,0,1,2.89,17.44Z"/><path class="cls-2" d="M9.17,14.28H7.72a.38.38,0,1,1,0-.75H9.17a.38.38,0,1,1,0,.75Z"/><path class="cls-2" d="M3.61,14.28H2.16a.38.38,0,1,1,0-.75H3.61a.38.38,0,1,1,0,.75Z"/></g></g></svg>