<svg xmlns="http://www.w3.org/2000/svg" viewBox="0 0 17.86 10.64"><defs><style>.cls-1{fill:#ffda66;}.cls-2{fill:#494949;}</style></defs><g id="Layer_2" data-name="Layer 2"><g id="Layer_1-2" data-name="Layer 1"><path class="cls-1" d="M6.1,5.36a2.3,2.3,0,0,0-4.59,0v.19H6.1Z"/><path class="cls-2" d="M6.1,5.93H.38A.38.38,0,0,1,0,5.55V5.31a3.24,3.24,0,0,1,6.47,0v.24A.38.38,0,0,1,6.1,5.93ZM.75,5.18h5a2.49,2.49,0,0,0-5,0Z"/><path class="cls-2" d="M17.49,10.64a.38.38,0,0,1-.38-.37V6.36a.43.43,0,0,0-.43-.43H1.18a.43.43,0,0,0-.43.43v3.91a.38.38,0,0,1-.75,0V6.36A1.18,1.18,0,0,1,1.18,5.18h15.5a1.18,1.18,0,0,1,1.18,1.18v3.91A.38.38,0,0,1,17.49,10.64Z"/><path class="cls-2" d="M.38,6.74A.38.38,0,0,1,0,6.36v-6A.38.38,0,0,1,.38,0,.38.38,0,0,1,.75.38v6A.38.38,0,0,1,.38,6.74Z"/><path class="cls-2" d="M15.51,5.93H9.42A1.28,1.28,0,0,1,8.14,4.64V3.4A1.28,1.28,0,0,1,9.42,2.11h6.09A1.29,1.29,0,0,1,16.8,3.4V4.64A1.29,1.29,0,0,1,15.51,5.93ZM9.42,2.86a.54.54,0,0,0-.53.54V4.64a.54.54,0,0,0,.53.54h6.09a.54.54,0,0,0,.54-.54V3.4a.54.54,0,0,0-.54-.54Z"/></g></g></svg>