<svg xmlns="http://www.w3.org/2000/svg" viewBox="0 0 43.324 43.073"><defs><style>.cls-1{fill:#ffda66;}.cls-2{fill:#494949;}</style></defs><title>Asset 35</title><g id="Layer_2" data-name="Layer 2"><g id="Layer_1-2" data-name="Layer 1"><path class="cls-1" d="M18.78,21.212a8.363,8.363,0,0,0-16.726,0v.7H18.78Z"/><path class="cls-2" d="M9.623,10.108A4.834,4.834,0,0,1,5.057,5.054,4.834,4.834,0,0,1,9.623,0,4.834,4.834,0,0,1,14.19,5.054,4.834,4.834,0,0,1,9.623,10.108Zm0-8.608A3.341,3.341,0,0,0,6.557,5.054,3.341,3.341,0,0,0,9.623,8.608,3.341,3.341,0,0,0,12.69,5.054,3.341,3.341,0,0,0,9.623,1.5Z"/><path class="cls-2" d="M18.5,21.132H.75a.75.75,0,0,1-.75-.75,9.624,9.624,0,0,1,19.247,0A.75.75,0,0,1,18.5,21.132Zm-16.963-1.5H17.713a8.124,8.124,0,0,0-16.179,0Z"/><path class="cls-2" d="M15.312,17.01H13.44a.75.75,0,0,1,0-1.5h1.872a.75.75,0,1,1,0,1.5Z"/><path class="cls-1" d="M42.858,42.373a8.363,8.363,0,0,0-16.726,0v.7H42.858Z"/><path class="cls-2" d="M33.7,31.27a4.836,4.836,0,0,1-4.567-5.055A4.834,4.834,0,0,1,33.7,21.162a4.834,4.834,0,0,1,4.567,5.053A4.836,4.836,0,0,1,33.7,31.27Zm0-8.608a3.341,3.341,0,0,0-3.067,3.553A3.342,3.342,0,0,0,33.7,29.77a3.342,3.342,0,0,0,3.067-3.555A3.341,3.341,0,0,0,33.7,22.662Z"/><path class="cls-2" d="M42.574,42.294H24.827a.75.75,0,0,1-.75-.75,9.624,9.624,0,1,1,19.247,0A.75.75,0,0,1,42.574,42.294Zm-16.963-1.5H41.79a8.124,8.124,0,0,0-16.179,0Z"/><path class="cls-2" d="M39.39,38.172H37.518a.75.75,0,0,1,0-1.5H39.39a.75.75,0,0,1,0,1.5Z"/><path class="cls-2" d="M10.877,37.189a.749.749,0,0,1-.578-1.227L33.123,8.331a.75.75,0,1,1,1.156.955L11.455,36.917A.745.745,0,0,1,10.877,37.189Z"/></g></g></svg>