<svg xmlns="http://www.w3.org/2000/svg" viewBox="0 0 17.54 15.07"><defs><style>.cls-1{fill:#ffda66;}.cls-2{fill:#494949;}</style></defs><g id="Layer_2" data-name="Layer 2"><g id="Layer_1-2" data-name="Layer 1"><path class="cls-1" d="M.91,14.69a6.39,6.39,0,0,0,0-12.78H.37V14.69Z"/><path class="cls-2" d="M14.06,13.73a3.48,3.48,0,0,1-3.48-3.47V10A.38.38,0,0,1,11,9.62h6.2a.38.38,0,0,1,.38.38v.26A3.48,3.48,0,0,1,14.06,13.73Zm-2.73-3.36a2.73,2.73,0,0,0,5.46,0Z"/><path class="cls-2" d="M8.75,15.07H1.47A1.48,1.48,0,0,1,0,13.59V1.47A1.47,1.47,0,0,1,1.47,0H8.75a1.47,1.47,0,0,1,1.47,1.47V13.59A1.48,1.48,0,0,1,8.75,15.07ZM1.47.75a.73.73,0,0,0-.72.72V13.59a.73.73,0,0,0,.72.73H8.75a.73.73,0,0,0,.72-.73V1.47A.72.72,0,0,0,8.75.75Z"/><path class="cls-2" d="M16.06,5.06h-4a1.48,1.48,0,0,1-1.48-1.48V1.47A1.47,1.47,0,0,1,12.06,0h4a1.47,1.47,0,0,1,1.48,1.47V3.58A1.48,1.48,0,0,1,16.06,5.06Zm-4-4.31a.73.73,0,0,0-.73.72V3.58a.73.73,0,0,0,.73.73h4a.73.73,0,0,0,.73-.73V1.47a.73.73,0,0,0-.73-.72Z"/><path class="cls-2" d="M5.11,13.59a.37.37,0,0,1-.37-.38V1.85a.36.36,0,0,1,.37-.37.37.37,0,0,1,.38.37V13.21A.38.38,0,0,1,5.11,13.59Z"/><path class="cls-2" d="M6.43,8.86a.38.38,0,0,1-.38-.38V6.58a.38.38,0,0,1,.75,0v1.9A.38.38,0,0,1,6.43,8.86Z"/><path class="cls-2" d="M3.84,8.86a.38.38,0,0,1-.38-.38V6.58a.38.38,0,0,1,.75,0v1.9A.38.38,0,0,1,3.84,8.86Z"/><path class="cls-2" d="M11.93,15.07l-.12,0a.38.38,0,0,1-.24-.48l.58-1.75a.38.38,0,0,1,.48-.23.36.36,0,0,1,.23.47l-.58,1.75A.37.37,0,0,1,11.93,15.07Z"/><path class="cls-2" d="M16.4,15.07a.37.37,0,0,1-.35-.26l-.58-1.75a.36.36,0,0,1,.23-.47.38.38,0,0,1,.48.23l.58,1.75a.38.38,0,0,1-.24.48Z"/><circle class="cls-1" cx="13.16" cy="2.53" r="1.22"/><path class="cls-2" d="M15.75,3.71a.38.38,0,0,1-.37-.38V1.73a.38.38,0,1,1,.75,0v1.6A.38.38,0,0,1,15.75,3.71Z"/></g></g></svg>