<svg width="512" height="512" viewBox="0 0 512 512" fill="none" xmlns="http://www.w3.org/2000/svg">
<g clip-path="url(#clip0_6483_136)">
<circle cx="256" cy="512" r="200" fill="#FFE785"/>
<path d="M389.499 388.011L392.99 389.756L429.637 400.226C433.127 401.971 438.363 401.971 441.853 401.971H445.343L495.952 394.992C502.932 393.247 509.913 398.482 509.913 405.462C511.658 412.443 506.422 417.677 501.187 419.422H499.442L448.834 426.403C441.853 428.148 434.873 426.403 426.147 426.403L422.657 424.658L386.009 414.188C380.774 412.443 375.539 412.443 368.558 414.188H365.068L331.91 424.658C321.44 428.148 310.969 428.148 302.244 426.403L298.753 424.658L265.596 414.188C260.361 412.443 255.125 412.443 248.145 414.188H244.655L211.497 424.658C201.027 428.148 190.556 428.148 181.831 426.403L178.34 424.658L145.183 414.188C139.948 412.443 134.712 412.443 127.732 414.188H124.242L87.5941 424.658C80.6136 426.403 73.6331 428.148 66.6526 426.403H61.4174L10.8089 419.422C3.82844 417.677 -1.40689 412.443 0.338231 405.462C2.08335 398.482 7.31865 394.992 12.554 394.992H14.2991L64.9075 401.971C68.3978 401.971 73.6332 401.971 77.1234 401.971H80.6136L117.261 391.501C127.732 388.01 138.203 388.011 146.928 389.756L150.418 391.501L183.576 401.971C188.811 403.716 194.046 403.716 201.027 401.971H204.517L237.674 391.501C248.145 388.01 258.616 388.011 267.341 389.756L270.831 391.501L303.989 401.971C309.224 403.716 314.459 403.716 321.44 401.971H324.93L358.087 391.501C370.303 386.265 380.774 386.266 389.499 388.011ZM201.027 93.0858L204.517 94.8305L283.047 154.165C290.028 159.4 297.008 166.38 302.244 173.361L303.989 176.852L337.146 232.695C337.146 234.44 338.891 236.186 338.891 237.931L361.578 230.951C372.048 227.46 382.519 227.461 391.245 229.206L394.735 230.951L431.382 241.421C434.873 243.166 440.108 243.166 443.598 243.166H447.088L497.697 236.185C504.677 234.44 511.658 239.677 511.658 246.657C513.403 253.638 508.167 258.872 502.932 260.617H501.187L450.579 267.598C443.598 269.343 436.618 267.598 427.892 267.598L424.402 265.853L387.754 255.383C382.519 253.638 377.284 253.638 370.303 255.383H366.813L333.656 265.853C323.185 269.343 312.714 269.343 303.989 267.598L300.498 265.853L267.341 255.383C262.106 253.638 256.87 253.638 249.89 255.383H246.4L213.243 265.853C202.772 269.343 192.301 269.343 183.576 267.598L180.085 265.853L146.928 255.383C141.693 253.638 136.457 253.638 129.477 255.383H125.987L89.3392 265.853C82.3587 267.598 75.3783 269.343 68.3978 267.598H63.1624L12.554 260.617C5.57353 258.872 0.338204 253.638 2.08332 246.657C3.82844 239.677 9.06374 236.185 14.2991 236.185H16.0443L66.6526 243.166C70.1429 243.166 75.3783 243.166 78.8685 243.166H82.3587L99.8099 237.931L192.301 178.597L174.85 162.891L129.477 187.323C113.771 196.048 96.3196 192.558 84.1038 180.342L82.3587 178.597C71.888 164.636 73.6332 143.695 89.3392 133.224L91.0843 131.478L152.163 91.3411C164.379 82.6156 185.321 82.6151 201.027 93.0858ZM164.379 114.026L162.634 115.773L101.555 155.91C98.0647 157.655 98.0648 161.145 99.8099 164.635C103.3 168.125 106.79 169.872 112.026 168.127H113.771L166.124 138.458C169.615 136.713 174.85 136.713 180.085 138.458L181.831 140.203L218.478 173.361C223.713 178.596 223.713 187.321 218.478 192.557L216.733 194.304L152.163 236.185L183.576 244.91C188.811 246.655 194.046 246.655 201.027 244.91H204.517L237.674 234.44C248.145 230.95 258.616 230.95 267.341 232.695L270.831 234.44L303.989 244.91C305.734 244.91 307.479 244.912 307.479 246.657L277.812 196.048C274.322 190.813 270.831 187.322 267.341 182.086L263.851 178.597L185.321 119.263C180.085 110.537 171.36 110.536 164.379 114.026ZM386.009 107.048C417.421 107.048 443.598 133.223 443.598 164.635C443.598 196.047 417.421 222.225 386.009 222.225C354.597 222.225 328.42 196.047 328.42 164.635C328.42 133.223 354.597 107.048 386.009 107.048ZM386.009 133.224C368.558 133.224 354.597 147.184 354.597 164.635C354.597 182.086 368.558 196.048 386.009 196.048C403.46 196.048 417.421 182.086 417.421 164.635C417.421 147.184 403.46 133.224 386.009 133.224Z" fill="#494949"/>
<path d="M359.832 311.229C370.303 307.738 380.774 307.739 389.499 309.484L392.99 311.229L429.637 321.699C433.127 323.444 438.363 323.444 441.853 323.444H445.343L495.952 316.465C502.932 314.72 509.913 319.955 509.913 326.935C511.658 333.915 506.422 339.15 501.187 340.895H499.442L448.834 347.876C441.853 349.621 434.873 347.876 426.147 347.876L422.657 346.131L386.009 335.661C380.774 333.915 375.539 333.915 368.558 335.661H365.068L331.91 346.131C321.44 349.621 310.969 349.621 302.244 347.876L298.753 346.131L265.596 335.661C260.361 333.915 255.125 333.915 248.145 335.661H244.655L211.497 346.131C201.027 349.621 190.556 349.621 181.831 347.876L178.34 346.131L145.183 335.661C139.948 333.915 134.712 333.915 127.732 335.661H124.242L87.5941 346.131C80.6136 347.876 73.6331 349.621 66.6526 347.876H61.4174L10.8089 340.895C3.82844 339.15 -1.40689 333.915 0.338231 326.935C2.08335 319.955 7.31865 316.465 12.554 316.465H14.2991L64.9075 323.444C68.3978 323.444 73.6332 323.444 77.1234 323.444H80.6136L117.261 312.973C127.732 309.483 138.203 309.483 146.928 311.229L150.418 312.973L183.576 323.444C188.811 325.189 194.046 325.189 201.027 323.444H204.517L237.674 312.973C248.145 309.483 258.616 309.483 267.341 311.229L270.831 312.973L303.989 323.444C309.224 325.189 314.459 325.189 321.44 323.444H324.93L359.832 311.229Z" fill="#494949"/>
</g>
<defs>
<clipPath id="clip0_6483_136">
<rect width="512" height="512" fill="white"/>
</clipPath>
</defs>
</svg>
