<?xml version="1.0" encoding="utf-8"?>
<!-- Generator: Adobe Illustrator 26.1.0, SVG Export Plug-In . SVG Version: 6.00 Build 0)  -->
<svg version="1.1" id="Layer_1" xmlns="http://www.w3.org/2000/svg" xmlns:xlink="http://www.w3.org/1999/xlink" x="0px" y="0px"
	 viewBox="0 0 100 100" style="enable-background:new 0 0 100 100;" xml:space="preserve">
<style type="text/css">
	.st0{clip-path:url(#SVGID_00000067196725735184851270000017216362433580855937_);}
	.st1{opacity:0.7;fill:#FFCC05;}
	.st2{fill:none;stroke:#231F20;stroke-width:3;stroke-miterlimit:10;}
	.st3{fill:none;stroke:#231F20;stroke-miterlimit:10;}
</style>
<g>
	<defs>
		<rect id="SVGID_1_" width="100" height="100"/>
	</defs>
	<clipPath id="SVGID_00000113344999428700412810000001664883741749297027_">
		<use xlink:href="#SVGID_1_"  style="overflow:visible;"/>
	</clipPath>
	<g style="clip-path:url(#SVGID_00000113344999428700412810000001664883741749297027_);">
		<path class="st1" d="M26.01,90.73V43.52c8.57,0.08,16.05,4.74,20.1,11.66c0.6,1.01,1.12,2.06,1.55,3.16
			c0.43,1.05,0.79,2.14,1.04,3.26c0.07,0.23,0.12,0.46,0.16,0.69v0.03c0.32,1.55,0.5,3.15,0.5,4.79c0,1.98-0.24,3.89-0.71,5.73
			c-0.2,0.8-0.44,1.59-0.72,2.36c-0.29,0.8-0.62,1.59-1.02,2.35c-0.42,0.87-0.89,1.7-1.42,2.5C41.33,86.42,34.16,90.65,26.01,90.73z
			"/>
		<path class="st2" d="M66.06,95.09H28.28c-2.12,0-3.83-1.71-3.83-3.83V38.91h45.45v52.34C69.89,93.37,68.18,95.09,66.06,95.09z"/>
		<path class="st2" d="M51.59,7.31c-0.85,5.94-3.05,9.31-5.02,11.32c-1.75,1.78-3.29,2.47-4.51,4.68c-1.68,3.05-1.35,6.5-0.77,9.02"
			/>
		<path class="st2" d="M60.87,15.59c-0.6,4.12-2.17,6.46-3.57,7.86c-1.24,1.24-2.34,1.72-3.21,3.25c-1.2,2.12-0.96,4.51-0.54,6.26"
			/>
		<g>
			<g>
				<path class="st2" d="M70.85,51.78c3.07,0,6.14,0,9.22,0c0.85,0.45,2.01,1.18,3.07,2.38c3.97,4.49,2.43,10.86,2.27,11.45
					c-1.51,5.84-6.54,8.61-7.71,9.26c-2.3,1.27-5.19,2.07-6.85,2.46"/>
			</g>
			<line class="st3" x1="70.85" y1="77.33" x2="70.85" y2="51.78"/>
		</g>
	</g>
</g>
</svg>
