<svg id="Layer_1" data-name="Layer 1" xmlns="http://www.w3.org/2000/svg" viewBox="0 0 22 22"><defs><style>.cls-1{fill:#ffda66;}.cls-2{fill:#494949;}</style></defs><title>Iconset for Detail page</title><path class="cls-1" d="M.31,8.574a8.387,8.387,0,0,0,16.774,0v-.7H.31Z"/><path class="cls-2" d="M9.68,18.754A9.644,9.644,0,0,1,.046,9.121a.448.448,0,0,1,.448-.448H18.866a.448.448,0,0,1,.448.448A9.644,9.644,0,0,1,9.68,18.754ZM.954,9.569a8.738,8.738,0,0,0,17.452,0Z"/><path class="cls-2" d="M18.892,15.855a3.059,3.059,0,0,1-1.1-.207.406.406,0,0,1,.294-.757,2.245,2.245,0,0,0,2.866-3,2.226,2.226,0,0,0-1.242-1.187A.406.406,0,0,1,20,9.948a3.057,3.057,0,0,1-1.109,5.907Z"/><path class="cls-2" d="M5.076,19.914h9.208a.424.424,0,0,1,0,.848H5.076a.424.424,0,0,1,0-.848Z"/><path class="cls-2" d="M8.333,2.921a1.686,1.686,0,0,1,1.684-1.683.424.424,0,0,1,0,.848.836.836,0,1,0,0,1.671,1.684,1.684,0,1,1,0,3.368.424.424,0,1,1,0-.848.836.836,0,0,0,0-1.672A1.686,1.686,0,0,1,8.333,2.921Z"/><path class="cls-2" d="M5.288,4.478A1.377,1.377,0,0,1,6.663,3.1a.424.424,0,1,1,0,.848.527.527,0,1,0,0,1.054,1.375,1.375,0,0,1,0,2.75.425.425,0,1,1,0-.849.527.527,0,0,0,0-1.053A1.376,1.376,0,0,1,5.288,4.478Z"/></svg>