<svg xmlns="http://www.w3.org/2000/svg" viewBox="0 0 21.739 17.013"><defs><style>.cls-1{fill:#ffda66;}.cls-2{fill:#494949;}</style></defs><title>Asset 13</title><g id="Layer_2" data-name="Layer 2"><g id="Layer_1-2" data-name="Layer 1"><path class="cls-1" d="M21.6,16.436a6.9,6.9,0,0,0-13.79,0v.577H21.6Z"/><path class="cls-2" d="M14.048,7.847a3.744,3.744,0,0,1-3.523-3.924A3.743,3.743,0,0,1,14.048,0,3.743,3.743,0,0,1,17.57,3.923,3.743,3.743,0,0,1,14.048,7.847Zm0-7.1a3,3,0,0,0-2.773,3.173A3,3,0,0,0,14.048,7.1,3,3,0,0,0,16.82,3.923,3,3,0,0,0,14.048.75Z"/><path class="cls-2" d="M21.364,16.127H6.731a.375.375,0,0,1-.375-.375,7.692,7.692,0,0,1,15.383,0A.375.375,0,0,1,21.364,16.127Zm-14.248-.75H20.979a6.942,6.942,0,0,0-13.863,0Z"/><path class="cls-2" d="M18.707,13.781H17.1a.375.375,0,0,1,0-.75h1.609a.375.375,0,0,1,0,.75Z"/><path class="cls-2" d="M6.118,5.921A2.829,2.829,0,0,1,3.45,2.96,2.829,2.829,0,0,1,6.118,0,2.829,2.829,0,0,1,8.786,2.96,2.829,2.829,0,0,1,6.118,5.921Zm0-5.171A2.083,2.083,0,0,0,4.2,2.96,2.082,2.082,0,0,0,6.118,5.171,2.082,2.082,0,0,0,8.036,2.96,2.082,2.082,0,0,0,6.118.75Z"/><path class="cls-2" d="M7.33,12.823H.375A.375.375,0,0,1,0,12.448,6.125,6.125,0,0,1,6.118,6.329,5.982,5.982,0,0,1,11.105,8.92a.375.375,0,1,1-.615.428A5.246,5.246,0,0,0,6.118,7.079,5.375,5.375,0,0,0,.763,12.073H7.33a.375.375,0,0,1,0,.75Z"/></g></g></svg>