<svg xmlns="http://www.w3.org/2000/svg" viewBox="0 0 12.97 19.07"><defs><style>.cls-1{fill:#ffda66;}.cls-2{fill:#494949;}</style></defs><g id="Layer_2" data-name="Layer 2"><g id="Layer_1-2" data-name="Layer 1"><path class="cls-1" d="M12,17.1a3.26,3.26,0,0,0-6.52,0v.27H12Z"/><path class="cls-2" d="M5.92,13.64H2.69a.38.38,0,0,1-.38-.37v-.14a2,2,0,0,1,4,0v.14A.38.38,0,0,1,5.92,13.64Zm-2.84-.75H5.53a1.25,1.25,0,0,0-2.45,0Z"/><path class="cls-2" d="M10.48,13.64H7.24a.38.38,0,0,1-.38-.37v-.14a2,2,0,0,1,4,0v.14A.38.38,0,0,1,10.48,13.64Zm-2.84-.75h2.44a1.24,1.24,0,0,0-2.44,0Z"/><path class="cls-2" d="M11.5,17.75h-10A1.47,1.47,0,0,1,0,16.27v-1.9a1.47,1.47,0,0,1,1.47-1.48h10A1.47,1.47,0,0,1,13,14.37v1.9A1.47,1.47,0,0,1,11.5,17.75Zm-10-4.11a.73.73,0,0,0-.72.73v1.9a.73.73,0,0,0,.72.73h10a.73.73,0,0,0,.72-.73v-1.9a.73.73,0,0,0-.72-.73Z"/><path class="cls-2" d="M11.66,13.64a.38.38,0,0,1-.37-.37V11.41a.83.83,0,0,0-.85-.8H2.53a.82.82,0,0,0-.84.8v1.86a.38.38,0,0,1-.38.37.37.37,0,0,1-.37-.37V11.41A1.57,1.57,0,0,1,2.53,9.86h7.91A1.58,1.58,0,0,1,12,11.41v1.86A.38.38,0,0,1,11.66,13.64Z"/><path class="cls-2" d="M1.31,18.87a.36.36,0,0,1-.37-.37V17.37A.37.37,0,0,1,1.31,17a.38.38,0,0,1,.38.37V18.5A.37.37,0,0,1,1.31,18.87Z"/><path class="cls-2" d="M11.66,19.07a.38.38,0,0,1-.37-.37V17.37a.38.38,0,0,1,.75,0V18.7A.38.38,0,0,1,11.66,19.07Z"/><path class="cls-1" d="M10.36,7.24a3.26,3.26,0,0,0-6.52,0v.27h6.52Z"/><path class="cls-2" d="M8.11,3.78H4.87a.38.38,0,0,1-.38-.37V3.27a2,2,0,0,1,4,0v.14A.38.38,0,0,1,8.11,3.78ZM5.27,3H7.71A1.24,1.24,0,0,0,5.27,3Z"/><path class="cls-2" d="M9.67,7.89H3.3A1.47,1.47,0,0,1,1.83,6.41V4.51A1.47,1.47,0,0,1,3.3,3H9.67a1.47,1.47,0,0,1,1.47,1.48v1.9A1.47,1.47,0,0,1,9.67,7.89ZM3.3,3.78a.73.73,0,0,0-.72.73v1.9a.73.73,0,0,0,.72.73H9.67a.73.73,0,0,0,.72-.73V4.51a.73.73,0,0,0-.72-.73Z"/><path class="cls-2" d="M9.83,3.78a.37.37,0,0,1-.37-.37V1.55a.83.83,0,0,0-.85-.8H4.36a.82.82,0,0,0-.84.8V3.41a.38.38,0,0,1-.38.37.37.37,0,0,1-.37-.37V1.55A1.57,1.57,0,0,1,4.36,0H8.61a1.58,1.58,0,0,1,1.6,1.55V3.41A.38.38,0,0,1,9.83,3.78Z"/><path class="cls-2" d="M3.14,9a.36.36,0,0,1-.37-.37V7.51a.37.37,0,0,1,.37-.37.38.38,0,0,1,.38.37V8.64A.37.37,0,0,1,3.14,9Z"/><path class="cls-2" d="M9.83,9.21a.37.37,0,0,1-.37-.37V7.51a.37.37,0,0,1,.37-.37.38.38,0,0,1,.38.37V8.84A.38.38,0,0,1,9.83,9.21Z"/></g></g></svg>