<svg width="512" height="512" viewBox="0 0 512 512" fill="none" xmlns="http://www.w3.org/2000/svg">
<g clip-path="url(#clip0_869_55)">
<circle cx="256" cy="557" r="200" fill="#FFE785"/>
<path d="M298.376 325.58L286.122 235.492C285.332 229.726 283.143 224.546 280.111 220.057L287.539 205.199L272.523 197.687L267.126 208.481C261.88 205.837 255.979 204.485 249.801 205.041C240.476 205.813 232.116 210.253 226.273 217.531C220.515 224.699 217.931 234.041 219.171 243.147L227.86 307.006L162.785 466.004L174.452 470.781C180.922 473.425 184.037 480.853 181.393 487.325C178.74 493.805 171.312 496.935 164.849 494.258L94.6289 465.518C88.1583 462.874 85.0437 455.453 87.6876 448.974C90.3404 442.503 97.7682 439.397 104.232 442.041L115.907 446.818L125.484 423.408L145.024 431.407C148.668 432.902 152.436 433.607 156.147 433.607C167.762 433.607 178.793 426.69 183.459 415.293C186.438 408.008 186.413 400.001 183.367 392.731C182.468 390.599 181.285 388.653 179.96 386.823C185.163 383.575 189.251 378.867 191.618 373.083C195.621 363.304 193.892 352.637 188.11 344.647C193.18 341.492 197.361 336.807 199.786 330.873C203.789 321.087 202.053 310.409 196.261 302.419C201.473 299.171 205.578 294.463 207.952 288.671C213.568 274.956 207.97 259.503 195.547 252.202L205.292 228.389L193.617 223.629C190.478 222.353 188.027 219.919 186.718 216.797C185.408 213.676 185.392 210.225 186.676 207.094C189.328 200.623 196.74 197.491 203.22 200.162L214.895 204.938L224.456 181.562L208.92 175.199L205.596 183.316C191.62 179.791 176.755 187.009 171.14 200.733C168.161 208.018 168.185 216.025 171.231 223.295C173.724 229.254 178.005 234.114 183.485 237.32L180.154 245.461L152.808 234.272C137.741 228.103 120.527 235.354 114.374 250.388C110.371 260.183 112.107 270.852 117.908 278.851C112.839 282.006 108.642 286.665 106.216 292.6C102.214 302.386 103.95 313.064 109.742 321.054C104.672 324.209 100.484 328.868 98.0502 334.802C94.0472 344.589 95.7834 355.267 101.575 363.257C96.3633 366.505 92.2582 371.222 89.8909 377.014C83.7393 392.048 90.9573 409.295 105.998 415.448L109.934 417.059L106.602 425.201C92.6019 421.658 77.7622 428.903 72.1465 442.618C65.9949 457.658 73.2217 474.907 88.2534 481.061L158.473 509.801C162.117 511.295 165.885 512 169.596 512C181.211 512 192.249 505.084 196.916 493.686C202.532 479.956 196.992 464.393 184.553 457.108L189.531 444.946L190.865 445.492C208.583 452.744 228.72 450.638 244.55 440.129L394.18 501.359L442.048 384.378L298.376 325.58ZM120.534 357.694C114.064 355.05 110.949 347.629 113.593 341.15C116.237 334.704 124.227 331.598 130.673 334.2L162.519 345.565V344.13C162.519 344.13 161.361 344.13 161.369 344.13L169.15 348.747C175.62 351.391 178.735 359.532 176.082 366.003C174.806 369.142 172.381 371.945 169.25 373.254C166.128 374.564 162.686 374.765 159.564 373.482L145.941 368L120.534 357.694ZM128.694 315.627C122.223 312.983 119.108 305.488 121.761 299.016C124.405 292.536 131.817 289.413 138.279 292.041L151.893 297.597L177.309 307.987C183.78 310.631 186.894 318.052 184.25 324.523C181.606 330.969 174.194 334.217 167.74 331.598L136.49 318.949C136.481 318.949 136.472 318.949 136.465 318.949L128.694 315.627ZM129.919 256.746C131.933 251.835 136.675 248.865 141.677 248.865C143.272 248.865 144.892 249.166 146.461 249.813L185.473 265.778C191.944 268.422 195.059 275.842 192.406 282.322C191.13 285.461 188.704 287.904 185.583 289.214C182.468 290.514 179.019 290.548 175.871 289.247L156.254 281.474L144.654 276.983C144.645 276.983 144.645 276.983 144.637 276.983L136.856 273.542C130.38 270.896 127.266 263.216 129.919 256.746ZM105.476 393.073C104.167 389.952 104.151 386.501 105.443 383.361C106.728 380.231 109.144 377.779 112.266 376.478C113.843 375.815 115.506 375.479 117.168 375.479C118.796 375.479 120.425 375.798 121.978 376.436L129.548 379.533L153.177 389.203C153.185 389.211 153.201 389.211 153.21 389.211L160.975 392.393C164.114 393.669 166.564 396.103 167.873 399.225C169.183 402.347 169.199 405.798 167.916 408.928C166.631 412.068 164.205 414.511 161.075 415.82C157.96 417.13 154.511 417.155 151.372 415.863L112.359 399.898C109.229 398.62 106.786 396.195 105.476 393.073ZM385.014 479.45L242.031 420.939L238.178 424.02C226.603 433.262 210.908 435.535 197.243 429.937L195.908 429.4L245.095 309.205L235.804 240.882C235.174 236.241 236.442 231.683 239.363 228.032C242.292 224.382 246.498 222.158 251.181 221.763C259.985 221.024 268.178 228.209 269.488 237.752L283.042 337.45L420.158 393.56L385.014 479.45Z" fill="#494949"/>
<path d="M401.902 123.457L341.091 87.6083C337.095 85.2499 333.563 79.5425 333.244 74.9173L328.3 4.50351C327.972 -0.121649 324.866 -1.3978 321.392 1.67448L268.504 48.4266C265.03 51.4989 258.508 53.0941 254.008 51.9695L185.518 34.9143C181.019 33.7985 178.844 36.3579 180.691 40.6129L208.818 105.36C210.665 109.615 210.17 116.313 207.709 120.242L170.317 180.113C167.858 184.049 169.629 186.903 174.246 186.459L244.517 179.718C249.133 179.274 255.344 181.816 258.332 185.368L303.716 239.429C306.695 242.979 309.961 242.183 310.968 237.658L326.269 168.748C327.276 164.223 331.615 159.096 335.913 157.358L401.358 130.9C405.644 129.164 405.896 125.815 401.902 123.457Z" fill="#F9BA48"/>
<path d="M290.158 153.832L274.807 147.554L303.538 77.3249L272.356 64.5669L266.01 80.1116L281.639 86.5082L259.271 141.192L243.625 134.796L237.263 150.331L283.797 169.377L290.158 153.832Z" fill="#494949"/>
</g>
<defs>
<clipPath id="clip0_869_55">
<rect width="512" height="512" fill="white"/>
</clipPath>
</defs>
</svg>
