<svg xmlns="http://www.w3.org/2000/svg" viewBox="0 0 15.28 11.76"><defs><style>.cls-1{fill:#ffda66;}.cls-2{fill:#494949;}</style></defs><g id="Layer_2" data-name="Layer 2"><g id="Layer_1-2" data-name="Layer 1"><path class="cls-1" d="M14.91,8.72a6.2,6.2,0,1,0-12.4,0v.52h12.4Z"/><path class="cls-2" d="M10.09,11.76H5.81a.38.38,0,0,1-.38-.38,2.52,2.52,0,0,1,5,0A.38.38,0,0,1,10.09,11.76ZM6.22,11H9.68a1.77,1.77,0,0,0-3.46,0Z"/><path class="cls-2" d="M13.81,9.62H1.48A1.48,1.48,0,0,1,0,8.14V1.48A1.48,1.48,0,0,1,1.48,0H13.81a1.47,1.47,0,0,1,1.47,1.48V8.14A1.48,1.48,0,0,1,13.81,9.62ZM1.48.75a.73.73,0,0,0-.73.73V8.14a.73.73,0,0,0,.73.73H13.81a.73.73,0,0,0,.72-.73V1.48a.73.73,0,0,0-.72-.73Z"/><path class="cls-2" d="M2.85,8.24h-1a.38.38,0,0,1,0-.75h1a.38.38,0,0,1,0,.75Z"/><path class="cls-2" d="M5.75,8.24H4a.38.38,0,0,1,0-.75H5.75a.38.38,0,0,1,0,.75Z"/></g></g></svg>