<svg width="512" height="512" viewBox="0 0 512 512" fill="none" xmlns="http://www.w3.org/2000/svg">
<g clip-path="url(#clip0_6483_208)">
<circle cx="256" cy="512" r="200" fill="#FFE785"/>
<path d="M256 0C396.108 0 512 114.163 512 256.001C512 397.839 397.838 511.997 256 511.997C114.162 511.997 0 397.839 0 256.001C0 114.163 115.892 0 256 0ZM256 25.9459C129.73 25.9459 25.9459 128.001 25.9459 256.001C25.9459 384.001 128 486.051 256 486.051C382.27 486.051 486.054 384.001 486.054 256.001C486.054 128.001 382.27 25.9459 256 25.9459ZM256 63.9991L294.054 216.216L446.27 254.269L294.054 292.323L256 444.54L217.946 292.323L65.7298 254.269L217.946 216.216L256 63.9991ZM256 172.973L240.432 238.704L174.703 254.269L240.432 269.835L256 333.839L271.568 269.835L335.568 254.269L271.568 238.704L256 172.973Z" fill="#494949"/>
<path d="M174.704 306.17L198.92 313.087L204.109 337.306L129.73 382.276L174.704 306.17ZM339.028 306.17L384.001 380.549L309.622 335.574L314.812 311.36L339.028 306.17ZM129.73 128.007L204.109 172.981L198.92 197.196L174.704 202.386L129.73 128.007ZM382.271 128.007L337.298 202.386L313.082 197.196L307.893 172.981L382.271 128.007Z" fill="#494949"/>
</g>
<defs>
<clipPath id="clip0_6483_208">
<rect width="512" height="512" fill="white"/>
</clipPath>
</defs>
</svg>
