<svg xmlns="http://www.w3.org/2000/svg" viewBox="0 0 12.87 18.15"><defs><style>.cls-1{fill:#ffda66;}.cls-2{fill:#494949;}</style></defs><g id="Layer_2" data-name="Layer 2"><g id="Layer_1-2" data-name="Layer 1"><path class="cls-1" d="M11.84,9.06A5.41,5.41,0,1,0,1,9.06v.45H11.84Z"/><path class="cls-2" d="M10.71,18.15h-.17L8.8,17.68a.82.82,0,0,1-.54-.48L6.72,13.44a.37.37,0,0,1,.08-.39.36.36,0,0,1,.39-.1A1.24,1.24,0,0,0,7.6,13,1.56,1.56,0,0,0,9,12.19.48.48,0,0,1,9.43,12a1.66,1.66,0,0,0,1-.13.35.35,0,0,1,.3,0A.38.38,0,0,1,11,12l1.42,3.5a.76.76,0,0,1-.07.73l-.91,1.52A.81.81,0,0,1,10.71,18.15ZM9,16.93l1.76.48.95-1.56-1.27-3.2a2.14,2.14,0,0,1-.87.08,2.31,2.31,0,0,1-1.87,1L9,16.92Zm0,0Z"/><path class="cls-2" d="M2.17,18.15a.78.78,0,0,1-.69-.41L.57,16.21a.76.76,0,0,1-.06-.72L1.93,12a.38.38,0,0,1,.22-.21.37.37,0,0,1,.31,0,1.49,1.49,0,0,0,1,.13.45.45,0,0,1,.43.2A1.6,1.6,0,0,0,5.26,13a1.53,1.53,0,0,0,.45-.06.37.37,0,0,1,.38.11.36.36,0,0,1,.07.39L4.62,17.21a.76.76,0,0,1-.53.46l-1.73.46H2.17Zm.32-5.52L1.2,15.78l.93,1.59.13.4-.09-.36L3.9,17l1.32-3.2a2.32,2.32,0,0,1-1.9-1A2.33,2.33,0,0,1,2.49,12.63Z"/><path class="cls-2" d="M7.62,12.54A1.11,1.11,0,0,1,7,12.31l-.26-.19a.43.43,0,0,0-.46,0L6,12.3a1.18,1.18,0,0,1-1.69-.41l-.14-.25a.39.39,0,0,0-.36-.23l-.38.12-.11,0-.13,0A1.16,1.16,0,0,1,2,10.47l0-.3a.43.43,0,0,0-.3-.39l-.29-.07A1.15,1.15,0,0,1,.66,9.1a1.16,1.16,0,0,1,0-.95l.12-.29a.41.41,0,0,0-.11-.47L.39,7.17a1.16,1.16,0,0,1,0-1.74l.22-.2a.43.43,0,0,0,.12-.47L.62,4.47a1.14,1.14,0,0,1,0-.94,1.19,1.19,0,0,1,.74-.63l.32-.08A.4.4,0,0,0,2,2.44l0-.3A1.17,1.17,0,0,1,3.16,1.05a.72.72,0,0,1,.23,0l.27,0A.44.44,0,0,0,4.08.94L4.24.66A1.17,1.17,0,0,1,5.92.3l.26.2a.43.43,0,0,0,.46,0L6.92.24A1.13,1.13,0,0,1,8.64.63l.14.24a.4.4,0,0,0,.36.23L9.51,1l.2,0a1.16,1.16,0,0,1,1.16,1.1l0,.29a.41.41,0,0,0,.3.39l.29.07a1.17,1.17,0,0,1,.73.61,1.19,1.19,0,0,1,0,1l-.12.29a.39.39,0,0,0,.11.46l.25.27a1.23,1.23,0,0,1,.38.88,1.12,1.12,0,0,1-.41.85l-.21.2a.41.41,0,0,0-.12.47l.12.29a1.14,1.14,0,0,1,0,.94,1.19,1.19,0,0,1-.74.63l-.32.08a.4.4,0,0,0-.28.38l0,.3a1.18,1.18,0,0,1-1.16,1.1.55.55,0,0,1-.23,0l-.27,0a.42.42,0,0,0-.42.19L8.63,12A1.15,1.15,0,0,1,7.62,12.54ZM6.46,11.29a1.22,1.22,0,0,1,.68.22l.25.2a.49.49,0,0,0,.23.08A.41.41,0,0,0,8,11.58l.15-.27a1.16,1.16,0,0,1,1-.59l.14,0,.37.06.1,0a.46.46,0,0,0,.37-.41l0-.31A1.18,1.18,0,0,1,11,9.06L11.3,9a.41.41,0,0,0,.25-.22.42.42,0,0,0,0-.33l-.12-.29a1.17,1.17,0,0,1,.3-1.31L12,6.62a.38.38,0,0,0,.15-.3A.41.41,0,0,0,12,6l0,0-.23-.25a1.11,1.11,0,0,1-.28-1.29l.11-.28a.43.43,0,0,0,0-.35.42.42,0,0,0-.26-.21L11,3.51a1.16,1.16,0,0,1-.85-1.06l0-.3a.4.4,0,0,0-.41-.39l-.13,0-.19,0a.84.84,0,0,1-.25,0,1.15,1.15,0,0,1-1-.62L8,1a.4.4,0,0,0-.6-.15l-.27.24a1.16,1.16,0,0,1-1.38,0L5.47.9A.41.41,0,0,0,5.25.83.4.4,0,0,0,4.89,1l-.16.26a1.13,1.13,0,0,1-1,.59l-.14,0-.37-.06-.1,0a.47.47,0,0,0-.37.41l0,.31a1.18,1.18,0,0,1-.84,1.06l-.32.08a.41.41,0,0,0-.25.22.42.42,0,0,0,0,.33l.12.29a1.17,1.17,0,0,1-.3,1.31L.9,6a.4.4,0,0,0-.15.3.44.44,0,0,0,.15.33l.23.21a1.14,1.14,0,0,1,.3,1.32l-.11.27a.43.43,0,0,0,0,.35A.41.41,0,0,0,1.59,9l.29.07a1.17,1.17,0,0,1,.85,1.06l0,.31a.4.4,0,0,0,.41.39l0,0,.33-.1a.51.51,0,0,1,.24,0,1.12,1.12,0,0,1,1,.63l.14.25a.4.4,0,0,0,.6.14l.25-.17A1.19,1.19,0,0,1,6.46,11.29Z"/><path class="cls-2" d="M5.89,7.94a.38.38,0,0,1-.26-.11L4.12,6.33a.39.39,0,0,1,0-.53.37.37,0,0,1,.53,0L5.89,7,8.21,4.71a.38.38,0,0,1,.54,0,.39.39,0,0,1,0,.53L6.16,7.83A.4.4,0,0,1,5.89,7.94Z"/></g></g></svg>