<svg width="512" height="512" viewBox="0 0 512 512" fill="none" xmlns="http://www.w3.org/2000/svg">
<g clip-path="url(#clip0_6483_235)">
<circle cx="256" cy="512" r="200" fill="#FFE785"/>
<path d="M347.807 335.448C351.338 335.448 354.869 337.213 356.634 338.978L358.4 340.746L480.221 490.815C487.283 499.642 481.986 510.234 471.393 512H469.628H40.607C30.0138 512 22.9517 499.642 30.0137 490.815L31.7794 489.047L169.49 338.978C171.255 337.213 174.786 335.448 176.552 335.448H178.317H347.807ZM340.745 361.931H185.379L72.3862 485.517H443.145L340.745 361.931ZM499.641 63.5602C506.704 63.5602 512 68.8542 512 74.1507V75.918V384.883C512 402.539 487.283 402.536 485.517 386.646V384.883V319.56H26.4828V384.883C26.4828 402.539 1.76552 402.536 0 386.646V384.883V75.918C0 68.8559 5.29661 61.793 14.1242 61.793C21.1863 61.793 26.4828 67.0912 26.4828 72.3878V74.1507V135.944H485.517V74.1507C485.517 67.0887 490.814 61.793 496.11 61.793L499.641 63.5602ZM127.117 264.827H26.4828V294.84H127.117V264.827ZM243.641 264.827H153.6V294.84H243.641V264.827ZM367.228 264.827H271.89V294.84H367.228V264.827ZM485.517 264.827H393.71V294.84H485.517V264.827ZM485.517 213.629H393.71V238.345H485.517V213.629ZM127.117 213.629H26.4828V238.345H127.117V213.629ZM367.228 213.629H271.89V238.345H367.228V213.629ZM243.641 213.629H153.6V238.345H243.641V213.629ZM485.517 164.194H393.71V188.909H485.517V164.194ZM127.117 164.194H26.4828V188.909H127.117V164.194ZM243.641 164.194H153.6V188.909H243.641V164.194ZM367.228 164.194H271.89V188.909H367.228V164.194Z" fill="#494949"/>
<path d="M363.723 120.056C397.85 120.056 425.516 93.1782 425.516 60.0259C425.516 26.8735 397.85 0 363.723 0C329.596 0 301.93 26.8735 301.93 60.0259C301.93 93.1782 329.596 120.056 363.723 120.056Z" fill="#494949"/>
</g>
<defs>
<clipPath id="clip0_6483_235">
<rect width="512" height="512" fill="white"/>
</clipPath>
</defs>
</svg>
