<svg xmlns="http://www.w3.org/2000/svg" viewBox="0 0 12.83 16.46"><defs><style>.cls-1{fill:#ffda66;}.cls-2{fill:#494949;}</style></defs><g id="Layer_2" data-name="Layer 2"><g id="Layer_1-2" data-name="Layer 1"><path class="cls-1" d="M.85,16.09A5.69,5.69,0,0,0,6.54,10.4,5.68,5.68,0,0,0,.85,4.72H.38V16.09Z"/><path class="cls-2" d="M11.36,16.46H1.48A1.47,1.47,0,0,1,0,15V1.48A1.48,1.48,0,0,1,1.48,0h9.88a1.47,1.47,0,0,1,1.47,1.48V15A1.47,1.47,0,0,1,11.36,16.46ZM1.48.75a.73.73,0,0,0-.73.73V15a.73.73,0,0,0,.73.72h9.88a.72.72,0,0,0,.72-.72V1.48a.73.73,0,0,0-.72-.73Z"/><path class="cls-2" d="M12.22,3.83H.86a.38.38,0,0,1-.38-.38.37.37,0,0,1,.38-.37H12.22a.37.37,0,0,1,.37.37A.38.38,0,0,1,12.22,3.83Z"/><path class="cls-2" d="M9.49,11.33A.38.38,0,0,1,9.11,11V9.48a.38.38,0,0,1,.38-.38.37.37,0,0,1,.37.38V11A.37.37,0,0,1,9.49,11.33Z"/><path class="cls-2" d="M4.57,14.42A.38.38,0,0,1,4.19,14V6.4A.38.38,0,0,1,4.57,6a4.2,4.2,0,0,1,0,8.4Zm.37-7.63v6.86a3.45,3.45,0,0,0,0-6.86Z"/><path class="cls-2" d="M3.08,2.37h-1a.38.38,0,0,1,0-.75h1a.38.38,0,0,1,0,.75Z"/><path class="cls-2" d="M6,2.37H4.19a.38.38,0,0,1,0-.75H6a.38.38,0,0,1,0,.75Z"/></g></g></svg>