<svg width="512" height="512" viewBox="0 0 512 512" fill="none" xmlns="http://www.w3.org/2000/svg">
<g clip-path="url(#clip0_6483_227)">
<circle cx="256" cy="512" r="200" fill="#FFE785"/>
<path d="M22.113 275.842L130.977 451.042H382.724L488.186 275.842L512 286.046L399.734 476.557H115.668L0 286.046L22.113 275.842ZM299.375 379.601L302.777 381.303L306.179 383.002C328.292 396.61 353.807 398.311 377.621 388.106C384.425 384.704 391.229 388.108 394.631 394.912C398.033 401.716 394.631 408.52 387.827 411.922C358.91 423.829 326.591 422.125 297.674 408.517L294.272 406.818L290.87 405.115C270.458 393.208 243.243 391.51 222.831 403.417L219.429 405.115L214.326 408.517C187.11 423.826 154.791 425.527 125.874 413.62C119.07 410.218 117.369 403.414 119.07 396.61C122.472 389.806 129.276 388.107 136.08 389.808C154.791 398.313 176.904 398.311 197.316 388.106L200.718 386.407L205.821 383.002C233.037 364.291 268.757 364.292 299.375 379.601ZM299.375 328.571L302.777 330.273H304.478C324.89 342.18 352.106 345.581 374.219 337.076L379.322 335.377L399.734 326.872C406.538 323.47 413.342 326.87 416.744 333.674C418.445 340.478 416.744 345.58 411.641 348.982H409.94L389.528 357.487C358.91 369.394 324.89 367.696 295.973 352.387L292.572 350.684H290.87C270.458 338.777 243.243 337.075 222.831 348.982L219.429 350.684H217.728C190.512 367.694 156.492 371.098 125.874 360.892L120.771 359.189L107.163 354.086C100.359 350.684 96.9568 343.88 100.359 337.076C102.06 330.272 108.864 328.572 115.668 330.273H117.369L130.977 335.377C154.791 343.882 180.306 343.879 200.718 331.972L204.12 330.273H205.821C233.037 313.263 268.757 313.262 299.375 328.571ZM299.375 277.541L302.777 279.243H304.478C324.89 291.15 352.106 294.551 374.219 286.046L379.322 284.347L420.146 267.337C426.95 263.935 433.754 267.336 437.156 274.14C438.857 280.944 437.156 286.045 432.053 289.447H430.352L389.528 306.457C358.91 318.364 324.89 316.666 295.973 301.357L292.572 299.655H290.87C270.458 287.748 243.243 286.045 222.831 297.952L219.429 299.655H217.728C190.512 316.664 156.492 320.068 125.874 309.862L120.771 308.159L79.9469 291.15C73.1429 287.748 69.7409 280.944 73.1429 274.14C74.8439 267.336 81.6479 265.636 88.4519 267.337H90.1529L130.977 284.347C154.791 292.852 180.306 292.849 200.718 280.942L204.12 279.243H205.821C233.037 262.233 268.757 262.232 299.375 277.541ZM295.973 36L306.179 53.01L309.581 59.8123C314.684 68.3173 319.787 78.5249 324.89 87.0299L328.292 93.8322L333.395 104.04L336.797 112.545C343.601 127.854 347.003 139.761 347.003 146.565C347.003 173.781 324.89 195.892 295.973 195.892C267.057 195.892 244.944 173.781 244.944 146.565C244.944 136.359 250.047 121.049 261.954 98.9361C263.655 95.5341 265.356 90.4319 267.057 87.0299C272.16 78.5249 277.262 68.3173 282.365 59.8123L289.169 47.9061L295.973 36ZM295.973 87.0299L294.272 90.4311L289.169 98.9361L287.468 102.337L284.067 109.144L280.664 115.946L277.263 122.752L275.562 127.852L273.86 132.956L272.159 138.06C270.458 141.462 270.459 144.862 270.459 144.862C270.459 158.47 282.365 168.679 295.973 168.679C309.581 168.679 321.488 158.47 321.488 144.862C321.488 143.161 321.488 139.762 319.787 134.659L318.086 129.555L316.385 124.451L312.983 117.649L309.581 110.842L306.179 104.04L302.777 95.5349L301.077 92.1337L295.973 87.0299Z" fill="#494949"/>
<path d="M415.015 53.0098C415.015 53.0098 389.5 90.4309 389.5 107.441C389.5 124.451 401.407 138.06 415.015 138.06C428.623 138.06 440.53 124.451 440.53 107.441C440.53 90.4309 415.015 53.0098 415.015 53.0098Z" fill="#494949"/>
</g>
<defs>
<clipPath id="clip0_6483_227">
<rect width="512" height="512" fill="white"/>
</clipPath>
</defs>
</svg>
