<svg id="Layer_1" data-name="Layer 1" xmlns="http://www.w3.org/2000/svg" viewBox="0 0 22 22"><defs><style>.cls-1{fill:#ffda66;}.cls-2{fill:#494949;}</style></defs><title>Iconset for Detail page</title><path class="cls-1" d="M17.345,14.577a8.517,8.517,0,1,0-17.033,0v.712H17.345Z"/><path class="cls-2" d="M18.384,2.315a.456.456,0,0,0-.456.456l0,8.171a.456.456,0,0,0,.456.456h0a.457.457,0,0,0,.456-.456l0-8.171a.456.456,0,0,0-.456-.456Z"/><path class="cls-2" d="M21.688,20.06H.655a.375.375,0,0,1-.375-.375v-.88a10.892,10.892,0,0,1,21.783,0v.88A.374.374,0,0,1,21.688,20.06ZM1.03,19.31H21.313v-.5a10.142,10.142,0,0,0-20.283,0Z"/><circle class="cls-2" cx="16.006" cy="16.838" r="0.719"/><circle class="cls-2" cx="13.695" cy="16.838" r="0.719"/><circle class="cls-2" cx="18.339" cy="16.838" r="0.719"/></svg>