<?xml version="1.0" encoding="utf-8"?>
<!-- Generator: Adobe Illustrator 26.1.0, SVG Export Plug-In . SVG Version: 6.00 Build 0)  -->
<svg version="1.1" id="Layer_1" xmlns="http://www.w3.org/2000/svg" xmlns:xlink="http://www.w3.org/1999/xlink" x="0px" y="0px"
	 viewBox="0 0 100 100" style="enable-background:new 0 0 100 100;" xml:space="preserve">
<style type="text/css">
	.st0{clip-path:url(#SVGID_00000079484114495975124920000013506589039987003048_);}
	.st1{opacity:0.7;fill:#FFCC05;}
	.st2{fill:none;stroke:#231F20;stroke-width:3;stroke-miterlimit:10;}
	.st3{fill:#231F20;stroke:#231F20;stroke-miterlimit:10;}
	.st4{fill:#231F20;}
	.st5{fill:none;stroke:#231F20;stroke-miterlimit:10;}
</style>
<g>
	<defs>
		<rect id="SVGID_1_" width="100" height="100"/>
	</defs>
	<clipPath id="SVGID_00000091004610637010672070000016605969968475971498_">
		<use xlink:href="#SVGID_1_"  style="overflow:visible;"/>
	</clipPath>
	<g style="clip-path:url(#SVGID_00000091004610637010672070000016605969968475971498_);">
		<path class="st1" d="M84.33,88.11h-40.8c0.07-7.41,4.1-13.87,10.08-17.37c0.87-0.52,1.78-0.97,2.73-1.34
			c0.91-0.37,1.85-0.68,2.82-0.9c0.2-0.06,0.4-0.1,0.6-0.14h0.03c1.34-0.28,2.72-0.43,4.14-0.43c1.71,0,3.36,0.21,4.95,0.61
			c0.69,0.17,1.37,0.38,2.04,0.62c0.69,0.25,1.37,0.54,2.03,0.88c0.75,0.36,1.47,0.77,2.16,1.23
			C80.61,74.87,84.26,81.06,84.33,88.11z"/>
		<path class="st2" d="M14.53,69.89h-0.05h-0.25c-3.1,0-5.61,2.52-5.61,5.62v6.98c0,3.1,2.51,5.62,5.61,5.62h29.3h40.8h2.07
			c3.11,0,5.62-2.52,5.62-5.62v-6.98c0-3.1-2.51-5.62-5.62-5.62h-0.24h-0.05"/>
		<path class="st2" d="M86.16,71.39v-3.65c0-2.55-1.68-4.61-3.75-4.61H18.24c-2.07,0-3.75,2.07-3.75,4.61v3.65"/>
		<path class="st2" d="M22.66,63.17h-5.11v-10.7c0-1.37,1.11-2.47,2.47-2.47h0.16c1.37,0,2.47,1.11,2.47,2.47V63.17z"/>
		<path class="st2" d="M38.57,63.17h-5.11v-10.7c0-1.37,1.11-2.47,2.47-2.47h0.16c1.37,0,2.47,1.11,2.47,2.47V63.17z"/>
		<line class="st2" x1="20.11" y1="27.94" x2="20.11" y2="50"/>
		<line class="st2" x1="35.6" y1="27.94" x2="35.6" y2="50"/>
		<circle class="st3" cx="20.11" cy="23.89" r="1.53"/>
		<g>
			<circle class="st4" cx="20.64" cy="69.89" r="1.53"/>
			<circle class="st4" cx="25.53" cy="69.89" r="1.53"/>
			<circle class="st4" cx="30.43" cy="69.89" r="1.53"/>
			<circle class="st4" cx="35.32" cy="69.89" r="1.53"/>
			<circle class="st4" cx="40.21" cy="69.89" r="1.53"/>
			<circle class="st4" cx="45.11" cy="69.89" r="1.53"/>
			<circle class="st4" cx="50" cy="69.89" r="1.53"/>
			<circle class="st4" cx="54.89" cy="69.89" r="1.53"/>
			<circle class="st4" cx="59.79" cy="69.89" r="1.53"/>
			<circle class="st4" cx="64.68" cy="69.89" r="1.53"/>
			<circle class="st4" cx="69.57" cy="69.89" r="1.53"/>
			<circle class="st4" cx="74.47" cy="69.89" r="1.53"/>
			<circle class="st4" cx="79.36" cy="69.89" r="1.53"/>
		</g>
		<g>
			<circle class="st4" cx="20.64" cy="78.7" r="1.53"/>
			<circle class="st4" cx="25.53" cy="78.7" r="1.53"/>
			<circle class="st4" cx="30.43" cy="78.7" r="1.53"/>
			<circle class="st4" cx="35.32" cy="78.7" r="1.53"/>
		</g>
		<circle class="st3" cx="35.6" cy="23.89" r="1.53"/>
		<path class="st2" d="M42.9,18.12c2.17,1.01,3.67,3.22,3.67,5.77c0,2.85-1.86,5.27-4.44,6.09"/>
		<path class="st2" d="M48.27,12.75c3.36,2.55,5.52,6.59,5.52,11.14c0,4.83-2.43,9.08-6.14,11.61"/>
		<path class="st2" d="M53.37,7.65c4.93,3.85,8.09,9.83,8.09,16.56c0,6.85-3.27,12.93-8.34,16.76"/>
		<line class="st5" x1="36.59" y1="24.44" x2="36.36" y2="24.66"/>
		<line class="st5" x1="36.59" y1="24.44" x2="36.36" y2="24.21"/>
	</g>
</g>
</svg>
