<svg id="Layer_1" data-name="Layer 1" xmlns="http://www.w3.org/2000/svg" viewBox="0 0 22 22"><defs><style>.cls-1{fill:#ffda66;}.cls-2{fill:#494949;}</style></defs><title>Iconset for Detail page</title><path class="cls-1" d="M10.62,13.929a6.07,6.07,0,1,0,7.162-9.8l-.41-.3-7.162,9.8Z"/><path class="cls-2" d="M15.532,14.207a6.431,6.431,0,0,1-3.719-1.182.419.419,0,0,1-.1-.582l6.973-9.866a.419.419,0,0,1,.582-.1,6.457,6.457,0,0,1-3.736,11.73Zm-2.889-1.635a5.625,5.625,0,0,0,6.475-9.161Z"/><path class="cls-2" d="M19.543,19.6H12.727a.417.417,0,0,1-.417-.417,3.825,3.825,0,1,1,7.65,0A.417.417,0,0,1,19.543,19.6Zm-6.37-.834H19.1a2.991,2.991,0,0,0-5.924,0Z"/><path class="cls-2" d="M8.367,19.6H1.551a.417.417,0,0,1-.417-.417,3.825,3.825,0,0,1,7.65,0A.417.417,0,0,1,8.367,19.6ZM2,18.765H7.921a2.991,2.991,0,0,0-5.924,0Z"/><path class="cls-2" d="M9.5,14.207H.417a.417.417,0,0,1,0-.834H9.5a.417.417,0,0,1,0,.834Z"/></svg>