<svg xmlns="http://www.w3.org/2000/svg" viewBox="0 0 19.36 14.28"><defs><style>.cls-1{opacity:0.7;}.cls-2{fill:#ffcc05;}.cls-3{fill:#494949;}</style></defs><g id="Layer_2" data-name="Layer 2"><g id="Layer_1-2" data-name="Layer 1"><g class="cls-1"><path class="cls-2" d="M.67,13.91a7.34,7.34,0,1,1,14.67,0"/></g><path class="cls-3" d="M14.84,14.28H1.32A1.32,1.32,0,0,1,0,13V4.63A1.32,1.32,0,0,1,1.32,3.31H11.64a.38.38,0,1,1,0,.75H1.32a.58.58,0,0,0-.57.57V13a.57.57,0,0,0,.57.57H14.84a.57.57,0,0,0,.57-.57V7.75a.38.38,0,1,1,.75,0V13A1.32,1.32,0,0,1,14.84,14.28Z"/><path class="cls-3" d="M12.08,9.5h-2a.25.25,0,0,1,0-.5h2a.25.25,0,0,1,0,.5Z"/><path class="cls-3" d="M12.06,8.82h-2a.25.25,0,0,1-.25-.25.25.25,0,0,1,.25-.25h2a.25.25,0,0,1,.25.25A.25.25,0,0,1,12.06,8.82Z"/><path class="cls-3" d="M11.25,11.25a.26.26,0,0,1-.21-.11l-.61-.94a.24.24,0,0,1,0-.19.25.25,0,0,1,.11-.16l.13-.08a.7.7,0,0,0,.36-1,.27.27,0,0,1,0-.12.28.28,0,0,1,.26-.25.24.24,0,0,1,.24.19A1.16,1.16,0,0,1,11,10.14l.47.72a.26.26,0,0,1-.08.35A.22.22,0,0,1,11.25,11.25Z"/><path class="cls-3" d="M15.38,8a4,4,0,1,1,4-4A4,4,0,0,1,15.38,8Zm0-7.2A3.23,3.23,0,1,0,18.61,4,3.23,3.23,0,0,0,15.38.75Z"/><path class="cls-3" d="M14,5.75a.4.4,0,0,1-.27-.11.39.39,0,0,1,0-.53l2.79-2.79a.37.37,0,0,1,.53.53L14.25,5.64A.38.38,0,0,1,14,5.75Z"/><path class="cls-3" d="M16.78,5.75a.4.4,0,0,1-.27-.11L13.72,2.85a.39.39,0,0,1,0-.53.37.37,0,0,1,.53,0L17,5.11a.37.37,0,0,1,0,.53A.38.38,0,0,1,16.78,5.75Z"/><path class="cls-3" d="M5,9a4,4,0,0,1,.5-2.16A1.77,1.77,0,0,1,7.13,6a1.8,1.8,0,0,1,1.64.78A4,4,0,0,1,9.26,9a4,4,0,0,1-.49,2.16,1.78,1.78,0,0,1-1.64.79,1.77,1.77,0,0,1-1.64-.78A4.08,4.08,0,0,1,5,9ZM8.33,9a3.77,3.77,0,0,0-.25-1.52,1,1,0,0,0-1-.53,1,1,0,0,0-1,.53A3.57,3.57,0,0,0,5.92,9a3.69,3.69,0,0,0,.25,1.53.94.94,0,0,0,1,.53.94.94,0,0,0,1-.53A3.86,3.86,0,0,0,8.33,9Z"/></g></g></svg>