<svg width="53" height="45" viewBox="0 0 53 45" fill="none" xmlns="http://www.w3.org/2000/svg">
<path d="M26.3941 10.5607C25.9862 10.5607 25.6545 10.2288 25.6545 9.82112C25.6545 9.4132 25.9862 9.08154 26.3941 9.08154C26.802 9.08154 27.1337 9.4132 27.1337 9.82112C27.1337 10.2288 26.802 10.5607 26.3941 10.5607ZM28.5457 6.99977H24.2425L23 12.0586H29.7884L28.5457 6.99977Z" fill="#FFCC05"/>
<path d="M26.3726 28H29.7453V38.3027H23V28H26.3726Z" fill="#FFCC05"/>
<path d="M50.2094 21.7333H44.4942L43.2844 20.3053H50.044L51.2538 21.7333H50.2094ZM49.8524 38.3343H43.4857V22.4474H49.8524V38.3343ZM31.5357 43.7787V39.0483H33.9953V43.7787H31.5357ZM21.5595 43.1315H30.8217V43.7787H21.5595V43.1315ZM18.3859 40.2681V39.0483H20.8454V43.7787H18.3859V40.2681ZM8.05238 22.4474H8.8954V38.3343H2.52881V22.4474H8.05238ZM2.33729 20.3053H9.09675L7.88697 21.7333H1.12736L2.33729 20.3053ZM3.54246 11.7573C3.78587 11.4103 4.01568 11.0826 4.25436 11.0826H8.05238H8.06238H11.8605C12.0992 11.0826 12.3289 11.4103 12.5724 11.7573C12.6435 11.859 12.7178 11.9627 12.7951 12.0644H3.31961C3.39715 11.9627 3.47125 11.859 3.54246 11.7573ZM5.22376 9.82282H6.24094C6.24373 9.82282 6.24663 9.82401 6.24951 9.82401C6.25275 9.82401 6.25601 9.82282 6.25937 9.82282H8.05262L8.05738 9.82235L8.06214 9.82282H10.8911C11.0203 9.82282 11.1926 10.0682 11.3445 10.285C11.3638 10.3122 11.384 10.3405 11.404 10.3686H8.06238H8.05238H4.71092C4.73091 10.3405 4.75119 10.3122 4.77033 10.285C4.92215 10.0682 5.09442 9.82282 5.22376 9.82282ZM6.66871 8.75013C6.72069 8.67944 6.81785 8.58828 7.0445 8.61137C7.16286 8.62279 7.27796 8.57639 7.354 8.48595C7.42995 8.3955 7.45637 8.27316 7.42428 8.15963C7.37994 8.0016 7.346 7.78787 7.43692 7.66768C7.52534 7.55082 7.75154 7.48394 8.05738 7.48299C8.36322 7.48394 8.58956 7.55082 8.67786 7.66768C8.76878 7.78787 8.73498 8.0016 8.69047 8.15963C8.65858 8.27316 8.68476 8.3955 8.76093 8.48595C8.83709 8.57639 8.95204 8.62279 9.07033 8.61137C9.29692 8.58733 9.39402 8.67944 9.44614 8.75013C9.52469 8.85699 9.55563 8.99504 9.56348 9.10881H8.06214L8.05738 9.10928L8.05262 9.10881H6.55137C6.55918 8.99504 6.59005 8.85699 6.66871 8.75013ZM13.12 19.5913V17.3302C13.12 17.2993 13.1148 17.2695 13.1074 17.241C13.0922 16.8473 12.9915 15.2532 12.3636 14.7943C12.3025 14.7495 12.2287 14.7255 12.153 14.7255L12.1432 14.5111C12.1432 14.314 11.9833 14.1541 11.7862 14.1541C11.5889 14.1541 11.4292 14.314 11.4292 14.5111V14.7255H11.4195C11.3435 14.7255 11.27 14.7495 11.2086 14.7943C10.4943 15.3162 10.4622 17.3102 10.4622 17.3302V19.5913H10.3334H9.86718H2.52881V12.7784H13.596V19.5913H13.12ZM16.9845 16.9732L18.1943 15.5452H34.1868L35.3966 16.9732H34.0286C33.881 16.7102 33.7051 16.4839 33.4919 16.328C33.4307 16.2835 33.3569 16.2592 33.2812 16.2592H32.9837V16.0212C32.9837 15.8241 32.824 15.6642 32.6267 15.6642C32.4297 15.6642 32.2697 15.8241 32.2697 16.0212V16.2592H31.9722C31.8965 16.2592 31.8227 16.2835 31.7616 16.328C30.7629 17.058 30.5442 19.2747 30.5442 20.0673V20.3351H29.1756V19.383C29.1756 19.186 29.0159 19.026 28.8186 19.026H27.8521C27.7812 17.6087 27.283 17.246 26.7725 17.0032C26.5561 16.8999 26.5476 16.8961 26.5476 16.7352C26.5476 16.5382 26.3879 16.3782 26.1906 16.3782C25.9935 16.3782 25.8336 16.5382 25.8336 16.7352C25.8336 16.8961 25.8252 16.8999 25.6086 17.0032C25.0984 17.246 24.6 17.6087 24.5291 19.026H23.5625C23.3654 19.026 23.2055 19.186 23.2055 19.383V20.3351H21.837V20.0673C21.837 19.2747 21.6182 17.058 20.6196 16.328C20.5584 16.2835 20.4849 16.2592 20.4089 16.2592H20.1114V16.0212C20.1114 15.8241 19.9517 15.6642 19.7544 15.6642C19.5573 15.6642 19.3974 15.8241 19.3974 16.0212V16.2592H19.0999C19.0242 16.2592 18.9504 16.2835 18.8893 16.328C18.676 16.4839 18.5001 16.7102 18.3526 16.9732H16.9845ZM18.9902 8.01541H19.43C19.6023 8.26079 19.7561 8.9522 19.8042 9.54935H18.616C18.6641 8.9522 18.8179 8.26079 18.9902 8.01541ZM20.1114 10.2634V11.3801H18.3859V10.2634H20.1114ZM18.3859 14.8312V12.0941H20.1114V14.8312H18.3859ZM26.1906 12.7784H31.5557V14.8312H20.8254V12.7784H26.1906ZM24.1154 7.18524H28.2657L29.4643 12.0644H22.917L24.1154 7.18524ZM22.7795 6.47122C22.5062 6.47122 22.2837 6.24892 22.2837 5.97546C22.2837 5.70223 22.5062 5.47969 22.7795 5.47969C23.0529 5.47969 23.2752 5.70223 23.2752 5.97546C23.2752 6.24892 23.0529 6.47122 22.7795 6.47122ZM24.3596 4.53743H28.0218V4.77853C27.9799 4.77401 27.9392 4.76567 27.8961 4.76567C27.5636 4.76567 27.2623 4.90062 27.0433 5.11863C26.8244 4.90062 26.5231 4.76567 26.1906 4.76567C25.8581 4.76567 25.5568 4.90062 25.3378 5.11863C25.1188 4.90062 24.8175 4.76567 24.485 4.76567C24.4419 4.76567 24.4015 4.77401 24.3596 4.77853V4.53743ZM25.5887 3.16889H26.7925L27.0286 3.82341H25.3528L25.5887 3.16889ZM26.1906 1.34172C26.4809 1.68754 26.6011 2.14261 26.6509 2.45488H26.1906H25.7303C25.78 2.14261 25.9002 1.68754 26.1906 1.34172ZM29.6017 5.47969C29.8751 5.47969 30.0974 5.70223 30.0974 5.97546C30.0974 6.24892 29.8751 6.47122 29.6017 6.47122C29.3284 6.47122 29.1059 6.24892 29.1059 5.97546C29.1059 5.70223 29.3284 5.47969 29.6017 5.47969ZM27.4004 5.97546C27.4004 5.70223 27.6229 5.47969 27.8961 5.47969C28.1696 5.47969 28.3919 5.70223 28.3919 5.97546C28.3919 6.24892 28.1696 6.47122 27.8961 6.47122C27.6229 6.47122 27.4004 6.24892 27.4004 5.97546ZM25.6948 5.97546C25.6948 5.70223 25.9173 5.47969 26.1906 5.47969C26.464 5.47969 26.6863 5.70223 26.6863 5.97546C26.6863 6.24892 26.464 6.47122 26.1906 6.47122C25.9173 6.47122 25.6948 6.24892 25.6948 5.97546ZM23.9893 5.97546C23.9893 5.70223 24.2118 5.47969 24.485 5.47969C24.7585 5.47969 24.9808 5.70223 24.9808 5.97546C24.9808 6.24892 24.7585 6.47122 24.485 6.47122C24.2118 6.47122 23.9893 6.24892 23.9893 5.97546ZM32.9511 8.01541H33.391C33.5635 8.26079 33.7173 8.9522 33.7651 9.54935H32.577C32.6251 8.9522 32.7788 8.26079 32.9511 8.01541ZM32.2697 12.4214V12.0941H33.9953V14.8312H32.2697V12.4214ZM33.9953 10.2634V11.3801H32.2697V10.2634H33.9953ZM39.9751 17.6872H41.2049V19.5913H39.9751V17.6872ZM40.3752 15.4395H40.8148C40.9874 15.6847 41.1411 16.3761 41.1892 16.9732H40.0011C40.0489 16.3761 40.2027 15.6847 40.3752 15.4395ZM43.1287 21.7333H34.7093V20.3053H42.3486L43.5583 21.7333H43.1287ZM42.7717 38.3343H41.7402V31.9476C41.7402 31.4314 41.3977 31.1303 41.1473 30.9101C40.925 30.7145 40.8277 30.615 40.8277 30.4801C40.8277 29.9974 40.5111 29.7106 40.28 29.5014C40.1246 29.3602 40.0394 29.2741 40.0092 29.1886C40.1601 28.8357 39.9159 28.4285 39.73 28.1198C39.6529 27.9917 39.5237 27.7773 39.5187 27.7032C39.5187 27.5062 39.359 27.3462 39.1616 27.3462H38.7254H38.2891C38.0921 27.3462 37.9321 27.5045 37.9321 27.7016C37.9271 27.7773 37.7981 27.9917 37.7208 28.1198C37.5351 28.4285 37.2907 28.8357 37.4418 29.1886C37.4114 29.2741 37.3264 29.3602 37.1707 29.5014C36.9396 29.7106 36.6231 29.9974 36.6231 30.4801C36.6231 30.615 36.5257 30.7145 36.3034 30.9101C36.0533 31.1303 35.7106 31.4314 35.7106 31.9476V38.3343H34.3523H34.0698V31.3036C34.7521 30.6881 34.3634 30.0607 34.1916 29.7832C34.174 29.7549 34.1521 29.7194 34.1331 29.6868C34.3639 29.5207 34.5153 29.2981 34.5724 29.0385C34.6115 28.8621 34.6041 28.6717 34.5562 28.4818C34.6486 28.4173 34.7093 28.3104 34.7093 28.1893V26.315H36.1671C36.3063 26.315 36.4324 26.2343 36.491 26.1081C36.5495 25.982 36.5293 25.8335 36.4396 25.7271L34.7093 23.685V22.4474H42.0477H42.7717V38.3343ZM37.6503 30.0302C37.8114 29.8843 37.9999 29.7134 38.0999 29.4742H38.7254H39.3511C39.4508 29.7134 39.6393 29.8843 39.8007 30.0302C40.0006 30.2116 40.1137 30.3218 40.1137 30.4801C40.1137 30.952 40.4255 31.226 40.6758 31.4464C40.8996 31.643 41.0262 31.7634 41.0262 31.9476V38.3343H36.4246V31.9476C36.4246 31.7634 36.5512 31.643 36.7749 31.4464C37.0255 31.226 37.3371 30.952 37.3371 30.4801C37.3371 30.3218 37.4501 30.2116 37.6503 30.0302ZM38.5647 28.0603H38.886C38.9455 28.2014 39.0305 28.3425 39.1183 28.4882C39.1643 28.5646 39.2252 28.6676 39.2726 28.7602H38.7254H38.1782C38.2256 28.6676 38.2865 28.5646 38.3327 28.4882C38.4203 28.3425 38.5052 28.2014 38.5647 28.0603ZM49.8524 39.9111H34.7093V39.0483H49.8524V39.9111ZM48.877 40.6251H49.8524V41.3769L48.877 40.6251ZM34.7093 43.2255L35.4269 43.7787H34.7093V43.2255ZM21.1229 23.4589H18.3859V20.4243H21.1229V23.4589ZM26.1906 23.4589H21.837V23.1316H30.5442V23.4589H26.1906ZM33.9953 22.0904V23.4589H31.2582V20.4243H33.9953V22.0904ZM26.1906 22.0904H30.5442V22.4176H21.837V22.0904H26.1906ZM20.6767 27.8322H18.3859V26.315H20.6767V27.8322ZM34.3523 25.6009H16.9845L18.1943 24.1729H34.1868L35.3966 25.6009H34.3523ZM33.9953 27.8322H31.7045V26.315H33.9953V27.8322ZM32.6267 16.9732H33.1525C33.2758 17.091 33.3853 17.2634 33.4824 17.468L33.4845 17.4726C33.7703 18.0785 33.9403 18.9796 33.9836 19.7103H31.2699C31.3279 18.7304 31.6126 17.4397 32.1012 16.9732H32.6267ZM26.1906 21.0491H30.5442V21.3763H21.837V21.0491H26.1906ZM26.1906 19.74H28.4616V20.3351H23.9195V19.74H26.1906ZM26.1906 17.4923C26.2841 17.5594 26.3819 17.608 26.4659 17.648C26.7558 17.786 27.08 17.9438 27.1376 19.026H26.1906H25.2435C25.3011 17.9438 25.6253 17.786 25.9152 17.648C25.9992 17.608 26.097 17.5594 26.1906 17.4923ZM18.8966 17.4726L18.8988 17.468C18.9959 17.2634 19.1056 17.091 19.2289 16.9732H19.7544H20.2802C20.7686 17.4397 21.0532 18.7304 21.1113 19.7103H18.3975C18.4409 18.9796 18.6108 18.0785 18.8966 17.4726ZM10.8192 20.3053H17.6719V21.7333H8.82281L10.0326 20.3053H10.3334H10.8192ZM11.1762 17.6872H12.406V19.5913H11.1762V17.6872ZM11.5663 15.4395H12.0059C12.1785 15.6847 12.3322 16.3761 12.3803 16.9732H11.1922C11.24 16.3761 11.3937 15.6847 11.5663 15.4395ZM18.0289 38.3343H16.6706V31.9476C16.6706 31.4314 16.3281 31.1303 16.0777 30.9101C15.8554 30.7145 15.7581 30.615 15.7581 30.4801C15.7581 29.9974 15.4415 29.7106 15.2104 29.5014C15.055 29.3602 14.9698 29.2741 14.9396 29.1886C15.0905 28.8357 14.8463 28.4285 14.6604 28.1198C14.5833 27.9917 14.454 27.7773 14.449 27.7032C14.449 27.5062 14.2893 27.3462 14.092 27.3462H13.6558H13.2195C13.0224 27.3462 12.8625 27.5045 12.8625 27.7016C12.8575 27.7773 12.7285 27.9917 12.6511 28.1198C12.4655 28.4285 12.2211 28.8357 12.3722 29.1886C12.3417 29.2741 12.2568 29.3602 12.1011 29.5014C11.87 29.7106 11.5534 29.9974 11.5534 30.4801C11.5534 30.615 11.4561 30.7145 11.2338 30.9101C10.9837 31.1303 10.6409 31.4314 10.6409 31.9476V38.3343H9.60942V22.4474H10.3334H17.6719V23.685L15.9418 25.7271C15.8518 25.8335 15.8318 25.982 15.8902 26.1081C15.9487 26.2343 16.0751 26.315 16.2141 26.315H17.6719V28.1893C17.6719 28.3104 17.7328 28.4173 17.8249 28.4818C17.7773 28.6717 17.7697 28.8621 17.8087 29.0385C17.8658 29.2969 18.0158 29.5188 18.2483 29.6865C18.2293 29.7194 18.2074 29.7549 18.1895 29.7832C18.0177 30.0607 17.629 30.6881 18.3116 31.3036V38.3343H18.0289ZM17.6719 43.2255V43.7787H16.9543L17.6719 43.2255ZM2.52881 40.6251H3.50407L2.52881 41.3769V40.6251ZM12.5807 30.0302C12.7418 29.8843 12.9303 29.7134 13.0303 29.4742H13.6558H14.2815C14.3812 29.7134 14.5697 29.8843 14.7311 30.0302C14.931 30.2116 15.044 30.3218 15.044 30.4801C15.044 30.952 15.3558 31.226 15.6062 31.4464C15.8299 31.643 15.9566 31.7634 15.9566 31.9476V38.3343H11.355V31.9476C11.355 31.7634 11.4816 31.643 11.7053 31.4464C11.9559 31.226 12.2675 30.952 12.2675 30.4801C12.2675 30.3218 12.3805 30.2116 12.5807 30.0302ZM13.4951 28.0603H13.8164C13.8759 28.2014 13.9609 28.3425 14.0487 28.4882C14.0946 28.5646 14.1556 28.6676 14.2029 28.7602H13.6558H13.1086C13.1559 28.6676 13.2169 28.5646 13.263 28.4882C13.3506 28.3425 13.4356 28.2014 13.4951 28.0603ZM9.25241 39.0483H17.6719V39.9111H2.52881V39.0483H9.25241ZM2.52881 43.7787V42.2782L4.67337 40.6251H6.77815L2.68666 43.7787H2.52881ZM3.85653 43.7787L7.9479 40.6251H10.0526L5.9611 43.7787H3.85653ZM7.13097 43.7787L11.2224 40.6251H13.3271L9.23551 43.7787H7.13097ZM10.4053 43.7787L14.4969 40.6251H16.6015L12.51 43.7787H10.4053ZM13.6798 43.7787L17.6719 40.7017V42.3239L15.7845 43.7787H13.6798ZM19.5314 38.3343H19.0256V31.1346C19.0256 31.0215 18.9721 30.9154 18.8814 30.848C18.5313 30.5876 18.6034 30.471 18.7967 30.1592C18.9143 29.9695 19.0473 29.7544 18.9868 29.4995C18.9621 29.3959 18.8933 29.2486 18.706 29.1341C18.5932 29.0654 18.5277 28.9837 18.5061 28.8847C18.4849 28.7888 18.5049 28.6676 18.5553 28.5463H20.5075C20.5577 28.6676 20.5779 28.7888 20.5567 28.8847C20.5348 28.9837 20.4694 29.0654 20.3566 29.1341C20.1693 29.2486 20.1005 29.3959 20.076 29.4995C20.0153 29.7544 20.1483 29.9695 20.2661 30.1592C20.4591 30.471 20.5315 30.5876 20.1812 30.848C20.0905 30.9154 20.0372 31.0215 20.0372 31.1346V38.3343H19.5314ZM26.1906 41.0566H21.5595V40.4094H30.8217V41.0566H26.1906ZM26.1906 28.3975H29.4434V38.3343H22.9377V28.3975H26.1906ZM21.5595 39.0483H30.8217V39.6954H21.5595V39.0483ZM26.1906 42.4175H21.5595V41.7706H30.8217V42.4175H26.1906ZM31.1787 38.3343H30.1574V28.0405C30.1574 27.8434 29.9977 27.6835 29.8004 27.6835H26.1906H22.5807C22.3837 27.6835 22.2237 27.8434 22.2237 28.0405V38.3343H21.2024H20.7512V31.3036C21.4335 30.6881 21.0449 30.0607 20.873 29.7832C20.8554 29.7549 20.8335 29.7194 20.8145 29.6868C21.0454 29.5207 21.1967 29.2981 21.2539 29.0385C21.2929 28.8621 21.2855 28.6717 21.2377 28.4818C21.33 28.4173 21.3907 28.3104 21.3907 28.1893V26.315H26.1906H30.9904V28.1893C30.9904 28.3104 31.0514 28.4173 31.1435 28.4818C31.0959 28.6717 31.0883 28.8621 31.1273 29.0385C31.1844 29.2969 31.3344 29.5188 31.5669 29.6865C31.5478 29.7194 31.5259 29.7549 31.5081 29.7832C31.3363 30.0607 30.9476 30.6881 31.6302 31.3036V38.3343H31.1787ZM32.85 38.3343H32.3442V31.1346C32.3442 31.0215 32.2907 30.9154 32.2 30.848C31.8496 30.5876 31.922 30.471 32.1152 30.1592C32.2328 29.9695 32.3659 29.7544 32.3054 29.4995C32.2807 29.3959 32.2119 29.2486 32.0246 29.1341C31.9118 29.0654 31.8463 28.9837 31.8246 28.8847C31.8035 28.7888 31.8235 28.6676 31.8739 28.5463H33.826C33.8763 28.6676 33.8965 28.7888 33.8753 28.8847C33.8534 28.9837 33.788 29.0654 33.6751 29.1341C33.4878 29.2486 33.419 29.3959 33.3945 29.4995C33.3338 29.7544 33.4669 29.9695 33.5847 30.1592C33.7777 30.471 33.8501 30.5876 33.4997 30.848C33.409 30.9154 33.3557 31.0215 33.3557 31.1346V38.3343H32.85ZM36.5967 43.7787L34.7093 42.3239V40.7017L38.7013 43.7787H36.5967ZM39.8711 43.7787L35.7798 40.6251H37.8843L41.9758 43.7787H39.8711ZM43.1456 43.7787L39.0543 40.6251H41.1588L45.2503 43.7787H43.1456ZM46.4201 43.7787L42.3286 40.6251H44.4332L48.5248 43.7787H46.4201ZM49.6946 43.7787L45.603 40.6251H47.7077L49.8524 42.2782V43.7787H49.6946ZM38.7851 12.7784H49.8524V19.5913H41.9189V17.3302C41.9189 17.3102 41.8868 15.3162 41.1726 14.7943C41.1114 14.7495 41.0376 14.7255 40.9619 14.7255H40.9522V14.5111C40.9522 14.314 40.7922 14.1541 40.5952 14.1541C40.3978 14.1541 40.2381 14.314 40.2381 14.5111V14.7255H40.2284C40.1525 14.7255 40.0789 14.7495 40.0175 14.7943C39.3899 15.2532 39.289 16.8473 39.2737 17.241C39.2664 17.2695 39.2611 17.2993 39.2611 17.3302V19.5913H38.7851V12.7784ZM39.8088 11.7573C40.0523 11.4103 40.2822 11.0826 40.5207 11.0826H44.3188H44.3288H48.1268C48.3656 11.0826 48.5952 11.4103 48.8387 11.7573C48.9099 11.859 48.9841 11.9627 49.0615 12.0644H39.586C39.6636 11.9627 39.7376 11.859 39.8088 11.7573ZM41.4901 9.82282H42.5073C42.5102 9.82282 42.513 9.82401 42.5159 9.82401C42.5192 9.82401 42.5223 9.82282 42.5256 9.82282H44.319L44.3238 9.82235L44.3285 9.82282H47.1575C47.2867 9.82282 47.459 10.0682 47.6109 10.285C47.6301 10.3122 47.6504 10.3405 47.6704 10.3686H44.3288H44.3188H40.9774C40.9974 10.3405 41.0176 10.3122 41.0367 10.285C41.1885 10.0682 41.3608 9.82282 41.4901 9.82282ZM42.935 8.75013C42.9871 8.67944 43.084 8.58828 43.3108 8.61137C43.4293 8.62279 43.5445 8.57639 43.6205 8.48595C43.6964 8.3955 43.7228 8.27316 43.6907 8.15963C43.6462 8.0016 43.6124 7.78787 43.7033 7.66768C43.7918 7.55082 44.0179 7.48394 44.3238 7.48299C44.6296 7.48394 44.8557 7.55082 44.9442 7.66768C45.0352 7.78787 45.0014 8.0016 44.9568 8.15963C44.925 8.27316 44.9511 8.3955 45.0273 8.48595C45.1032 8.57639 45.2187 8.62279 45.3367 8.61137C45.5635 8.58733 45.6604 8.67944 45.7125 8.75013C45.7911 8.85699 45.822 8.99504 45.8299 9.10881H44.3285L44.3238 9.10928L44.319 9.10881H42.8177C42.8255 8.99504 42.8564 8.85699 42.935 8.75013ZM50.5664 19.8174V12.7784H51.6077C51.805 12.7784 51.9647 12.6184 51.9647 12.4214C51.9647 12.2243 51.805 12.0644 51.6077 12.0644H50.2094C49.9262 12.0644 49.682 11.7159 49.4233 11.3472C49.3619 11.2597 49.2981 11.1704 49.2319 11.0826H49.7431C49.9405 11.0826 50.1002 10.9226 50.1002 10.7256C50.1002 10.5285 49.9405 10.3686 49.7431 10.3686H48.7045C48.5417 10.3686 48.3658 10.1175 48.1954 9.87495C47.956 9.53341 47.658 9.10881 47.1575 9.10881H46.5441C46.5355 8.86009 46.466 8.58805 46.3128 8.36218C46.1643 8.14393 45.9591 7.99827 45.7149 7.93305C45.7259 7.66149 45.6587 7.42849 45.5136 7.23665C45.2839 6.93343 44.8762 6.77254 44.3349 6.76944C44.3328 6.76921 44.3309 6.76873 44.3288 6.76873L44.3238 6.76897L44.3188 6.76873C44.3166 6.76873 44.3149 6.76921 44.3128 6.76944C43.7713 6.77254 43.3636 6.93343 43.1342 7.23665C42.989 7.42849 42.9219 7.66149 42.9326 7.93305C42.6887 7.99827 42.4835 8.14393 42.335 8.36218C42.1815 8.58805 42.112 8.86009 42.1034 9.10881H41.4901C40.9895 9.10881 40.6915 9.53341 40.4521 9.87495C40.2819 10.1175 40.1058 10.3686 39.943 10.3686H38.9044C38.7073 10.3686 38.5474 10.5285 38.5474 10.7256C38.5474 10.9226 38.7073 11.0826 38.9044 11.0826H39.4156C39.3497 11.1704 39.2857 11.2597 39.2242 11.3472C38.9655 11.7159 38.7213 12.0644 38.4381 12.0644H38.4281H37.0398C36.8428 12.0644 36.6828 12.2243 36.6828 12.4214C36.6828 12.6184 36.8428 12.7784 37.0398 12.7784H38.0711V19.5913H34.6898C34.6519 19.0622 34.5512 18.3406 34.3363 17.6872H36.1671C36.3063 17.6872 36.4324 17.6066 36.491 17.4804C36.5495 17.3543 36.5293 17.2058 36.4396 17.0994L34.7093 15.0573V11.7371V9.90636C34.7093 9.7538 34.6134 9.62457 34.4786 9.57339C34.436 8.97909 34.284 7.76145 33.7487 7.37017C33.6873 7.32566 33.6137 7.30139 33.5378 7.30139H33.528V7.08718C33.528 6.89012 33.3684 6.73018 33.171 6.73018C32.974 6.73018 32.814 6.89012 32.814 7.08718V7.30139H32.8043C32.7286 7.30139 32.6548 7.32566 32.5936 7.37017C32.0636 7.75741 31.9094 8.95362 31.8651 9.55411C31.6906 9.57767 31.5557 9.72548 31.5557 9.90636V11.7371V12.0644H30.1993L28.9538 6.99364C29.1416 7.11336 29.3629 7.18524 29.6017 7.18524C30.2688 7.18524 30.8115 6.64259 30.8115 5.97546C30.8115 5.30833 30.2688 4.76567 29.6017 4.76567C29.2692 4.76567 28.9679 4.90062 28.7489 5.11863C28.7448 5.11459 28.7399 5.1115 28.7358 5.10769V4.18042C28.7358 3.98335 28.5759 3.82341 28.3788 3.82341H27.7876L27.3984 2.74453C27.3865 2.45035 27.284 1.25818 26.4286 0.582962C26.4252 0.580106 26.4219 0.577008 26.4186 0.57439C26.4148 0.571296 26.4117 0.567968 26.4079 0.56535C26.4017 0.560589 26.395 0.557495 26.3886 0.553211C26.3781 0.546309 26.3676 0.539165 26.3565 0.533215C26.3455 0.527264 26.3341 0.522746 26.3224 0.517986C26.3131 0.514416 26.3036 0.510367 26.2939 0.507511C26.281 0.503703 26.2679 0.50085 26.2548 0.49847C26.2456 0.496804 26.2363 0.495138 26.2267 0.494186C26.2139 0.492758 26.201 0.492518 26.188 0.492756C26.1777 0.492756 26.1675 0.492758 26.1575 0.49371C26.1453 0.4949 26.1334 0.497278 26.1215 0.49942C26.1108 0.501562 26.1001 0.503706 26.0894 0.507038C26.078 0.51037 26.0666 0.514887 26.0554 0.519409C26.0454 0.523693 26.0354 0.527505 26.0256 0.532742C26.0137 0.53893 26.0028 0.546546 25.9916 0.553925C25.9854 0.557971 25.979 0.560827 25.9733 0.56535C25.9697 0.567968 25.9666 0.571298 25.963 0.574154C25.9595 0.57701 25.9559 0.580104 25.9526 0.583199C25.0972 1.25818 24.9946 2.45035 24.9827 2.74453L24.5938 3.82341H24.0026C23.8053 3.82341 23.6456 3.98335 23.6456 4.18042V5.10769C23.6415 5.1115 23.6363 5.11459 23.6322 5.11863C23.4133 4.90062 23.112 4.76567 22.7795 4.76567C22.1123 4.76567 21.5697 5.30833 21.5697 5.97546C21.5697 6.64259 22.1123 7.18524 22.7795 7.18524C23.0182 7.18524 23.2395 7.11336 23.4273 6.99364L22.1818 12.0644H20.8254V11.7371V9.90636C20.8254 9.72548 20.6905 9.57767 20.516 9.55411C20.4718 8.95362 20.3175 7.75741 19.7875 7.37017C19.7263 7.32566 19.6525 7.30139 19.5769 7.30139L19.5671 7.08718C19.5671 6.89012 19.4074 6.73018 19.2101 6.73018C19.0128 6.73018 18.8531 6.89012 18.8531 7.08718V7.30139H18.8433C18.7676 7.30139 18.6939 7.32566 18.6327 7.37017C18.0974 7.76145 17.9451 8.97909 17.9025 9.57339C17.7678 9.62457 17.6719 9.7538 17.6719 9.90636V11.7371V15.0573L15.9418 17.0994C15.8518 17.2058 15.8318 17.3543 15.8902 17.4804C15.9487 17.6066 16.0751 17.6872 16.2141 17.6872H18.0451C17.8301 18.3406 17.7292 19.0622 17.6916 19.5913H14.31V12.7784H15.3413C15.5386 12.7784 15.6983 12.6184 15.6983 12.4214C15.6983 12.2243 15.5386 12.0644 15.3413 12.0644H13.953H13.943C13.6598 12.0644 13.4156 11.7159 13.1569 11.3472C13.0955 11.2597 13.0317 11.1704 12.9655 11.0826H13.4768C13.6741 11.0826 13.8338 10.9226 13.8338 10.7256C13.8338 10.5285 13.6741 10.3686 13.4768 10.3686H12.4381C12.2753 10.3686 12.0994 10.1175 11.929 9.87495C11.6896 9.53341 11.3916 9.10881 10.8911 9.10881H10.2777C10.2692 8.86009 10.1997 8.58805 10.0464 8.36218C9.89788 8.14393 9.69272 7.99827 9.44853 7.93305C9.45947 7.66149 9.39235 7.42849 9.24717 7.23665C9.01749 6.93343 8.60979 6.77254 8.06857 6.76944C8.06642 6.76921 8.06452 6.76873 8.06238 6.76873L8.05738 6.76897L8.05238 6.76873C8.05024 6.76873 8.04857 6.76921 8.04643 6.76944C7.50499 6.77254 7.09741 6.93343 6.86776 7.23665C6.72264 7.42849 6.65541 7.66149 6.66628 7.93305C6.42216 7.99827 6.21705 8.14393 6.06848 8.36218C5.91518 8.58805 5.84564 8.86009 5.8371 9.10881H5.22376C4.72311 9.10881 4.42513 9.53341 4.18574 9.87495C4.01549 10.1175 3.83942 10.3686 3.67672 10.3686H2.63803C2.44075 10.3686 2.28103 10.5285 2.28103 10.7256C2.28103 10.9226 2.44075 11.0826 2.63803 11.0826H3.1493C3.08318 11.1704 3.01932 11.2597 2.95796 11.3472C2.69932 11.7159 2.45498 12.0644 2.17181 12.0644H0.773521C0.576214 12.0644 0.416512 12.2243 0.416512 12.4214C0.416512 12.6184 0.576214 12.7784 0.773521 12.7784H1.8148V19.8174L0.0845898 21.8595C-0.0052098 21.9659 -0.0253927 22.1144 0.0330853 22.2405C0.0915633 22.3667 0.21792 22.4474 0.357011 22.4474H1.8148V38.6913V40.2681V44.1357C1.8148 44.3327 1.9745 44.4927 2.17181 44.4927H18.0289H21.2024H26.1906H31.1787H34.3523H50.2094C50.4067 44.4927 50.5664 44.3327 50.5664 44.1357V40.2681V38.6913V22.4474H52.0242C52.1634 22.4474 52.2896 22.3667 52.3481 22.2405C52.4067 22.1144 52.3864 21.9659 52.2967 21.8595L50.5664 19.8174Z" fill="#858585"/>
</svg>
