<svg width="63" height="34" viewBox="0 0 63 34" fill="none" xmlns="http://www.w3.org/2000/svg">
<path d="M10.9248 24.6698C10.9248 24.6698 11.7296 22.3286 13.6318 22.3286C15.5339 22.3286 16.485 24.6698 16.485 24.6698V29.1692H10.9248V24.6698Z" fill="#FFCC05"/>
<path d="M46.2617 24.7049C46.2617 24.7049 47.0665 22.3638 48.9687 22.3638C50.8708 22.3638 51.8219 24.7049 51.8219 24.7049V29.2043H46.2617V24.7049Z" fill="#FFCC05"/>
<path d="M31.4982 0.135987C31.2738 0.311573 31.2641 0.370101 31.2836 1.36509L31.3031 2.3991L30.6008 2.84782C30.2106 3.09169 29.0595 3.81354 28.0255 4.4476L26.1623 5.59866L23.7334 5.58891C22.4067 5.57916 21.2167 5.60842 21.0996 5.64744C20.8167 5.73523 20.7582 6.07665 20.7387 7.69594L20.7289 8.97382L18.3097 10.4858L15.8808 11.9978H12.808H9.73527L9.54993 12.2319C9.39386 12.4173 9.36459 12.6221 9.36459 13.4513C9.36459 14.3682 9.34508 14.4658 9.14999 14.6511C9.02317 14.7584 8.18426 15.1974 7.26731 15.6461C6.36012 16.0851 5.54072 16.485 5.46268 16.5338C5.38464 16.5826 5.05298 16.7484 4.73107 16.9045C0.595042 18.9139 0.370682 19.0505 0.585287 19.5968C0.702344 19.9089 0.887685 19.9382 2.97521 19.9284C4.4872 19.9284 4.74082 19.948 4.83837 20.0943C4.92617 20.2113 4.94567 21.6941 4.91641 26.3568C4.8969 29.7125 4.85788 32.4926 4.82862 32.5219C4.79935 32.5511 3.7751 32.5706 2.546 32.5804C0.087793 32.5804 0 32.5999 0 33.1754C0 33.4096 0.0585287 33.5364 0.22436 33.6242C0.399946 33.7315 6.17478 33.7607 30.1911 33.7802C46.5596 33.7997 60.5187 33.7802 61.2308 33.751C61.9526 33.7119 62.5769 33.6339 62.655 33.5754C62.9086 33.3803 62.9379 33.0681 62.7428 32.8145C62.5574 32.5901 62.5379 32.5901 60.3041 32.5804C59.0652 32.5804 58.0312 32.5511 57.9922 32.5219C57.9629 32.4828 57.9239 29.7125 57.9141 26.3471C57.8849 20.5723 57.8946 20.2308 58.0605 20.0748C58.197 19.9577 58.4604 19.9187 59.3383 19.9187C59.9529 19.9187 60.4894 19.9382 60.5382 19.9577C60.626 20.0065 60.9186 19.9967 61.6405 19.9187C62.2453 19.8602 62.5184 19.4407 62.216 19.0505C62.1087 18.9042 60.7333 18.2018 56.8704 16.2899C56.3631 16.0363 55.8754 15.7924 55.7974 15.7436C55.7193 15.6949 55.2218 15.4608 54.7048 15.2169C54.1781 14.9633 53.6806 14.6706 53.6025 14.5536C53.4952 14.3975 53.4562 14.0853 53.4562 13.4025C53.4562 11.9393 53.6611 12.0271 50.442 12.0076L47.7887 11.9783L45.428 10.5151L43.0674 9.05186L43.0576 7.6179C43.0381 5.99861 42.9991 5.74499 42.7357 5.65719C42.6382 5.62793 41.4091 5.59866 39.9946 5.57916L37.4389 5.55965L34.9416 3.99888L32.4347 2.43812V1.39435C32.4347 0.594461 32.4054 0.311573 32.2883 0.20427C32.025 -0.0395995 31.7421 -0.0688638 31.4982 0.135987ZM32.8541 4.04765C33.3418 4.3403 33.7515 4.63294 33.7515 4.70122C33.7515 4.83779 29.9862 4.87681 29.8984 4.74024C29.8399 4.6427 31.6933 3.45261 31.8591 3.49163C31.9176 3.50139 32.3664 3.75501 32.8541 4.04765ZM30.591 6.04738C30.6105 6.09616 30.2788 6.3888 29.8496 6.6912L29.079 7.23747L27.6841 7.24722C26.9134 7.25698 26.2306 7.22771 26.1623 7.18869C26.0063 7.08139 26.1623 6.93507 27.1183 6.34978L27.8499 5.90106L29.2058 5.92057C30.0057 5.94008 30.5812 5.98886 30.591 6.04738ZM36.678 6.42782C37.1365 6.71071 37.5266 7.02286 37.5364 7.11066C37.5657 7.26673 37.4486 7.27649 36.0732 7.24722L34.5807 7.21796L33.8491 6.6912C33.4491 6.39856 33.098 6.14493 33.0785 6.13518C33.0687 6.11567 33.0785 6.06689 33.1175 6.00837C33.1565 5.94008 33.6735 5.90106 34.5124 5.90106H35.8488L36.678 6.42782ZM24.0748 6.7985C24.026 6.94482 22.1238 8.14466 22.0263 8.08613C21.9385 8.02761 21.919 6.83752 22.0068 6.74973C22.0458 6.72046 22.5238 6.6912 23.0896 6.6912C23.8114 6.6912 24.0943 6.72046 24.0748 6.7985ZM33.9369 8.16417C34.9319 8.87627 35.7513 9.51033 35.7708 9.56886C35.8098 9.69567 28.0157 9.72494 27.9377 9.59813C27.9182 9.55911 28.7766 8.88603 29.8594 8.10564C31.3909 7.00335 31.8591 6.71071 31.9859 6.77899C32.0737 6.82777 32.9517 7.45207 33.9369 8.16417ZM41.8285 6.7985C41.9748 6.94482 41.9846 7.96908 41.8383 8.1154C41.7602 8.19344 41.4188 8.02761 40.6189 7.53987C40.0141 7.15943 39.5361 6.80826 39.5654 6.76924C39.6434 6.63267 41.6919 6.66194 41.8285 6.7985ZM27.3427 8.39829C27.3817 8.43731 27.2158 8.61289 26.9817 8.78848C26.7476 8.96406 26.5135 9.2372 26.455 9.40303L26.3574 9.68592L24.1919 9.69567C22.5531 9.69567 22.0361 9.67616 22.0751 9.57862C22.0946 9.52009 22.5238 9.20793 23.0213 8.90554L23.9382 8.33976H25.6063C26.533 8.33976 27.3134 8.36902 27.3427 8.39829ZM40.7262 8.9348C41.2042 9.2372 41.6139 9.52984 41.6334 9.58837C41.6822 9.73469 37.5754 9.72494 37.3901 9.57862C37.3218 9.52984 37.2633 9.40303 37.2633 9.30548C37.2633 9.20793 37.0682 8.99333 36.8243 8.81774C36.5902 8.65191 36.4146 8.46657 36.4439 8.4178C36.4731 8.36902 37.2535 8.34951 38.1802 8.36902L39.858 8.39829L40.7262 8.9348ZM44.6086 11.354C45.0769 11.6369 45.4378 11.9003 45.4183 11.9393C45.35 12.0368 18.339 11.9978 18.3585 11.8905C18.3683 11.8417 18.7292 11.5783 19.1584 11.315L19.9485 10.8175L31.8494 10.8272L43.76 10.837L44.6086 11.354ZM19.295 13.5683C19.3145 13.9 19.2852 14.0073 19.0901 14.1536C18.8462 14.3585 18.9535 14.3487 15.6857 14.2414C14.837 14.2121 14.1444 14.2219 14.1444 14.2609C14.1444 14.3097 13.3933 14.339 12.4666 14.3292C10.8473 14.3194 10.7888 14.3194 10.6132 14.1048C10.4181 13.8512 10.3986 13.7244 10.5254 13.383L10.6132 13.1586H14.9443L19.2657 13.1684L19.295 13.5683ZM21.5191 17.0215C21.5191 19.1383 21.5386 21.2551 21.5581 21.7136C21.5678 22.1818 21.5581 22.6013 21.5288 22.65C21.4898 22.7086 21.4703 24.9229 21.48 27.5762C21.48 30.2295 21.4605 32.4536 21.4215 32.5219C21.3337 32.6682 20.6119 32.6584 20.5241 32.5121C20.4363 32.3755 20.4558 23.7816 20.5338 23.645C20.5728 23.5962 20.5631 23.5084 20.5241 23.4402C20.446 23.3134 20.4363 21.9965 20.5143 21.5868C20.5436 21.4404 20.5338 21.2941 20.485 21.2648C20.4168 21.2258 20.4168 20.6796 20.485 20.6796C20.5338 20.6796 20.5338 20.1235 20.485 20.0943C20.4168 20.0553 20.446 18.6701 20.5241 18.2799C20.5533 18.1336 20.5436 17.9872 20.5046 17.958C20.407 17.8604 20.407 17.1971 20.4948 17.0118C20.5436 16.924 20.5436 16.8264 20.5143 16.7874C20.4363 16.7094 20.4655 13.3342 20.5436 13.1976C20.5728 13.1489 20.807 13.1196 21.0508 13.1391L21.5093 13.1684L21.5191 17.0215ZM40.1117 13.461C40.1995 13.7829 40.1312 32.3951 40.0434 32.5414C39.9653 32.6584 38.5607 32.6584 38.4826 32.5316C38.4436 32.4731 38.4046 29.8295 38.3948 26.6495C38.3753 22.7281 38.3265 20.6698 38.2485 20.2406C37.6242 16.7972 34.7465 14.2804 31.4592 14.2902C30.8154 14.2902 29.3717 14.5243 29.0985 14.6706C29.001 14.7194 28.6205 14.9047 28.2401 15.0901C27.4109 15.49 26.2111 16.5826 25.6551 17.4702C25.2064 18.1823 24.9527 18.7969 24.6601 19.8992C24.465 20.6503 24.4552 20.9234 24.426 26.5617C24.4065 29.8003 24.3674 32.4828 24.3382 32.5316C24.2504 32.6779 22.8555 32.6487 22.7677 32.5121C22.6896 32.3853 22.7091 24.3766 22.7969 23.4109C22.8262 23.0792 22.7969 22.6598 22.7482 22.4549C22.6896 22.2598 22.6799 22.0745 22.7189 22.055C22.7579 22.0257 22.7774 21.7916 22.7579 21.538C22.7286 21.2844 22.7189 20.9137 22.7189 20.7283C22.7189 14.5731 22.7384 13.2464 22.7872 13.1976C22.8164 13.1586 26.7086 13.1391 31.4397 13.1489L40.0336 13.1684L40.1117 13.461ZM42.3358 13.3732C42.4918 13.7634 42.4528 22.094 42.3065 22.2793C42.2382 22.3574 42.2382 22.3964 42.287 22.3671C42.3943 22.2989 42.3943 32.356 42.287 32.5316C42.1992 32.6682 41.4871 32.6584 41.3993 32.5121C41.3603 32.4536 41.331 30.1222 41.3408 27.3323C41.3505 24.5522 41.331 22.2208 41.292 22.1525C41.1944 22.0062 41.1652 21.8014 41.2432 21.8014C41.3115 21.8014 41.292 16.407 41.2237 16.1143C41.2042 16.0265 41.214 15.9485 41.2432 15.9485C41.2822 15.9485 41.3017 15.373 41.2822 14.6706C41.2627 13.9683 41.2725 13.3245 41.3017 13.2562C41.3408 13.1684 41.5164 13.1196 41.7992 13.1196C42.1894 13.1196 42.2577 13.1489 42.3358 13.3732ZM52.2466 13.2367C52.3734 13.4318 52.3149 14.0073 52.1686 14.1536C52.032 14.2902 51.7686 14.3097 50.3152 14.2804C48.0618 14.2414 47.1644 14.2414 45.3305 14.2804C44.2184 14.2999 43.76 14.2804 43.6527 14.1926C43.5161 14.0756 43.438 13.3147 43.5551 13.1976C43.6527 13.1001 52.1881 13.1391 52.2466 13.2367ZM15.2662 15.4998C15.8027 15.4998 16.866 15.4803 17.6366 15.4705C18.6024 15.4608 19.0804 15.4803 19.1779 15.5681C19.3828 15.7436 19.3437 16.1826 19.0999 16.407C18.856 16.6118 19.0706 16.6118 15.393 16.4752C14.7005 16.4557 14.1444 16.4655 14.1444 16.5045C14.1444 16.5533 12.9251 16.5826 11.4424 16.5826C9.30606 16.5826 8.74029 16.5533 8.70127 16.4557C8.65249 16.3094 8.94514 15.9485 9.11097 15.9485C9.17925 15.9485 9.40361 15.8509 9.60846 15.7339C9.94988 15.5485 10.1937 15.5095 11.6082 15.4705C12.4959 15.4315 13.4616 15.4315 13.7542 15.4608C14.0469 15.4803 14.7297 15.4998 15.2662 15.4998ZM45.3597 15.4608C45.5451 15.4608 45.984 15.4412 46.3352 15.4217C46.6864 15.412 47.0181 15.4217 47.0668 15.451C47.2327 15.5388 48.8129 15.529 48.9983 15.4412C49.1153 15.3827 49.2226 15.3925 49.3104 15.4608C49.3885 15.529 49.4958 15.5485 49.5543 15.5095C49.6226 15.4705 50.3249 15.4412 51.1248 15.4412C52.4124 15.4412 52.6271 15.4608 52.9685 15.6461C53.1831 15.7631 53.4269 15.8509 53.505 15.8509C53.5733 15.8509 53.7684 15.968 53.9439 16.1046C54.4512 16.5435 54.2463 16.6021 52.5588 16.563C50.7834 16.5143 47.8082 16.5045 45.4963 16.5533C44.1892 16.5728 43.799 16.5533 43.6722 16.446C43.4771 16.2899 43.4478 15.7241 43.6331 15.5778C43.76 15.4705 44.277 15.4022 44.7257 15.4315C44.8915 15.451 45.1744 15.4608 45.3597 15.4608ZM32.22 15.8509C34.0832 16.1241 35.8001 17.6556 36.5804 19.7431L36.8048 20.3577L36.795 26.4056C36.795 29.732 36.7658 32.4828 36.7268 32.5121C36.6585 32.5804 26.1331 32.5511 26.0648 32.4828C26.0355 32.4536 26.0063 30.5612 25.9965 28.259C25.9867 25.9667 25.9672 23.3914 25.9575 22.533C25.9282 21.3526 25.9672 20.8161 26.0843 20.3284C26.7086 17.7336 28.8449 15.8705 31.3129 15.7631C31.4494 15.7631 31.8591 15.8022 32.22 15.8509ZM10.0669 17.7044C11.4716 17.7044 12.7397 17.7141 12.8763 17.7336C13.1104 17.7434 14.9053 17.7434 17.7049 17.7239C18.5438 17.7141 19.1096 17.7531 19.1877 17.8214C19.3632 17.9677 19.3437 18.3872 19.1486 18.6018C19.0023 18.7676 18.6316 18.7774 11.4424 18.7774C5.96993 18.7774 3.89216 18.7481 3.92142 18.6701C3.94093 18.6115 4.33112 18.3677 4.77984 18.1336C5.57974 17.7239 5.63826 17.7044 6.41865 17.7141C6.86737 17.7239 7.25756 17.7044 7.28682 17.6653C7.31609 17.6361 7.37462 17.6361 7.41363 17.6556C7.46241 17.6848 8.65249 17.7044 10.0669 17.7044ZM57.7873 17.997C58.4311 18.2896 58.6848 18.5042 58.5775 18.6798C58.5385 18.7481 56.1973 18.7774 51.1053 18.7676C43.9941 18.7579 43.6917 18.7579 43.6039 18.5823C43.4771 18.3482 43.4771 17.9677 43.6039 17.8409C43.6527 17.7921 46.2864 17.7434 50.4322 17.7336L57.1728 17.7239L57.7873 17.997ZM6.93565 20.104C7.06246 20.2211 7.08197 20.9137 7.05271 26.3373C7.04295 29.7027 7.00393 32.4828 6.97467 32.5414C6.89663 32.6584 6.27233 32.6584 6.19429 32.5316C6.16502 32.4828 6.126 29.6832 6.11625 26.3081L6.08698 20.1626L6.33085 20.0162C6.58448 19.8602 6.66252 19.8797 6.93565 20.104ZM19.1486 20.0357C19.2852 20.143 19.295 20.8844 19.2559 26.3081C19.2364 29.693 19.1974 32.4828 19.1779 32.5024C19.1291 32.5609 8.39887 32.5706 8.34034 32.5121C8.31107 32.4926 8.27206 29.693 8.24279 26.3081C8.20377 20.3381 8.20377 20.143 8.38911 20.0162C8.65249 19.8309 18.9243 19.8504 19.1486 20.0357ZM45.3792 19.9967C45.428 20.0553 45.4573 20.065 45.4573 19.9967C45.4573 19.9284 46.9985 19.8992 49.9055 19.9089H54.3634L54.5487 20.143C54.7146 20.3479 54.7243 20.4942 54.6658 22.2306C54.6268 23.2548 54.5878 25.9667 54.578 28.259C54.5683 30.5612 54.539 32.4633 54.5097 32.4926C54.4317 32.5609 43.7112 32.5706 43.6429 32.5024C43.6136 32.4731 43.5746 29.6832 43.5551 26.2983C43.5258 21.6453 43.5453 20.1333 43.6331 20.065C43.8575 19.8797 45.2622 19.8211 45.3792 19.9967ZM56.5485 20.065C56.7436 20.2894 56.7436 20.3772 56.7143 26.3666C56.6948 29.7027 56.6558 32.4828 56.6265 32.5316C56.5387 32.6682 55.9242 32.6487 55.8364 32.5121C55.7974 32.4536 55.7778 30.4831 55.8071 28.1517C55.8266 25.8106 55.8461 23.05 55.8461 22.016C55.8461 20.2601 55.8559 20.1138 56.0315 19.987C56.2851 19.8114 56.3144 19.8114 56.5485 20.065Z" fill="#858585"/>
<path d="M12.6038 21.1298C11.4917 21.4322 10.7211 21.9882 10.1943 22.8954C9.58954 23.9294 9.5115 24.4269 9.52126 27.4607C9.52126 30.3578 9.55052 30.5237 10.0285 30.6505C10.3699 30.748 17.0324 30.748 17.3934 30.6505C17.5592 30.6017 17.7055 30.4749 17.764 30.3091C17.8226 30.1725 17.8909 29.1482 17.9201 28.0459C17.9884 25.578 17.8323 24.066 17.4324 23.3149C17.3739 23.2076 17.2665 23.0027 17.1885 22.8564C16.9934 22.4565 16.2325 21.7249 15.7741 21.4907C15.2083 21.2079 14.1743 20.925 13.7061 20.9347C13.4915 20.9347 12.994 21.0225 12.6038 21.1298ZM14.623 22.6516C15.3449 22.9442 16.0765 23.7246 16.2325 24.3879C16.3691 24.9049 16.3789 29.0019 16.2521 29.0995C16.1252 29.197 11.3161 29.197 11.1601 29.0995C11.0332 29.0214 11.0528 24.622 11.1796 24.2904C11.482 23.4905 12.2819 22.7589 13.0818 22.5443C13.6378 22.3979 14.0767 22.4272 14.623 22.6516Z" fill="#858585"/>
<path d="M47.8482 21.1412C46.307 21.59 45.3315 22.6435 44.9511 24.2628C44.8145 24.8285 44.7755 29.7352 44.9023 30.2132C45.0291 30.7009 45.1657 30.7204 48.5798 30.7594C52.2379 30.7985 52.7159 30.7497 52.9987 30.3595C53.1938 30.1059 53.2036 29.9596 53.2133 27.4818C53.2133 24.5944 53.1256 24.0091 52.5695 23.0142C52.0135 22.0289 51.2039 21.4241 50.004 21.1022C49.1554 20.8779 48.7164 20.8876 47.8482 21.1412ZM49.7309 22.5849C50.3942 22.741 51.1551 23.4531 51.4477 24.175C51.5941 24.5164 51.7209 25.4626 51.6331 25.5504C51.5648 25.6089 51.5843 26.682 51.6623 27.9013C51.6916 28.3305 51.6721 28.789 51.6233 28.9158L51.5453 29.1402L48.9603 29.1597L46.385 29.1694L46.3753 26.9746C46.3753 25.765 46.4143 24.6237 46.463 24.4384C46.7167 23.5214 47.5458 22.7508 48.5018 22.5362C48.8335 22.4679 49.1846 22.4289 49.2627 22.4581C49.3407 22.4874 49.5553 22.5459 49.7309 22.5849Z" fill="#858585"/>
</svg>
