<svg xmlns="http://www.w3.org/2000/svg" viewBox="0 0 40 37.155"><defs><style>.cls-1{fill:#fff;}.cls-2{fill:#ffcc05;}.cls-3{fill:#858585;}</style></defs><title>Asset 15</title><g id="Layer_2" data-name="Layer 2"><g id="Layer_1-2" data-name="Layer 1"><polygon class="cls-1" points="7.75 14.078 7.625 36.655 14.25 36.655 14.25 28.523 14.438 22.651 15.531 19.901 17.594 18.578 20.188 17.744 23.344 18.578 25.156 20.838 25.875 23.713 25.875 32.369 25.875 36.655 32.406 36.526 32.406 26.276 32.563 17.276 32.563 14.078 7.75 14.078"/><rect class="cls-2" x="7.625" y="4.996" width="24.938" height="4.583"/><rect class="cls-1" x="5.47" y="9.579" width="29.25" height="4.498"/><rect class="cls-1" x="10.887" y="0.537" width="18.125" height="4.498"/><path class="cls-3" d="M32.479,10H7.468a.5.5,0,0,1-.5-.5V5.072a.5.5,0,0,1,.5-.5H32.479a.5.5,0,0,1,.5.5V9.5A.5.5,0,0,1,32.479,10ZM7.968,9H31.979V5.572H7.968Z"/><path class="cls-3" d="M34.621,14.433H5.326a.5.5,0,0,1-.5-.5V9.5a.5.5,0,0,1,.5-.5h29.3a.5.5,0,0,1,.5.5v4.43A.5.5,0,0,1,34.621,14.433Zm-28.795-1h28.3V10H5.826Z"/><path class="cls-3" d="M32.479,37.155H25.692a.5.5,0,0,1-.5-.5V23.421a5.145,5.145,0,0,0-10.289,0l.02,13.233a.5.5,0,0,1-.5.5H7.637a.5.5,0,0,1-.5-.5V13.933a.5.5,0,0,1,1,0V36.155h5.785L13.9,23.422a6.145,6.145,0,0,1,12.289,0V36.155h5.787V13.933a.5.5,0,0,1,1,0V36.655A.5.5,0,0,1,32.479,37.155Z"/><path class="cls-3" d="M28.917,5.572H11.03a.5.5,0,0,1-.5-.5V.5a.5.5,0,0,1,.5-.5H28.917a.5.5,0,0,1,.5.5V5.072A.5.5,0,0,1,28.917,5.572Zm-17.387-1H28.417V1H11.53Z"/><path class="cls-3" d="M29.946,21.712H27.993a.5.5,0,0,1,0-1h1.953a.5.5,0,0,1,0,1Z"/><path class="cls-2" d="M29.946,25.794H27.993a.5.5,0,0,1,0-1h1.953a.5.5,0,0,1,0,1Z"/><path class="cls-2" d="M29.946,29.523H27.993a.5.5,0,0,1,0-1h1.953a.5.5,0,0,1,0,1Z"/><path class="cls-2" d="M29.946,33.6H27.993a.5.5,0,0,1,0-1h1.953a.5.5,0,1,1,0,1Z"/><path class="cls-3" d="M12.006,21.712H10.054a.5.5,0,1,1,0-1h1.952a.5.5,0,1,1,0,1Z"/><path class="cls-2" d="M12.006,25.794H10.054a.5.5,0,1,1,0-1h1.952a.5.5,0,0,1,0,1Z"/><path class="cls-2" d="M12.006,29.523H10.054a.5.5,0,1,1,0-1h1.952a.5.5,0,0,1,0,1Z"/><path class="cls-2" d="M12.006,33.6H10.054a.5.5,0,0,1,0-1h1.952a.5.5,0,0,1,0,1Z"/><path class="cls-3" d="M39.5,37.155H28.97a.5.5,0,0,1,0-1H39.5a.5.5,0,0,1,0,1Z"/><path class="cls-3" d="M11.03,37.155H.5a.5.5,0,0,1,0-1H11.03a.5.5,0,1,1,0,1Z"/><path class="cls-3" d="M36.4,36.915a.5.5,0,0,1-.5-.5V32.579a.5.5,0,1,1,1,0v3.836A.5.5,0,0,1,36.4,36.915Z"/><path class="cls-3" d="M3.719,36.915a.5.5,0,0,1-.5-.5V32.579a.5.5,0,0,1,1,0v3.836A.5.5,0,0,1,3.719,36.915Z"/></g></g></svg>