<svg width="81" height="45" viewBox="0 0 81 45" fill="none" xmlns="http://www.w3.org/2000/svg">
<path d="M5.20242 20.9749C5.20242 20.9749 5.8103 19.0825 7.86404 19.0825C9.91779 19.0825 10.6837 20.9749 10.6837 20.9749L10.9447 22.4757H4.94141L5.20242 20.9749Z" fill="#FFCC05"/>
<path d="M21.386 20.9749C21.386 20.9749 21.9939 19.0825 24.0476 19.0825C26.1014 19.0825 26.8672 20.9749 26.8672 20.9749L27.1283 22.4757H21.125L21.386 20.9749Z" fill="#FFCC05"/>
<path d="M69.1507 20.9749C69.1507 20.9749 69.7585 19.0825 71.8123 19.0825C73.866 19.0825 74.6319 20.9749 74.6319 20.9749L74.8929 22.4757H68.8896L69.1507 20.9749Z" fill="#FFCC05"/>
<path d="M52.968 20.9749C52.968 20.9749 53.5759 19.0825 55.6297 19.0825C57.6834 19.0825 58.4493 20.9749 58.4493 20.9749L58.7103 22.4757H52.707L52.968 20.9749Z" fill="#FFCC05"/>
<path d="M31.6299 11.1869C31.6299 11.1869 34.4632 5.37939 39.4637 5.37939C44.4641 5.37939 48.0083 9.88184 48.0083 9.88184L48.5304 11.1869L47.4211 14.7758H32.3477L31.6299 11.1869Z" fill="#FFCC05"/>
<path d="M39.0125 0.420236C38.1772 0.768251 37.9162 1.46428 37.9162 3.23916V4.77042L35.3409 6.35389L32.783 7.93736L32.6612 7.41533C32.5046 6.6323 32.0348 6.40609 31.5823 6.87591C31.3909 7.06732 31.3039 7.48494 31.3039 8.26797C31.3039 8.9466 31.1647 9.81664 30.9385 10.4779C30.6601 11.2783 30.5905 11.8003 30.6601 12.4964C30.7645 13.5404 31.5127 15.2109 32.0174 15.5241C32.2958 15.6981 32.348 15.9417 32.348 17.3164V18.9172L31.826 19.126C31.0081 19.4566 30.6079 20.2745 30.6079 21.5795V22.6932L29.2681 23.6154C28.5198 24.1026 27.8586 24.5203 27.789 24.5203C27.702 24.5203 27.6498 24.3289 27.6498 24.1026C27.6498 23.8242 27.7716 23.6328 27.9978 23.5632C28.4154 23.424 28.485 22.641 28.0848 22.5018C27.9108 22.4322 27.8238 22.1538 27.8238 21.7013C27.8238 20.7095 27.4584 20.1527 26.0141 18.9694C24.9701 18.1168 24.7091 17.8036 24.6569 17.3512C24.5524 16.2375 23.4736 16.3245 23.4736 17.4556C23.4736 17.9254 23.2996 18.1342 22.1859 19.0042C20.8461 20.0657 20.3415 20.8487 20.3415 21.8928C20.3415 22.2582 20.2371 22.4148 19.9761 22.4844C19.4888 22.6062 19.5932 23.3196 20.1327 23.5632C20.4807 23.7198 20.5155 23.8416 20.5155 25.2511V26.7824H16.0783H11.6411V25.2511C11.6411 23.8416 11.6759 23.7198 12.0413 23.5632C12.5633 23.3196 12.6677 22.6062 12.1805 22.4844C11.8847 22.4148 11.8151 22.2582 11.8151 21.6665C11.8151 20.6921 11.3453 20.0135 9.95323 18.952C8.96138 18.2038 8.75257 17.9602 8.68297 17.4382C8.52636 16.2549 7.48232 16.2723 7.46492 17.4556C7.44752 17.9254 7.25611 18.1342 6.12506 19.0216C4.733 20.1179 4.33279 20.7443 4.33279 21.8232C4.33279 22.2408 4.24578 22.4322 4.08917 22.4322C3.94997 22.4322 3.77596 22.5888 3.72376 22.7802C3.60195 23.1804 3.89777 23.6502 4.26318 23.6502C4.47199 23.6502 4.50679 25.2163 4.50679 33.2206V42.791H2.52311C0.93964 42.791 0.46982 42.8432 0.261011 43.0695C-0.0870037 43.4001 -0.0870037 43.5741 0.261011 43.9047C0.504622 44.1483 4.35019 44.1831 40.0043 44.1831C75.6584 44.1831 79.504 44.1483 79.7476 43.9047C80.0608 43.5915 80.0782 43.5045 79.852 43.1391C79.7302 42.9303 79.2256 42.8606 77.5899 42.8258L75.5018 42.7562V33.2728C75.5018 23.8068 75.5018 23.7894 75.8672 23.4936C76.1457 23.2848 76.2153 23.0934 76.1283 22.815C76.0586 22.6062 75.9194 22.4322 75.8324 22.4322C75.7454 22.4322 75.6758 22.1886 75.6758 21.8754C75.6758 20.9009 75.0494 19.9787 73.6747 18.8998C72.5089 18.0124 72.3697 17.8384 72.3697 17.3164C72.3697 16.8639 72.2827 16.6899 72.0217 16.6029C71.5171 16.4463 71.1516 16.8117 71.1516 17.473C71.1516 17.9602 70.995 18.1516 69.9684 18.9346C68.6111 19.9613 68.2283 20.5007 68.0891 21.6317C68.0195 22.119 67.8803 22.4322 67.7411 22.4322C67.4279 22.4322 67.2539 23.0934 67.4975 23.3892C67.6193 23.5284 67.8629 23.6502 68.0369 23.6502C68.3327 23.6502 68.3675 23.8068 68.3675 25.2163V26.7824H63.8433H59.3191V25.2337C59.3191 23.859 59.3539 23.6676 59.6497 23.5632C60.137 23.4066 60.224 22.989 59.8412 22.6062C59.6149 22.38 59.4931 22.0146 59.4931 21.5969C59.4931 20.6747 58.9885 19.9787 57.5791 18.9172C56.5176 18.1168 56.361 17.9254 56.361 17.4556C56.361 16.8117 55.9956 16.4463 55.491 16.6029C55.23 16.6899 55.143 16.8639 55.143 17.299C55.143 17.821 54.9863 18.0124 53.8379 18.952C52.3762 20.1353 52.0108 20.6921 52.0108 21.7013C52.0108 22.2408 51.9412 22.4148 51.6628 22.4844C51.1234 22.6236 51.193 23.4414 51.7498 23.5806C52.063 23.6502 52.1848 23.8068 52.1848 24.1026C52.1848 24.3289 52.1152 24.5203 52.0108 24.5203C51.9238 24.5203 51.2626 24.1026 50.5492 23.6154L49.2615 22.6932L49.1919 21.4403C49.1397 20.3963 49.0701 20.1179 48.7047 19.7351C48.4611 19.474 48.0957 19.1956 47.8868 19.1086C47.504 18.9694 47.4866 18.865 47.4866 17.3512C47.4866 15.8895 47.5214 15.6981 47.852 15.5067C48.0435 15.3849 48.4263 14.8281 48.6699 14.2886C49.0353 13.5056 49.1397 13.0532 49.1223 12.0787C49.1223 11.3653 49.0179 10.6693 48.8787 10.4257C48.7395 10.1821 48.5829 9.32942 48.5307 8.52898C48.4611 7.39793 48.3741 7.03252 48.1479 6.87591C47.7302 6.6149 47.2604 6.92811 47.1386 7.51974C47.0516 7.97216 47.0342 7.97216 44.5807 6.37129L42.0924 4.77042V3.23916C42.0924 1.42948 41.8314 0.768251 40.9614 0.402835C40.2305 0.107022 39.7259 0.107022 39.0125 0.420236ZM40.5959 1.65569C40.8047 1.8471 40.8743 2.28212 40.8743 3.22176V4.50941H40.0043H39.1343V3.25656C39.1343 2.35172 39.2039 1.9341 39.4301 1.69049C39.7781 1.30767 40.2305 1.29027 40.5959 1.65569ZM43.8847 7.32833C46.9646 9.19021 47.5562 9.72963 47.939 11.0521C48.2349 12.0613 48.1827 12.6878 47.7128 13.7666L47.4344 14.4278H44.7547H42.0924V13.6448C42.0924 12.5834 41.7618 11.8525 40.9788 11.1565C40.2305 10.4953 40.1435 10.4953 39.3779 10.9651C38.5426 11.4697 38.0728 12.3397 37.9684 13.5578L37.864 14.6018H35.3061C32.783 14.6018 32.7308 14.6018 32.4698 14.1842C31.9478 13.4012 31.7738 12.2701 32 11.3131C32.3132 10.008 33.1136 9.22501 35.8803 7.51974C38.2294 6.05808 38.4034 5.98847 39.5693 5.88407C40.2305 5.83187 40.8917 5.77966 41.0136 5.76226C41.1528 5.74486 42.4404 6.44089 43.8847 7.32833ZM40.4219 12.3745C40.5785 12.6008 40.7003 13.1228 40.7003 13.5926V14.4278H40.0043H39.3083V13.5926C39.3083 12.8096 39.6563 11.9917 40.0043 11.9917C40.0913 11.9917 40.2827 12.1657 40.4219 12.3745ZM46.4426 17.386V18.952H45.3985H44.3545V18.1864C44.3545 17.473 44.0413 16.8639 43.6759 16.8639C43.3453 16.8639 43.1364 17.3512 43.1364 18.1168V18.952H41.9184H40.7003V18.1864C40.7003 17.4556 40.3871 16.8639 40.0043 16.8639C39.6215 16.8639 39.3083 17.4556 39.3083 18.1864V18.952H38.1772H37.0462V18.2908C37.0462 17.6644 36.6634 16.8639 36.3502 16.8639C35.9673 16.8639 35.6541 17.4556 35.6541 18.1864V18.952H34.6101H33.566V17.386V15.8199H40.0043H46.4426V17.386ZM9.11799 19.8743C10.4752 20.8661 10.6319 21.0749 10.5623 21.7709L10.51 22.3452L8.12615 22.3974C5.75965 22.4496 5.72484 22.4322 5.63784 22.0494C5.46383 21.3881 5.77705 20.8661 6.87329 19.9787C7.43012 19.5263 7.93474 19.1434 7.98694 19.1434C8.05654 19.126 8.56117 19.474 9.11799 19.8743ZM25.3355 19.9265C26.4839 20.7443 26.8667 21.3359 26.6927 22.032C26.6057 22.4322 26.5709 22.4496 24.2044 22.3974L21.8205 22.3452L21.7683 21.7883C21.7335 21.4751 21.7683 21.1097 21.8553 20.9705C21.9945 20.7269 23.9782 19.126 24.1348 19.126C24.1696 19.126 24.7091 19.4915 25.3355 19.9265ZM56.5524 19.6655C57.9793 20.6747 58.2751 21.0401 58.2751 21.7709V22.4322H55.839C53.4551 22.4322 53.4029 22.4322 53.3159 22.032C53.1419 21.3881 53.4377 20.9183 54.5339 20.0135C55.1082 19.5263 55.6302 19.1434 55.6824 19.1434C55.7346 19.126 56.1348 19.3696 56.5524 19.6655ZM72.9961 19.9265C74.2316 20.8139 74.51 21.1793 74.423 21.8754L74.3708 22.3452H71.9347H69.4986L69.4464 21.7013C69.3942 21.1097 69.4638 21.0053 70.56 20.1005C71.2212 19.5611 71.7781 19.126 71.8129 19.126C71.8477 19.126 72.3697 19.4915 72.9961 19.9265ZM47.678 20.3441C47.9216 20.4833 48.0087 20.7095 48.0087 21.3011V22.0842H40.0043H32V21.3011C32 20.7617 32.087 20.4833 32.3132 20.3615C32.7308 20.1179 47.2082 20.1005 47.678 20.3441ZM48.8091 23.859L49.6095 24.4333L45.4681 24.4855L41.3268 24.5203L40.7873 23.9982C40.4915 23.7198 40.1435 23.4762 40.0043 23.4762C39.8651 23.4762 39.5171 23.7198 39.2213 23.9982L38.6819 24.5203L34.5405 24.4855L30.3991 24.4333L31.1647 23.8764L31.913 23.337L39.9521 23.3196L47.9913 23.3022L48.8091 23.859ZM10.423 26.7824V29.9145H8.16095H5.89885V26.7824V23.6502H8.16095H10.423V26.7824ZM26.4317 24.0504C26.4317 24.3289 26.2751 24.5377 25.9967 24.6595C25.5617 24.8683 25.5443 24.9031 25.5965 26.3821C25.6487 27.7742 25.6835 27.9308 26.0489 28.0874C26.3621 28.2266 26.4317 28.4006 26.4317 29.0793V29.9145H24.1696H21.9075V26.7824V23.6502H24.1696C26.4317 23.6502 26.4317 23.6502 26.4317 24.0504ZM58.1011 26.7824V29.9145H55.839H53.5769V29.0619C53.5769 28.2962 53.6291 28.2092 54.0119 28.1048C54.4295 28.0004 54.4469 27.9482 54.4469 26.4343C54.4469 24.9205 54.4295 24.8509 54.0119 24.6595C53.7335 24.5377 53.5769 24.3289 53.5769 24.0504C53.5769 23.6502 53.5769 23.6502 55.839 23.6502H58.1011V26.7824ZM74.1098 26.7824V29.9145H71.8477H69.5856V26.7824V23.6502H71.8477H74.1098V26.7824ZM40.4393 25.5643C40.5785 25.8427 40.7003 26.2603 40.7003 26.5214C40.7003 26.9216 40.6307 26.9564 40.0043 26.9564C39.3779 26.9564 39.3083 26.9216 39.3083 26.5214C39.3083 25.9993 39.7607 25.0423 40.0043 25.0423C40.0913 25.0423 40.2827 25.2685 40.4393 25.5643ZM38.0902 26.4343V26.9564H32.435H26.7797V26.4343V25.9123H32.435H38.0902V26.4343ZM53.2289 26.4343V26.9564H47.6606C42.9624 26.9564 42.0924 26.9216 42.0924 26.7128C42.0924 26.5736 42.0402 26.3473 41.988 26.1907C41.8836 25.9471 42.4578 25.9123 47.5562 25.9123H53.2289V26.4343ZM20.6895 29.0445V29.9145H16.1653H11.6411V29.0445V28.1744H16.1653H20.6895V29.0445ZM28.833 33.1684L28.7808 38.1798L28.311 38.2321L27.8238 38.2843V33.238V28.1744H28.3458H28.8678L28.833 33.1684ZM34.2621 29.0445V29.9145H32.174H30.0859V29.0445V28.1744H32.174H34.2621V29.0445ZM36.6634 33.1684L36.6112 38.1798L36.1413 38.2321L35.6541 38.2843V33.238V28.1744H36.1761H36.6982L36.6634 33.1684ZM42.0924 29.0445V29.9145H40.0043H37.9162V29.0445V28.1744H40.0043H42.0924V29.0445ZM44.4937 33.1684L44.4415 38.1798L43.9717 38.2321L43.4845 38.2843V33.238V28.1744H44.0065H44.5285L44.4937 33.1684ZM49.9227 29.0445V29.9145H47.8346H45.7466V29.0445V28.1744H47.8346H49.9227V29.0445ZM52.1848 33.2206V38.2669H51.7498H51.3148V33.2206V28.1744H51.7498H52.1848V33.2206ZM68.3675 29.0445V29.9145H63.8433H59.3191V29.0445V28.1744H63.8433H68.3675V29.0445ZM10.423 33.1336V35.1347H8.16095H5.89885V33.1336V31.1325H8.16095H10.423V33.1336ZM20.6895 33.1336V35.1347H16.1653H11.6411V33.1336V31.1325H16.1653H20.6895V33.1336ZM26.4317 33.1336V35.1347H24.1696H21.9075V33.1336V31.1325H24.1696H26.4317V33.1336ZM34.2621 32.0896V33.0466H32.174H30.0859V32.0896V31.1325H32.174H34.2621V32.0896ZM42.1272 32.0896L42.0576 33.0466H39.9869H37.9162V32.0896V31.1325H40.0565H42.1794L42.1272 32.0896ZM49.9575 32.02C49.9749 32.5072 49.9749 32.9422 49.9401 32.977C49.9053 33.0118 48.9309 33.0466 47.7998 33.0466H45.7466V32.0896V31.1325H47.8172H49.8879L49.9575 32.02ZM58.1011 33.1336V35.1347H55.839H53.5769V33.1336V31.1325H55.839H58.1011V33.1336ZM68.3675 33.1336V35.1347H63.8433H59.3191V33.1336V31.1325H63.8433H68.3675V33.1336ZM74.1098 33.1336V35.1347H71.8477H69.5856V33.1336V31.1325H71.8477H74.1098V33.1336ZM34.2621 36.2658V38.2669H32.174H30.0859V36.2658V34.2647H32.174H34.2621V36.2658ZM42.2316 36.2136L42.1794 38.1798L40.0565 38.2321L37.9162 38.2843V36.2658V34.2647H40.0913H42.2838L42.2316 36.2136ZM49.9227 36.2658V38.2669H47.8346H45.7466V36.2658V34.2647H47.8346H49.9227V36.2658ZM10.423 38.4409V40.5289H9.55301H8.68297V39.5893C8.68297 38.5105 8.40456 38.1276 7.83033 38.4409C7.53452 38.5975 7.46492 38.7889 7.46492 39.5719V40.5289H6.68189H5.89885V38.4409V36.3528H8.16095H10.423V38.4409ZM20.6895 38.4409V40.5289H18.6884H16.6873V39.6067C16.6873 38.7715 16.4785 38.2669 16.1479 38.2669C15.7651 38.2669 15.4693 38.8759 15.4693 39.6763V40.5289H13.5552H11.6411V38.4409V36.3528H16.1653H20.6895V38.4409ZM26.4317 38.4409V40.5289H24.1696H21.9075V38.5627C21.9075 37.4664 21.9597 36.5268 22.0293 36.4746C22.0815 36.405 23.1082 36.3528 24.2914 36.3528H26.4317V38.4409ZM58.1011 38.4409V40.5289H55.839H53.5769V38.4409V36.3528H55.839H58.1011V38.4409ZM68.3675 38.4409V40.5289H66.4534H64.5394V39.6763C64.5394 38.8759 64.2435 38.2669 63.8607 38.2669C63.5301 38.2669 63.3213 38.7715 63.3213 39.6067V40.5289H61.3202H59.3191V38.4409V36.3528H63.8433H68.3675V38.4409ZM74.1098 38.4409V40.5289H73.3267H72.5611L72.5089 39.5197C72.4567 38.5453 72.4567 38.5279 71.9347 38.5279C71.4127 38.5279 71.4127 38.5453 71.3604 39.5197L71.3082 40.5289H70.4556H69.5856V38.4409V36.3528H71.8477H74.1098V38.4409ZM52.1848 40.0069V40.5289H40.0043H27.8238V40.0069V39.4849H40.0043H52.1848V40.0069ZM23.4736 42.269V42.791H14.6862H5.89885V42.269V41.747H14.6862H23.4736V42.269ZM74.1098 42.269V42.791H65.2354H56.361V42.269V41.747H65.2354H74.1098V42.269ZM55.143 42.356V42.791H39.9173H24.6917V42.356V41.921H39.9173H55.143V42.356Z" fill="#858585"/>
<path d="M7.67365 25.5989C7.55185 25.7207 7.46484 26.2601 7.46484 26.7996C7.46484 27.8784 7.72585 28.2786 8.33488 28.0872C8.64809 27.9828 8.6829 27.8262 8.6829 26.7822C8.6829 25.8599 8.61329 25.5815 8.40448 25.4945C8.02167 25.3553 7.91726 25.3553 7.67365 25.5989Z" fill="#858585"/>
<path d="M23.8737 25.5119C23.7171 25.5641 23.6475 25.9991 23.6475 26.7822C23.6475 27.8262 23.6823 27.9828 23.9955 28.0872C24.6045 28.2786 24.8655 27.8784 24.8655 26.7996C24.8655 25.5815 24.5871 25.2161 23.8737 25.5119Z" fill="#858585"/>
<path d="M55.3514 25.5989C55.2296 25.7207 55.1426 26.2601 55.1426 26.7996C55.1426 27.8784 55.4036 28.2786 56.0126 28.0872C56.3258 27.9828 56.3606 27.8262 56.3606 26.7822C56.3606 25.8599 56.291 25.5815 56.0822 25.4945C55.6994 25.3553 55.595 25.3553 55.3514 25.5989Z" fill="#858585"/>
<path d="M71.5514 25.5119C71.3948 25.5641 71.3252 25.9991 71.3252 26.7822C71.3252 27.8262 71.36 27.9828 71.6732 28.0872C72.2822 28.2786 72.5432 27.8784 72.5432 26.7996C72.5432 25.5815 72.2648 25.2161 71.5514 25.5119Z" fill="#858585"/>
<path d="M7.55194 33.0643C7.39534 33.5689 7.81296 33.9865 8.31758 33.8299C8.61339 33.7429 8.68299 33.6037 8.64819 33.2557C8.57859 32.6292 7.72595 32.4726 7.55194 33.0643Z" fill="#858585"/>
<path d="M15.6786 32.9075C15.2262 33.3599 15.696 34.0386 16.3398 33.8298C16.6182 33.7427 16.6878 33.5861 16.653 33.2555C16.6008 32.7335 16.044 32.5421 15.6786 32.9075Z" fill="#858585"/>
<path d="M23.6654 32.9422C23.2129 33.4817 23.909 34.1777 24.4484 33.7253C24.8138 33.4295 24.692 32.803 24.2396 32.7334C24.0482 32.6986 23.7872 32.803 23.6654 32.9422Z" fill="#858585"/>
<path d="M55.3515 32.9075C54.899 33.3599 55.3689 34.0386 56.0127 33.8298C56.2911 33.7427 56.3607 33.5861 56.3259 33.2555C56.2737 32.7335 55.7169 32.5421 55.3515 32.9075Z" fill="#858585"/>
<path d="M63.443 32.8028C63.182 33.0812 63.3212 33.7251 63.6867 33.8295C64.2087 34.0035 64.6959 33.4989 64.4349 33.0812C64.2261 32.768 63.6519 32.594 63.443 32.8028Z" fill="#858585"/>
<path d="M71.4479 32.8028C71.1869 33.0812 71.3261 33.7251 71.6915 33.8295C72.2136 34.0035 72.7008 33.4989 72.4398 33.0812C72.231 32.768 71.6567 32.594 71.4479 32.8028Z" fill="#858585"/>
<path d="M23.6656 38.1625C23.3002 38.5975 23.596 39.1717 24.1354 39.1021C24.5356 39.0673 24.6052 38.9629 24.6052 38.5279C24.6052 38.1277 24.5182 37.9885 24.2398 37.9537C24.0484 37.9189 23.7874 38.0233 23.6656 38.1625Z" fill="#858585"/>
<path d="M55.3169 38.1798C55.0037 38.5626 55.2995 39.0498 55.8564 39.0498C56.2044 39.0498 56.274 38.9628 56.274 38.5278C56.274 38.1276 56.187 37.9884 55.9086 37.9536C55.7172 37.9188 55.4388 38.0232 55.3169 38.1798Z" fill="#858585"/>
</svg>
