<svg xmlns="http://www.w3.org/2000/svg" viewBox="0 0 39.125 37.702"><defs><style>.cls-1{fill:#858585;}.cls-2{fill:#fff;}.cls-3{fill:#ffcc05;}</style></defs><title>Asset 16</title><g id="Layer_2" data-name="Layer 2"><g id="Layer_1-2" data-name="Layer 1"><path class="cls-1" d="M38.625,37.7H.5a.5.5,0,0,1,0-1H38.625a.5.5,0,0,1,0,1Z"/><rect class="cls-2" x="27.812" y="18.279" width="7.5" height="18.923"/><rect class="cls-2" x="4" y="23.604" width="9.594" height="13.598"/><polygon class="cls-2" points="27.419 37.202 13.594 37.202 13.987 13.555 27.419 8.44 27.419 37.202"/><polygon class="cls-3" points="14.656 10.135 14.656 12.885 27.469 8.792 27.419 5.76 14.656 10.135"/><path class="cls-1" d="M27.563,37.7H13.487a.5.5,0,0,1-.5-.5V13.184a.5.5,0,0,1,.356-.478L27.419,8.44a.5.5,0,0,1,.644.479V37.2A.5.5,0,0,1,27.563,37.7Zm-13.576-1H27.063V9.593L13.987,13.555Z"/><path class="cls-1" d="M14.59,13.294a.5.5,0,0,1-.5-.5V10.015a.5.5,0,0,1,.34-.473L27.4,5.168a.5.5,0,0,1,.452.068.5.5,0,0,1,.208.406V8.857a.5.5,0,0,1-.354.478L14.735,13.273A.514.514,0,0,1,14.59,13.294Zm.5-2.92V12.12L27.063,8.486V6.338Z"/><path class="cls-1" d="M25.079,17.939H23.447a.5.5,0,1,1,0-1h1.632a.5.5,0,0,1,0,1Z"/><path class="cls-1" d="M25.079,22.6H18.312a.5.5,0,0,1,0-1h6.767a.5.5,0,0,1,0,1Z"/><path class="cls-3" d="M25.079,14.762H18.312a.5.5,0,1,1,0-1h6.767a.5.5,0,0,1,0,1Z"/><path class="cls-3" d="M25.079,25.589H23.447a.5.5,0,0,1,0-1h1.632a.5.5,0,0,1,0,1Z"/><path class="cls-3" d="M25.079,28.52H16.445a.5.5,0,0,1,0-1h8.634a.5.5,0,0,1,0,1Z"/><path class="cls-1" d="M25.079,34.243H16.445a.5.5,0,0,1,0-1h8.634a.5.5,0,0,1,0,1Z"/><path class="cls-1" d="M27.563,9.764a.5.5,0,0,1-.5-.5V.5a.5.5,0,0,1,1,0V9.264A.5.5,0,0,1,27.563,9.764Z"/><path class="cls-1" d="M13.487,37.7H3.825a.5.5,0,0,1-.5-.5V23.439a.5.5,0,0,1,.5-.5h9.662a.5.5,0,0,1,.5.5V37.2A.5.5,0,0,1,13.487,37.7Zm-9.162-1h8.662V23.939H4.325Z"/><path class="cls-3" d="M9.632,26.637H7.68a.5.5,0,0,1,0-1H9.632a.5.5,0,0,1,0,1Z"/><path class="cls-3" d="M9.632,29.442H7.68a.5.5,0,0,1,0-1H9.632a.5.5,0,0,1,0,1Z"/><path class="cls-1" d="M9.632,32.005H7.68a.5.5,0,0,1,0-1H9.632a.5.5,0,0,1,0,1Z"/><path class="cls-1" d="M35.3,37.7H27.563a.5.5,0,0,1-.5-.5V18.179a.5.5,0,0,1,.5-.5H35.3a.5.5,0,0,1,.5.5V37.2A.5.5,0,0,1,35.3,37.7Zm-7.237-1H34.8V18.679H28.063Z"/><path class="cls-3" d="M32.353,26.906H30.4a.5.5,0,0,1,0-1h1.953a.5.5,0,0,1,0,1Z"/><path class="cls-1" d="M32.353,32.274H30.4a.5.5,0,0,1,0-1h1.953a.5.5,0,1,1,0,1Z"/><path class="cls-3" d="M32.353,35.08H30.4a.5.5,0,1,1,0-1h1.953a.5.5,0,0,1,0,1Z"/><path class="cls-1" d="M6.375,23.939a.5.5,0,0,1-.5-.5v-3a.5.5,0,0,1,1,0v3A.5.5,0,0,1,6.375,23.939Z"/></g></g></svg>