<svg width="43" height="44" viewBox="0 0 43 44" fill="none" xmlns="http://www.w3.org/2000/svg">
<path d="M20.9069 0.225098C19.7806 2.15467 17.7253 5.0499 17.5662 7.30647C17.4357 9.15184 18.8708 12.6448 17.3315 14.1845C15.662 15.8537 9.03191 14.725 6.74416 14.725V15.0623C9.36224 15.0623 13.7284 14.2145 16.1361 15.2656C17.5746 15.8938 17.7914 20.2431 16.6166 21.2156C16.2315 21.5343 15.7857 21.3863 15.5156 21.0049C14.8894 20.12 15.5126 18.8073 14.8277 17.9649C13.5787 16.4286 12.528 18.7736 12.4831 19.7818C12.4534 20.4542 12.4767 21.1333 12.4767 21.8064C9.42911 21.5741 11.1022 19.6449 9.76993 17.9636C8.43519 16.2792 7.45796 18.721 7.42377 19.7818C7.40209 20.4556 7.41858 21.1323 7.41858 21.8064H0V26.1901H10.1162L13.9594 26.7307L14.4999 31.2482C11.7615 29.8718 10.245 30.3054 7.75578 31.9227C6.44354 29.6185 4.02013 30.2444 2.02325 31.2482V27.5389H1.34883V39.004C1.34883 40.1262 0.95258 42.2463 1.69542 43.1844C2.77934 44.5528 7.81871 43.7249 9.44182 43.7249H32.372C34.0911 43.7249 39.6563 44.6192 40.7927 43.1844C41.5356 42.2463 41.1394 40.1262 41.1394 39.004V27.5389H40.465V31.2482C38.468 30.2444 36.0448 29.6185 34.7324 31.9227C32.2432 30.3054 30.7267 29.8718 27.9883 31.2482L28.5288 26.7307L32.372 26.1901H42.4882V21.8064H35.0696C35.0696 21.2426 35.0828 20.6758 35.0646 20.1119C35.0508 19.6871 35.0703 19.1978 34.9233 18.7914C33.4058 14.5898 32.112 21.5919 31.0231 21.5919C29.9343 21.5919 28.6404 14.5895 27.123 18.7914C26.976 19.1978 26.9955 19.6871 26.9817 20.1119C26.9635 20.6758 26.9766 21.2426 26.9766 21.8064L25.2906 21.4692V15.3995L35.7441 15.0623V14.725H24.6162L24.8775 6.96926L21.5813 0.225098H20.9069Z" fill="#858585"/>
<path d="M20.9073 1.91113L18.5469 6.96925H23.9422L21.5817 1.91113H20.9073Z" fill="#FEFEFE"/>
<path d="M19.2207 6.96924V7.30645H23.2672L19.2207 6.96924Z" fill="#858585"/>
<path d="M17.5352 7.98047V14.3874H17.8724L17.5352 7.98047ZM18.5468 7.98047V14.3874H18.884L18.5468 7.98047Z" fill="#858585"/>
<path d="M18.8838 7.98047V14.3874H23.6047V7.98047H18.8838Z" fill="#FFDD2C"/>
<path d="M23.6046 7.98047V14.3874H23.9418L23.6046 7.98047ZM24.6162 7.98047V14.3874H24.9534L24.6162 7.98047Z" fill="#858585"/>
<path d="M3.37176 9.32959C1.16396 13.0733 1.34851 16.2191 1.34851 20.4575H2.02293V13.3761H5.0578V20.4575H5.73222C5.73222 16.5603 6.4012 12.3267 3.37176 9.32959Z" fill="#858585"/>
<path d="M38.7789 9.32959C36.5938 13.0699 36.7556 16.238 36.7556 20.4575H37.43V13.3761H40.4649V20.4575H41.1393C41.1393 16.5327 41.8599 12.3169 38.7789 9.32959Z" fill="#858585"/>
<path d="M3.37168 11.0156L2.69727 12.7017H4.38331L3.37168 11.0156Z" fill="#FEFEFE"/>
<path d="M38.7789 11.0156L38.1045 12.7017H39.7905L38.7789 11.0156Z" fill="#FEFEFE"/>
<path d="M41.1395 12.7017V20.7947H41.4767L41.1395 12.7017ZM1.01172 13.0389V20.7947H1.34893L1.01172 13.0389ZM5.73263 13.0389V20.7947H6.06984L5.73263 13.0389ZM36.4186 13.0389V20.4574H36.7558L36.4186 13.0389Z" fill="#858585"/>
<path d="M3.03516 13.376V13.7132H4.38399L3.03516 13.376Z" fill="#858585"/>
<path d="M4.38379 13.376L4.721 20.7946H5.05821C5.05821 18.6219 5.73303 15.1568 4.38379 13.376Z" fill="#858585"/>
<path d="M38.1045 13.376V13.7132H39.7905L38.1045 13.376Z" fill="#858585"/>
<path d="M39.791 13.376L40.1282 20.4573H40.4654C40.4654 18.3542 41.0987 15.1021 39.791 13.376Z" fill="#858585"/>
<path d="M2.02344 13.7134V20.7947H2.36065L2.02344 13.7134ZM37.4303 13.7134V20.7947H37.7675L37.4303 13.7134Z" fill="#858585"/>
<path d="M6.74414 14.3877V14.7249H17.5348L6.74414 14.3877ZM18.5464 14.3877V14.7249H23.6045L18.5464 14.3877ZM24.6162 14.3877V14.7249H35.744L24.6162 14.3877Z" fill="#858585"/>
<path d="M35.7441 14.3877V15.3993H36.0813L35.7441 14.3877Z" fill="#858585"/>
<path d="M6.74414 15.062V15.3992H16.8604L6.74414 15.062Z" fill="#858585"/>
<path d="M17.5347 21.4689H17.8719V15.3992H24.6161V21.4689C25.129 20.2469 25.4911 16.7194 24.6066 15.6025C23.8189 14.6078 18.6691 14.6078 17.8813 15.6025C16.9311 16.8023 17.5347 19.9977 17.5347 21.4689Z" fill="#858585"/>
<path d="M25.9648 15.062V15.3992H35.7439L25.9648 15.062Z" fill="#858585"/>
<path d="M16.8604 15.3994V21.132H17.1976L16.8604 15.3994Z" fill="#858585"/>
<path d="M17.8721 15.3994V21.4692H24.6162V15.3994H17.8721Z" fill="#FEFEFE"/>
<path d="M13.4883 17.0854V17.4227H14.4999L13.4883 17.0854Z" fill="#858585"/>
<path d="M27.9883 17.0854V17.4227H28.9999L27.9883 17.0854Z" fill="#858585"/>
<path d="M33.0469 17.0854V17.4227H34.0585L33.0469 17.0854Z" fill="#858585"/>
<path d="M7.08105 18.0972V21.4692H7.41826L7.08105 18.0972Z" fill="#858585"/>
<path d="M8.43066 18.0972V21.4692H9.44229L9.10508 18.0972H8.43066Z" fill="#FEFEFE"/>
<path d="M13.4883 18.0972V21.4692H14.4999L14.1627 18.0972H13.4883Z" fill="#FEFEFE"/>
<path d="M27.9883 18.0972V21.4692H28.9999V18.0972H27.9883Z" fill="#FEFEFE"/>
<path d="M29.6738 18.0972V21.4692H30.011L29.6738 18.0972Z" fill="#858585"/>
<path d="M33.3841 18.0972L33.0469 21.4692H34.0585V18.0972H33.3841Z" fill="#FEFEFE"/>
<path d="M8.09277 18.4341V21.469H8.42998L8.09277 18.4341Z" fill="#858585"/>
<path d="M10.1162 18.4341V21.469H10.4534L10.1162 18.4341Z" fill="#858585"/>
<path d="M12.1396 18.4341V21.469H12.4769L12.1396 18.4341ZM13.1513 18.4341V21.469H13.4885L13.1513 18.4341Z" fill="#858585"/>
<path d="M14.5 18.4341V21.469H14.8372L14.5 18.4341ZM15.1744 18.4341V21.469H15.5116L15.1744 18.4341Z" fill="#858585"/>
<path d="M27.6514 18.4341V21.469H27.9886L27.6514 18.4341ZM29.0002 18.4341V21.469H29.3374L29.0002 18.4341Z" fill="#858585"/>
<path d="M32.0352 18.4341V21.469H32.3724L32.0352 18.4341Z" fill="#858585"/>
<path d="M32.709 18.4341V21.469H33.0462L32.709 18.4341Z" fill="#858585"/>
<path d="M34.0576 18.4341V21.469H34.3948L34.0576 18.4341Z" fill="#858585"/>
<path d="M0.336914 21.4692V21.8064H7.41828L0.336914 21.4692ZM8.0927 21.4692V21.8064H9.44153L8.0927 21.4692ZM10.4532 21.4692V21.8064H12.4764L10.4532 21.4692ZM13.1508 21.4692V21.8064H14.4997L13.1508 21.4692ZM15.5113 21.4692V21.8064H16.8601L15.5113 21.4692ZM17.8717 21.4692V21.8064H24.6159L17.8717 21.4692ZM25.6275 21.4692V21.8064H26.9763L25.6275 21.4692ZM27.6508 21.4692V21.8064H28.9996L27.6508 21.4692ZM30.0112 21.4692V21.8064H32.0345L30.0112 21.4692ZM33.0461 21.4692V21.8064H34.3949L33.0461 21.4692ZM35.0693 21.4692V21.8064H42.1507L35.0693 21.4692Z" fill="#858585"/>
<path d="M42.4883 21.8062V26.1899H42.8255L42.4883 21.8062Z" fill="#858585"/>
<path d="M1.34863 22.1435V22.4807H15.1742C11.5492 20.9596 5.29252 22.1435 1.34863 22.1435Z" fill="#858585"/>
<path d="M16.5234 22.1436V22.4808H26.6397L16.5234 22.1436ZM27.3141 22.1436V22.4808H28.6629L27.3141 22.1436Z" fill="#858585"/>
<path d="M29 22.1436V22.4808H30.686L29 22.1436Z" fill="#858585"/>
<path d="M31.0234 22.1436V22.4808H36.0816L31.0234 22.1436Z" fill="#858585"/>
<path d="M36.4189 22.1436V22.4808H41.8143L36.4189 22.1436Z" fill="#858585"/>
<path d="M0.674805 22.4805V25.5153H1.01201L0.674805 22.4805Z" fill="#858585"/>
<path d="M1.01172 22.4805V25.5153H15.1745V22.4805H1.01172Z" fill="#FFDD2C"/>
<path d="M15.8486 22.4805V25.5153H16.1858L15.8486 22.4805Z" fill="#858585"/>
<path d="M16.1855 22.4805V25.5153H26.3018V22.4805H16.1855Z" fill="#FFDD2C"/>
<path d="M26.3018 22.4805V25.5153H26.639L26.3018 22.4805ZM27.3134 22.4805V25.5153H27.6506L27.3134 22.4805Z" fill="#858585"/>
<path d="M27.6514 22.4805V25.5153H41.4769V22.4805H27.6514Z" fill="#FFDD2C"/>
<path d="M41.4763 22.4805V25.5153H41.8136L41.4763 22.4805Z" fill="#858585"/>
<path d="M1.01172 25.5156V25.8528H14.8372C11.2123 24.3316 4.9556 25.5156 1.01172 25.5156Z" fill="#858585"/>
<path d="M16.1855 25.5156V25.8528H26.3018L16.1855 25.5156Z" fill="#858585"/>
<path d="M27.6514 25.5156V25.8528H41.4769C37.8519 24.3316 31.5954 25.5156 27.6514 25.5156Z" fill="#858585"/>
<path d="M0.336914 26.1899V26.5271H14.1624C10.5375 25.0059 4.2808 26.1899 0.336914 26.1899ZM15.5113 29.2247L15.1741 26.5271L17.8717 26.8643C16.2356 24.9921 13.6391 27.5886 15.5113 29.2247ZM20.5694 26.1899V26.5271H21.581L20.5694 26.1899ZM24.6159 26.8643L27.3136 26.5271L26.9763 29.2247C28.8485 27.5886 26.252 24.9921 24.6159 26.8643ZM28.3252 26.1899V26.5271H42.1507C38.5257 25.0059 32.2692 26.1899 28.3252 26.1899Z" fill="#858585"/>
<path d="M14.1631 26.5271V31.2481H14.5003L14.1631 26.5271Z" fill="#858585"/>
<path d="M15.1748 26.5273V28.5506L17.1981 26.5273H15.1748Z" fill="#FEFEFE"/>
<path d="M15.1741 42.713H16.8601C16.8601 39.3834 15.8226 33.9398 17.3046 30.911C19.0439 27.3558 23.9368 27.4833 25.3773 31.2479C26.5711 34.3677 25.6275 39.3844 25.6275 42.713H27.3136C27.3136 38.9001 28.3107 33.409 26.6223 29.9004C24.6233 25.7467 18.2845 25.4796 16.0404 29.5669C14.1183 33.0671 15.1741 38.8435 15.1741 42.713Z" fill="#FEFEFE"/>
<path d="M25.291 26.5273L27.3143 28.5506V26.5273H25.291Z" fill="#FEFEFE"/>
<path d="M27.9883 26.5273V31.2483H28.3255L27.9883 26.5273Z" fill="#858585"/>
<path d="M1.01172 27.2017V43.3876H1.34893C1.34893 38.8266 2.76834 31.3878 1.01172 27.2017Z" fill="#858585"/>
<path d="M41.1396 27.2017V43.7249H41.4768C41.4768 39.0754 42.9298 31.468 41.1396 27.2017ZM2.02344 27.5389V31.2482H2.36065L2.02344 27.5389Z" fill="#858585"/>
<path d="M40.1279 27.5386V31.2479H40.4651L40.1279 27.5386Z" fill="#858585"/>
<path d="M20.5693 28.8877V29.2249H21.9182L20.5693 28.8877Z" fill="#858585"/>
<path d="M17.872 42.713H24.6161C24.6161 39.603 25.8877 32.79 23.7684 30.3132C22.2307 28.5162 19.1156 29.1603 18.2122 31.2625C16.9042 34.3071 17.872 39.4246 17.872 42.713Z" fill="#FFDD2C"/>
<path d="M4.38379 29.8994V30.2366H5.39541L4.38379 29.8994Z" fill="#858585"/>
<path d="M10.791 29.8994V30.2366H12.1398L10.791 29.8994Z" fill="#858585"/>
<path d="M37.0928 29.8994V30.2366H38.1044L37.0928 29.8994Z" fill="#858585"/>
<path d="M2.3599 42.7133H7.75523C7.75523 39.8332 8.52659 35.6403 7.45393 32.9407C6.78835 31.2651 4.60398 30.3974 3.18053 31.7591C1.19781 33.6555 2.3599 40.1306 2.3599 42.7133Z" fill="#FEFEFE"/>
<path d="M8.76793 42.7133H14.1633C14.1633 40.0814 15.3189 33.7483 13.2956 31.8056C11.85 30.4173 9.71023 31.1848 9.01824 32.9393C7.96838 35.6016 8.76793 39.8683 8.76793 42.7133Z" fill="#FEFEFE"/>
<path d="M28.3255 42.7129H33.7208C33.7208 40.087 34.8771 33.7398 32.8532 31.8055C31.441 30.4554 29.2545 31.2319 28.5757 32.9402C27.5216 35.5937 28.3255 39.8739 28.3255 42.7129Z" fill="#FEFEFE"/>
<path d="M34.7331 42.7133H40.1285C40.1285 40.1306 41.2905 33.6555 39.3077 31.7591C37.8843 30.3974 35.6999 31.2651 35.0346 32.9407C33.9619 35.6403 34.7331 39.8332 34.7331 42.7133Z" fill="#FEFEFE"/>
<path d="M25.2909 31.5854V32.5971H25.6281L25.2909 31.5854Z" fill="#858585"/>
<path d="M16.8604 31.9224V32.934H17.1976L16.8604 31.9224Z" fill="#858585"/>
<path d="M17.5353 31.9224V39.6781C17.5356 40.5606 17.2823 42.0754 18.0758 42.7036C18.8419 43.3106 20.3364 43.0502 21.2445 43.0502C22.1897 43.0502 23.9338 43.3598 24.6072 42.5097C26.0862 40.6422 24.9538 34.2859 24.9538 31.9224H24.6166V42.713H17.8725L17.5353 31.9224Z" fill="#858585"/>
<path d="M14.8369 32.2598V38.3295H15.1741L14.8369 32.2598ZM27.3136 32.2598V42.7132H27.6508L27.3136 32.2598Z" fill="#858585"/>
<path d="M4.38379 32.5967V32.9339H5.39541L4.38379 32.5967ZM10.7907 32.5967V32.9339H12.1396L10.7907 32.5967ZM30.3488 32.5967V32.9339H31.6976L30.3488 32.5967Z" fill="#858585"/>
<path d="M37.0928 32.5967V32.9339H38.1044L37.0928 32.5967Z" fill="#858585"/>
<path d="M2.02344 32.9341V42.7131H2.36065L2.02344 32.9341Z" fill="#858585"/>
<path d="M3.37207 38.3293H6.40694C6.40694 37.0341 6.82049 34.8359 6.06036 33.717C3.77743 30.3564 3.37207 37.4168 3.37207 38.3293Z" fill="#858585"/>
<path d="M10.8661 33.3C8.87328 34.3238 9.42589 39.5505 12.3692 38.1254C14.0721 37.3006 13.1327 32.1356 10.8661 33.3Z" fill="#858585"/>
<path d="M30.4249 33.3003C28.4283 34.3174 28.983 39.5512 31.9269 38.1258C33.6254 37.3033 32.7581 32.1124 30.4249 33.3003Z" fill="#858585"/>
<path d="M36.082 38.3293H39.1168C39.1168 37.4168 38.7115 30.3564 36.4286 33.717C35.6685 34.8359 36.082 37.0341 36.082 38.3293Z" fill="#858585"/>
<path d="M40.1274 32.9341V42.7131H40.4647L40.1274 32.9341Z" fill="#858585"/>
<path d="M7.75586 33.2715V42.7133H8.09307L7.75586 33.2715Z" fill="#858585"/>
<path d="M8.43038 33.2715C8.43038 35.3831 7.44628 40.8297 8.77697 42.51C9.56371 43.5031 13.709 43.4633 14.2968 42.2689C15.3644 40.0986 14.5001 35.6818 14.5001 33.2715H14.1629V42.7133H8.76759L8.43038 33.2715Z" fill="#858585"/>
<path d="M16.8603 33.2715V42.7133H17.1975L16.8603 33.2715Z" fill="#858585"/>
<path d="M27.9879 33.2715C27.9879 35.3831 27.004 40.8297 28.3346 42.51C29.1213 43.5031 33.2666 43.4633 33.8543 42.2689C34.9219 40.0986 34.0577 35.6818 34.0577 33.2715H33.7205V42.7133H28.3251L27.9879 33.2715Z" fill="#858585"/>
<path d="M4.72129 33.6084L4.04688 37.3177H5.73292L4.72129 33.6084Z" fill="#FEFEFE"/>
<path d="M37.4303 33.6084L36.7559 37.3177H38.4419L37.4303 33.6084Z" fill="#FEFEFE"/>
<path d="M3.03516 33.9456V38.3293H3.37236L3.03516 33.9456Z" fill="#858585"/>
<path d="M10.791 33.9458V37.3179H12.1398V33.9458H10.791Z" fill="#FEFEFE"/>
<path d="M30.3486 33.9458V37.3179H31.6975V33.9458H30.3486Z" fill="#FEFEFE"/>
<path d="M35.7441 33.9458V38.3295H36.0813L35.7441 33.9458Z" fill="#858585"/>
<path d="M5.73242 34.2827V37.6548H6.06963L5.73242 34.2827ZM6.40684 34.2827V37.992H6.74405L6.40684 34.2827Z" fill="#858585"/>
<path d="M10.4531 34.2827C10.456 37.996 12.4733 37.996 12.4764 34.2827H12.1392V37.3176H10.7903L10.4531 34.2827Z" fill="#858585"/>
<path d="M30.0117 34.2827V37.6548H30.3489L30.0117 34.2827Z" fill="#858585"/>
<path d="M31.6975 34.2827V37.3176H30.3486V37.6548C32.1335 37.357 32.3405 35.816 31.6975 34.2827ZM32.7091 34.2827V37.6548H33.0463L32.7091 34.2827Z" fill="#858585"/>
<path d="M36.4189 34.2827V37.6548H36.7562L36.4189 34.2827Z" fill="#858585"/>
<path d="M39.1162 34.6201V37.9922H39.4534L39.1162 34.6201Z" fill="#858585"/>
<path d="M4.04688 37.3179V37.6551H5.73292L4.04688 37.3179Z" fill="#858585"/>
<path d="M36.7559 37.3179V37.6551H38.4419L36.7559 37.3179Z" fill="#858585"/>
<path d="M3.70898 38.3294V38.6666H6.40665L3.70898 38.3294ZM10.1159 38.3294V38.6666H12.8136L10.1159 38.3294ZM29.674 38.3294V38.6666H32.3717L29.674 38.3294ZM36.081 38.3294V38.6666H38.7786L36.081 38.3294Z" fill="#858585"/>
<path d="M14.8369 38.6665V42.713H15.1741L14.8369 38.6665Z" fill="#858585"/>
<path d="M2.02344 42.7129V43.0501H7.75597L2.02344 42.7129Z" fill="#858585"/>
<path d="M15.1748 42.7129V43.0501H16.8608L15.1748 42.7129Z" fill="#858585"/>
<path d="M25.6279 42.7129V43.0501H27.314L25.6279 42.7129Z" fill="#858585"/>
<path d="M34.7324 42.7129V43.0501H40.465L34.7324 42.7129Z" fill="#858585"/>
</svg>
