<svg xmlns="http://www.w3.org/2000/svg" viewBox="0 0 43.15 28.59"><defs><style>.cls-1{fill:#858585;}.cls-2{fill:#ffcc05;}</style></defs><g id="Layer_2" data-name="Layer 2"><g id="Layer_1-2" data-name="Layer 1"><path class="cls-1" d="M12,28.59H1.93a.5.5,0,0,1-.5-.5V16a.5.5,0,0,1,.5-.5H12a.5.5,0,0,1,.5.5V28.09A.5.5,0,0,1,12,28.59Zm-9.58-1h9.08V16.45H2.43Z"/><path class="cls-1" d="M28.28,28.59H14.86a.5.5,0,0,1-.5-.5V13.86a.51.51,0,0,1,.5-.5H28.28a.5.5,0,0,1,.5.5V28.09A.5.5,0,0,1,28.28,28.59Zm-12.92-1H27.78V14.36H15.36Z"/><path class="cls-1" d="M12,16.45H.5A.5.5,0,0,1,0,16V13.86a.5.5,0,0,1,.5-.5H12a.51.51,0,0,1,.5.5V16A.51.51,0,0,1,12,16.45Zm-11-1H11.51V14.36H1Z"/><path class="cls-1" d="M12,14.36H1.93a.5.5,0,0,1-.5-.5V9.69a.5.5,0,0,1,.5-.5H12a.51.51,0,0,1,.5.5v4.17A.5.5,0,0,1,12,14.36Zm-9.58-1h9.08V10.19H2.43Z"/><path class="cls-1" d="M28.28,14.36H14.86a.5.5,0,0,1-.5-.5V9.69a.51.51,0,0,1,.5-.5H28.28a.5.5,0,0,1,.5.5v4.17A.5.5,0,0,1,28.28,14.36Zm-12.92-1H27.78V10.19H15.36Z"/><path class="cls-1" d="M14.86,28.59H12a.5.5,0,0,1-.5-.5V3.86a.5.5,0,0,1,.5-.5h2.85a.5.5,0,0,1,.5.5V28.09A.5.5,0,0,1,14.86,28.59Zm-2.35-1h1.85V4.36H12.51Z"/><path class="cls-1" d="M14.86,4.36a.51.51,0,0,1-.5-.5,1.88,1.88,0,0,0-.62-1.37l-.3-.2-.31.2a1.92,1.92,0,0,0-.62,1.37.51.51,0,0,1-.5.5.5.5,0,0,1-.5-.5,2.82,2.82,0,0,1,1.07-2.2l.58-.38a.5.5,0,0,1,.55,0l.58.38a2.82,2.82,0,0,1,1.07,2.2A.5.5,0,0,1,14.86,4.36Z"/><path class="cls-2" d="M17.9,28V22a4.82,4.82,0,0,1,2.15-4l1.52-1,1.53,1a4.82,4.82,0,0,1,2.15,4v6"/><path class="cls-1" d="M25.25,28.45a.5.5,0,0,1-.5-.5V22a4.29,4.29,0,0,0-1.93-3.59l-1.25-.82-1.24.82A4.29,4.29,0,0,0,18.4,22v6a.5.5,0,0,1-1,0V22a5.29,5.29,0,0,1,2.37-4.42l1.53-1a.5.5,0,0,1,.55,0l1.52,1A5.27,5.27,0,0,1,25.75,22v6A.5.5,0,0,1,25.25,28.45Z"/><path class="cls-1" d="M9,28.45a.5.5,0,0,1-.5-.5V23.7a2.1,2.1,0,0,0-.94-1.76L7,21.58l-.56.36a2.1,2.1,0,0,0-.94,1.76V28a.5.5,0,0,1-.5.5.5.5,0,0,1-.5-.5V23.7a3.1,3.1,0,0,1,1.39-2.59l.83-.55a.5.5,0,0,1,.55,0l.83.55A3.1,3.1,0,0,1,9.46,23.7V28A.5.5,0,0,1,9,28.45Z"/><path class="cls-1" d="M19.57,7.16a.5.5,0,0,1-.5-.5V5.4a.51.51,0,0,1,.5-.5.5.5,0,0,1,.5.5V6.66A.5.5,0,0,1,19.57,7.16Z"/><path class="cls-1" d="M35.76,12.22H33.57a.5.5,0,0,1,0-1h2.19a.5.5,0,0,1,0,1Z"/><path class="cls-1" d="M9.58,12.22H7.39a.5.5,0,1,1,0-1H9.58a.5.5,0,0,1,0,1Z"/><path class="cls-1" d="M23.57,7.16a.5.5,0,0,1-.5-.5V5.4a.51.51,0,0,1,.5-.5.5.5,0,0,1,.5.5V6.66A.5.5,0,0,1,23.57,7.16Z"/><path class="cls-1" d="M42.61,28.59H.76a.5.5,0,0,1-.5-.5.5.5,0,0,1,.5-.5H42.61a.5.5,0,0,1,.5.5A.5.5,0,0,1,42.61,28.59Z"/><path class="cls-1" d="M13.44,2.19a.5.5,0,0,1-.5-.5V.5a.5.5,0,0,1,.5-.5.5.5,0,0,1,.5.5V1.69A.5.5,0,0,1,13.44,2.19Z"/><path class="cls-1" d="M41.22,28.59H31.14a.5.5,0,0,1-.5-.5V16a.5.5,0,0,1,.5-.5H41.22a.5.5,0,0,1,.5.5V28.09A.5.5,0,0,1,41.22,28.59Zm-9.58-1h9.08V16.45H31.64Z"/><path class="cls-1" d="M42.65,16.45H31.14a.5.5,0,0,1-.5-.5V13.86a.5.5,0,0,1,.5-.5H42.65a.51.51,0,0,1,.5.5V16A.51.51,0,0,1,42.65,16.45Zm-11-1H42.15V14.36H31.64Z"/><path class="cls-1" d="M41.22,14.36H31.14a.5.5,0,0,1-.5-.5V9.69a.5.5,0,0,1,.5-.5H41.22a.5.5,0,0,1,.5.5v4.17A.5.5,0,0,1,41.22,14.36Zm-9.58-1h9.08V10.19H31.64Z"/><path class="cls-1" d="M31.14,28.59H28.28a.5.5,0,0,1-.5-.5V3.86a.5.5,0,0,1,.5-.5h2.86a.5.5,0,0,1,.5.5V28.09A.5.5,0,0,1,31.14,28.59Zm-2.36-1h1.86V4.36H28.78Z"/><path class="cls-1" d="M31.14,4.36a.5.5,0,0,1-.5-.5A1.89,1.89,0,0,0,30,2.49l-.3-.2-.3.2a1.89,1.89,0,0,0-.63,1.37.5.5,0,0,1-.5.5.51.51,0,0,1-.5-.5,2.83,2.83,0,0,1,1.08-2.2l.58-.38a.5.5,0,0,1,.55,0l.57.38a2.83,2.83,0,0,1,1.08,2.2A.5.5,0,0,1,31.14,4.36Z"/><path class="cls-1" d="M38.18,28.45a.5.5,0,0,1-.5-.5V23.7a2.11,2.11,0,0,0-1-1.76l-.55-.36-.55.36a2.09,2.09,0,0,0-1,1.76V28a.5.5,0,0,1-1,0V23.7a3.08,3.08,0,0,1,1.4-2.59l.82-.55a.52.52,0,0,1,.56,0l.82.55a3.08,3.08,0,0,1,1.4,2.59V28A.5.5,0,0,1,38.18,28.45Z"/><path class="cls-1" d="M29.71,2.19a.5.5,0,0,1-.5-.5V.5a.5.5,0,0,1,1,0V1.69A.5.5,0,0,1,29.71,2.19Z"/><path class="cls-2" d="M21.57,12.79a.51.51,0,0,1-.5-.5V11.15a.5.5,0,0,1,.5-.5.5.5,0,0,1,.5.5v1.14A.5.5,0,0,1,21.57,12.79Z"/><path class="cls-1" d="M19.57,12.79a.51.51,0,0,1-.5-.5V11.15a.5.5,0,0,1,.5-.5.5.5,0,0,1,.5.5v1.14A.5.5,0,0,1,19.57,12.79Z"/><path class="cls-2" d="M17.57,12.79a.51.51,0,0,1-.5-.5V11.15a.5.5,0,0,1,.5-.5.5.5,0,0,1,.5.5v1.14A.5.5,0,0,1,17.57,12.79Z"/><path class="cls-2" d="M25.57,12.79a.51.51,0,0,1-.5-.5V11.15a.5.5,0,0,1,.5-.5.5.5,0,0,1,.5.5v1.14A.5.5,0,0,1,25.57,12.79Z"/><path class="cls-1" d="M23.57,12.79a.51.51,0,0,1-.5-.5V11.15a.5.5,0,0,1,.5-.5.5.5,0,0,1,.5.5v1.14A.5.5,0,0,1,23.57,12.79Z"/><path class="cls-1" d="M21.57,7.16a.5.5,0,0,1-.5-.5V5.4a.51.51,0,0,1,.5-.5.5.5,0,0,1,.5.5V6.66A.5.5,0,0,1,21.57,7.16Z"/><path class="cls-1" d="M17.57,7.16a.5.5,0,0,1-.5-.5V5.4a.51.51,0,0,1,.5-.5.5.5,0,0,1,.5.5V6.66A.5.5,0,0,1,17.57,7.16Z"/><path class="cls-1" d="M25.57,7.16a.5.5,0,0,1-.5-.5V5.4a.51.51,0,0,1,.5-.5.5.5,0,0,1,.5.5V6.66A.5.5,0,0,1,25.57,7.16Z"/><path class="cls-1" d="M28.28,10.19H14.86a.5.5,0,0,1-.5-.5v-3a.51.51,0,0,1,.5-.5H28.28a.5.5,0,0,1,.5.5v3A.5.5,0,0,1,28.28,10.19Zm-12.92-1H27.78v-2H15.36Z"/></g></g></svg>