<svg width="55" height="44" viewBox="0 0 55 44" fill="none" xmlns="http://www.w3.org/2000/svg">
<path d="M27.3914 37.5265C26.1914 37.5265 25.2176 38.5002 25.2176 39.6968V42.9712H22.2861V36.4396H27.3914H32.4933V42.9712H29.5618V39.6968C29.5618 38.5002 28.588 37.5265 27.3914 37.5265Z" fill="#FFCC05"/>
<path d="M22.2861 30.1242C22.9204 29.7847 24.7994 28.9138 27.3914 28.9138C29.9801 28.9138 31.859 29.7847 32.4933 30.1242V31.4888H27.3914H22.2861V30.1242Z" fill="#FFCC05"/>
<path d="M53.7506 35.4111H33.5215V32.5173H53.7506V35.4111Z" fill="#FFCC05"/>
<path d="M27.391 9.62757C30.6757 9.62757 33.7924 10.3476 36.6073 11.623H27.391H18.1748C20.9863 10.3476 24.1064 9.62757 27.391 9.62757Z" fill="#FFCC05"/>
<path d="M20.6846 5.82855H34.0941V6.62744H20.6846V5.82855Z" fill="#FFCC05"/>
<path d="M21.2574 32.5173V35.4111H1.02832V32.5173H21.2574Z" fill="#FFCC05"/>
<path d="M1.02832 40.3243H21.2574V42.9712H1.02832V40.3243Z" fill="#FFCC05"/>
<path d="M33.5215 42.9712V40.3243H53.7506V42.9712H33.5215Z" fill="#FFCC05"/>
<path d="M27.8267 23.3147C27.8267 23.5548 27.6313 23.7536 27.3913 23.7536C27.1479 23.7536 26.9524 23.5548 26.9524 23.3147C26.9524 23.0713 27.1479 22.8759 27.3913 22.8759C27.6313 22.8759 27.8267 23.0713 27.8267 23.3147ZM27.3913 24.7822C28.2005 24.7822 28.8588 24.1239 28.8588 23.3147C28.8588 22.5056 28.2005 21.8473 27.3913 21.8473C26.5821 21.8473 25.9238 22.5056 25.9238 23.3147C25.9238 24.1239 26.5821 24.7822 27.3913 24.7822Z" fill="#858585"/>
<path d="M2.91469 34.9414C3.19927 34.9414 3.42899 34.7117 3.42899 34.4271V33.5699C3.42899 33.2888 3.19927 33.0556 2.91469 33.0556C2.63011 33.0556 2.40039 33.2888 2.40039 33.5699V34.4271C2.40039 34.7117 2.63011 34.9414 2.91469 34.9414Z" fill="#858585"/>
<path d="M5.65688 34.9414C5.94146 34.9414 6.17118 34.7117 6.17118 34.4271V33.5699C6.17118 33.2888 5.94146 33.0556 5.65688 33.0556C5.3723 33.0556 5.14258 33.2888 5.14258 33.5699V34.4271C5.14258 34.7117 5.3723 34.9414 5.65688 34.9414Z" fill="#858585"/>
<path d="M8.40004 34.9414C8.68462 34.9414 8.91434 34.7117 8.91434 34.4271V33.5699C8.91434 33.2888 8.68462 33.0556 8.40004 33.0556C8.11546 33.0556 7.88574 33.2888 7.88574 33.5699V34.4271C7.88574 34.7117 8.11546 34.9414 8.40004 34.9414Z" fill="#858585"/>
<path d="M11.1432 34.9414C11.4278 34.9414 11.6575 34.7117 11.6575 34.4271V33.5699C11.6575 33.2888 11.4278 33.0556 11.1432 33.0556C10.8586 33.0556 10.6289 33.2888 10.6289 33.5699V34.4271C10.6289 34.7117 10.8586 34.9414 11.1432 34.9414Z" fill="#858585"/>
<path d="M13.8864 34.9414C14.1709 34.9414 14.4007 34.7117 14.4007 34.4271V33.5699C14.4007 33.2888 14.1709 33.0556 13.8864 33.0556C13.6018 33.0556 13.3721 33.2888 13.3721 33.5699V34.4271C13.3721 34.7117 13.6018 34.9414 13.8864 34.9414Z" fill="#858585"/>
<path d="M16.6286 34.9414C16.9131 34.9414 17.1429 34.7117 17.1429 34.4271V33.5699C17.1429 33.2888 16.9131 33.0556 16.6286 33.0556C16.344 33.0556 16.1143 33.2888 16.1143 33.5699V34.4271C16.1143 34.7117 16.344 34.9414 16.6286 34.9414Z" fill="#858585"/>
<path d="M19.3717 34.9414C19.6563 34.9414 19.886 34.7117 19.886 34.4271V33.5699C19.886 33.2888 19.6563 33.0556 19.3717 33.0556C19.0871 33.0556 18.8574 33.2888 18.8574 33.5699V34.4271C18.8574 34.7117 19.0871 34.9414 19.3717 34.9414Z" fill="#858585"/>
<path d="M2.91469 40.77C2.63011 40.77 2.40039 41.0031 2.40039 41.2843V42.1415C2.40039 42.426 2.63011 42.6558 2.91469 42.6558C3.19927 42.6558 3.42899 42.426 3.42899 42.1415V41.2843C3.42899 41.0031 3.19927 40.77 2.91469 40.77Z" fill="#858585"/>
<path d="M5.65688 40.77C5.3723 40.77 5.14258 41.0031 5.14258 41.2843V42.1415C5.14258 42.426 5.3723 42.6558 5.65688 42.6558C5.94146 42.6558 6.17118 42.426 6.17118 42.1415V41.2843C6.17118 41.0031 5.94146 40.77 5.65688 40.77Z" fill="#858585"/>
<path d="M8.40004 40.77C8.11546 40.77 7.88574 41.0031 7.88574 41.2843V42.1415C7.88574 42.426 8.11546 42.6558 8.40004 42.6558C8.68462 42.6558 8.91434 42.426 8.91434 42.1415V41.2843C8.91434 41.0031 8.68462 40.77 8.40004 40.77Z" fill="#858585"/>
<path d="M11.1432 40.77C10.8586 40.77 10.6289 41.0031 10.6289 41.2843V42.1415C10.6289 42.426 10.8586 42.6558 11.1432 42.6558C11.4278 42.6558 11.6575 42.426 11.6575 42.1415V41.2843C11.6575 41.0031 11.4278 40.77 11.1432 40.77Z" fill="#858585"/>
<path d="M13.8864 40.77C13.6018 40.77 13.3721 41.0031 13.3721 41.2843V42.1415C13.3721 42.426 13.6018 42.6558 13.8864 42.6558C14.1709 42.6558 14.4007 42.426 14.4007 42.1415V41.2843C14.4007 41.0031 14.1709 40.77 13.8864 40.77Z" fill="#858585"/>
<path d="M16.6286 40.77C16.344 40.77 16.1143 41.0031 16.1143 41.2843V42.1415C16.1143 42.426 16.344 42.6558 16.6286 42.6558C16.9131 42.6558 17.1429 42.426 17.1429 42.1415V41.2843C17.1429 41.0031 16.9131 40.77 16.6286 40.77Z" fill="#858585"/>
<path d="M19.3717 40.77C19.0871 40.77 18.8574 41.0031 18.8574 41.2843V42.1415C18.8574 42.426 19.0871 42.6558 19.3717 42.6558C19.6563 42.6558 19.886 42.426 19.886 42.1415V41.2843C19.886 41.0031 19.6563 40.77 19.3717 40.77Z" fill="#858585"/>
<path d="M26.2877 3.99756H28.4924C28.7769 3.99756 29.0067 3.76784 29.0067 3.48326C29.0067 3.20211 28.7769 2.96896 28.4924 2.96896H26.2877C26.0066 2.96896 25.7734 3.20211 25.7734 3.48326C25.7734 3.76784 26.0066 3.99756 26.2877 3.99756Z" fill="#858585"/>
<path d="M26.7233 1.48458C26.4387 1.48458 26.209 1.7143 26.209 1.99888C26.209 2.28346 26.4387 2.51318 26.7233 2.51318H28.057C28.3416 2.51318 28.5713 2.28346 28.5713 1.99888C28.5713 1.7143 28.3416 1.48458 28.057 1.48458H26.7233Z" fill="#858585"/>
<path d="M27.1247 1.02881H27.6561C27.9407 1.02881 28.1704 0.795659 28.1704 0.514509C28.1704 0.22993 27.9407 0.000209041 27.6561 0.000209041H27.1247C26.8401 0.000209041 26.6104 0.22993 26.6104 0.514509C26.6104 0.795659 26.8401 1.02881 27.1247 1.02881Z" fill="#858585"/>
<path d="M33.5221 42.9714V40.3245H53.7512V42.9714H33.5221ZM27.3916 42.9714H26.2464V39.697C26.2464 39.0662 26.7607 38.5553 27.3916 38.5553C28.0191 38.5553 28.5334 39.0662 28.5334 39.697V42.9714H27.3916ZM1.0286 40.3245H21.2577V42.9714H1.0286V40.3245ZM21.2577 32.5174V35.4112H1.0286V32.5174H21.2577ZM12.4426 15.3706H42.3372C46.7739 19.3616 49.6059 25.0978 49.7534 31.4888H33.5221V30.3436H34.609C34.8935 30.3436 35.1233 30.1105 35.1233 29.8293C35.1233 29.5447 34.8935 29.315 34.609 29.315H33.5221V28.187H34.609C34.8935 28.187 35.1233 27.9573 35.1233 27.6727C35.1233 27.3915 34.8935 27.1584 34.609 27.1584H33.5221V24.8578C33.5221 24.5732 33.2923 24.3435 33.0078 24.3435C32.7266 24.3435 32.4935 24.5732 32.4935 24.8578V26.8224C31.53 26.3732 29.7368 25.7321 27.3916 25.7321C25.043 25.7321 23.2532 26.3732 22.2863 26.8224V24.8578C22.2863 24.5732 22.0566 24.3435 21.772 24.3435C21.4874 24.3435 21.2577 24.5732 21.2577 24.8578V27.1584H20.1709C19.8863 27.1584 19.6566 27.3915 19.6566 27.6727C19.6566 27.9573 19.8863 28.187 20.1709 28.187H21.2577V29.315H20.1709C19.8863 29.315 19.6566 29.5447 19.6566 29.8293C19.6566 30.1105 19.8863 30.3436 20.1709 30.3436H21.2577V31.4888H5.02986C5.17386 25.0978 8.00595 19.3616 12.4426 15.3706ZM22.2177 7.65615H32.5655V9.18191C30.8992 8.80476 29.1677 8.59904 27.3916 8.59904C25.6121 8.59904 23.8807 8.80476 22.2177 9.18191V7.65615ZM20.6852 5.82866H34.0947V6.62755H20.6852V5.82866ZM27.3916 9.62764C30.6763 9.62764 33.7929 10.3476 36.6079 11.6231H27.3916H18.1754C20.9869 10.3476 24.107 9.62764 27.3916 9.62764ZM27.3916 14.342H13.677C14.469 13.7249 15.3056 13.1592 16.1799 12.6517H27.3916H38.5999C39.4742 13.1592 40.3108 13.7249 41.1029 14.342H27.3916ZM53.7512 35.4112H33.5221V32.5174H53.7512V35.4112ZM33.5221 36.4398H53.7512V39.2959H33.5221V36.4398ZM27.3916 32.5174H32.4935V35.4112H22.2863V32.5174H27.3916ZM22.2863 30.1242C22.9206 29.7847 24.7995 28.9139 27.3916 28.9139C29.9803 28.9139 31.8592 29.7847 32.4935 30.1242V31.4888H27.3916H22.2863V30.1242ZM27.3916 26.7607C29.9803 26.7607 31.8592 27.6316 32.4935 27.971V28.9756C31.53 28.5264 29.7368 27.8853 27.3916 27.8853C25.043 27.8853 23.2532 28.5264 22.2863 28.9756V27.971C22.9206 27.6316 24.7995 26.7607 27.3916 26.7607ZM1.0286 36.4398H21.2577V39.2959H1.0286V36.4398ZM27.3916 37.5267C26.1916 37.5267 25.2178 38.5004 25.2178 39.697V42.9714H22.2863V36.4398H27.3916H32.4935V42.9714H29.562V39.697C29.562 38.5004 28.5882 37.5267 27.3916 37.5267ZM54.2655 31.4888H50.782C50.6345 24.7686 47.6447 18.7376 42.968 14.5546C42.92 14.4929 42.8618 14.4415 42.7932 14.4072C41.6617 13.4129 40.4308 12.5283 39.1211 11.7637C39.0628 11.7123 38.9942 11.6711 38.9188 11.6471C37.2559 10.7042 35.473 9.95679 33.5941 9.43906V7.65615H34.609C34.8935 7.65615 35.1233 7.42643 35.1233 7.14185V5.31436C35.1233 5.02979 34.8935 4.80007 34.609 4.80007H27.3916H20.1709C19.8863 4.80007 19.6566 5.02979 19.6566 5.31436V7.14185C19.6566 7.42643 19.8863 7.65615 20.1709 7.65615H21.1891V9.43906C19.3068 9.95679 17.5239 10.7042 15.8644 11.6471C15.7856 11.6711 15.717 11.7123 15.6622 11.7637C14.349 12.5249 13.1215 13.4129 11.9866 14.4072C11.9181 14.4415 11.8598 14.4929 11.8152 14.5546C7.13507 18.7376 4.14526 24.7686 4.00126 31.4888H0.5143C0.229721 31.4888 0 31.7185 0 32.0031V43.4857C0 43.7703 0.229721 44 0.5143 44H25.7321H27.3916H29.0477H54.2655C54.5501 44 54.7798 43.7703 54.7798 43.4857V32.0031C54.7798 31.7185 54.5501 31.4888 54.2655 31.4888Z" fill="#858585"/>
<path d="M51.8659 34.9414C52.1504 34.9414 52.3802 34.7117 52.3802 34.4271V33.5699C52.3802 33.2888 52.1504 33.0556 51.8659 33.0556C51.5847 33.0556 51.3516 33.2888 51.3516 33.5699V34.4271C51.3516 34.7117 51.5847 34.9414 51.8659 34.9414Z" fill="#858585"/>
<path d="M49.1227 33.0556C48.8415 33.0556 48.6084 33.2888 48.6084 33.5699V34.4271C48.6084 34.7117 48.8415 34.9414 49.1227 34.9414C49.4073 34.9414 49.637 34.7117 49.637 34.4271V33.5699C49.637 33.2888 49.4073 33.0556 49.1227 33.0556Z" fill="#858585"/>
<path d="M46.3795 33.0556C46.0984 33.0556 45.8652 33.2888 45.8652 33.5699V34.4271C45.8652 34.7117 46.0984 34.9414 46.3795 34.9414C46.6641 34.9414 46.8938 34.7117 46.8938 34.4271V33.5699C46.8938 33.2888 46.6641 33.0556 46.3795 33.0556Z" fill="#858585"/>
<path d="M43.6364 33.0556C43.3552 33.0556 43.1221 33.2888 43.1221 33.5699V34.4271C43.1221 34.7117 43.3552 34.9414 43.6364 34.9414C43.9209 34.9414 44.1507 34.7117 44.1507 34.4271V33.5699C44.1507 33.2888 43.9209 33.0556 43.6364 33.0556Z" fill="#858585"/>
<path d="M40.8942 33.0556C40.613 33.0556 40.3799 33.2888 40.3799 33.5699V34.4271C40.3799 34.7117 40.613 34.9414 40.8942 34.9414C41.1788 34.9414 41.4085 34.7117 41.4085 34.4271V33.5699C41.4085 33.2888 41.1788 33.0556 40.8942 33.0556Z" fill="#858585"/>
<path d="M38.151 33.0556C37.8699 33.0556 37.6367 33.2888 37.6367 33.5699V34.4271C37.6367 34.7117 37.8699 34.9414 38.151 34.9414C38.4356 34.9414 38.6653 34.7117 38.6653 34.4271V33.5699C38.6653 33.2888 38.4356 33.0556 38.151 33.0556Z" fill="#858585"/>
<path d="M35.4079 33.0556C35.1267 33.0556 34.8936 33.2888 34.8936 33.5699V34.4271C34.8936 34.7117 35.1267 34.9414 35.4079 34.9414C35.6924 34.9414 35.9222 34.7117 35.9222 34.4271V33.5699C35.9222 33.2888 35.6924 33.0556 35.4079 33.0556Z" fill="#858585"/>
<path d="M51.8659 40.77C51.5847 40.77 51.3516 41.0031 51.3516 41.2843V42.1415C51.3516 42.426 51.5847 42.6558 51.8659 42.6558C52.1504 42.6558 52.3802 42.426 52.3802 42.1415V41.2843C52.3802 41.0031 52.1504 40.77 51.8659 40.77Z" fill="#858585"/>
<path d="M49.1227 40.77C48.8415 40.77 48.6084 41.0031 48.6084 41.2843V42.1415C48.6084 42.426 48.8415 42.6558 49.1227 42.6558C49.4073 42.6558 49.637 42.426 49.637 42.1415V41.2843C49.637 41.0031 49.4073 40.77 49.1227 40.77Z" fill="#858585"/>
<path d="M46.3795 40.77C46.0984 40.77 45.8652 41.0031 45.8652 41.2843V42.1415C45.8652 42.426 46.0984 42.6558 46.3795 42.6558C46.6641 42.6558 46.8938 42.426 46.8938 42.1415V41.2843C46.8938 41.0031 46.6641 40.77 46.3795 40.77Z" fill="#858585"/>
<path d="M43.6364 40.77C43.3552 40.77 43.1221 41.0031 43.1221 41.2843V42.1415C43.1221 42.426 43.3552 42.6558 43.6364 42.6558C43.9209 42.6558 44.1507 42.426 44.1507 42.1415V41.2843C44.1507 41.0031 43.9209 40.77 43.6364 40.77Z" fill="#858585"/>
<path d="M40.8942 40.77C40.613 40.77 40.3799 41.0031 40.3799 41.2843V42.1415C40.3799 42.426 40.613 42.6558 40.8942 42.6558C41.1788 42.6558 41.4085 42.426 41.4085 42.1415V41.2843C41.4085 41.0031 41.1788 40.77 40.8942 40.77Z" fill="#858585"/>
<path d="M38.151 40.77C37.8699 40.77 37.6367 41.0031 37.6367 41.2843V42.1415C37.6367 42.426 37.8699 42.6558 38.151 42.6558C38.4356 42.6558 38.6653 42.426 38.6653 42.1415V41.2843C38.6653 41.0031 38.4356 40.77 38.151 40.77Z" fill="#858585"/>
<path d="M35.4079 40.77C35.1267 40.77 34.8936 41.0031 34.8936 41.2843V42.1415C34.8936 42.426 35.1267 42.6558 35.4079 42.6558C35.6924 42.6558 35.9222 42.426 35.9222 42.1415V41.2843C35.9222 41.0031 35.6924 40.77 35.4079 40.77Z" fill="#858585"/>
</svg>
