<svg xmlns="http://www.w3.org/2000/svg" viewBox="0 0 33.525 33.525"><defs><style>.cls-1{fill:#fff;}.cls-2{fill:#ffcc05;}.cls-3{fill:#858585;}</style></defs><title>Asset 18</title><g id="Layer_2" data-name="Layer 2"><g id="Layer_1-2" data-name="Layer 1"><circle class="cls-1" cx="16.763" cy="16.763" r="11.18"/><circle class="cls-2" cx="16.763" cy="16.763" r="4.619"/><path class="cls-3" d="M16.762,21.862a5.1,5.1,0,1,1,5.1-5.1A5.1,5.1,0,0,1,16.762,21.862Zm0-9.238A4.139,4.139,0,1,0,20.9,16.762,4.144,4.144,0,0,0,16.762,12.624Z"/><path class="cls-3" d="M16.762,28.422a11.66,11.66,0,1,1,11.66-11.66A11.673,11.673,0,0,1,16.762,28.422Zm0-22.359a10.7,10.7,0,1,0,10.7,10.7A10.712,10.712,0,0,0,16.762,6.063Z"/><path class="cls-3" d="M16.762,7.926a.48.48,0,0,1-.48-.48V.48a.48.48,0,0,1,.96,0V7.446A.479.479,0,0,1,16.762,7.926Z"/><path class="cls-3" d="M16.762,33.525a.479.479,0,0,1-.48-.48V26.08a.48.48,0,0,1,.96,0v6.965A.479.479,0,0,1,16.762,33.525Z"/><path class="cls-3" d="M33.045,17.242H26.08a.48.48,0,0,1,0-.96h6.965a.48.48,0,0,1,0,.96Z"/><path class="cls-3" d="M7.446,17.242H.48a.48.48,0,0,1,0-.96H7.446a.48.48,0,0,1,0,.96Z"/></g></g></svg>