<svg xmlns="http://www.w3.org/2000/svg" viewBox="0 0 39.125 34.525"><defs><style>.cls-1{fill:#fff;}.cls-2{fill:#ffcc05;}.cls-3{fill:#858585;}</style></defs><title>Asset 17</title><g id="Layer_2" data-name="Layer 2"><g id="Layer_1-2" data-name="Layer 1"><rect class="cls-1" x="3.646" y="18.448" width="7.583" height="15.577"/><rect class="cls-1" x="22.646" y="11.521" width="8.87" height="22.505"/><rect class="cls-1" x="11.583" y="0.709" width="11.182" height="33.317"/><rect class="cls-2" x="13.844" y="4.865" width="6.719" height="4.594"/><path class="cls-3" d="M38.625,34.525H.5a.5.5,0,0,1,0-1H38.625a.5.5,0,0,1,0,1Z"/><path class="cls-3" d="M35.312,34.285a.5.5,0,0,1-.5-.5V29.949a.5.5,0,1,1,1,0v3.836A.5.5,0,0,1,35.312,34.285Z"/><path class="cls-3" d="M22.812,34.525H11.487a.5.5,0,0,1-.5-.5V.5a.5.5,0,0,1,.5-.5H22.812a.5.5,0,0,1,.5.5V34.025A.5.5,0,0,1,22.812,34.525Zm-10.825-1H22.312V1H11.987Z"/><path class="cls-3" d="M31.687,34.525H22.812a.5.5,0,0,1-.5-.5V11.3a.5.5,0,0,1,.5-.5h8.875a.5.5,0,0,1,.5.5V34.025A.5.5,0,0,1,31.687,34.525Zm-8.375-1h7.875V11.8H23.312Z"/><path class="cls-3" d="M11.487,34.525H3.646a.5.5,0,0,1-.5-.5V18.294a.5.5,0,0,1,.5-.5h7.841a.5.5,0,0,1,.5.5V34.025A.5.5,0,0,1,11.487,34.525Zm-7.341-1h6.841V18.794H4.146Z"/><path class="cls-3" d="M20.483,10.115H13.816a.5.5,0,0,1-.5-.5V4.782a.5.5,0,0,1,.5-.5h6.667a.5.5,0,0,1,.5.5V9.615A.5.5,0,0,1,20.483,10.115Zm-6.167-1h5.667V5.282H14.316Z"/><path class="cls-2" d="M28.226,14.991H26.273a.5.5,0,1,1,0-1h1.953a.5.5,0,0,1,0,1Z"/><path class="cls-2" d="M28.226,23.165H26.273a.5.5,0,0,1,0-1h1.953a.5.5,0,0,1,0,1Z"/><path class="cls-2" d="M8.543,25.97H6.59a.5.5,0,0,1,0-1H8.543a.5.5,0,0,1,0,1Z"/><path class="cls-2" d="M8.543,31.338H6.59a.5.5,0,1,1,0-1H8.543a.5.5,0,0,1,0,1Z"/><path class="cls-3" d="M28.226,25.914H26.273a.5.5,0,1,1,0-1h1.953a.5.5,0,0,1,0,1Z"/><path class="cls-3" d="M28.226,31.281H26.273a.5.5,0,0,1,0-1h1.953a.5.5,0,0,1,0,1Z"/><path class="cls-2" d="M15.769,14.991H13.816a.5.5,0,0,1,0-1h1.953a.5.5,0,0,1,0,1Z"/><path class="cls-2" d="M15.769,17.8H13.816a.5.5,0,1,1,0-1h1.953a.5.5,0,0,1,0,1Z"/><path class="cls-2" d="M15.769,28.719H13.816a.5.5,0,0,1,0-1h1.953a.5.5,0,0,1,0,1Z"/><path class="cls-3" d="M15.769,31.281H13.816a.5.5,0,0,1,0-1h1.953a.5.5,0,0,1,0,1Z"/><path class="cls-3" d="M20.483,14.991H18.53a.5.5,0,0,1,0-1h1.953a.5.5,0,1,1,0,1Z"/><path class="cls-2" d="M20.483,20.359H18.53a.5.5,0,0,1,0-1h1.953a.5.5,0,0,1,0,1Z"/><path class="cls-3" d="M20.483,23.165H18.53a.5.5,0,0,1,0-1h1.953a.5.5,0,0,1,0,1Z"/><path class="cls-3" d="M20.483,25.914H18.53a.5.5,0,0,1,0-1h1.953a.5.5,0,1,1,0,1Z"/></g></g></svg>