<svg width="60" height="44" viewBox="0 0 60 44" fill="none" xmlns="http://www.w3.org/2000/svg">
<path d="M29.9977 42.6399H1.36436C1.36967 42.2137 1.38971 41.7966 1.40476 41.3795H28.2817H29.9977H31.7132H58.5902C58.6056 41.7966 58.6256 42.2137 58.631 42.6399H29.9977ZM31.0332 35.7895V40.0194H28.9617V35.7895C28.9617 35.2183 29.4264 34.7513 29.9977 34.7513C30.5684 34.7513 31.0332 35.2183 31.0332 35.7895ZM11.1498 14.3996C11.7655 15.2021 12.6033 16.0771 13.6769 17.0337C18.5465 21.3815 25.9922 25.081 33.1925 28.658C40.8631 32.4709 48.1083 36.0706 50.9718 39.8789C51.0026 39.9242 51.0317 39.9741 51.0629 40.0194H48.5481V39.2668C48.5481 38.8906 48.2434 38.5868 47.868 38.5868C47.4927 38.5868 47.188 38.8906 47.188 39.2668V40.0194H44.4111V37.8342C44.4111 37.4624 44.1069 37.1541 43.7311 37.1541C43.3552 37.1541 43.051 37.4624 43.051 37.8342V40.0194H40.2741V38.5732C40.2741 38.1969 39.9699 37.8931 39.5941 37.8931C39.2182 37.8931 38.914 38.1969 38.914 38.5732V40.0194H36.1372V35.9663C36.1372 35.59 35.833 35.2863 35.4571 35.2863C35.0813 35.2863 34.7771 35.59 34.7771 35.9663V40.0194H32.3933V35.7895C32.3933 34.4657 31.3188 33.3912 29.9977 33.3912C28.6765 33.3912 27.6016 34.4657 27.6016 35.7895V40.0194H25.9364V38.7863C25.9364 38.41 25.6322 38.1062 25.2563 38.1062C24.8805 38.1062 24.5763 38.41 24.5763 38.7863V40.0194H21.7994V36.8731C21.7994 36.4968 21.4952 36.193 21.1194 36.193C20.7435 36.193 20.4393 36.4968 20.4393 36.8731V40.0194H17.6624V38.5732C17.6624 38.1969 17.3582 37.8931 16.9824 37.8931C16.6065 37.8931 16.3023 38.1969 16.3023 38.5732V40.0194H13.5255V35.9663C13.5255 35.59 13.2212 35.2863 12.8454 35.2863C12.4696 35.2863 12.1653 35.59 12.1653 35.9663V40.0194H9.38847V33.4592C9.38847 33.0829 9.08426 32.7792 8.70842 32.7792C8.33258 32.7792 8.02837 33.0829 8.02837 33.4592V40.0194H5.25149V38.7863C5.25149 38.41 4.94728 38.1062 4.57144 38.1062C4.1956 38.1062 3.89139 38.41 3.89139 38.7863V40.0194H1.46851C2.07983 30.068 5.45913 21.1004 11.1498 14.3996ZM11.3049 11.1943C11.5243 10.6185 12.4995 10.2241 13.9951 10.079C13.9738 10.1606 13.9561 10.2422 13.943 10.3284C13.7789 11.4119 14.3937 12.6406 15.771 13.9871C19.5575 17.6775 24.9517 20.8103 30.6627 24.1289C35.4335 26.899 40.3032 29.7234 44.3676 32.9786C41.2362 31.138 37.5671 29.3154 33.7978 27.443C26.6781 23.9022 19.3159 20.2481 14.5827 16.0227C11.1367 12.9443 11.1426 11.6205 11.3049 11.1943ZM15.2854 10.5505C15.3394 10.138 15.6758 9.94755 15.6794 9.94302C15.7016 9.93395 15.7166 9.91582 15.737 9.90222C15.7547 9.88862 15.7746 9.8841 15.7914 9.8705C20.2203 6.36596 25.2654 4.43914 29.9977 4.43914C43.1625 4.43914 57.2056 18.5978 58.5267 40.0194H52.6842C52.5065 39.7112 52.3115 39.3983 52.0807 39.09C47.5412 32.3575 39.308 27.5745 31.346 22.9502C25.7097 19.6768 20.3863 16.5849 16.7203 13.0123C15.3639 11.6885 15.2387 10.9042 15.2854 10.5505ZM27.6583 1.36985C29.7411 1.28371 36.766 1.41517 41.6905 6.49742C37.937 4.28046 33.9306 3.07904 29.9977 3.07904C29.2238 3.07904 28.4426 3.13345 27.6583 3.22412V1.36985ZM59.9322 40.6995C59.9322 40.6542 59.9276 40.6043 59.9186 40.5635C59.2095 26.432 53.1035 15.2928 45.2118 8.94561C39.3742 -1.2461 27.0245 0.0460018 26.9003 0.0596028C26.5575 0.100406 26.2982 0.390579 26.2982 0.735138V3.43268C22.4795 4.149 18.6236 5.94433 15.1349 8.66453C12.2574 8.7008 10.5396 9.38539 10.0341 10.7092C9.76159 11.4255 9.8763 12.2552 10.3755 13.2073C4.21283 20.307 0.606561 29.9229 0.0763481 40.568C0.0678247 40.6088 0.0630658 40.6542 0.0630658 40.6995C0.0630658 40.7131 0.0658742 40.7221 0.0662369 40.7312C0.0262046 41.5881 0 42.4495 0 43.3199C0 43.6917 0.304436 44 0.680051 44H29.9977H59.3151C59.691 44 59.9952 43.6917 59.9952 43.3199C59.9952 42.4449 59.9689 41.5835 59.9285 40.7312C59.929 40.7221 59.9322 40.7131 59.9322 40.6995Z" fill="#858585"/>
<path d="M4.57165 34.52C4.94749 34.52 5.2517 34.2163 5.2517 33.84V33.0738C5.2517 32.702 4.94749 32.3937 4.57165 32.3937C4.19581 32.3937 3.8916 32.702 3.8916 33.0738V33.84C3.8916 34.2163 4.19581 34.52 4.57165 34.52Z" fill="#858585"/>
<path d="M8.70837 28.0684C9.08421 28.0684 9.38842 27.7646 9.38842 27.3883V23.7704C9.38842 23.3941 9.08421 23.0904 8.70837 23.0904C8.33253 23.0904 8.02832 23.3941 8.02832 23.7704V27.3883C8.02832 27.7646 8.33253 28.0684 8.70837 28.0684Z" fill="#858585"/>
<path d="M12.8451 30.6123C13.2209 30.6123 13.5251 30.3085 13.5251 29.9323V28.7127C13.5251 28.3364 13.2209 28.0326 12.8451 28.0326C12.4692 28.0326 12.165 28.3364 12.165 28.7127V29.9323C12.165 30.3085 12.4692 30.6123 12.8451 30.6123Z" fill="#858585"/>
<path d="M16.9828 32.2261C17.3586 32.2261 17.6628 31.9223 17.6628 31.546V25.5797C17.6628 25.2034 17.3586 24.8997 16.9828 24.8997C16.6069 24.8997 16.3027 25.2034 16.3027 25.5797V31.546C16.3027 31.9223 16.6069 32.2261 16.9828 32.2261Z" fill="#858585"/>
<path d="M16.9828 36.1929C17.3586 36.1929 17.6628 35.8891 17.6628 35.5128V34.6061C17.6628 34.2298 17.3586 33.926 16.9828 33.926C16.6069 33.926 16.3027 34.2298 16.3027 34.6061V35.5128C16.3027 35.8891 16.6069 36.1929 16.9828 36.1929Z" fill="#858585"/>
<path d="M21.1195 31.6001C21.4953 31.6001 21.7996 31.2963 21.7996 30.92V29.9317C21.7996 29.5554 21.4953 29.2517 21.1195 29.2517C20.7437 29.2517 20.4395 29.5554 20.4395 29.9317V30.92C20.4395 31.2963 20.7437 31.6001 21.1195 31.6001Z" fill="#858585"/>
<path d="M25.2562 34.7104C25.6321 34.7104 25.9363 34.4067 25.9363 34.0304V30.9203C25.9363 30.5485 25.6321 30.2402 25.2562 30.2402C24.8804 30.2402 24.5762 30.5485 24.5762 30.9203V34.0304C24.5762 34.4067 24.8804 34.7104 25.2562 34.7104Z" fill="#858585"/>
<path d="M35.4574 33.7856C35.8332 33.7856 36.1374 33.4819 36.1374 33.1056V31.886C36.1374 31.5097 35.8332 31.206 35.4574 31.206C35.0816 31.206 34.7773 31.5097 34.7773 31.886V33.1056C34.7773 33.4819 35.0816 33.7856 35.4574 33.7856Z" fill="#858585"/>
<path d="M15.2861 10.5506C15.3401 10.1381 15.6765 9.94764 15.6801 9.94311C15.7023 9.93404 15.7173 9.91591 15.7377 9.90231C15.7554 9.88871 15.7753 9.88419 15.7921 9.87059C20.221 6.36606 25.2661 4.43923 29.9984 4.43923C43.1632 4.43923 57.2063 18.5979 58.5274 40.0195H52.6849C52.5072 39.7112 52.3122 39.3984 52.0814 39.0901C47.5419 32.3576 39.3087 27.5746 31.3467 22.9502C25.7104 19.6769 20.387 16.585 16.721 13.0124C15.3646 11.6886 15.2394 10.9043 15.2861 10.5506Z" fill="#FFCC05"/>
<path d="M11.15 14.3997C11.7657 15.2022 12.6035 16.0772 13.6771 17.0338C18.5467 21.3816 25.9924 25.0811 33.1928 28.6581C40.8633 32.471 48.1086 36.0707 50.9721 39.879C51.0029 39.9243 51.0319 39.9742 51.0632 40.0195H48.5483V39.2669C48.5483 38.8906 48.2437 38.5869 47.8683 38.5869C47.4929 38.5869 47.1882 38.8906 47.1882 39.2669V40.0195H44.4114V37.8343C44.4114 37.4625 44.1072 37.1542 43.7313 37.1542C43.3555 37.1542 43.0513 37.4625 43.0513 37.8343V40.0195H40.2744V38.5733C40.2744 38.197 39.9702 37.8932 39.5943 37.8932C39.2185 37.8932 38.9143 38.197 38.9143 38.5733V40.0195H36.1374V35.9664C36.1374 35.5901 35.8332 35.2864 35.4574 35.2864C35.0815 35.2864 34.7773 35.5901 34.7773 35.9664V40.0195H32.3935V35.7896C32.3935 34.4658 31.319 33.3913 29.9979 33.3913C28.6768 33.3913 27.6019 34.4658 27.6019 35.7896V40.0195H25.9366V38.7864C25.9366 38.4101 25.6324 38.1063 25.2566 38.1063C24.8807 38.1063 24.5765 38.4101 24.5765 38.7864V40.0195H21.7997V36.8731C21.7997 36.4968 21.4954 36.1931 21.1196 36.1931C20.7438 36.1931 20.4396 36.4968 20.4396 36.8731V40.0195H17.6627V38.5733C17.6627 38.197 17.3585 37.8932 16.9826 37.8932C16.6068 37.8932 16.3026 38.197 16.3026 38.5733V40.0195H13.5257V35.9664C13.5257 35.5901 13.2215 35.2864 12.8456 35.2864C12.4698 35.2864 12.1656 35.5901 12.1656 35.9664V40.0195H9.38872V33.4593C9.38872 33.083 9.08451 32.7792 8.70867 32.7792C8.33282 32.7792 8.02861 33.083 8.02861 33.4593V40.0195H5.25174V38.7864C5.25174 38.4101 4.94753 38.1063 4.57169 38.1063C4.19584 38.1063 3.89164 38.4101 3.89164 38.7864V40.0195H1.46875C2.08007 30.0681 5.45938 21.1005 11.15 14.3997Z" fill="#FFCC05"/>
</svg>
