<svg width="18" height="46" viewBox="0 0 18 46" fill="none" xmlns="http://www.w3.org/2000/svg">
<path d="M3.60742 10.1376L12.8106 9.11865V11.1565V14.0818L3.60742 14.8706V12.044V10.1376Z" fill="#FFDD2C"/>
<path d="M3.01557 33.9998L7.32135 33.2109L12.5474 33.3095V34.4599L12.6789 35.9062L10.2466 36.0048H7.32135L4.92195 36.1034L2.81836 36.3334L2.91696 35.0516L3.01557 33.9998Z" fill="#FFDD2C"/>
<path d="M3.2793 25.1257L7.4536 24.2383L13.2713 24.6327L13.3042 25.1915L13.4028 27.3279L7.4536 26.9335L3.2793 27.7223V26.5391V25.1257Z" fill="#FFDD2C"/>
<path d="M8.24861 1.06136C8.14343 1.16653 8.18725 1.4996 8.31872 1.61354C8.39761 1.6749 8.4502 1.86773 8.4502 2.08685V2.44622L7.94183 2.59522C7.24064 2.80558 6.45179 3.34901 6.02231 3.93626C5.82072 4.1992 5.64542 4.46215 5.62789 4.50597C5.61036 4.5498 5.02311 4.65498 4.31315 4.73386L3.03347 4.89164L2.99841 5.24223C2.97211 5.549 3.0247 5.68048 3.38406 6.2239C3.74343 6.76733 3.80478 6.91634 3.80478 7.29323V7.72271L3.40159 7.78407C3.17371 7.81036 2.8757 7.83665 2.74422 7.83665H2.49004V8.43267V9.02869L3.05976 9.58964L3.62948 10.1506V12.2279C3.62948 13.3673 3.60319 14.4279 3.57689 14.5769C3.53307 14.7873 3.41036 14.9187 3.00717 15.1641L2.49004 15.4709V16.0319V16.5841L2.97211 16.996L3.45418 17.408V18.4598C3.45418 19.494 3.45418 19.5116 3.15618 20.0199C2.85817 20.5283 2.8494 20.5809 2.56892 22.9562C2.41116 24.2797 2.30598 25.3841 2.33227 25.4104C2.3498 25.4367 2.56016 25.3928 2.79681 25.3227C3.03347 25.2526 3.25259 25.2175 3.27888 25.2351C3.31394 25.2614 3.32271 25.8223 3.30518 26.4797L3.26135 27.6892L2.88446 28.0837L2.50757 28.4781L2.32351 30.8884C2.21833 32.212 2.10438 33.5092 2.07809 33.7721L2.0255 34.2454L2.3498 34.1841C2.53386 34.149 2.74422 34.0964 2.81434 34.0701C2.93705 34.0175 2.94582 34.0789 2.89323 34.5259C2.86693 34.7976 2.81434 35.3235 2.77928 35.6741L2.72669 36.3227L2.42869 36.3753C2.22709 36.4104 2.12191 36.4892 2.09562 36.6207C2.07809 36.7171 1.89402 38.0494 1.7012 39.5657C1.4996 41.0821 1.26295 42.8964 1.1753 43.5976C1.07888 44.29 1 44.8948 1 44.9299C1 44.9649 4.63745 45 9.07251 45H17.145L17.0837 44.4916C17.0486 44.2199 16.812 42.2741 16.5665 40.1793L16.1195 36.3665L15.506 36.2789L14.8924 36.1912L14.8311 35.7968C14.761 35.2972 14.7434 33.6056 14.8135 33.6056C14.8398 33.6056 15.2167 33.6669 15.6462 33.7458C16.0757 33.8247 16.4438 33.8773 16.4614 33.8598C16.4789 33.8422 16.4088 32.6327 16.3036 31.1689C16.1546 29.0829 16.0845 28.4956 15.988 28.4343C15.9179 28.3904 15.655 28.259 15.4096 28.1538L14.9625 27.9522L14.9012 27.251C14.8749 26.8653 14.8486 26.243 14.8486 25.8749V25.2L15.4797 25.4191C15.8303 25.5331 16.1371 25.6207 16.1633 25.612C16.1896 25.5944 16.0757 24.3235 15.9004 22.7896L15.5936 19.9936L15.1378 19.7745L14.6733 19.5466V18.9243C14.6733 18.5912 14.6295 17.9163 14.5769 17.4343C14.5331 16.9522 14.4892 15.6112 14.4892 14.4542V12.3506L14.8924 11.9825L15.2956 11.6056L15.3482 9.82629L15.4008 8.04701L14.5418 5.88207C14.0685 4.69004 13.6653 3.6996 13.6303 3.68207C13.604 3.66454 13.1745 3.69084 12.6837 3.74343L11.7896 3.83107L11.6056 3.61195C11.3602 3.28765 10.5888 2.80558 10.0717 2.63905C9.83506 2.56016 9.38805 2.48128 9.09004 2.47251L8.53785 2.45498V2.06932C8.53785 1.82391 8.58167 1.6749 8.66056 1.64861C8.98486 1.5259 8.86215 1 8.50279 1C8.39761 1 8.2749 1.0263 8.24861 1.06136ZM8.70438 1.2016C8.83586 1.36813 8.61673 1.66614 8.41514 1.58725C8.2749 1.53466 8.22231 1.25419 8.33625 1.14901C8.4239 1.05259 8.5992 1.07889 8.70438 1.2016ZM10.396 2.86694C10.8869 3.11235 11.6845 3.74342 11.6056 3.83107C11.5705 3.8749 9.06374 4.19044 6.96016 4.42709C6.54821 4.47092 6.12749 4.52351 6.02231 4.5498C5.71554 4.61992 5.76813 4.4008 6.19761 3.8749C6.9251 2.98088 7.88048 2.56893 9.11633 2.60398C9.76494 2.62151 9.99283 2.66534 10.396 2.86694ZM14.4016 5.82072C15.1378 7.67888 15.3745 8.4502 15.2167 8.4502C15.1817 8.4502 14.8223 7.56494 14.4191 6.48685C14.0159 5.40877 13.6566 4.47968 13.6215 4.41833C13.5689 4.32191 12.8151 4.39203 10.0104 4.7251C8.07331 4.95299 5.84701 5.21594 5.0757 5.30359C4.30438 5.39123 3.54183 5.48765 3.38406 5.51395C3.09482 5.56654 3.09482 5.56653 3.12112 5.27729L3.14741 4.98805L5.11952 4.75139C6.20637 4.61992 7.80159 4.43586 8.66932 4.33068C9.53705 4.23427 10.9745 4.05896 11.8685 3.94502C12.7625 3.83984 13.5163 3.76096 13.5514 3.77849C13.5865 3.79602 13.9633 4.71633 14.4016 5.82072ZM14.1474 6.17132C15.1028 8.67809 15.208 9.02869 15.1817 9.51952L15.1554 9.98407L14.8749 9.32669C14.7171 8.96733 14.3753 8.18725 14.1036 7.59124C13.6303 6.53944 13.6215 6.49562 13.6215 5.71554C13.6215 5.27729 13.639 4.93546 13.6653 4.95299C13.6829 4.97929 13.902 5.52271 14.1474 6.17132ZM13.4462 7.39841C13.4462 7.87172 13.4287 7.92431 13.2534 7.95937C13.1394 7.98566 11.5968 8.1259 9.80876 8.2749C6.53944 8.54662 4.12908 8.75697 3.12988 8.85339L2.57769 8.90598V8.45897C2.57769 7.9506 2.45498 8.00319 4.06773 7.83665C4.5761 7.78407 5.32112 7.70518 5.73307 7.66136C6.14502 7.61753 6.87251 7.53865 7.35458 7.48606C9.651 7.2494 11.6143 7.03028 12.1315 6.96893C12.447 6.9251 12.8677 6.89004 13.0781 6.88128L13.4462 6.87251V7.39841ZM14.4542 8.69562C15.1116 10.1769 15.208 10.4486 15.1817 10.7992L15.1466 11.2112L14.349 9.58088C13.5952 8.05578 13.5514 7.92431 13.5426 7.39841C13.5426 7.08287 13.5777 6.88128 13.6215 6.9251C13.6653 6.96893 14.0335 7.76653 14.4542 8.69562ZM13.2534 8.31873C13.1394 8.57291 13.1219 8.57291 11.1235 8.75697C10.3084 8.82709 9.23904 8.93227 8.75697 8.9761C8.2749 9.02869 6.81992 9.16016 5.52271 9.28287L3.15618 9.51076L2.90199 9.25658L2.64781 9.00239L3.20876 8.9498C3.50677 8.91474 4.96175 8.79203 6.43426 8.66056C7.90677 8.53785 9.87888 8.36255 10.8167 8.2749C11.7546 8.18725 12.71 8.11713 12.9378 8.10837C13.3498 8.0996 13.3498 8.09961 13.2534 8.31873ZM14.7347 11.9386L14.3227 12.3506L14.3052 13.9984L14.2789 15.6462L13.604 14.7873L12.9203 13.9371V11.553V9.16893L13.2096 8.66932L13.49 8.16972L14.3139 9.85259L15.1378 11.5267L14.7347 11.9386ZM12.9291 8.87968C12.859 8.99363 12.6924 9.05498 12.2892 9.0988C11.9825 9.13386 11.0096 9.23028 10.1155 9.32669C9.22151 9.42311 7.40717 9.61594 6.08366 9.75618L3.67331 10.0191L3.45418 9.8C3.25259 9.60717 3.25259 9.58964 3.41036 9.58088C3.50677 9.58088 5.54024 9.38805 7.9243 9.16016C10.3084 8.92351 12.4295 8.73068 12.6398 8.72191C12.9817 8.71315 13.008 8.73068 12.9291 8.87968ZM8.10837 10.4398L8.1259 10.6853L8.16096 10.4398C8.19602 10.247 8.24861 10.2032 8.43267 10.2032C8.78327 10.2032 8.91474 10.3259 8.85339 10.5625L8.8008 10.7729L8.89721 10.5713C9.02869 10.3259 9.08127 10.3259 9.41434 10.6151L9.69482 10.843L9.48446 11.0096L9.28287 11.1761L9.49323 11.0797C9.72988 10.957 9.79123 11.0096 9.92271 11.404C10.0191 11.702 9.99283 11.7371 9.70359 11.702C9.64223 11.6932 9.58964 11.7283 9.58964 11.7809C9.58964 11.8247 9.69482 11.8685 9.81753 11.8685C10.0367 11.8685 10.0454 11.8861 9.98406 12.1928C9.90518 12.6311 9.87012 12.6749 9.67729 12.5697C9.41434 12.4295 9.37928 12.4645 9.59841 12.6486L9.79123 12.8064L9.59841 13.0869C9.36175 13.4112 9.30916 13.4199 9.11633 13.157C8.9761 12.9729 8.9761 13.043 9.10757 13.3849C9.16016 13.5163 8.80956 13.7092 8.53785 13.7092C8.4239 13.7092 8.36255 13.6303 8.33625 13.4637C8.30119 13.2359 8.30119 13.2446 8.28366 13.5076C8.2749 13.7793 8.26614 13.788 7.9506 13.7355C7.54741 13.6741 7.41594 13.5689 7.55618 13.4287C7.61753 13.3673 7.66135 13.2797 7.66135 13.2271C7.66135 13.1833 7.58247 13.2359 7.48606 13.3586L7.31952 13.5777L7.05657 13.3235C6.74104 13.0167 6.72351 12.9554 6.96016 12.8765C7.05657 12.8502 7.13546 12.7801 7.13546 12.7275C7.13546 12.6749 7.03904 12.7012 6.9251 12.7713C6.67092 12.9379 6.5745 12.859 6.47809 12.412C6.4255 12.149 6.43426 12.1315 6.67092 12.1227L6.91633 12.1052L6.66215 12.0701C6.4255 12.0351 6.41673 12.0088 6.46056 11.6757C6.52191 11.2462 6.5745 11.1849 6.79363 11.3339C6.8988 11.3952 6.99522 11.4215 7.02151 11.404C7.04781 11.3777 6.97769 11.3163 6.88128 11.255C6.64462 11.1323 6.65339 11.0534 6.90757 10.7554L7.11793 10.51L7.31952 10.6853L7.51235 10.8606L7.40717 10.659C7.28446 10.4223 7.28446 10.4135 7.57371 10.2996C7.95936 10.1506 8.0996 10.1857 8.10837 10.4398ZM12.7976 14.3227C12.7976 14.5243 12.9291 14.5068 9.58964 14.8048C8.21355 14.9275 6.2502 15.1116 5.23347 15.208C4.20797 15.3044 3.27888 15.3745 3.17371 15.357C2.98964 15.3307 3.00717 15.3131 3.31394 15.1291C3.62948 14.9363 3.98884 14.9012 8.09084 14.5418C10.5275 14.3402 12.5873 14.1649 12.6574 14.1562C12.7363 14.1474 12.7976 14.2175 12.7976 14.3227ZM13.7004 15.1378C14.0773 15.6112 14.3315 16.0231 14.3578 16.1896C14.4542 16.7944 14.498 17.3904 14.4629 17.3904C14.4367 17.3904 14.0861 16.961 13.6741 16.4351L12.9203 15.4797V14.8398C12.9203 14.4454 12.9554 14.2351 12.9992 14.2789C13.043 14.3315 13.3586 14.7171 13.7004 15.1378ZM12.8327 15.0239C12.8327 15.2343 12.7888 15.392 12.7275 15.4183C12.6661 15.4359 11.588 15.5586 10.3347 15.6813C9.08127 15.8127 6.93386 16.0231 5.55777 16.1721C2.29721 16.5052 2.57769 16.5227 2.57769 16.0056V15.5849L6.76733 15.208C9.06374 14.9976 11.2024 14.796 11.5179 14.761C11.8335 14.7259 12.2542 14.6908 12.4645 14.6821L12.8327 14.6733V15.0239ZM12.8327 16.0319C12.8327 16.5665 12.8502 16.5578 11.9825 16.6279L11.5179 16.663V16.1546V15.6462L11.8948 15.6112C12.0964 15.5936 12.3944 15.5761 12.5522 15.5673L12.8327 15.5498V16.0319ZM10.9044 16.1984C10.9044 16.7418 10.8956 16.7506 10.0717 16.7944L9.54582 16.8207L9.51952 16.3649C9.49323 15.8566 9.49323 15.8478 10.247 15.7865C10.4398 15.7689 10.6677 15.7514 10.7554 15.7426C10.8781 15.7251 10.9044 15.804 10.9044 16.1984ZM11.4127 16.1809C11.3865 16.5841 11.3602 16.6454 11.1936 16.6717C11.0008 16.698 10.992 16.6717 10.992 16.2159C10.992 15.7514 11.0008 15.7251 11.2199 15.7251C11.4303 15.7251 11.439 15.7426 11.4127 16.1809ZM13.5689 17.0311C13.5952 17.3904 13.6215 17.9777 13.6215 18.3458V19.0207L13.2709 18.9857L12.9203 18.9506V17.3116V15.6813L13.2183 16.0319C13.4725 16.3299 13.5163 16.4614 13.5689 17.0311ZM8.9761 16.4263C8.9761 16.9084 9.01992 16.8821 7.9506 16.9873L7.48606 17.0311V16.5578V16.0845L7.99442 16.0319C8.26614 16.0056 8.57291 15.9705 8.66932 15.953C8.94104 15.9267 8.9761 15.9705 8.9761 16.4263ZM9.41434 16.3825C9.41434 16.8032 9.39681 16.8645 9.23904 16.8645C9.08128 16.8645 9.06374 16.8032 9.06374 16.3825C9.06374 15.9618 9.08128 15.9004 9.23904 15.9004C9.39681 15.9004 9.41434 15.9618 9.41434 16.3825ZM7.39841 16.5578C7.39841 17.0135 7.38964 17.0398 7.17928 17.0398C6.97769 17.0398 6.96016 17.0135 6.96016 16.6191C6.96016 16.1546 6.99522 16.0757 7.24064 16.0757C7.37211 16.0757 7.39841 16.1458 7.39841 16.5578ZM6.82869 16.6191C6.79363 16.8733 6.75857 17.0924 6.7498 17.0924C6.7498 17.1012 6.45179 17.1275 6.10996 17.1538L5.47012 17.2064V16.7331V16.2598L5.84701 16.2247C6.04861 16.2072 6.36414 16.1896 6.54821 16.1809L6.89004 16.1633L6.82869 16.6191ZM4.76892 16.7769C4.76892 17.2677 4.77769 17.2677 4.05896 17.3379C3.57689 17.3904 3.5506 17.3817 3.15618 17.0311C2.93705 16.8382 2.75299 16.6454 2.75299 16.6104C2.75299 16.549 3.40159 16.4614 4.61992 16.3562C4.74263 16.3386 4.76892 16.4088 4.76892 16.7769ZM5.38247 16.7769C5.38247 17.2064 5.37371 17.2151 5.11952 17.2151C4.86534 17.2151 4.85657 17.2064 4.85657 16.7769C4.85657 16.3474 4.86534 16.3386 5.11952 16.3386C5.37371 16.3386 5.38247 16.3474 5.38247 16.7769ZM12.8327 17.7849V18.8805H12.596C12.4558 18.8805 12.1402 18.8542 11.8948 18.8279L11.4303 18.7665V18.1004C11.4303 17.7323 11.4566 17.2853 11.4829 17.11C11.5442 16.7506 11.6056 16.7243 12.3769 16.698L12.8327 16.6892V17.7849ZM14.1124 17.1538C14.4629 17.6008 14.4717 17.6271 14.5243 18.5036C14.5681 19.1084 14.5594 19.4064 14.498 19.4064C14.4454 19.4064 14.2526 19.3275 14.0598 19.2311L13.7179 19.0558L13.6916 17.8725C13.6741 17.2239 13.6829 16.6892 13.7092 16.698C13.7355 16.698 13.9108 16.8996 14.1124 17.1538ZM11.3426 17.741C11.3426 18.6438 11.3339 18.7052 11.1673 18.7052C11.0008 18.7052 10.992 18.6438 10.992 17.741C10.992 16.8382 11.0008 16.7769 11.1673 16.7769C11.3339 16.7769 11.3426 16.8382 11.3426 17.741ZM10.8869 17.7323C10.8781 18.2143 10.843 18.6175 10.8167 18.6438C10.7904 18.6614 10.4837 18.6614 10.1418 18.6351L9.50199 18.6V17.7849V16.961L9.74741 16.9259C9.87888 16.9084 10.1944 16.8821 10.4486 16.8733L10.9219 16.8645L10.8869 17.7323ZM9.39681 17.7586C9.37052 18.5211 9.36175 18.5737 9.19522 18.5474C9.0988 18.5299 9.01992 18.5036 9.01992 18.5036C9.01992 18.4948 9.02869 18.1442 9.04622 17.7147C9.07251 17.0223 9.09004 16.9522 9.24781 16.9522C9.40558 16.9522 9.42311 17.0048 9.39681 17.7586ZM8.94104 17.3641C8.91474 17.5482 8.88845 17.8813 8.88845 18.1092V18.5299H8.18725H7.48606V17.8375C7.48606 17.0398 7.43347 17.0837 8.48526 17.0486L9.00239 17.0398L8.94104 17.3641ZM7.38088 17.8462C7.35458 18.5737 7.35458 18.5737 7.10916 18.6L6.86374 18.6263L6.88128 18.0303C6.89881 17.3378 6.98645 17.1275 7.23187 17.1275C7.38964 17.1275 7.40717 17.1801 7.38088 17.8462ZM6.78486 17.9514V18.6877L6.18008 18.8279C5.34741 19.0207 5.35618 19.0207 5.41753 18.6351C5.44382 18.4598 5.46135 18.0829 5.47012 17.8112C5.47012 17.3203 5.47012 17.3116 5.75936 17.2765C5.90837 17.259 6.20637 17.2327 6.41673 17.2327L6.78486 17.2151V17.9514ZM5.30359 18.1793C5.29482 18.6351 5.27729 19.012 5.26853 19.0207C5.25976 19.0295 5.16335 19.0645 5.05817 19.0908C4.85657 19.1522 4.85657 19.1434 4.85657 18.2757C4.85657 17.5219 4.8741 17.3992 5.01434 17.3641C5.29482 17.294 5.32112 17.3554 5.30359 18.1793ZM4.75139 18.2845L4.7251 19.1785L4.17291 19.3012C3.86614 19.3626 3.59442 19.3976 3.56813 19.3713C3.54183 19.345 3.5506 18.9155 3.58566 18.4072C3.65578 17.3817 3.60319 17.4343 4.44462 17.3992L4.77769 17.3904L4.75139 18.2845ZM7.55618 19.7745L7.52988 20.9402L7.17928 21.0454C6.79363 21.1506 3.13865 21.8606 2.93705 21.8606C2.84064 21.8606 2.83187 21.7378 2.8757 21.2207C2.92829 20.7299 3.00717 20.4757 3.24382 20.0637L3.5506 19.5378L5.49641 19.0821C6.56574 18.8367 7.47729 18.6351 7.51235 18.6263C7.54741 18.6175 7.56494 19.1434 7.55618 19.7745ZM9.26534 18.6789L10.2032 18.7315V19.941V21.1594L9.70359 21.1155C9.42311 21.0892 8.85339 21.0542 8.43267 21.0191L7.66135 20.9665V19.792V18.6175H7.99442C8.18725 18.6175 8.75697 18.6438 9.26534 18.6789ZM11.8422 18.9155C12.3418 18.9769 12.7625 19.047 12.7888 19.0645C12.8151 19.0908 12.859 19.5904 12.9028 20.1777L12.9641 21.247H12.561C12.3418 21.247 11.7371 21.2207 11.2287 21.1857L10.2908 21.1331V19.9586V18.7928H10.6239C10.7992 18.8016 11.3514 18.8542 11.8422 18.9155ZM14.6032 19.6255L15.5235 20.1076L15.5761 20.7474C15.6112 21.0892 15.6637 21.5801 15.69 21.8343L15.7514 22.29L14.4279 21.7904L13.1044 21.2996L13.0606 20.8526C13.0343 20.6159 12.9904 20.0988 12.9641 19.7219L12.9116 19.0295L13.2972 19.0821C13.5163 19.1171 14.0861 19.3538 14.6032 19.6255ZM9.57211 21.212C10.1769 21.2558 10.2032 21.2733 10.2032 21.4837V21.7028L9.26534 21.6502C7.67888 21.5538 7.59124 21.5363 7.63506 21.2996C7.67888 21.0805 7.75777 21.0717 9.57211 21.212ZM7.49482 21.3522C7.43347 21.5363 7.23187 21.5888 5.28606 21.9657C4.11155 22.1936 3.05976 22.404 2.95458 22.4303C2.78805 22.4653 2.75299 22.439 2.75299 22.255C2.75299 22.1323 2.76175 22.0359 2.77928 22.0359C2.78805 22.0271 3.74343 21.8343 4.9004 21.6064C6.05737 21.3697 7.12669 21.1769 7.28446 21.1681C7.53865 21.1594 7.56494 21.1769 7.49482 21.3522ZM12.9028 21.3873C12.9554 21.4048 13.008 21.5187 13.008 21.6502V21.8781L12.1578 21.8255C10.3697 21.7116 10.2908 21.694 10.2908 21.4574V21.247L11.5442 21.2996C12.2279 21.3259 12.8414 21.361 12.9028 21.3873ZM14.4191 21.8956C15.1028 22.1586 15.6988 22.4215 15.7339 22.4916C15.804 22.5968 15.8478 22.9123 15.7952 22.9123C15.7777 22.9123 15.1817 22.6845 14.4542 22.404C13.2446 21.9307 13.1394 21.8781 13.1131 21.659C13.0956 21.5275 13.1044 21.4223 13.1307 21.4223C13.1482 21.4223 13.7355 21.6327 14.4191 21.8956ZM7.48606 22.9562C7.48606 23.6574 7.46853 24.2271 7.44223 24.2271C7.29323 24.2271 3.48924 25.0335 3.03347 25.1562C2.73546 25.2438 2.47251 25.2876 2.44622 25.2614C2.41992 25.2351 2.45498 24.753 2.53386 24.192C2.60398 23.6311 2.66534 23.0526 2.66534 22.9036C2.66534 22.7458 2.71793 22.6231 2.80558 22.588C3.01594 22.5092 7.05657 21.7028 7.29323 21.694C7.48606 21.6853 7.48606 21.694 7.48606 22.9562ZM9.35299 21.7466L10.2032 21.7992V23.0438C10.2032 23.7275 10.1857 24.306 10.1681 24.3235C10.1506 24.341 9.56335 24.3147 8.87092 24.2709L7.61753 24.1833L7.6 22.9299L7.58247 21.6853H8.03825C8.29243 21.6853 8.87968 21.7116 9.35299 21.7466ZM12.9904 21.9833C13.0255 22.0271 13.2008 24.4988 13.1657 24.5339C13.1482 24.5514 12.4908 24.5251 11.7108 24.4725L10.2908 24.3673V23.1315C10.2908 22.4478 10.3084 21.8693 10.3259 21.8518C10.361 21.8167 12.9466 21.9482 12.9904 21.9833ZM14.5068 22.5267L15.804 23.0175L15.8478 23.3418C15.9705 24.157 16.0845 25.3841 16.0406 25.4279C16.0143 25.4542 15.3833 25.2614 14.6295 25.0072L13.2709 24.5339L13.2622 24.1394C13.2534 23.9203 13.2271 23.3594 13.192 22.8861C13.1657 22.4215 13.157 22.0359 13.1745 22.0359C13.192 22.0359 13.788 22.255 14.5068 22.5267ZM14.0598 24.9633L14.6295 25.1737L14.6996 25.945C14.7347 26.3745 14.7522 26.9705 14.7434 27.2685L14.7171 27.812L14.0948 27.5315L13.4725 27.251L13.4112 26.4709C13.341 25.4279 13.341 24.753 13.4287 24.753C13.4637 24.753 13.7442 24.8494 14.0598 24.9633ZM7.33705 28.3904L7.28446 29.7139L4.99681 30.0908C3.73466 30.3012 2.65657 30.494 2.58645 30.5203C2.49004 30.5554 2.48127 30.3888 2.53386 29.5649L2.59522 28.5657L2.99841 28.145L3.41036 27.7331L5.33864 27.3562C6.3992 27.1458 7.29323 26.9968 7.32829 27.0231C7.36335 27.0494 7.36335 27.6717 7.33705 28.3904ZM10.4223 27.1195C11.3426 27.1633 12.3506 27.2335 12.6661 27.2598L13.2446 27.3124L13.306 27.9697C13.3323 28.3378 13.3586 28.89 13.3586 29.2056V29.7753L10.4223 29.7315C8.80956 29.7052 7.46853 29.6701 7.44223 29.6438C7.41594 29.6263 7.4247 29.004 7.45976 28.2677L7.51235 26.9267L8.13466 26.9793C8.47649 27.0056 9.51076 27.0669 10.4223 27.1195ZM15.9968 28.7147C16.0231 28.8287 16.0757 29.302 16.102 29.7753C16.1458 30.4414 16.1371 30.6255 16.0494 30.5992C15.9968 30.5817 15.3833 30.3888 14.6996 30.1785L13.4462 29.7928V28.592V27.4L14.6908 27.9522C15.6813 28.3992 15.953 28.557 15.9968 28.7147ZM14.6996 30.2837C16.0494 30.7044 16.1633 30.757 16.1633 30.9498C16.1633 31.055 16.1458 31.1514 16.1283 31.1514C16.1108 31.1514 15.4359 30.9498 14.6207 30.7131L13.1482 30.2749H10.2032H7.26693L4.85657 30.7131C3.53307 30.9498 2.43745 31.1514 2.42869 31.1514C2.35857 31.1514 2.41992 30.7131 2.49004 30.6693C2.54263 30.6343 3.57689 30.4414 4.79522 30.2311L7.00398 29.8542L10.1155 29.8454L13.2271 29.8367L14.6996 30.2837ZM7.2757 31.7912C7.24064 32.5187 7.19681 33.1323 7.17928 33.1586C7.15299 33.1761 6.25896 33.3426 5.18964 33.5267C4.11155 33.7108 2.99841 33.9211 2.70916 33.9912C2.41992 34.0614 2.18327 34.1139 2.1745 34.1052C2.15697 34.0789 2.40239 31.3004 2.42869 31.2741C2.48127 31.2215 7.18805 30.3976 7.25817 30.4327C7.30199 30.459 7.31076 31.0375 7.2757 31.7912ZM12.7976 30.4151L13.2534 30.4765L13.306 31.1426C13.3323 31.5108 13.3673 32.1243 13.3761 32.51L13.3849 33.2112L12.9554 33.2374C12.7187 33.255 11.3689 33.2462 9.96653 33.2112L7.39841 33.1498V31.7562V30.3626H9.87888C11.2375 30.3626 12.5522 30.3888 12.7976 30.4151ZM16.2948 32.5012C16.3474 33.1673 16.3649 33.7195 16.3386 33.7371C16.2773 33.7721 13.6215 33.2813 13.5602 33.2287C13.5076 33.1673 13.3673 30.6167 13.4112 30.5291C13.4287 30.494 14.0685 30.6606 14.8223 30.8797L16.2072 31.2916L16.2948 32.5012ZM14.4279 33.5618C14.5681 33.6231 14.6733 34.4295 14.6733 35.5514C14.6733 36.0861 14.6558 36.1562 14.5243 36.1124C14.4367 36.0948 14.0072 36.0247 13.5689 35.9633L12.7626 35.8582L12.71 35.4112C12.6837 35.1657 12.6574 34.6135 12.6574 34.1841V33.404L13.4725 33.4566C13.9195 33.4829 14.349 33.5355 14.4279 33.5618ZM13.5426 36.1386C13.5777 36.1649 13.6303 36.8398 13.6653 37.6287L13.7267 39.0661L13.4462 39.0048C13.2884 38.9785 12.6311 38.9522 11.9912 38.9522H10.8167V37.506V36.0685L11.588 36.0335C12.447 35.9984 13.4637 36.051 13.5426 36.1386ZM7.48606 36.3841C7.48606 36.8661 7.31952 38.8032 7.2757 38.847C7.25817 38.8645 6.65339 38.9171 5.94343 38.961C5.2247 39.0135 4.01514 39.1363 3.26135 39.2502L1.87649 39.443V39.259C1.87649 39.0311 2.21833 36.5681 2.25339 36.5331C2.26215 36.5155 2.70916 36.4367 3.23506 36.3578C4.28685 36.2 5.53147 36.0948 6.72351 36.0773L7.48606 36.0598V36.3841ZM10.6853 37.4534C10.6853 38.2247 10.659 38.8733 10.6327 38.8996C10.6064 38.9347 9.86135 38.9259 8.98486 38.8996L7.38088 38.8382L7.43347 38.5665C7.451 38.4175 7.50359 37.9004 7.52988 37.4183C7.55617 36.9363 7.60876 36.4367 7.62629 36.2964L7.67888 36.0598H9.17769H10.6853V37.4534ZM15.1378 36.3315C15.8829 36.4279 15.9968 36.4629 16.0319 36.6207C16.102 36.9363 16.3562 39.2239 16.3211 39.259C16.2861 39.294 13.8845 39.0661 13.8494 39.0311C13.8319 39.0135 13.7968 38.3474 13.7618 37.5586L13.7092 36.1299L13.9896 36.1737C14.1474 36.2 14.6645 36.2701 15.1378 36.3315ZM10.6239 39.0924C10.7028 39.11 10.7291 39.557 10.7291 40.9243V42.7211H8.93227H7.13546V42.5195C7.13546 42.4143 7.19681 41.6343 7.26693 40.7928C7.33705 39.9514 7.39841 39.1888 7.39841 39.11C7.39841 38.9785 7.52988 38.9697 8.95857 39.0048C9.80876 39.0311 10.5625 39.0661 10.6239 39.0924ZM7.2757 39.3641C7.2494 39.5482 7.18805 40.3458 7.12669 41.1434C7.0741 41.941 7.00398 42.6159 6.96892 42.651C6.90757 42.7211 1.44701 43.1944 1.38566 43.1331C1.34183 43.0892 1.78008 39.6446 1.84143 39.5833C1.87649 39.5307 4.17291 39.2151 5.03187 39.1363C5.44382 39.0924 6.12749 39.0574 6.54821 39.0486L7.32829 39.0398L7.2757 39.3641ZM13.6741 39.1538C13.6916 39.1713 13.7355 40.0127 13.7705 41.0295L13.8231 42.8701L13.043 42.8351C12.6135 42.8175 11.9386 42.7825 11.5442 42.7562L10.8167 42.7036V40.8629V39.0135L12.2279 39.0661C13.008 39.1012 13.6653 39.1363 13.6741 39.1538ZM15.243 39.3028C15.8215 39.3641 16.3123 39.4255 16.3299 39.443C16.3737 39.4869 16.7681 42.5546 16.7769 42.8876V43.098L15.9705 43.0367C13.9108 42.8876 13.9809 42.9052 13.9371 42.5984C13.9108 42.4494 13.8757 41.608 13.8494 40.7315L13.8143 39.1275L13.9984 39.1713C14.1036 39.1888 14.6645 39.2502 15.243 39.3028Z" stroke="#858585" stroke-width="0.2"/>
<path d="M8.24197 11.9599C8.27726 11.9646 8.31849 11.969 8.36441 11.973C8.29727 11.9356 8.24203 11.8922 8.19712 11.8398C8.19623 11.8645 8.1951 11.8879 8.19381 11.9094C8.19294 11.9239 8.19195 11.9383 8.19084 11.9522C8.20548 11.9547 8.22253 11.9573 8.24197 11.9599Z" stroke="#858585" stroke-width="0.2"/>
<path d="M3.08203 5.60172L13.5342 4.41846V5.60172V6.78499L3.83801 7.80391V6.91646L3.08203 5.60172Z" fill="#FFDD2C"/>
</svg>
