<svg width="26" height="44" viewBox="0 0 26 44" fill="none" xmlns="http://www.w3.org/2000/svg">
<path d="M12.6767 26.4058H1.24316V24.0918H24.1102V26.4058H12.6767Z" fill="#FFCC05"/>
<path d="M12.6768 3.36999C14.7634 3.36999 18.2229 4.06144 18.4178 8.61035H12.6768H6.93555C7.13073 4.06144 10.5902 3.36999 12.6768 3.36999Z" fill="#FFCC05"/>
<path d="M6.92578 11.8091H18.4274V18.8516H18.172V13.9569C18.172 12.9987 17.3937 12.2201 16.4366 12.2201C15.4794 12.2201 14.7011 12.9987 14.7011 13.9569V18.8516H14.412V13.9569C14.412 12.9987 13.6334 12.2201 12.6766 12.2201C11.7194 12.2201 10.9411 12.9987 10.9411 13.9569V18.8516H10.6518V13.9569C10.6518 12.9987 9.87346 12.2201 8.91631 12.2201C7.95916 12.2201 7.18086 12.9987 7.18086 13.9569V18.8516H6.92578V11.8091Z" fill="#FFCC05"/>
<path d="M1.24316 19.6685H24.1102V21.9824H23.6678V21.1331C23.6678 20.5124 23.164 20.0088 22.5449 20.0088C21.9256 20.0088 21.422 20.5124 21.422 21.1331V21.9824H20.8713V21.1331C20.8713 20.5124 20.3676 20.0088 19.7483 20.0088C19.1293 20.0088 18.6254 20.5124 18.6254 21.1331V21.9824H18.0749V21.1331C18.0749 20.5124 17.571 20.0088 16.952 20.0088C16.3327 20.0088 15.8291 20.5124 15.8291 21.1331V21.9824H15.2784V21.1331C15.2784 20.5124 14.7747 20.0088 14.1554 20.0088C13.5364 20.0088 13.0325 20.5124 13.0325 21.1331V21.9824H12.6767H12.3206V21.1331C12.3206 20.5124 11.8167 20.0088 11.1977 20.0088C10.5786 20.0088 10.0747 20.5124 10.0747 21.1331V21.9824H9.52429V21.1331C9.52429 20.5124 9.0204 20.0088 8.40136 20.0088C7.78204 20.0088 7.27842 20.5124 7.27842 21.1331V21.9824H6.72771V21.1331C6.72771 20.5124 6.22382 20.0088 5.60477 20.0088C4.98573 20.0088 4.48184 20.5124 4.48184 21.1331V21.9824H3.9314V21.1331C3.9314 20.5124 3.42751 20.0088 2.80847 20.0088C2.18915 20.0088 1.68553 20.5124 1.68553 21.1331V21.9824H1.24316V19.6685Z" fill="#FFCC05"/>
<path d="M18.4443 31.2734H19.8822V39.5083H18.4443V31.2734Z" fill="#FFCC05"/>
<path d="M14.1201 31.2734H15.5583V39.5083H14.1201V31.2734Z" fill="#FFCC05"/>
<path d="M9.7959 31.2734H11.2338V39.5083H9.7959V31.2734Z" fill="#FFCC05"/>
<path d="M5.4707 31.2734H6.90861V39.5083H5.4707V31.2734Z" fill="#FFCC05"/>
<path d="M1.24316 31.2734H2.58415V39.5083H1.24316V31.2734Z" fill="#FFCC05"/>
<path d="M24.1108 39.5083H22.7695V31.2734H24.1108V39.5083Z" fill="#FFCC05"/>
<path d="M3.76128 24.8405H2.09389C1.86821 24.8405 1.68555 25.0229 1.68555 25.2489C1.68555 25.4748 1.86821 25.6572 2.09389 25.6572H3.76128C3.98668 25.6572 4.16962 25.4748 4.16962 25.2489C4.16962 25.0229 3.98668 24.8405 3.76128 24.8405Z" fill="#858585"/>
<path d="M7.5894 24.8405H5.92201C5.69661 24.8405 5.51367 25.0229 5.51367 25.2489C5.51367 25.4748 5.69661 25.6572 5.92201 25.6572H7.5894C7.8148 25.6572 7.99774 25.4748 7.99774 25.2489C7.99774 25.0229 7.8148 24.8405 7.5894 24.8405Z" fill="#858585"/>
<path d="M11.4185 24.8405H9.75111C9.52544 24.8405 9.34277 25.0229 9.34277 25.2489C9.34277 25.4748 9.52544 25.6572 9.75111 25.6572H11.4185C11.6439 25.6572 11.8268 25.4748 11.8268 25.2489C11.8268 25.0229 11.6439 24.8405 11.4185 24.8405Z" fill="#858585"/>
<path d="M23.2603 24.8405H21.5929C21.3672 24.8405 21.1846 25.0229 21.1846 25.2489C21.1846 25.4748 21.3672 25.6572 21.5929 25.6572H23.2603C23.4857 25.6572 23.6686 25.4748 23.6686 25.2489C23.6686 25.0229 23.4857 24.8405 23.2603 24.8405Z" fill="#858585"/>
<path d="M19.4312 24.8405H17.7638C17.5384 24.8405 17.3555 25.0229 17.3555 25.2489C17.3555 25.4748 17.5384 25.6572 17.7638 25.6572H19.4312C19.6566 25.6572 19.8395 25.4748 19.8395 25.2489C19.8395 25.0229 19.6566 24.8405 19.4312 24.8405Z" fill="#858585"/>
<path d="M15.604 24.8405H13.9367C13.711 24.8405 13.5283 25.0229 13.5283 25.2489C13.5283 25.4748 13.711 25.6572 13.9367 25.6572H15.604C15.8295 25.6572 16.0124 25.4748 16.0124 25.2489C16.0124 25.0229 15.8295 24.8405 15.604 24.8405Z" fill="#858585"/>
<path d="M24.1106 39.5083H22.7693V31.2734H24.1106V39.5083ZM24.1106 43.1833H22.7693V40.3249H24.1106V43.1833ZM20.6993 43.1833V40.3168C20.8882 40.2787 21.0309 40.1153 21.0309 39.9166C21.0309 39.7152 20.8882 39.5518 20.6993 39.5137V31.2652C20.8882 31.2271 21.0309 31.0638 21.0309 30.8651C21.0309 30.6636 20.8882 30.5003 20.6993 30.4622V29.6537C20.6993 29.3079 20.9805 29.0275 21.326 29.0275C21.6717 29.0275 21.9526 29.3079 21.9526 29.6537V30.4812C21.7937 30.5357 21.6788 30.6854 21.6788 30.8651C21.6788 31.042 21.7937 31.1917 21.9526 31.2489V39.5328C21.7937 39.5872 21.6788 39.7369 21.6788 39.9166C21.6788 40.0935 21.7937 40.2433 21.9526 40.3004V43.1833H20.6993ZM16.375 43.1833V40.3168C16.5645 40.2814 16.7079 40.1153 16.7079 39.9166C16.7079 39.7152 16.5645 39.5491 16.375 39.5137V31.2652C16.5645 31.2298 16.7079 31.0638 16.7079 30.8651C16.7079 30.6636 16.5645 30.4976 16.375 30.4622V29.6537C16.375 29.3079 16.6559 29.0275 17.0014 29.0275C17.3471 29.0275 17.6281 29.3079 17.6281 29.6537V30.4812C17.4699 30.5357 17.3558 30.6854 17.3558 30.8651C17.3558 31.042 17.4699 31.1917 17.6281 31.2462V39.5328C17.4699 39.5872 17.3558 39.7369 17.3558 39.9166C17.3558 40.0935 17.4699 40.2433 17.6281 40.2977V43.1833H16.375ZM12.6771 43.1833H12.0504V40.2977C12.2077 40.2405 12.321 40.0935 12.321 39.9166C12.321 39.7397 12.2077 39.5899 12.0504 39.5328V31.2462C12.2077 31.189 12.321 31.042 12.321 30.8651C12.321 30.6881 12.2077 30.5384 12.0504 30.4812V29.6537C12.0504 29.3079 12.3313 29.0275 12.6771 29.0275C13.0225 29.0275 13.3034 29.3079 13.3034 29.6537V30.4812C13.1461 30.5384 13.0329 30.6881 13.0329 30.8651C13.0329 31.042 13.1461 31.189 13.3034 31.2462V39.5328C13.1461 39.5899 13.0329 39.7397 13.0329 39.9166C13.0329 40.0935 13.1461 40.2405 13.3034 40.2977V43.1833H12.6771ZM7.7258 43.1833V40.2977C7.88397 40.2433 7.99803 40.0935 7.99803 39.9166C7.99803 39.7369 7.88397 39.5872 7.7258 39.5328V31.2462C7.88397 31.1917 7.99803 31.042 7.99803 30.8651C7.99803 30.6854 7.88397 30.5357 7.7258 30.4812V29.6537C7.7258 29.3079 8.00674 29.0275 8.35247 29.0275C8.69793 29.0275 8.97914 29.3079 8.97914 29.6537V30.4622C8.78939 30.4976 8.64592 30.6636 8.64592 30.8651C8.64592 31.0638 8.78939 31.2298 8.97914 31.2652V39.5137C8.78939 39.5491 8.64592 39.7152 8.64592 39.9166C8.64592 40.1153 8.78939 40.2814 8.97914 40.3168V43.1833H7.7258ZM3.4012 43.1833V40.3004C3.56018 40.2433 3.67506 40.0935 3.67506 39.9166C3.67506 39.7369 3.56018 39.5872 3.4012 39.5328V31.2489C3.56018 31.1917 3.67506 31.042 3.67506 30.8651C3.67506 30.6854 3.56018 30.5357 3.4012 30.4812V29.6537C3.4012 29.3079 3.68241 29.0275 4.02787 29.0275C4.37359 29.0275 4.65453 29.3079 4.65453 29.6537V30.4622C4.46588 30.5003 4.32297 30.6636 4.32297 30.8651C4.32297 31.0638 4.46588 31.2271 4.65453 31.2652V39.5137C4.46588 39.5518 4.32297 39.7152 4.32297 39.9166C4.32297 40.1153 4.46588 40.2787 4.65453 40.3168V43.1833H3.4012ZM1.24354 40.3249H2.58452V43.1833H1.24354V40.3249ZM1.24354 31.2734H2.58452V39.5083H1.24354V31.2734ZM5.47121 40.3249H6.90912V43.1833H5.47121V40.3249ZM5.47121 31.2734H6.90912V39.5083H5.47121V31.2734ZM9.79582 40.3249H11.2337V43.1833H9.79582V40.3249ZM9.79582 31.2734H11.2337V39.5083H9.79582V31.2734ZM14.1201 40.3249H15.5583V43.1833H14.1201V40.3249ZM14.1201 31.2734H15.5583V39.5083H14.1201V31.2734ZM18.4447 40.3249H19.8826V43.1833H18.4447V40.3249ZM18.4447 31.2734H19.8826V39.5083H18.4447V31.2734ZM1.24354 27.2227H24.1106V30.4567H22.7693V29.6537C22.7693 28.856 22.122 28.2108 21.326 28.2108C20.53 28.2108 19.8826 28.856 19.8826 29.6537V30.4567H18.4447V29.6537C18.4447 28.856 17.7974 28.2108 17.0014 28.2108C16.2057 28.2108 15.5583 28.856 15.5583 29.6537V30.4567H14.1201V29.6537C14.1201 28.856 13.4728 28.2108 12.6771 28.2108C11.8811 28.2108 11.2337 28.856 11.2337 29.6537V30.4567H9.79582V29.6537C9.79582 28.856 9.14846 28.2108 8.35247 28.2108C7.55648 28.2108 6.90912 28.856 6.90912 29.6537V30.4567H5.47121V29.6537C5.47121 28.856 4.82386 28.2108 4.02787 28.2108C3.23187 28.2108 2.58452 28.856 2.58452 29.6537V30.4567H1.24354V27.2227ZM1.24354 19.6684H24.1106V21.9823H23.6682V21.133C23.6682 20.5123 23.1643 20.0087 22.5453 20.0087C21.926 20.0087 21.4223 20.5123 21.4223 21.133V21.9823H20.8716V21.133C20.8716 20.5123 20.368 20.0087 19.7487 20.0087C19.1297 20.0087 18.6258 20.5123 18.6258 21.133V21.9823H18.0753V21.133C18.0753 20.5123 17.5714 20.0087 16.9524 20.0087C16.3331 20.0087 15.8294 20.5123 15.8294 21.133V21.9823H15.2787V21.133C15.2787 20.5123 14.7751 20.0087 14.1558 20.0087C13.5367 20.0087 13.0329 20.5123 13.0329 21.133V21.9823H12.6771H12.321V21.133C12.321 20.5123 11.8171 20.0087 11.198 20.0087C10.579 20.0087 10.0751 20.5123 10.0751 21.133V21.9823H9.52467V21.133C9.52467 20.5123 9.02077 20.0087 8.40173 20.0087C7.78241 20.0087 7.2788 20.5123 7.2788 21.133V21.9823H6.72808V21.133C6.72808 20.5123 6.22419 20.0087 5.60515 20.0087C4.9861 20.0087 4.48221 20.5123 4.48221 21.133V21.9823H3.93178V21.133C3.93178 20.5123 3.42788 20.0087 2.80884 20.0087C2.18952 20.0087 1.68591 20.5123 1.68591 21.133V21.9823H1.24354V19.6684ZM9.83556 18.8517H7.99803V13.9571C7.99803 13.4507 8.41018 13.0369 8.91679 13.0369C9.42341 13.0369 9.83556 13.4507 9.83556 13.9571V18.8517ZM12.6771 18.8517H11.7583V13.9571C11.7583 13.4507 12.1702 13.0369 12.6771 13.0369C13.1837 13.0369 13.5958 13.4507 13.5958 13.9571V18.8517H12.6771ZM17.3558 18.8517H15.5183V13.9571C15.5183 13.4507 15.9304 13.0369 16.4371 13.0369C16.9437 13.0369 17.3558 13.4507 17.3558 13.9571V18.8517ZM6.92627 11.8092H18.4278V18.8517H18.1725V13.9571C18.1725 12.9988 17.3942 12.2202 16.4371 12.2202C15.4799 12.2202 14.7016 12.9988 14.7016 13.9571V18.8517H14.4125V13.9571C14.4125 12.9988 13.6339 12.2202 12.6771 12.2202C11.7199 12.2202 10.9416 12.9988 10.9416 13.9571V18.8517H10.6522V13.9571C10.6522 12.9988 9.87394 12.2202 8.91679 12.2202C7.95965 12.2202 7.18135 12.9988 7.18135 13.9571V18.8517H6.92627V11.8092ZM6.92627 9.42721H18.4278V10.9925H6.92627V9.42721ZM12.6771 3.37016C14.7637 3.37016 18.2231 4.06162 18.4181 8.61053H12.6771H6.9358C7.13099 4.06162 10.5904 3.37016 12.6771 3.37016ZM12.5652 0.81668H12.7887L12.9849 2.55893C12.8829 2.55621 12.7824 2.55348 12.6771 2.55348C12.5714 2.55348 12.471 2.55621 12.3689 2.55893L12.5652 0.81668ZM22.8515 21.9823H22.239V21.133C22.239 20.9642 22.3765 20.8253 22.5453 20.8253C22.7141 20.8253 22.8515 20.9642 22.8515 21.133V21.9823ZM20.0549 21.9823H19.4424V21.133C19.4424 20.9642 19.5799 20.8253 19.7487 20.8253C19.9175 20.8253 20.0549 20.9642 20.0549 21.133V21.9823ZM17.2586 21.9823H16.6461V21.133C16.6461 20.9642 16.7836 20.8253 16.9524 20.8253C17.1212 20.8253 17.2586 20.9642 17.2586 21.133V21.9823ZM14.462 21.9823H13.8495V21.133C13.8495 20.9642 13.987 20.8253 14.1558 20.8253C14.3246 20.8253 14.462 20.9642 14.462 21.133V21.9823ZM11.5043 21.9823H10.8918V21.133C10.8918 20.9642 11.0293 20.8253 11.198 20.8253C11.3668 20.8253 11.5043 20.9642 11.5043 21.133V21.9823ZM8.70799 21.9823H8.09548V21.133C8.09548 20.9642 8.23268 20.8253 8.40173 20.8253C8.57051 20.8253 8.70799 20.9642 8.70799 21.133V21.9823ZM5.9114 21.9823H5.29889V21.133C5.29889 20.9642 5.43637 20.8253 5.60515 20.8253C5.77393 20.8253 5.9114 20.9642 5.9114 21.133V21.9823ZM2.09425 22.799H24.1106V23.2754H1.24354V22.799H2.09425ZM3.1151 21.9823H2.50259V21.133C2.50259 20.9642 2.64006 20.8253 2.80884 20.8253C2.97762 20.8253 3.1151 20.9642 3.1151 21.133V21.9823ZM12.6771 26.406H1.24354V24.0921H24.1106V26.406H12.6771ZM24.9455 31.2734C25.1709 31.2734 25.3538 31.0883 25.3538 30.8651C25.3538 30.6391 25.1709 30.4567 24.9455 30.4567H24.9273V26.8143V23.6837V22.3906V19.26C24.9273 19.0341 24.7443 18.8517 24.5189 18.8517H19.2445V11.8092H19.4316C19.657 11.8092 19.8399 11.6241 19.8399 11.4008C19.8399 11.1749 19.657 10.9925 19.4316 10.9925H19.2445V9.01887C19.2445 7.20584 18.6867 3.15783 13.8131 2.61338L13.5591 0.362056C13.5359 0.155164 13.3612 -2.08236e-07 13.1535 -2.08236e-07H12.6771H12.2007C11.9927 -2.08236e-07 11.8179 0.155164 11.7948 0.362056L11.5408 2.61338C6.6671 3.15783 6.10959 7.20584 6.10959 9.01887V10.9925H5.9223C5.6969 10.9925 5.51396 11.1749 5.51396 11.4008C5.51396 11.6241 5.6969 11.8092 5.9223 11.8092H6.10959V18.8517H0.835196C0.60952 18.8517 0.426856 19.0341 0.426856 19.26V22.3906V23.6837V26.8143V30.4567H0.40834C0.182936 30.4567 0 30.6391 0 30.8651C0 31.0883 0.182936 31.2734 0.40834 31.2734H0.426856V39.5083H0.40834C0.182936 39.5083 0 39.6907 0 39.9166C0 40.1398 0.182936 40.3249 0.40834 40.3249H0.426856V43.5917C0.426856 43.8149 0.60952 44 0.835196 44H2.99286H5.06287H7.31746H9.38748H11.6421H12.6771H13.7118H15.9666H18.0364H20.291H22.361H24.5189C24.7443 44 24.9273 43.8149 24.9273 43.5917V40.3249H24.9455C25.1709 40.3249 25.3538 40.1398 25.3538 39.9166C25.3538 39.6907 25.1709 39.5083 24.9455 39.5083H24.9273V31.2734H24.9455Z" fill="#858585"/>
</svg>
