<svg width="70" height="44" viewBox="0 0 70 44" fill="none" xmlns="http://www.w3.org/2000/svg">
<path d="M8.10463 42.3873C6.1142 42.5223 4.07758 42.2187 2.09272 42.458C1.6505 42.5113 0.226034 42.3884 0.318779 43.1347C0.399252 43.782 2.7756 43.6525 3.29652 43.6525C6.51188 43.6528 9.70712 43.6139 12.9127 43.652C26.5246 43.814 40.1643 43.6525 53.7817 43.6525C55.9802 43.6525 58.1634 43.474 60.3612 43.5279C62.0363 43.5689 63.7417 43.7802 65.4224 43.6007C66.4805 43.4877 68.9157 44.1458 68.9652 42.6403C66.8377 42.4837 64.7629 42.4834 62.6387 42.4267C62.1007 42.4123 60.8396 42.7204 60.4013 42.4666C59.5083 41.9496 60.4021 40.2484 59.8515 39.5534C59.3994 38.9826 58.3041 39.6498 57.7805 39.0426C57.4477 38.6568 57.6399 37.8055 57.6346 37.3261C57.617 35.7141 57.2925 33.7147 57.5082 32.1403C57.633 31.2297 58.6284 31.5371 59.2155 31.3029C59.959 31.0062 59.8533 30.0967 59.6529 29.4813C58.0193 24.4645 55.9824 19.4795 54.1076 14.5508C53.3045 12.4398 51.8973 9.96882 51.6527 7.71824C51.4723 6.05793 52.258 4.63409 52.9181 3.16319C53.2246 2.48044 53.8301 1.55589 53.5997 0.77293C53.3813 0.0299508 52.5114 0.303632 52.0103 0.539229C50.6945 1.15796 48.4693 2.76488 48.4674 0.37955H47.5817C47.5817 0.841255 47.6861 1.46694 47.4517 1.88411C47.0913 2.52548 44.9436 2.97821 44.334 2.54168C43.4583 1.91473 44.7224 0.431047 43.1532 0.37955C43.081 1.06281 43.3725 2.44995 42.5164 2.70731C42.1169 2.82726 41.6656 2.65227 41.2553 2.67024C40.8155 2.68959 40.2859 2.90014 39.9037 2.58065C39.3405 2.10984 40.0024 0.588072 39.2145 0.427253C38.2472 0.229615 38.7763 2.0381 38.3953 2.49031C37.982 2.98086 36.4067 2.85395 35.8169 2.76437C34.6911 2.59343 35.6622 0.19697 34.5624 0.427253C33.8605 0.574027 34.3133 1.90334 34.0205 2.38339C33.7239 2.86977 32.1812 2.78955 31.6391 2.7793C30.1263 2.75083 31.0497 0.20975 30.0206 0.427253C29.0656 0.628941 30.1607 2.48297 28.9795 2.73843C28.4901 2.84421 26.7249 2.87205 26.4011 2.49018C26.0308 2.0534 26.526 0.228982 25.5788 0.427253C24.7573 0.59908 25.5197 2.10452 24.8928 2.54168C24.2759 2.97176 22.1372 2.53168 21.7733 1.88411C21.5389 1.46694 21.6433 0.841255 21.6433 0.37955C20.3582 0.384991 21.1841 1.70191 20.2514 1.803C19.3249 1.90347 17.9076 0.850999 17.0882 0.48495C16.6326 0.281491 15.9734 0.105615 15.6612 0.643111C15.2719 1.31359 15.9561 2.41794 16.2025 3.03666C16.882 4.74316 17.6329 6.33212 17.3132 8.22436C16.9633 10.2948 15.7676 12.6001 14.9864 14.5508C13.6331 17.9303 12.4442 21.4778 11.3347 24.9262C10.7864 26.6299 9.47658 28.5531 9.44723 30.367C9.41838 32.147 11.9806 30.6396 11.9392 32.2649C11.8971 33.9146 11.7279 35.5394 11.774 37.1996C11.7884 37.7168 12.0912 38.6157 11.7283 39.0659C11.1717 39.7565 10.0339 38.9717 9.43318 39.4419C8.76992 39.9611 9.5606 41.5625 9.15204 42.2467C8.95415 42.5779 8.31277 42.7036 8.10463 42.3873Z" fill="#858585"/>
<path d="M17.3414 2.02441L17.2148 2.15094L18.3536 4.93459C19.9548 4.63724 21.7017 4.79755 23.2882 5.06112C23.1998 4.61902 23.6119 4.77883 23.5413 5.06112H25.8188H25.9454H27.0841L26.9576 4.80806H27.0841L31.0065 4.81249L32.9045 4.89992L34.1698 3.92235H24.9331L21.5168 3.66929L17.3414 2.02441Z" fill="#FEFEFE"/>
<path d="M51.7574 2.02441C46.8725 4.80451 40.6614 3.92235 35.3086 3.92235L36.9535 5.06112L39.231 4.80806H45.0513L44.9248 5.06112H45.5575L45.684 4.80806L45.8105 5.06112C46.4118 4.72885 47.3561 4.76352 47.9615 5.06112L50.1125 4.80806L49.986 5.06112C50.9437 4.90245 52.0866 2.97604 51.7574 2.02441Z" fill="#FEFEFE"/>
<path d="M33.79 7.59173C34.0927 7.68119 34.358 7.71624 34.676 7.71775C37.188 7.73003 34.4391 4.13634 33.8481 6.45347C33.7558 6.81598 33.8332 7.21961 33.79 7.59173Z" fill="#FEFEFE"/>
<path d="M18.6064 7.59154C20.1328 8.04274 22.1941 7.59154 23.7941 7.59154H27.337C28.0116 7.59154 28.6868 7.58483 29.3614 7.59204C30.1236 7.60014 31.1294 7.89508 31.8738 7.67745C32.2961 7.55395 32.4195 6.86083 32.0688 6.58285C31.4447 6.08837 29.7206 6.57563 28.9818 6.57917C26.4547 6.59145 23.9164 6.63927 21.3901 6.5774C20.0377 6.54438 18.7797 5.92692 18.6064 7.59154Z" fill="#FFDD2C"/>
<path d="M37.2826 6.59417C36.0785 7.41863 38.3089 7.72837 38.7134 7.70611C41.5797 7.54858 44.4542 7.59046 47.3287 7.5916C47.9849 7.59185 49.9036 8.09594 50.3618 7.5153C51.144 6.52432 49.5084 6.42753 48.9736 6.46409C46.1584 6.65692 43.3215 6.57936 40.4961 6.57936C39.7357 6.57936 37.9181 6.15929 37.2826 6.59417Z" fill="#FFDD2C"/>
<path d="M17.8477 10.6285C19.3089 11.0594 21.4821 10.6285 23.0354 10.6285H26.5782C27.8103 10.6285 29.4329 11.0034 30.6202 10.7128C31.1334 10.5873 31.5396 9.62128 31.0573 9.24156C30.5174 8.8163 28.5251 9.23663 27.8435 9.23663C25.6567 9.23663 23.4485 9.32659 21.2639 9.23169C20.5532 9.20069 19.1438 8.89601 18.5088 9.2451C18.0628 9.49019 17.9518 10.1784 17.8477 10.6285Z" fill="#FFDD2C"/>
<path d="M32.9691 9.23999C32.3965 9.6488 32.5166 10.915 33.4028 10.7122C34.0102 10.5732 33.9506 9.60173 34.6736 9.67499C35.355 9.74408 35.5036 11.2531 36.4017 10.6246C36.821 10.3312 36.5747 9.37967 36.1585 9.18621C35.6261 8.93884 33.4512 8.8957 32.9691 9.23999Z" fill="#FEFEFE"/>
<path d="M51.2505 10.6285C51.1084 10.192 51.0001 9.50178 50.5827 9.24025C49.9112 8.81941 48.6959 9.1995 47.9608 9.23177C45.7764 9.32742 43.5679 9.2367 41.3812 9.2367C40.6738 9.2367 38.7111 8.80916 38.1678 9.24025C37.6868 9.62186 38.0892 10.5869 38.6046 10.7129C39.7326 10.9889 41.4553 10.6285 42.6465 10.6285H46.1893C47.7965 10.6285 49.6924 10.9952 51.2505 10.6285Z" fill="#FFDD2C"/>
<path d="M16.3291 14.551C17.9311 15.0245 20.2073 14.551 21.8964 14.551H25.6923C26.8444 14.551 29.0539 15.0739 30.0855 14.6011C30.5606 14.3833 30.9799 12.6323 30.5487 12.277C29.9476 11.7816 28.1945 12.2723 27.4637 12.2735H20.2515C19.4418 12.2735 18.2431 11.9032 17.4847 12.2232C16.8109 12.5075 16.5445 13.9145 16.3291 14.551Z" fill="#FFDD2C"/>
<path d="M32.4635 12.277C31.2587 13.1319 31.9136 15.1108 33.5187 14.6372C34.0762 14.4727 33.9544 13.5204 34.6756 13.6123C35.4401 13.7098 35.91 15.5322 37.1299 14.5474C37.553 14.2059 37.1583 12.5581 36.7622 12.277C36.5056 12.0949 36.1108 12.1474 35.8149 12.1469C35.0137 12.1455 33.1203 11.8108 32.4635 12.277Z" fill="#FEFEFE"/>
<path d="M52.7695 14.5506C52.5261 13.9195 52.2754 12.5164 51.6037 12.2229C50.8599 11.8979 49.6451 12.2731 48.8471 12.2731H41.7615C41.0361 12.272 39.2802 11.7763 38.6759 12.277C38.2466 12.6328 38.63 14.397 39.1332 14.5958C40.1701 15.0054 42.3783 14.5506 43.5329 14.5506H47.3287C48.9956 14.5506 51.1803 15.0204 52.7695 14.5506Z" fill="#FFDD2C"/>
<path d="M14.9375 18.3469L18.4822 18.3719L24.9333 18.3474L29.7414 18.3469C29.7314 17.7903 30.3247 16.6219 29.7917 16.1994C29.1948 15.7264 27.3234 16.1959 26.5782 16.1959H19.113C18.261 16.1959 16.8715 15.8259 16.0895 16.1456C15.3726 16.4389 15.1812 17.6944 14.9375 18.3469Z" fill="#FFDD2C"/>
<path d="M31.8005 16.201C31.3018 16.5 31.0782 17.96 31.4785 18.3969C31.8229 18.773 33.0916 18.6794 33.5178 18.4867C34.1387 18.2058 33.7652 16.9203 34.6748 17.0138C35.4062 17.089 35.1392 17.8652 35.4381 18.2816C35.7487 18.7146 37.3417 18.7965 37.7447 18.4697C38.2263 18.0791 37.8664 16.36 37.3142 16.1505C36.2084 15.7309 34.2157 16.1082 33.0305 16.1692C32.6423 16.1892 32.1564 15.9877 31.8005 16.201Z" fill="#FEFEFE"/>
<path d="M39.4837 18.3469L43.6591 18.3518L49.7325 18.3469H54.1611C53.9832 17.732 53.7697 16.4285 53.1218 16.1457C52.3913 15.8269 51.0402 16.1959 50.2387 16.1959H42.6469C41.8672 16.1959 40.0512 15.7275 39.4086 16.1994C38.8765 16.5903 39.4653 17.8186 39.4837 18.3469Z" fill="#FFDD2C"/>
<path d="M14.5931 20.2484C14.1305 20.5382 13.4991 21.9927 14.1922 22.2951C14.9714 22.6351 16.0918 22.2302 16.9079 22.2619C19.6727 22.3692 22.535 22.3212 25.3129 22.3892C26.1119 22.4086 28.0703 22.6304 28.6908 22.083C29.0699 21.7484 29.401 20.4827 28.8154 20.1946C28.0344 19.8104 26.463 20.1229 25.602 20.1359C23.0615 20.1743 20.5406 20.1778 17.999 20.1422C17.1197 20.13 15.3551 19.771 14.5931 20.2484ZM41.5086 22.1428C42.593 22.7331 44.3923 22.2801 45.5575 22.1533C47.7285 21.9172 50.5243 21.887 52.6432 22.3431C53.1082 22.4433 55.4223 22.5302 55.3741 21.8862C55.3384 21.4092 54.8857 20.3247 54.4146 20.1605C53.5296 19.8521 52.2964 20.2449 51.3779 20.2449C48.8506 20.2449 46.3123 20.3151 43.7861 20.2449C42.9641 20.2221 40.8522 19.6652 40.1589 20.2097C39.3794 20.8221 40.9038 23.296 41.5086 22.1428Z" fill="#FFDD2C"/>
<path d="M30.2471 24.5469C31.1065 24.3496 32.7715 23.5306 33.3701 22.8732C33.8413 22.3559 33.622 21.0313 34.5536 20.9365C35.5705 20.8331 35.3864 22.239 35.7641 22.7587C36.2814 23.4699 38.0339 24.2078 38.8511 24.5469C38.8509 23.6296 38.7839 21.2132 38.1534 20.5382C37.7702 20.128 37.0794 20.2449 36.5735 20.2449H32.6511C32.1382 20.2449 31.4553 20.1317 31.0612 20.5382C30.4088 21.211 30.3215 23.6039 30.2471 24.5469Z" fill="#FEFEFE"/>
<path d="M15.4431 26.065C15.6182 26.3873 16.022 26.3795 16.2023 26.065C18.3701 26.6583 20.9234 26.1413 23.1614 26.1934C23.7825 26.2078 24.9877 26.5824 25.4389 26.065C25.901 26.3676 27.4702 26.4696 27.9293 26.1102C28.2674 25.8455 28.5824 24.5845 28.2677 24.2433C27.6877 23.6151 25.343 24.0727 24.5531 24.1457C22.0572 24.3763 19.3398 24.2718 16.8349 24.1621C15.8092 24.1172 14.2875 23.7103 13.3059 24.1168C12.8515 24.3051 12.0106 25.8023 12.5751 26.1594C13.2081 26.5597 14.78 26.266 15.4431 26.065Z" fill="#FFDD2C"/>
<path d="M40.9206 24.1708C40.3229 24.5953 40.9698 26.1567 41.6008 26.2686C45.1622 26.9004 49.018 25.7695 52.6427 26.2454C53.3937 26.3441 56.1803 26.7153 56.7123 26.0978C57.2882 25.4294 56.0917 24.0882 55.4262 24.0463C51.9251 23.8261 48.2801 24.1046 44.7622 24.0568C43.8558 24.0444 41.6576 23.6472 40.9206 24.1708Z" fill="#FFDD2C"/>
<path d="M34.1699 24.5234C32.925 24.9455 31.5775 25.8136 30.6276 26.7092C30.3575 26.9637 29.6041 27.5832 29.958 28.0133C30.3166 28.4489 31.6378 28.2161 32.1455 28.2161H36.9536C37.5636 28.2161 38.5199 28.3955 39.0838 28.1398C39.8533 27.7909 38.7757 26.8639 38.4718 26.583C37.5765 25.7554 35.4798 24.0791 34.1699 24.5234Z" fill="#FEFEFE"/>
<path d="M44.4188 27.9629C43.7074 28.5017 42.0132 27.5656 41.5426 28.3827C40.3692 30.4201 43.6925 30.1136 44.6718 30.1139C47.1585 30.1146 49.8011 29.7745 52.2636 30.0089C53.5707 30.1332 54.8716 30.1139 56.186 30.1139C56.7007 30.1139 57.4589 30.251 57.938 30.0376C58.529 29.7742 58.0404 28.7309 57.7389 28.3827C57.1634 27.7182 55.2249 28.1156 54.4146 28.0799C51.3505 27.9452 47.3554 29.0464 44.4188 27.9629Z" fill="#FFDD2C"/>
<path d="M11.6764 28.2194C11.2926 28.4521 10.6229 29.7405 11.1968 30.0375C12.1035 30.5067 13.9473 30.0589 14.9373 30.0257C17.8698 29.9276 20.8481 30.1138 23.7943 30.1138C24.6241 30.1138 27.018 30.5211 27.6209 29.8934C28.0161 29.4819 27.8005 28.2099 27.2031 28.1081C26.1502 27.9286 24.986 28.2159 23.9208 28.2159H15.6964C14.6213 28.2141 12.6409 27.6342 11.6764 28.2194Z" fill="#FFDD2C"/>
<path d="M29.4881 34.6689C30.1737 34.2954 30.6973 33.696 31.386 33.3167C33.3945 32.2106 35.5254 32.1589 37.5859 33.1366C38.4265 33.5356 39.0322 34.2835 39.8635 34.6689C39.8635 33.6486 39.7636 32.6461 39.7388 31.6322C39.7274 31.1689 39.845 30.5284 39.4436 30.1902C38.6872 29.553 36.2696 29.9873 35.3084 29.9873H31.5125C31.0404 29.9873 30.3101 29.8559 29.8914 30.1174C29.4691 30.3811 29.6126 30.9619 29.614 31.3791C29.6177 32.4834 29.1635 33.571 29.4881 34.6689Z" fill="#FEFEFE"/>
<path d="M13.1657 39.0976C14.952 39.0608 16.689 38.9111 18.4799 39.076C18.9021 39.115 20.0824 39.265 20.3743 38.8948C20.652 38.5426 20.6401 36.6225 20.3743 36.2587C20.0969 35.8791 19.3877 35.9325 19.4347 35.3019C19.4768 34.7377 20.1198 34.7677 20.3743 34.3765C20.6348 33.9759 20.4106 33.4458 20.7072 33.0425C21.092 32.5194 21.8442 32.406 22.2758 31.8855C20.8037 31.4503 18.482 31.6999 16.9647 31.9088C16.5011 31.9727 15.7927 31.7066 15.4432 32.012C14.8811 31.6258 13.4759 31.6657 13.2134 32.3973C12.8134 33.511 13.2361 35.2711 13.2873 36.4405C13.3261 37.3304 13.0814 38.2186 13.1657 39.0976Z" fill="#FEFEFE"/>
<path d="M46.9492 32.0117C47.4791 32.3358 48.3852 32.6053 48.698 33.1642C48.9078 33.5389 48.7452 34.0196 48.9772 34.3762C49.2317 34.7672 50.0377 34.7899 49.8908 35.4231C49.7787 35.9067 49.2274 35.9106 48.9772 36.2579C48.7085 36.6313 48.7296 38.3964 48.924 38.8041C49.1502 39.2786 50.193 39.1152 50.6186 39.0861C52.3444 38.9678 54.7005 39.4428 56.3124 38.9708C56.0238 37.4162 56.1859 35.7404 56.1859 34.1627C56.1859 33.6181 56.4107 32.6637 56.1407 32.1819C55.8406 31.6464 54.5792 31.7784 54.0349 31.7669C52.7126 31.7388 51.388 32.0165 50.0588 31.8914C49.1491 31.8057 47.7507 31.4642 46.9492 32.0117Z" fill="#FEFEFE"/>
<path d="M27.2098 32.3265C25.8864 32.4043 24.4188 33.1014 23.1615 33.5094C22.8242 33.6189 21.9339 33.7635 22.0127 34.2776C22.0852 34.7502 22.8281 34.6698 23.1615 34.6688C24.3916 34.6654 26.2888 34.9483 27.456 34.6287C28.3011 34.3974 28.2499 32.2652 27.2098 32.3265Z" fill="#FEFEFE"/>
<path d="M41.5483 32.3997C41.0305 32.7149 41.0937 34.3483 41.6533 34.5925C42.6542 35.029 44.7072 34.6328 45.8213 34.6624C46.2099 34.6727 46.8201 34.7729 47.1592 34.5392C47.738 34.1405 46.8906 33.7474 46.5691 33.6424C45.3944 33.2587 44.2092 32.8985 43.0264 32.5403C42.6323 32.421 41.9367 32.1632 41.5483 32.3997Z" fill="#FEFEFE"/>
<path d="M33.7903 33.9673C31.1838 34.3234 29.1957 36.8736 29.4572 39.4772C29.5196 40.0988 28.9311 42.2485 29.902 42.329C30.9004 42.4117 30.4396 39.829 30.4688 39.2241C30.5898 36.7243 32.765 34.3378 35.4352 35.0505C37.7107 35.658 38.5234 37.4404 38.6839 39.6037C38.7313 40.2424 38.1165 42.4426 39.3021 42.342C39.8182 42.2983 39.8557 41.7875 39.8631 41.3751C39.8822 40.3355 39.9541 39.0957 39.7353 38.0853C39.1337 35.3051 36.5836 33.5858 33.7903 33.9673Z" fill="#FEFEFE"/>
<path d="M22.0996 36.1907C21.6307 36.5621 22.0006 37.5929 22.0006 38.0851C22.0006 38.9806 21.3998 41.4883 22.1 42.1672C22.4537 42.5101 23.1084 42.3475 23.548 42.3373C23.9422 42.3283 24.5406 42.4644 24.8572 42.1634C25.3606 41.6849 24.9646 40.4536 24.9384 39.8565C24.9056 39.106 25.4407 36.6771 24.8396 36.1907C24.4949 35.9119 23.7032 36.0607 23.2886 36.0607C22.9478 36.0607 22.3872 35.963 22.0996 36.1907ZM26.4518 42.2606L27.5906 42.3871C28.5993 41.3993 27.8023 39.3269 27.8568 38.0851C27.8798 37.5628 28.14 36.8542 27.8939 36.3539C27.7198 36.0002 27.0605 35.982 26.7451 36.137C26.24 36.3853 26.5053 37.2853 26.5486 37.7168C26.6993 39.2216 26.4853 40.7553 26.4518 42.2606Z" fill="#FEFEFE"/>
<path d="M42.2675 42.1341C42.4338 42.342 42.7932 42.4843 43.0267 42.1341C43.2538 41.7935 42.9769 40.6699 42.9001 40.3627C42.7081 39.5946 42.8529 38.2741 43.0267 37.579C43.0791 37.3694 43.1407 36.3582 43.0267 36.1872C42.8685 35.95 41.4134 35.95 41.2553 36.1872C41.1413 36.3582 41.2029 37.3694 41.2553 37.579C41.4144 38.2155 41.5592 39.4002 41.3818 40.1096C41.2847 40.4978 41.0216 41.7057 41.2553 42.1341C41.556 42.6854 42.2261 42.3412 42.2675 42.1341Z" fill="#FEFEFE"/>
<path d="M44.6212 36.191C44.1437 36.5692 44.5178 37.7073 44.54 38.2119C44.5778 39.0785 44.0081 41.5513 44.6163 42.1781C44.9131 42.4839 45.6233 42.3674 46.0096 42.3637C46.3777 42.3603 46.9629 42.4536 47.2526 42.1739C47.6512 41.7894 47.4551 40.741 47.4551 40.2364C47.4551 39.2043 47.3754 38.2283 47.4438 37.1997C47.4627 36.9146 47.5295 36.3918 47.2523 36.2023C46.9755 36.0132 46.3916 36.1725 46.0633 36.1333C45.6634 36.0855 44.9718 35.9133 44.6212 36.191Z" fill="#FEFEFE"/>
<path d="M33.9167 42.1343C34.4918 42.3445 36.5166 42.7014 37.0378 42.2116C37.3355 41.9317 37.2099 41.238 37.2065 40.869C37.1954 39.6844 37.4155 38.2782 36.5633 37.3262C35.0189 35.6011 32.1568 36.5097 31.9027 38.8445C31.8254 39.5554 31.6075 41.519 31.9836 42.1203C32.2366 42.5248 33.715 42.5188 33.9167 42.1343Z" fill="#FEFEFE"/>
<path d="M12.1535 42.3872L12.027 42.1341C13.6077 42.5104 15.467 42.2608 17.0881 42.2606C17.986 42.2606 19.0253 42.4781 19.9054 42.3357C20.5461 42.232 20.822 40.864 20.2111 40.5655C19.6111 40.2723 18.3829 40.5688 17.7189 40.6058C16.0713 40.6975 14.4303 40.4898 12.7861 40.4892C12.2292 40.489 11.3109 40.315 10.8019 40.5655C10.3925 40.7672 10.3971 41.8821 10.7118 42.1683C11.0418 42.4684 11.7396 42.3624 12.1535 42.3872Z" fill="#FEFEFE"/>
<path d="M50.8713 42.3875L50.7448 42.1345H50.8713C52.5284 42.5827 55.405 42.5311 57.0712 42.1345C57.6705 43.237 59.7582 41.6376 58.6669 40.6477C58.2536 40.2728 57.0917 40.4896 56.5651 40.4896C54.7994 40.4896 53.0299 40.7155 51.2509 40.6126C50.658 40.5783 49.6646 40.2382 49.1139 40.5809C48.7035 40.8365 48.6958 42.0098 49.1104 42.261C49.5435 42.5233 50.3707 42.3227 50.8713 42.3875Z" fill="#FEFEFE"/>
</svg>
