<svg width="49" height="44" viewBox="0 0 49 44" fill="none" xmlns="http://www.w3.org/2000/svg">
<path d="M7.64746 0V1.3619H7.75222L7.64746 0Z" fill="#858585"/>
<path d="M7.75211 0L7.64444 1.23515L6.43151 2.72381L6.68218 4.29524L6.70449 6.18095H4.08544V10.7905H3.35211V11.5238H4.08544V14.5619H3.35211V15.2952H4.08544V18.1238H3.35211V18.9619H4.08544V24.0952H0.104492V44H48.0854V23.1524H48.6093V22.419H47.9807L47.9852 19.381L48.1488 17.9143L47.0378 15.819H46.3045C46.2998 17.1557 44.8874 17.4653 45.3616 18.9619C43.7616 17.5025 40.5499 17.1469 39.3902 19.381H39.2854L39.4187 17.8096L38.3426 15.819H37.6093C37.6088 16.316 37.6467 16.6914 37.1902 16.9714V15.4H36.4569V11.6286H35.7235V15.4C34.1201 15.3943 34.1521 13.9126 34.1521 12.6762C34.1521 12.2033 34.0249 11.5056 34.3949 11.1382C34.9664 10.5707 35.7836 11.5158 36.4569 11.5238C36.4569 8.42778 35.6093 5.04491 31.9521 4.50476C32.2227 3.04658 30.9055 2.69364 30.9045 1.3619H30.1712C30.1702 2.62376 28.5925 3.18172 29.2283 4.50476C25.641 5.03454 24.7235 8.46623 24.7235 11.5238H25.2473V11.6286H24.7235V15.4H23.6759V17.0762C23.1677 16.7269 23.1525 16.4077 23.1521 15.819H22.4188L21.3706 17.8096L21.4759 19.381H21.3712C20.1172 16.9652 16.7072 17.5758 15.1902 19.2762C15.8339 17.6049 14.3533 17.3153 14.3521 15.819H13.6188L12.4906 18.019L12.6714 19.381L12.6759 22.419H12.1521V23.1524H12.6759V24.0952H11.9426V6.18095H9.63783L9.65983 4.19048L9.86788 2.72381L8.59312 1.22958L8.48544 0H7.75211Z" fill="#858585"/>
<path d="M8.48535 0V1.3619H8.59011L8.48535 0Z" fill="#858585"/>
<path d="M30.1718 1.25732V1.36209H30.9051L30.1718 1.25732Z" fill="#858585"/>
<path d="M30.0667 1.36182V2.30467H30.1715L30.0667 1.36182ZM30.9048 1.36182V2.30467H31.0096L30.9048 1.36182Z" fill="#858585"/>
<path d="M7.96191 2.09521V2.19998H8.2762L7.96191 2.09521Z" fill="#858585"/>
<path d="M7.85882 2.27839C6.6 2.75045 7.5964 4.06647 8.68123 3.60363C9.54901 3.2333 8.61779 1.99377 7.85882 2.27839Z" fill="white"/>
<path d="M6.28613 2.93311V3.24739H6.39089L6.28613 2.93311Z" fill="#858585"/>
<path d="M30.3809 3.14307V3.24783H30.6951L30.3809 3.14307Z" fill="#858585"/>
<path d="M30.2071 3.35537C29.4557 3.82439 30.382 4.58957 30.9753 4.18749C31.567 3.78657 30.7407 3.02223 30.2071 3.35537Z" fill="white"/>
<path d="M7.64746 3.6665V3.77127H8.69508L7.64746 3.6665Z" fill="#858585"/>
<path d="M28.9141 3.6665V4.08555H29.0188L28.9141 3.6665Z" fill="#858585"/>
<path d="M32.0576 3.6665V3.98079H32.1624L32.0576 3.6665Z" fill="#858585"/>
<path d="M6.59961 4.08594V6.18118H6.70437L6.59961 4.08594Z" fill="#858585"/>
<path d="M7.43848 6.18115H7.54324V4.60972H8.80038C7.43237 4.03573 7.43848 5.18895 7.43848 6.18115Z" fill="#858585"/>
<path d="M7.54297 4.60938V6.1808H8.80011V4.60938H7.54297Z" fill="white"/>
<path d="M25.667 9.21926C26.5188 8.98627 27.3077 8.60399 28.1813 8.4282C30.8241 7.89653 33.1752 8.41249 35.6194 9.42878C35.3077 7.82236 34.5161 6.45469 33.0003 5.69685C30.1023 4.24778 26.121 5.85011 25.667 9.21926Z" fill="#FFDD2C"/>
<path d="M3.98047 6.18115V10.6859H4.08523C4.08523 9.40583 4.47395 7.35721 3.98047 6.18115ZM11.9424 6.18115V23.9907H12.0471C12.1213 19.8407 12.0471 15.6774 12.0471 11.524C12.0471 10.0259 12.5192 7.55573 11.9424 6.18115Z" fill="#858585"/>
<path d="M4.81934 7.01904V10.7905H4.9241C4.9241 9.70231 5.23958 8.02057 4.81934 7.01904Z" fill="#858585"/>
<path d="M4.92383 7.01904V10.6857H11.1048V7.01904H4.92383Z" fill="#FFDD2C"/>
<path d="M11.1045 7.01904V10.7905H11.2093C11.2093 9.70231 11.5247 8.02057 11.1045 7.01904Z" fill="#858585"/>
<path d="M29.6475 8.17139V8.27615H30.276L29.6475 8.17139Z" fill="#858585"/>
<path d="M30.2764 8.17139V8.27615H30.6954L30.2764 8.17139Z" fill="#858585"/>
<path d="M30.6953 8.17139V8.27615H31.3239L30.6953 8.17139Z" fill="#858585"/>
<path d="M5.65723 8.48584V9.84774H5.76199L5.65723 8.48584Z" fill="#858585"/>
<path d="M5.76172 8.48584V9.84774H6.49505V8.48584H5.76172Z" fill="#858585"/>
<path d="M6.49512 8.48584V9.84774H6.59988L6.49512 8.48584Z" fill="#858585"/>
<path d="M7.43848 8.48584V9.84774H7.54324L7.43848 8.48584Z" fill="#858585"/>
<path d="M7.54297 8.48584V9.84774H8.2763V8.48584H7.54297Z" fill="#858585"/>
<path d="M8.27637 8.48584V9.84774H8.38113L8.27637 8.48584Z" fill="#858585"/>
<path d="M9.21875 8.48584V9.84774H10.0568V8.48584H9.21875Z" fill="#858585"/>
<path d="M29.6476 9.00977V9.11453H30.2761L29.6476 9.00977Z" fill="#858585"/>
<path d="M30.2764 9.00977V9.11453H30.6954L30.2764 9.00977Z" fill="#858585"/>
<path d="M30.6953 9.00977V9.11453H31.2191L30.6953 9.00977Z" fill="#858585"/>
<path d="M25.5615 9.11426V9.32378H25.771L25.5615 9.11426Z" fill="#858585"/>
<path d="M26.1904 9.95252V10.0573C26.7565 10.1156 27.0948 10.3518 27.4476 10.7906L28.9781 10.2351L30.3809 9.21919C29.1589 8.70638 27.3686 9.6309 26.1904 9.95252Z" fill="white"/>
<path d="M30.3809 9.11426V9.21902H30.6951L30.3809 9.11426Z" fill="#858585"/>
<path d="M30.6953 9.11426V9.21902L33.5239 10.7904L34.6763 10.0571C33.6931 9.26354 31.9165 9.11761 30.6953 9.11426Z" fill="white"/>
<path d="M31.5332 9.11426V9.21902H31.8475L31.5332 9.11426Z" fill="#858585"/>
<path d="M24.7236 9.21924V9.53352H24.8284L24.7236 9.21924Z" fill="#858585"/>
<path d="M35.6194 9.32373L35.5146 9.53325H35.7242L35.6194 9.32373Z" fill="#858585"/>
<path d="M36.457 9.32373V9.63802H36.5618L36.457 9.32373Z" fill="#858585"/>
<path d="M36.4575 9.63818V13.9334C36.4575 14.6569 36.2847 15.3703 37.1908 15.4001V15.2953H36.5623V11.5239L36.4575 9.63818Z" fill="#858585"/>
<path d="M5.76172 9.84766V9.95242H6.49505L5.76172 9.84766Z" fill="#858585"/>
<path d="M7.54297 9.84766V9.95242H8.2763L7.54297 9.84766ZM9.21916 9.84766V9.95242H10.0573L9.21916 9.84766Z" fill="#858585"/>
<path d="M29.962 12.8858H31.2192C31.2192 12.2023 31.3975 11.2242 31.1414 10.5831C30.9911 10.2068 30.5648 9.95231 30.2049 10.2403C29.6759 10.6635 29.962 12.266 29.962 12.8858Z" fill="white"/>
<path d="M24.6191 10.1621V10.6859H24.7239L24.6191 10.1621Z" fill="#858585"/>
<path d="M3.35254 10.6858V10.7906H4.08587L3.35254 10.6858ZM4.92397 10.6858V10.7906H11.1049L9.11444 10.6858H4.92397ZM24.6192 10.6858V11.2096H24.724L24.6192 10.6858Z" fill="#858585"/>
<path d="M29.8572 10.6855V11.1046H29.962L29.8572 10.6855Z" fill="#858585"/>
<path d="M25.5615 15.2955C27.0425 15.2779 27.2934 12.3868 26.6952 11.3259C25.9981 10.0899 25.5615 11.8103 25.5615 12.3621V13.5145V15.2955Z" fill="white"/>
<path d="M35.619 15.2952V13.5143V12.2571C35.6186 11.64 35.0872 10.2439 34.3348 11.2335C34.048 11.6109 34.1523 12.2324 34.1523 12.6762C34.1523 13.8493 34.0936 15.2898 35.619 15.2952Z" fill="white"/>
<path d="M28.8096 11.105V11.2097L29.0191 13.2002H29.1239V11.105H28.8096Z" fill="#858585"/>
<path d="M29.8568 11.105C29.8568 11.5867 29.6156 12.8717 30.1711 12.9907V12.8859L29.8568 11.105Z" fill="#858585"/>
<path d="M31.2188 11.105V12.9907H31.3235L31.2188 11.105Z" fill="#858585"/>
<path d="M24.6191 11.2095V15.3999H24.7239V11.6285H25.2477V11.5238L24.6191 11.2095Z" fill="#858585"/>
<path d="M27.6568 13.7238C29.0643 13.1377 29.0188 12.6404 29.0188 11.2095C27.4768 11.4406 27.6568 12.4462 27.6568 13.7238Z" fill="white"/>
<path d="M32.0576 11.2095V13.0952H32.1624L32.0576 11.2095Z" fill="#858585"/>
<path d="M32.1621 11.2095V13.1999L33.3145 13.619C33.3145 12.3943 33.4736 11.6568 32.1621 11.2095Z" fill="white"/>
<path d="M25.457 11.4192V15.2954H25.5618C25.5618 14.1798 25.8877 12.4457 25.457 11.4192Z" fill="#858585"/>
<path d="M35.6193 11.4189V11.5237L36.4574 11.6285V11.5237L35.6193 11.4189Z" fill="#858585"/>
<path d="M3.35254 11.5239V11.6287H4.08587L3.35254 11.5239Z" fill="#858585"/>
<path d="M4.81934 11.5239V14.562H4.9241L4.81934 11.5239Z" fill="#858585"/>
<path d="M4.92383 11.5239V11.6287H11.1048L9.1143 11.5239H4.92383Z" fill="#858585"/>
<path d="M11.1045 11.5239V14.562H11.2093L11.1045 11.5239Z" fill="#858585"/>
<path d="M35.619 11.5239V15.2954H34.8857V15.4001L35.6161 15.2322L35.7238 14.2477L35.619 11.5239Z" fill="#858585"/>
<path d="M3.98111 11.6284V14.457H3.35254V14.5618C4.40415 14.5272 4.30781 12.407 3.98111 11.6284Z" fill="#858585"/>
<path d="M4.92383 11.6284V14.457H11.1048V11.6284H4.92383Z" fill="white"/>
<path d="M30.1719 12.8857V12.9905H30.9052L30.1719 12.8857Z" fill="#858585"/>
<path d="M30.9045 12.8857V12.9905H31.2188L30.9045 12.8857Z" fill="#858585"/>
<path d="M29.9619 13.7236V13.8284H30.2762L29.9619 13.7236Z" fill="#858585"/>
<path d="M30.2764 13.7236V13.8284H30.8002L30.2764 13.7236Z" fill="#858585"/>
<path d="M30.8004 13.7236V13.8284H31.1147L30.8004 13.7236Z" fill="#858585"/>
<path d="M26.6094 17.0761C27.2991 16.7899 27.8794 16.3203 28.5999 16.0828C30.8437 15.3434 32.4767 16.135 34.4665 17.0761C33.8707 12.6554 27.4185 12.9183 26.6094 17.0761Z" fill="white"/>
<path d="M4.92383 14.457V14.5618H11.1048L9.1143 14.457H4.92383Z" fill="#858585"/>
<path d="M3.35254 15.2952V15.4H4.08587L3.35254 15.2952ZM4.81921 18.1238H4.92397V15.4H11.1049V23.8857H4.92397V18.9619C4.50411 19.9624 4.81921 21.6467 4.81921 22.7333C4.81921 23.0455 4.70682 23.6607 4.98718 23.8827C5.27856 24.1135 5.93721 23.9904 6.28587 23.9904H9.74302C10.1066 23.9904 10.9493 24.1483 11.1465 23.7476C11.3767 23.2797 11.2097 22.4086 11.2097 21.8952V17.3904C11.2097 16.9468 11.424 15.7056 11.0417 15.4029C10.7503 15.1721 10.0917 15.2952 9.74302 15.2952H6.28587C5.93853 15.2952 5.172 15.1537 4.92688 15.4631C4.53666 15.9558 4.81921 17.507 4.81921 18.1238Z" fill="#858585"/>
<path d="M23.6758 15.2954V15.4002H24.6186L23.6758 15.2954ZM25.4567 15.2954V15.4002H26.1901L25.4567 15.2954Z" fill="#858585"/>
<path d="M3.98047 15.4002V18.124H4.08523L3.98047 15.4002Z" fill="#858585"/>
<path d="M4.92383 15.3999V18.1237H11.1048V15.3999H4.92383Z" fill="white"/>
<path d="M23.5713 15.3999V16.9713H23.6761L23.5713 15.3999Z" fill="#858585"/>
<path d="M37.1902 15.3999V16.9713H37.295L37.1902 15.3999Z" fill="#858585"/>
<path d="M13.6191 15.7144V15.8191H14.3525L13.6191 15.7144Z" fill="#858585"/>
<path d="M22.4189 15.7144V15.8191H23.1523V16.762C23.4457 16.0625 23.1087 15.7225 22.4189 15.7144Z" fill="#858585"/>
<path d="M30.1719 15.7144V15.8191H30.9052L30.1719 15.7144Z" fill="#858585"/>
<path d="M37.6098 15.7144V15.8191H38.3431L37.6098 15.7144Z" fill="#858585"/>
<path d="M46.3047 15.7144V15.8191H47.038L46.3047 15.7144Z" fill="#858585"/>
<path d="M13.5146 15.8188V16.7617H13.6194L13.5146 15.8188Z" fill="#858585"/>
<path d="M14.3525 15.8188V16.7617H14.4573L14.3525 15.8188Z" fill="#858585"/>
<path d="M22.3145 15.8188V16.7617H22.4192L22.3145 15.8188Z" fill="#858585"/>
<path d="M37.5049 15.8188V16.7617H37.6096L37.5049 15.8188Z" fill="#858585"/>
<path d="M38.3428 15.8188V16.7617H38.4475L38.3428 15.8188Z" fill="#858585"/>
<path d="M46.2002 15.8188V16.7617H46.305L46.2002 15.8188Z" fill="#858585"/>
<path d="M47.0381 15.8188V16.7617H47.1428L47.0381 15.8188Z" fill="#858585"/>
<path d="M24.4097 34.6762H24.5145V16.2381H25.8764C23.7198 15.3332 24.4097 19.0045 24.4097 20.2191V34.6762Z" fill="#858585"/>
<path d="M35.1998 16.1333V16.2381H36.457L35.1998 16.1333Z" fill="#858585"/>
<path d="M24.5146 16.2383V34.5716H36.3527V16.2383H35.2004L35.4099 17.6002H36.0385V18.543H35.4099V27.5526C36.2325 27.8023 35.9337 29.1594 35.9337 29.8573H25.0385V27.5526H25.667V18.543C24.8109 18.4778 24.8109 17.6655 25.667 17.6002L25.8766 16.2383H24.5146Z" fill="white"/>
<path d="M36.3524 16.2383V18.124H36.4572L36.3524 16.2383Z" fill="#858585"/>
<path d="M30.1711 16.5522V16.657H30.9044L30.1711 16.5522Z" fill="#858585"/>
<path d="M26.61 22.7335H34.4671C34.4671 21.5608 34.8879 19.3783 34.329 18.3376C33.0444 15.9457 28.14 16.1865 26.7779 18.3336C26.17 19.292 26.61 21.6103 26.61 22.7335Z" fill="white"/>
<path d="M25.667 16.9712V17.5998H25.7718L25.667 16.9712Z" fill="#858585"/>
<path d="M35.3049 17.0762C35.3405 17.5335 35.4762 17.6691 35.9335 17.7047V17.6H35.4097L35.3049 17.0762Z" fill="#858585"/>
<path d="M28.9142 18.6475C26.5994 18.2806 26.9237 21.0499 26.9237 22.5237H34.1523C34.1523 21.5381 34.4066 20.1442 33.8386 19.2805C33.4647 18.712 32.8906 18.8159 32.4122 18.4529C32.0667 18.1907 31.9304 17.7785 31.5317 17.5535C30.4276 16.9307 29.3566 17.5929 28.9142 18.6475Z" fill="#858585"/>
<path d="M46.5146 17.4951V17.5999H46.8289L46.5146 17.4951Z" fill="#858585"/>
<path d="M13.8304 17.6889C12.9725 17.9346 13.4545 18.8304 14.2417 18.6141C14.9297 18.425 14.3969 17.5267 13.8304 17.6889Z" fill="white"/>
<path d="M22.633 17.689C21.7907 17.9352 22.2543 18.8305 23.0417 18.6142C23.7281 18.4255 23.1977 17.524 22.633 17.689Z" fill="white"/>
<path d="M25.0381 17.6001V17.7049H25.7714L25.0381 17.6001Z" fill="#858585"/>
<path d="M37.8292 17.689C36.9421 17.9524 37.5675 18.8386 38.3277 18.6142C38.9816 18.4211 38.3683 17.529 37.8292 17.689Z" fill="white"/>
<path d="M46.4155 17.7079C45.6162 18.1332 46.51 18.9453 47.1089 18.5397C47.6735 18.1575 46.9444 17.4267 46.4155 17.7079Z" fill="white"/>
<path d="M17.8096 17.7046V17.8094H18.1239L17.8096 17.7046Z" fill="#858585"/>
<path d="M18.124 17.7046V17.8094H18.6478L18.124 17.7046Z" fill="#858585"/>
<path d="M18.6475 17.7046V17.8094H18.9617L18.6475 17.7046Z" fill="#858585"/>
<path d="M24.9336 17.7046V18.4379H25.0384L24.9336 17.7046Z" fill="#858585"/>
<path d="M35.9336 17.7046V18.4379H36.0384L35.9336 17.7046Z" fill="#858585"/>
<path d="M41.7998 17.7046V17.8094H42.1141L41.7998 17.7046Z" fill="#858585"/>
<path d="M42.1143 17.7046V17.8094H42.6381L42.1143 17.7046Z" fill="#858585"/>
<path d="M42.6377 17.7046V17.8094H42.952L42.6377 17.7046Z" fill="#858585"/>
<path d="M12.3623 18.019V18.5429H12.4671L12.3623 18.019Z" fill="#858585"/>
<path d="M45.0473 18.019V18.3333H45.1521L45.0473 18.019Z" fill="#858585"/>
<path d="M48.1904 18.019V18.4381H48.2952L48.1904 18.019Z" fill="#858585"/>
<path d="M15.5049 18.124V18.4383H15.6096L15.5049 18.124Z" fill="#858585"/>
<path d="M21.1621 18.124V18.4383H21.2669L21.1621 18.124Z" fill="#858585"/>
<path d="M29.7523 21.6859H31.5333C31.5333 20.8321 31.7728 19.5531 31.4555 18.7546C31.1973 18.1046 30.3351 17.9863 29.9202 18.557C29.4373 19.2216 29.7523 20.8864 29.7523 21.6859Z" fill="white"/>
<path d="M36.3522 18.3335V22.4192H36.457C36.457 21.2488 36.8039 19.4098 36.3522 18.3335Z" fill="#858585"/>
<path d="M25.0385 18.438V18.5428H25.7718L25.0385 18.438Z" fill="#858585"/>
<path d="M35.4092 18.438V18.5428H35.933L35.4092 18.438Z" fill="#858585"/>
<path d="M17.9141 18.543V18.6477H18.2283L17.9141 18.543Z" fill="#858585"/>
<path d="M18.2285 18.543V18.6477H18.6476L18.2285 18.543Z" fill="#858585"/>
<path d="M25.6664 18.543V27.5525H25.7711V21.3715L25.6664 18.543Z" fill="#858585"/>
<path d="M26.5049 18.543V22.7334H26.6096C26.6096 21.5356 26.967 19.6442 26.5049 18.543Z" fill="#858585"/>
<path d="M34.4668 18.543V22.7334H34.5716C34.5716 21.5356 34.9289 19.6442 34.4668 18.543ZM35.3049 18.543V25.4573C35.3049 26.1111 34.995 27.5181 35.8287 27.6573V27.5525H35.4097V21.3715L35.3049 18.543Z" fill="#858585"/>
<path d="M42.1143 18.543V18.6477H42.6381L42.1143 18.543Z" fill="#858585"/>
<path d="M13.5146 18.6475V18.7522H14.3527L13.5146 18.6475Z" fill="#858585"/>
<path d="M15.5049 21.0573H15.6096C17.1336 18.8941 19.1788 19.355 21.0573 20.6383C20.2436 17.8191 15.7722 18.0146 15.5049 21.0573Z" fill="white"/>
<path d="M22.3145 18.6475V18.7522H23.1525L22.3145 18.6475Z" fill="#858585"/>
<path d="M37.6094 18.6475V18.7522H38.4475L37.6094 18.6475Z" fill="#858585"/>
<path d="M39.7051 20.743H39.8098C41.217 18.8326 43.8886 19.2629 45.1527 21.0573C45.5158 20.0337 44.2394 18.98 43.3717 18.7449C41.7311 18.3005 40.1101 19.0386 39.7051 20.743Z" fill="white"/>
<path d="M31.5334 18.8569V19.1712H31.6382L31.5334 18.8569Z" fill="#858585"/>
<path d="M3.98047 18.9619V23.9905H4.08523C4.08523 22.5735 4.5262 20.2624 3.98047 18.9619Z" fill="#858585"/>
<path d="M4.92383 18.9619V23.8857H11.1048V18.9619H4.92383Z" fill="white"/>
<path d="M15.1904 19.0667V19.2762L15.4 19.0667H15.1904Z" fill="#858585"/>
<path d="M29.6475 19.1714V21.6857H29.7522L29.6475 19.1714Z" fill="#858585"/>
<path d="M31.5332 19.1714V19.6952H31.638L31.5332 19.1714Z" fill="#858585"/>
<path d="M27.7616 21.6859H28.8092C28.8092 21.2149 29.0365 19.9293 28.7015 19.5735C28.473 19.3307 28.0868 19.6148 27.9441 19.8142C27.6052 20.2884 27.7616 21.1328 27.7616 21.6859Z" fill="white"/>
<path d="M32.3711 19.3809V21.6856H32.4759L32.3711 19.3809Z" fill="#858585"/>
<path d="M32.4766 19.3809V21.6856H33.3147C33.3147 20.7489 33.5072 19.789 32.4766 19.3809Z" fill="white"/>
<path d="M13.5146 19.4858V19.5906H14.4575L13.5146 19.4858Z" fill="#858585"/>
<path d="M22.3142 19.4858V19.5906H23.257L22.3142 19.4858Z" fill="#858585"/>
<path d="M28.8095 19.4858V21.6858H28.9143L28.8095 19.4858Z" fill="#858585"/>
<path d="M37.5043 19.4858V19.5906H38.4471L37.5043 19.4858Z" fill="#858585"/>
<path d="M46.2005 19.4858V21.3716H46.3052L46.2005 19.4858Z" fill="#858585"/>
<path d="M46.3051 19.4858V22.3144H47.1432V19.4858H46.3051ZM13.5146 19.5906V22.3144H14.3527V19.5906H13.5146Z" fill="white"/>
<path d="M14.3525 19.5903V22.3141H14.4573L14.3525 19.5903Z" fill="#858585"/>
<path d="M22.3145 19.5903V22.3141H23.1525V19.5903H22.3145Z" fill="white"/>
<path d="M23.1523 19.5903V22.3141H23.2571L23.1523 19.5903ZM37.5047 19.5903V22.3141H37.6095L37.5047 19.5903Z" fill="#858585"/>
<path d="M37.6094 19.5903V22.3141H38.4475V19.5903H37.6094Z" fill="white"/>
<path d="M31.5329 19.6953V21.6858H31.6377L31.5329 19.6953Z" fill="#858585"/>
<path d="M33.3143 20.0098V21.686H33.4191L33.3143 20.0098Z" fill="#858585"/>
<path d="M34.1523 20.0098V21.686H34.2571L34.1523 20.0098Z" fill="#858585"/>
<path d="M26.8192 20.1143V21.6857H26.9239L26.8192 20.1143Z" fill="#858585"/>
<path d="M27.6569 20.2192V21.6859H27.7617L27.6569 20.2192Z" fill="#858585"/>
<path d="M13.5146 23.2572L13.7242 29.962L18.3337 29.6478L23.467 29.962V23.2572H20.848C20.8466 21.1575 18.6628 19.2953 16.772 20.9869C16.165 21.5301 16.3066 22.8022 15.7861 23.1495C15.2851 23.4838 14.1025 23.2572 13.5146 23.2572Z" fill="white"/>
<path d="M39.914 23.2573H37.2949V29.962L42.4283 29.6478L47.2473 29.962V23.2573H44.8378C44.8246 22.6173 44.73 21.9076 44.3507 21.372C42.7167 19.0638 39.9204 20.9514 39.914 23.2573Z" fill="white"/>
<path d="M18.2285 21.1621V21.2669H18.6476L18.2285 21.1621ZM42.1142 21.1621V21.2669H42.5333L42.1142 21.1621Z" fill="#858585"/>
<path d="M16.4478 25.2479H20.324C20.324 24.52 20.4836 23.5762 20.2454 22.8828C19.7786 21.5236 18.0236 20.5229 16.9856 22.01C16.2958 22.9982 16.4478 24.1037 16.4478 25.2479Z" fill="#858585"/>
<path d="M40.4384 25.2477H44.3146C44.3146 24.1122 44.4658 22.9967 43.7914 22.0098C42.765 20.5083 40.9819 21.5344 40.5169 22.8826C40.2781 23.5752 40.4384 24.5205 40.4384 25.2477Z" fill="#858585"/>
<path d="M46.2002 21.3716V21.8954H46.3049L46.2002 21.3716Z" fill="#858585"/>
<path d="M26.8193 21.6855V22.5236H26.9241L26.8193 21.6855ZM34.1527 21.6855V22.5236H34.2574L34.1527 21.6855Z" fill="#858585"/>
<path d="M46.1997 21.895V22.3141H46.3045L46.1997 21.895Z" fill="#858585"/>
<path d="M18.2285 22V22.1048H18.5428L18.2285 22ZM42.219 22V22.1048H42.5333L42.219 22Z" fill="#858585"/>
<path d="M17.2861 24.4096H19.4861C19.4861 23.7763 19.5303 22.9858 19.0945 22.4603C17.8868 21.004 17.2861 23.6513 17.2861 24.4096Z" fill="white"/>
<path d="M41.2762 24.4097H43.4762C43.4762 23.7525 43.5029 23.0931 43.0861 22.535C42.3781 21.5869 41.5234 22.4867 41.324 23.2872C41.2347 23.6458 41.2762 24.0429 41.2762 24.4097Z" fill="white"/>
<path d="M12.1523 22.3142V22.4189H12.6762L12.1523 22.3142Z" fill="#858585"/>
<path d="M13.5146 22.3145V22.4192H14.3527L13.5146 22.3145Z" fill="#858585"/>
<path d="M22.3145 22.3145V22.4192H23.1525L22.3145 22.3145ZM37.6097 22.3145V22.4192H38.4478L37.6097 22.3145Z" fill="#858585"/>
<path d="M48.0859 22.3145V22.4192H48.6097L48.0859 22.3145Z" fill="#858585"/>
<path d="M12.0479 22.4189V23.1523H12.1526L12.0479 22.4189Z" fill="#858585"/>
<path d="M15.9238 22.4189V23.1523H16.0286L15.9238 22.4189Z" fill="#858585"/>
<path d="M36.3525 22.4189V34.6761H36.4573V26.0856L36.3525 22.4189Z" fill="#858585"/>
<path d="M48.6096 22.4189V23.1523H48.7144L48.6096 22.4189Z" fill="#858585"/>
<path d="M20.8477 22.5239V23.1525H20.9524L20.8477 22.5239Z" fill="#858585"/>
<path d="M39.8096 22.6284V23.1522H39.9143L39.8096 22.6284Z" fill="#858585"/>
<path d="M20.1143 22.7334V22.8382C20.5461 23.4082 20.3238 24.5513 20.3238 25.2477H20.4285C20.4285 24.5948 20.7106 23.12 20.1143 22.7334Z" fill="#858585"/>
<path d="M26.6094 22.7334V22.8382H34.5713L32.057 22.7334H26.6094Z" fill="#858585"/>
<path d="M16.3428 22.8379V25.2474H16.4475L16.3428 22.8379Z" fill="#858585"/>
<path d="M17.3906 22.8379V23.1522H17.4954L17.3906 22.8379ZM40.3335 22.8379V25.2474H40.4382L40.3335 22.8379Z" fill="#858585"/>
<path d="M41.3809 22.8379V23.1522H41.4856L41.3809 22.8379Z" fill="#858585"/>
<path d="M43.2666 22.8379V23.1522H43.3714L43.2666 22.8379Z" fill="#858585"/>
<path d="M44.3145 22.8379V25.2474H44.4192L44.3145 22.8379Z" fill="#858585"/>
<path d="M12.1523 23.1523V23.2571H12.6762L12.1523 23.1523Z" fill="#858585"/>
<path d="M13.5146 23.1523V23.2571H15.2956L13.5146 23.1523Z" fill="#858585"/>
<path d="M15.2949 23.1523V23.2571H15.9235L15.2949 23.1523ZM17.1806 23.1523V24.4095H17.2854L17.1806 23.1523Z" fill="#858585"/>
<path d="M19.4854 23.1523V24.4095H19.5901L19.4854 23.1523Z" fill="#858585"/>
<path d="M20.9521 23.1523V23.2571H21.3712L20.9521 23.1523Z" fill="#858585"/>
<path d="M21.3711 23.1523V23.2571H23.4663L21.3711 23.1523ZM37.2949 23.1523V23.2571H39.3901L37.2949 23.1523Z" fill="#858585"/>
<path d="M39.3906 23.1523V23.2571H39.8097L39.3906 23.1523Z" fill="#858585"/>
<path d="M41.1715 23.1523V24.4095H41.2762L41.1715 23.1523Z" fill="#858585"/>
<path d="M43.4766 23.1523V24.4095H43.5813L43.4766 23.1523ZM44.8385 23.1523V23.2571H45.5718L44.8385 23.1523Z" fill="#858585"/>
<path d="M45.5713 23.1523V23.2571H47.2475L45.5713 23.1523Z" fill="#858585"/>
<path d="M48.0859 23.1523V23.2571H48.6097L48.0859 23.1523Z" fill="#858585"/>
<path d="M12.0479 23.2573V23.9907H12.6764V23.2573H12.0479Z" fill="white"/>
<path d="M23.4668 23.2573V30.0668H23.5716V25.4573L23.4668 23.2573ZM47.2477 23.2573V30.0668H47.3525V25.4573L47.2477 23.2573Z" fill="#858585"/>
<path d="M48.0859 23.2573V44.0002H48.1907V29.4383V25.2478L48.0859 23.2573Z" fill="#858585"/>
<path d="M26.5049 23.5713V27.657H26.6096C26.6096 26.4866 26.9565 24.6476 26.5049 23.5713Z" fill="#858585"/>
<path d="M26.6094 23.5713V23.6761H34.4665L32.057 23.5713H26.6094Z" fill="#858585"/>
<path d="M34.4665 23.5713V27.5522H26.6094V27.657H32.2665L34.4033 27.5493L34.5713 26.6094L34.4665 23.5713Z" fill="#858585"/>
<path d="M26.6094 23.6763V27.5525H34.4665V23.6763H26.6094Z" fill="#FFDD2C"/>
<path d="M0 23.9902V43.9998H0.104762V29.9617V25.8759L0 23.9902Z" fill="#858585"/>
<path d="M0.104492 23.9904V24.0951H4.08544C3.03405 23.654 1.24751 23.9904 0.104492 23.9904ZM11.9426 23.9904V24.0951H12.6759L11.9426 23.9904ZM13.514 23.9904C13.9585 25.8576 13.6188 28.1483 13.6188 30.0666H13.7235V25.7713L13.514 23.9904Z" fill="#858585"/>
<path d="M0.837891 24.8286V29.6477H0.942653C0.942653 28.2854 1.36273 26.0794 0.837891 24.8286Z" fill="#858585"/>
<path d="M0.942383 24.8286V24.9334H12.6757L9.11381 24.8286H0.942383Z" fill="#858585"/>
<path d="M0.942383 24.9331V29.6474H12.6757V24.9331H0.942383Z" fill="white"/>
<path d="M15.8193 26.4001V26.5049H21.0574V27.343C21.1697 27.0747 21.248 26.625 20.9194 26.4633C20.5208 26.2673 19.8165 26.4001 19.3812 26.4001H15.8193ZM39.7051 26.4001V26.5049H44.9431C43.5928 25.9382 41.1769 26.4001 39.7051 26.4001Z" fill="#858585"/>
<path d="M15.8193 26.5049L16.0622 27.2798L17.6003 27.343H21.0574V27.2382H15.9241L15.8193 26.5049Z" fill="#858585"/>
<path d="M15.9238 26.5049V27.2382H21.0572V26.5049H15.9238ZM39.7048 26.5049V27.2382H44.9429V26.5049H39.7048Z" fill="#858585"/>
<path d="M39.7051 27.238V27.3428H44.9432C43.5928 26.7761 41.1769 27.238 39.7051 27.238Z" fill="#858585"/>
<path d="M25.1426 27.5522V27.657H25.7711L25.1426 27.5522Z" fill="#858585"/>
<path d="M25.0381 27.657L25.206 29.7493L28.0762 29.857H35.8286V29.7522H25.1428L25.0381 27.657Z" fill="#858585"/>
<path d="M35.8281 27.6572V29.8572H35.9329L35.8281 27.6572Z" fill="#858585"/>
<path d="M14.5615 27.9712V28.076H15.2949L14.5615 27.9712Z" fill="#858585"/>
<path d="M16.8662 27.9712V28.076H17.7043L16.8662 27.9712Z" fill="#858585"/>
<path d="M19.2764 27.9712V28.076H20.0097L19.2764 27.9712Z" fill="#858585"/>
<path d="M21.6444 28.0791C21.178 28.4445 21.6252 29.6113 22.2513 29.1206C22.7177 28.7552 22.2705 27.5884 21.6444 28.0791Z" fill="#858585"/>
<path d="M38.5106 28.0791C38.0442 28.4445 38.4914 29.6113 39.1176 29.1206C39.584 28.7552 39.1367 27.5884 38.5106 28.0791Z" fill="#858585"/>
<path d="M40.752 27.9712V28.076H41.4853L40.752 27.9712Z" fill="#858585"/>
<path d="M43.0576 27.9712V28.076H43.8957L43.0576 27.9712Z" fill="#858585"/>
<path d="M45.4668 27.9712V28.076H46.2001L45.4668 27.9712Z" fill="#858585"/>
<path d="M14.457 28.0762V29.1238H14.5618L14.457 28.0762Z" fill="#858585"/>
<path d="M14.5615 28.0762V29.1238H15.2949V28.0762H14.5615Z" fill="#858585"/>
<path d="M15.2949 28.0762V29.1238H15.3997L15.2949 28.0762Z" fill="#858585"/>
<path d="M16.8662 28.0762V29.1238H17.7043V28.0762H16.8662Z" fill="#858585"/>
<path d="M19.1719 28.0762V29.1238H19.2766L19.1719 28.0762Z" fill="#858585"/>
<path d="M19.2764 28.0762V29.1238H20.0097V28.0762H19.2764Z" fill="#858585"/>
<path d="M20.0098 28.0762V29.1238H20.1145L20.0098 28.0762Z" fill="#858585"/>
<path d="M21.5811 28.0762V29.1238H22.3144V28.0762H21.5811ZM38.4477 28.0762V29.1238H39.1811V28.0762H38.4477Z" fill="#858585"/>
<path d="M40.6475 28.0762V29.1238H40.7522L40.6475 28.0762Z" fill="#858585"/>
<path d="M40.752 28.0762V29.1238H41.4853V28.0762H40.752Z" fill="#858585"/>
<path d="M41.4854 28.0762V29.1238H41.5901L41.4854 28.0762Z" fill="#858585"/>
<path d="M43.0576 28.0762V29.1238H43.8957V28.0762H43.0576Z" fill="#858585"/>
<path d="M45.3623 28.0762V29.1238H45.4671L45.3623 28.0762Z" fill="#858585"/>
<path d="M45.4668 28.0762V29.1238H46.2001V28.0762H45.4668Z" fill="#858585"/>
<path d="M46.2002 28.0762V29.1238H46.305L46.2002 28.0762Z" fill="#858585"/>
<path d="M25.876 28.3906V28.4954H34.9903L32.1617 28.3906H25.876Z" fill="#858585"/>
<path d="M34.9902 28.3906V29.0192H35.095L34.9902 28.3906Z" fill="#858585"/>
<path d="M25.876 28.4951C26.0151 29.3288 27.4222 29.0189 28.076 29.0189H34.9903V28.9142H25.9807L25.876 28.4951Z" fill="#858585"/>
<path d="M25.9805 28.4951V28.9142H34.99V28.4951H25.9805Z" fill="white"/>
<path d="M14.5615 29.1236V29.2283H15.2949L14.5615 29.1236Z" fill="#858585"/>
<path d="M16.8662 29.124V29.2288H17.7043L16.8662 29.124Z" fill="#858585"/>
<path d="M19.2764 29.124V29.2288H20.0097L19.2764 29.124Z" fill="#858585"/>
<path d="M40.752 29.124V29.2288H41.4853L40.752 29.124Z" fill="#858585"/>
<path d="M43.0576 29.124V29.2288H43.8957L43.0576 29.124Z" fill="#858585"/>
<path d="M45.4668 29.124V29.2288H46.2001L45.4668 29.124Z" fill="#858585"/>
<path d="M13.7236 29.9617V30.0665H16.657L13.7236 29.9617Z" fill="#858585"/>
<path d="M20.1143 29.9619V30.0667H23.4666L20.1143 29.9619ZM37.2952 29.9619V30.0667H40.6476L37.2952 29.9619Z" fill="#858585"/>
<path d="M44.1045 29.9619V30.0667H47.2473L44.1045 29.9619Z" fill="#858585"/>
<path d="M0.837891 30.4858V31.6382H0.942653L0.837891 30.4858Z" fill="#858585"/>
<path d="M0.942383 30.4858V31.5335H12.6757V30.4858H0.942383Z" fill="white"/>
<path d="M16.0283 32.2665H16.1331C17.0799 30.2932 19.6893 30.6102 20.7426 32.2665C20.9498 31.5563 20.1734 30.9795 19.5902 30.7451C18.3013 30.2274 16.1208 30.5759 16.0283 32.2665Z" fill="white"/>
<path d="M39.9141 32.2669H40.0188C40.8383 31.068 42.3146 30.4446 43.6851 31.2093C44.1706 31.4802 44.3916 31.9808 44.8379 32.2669C44.2039 30.1016 40.3107 29.7593 39.9141 32.2669Z" fill="white"/>
<path d="M13.6191 30.8001V35.9334H13.7239C13.7239 34.489 14.1753 32.1255 13.6191 30.8001Z" fill="#858585"/>
<path d="M13.7236 30.7998V30.9046H15.6093L13.7236 30.7998Z" fill="#858585"/>
<path d="M21.2666 30.7998V30.9046H23.4666L21.2666 30.7998Z" fill="#858585"/>
<path d="M23.4668 30.7998V35.9331H23.5716C23.5716 34.4887 24.023 32.1253 23.4668 30.7998Z" fill="#858585"/>
<path d="M37.2949 30.7998V30.9046H39.5997L37.2949 30.7998Z" fill="#858585"/>
<path d="M45.1519 30.7998V30.9046H47.2472L45.1519 30.7998Z" fill="#858585"/>
<path d="M47.248 30.7998V35.9331H47.3528C47.3528 34.4887 47.8042 32.1253 47.248 30.7998Z" fill="#858585"/>
<path d="M13.7236 30.9048V35.8286H15.7141V33.1048H14.457V32.2667H15.0855L15.5046 30.9048H13.7236Z" fill="white"/>
<path d="M21.3714 30.9048L21.7904 32.2667H22.419V33.1048H21.2666V35.8286H23.4666V30.9048H21.3714ZM37.2952 30.9048V35.8286H39.4952V33.1048H38.3428V32.2667C39.1467 32.24 39.1755 31.5303 39.4952 30.9048H37.2952Z" fill="white"/>
<path d="M45.2574 30.9048L45.6764 32.2667H46.305V33.1048H45.0479V35.8286H47.2479V30.9048H45.2574Z" fill="white"/>
<path d="M0.942383 31.5335V31.6382H12.6757L9.11381 31.5335H0.942383Z" fill="#858585"/>
<path d="M16.9715 33.1049H16.6572V36.7716H20.4287V33.1049H19.9048C19.8127 31.332 16.9927 31.3155 16.9715 33.1049Z" fill="white"/>
<path d="M40.8568 33.1045H40.333L40.4378 36.7712H44.1044V33.1045H43.7902C43.7688 31.2938 40.9535 31.3385 40.8568 33.1045Z" fill="white"/>
<path d="M15.0859 31.9524V32.2667H15.1907L15.0859 31.9524Z" fill="#858585"/>
<path d="M21.6855 31.9521V32.2664H21.7903L21.6855 31.9521Z" fill="#858585"/>
<path d="M14.457 32.2666V33.1047H14.5618L14.457 32.2666Z" fill="#858585"/>
<path d="M0.837891 32.3716V35.9335H0.942653L0.837891 32.3716Z" fill="#858585"/>
<path d="M0.942383 32.3716V32.4763H12.6757L9.11381 32.3716H0.942383Z" fill="#858585"/>
<path d="M0.942383 32.4761V35.8285H12.6757V32.4761H0.942383Z" fill="white"/>
<path d="M16.8662 32.4761V33.1046H16.971L16.8662 32.4761Z" fill="#858585"/>
<path d="M43.79 32.5811V33.1049H43.8948L43.79 32.5811Z" fill="#858585"/>
<path d="M15.7139 33.105V35.9336H15.8186L15.7139 33.105Z" fill="#858585"/>
<path d="M16.5527 33.105V35.9336H16.6575L16.5527 33.105ZM44.1051 33.105V35.9336H44.2099L44.1051 33.105Z" fill="#858585"/>
<path d="M44.9424 33.105V35.9336H45.0471L44.9424 33.105Z" fill="#858585"/>
<path d="M1.4668 34.9907H1.57156V33.8383H2.40965C1.4689 33.4445 1.4668 34.3065 1.4668 34.9907ZM4.60965 34.9907H4.71442V33.8383H5.55251C4.61176 33.4445 4.60965 34.3065 4.60965 34.9907ZM7.75251 34.9907H7.85727V33.8383H8.69537C7.75462 33.4445 7.75251 34.3065 7.75251 34.9907ZM10.8954 34.9907H11.0001V33.8383H11.8382C10.8975 33.4445 10.8954 34.3065 10.8954 34.9907Z" fill="#858585"/>
<path d="M1.57129 33.8379V34.9903H2.30462V33.8379H1.57129Z" fill="#858585"/>
<path d="M2.30469 33.8379V34.9903H2.40945L2.30469 33.8379Z" fill="#858585"/>
<path d="M4.71387 33.8379V34.9903H5.4472V33.8379H4.71387Z" fill="#858585"/>
<path d="M5.44727 33.8379V34.9903H5.55203L5.44727 33.8379Z" fill="#858585"/>
<path d="M7.85742 33.8379V34.9903H8.59076V33.8379H7.85742Z" fill="#858585"/>
<path d="M8.59082 33.8379V34.9903H8.69558L8.59082 33.8379Z" fill="#858585"/>
<path d="M11 33.8379V34.9903H11.7333V33.8379H11Z" fill="#858585"/>
<path d="M11.7334 33.8379V34.9903H11.8382L11.7334 33.8379Z" fill="#858585"/>
<path d="M24.5146 34.5713V34.6761H36.3527L32.7908 34.5713H24.5146Z" fill="#858585"/>
<path d="M24.4092 35.4097V35.5144H36.4568L32.7901 35.4097H24.4092Z" fill="#858585"/>
<path d="M24.4098 35.5142V41.3808C24.4098 41.9581 24.1877 43.0236 24.7241 43.3713V43.2665L24.5146 41.1713V37.3999L24.4098 35.5142Z" fill="#858585"/>
<path d="M24.5146 35.5142V43.2665H24.7242L24.7763 40.6653L25.5294 39.2856L25.5623 36.457H32.4766C33.1489 36.457 34.5964 36.1839 35.167 36.5647C35.508 36.7923 35.4099 37.3642 35.4099 37.7142C35.41 38.5828 35.2106 40.0618 36.248 40.438V43.2665H36.3527V35.5142H24.5146Z" fill="white"/>
<path d="M36.3521 35.5142V41.0665L36.1426 43.2665V43.3713C36.6655 43.0323 36.4569 42.0475 36.4569 41.4856V37.3999C36.4569 36.8112 36.5814 36.0606 36.3521 35.5142Z" fill="#858585"/>
<path d="M0.942383 35.8286V35.9334H12.6757L9.11381 35.8286H0.942383ZM13.7233 35.8286V35.9334H15.7138L13.7233 35.8286ZM21.2662 35.8286V35.9334H23.4662L21.2662 35.8286ZM37.2948 35.8286V35.9334H39.4948L37.2948 35.8286ZM45.0471 35.8286V35.9334H47.2471L45.0471 35.8286Z" fill="#858585"/>
<path d="M16.5527 35.9331V36.3522H16.6575L16.5527 35.9331Z" fill="#858585"/>
<path d="M40.333 35.9331V36.7712H40.4378L40.333 35.9331Z" fill="#858585"/>
<path d="M44.1045 35.9331V36.3522H44.2093L44.1045 35.9331Z" fill="#858585"/>
<path d="M16.5527 36.3525V36.7716H16.6575L16.5527 36.3525ZM44.1051 36.3525V36.7716H44.2099L44.1051 36.3525Z" fill="#858585"/>
<path d="M25.667 36.457V36.5618H35.3051L32.3718 36.457H25.667Z" fill="#858585"/>
<path d="M25.5615 36.562V39.4953H25.6663L25.5615 36.562Z" fill="#858585"/>
<path d="M35.3047 36.562V39.4953H35.4094L35.3047 36.562Z" fill="#858585"/>
<path d="M0.838526 43.3713H0.943288V36.7713H12.6766C11.9015 36.446 10.6869 36.6665 9.84805 36.6665H3.6671C3.11821 36.6665 1.30736 36.3785 0.946201 36.8344C0.652124 37.2058 0.838526 38.2044 0.838526 38.657V43.3713ZM13.6195 43.3713H13.7242V36.7713H15.7147V37.6093C16.1762 36.5068 14.1898 36.2504 13.7272 36.8344C13.4331 37.2058 13.6195 38.2044 13.6195 38.657V43.3713ZM21.2671 36.6665V36.7713H23.4671V43.3713C24.0125 42.0715 23.5719 39.7585 23.5719 38.3427C23.5719 37.9622 23.7395 37.04 23.4039 36.7742C22.9854 36.4427 21.7847 36.6665 21.2671 36.6665ZM37.2957 36.6665V36.7713H39.4957V37.6093C40.0391 36.3111 38.0331 36.6665 37.2957 36.6665ZM44.9433 37.6093H45.048V36.7713H47.248V43.3713C47.7831 42.0963 47.3528 39.8359 47.3528 38.4474C47.3528 38.0358 47.5146 37.1746 47.2451 36.8344C46.9989 36.5236 45.4114 36.5367 45.1112 36.7742C44.8841 36.9539 44.9442 37.3554 44.9433 37.6093Z" fill="#858585"/>
<path d="M0.942383 36.7715V43.2667H12.6757V36.7715H0.942383ZM13.7233 36.7715V43.2667H23.4662V36.7715H21.2662V37.7143H15.7138V36.7715H13.7233Z" fill="#FFDD2C"/>
<path d="M16.5527 36.7715V36.8763H20.4289C19.4025 36.4456 17.6683 36.7715 16.5527 36.7715Z" fill="#858585"/>
<path d="M37.2949 36.7715V43.2667H47.2473V36.7715H45.0473V37.7143H39.4949V36.7715H37.2949Z" fill="#FFDD2C"/>
<path d="M40.333 36.7715V36.8763H44.2092C43.1827 36.4456 41.4486 36.7715 40.333 36.7715Z" fill="#858585"/>
<path d="M26.4004 37.2954V37.4002H34.4671L31.9528 37.2954H26.4004Z" fill="#858585"/>
<path d="M34.4668 37.2954V39.2859H34.5716L34.4668 37.2954Z" fill="#858585"/>
<path d="M26.4004 37.3999L26.5052 39.2856H26.6099L26.4004 37.3999Z" fill="#858585"/>
<path d="M26.5049 37.3999L26.6126 39.1223L28.0843 40.5726L28.1811 43.2666H28.3906C28.3906 42.1389 28.0244 40.2277 28.5298 39.2107C29.4436 37.372 31.6878 37.0656 32.4188 39.3034C32.7836 40.4201 32.4763 42.092 32.4763 43.2666H32.7906L32.876 40.5726L34.3591 39.1076L34.4668 37.3999H26.5049Z" fill="white"/>
<path d="M15.7139 37.6094V37.7141H21.2662L19.4853 37.6094H15.7139Z" fill="#858585"/>
<path d="M30.1719 37.6094V37.7141H30.6957L30.1719 37.6094Z" fill="#858585"/>
<path d="M39.4948 37.6094V37.7141H45.0472L43.2662 37.6094H39.4948Z" fill="#858585"/>
<path d="M30.2764 38.4478V38.5525H30.6954L30.2764 38.4478Z" fill="#858585"/>
<path d="M29.6477 40.0192C29.027 40.1523 29.3334 42.661 29.3334 43.2668H31.5334C31.5334 42.0089 31.8422 40.122 31.2004 38.983C30.5318 37.7965 29.425 39.0725 29.6477 40.0192Z" fill="white"/>
<path d="M32.1622 38.9712L32.4765 39.1807V39.076L32.1622 38.9712Z" fill="#858585"/>
<path d="M28.3909 39.1809V42.1143C28.3909 42.5549 28.4777 43.0066 28.0766 43.2666V43.3714C28.5355 43.2191 28.4947 42.8659 28.4956 42.4286C28.4976 41.4809 28.7576 40.0551 28.3909 39.1809Z" fill="#858585"/>
<path d="M32.3711 39.1812V43.3716H32.4759C32.4759 42.1738 32.8332 40.2824 32.3711 39.1812Z" fill="#858585"/>
<path d="M29.4385 39.2856V39.5999H29.5432L29.4385 39.2856Z" fill="#858585"/>
<path d="M31.3242 39.4951V39.8094H31.429L31.3242 39.4951Z" fill="#858585"/>
<path d="M31.3242 39.8096L31.6385 40.0191V39.9143L31.3242 39.8096Z" fill="#858585"/>
<path d="M29.2285 39.9141V40.0188H29.5428L29.2285 39.9141Z" fill="#858585"/>
<path d="M26.2949 40.019V40.1238H26.6092L26.2949 40.019Z" fill="#858585"/>
<path d="M29.2283 40.019C29.2283 40.6455 28.889 42.862 29.3962 43.2637C29.8297 43.607 31.1002 43.3714 31.6378 43.3714V43.2667H29.3331L29.2283 40.019Z" fill="#858585"/>
<path d="M31.5332 40.019V43.2667H31.638L31.5332 40.019Z" fill="#858585"/>
<path d="M25.6669 43.2668H27.2384C27.2384 42.6575 27.3965 39.7756 26.2022 40.2063C25.4198 40.4884 25.6669 42.598 25.6669 43.2668Z" fill="white"/>
<path d="M33.9431 41.276C33.4119 41.6592 33.6288 42.6688 33.6288 43.2665H35.305C35.305 42.4373 35.443 41.2015 34.9878 40.4618C34.438 39.5684 33.7966 40.6368 33.9431 41.276Z" fill="white"/>
<path d="M28.0762 40.438V43.2666H28.1809L28.0762 40.438Z" fill="#858585"/>
<path d="M36.1426 40.438V43.2666H36.2473L36.1426 40.438Z" fill="#858585"/>
<path d="M24.7236 40.543V43.3715H24.8284L24.7236 40.543Z" fill="#858585"/>
<path d="M27.0283 40.543V41.0668H27.1331L27.0283 40.543Z" fill="#858585"/>
<path d="M35.0957 40.6475V40.9617H35.2005L35.0957 40.6475Z" fill="#858585"/>
<path d="M27.2383 41.2764V43.3716H27.343L27.2383 41.2764Z" fill="#858585"/>
<path d="M35.3047 41.2764V43.3716H35.4094L35.3047 41.2764Z" fill="#858585"/>
<path d="M25.5615 41.3809V43.2666H25.6663L25.5615 41.3809Z" fill="#858585"/>
<path d="M0.942383 43.2666V43.3714H12.6757L9.11381 43.2666H0.942383ZM13.7233 43.2666V43.3714H23.4662L20.4281 43.2666H13.7233Z" fill="#858585"/>
<path d="M25.5615 43.2666V43.3714H27.2377L25.5615 43.2666Z" fill="#858585"/>
<path d="M32.4766 43.2666V43.3714H32.7908L32.4766 43.2666ZM33.6289 43.2666V43.3714H35.3051L33.6289 43.2666Z" fill="#858585"/>
<path d="M37.2949 43.2666V43.3714H47.2473L44.2092 43.2666H37.2949Z" fill="#858585"/>
</svg>
