<svg width="25" height="44" viewBox="0 0 25 44" fill="none" xmlns="http://www.w3.org/2000/svg">
<path d="M2.08691 34.5127C2.17151 34.312 2.36937 34.1715 2.59878 34.1715C2.82961 34.1715 3.02747 34.312 3.11207 34.5127H2.08691Z" fill="#FFCC05"/>
<path d="M4.51855 34.5127C4.60315 34.312 4.80101 34.1715 5.03042 34.1715C5.26125 34.1715 5.4591 34.312 5.54226 34.5127H4.51855Z" fill="#FFCC05"/>
<path d="M6.9502 34.5127C7.03335 34.312 7.23122 34.1715 7.46206 34.1715C7.69146 34.1715 7.88933 34.312 7.97392 34.5127H6.9502Z" fill="#FFCC05"/>
<path d="M16.5439 34.5127C16.6285 34.312 16.8264 34.1715 17.0572 34.1715C17.2866 34.1715 17.4845 34.312 17.5691 34.5127H16.5439Z" fill="#FFCC05"/>
<path d="M18.9756 34.5127C19.0602 34.312 19.258 34.1715 19.4889 34.1715C19.7183 34.1715 19.9161 34.312 20.0007 34.5127H18.9756Z" fill="#FFCC05"/>
<path d="M21.4072 34.5127C21.4918 34.312 21.6897 34.1715 21.9191 34.1715C22.1499 34.1715 22.3478 34.312 22.4324 34.5127H21.4072Z" fill="#FFCC05"/>
<path d="M12.2601 23.5673H20.8298L20.6405 23.9028H3.87825L3.69043 23.5673H12.2601Z" fill="#FFCC05"/>
<path d="M20.0969 21.9731H15.1504V18.1378H20.0969V21.9731Z" fill="#FFCC05"/>
<path d="M12.2654 21.9731C12.264 21.9731 12.2611 21.9731 12.2597 21.9731C12.2568 21.9731 12.2554 21.9731 12.254 21.9731H11.2044L11.0625 18.9981H12.254C12.2554 18.9981 12.2568 18.9966 12.2597 18.9966C12.2611 18.9966 12.264 18.9981 12.2654 18.9981H13.4555L13.315 21.9731H12.2654Z" fill="#FFCC05"/>
<path d="M12.2655 11.7115H12.264C12.2626 11.7115 12.2612 11.7129 12.2597 11.7129C12.2583 11.7129 12.2569 11.7115 12.254 11.7115H11.8525V10.5386H12.254C12.2554 10.5386 12.2569 10.5372 12.2597 10.5372C12.2612 10.5372 12.264 10.5386 12.2655 10.5386H12.6669V11.7115H12.2655Z" fill="#FFCC05"/>
<path d="M12.2655 16.2793C12.264 16.2793 12.2612 16.2793 12.2597 16.2793C12.2569 16.2793 12.2554 16.2793 12.254 16.2793H11.8525V14.7236H12.254C12.2554 14.7236 12.2569 14.7222 12.2597 14.7222C12.2612 14.7222 12.264 14.7236 12.2655 14.7236H12.6669V16.2793H12.2655Z" fill="#FFCC05"/>
<path d="M15.3179 16.2793H14.6211V13.287H19.0931V16.2793H15.3179Z" fill="#FFCC05"/>
<path d="M14.713 11.7114H14.0635V9.60951H18.2573V11.7114H14.713Z" fill="#FFCC05"/>
<path d="M14.0753 8.33203H13.7197V6.77925H17.4088V8.33203H14.0753Z" fill="#FFCC05"/>
<path d="M13.6822 5.68555H13.4141V4.61881H16.6429V5.68555H13.6822Z" fill="#FFCC05"/>
<path d="M14.7239 1.31088C14.6714 1.25546 14.5679 1.10377 14.5824 1.00167C14.5854 0.985629 14.5912 0.940418 14.6773 0.887911C14.7414 0.84853 14.7808 0.779971 14.7808 0.704128C14.7808 0.486808 14.8231 0.434301 14.8217 0.434301C14.8275 0.432842 14.8421 0.429928 14.8858 0.429928C14.9281 0.429928 14.9442 0.432848 14.9456 0.432848C14.9456 0.432848 14.9894 0.483891 14.9894 0.704128C14.9894 0.779971 15.0288 0.84853 15.0929 0.887911C15.179 0.940418 15.1848 0.985629 15.1877 1.00167C15.2023 1.10377 15.0988 1.25546 15.0477 1.31088C15.0098 1.35026 14.9894 1.40276 14.9894 1.45819V1.72656H14.7808V1.45819C14.7808 1.40422 14.7589 1.35172 14.7239 1.31088Z" fill="#FFCC05"/>
<path d="M13.0279 1.31088C12.9739 1.25546 12.8704 1.10377 12.8864 1.00167C12.8879 0.985629 12.8952 0.940418 12.9812 0.887911C13.044 0.84853 13.0848 0.779971 13.0848 0.704128C13.0848 0.486808 13.1256 0.434301 13.1242 0.434301C13.13 0.432842 13.1461 0.429928 13.1898 0.429928C13.2307 0.429928 13.2467 0.432848 13.2496 0.432848C13.2496 0.432848 13.2934 0.483891 13.2934 0.704128C13.2934 0.779971 13.3327 0.84853 13.3955 0.887911C13.483 0.940418 13.4888 0.985629 13.4917 1.00167C13.5063 1.10377 13.4028 1.25546 13.3517 1.31088C13.3138 1.35026 13.2934 1.40276 13.2934 1.45819V1.72656H13.0848V1.45819C13.0848 1.40422 13.0629 1.35172 13.0279 1.31088Z" fill="#FFCC05"/>
<path d="M11.1673 1.31088C11.1148 1.25546 11.0112 1.10377 11.0258 1.00167C11.0287 0.985629 11.0346 0.940418 11.1206 0.887911C11.1848 0.84853 11.2242 0.779971 11.2242 0.704128C11.2242 0.486808 11.2665 0.434301 11.265 0.434301C11.2708 0.432842 11.2854 0.429928 11.3292 0.429928C11.3715 0.429928 11.3875 0.432848 11.389 0.432848C11.389 0.432848 11.4327 0.483891 11.4327 0.704128C11.4327 0.779971 11.4721 0.84853 11.5363 0.887911C11.6223 0.940418 11.6282 0.985629 11.6311 1.00167C11.6457 1.10377 11.5421 1.25546 11.4925 1.31088C11.4546 1.35026 11.4327 1.40276 11.4327 1.45819V1.72656H11.2242V1.45819C11.2242 1.40422 11.2023 1.35172 11.1673 1.31088Z" fill="#FFCC05"/>
<path d="M9.47175 1.31088C9.41778 1.25546 9.31714 1.10377 9.33027 1.00167C9.33173 0.985629 9.33902 0.940418 9.42507 0.887911C9.48779 0.84853 9.52864 0.779971 9.52864 0.704128C9.52864 0.486808 9.57093 0.434301 9.57093 0.434301C9.57384 0.432842 9.58988 0.429928 9.63364 0.429928C9.67448 0.429928 9.69053 0.432848 9.69345 0.432848C9.69345 0.432848 9.73866 0.483891 9.73866 0.704128C9.73866 0.779971 9.77658 0.84853 9.8393 0.887911C9.92681 0.940418 9.93264 0.985629 9.93556 1.00167C9.95014 1.10377 9.84659 1.25546 9.79555 1.31088C9.75762 1.35026 9.73866 1.40276 9.73866 1.45819V1.72656H9.52864V1.45819C9.52864 1.40422 9.50675 1.35172 9.47175 1.31088Z" fill="#FFCC05"/>
<path d="M9.02756 2.15751H12.2535C12.2549 2.15751 12.2564 2.15751 12.2593 2.15751C12.2607 2.15751 12.2622 2.15751 12.2636 2.15751H15.491C15.7714 2.15751 16.1623 2.0122 16.3556 1.69252C16.4108 1.60097 16.4442 1.50217 16.4573 1.399C16.4907 1.40482 16.527 1.40916 16.5648 1.40916C16.6912 1.40916 16.8104 1.37284 16.9136 1.31326C16.8322 1.5661 16.6869 1.76227 16.6854 1.76373C16.6578 1.80151 16.6418 1.84801 16.6418 1.89451V4.18896H15.7787V3.86202C15.8615 3.75594 15.985 3.54377 15.9429 3.2764C15.8978 2.97706 15.6595 2.72132 15.2381 2.51352C15.2338 2.51207 15.2294 2.51062 15.2251 2.50917C15.2178 2.50626 15.212 2.50335 15.2047 2.5019C15.1975 2.50045 15.1902 2.499 15.1844 2.49754C15.1771 2.49609 15.1713 2.49464 15.164 2.49319C15.1582 2.49319 15.151 2.49319 15.1437 2.49319C15.1364 2.49319 15.1292 2.49318 15.1219 2.49464C15.1146 2.49464 15.1088 2.49609 15.103 2.49754C15.0957 2.49754 15.087 2.50045 15.0797 2.5019C15.0739 2.50481 15.0681 2.50626 15.0623 2.50917C15.058 2.51062 15.0536 2.51207 15.0492 2.51352C14.6278 2.72132 14.3895 2.97706 14.343 3.2764C14.3009 3.54377 14.4244 3.75594 14.5087 3.86202V4.18896H13.5453C13.5467 4.18606 13.5453 4.18314 13.5453 4.18024C13.5467 4.17443 13.5482 4.16861 13.5482 4.1628V3.61644C13.5482 3.21102 13.4261 2.88698 13.1863 2.65303C12.8202 2.29702 12.313 2.2941 12.2593 2.29556C12.2026 2.2941 11.6969 2.29702 11.3307 2.65303C11.091 2.88698 10.9689 3.21102 10.9689 3.61644V4.1628C10.9689 4.16861 10.9704 4.17443 10.9704 4.18024C10.9704 4.18314 10.9704 4.18606 10.9704 4.18896H10.007V3.86202C10.0912 3.75594 10.2162 3.54377 10.1741 3.2764C10.1261 2.97706 9.89071 2.72132 9.46786 2.51352C9.4635 2.51207 9.46058 2.51062 9.45622 2.50917C9.44896 2.50626 9.44316 2.50335 9.43589 2.5019C9.42862 2.50045 9.42136 2.49754 9.41409 2.49754C9.40828 2.49609 9.40102 2.49464 9.39521 2.49464C9.38794 2.49318 9.37921 2.49319 9.37195 2.49319C9.36614 2.49319 9.35887 2.49319 9.35306 2.49319C9.34725 2.49464 9.33998 2.49609 9.33271 2.49754C9.32545 2.499 9.31819 2.50045 9.31238 2.5019C9.30511 2.50335 9.29784 2.50626 9.29203 2.50917C9.28767 2.51062 9.28332 2.51207 9.27896 2.51352C8.85756 2.72132 8.61925 2.97706 8.5742 3.2764C8.53061 3.54377 8.65557 3.75594 8.7384 3.86202V4.18896H7.87525V1.89451C7.87525 1.84801 7.85926 1.80151 7.83166 1.76373C7.8302 1.76082 7.68489 1.56465 7.60352 1.31326C7.70669 1.37284 7.82584 1.40916 7.95226 1.40916C7.98859 1.40916 8.02492 1.40482 8.0598 1.399C8.07287 1.50217 8.1063 1.60097 8.16151 1.69252C8.35478 2.0122 8.7442 2.15751 9.02756 2.15751Z" fill="#FFCC05"/>
<path d="M7.87695 4.61881H11.1058V5.68555H7.87695V4.61881Z" fill="#FFCC05"/>
<path d="M7.10938 6.77925H10.7999V8.33203H7.10938V6.77925Z" fill="#FFCC05"/>
<path d="M6.2627 9.60951H10.4565V11.7114H6.2627V9.60951Z" fill="#FFCC05"/>
<path d="M5.4248 13.287H9.89675V16.2793H5.4248V13.287Z" fill="#FFCC05"/>
<path d="M4.4209 18.1378H9.36743V21.9731H4.4209V18.1378Z" fill="#FFCC05"/>
<path d="M3.5969 32.7979C3.71591 32.7979 3.81197 32.7018 3.81197 32.5828V31.9491C3.81197 31.83 3.71591 31.734 3.5969 31.734C3.4779 31.734 3.38184 31.83 3.38184 31.9491V32.5828C3.38184 32.7018 3.4779 32.7979 3.5969 32.7979Z" fill="#858585"/>
<path d="M4.83421 32.7979C4.95321 32.7979 5.04927 32.7018 5.04927 32.5828V31.9491C5.04927 31.83 4.95321 31.734 4.83421 31.734C4.7152 31.734 4.61914 31.83 4.61914 31.9491V32.5828C4.61914 32.7018 4.7152 32.7979 4.83421 32.7979Z" fill="#858585"/>
<path d="M6.07054 32.7979C6.18954 32.7979 6.2856 32.7018 6.2856 32.5828V31.9491C6.2856 31.83 6.18954 31.734 6.07054 31.734C5.95153 31.734 5.85547 31.83 5.85547 31.9491V32.5828C5.85547 32.7018 5.95153 32.7979 6.07054 32.7979Z" fill="#858585"/>
<path d="M7.30784 32.7979C7.42684 32.7979 7.52291 32.7018 7.52291 32.5828V31.9491C7.52291 31.83 7.42684 31.734 7.30784 31.734C7.18884 31.734 7.09277 31.83 7.09277 31.9491V32.5828C7.09277 32.7018 7.18884 32.7979 7.30784 32.7979Z" fill="#858585"/>
<path d="M8.54319 32.7979C8.6622 32.7979 8.75826 32.7018 8.75826 32.5828V31.9491C8.75826 31.83 8.6622 31.734 8.54319 31.734C8.42419 31.734 8.32812 31.83 8.32812 31.9491V32.5828C8.32812 32.7018 8.42419 32.7979 8.54319 32.7979Z" fill="#858585"/>
<path d="M9.7805 32.7979C9.8995 32.7979 9.99556 32.7018 9.99556 32.5828V31.9491C9.99556 31.83 9.8995 31.734 9.7805 31.734C9.66149 31.734 9.56543 31.83 9.56543 31.9491V32.5828C9.56543 32.7018 9.66149 32.7979 9.7805 32.7979Z" fill="#858585"/>
<path d="M11.0168 32.7979C11.1358 32.7979 11.2319 32.7018 11.2319 32.5828V31.9491C11.2319 31.83 11.1358 31.734 11.0168 31.734C10.8978 31.734 10.8018 31.83 10.8018 31.9491V32.5828C10.8018 32.7018 10.8978 32.7979 11.0168 32.7979Z" fill="#858585"/>
<path d="M12.2541 32.7979C12.2556 32.7979 12.257 32.7964 12.2599 32.7964C12.2613 32.7964 12.2642 32.7979 12.2656 32.7979C12.3846 32.7979 12.4807 32.7018 12.4807 32.5828V31.9491C12.4807 31.83 12.3846 31.734 12.2656 31.734C12.2642 31.734 12.2613 31.7354 12.2599 31.7354C12.257 31.7354 12.2556 31.734 12.2541 31.734C12.1351 31.734 12.0391 31.83 12.0391 31.9491V32.5828C12.0391 32.7018 12.1351 32.7979 12.2541 32.7979Z" fill="#858585"/>
<path d="M8.79458 41.6329H1.80491C1.68591 41.6329 1.58984 41.7304 1.58984 41.8479C1.58984 41.9669 1.68591 42.063 1.80491 42.063H8.79458C8.91358 42.063 9.00964 41.9669 9.00964 41.8479C9.00964 41.7304 8.91358 41.6329 8.79458 41.6329Z" fill="#858585"/>
<path d="M8.79458 40.6836H1.80491C1.68591 40.6836 1.58984 40.7797 1.58984 40.8987C1.58984 41.0177 1.68591 41.1138 1.80491 41.1138H8.79458C8.91358 41.1138 9.00964 41.0177 9.00964 40.8987C9.00964 40.7797 8.91358 40.6836 8.79458 40.6836Z" fill="#858585"/>
<path d="M1.80491 35.8618H8.79458C8.91358 35.8618 9.00964 35.7658 9.00964 35.6467C9.00964 35.5292 8.91358 35.4317 8.79458 35.4317H1.80491C1.68591 35.4317 1.58984 35.5292 1.58984 35.6467C1.58984 35.7658 1.68591 35.8618 1.80491 35.8618Z" fill="#858585"/>
<path d="M2.16309 36.3278V40.199C2.16309 40.318 2.25915 40.4141 2.37815 40.4141C2.49716 40.4141 2.59322 40.318 2.59322 40.199V36.3278C2.59322 36.2102 2.49716 36.1127 2.37815 36.1127C2.25915 36.1127 2.16309 36.2102 2.16309 36.3278Z" fill="#858585"/>
<path d="M3.61523 36.3278V40.199C3.61523 40.318 3.7113 40.4141 3.8303 40.4141C3.9493 40.4141 4.04537 40.318 4.04537 40.199V36.3278C4.04537 36.2102 3.9493 36.1127 3.8303 36.1127C3.7113 36.1127 3.61523 36.2102 3.61523 36.3278Z" fill="#858585"/>
<path d="M5.06641 36.3278V40.199C5.06641 40.318 5.16247 40.4141 5.28147 40.4141C5.40048 40.4141 5.49654 40.318 5.49654 40.199V36.3278C5.49654 36.2102 5.40048 36.1127 5.28147 36.1127C5.16247 36.1127 5.06641 36.2102 5.06641 36.3278Z" fill="#858585"/>
<path d="M6.51855 36.3278V40.199C6.51855 40.318 6.61462 40.4141 6.73362 40.4141C6.85262 40.4141 6.94869 40.318 6.94869 40.199V36.3278C6.94869 36.2102 6.85262 36.1127 6.73362 36.1127C6.61462 36.1127 6.51855 36.2102 6.51855 36.3278Z" fill="#858585"/>
<path d="M7.96973 36.3278V40.199C7.96973 40.318 8.06579 40.4141 8.18479 40.4141C8.3038 40.4141 8.39986 40.318 8.39986 40.199V36.3278C8.39986 36.2102 8.3038 36.1127 8.18479 36.1127C8.06579 36.1127 7.96973 36.2102 7.96973 36.3278Z" fill="#858585"/>
<path d="M9.51135 28.4424H4.36839C4.24938 28.4424 4.15332 28.5399 4.15332 28.6575C4.15332 28.7765 4.24938 28.8726 4.36839 28.8726H9.51135C9.63035 28.8726 9.72642 28.7765 9.72642 28.6575C9.72642 28.5399 9.63035 28.4424 9.51135 28.4424Z" fill="#858585"/>
<path d="M4.83421 28.084C4.95321 28.084 5.04927 27.9879 5.04927 27.8689V24.9297C5.04927 24.8121 4.95321 24.7146 4.83421 24.7146C4.7152 24.7146 4.61914 24.8121 4.61914 24.9297V27.8689C4.61914 27.9879 4.7152 28.084 4.83421 28.084Z" fill="#858585"/>
<path d="M5.88206 28.084C6.00106 28.084 6.09713 27.9879 6.09713 27.8689V24.9297C6.09713 24.8121 6.00106 24.7146 5.88206 24.7146C5.76306 24.7146 5.66699 24.8121 5.66699 24.9297V27.8689C5.66699 27.9879 5.76306 28.084 5.88206 28.084Z" fill="#858585"/>
<path d="M6.93089 28.084C7.04989 28.084 7.14595 27.9879 7.14595 27.8689V24.9297C7.14595 24.8121 7.04989 24.7146 6.93089 24.7146C6.81188 24.7146 6.71582 24.8121 6.71582 24.9297V27.8689C6.71582 27.9879 6.81188 28.084 6.93089 28.084Z" fill="#858585"/>
<path d="M7.97874 28.084C8.09774 28.084 8.19381 27.9879 8.19381 27.8689V24.9297C8.19381 24.8121 8.09774 24.7146 7.97874 24.7146C7.85973 24.7146 7.76367 24.8121 7.76367 24.9297V27.8689C7.76367 27.9879 7.85973 28.084 7.97874 28.084Z" fill="#858585"/>
<path d="M9.02757 28.084C9.14657 28.084 9.24263 27.9879 9.24263 27.8689V24.9297C9.24263 24.8121 9.14657 24.7146 9.02757 24.7146C8.90856 24.7146 8.8125 24.8121 8.8125 24.9297V27.8689C8.8125 27.9879 8.90856 28.084 9.02757 28.084Z" fill="#858585"/>
<path d="M5.12613 22.5552H4.49241C4.37341 22.5552 4.27734 22.6513 4.27734 22.7703C4.27734 22.8893 4.37341 22.9854 4.49241 22.9854H5.12613C5.2437 22.9854 5.3412 22.8893 5.3412 22.7703C5.3412 22.6513 5.2437 22.5552 5.12613 22.5552Z" fill="#858585"/>
<path d="M6.79171 22.5552H6.1594C6.0404 22.5552 5.94434 22.6513 5.94434 22.7703C5.94434 22.8893 6.0404 22.9854 6.1594 22.9854H6.79171C6.91071 22.9854 7.00677 22.8893 7.00677 22.7703C7.00677 22.6513 6.91071 22.5552 6.79171 22.5552Z" fill="#858585"/>
<path d="M8.45576 22.5552H7.82347C7.70446 22.5552 7.6084 22.6513 7.6084 22.7703C7.6084 22.8893 7.70446 22.9854 7.82347 22.9854H8.45576C8.57476 22.9854 8.67082 22.8893 8.67082 22.7703C8.67082 22.6513 8.57476 22.5552 8.45576 22.5552Z" fill="#858585"/>
<path d="M10.1218 22.5552H9.48948C9.37048 22.5552 9.27441 22.6513 9.27441 22.7703C9.27441 22.8893 9.37048 22.9854 9.48948 22.9854H10.1218C10.2408 22.9854 10.3368 22.8893 10.3368 22.7703C10.3368 22.6513 10.2408 22.5552 10.1218 22.5552Z" fill="#858585"/>
<path d="M11.7883 22.5552H11.1545C11.0355 22.5552 10.9395 22.6513 10.9395 22.7703C10.9395 22.8893 11.0355 22.9854 11.1545 22.9854H11.7883C11.9073 22.9854 12.0033 22.8893 12.0033 22.7703C12.0033 22.6513 11.9073 22.5552 11.7883 22.5552Z" fill="#858585"/>
<path d="M12.2541 20.6108C12.2556 20.6108 12.257 20.6094 12.2599 20.6094C12.2613 20.6094 12.2642 20.6108 12.2656 20.6108C12.3846 20.6108 12.4807 20.5148 12.4807 20.3958V19.5886C12.4807 19.471 12.3846 19.3735 12.2656 19.3735C12.2642 19.3735 12.2613 19.3749 12.2599 19.3749C12.257 19.3749 12.2556 19.3735 12.2541 19.3735C12.1351 19.3735 12.0391 19.471 12.0391 19.5886V20.3958C12.0391 20.5148 12.1351 20.6108 12.2541 20.6108Z" fill="#858585"/>
<path d="M24.0873 43.5704H12.2592H0.431043V43.0196H0.94392H1.12364H12.2592H23.3947H23.5744H24.0873V43.5704ZM1.21423 33.4621H2.79667H9.29592V34.5127H8.42215C8.32425 34.0729 7.9312 33.7426 7.46216 33.7426C6.99167 33.7426 6.59861 34.0729 6.49925 34.5127H5.99224C5.89288 34.0729 5.49981 33.7426 5.03078 33.7426C4.56175 33.7426 4.16724 34.0729 4.06934 34.5127H3.56086C3.4615 34.0729 3.06844 33.7426 2.59794 33.7426C2.12891 33.7426 1.73587 34.0729 1.63797 34.5127H1.12364H0.94392H0.739357L1.21423 33.4621ZM12.2592 31.5027H21.5069V33.031H12.2592H3.01147V31.5027H12.2592ZM2.48545 31.0716V30.737H3.1795H12.2592H21.3388H22.0329V31.0716H21.7217H12.2592H2.79667H2.48545ZM3.88377 29.59H9.94029V30.3074H3.52578L3.88377 29.59ZM3.96706 22.404H12.2533C12.2548 22.404 12.2562 22.4026 12.2592 22.4026C12.2606 22.4026 12.2635 22.404 12.265 22.404H20.5513V23.139H12.2592H3.96706V22.404ZM4.42149 18.1374H9.36752V21.973H4.42149V18.1374ZM5.02495 16.7099H8.98615V17.2359C8.98615 17.2403 8.98615 17.2432 8.98615 17.2461C8.98761 17.2549 8.98762 17.2622 8.98908 17.2695C8.99054 17.2768 8.992 17.2826 8.99346 17.2899C8.99492 17.2972 8.99639 17.3031 8.99931 17.3089C9.00223 17.3162 9.00516 17.3235 9.00954 17.3308C9.00954 17.3338 9.00953 17.3382 9.01099 17.3411L9.21701 17.7078H5.02495V16.7099ZM5.42384 13.2878H9.89645V16.2803H9.20095H5.42384V13.2878ZM5.83151 12.1423H9.58961V12.5222C9.58961 12.5266 9.59108 12.5295 9.59108 12.5324C9.59108 12.5412 9.59254 12.5485 9.594 12.5558C9.59547 12.5631 9.59692 12.5689 9.59839 12.5762C9.59985 12.5821 9.6013 12.5894 9.60422 12.5952C9.60714 12.6025 9.61007 12.6098 9.613 12.6171C9.61446 12.6201 9.61592 12.623 9.61738 12.6274L9.74596 12.8582H5.83151V12.1423ZM6.26108 9.61007H10.4561V11.7127H9.8044H6.26108V9.61007ZM6.64246 8.7626H10.2281V8.98761C10.2281 8.99053 10.2296 8.99492 10.2296 8.99784C10.2296 9.00514 10.2311 9.01392 10.2325 9.02123C10.2325 9.02707 10.234 9.03437 10.2354 9.04167C10.2369 9.04752 10.2384 9.05482 10.2413 9.06067C10.2442 9.06797 10.2471 9.07528 10.2501 9.08258C10.2515 9.08551 10.253 9.08844 10.2544 9.09136L10.3041 9.18048H6.64246V8.7626ZM7.10856 6.7798H10.7995V8.33301H10.4429H7.10856V6.7798ZM7.43148 6.11642H10.6212V6.24502C10.6212 6.24794 10.6227 6.25231 10.6227 6.25523C10.6227 6.264 10.6241 6.27131 10.6241 6.27862C10.6256 6.28593 10.627 6.29176 10.6285 6.29907C10.6314 6.30491 10.6329 6.31223 10.6358 6.31807C10.6387 6.32538 10.6416 6.33269 10.6446 6.33999C10.646 6.34291 10.6475 6.34583 10.649 6.34875H7.43148V6.11642ZM7.87567 4.61873H11.1048V5.68538H10.8374H7.87567V4.61873ZM8.22782 0.704283C8.22782 0.856244 8.10361 0.978979 7.95311 0.978979C7.80115 0.978979 7.67841 0.856244 7.67841 0.704283C7.67841 0.65022 7.69449 0.600532 7.72079 0.556697C7.75294 0.524551 7.788 0.492406 7.82745 0.461721C7.86544 0.442726 7.90781 0.429587 7.95311 0.429587C8.10361 0.429587 8.22782 0.553783 8.22782 0.704283ZM9.1688 4.18916V3.78296C9.1688 3.72597 9.14543 3.67045 9.10452 3.62953C9.10305 3.62807 8.97301 3.49363 8.99931 3.34021C9.01976 3.21017 9.15273 3.07429 9.37483 2.95009C9.59547 3.07429 9.72696 3.21017 9.74888 3.34021C9.77518 3.49363 9.64368 3.62806 9.64368 3.62806C9.60276 3.66898 9.57792 3.72451 9.57792 3.78296V4.18916H9.1688ZM9.02706 2.15814H12.2533C12.2548 2.15814 12.2562 2.15667 12.2592 2.15667C12.2606 2.15667 12.2635 2.15814 12.265 2.15814H15.4913C15.7718 2.15814 16.1634 2.01202 16.3548 1.69202C16.4118 1.59997 16.4439 1.50208 16.4571 1.39834C16.4921 1.40418 16.5272 1.41002 16.5652 1.41002C16.6923 1.41002 16.8121 1.3735 16.9144 1.31359C16.8326 1.56637 16.6879 1.76216 16.6865 1.76508C16.6573 1.80161 16.6426 1.84837 16.6426 1.89513V4.18916H15.7791V3.86332C15.8624 3.75519 15.9851 3.54332 15.9442 3.27593C15.8975 2.97785 15.6608 2.72068 15.2385 2.51466C15.2341 2.51173 15.2297 2.51174 15.2253 2.50882C15.218 2.50736 15.2122 2.50444 15.2063 2.50151C15.199 2.50005 15.1917 2.49859 15.1859 2.49713C15.1786 2.49567 15.1713 2.49421 15.1639 2.49421C15.1581 2.49275 15.1508 2.49274 15.1435 2.49274C15.1362 2.49274 15.1289 2.49275 15.123 2.49421C15.1157 2.49421 15.1099 2.49567 15.104 2.49713C15.0967 2.49859 15.088 2.50005 15.0807 2.50151C15.0748 2.50444 15.069 2.50736 15.0617 2.50882C15.0573 2.51028 15.0529 2.51173 15.05 2.51466C14.6277 2.72068 14.3895 2.97785 14.3442 3.27593C14.3004 3.54332 14.4261 3.75519 14.5093 3.86332V4.18916H13.545C13.5464 4.18623 13.545 4.1833 13.545 4.18038C13.5464 4.17454 13.5479 4.1687 13.5479 4.16286V3.61638C13.5479 3.21164 13.4266 2.88725 13.187 2.65347C12.8217 2.2984 12.3132 2.29402 12.2592 2.29548C12.2036 2.29402 11.6966 2.2984 11.3313 2.65347C11.0917 2.88725 10.9704 3.21164 10.9704 3.61638V4.16286C10.9704 4.1687 10.9719 4.17454 10.9719 4.18038C10.9719 4.1833 10.9719 4.18623 10.9719 4.18916H10.0075V3.86332C10.0908 3.75519 10.2164 3.54332 10.1741 3.27593C10.1273 2.97785 9.89061 2.72068 9.46834 2.51466C9.46541 2.51173 9.46103 2.51174 9.45665 2.50882C9.44934 2.50736 9.44349 2.50444 9.43619 2.50151C9.42888 2.50005 9.42158 2.49859 9.41427 2.49713C9.40843 2.49567 9.40112 2.49421 9.39528 2.49421C9.38943 2.49275 9.38067 2.49274 9.37336 2.49274C9.36752 2.49274 9.36022 2.49275 9.35291 2.49421C9.34707 2.49421 9.33976 2.49567 9.33245 2.49713C9.32514 2.49859 9.31784 2.50005 9.31346 2.50151C9.30615 2.50444 9.29884 2.50736 9.293 2.50882C9.28861 2.51174 9.28424 2.51173 9.27985 2.51466C8.85758 2.72068 8.62086 2.97785 8.5741 3.27593C8.53173 3.54332 8.65594 3.75519 8.73922 3.86332V4.18916H7.87567V1.89513C7.87567 1.84837 7.86106 1.80161 7.83183 1.76508C7.83037 1.76216 7.68572 1.56491 7.6039 1.31359C7.70764 1.3735 7.82599 1.41002 7.95311 1.41002C7.98964 1.41002 8.02471 1.40418 8.06124 1.39834C8.07439 1.50208 8.10654 1.59997 8.16206 1.69202C8.35494 2.01202 8.74506 2.15814 9.02706 2.15814ZM9.47126 1.31212C9.41866 1.25514 9.31638 1.10463 9.331 1.00235C9.33246 0.986279 9.33976 0.940985 9.42597 0.888384C9.4888 0.848932 9.52971 0.780263 9.52971 0.704283C9.52971 0.486569 9.57062 0.435423 9.57062 0.435423C9.575 0.432501 9.59107 0.429587 9.63344 0.429587C9.67582 0.429587 9.69189 0.432498 9.69482 0.432498C9.69482 0.433959 9.73865 0.483647 9.73865 0.704283C9.73865 0.780263 9.77664 0.848932 9.84093 0.888384C9.92714 0.940985 9.93299 0.986279 9.93591 1.00235C9.95052 1.10463 9.84824 1.25514 9.79564 1.31067C9.75911 1.35158 9.73865 1.40271 9.73865 1.45824V1.7271H9.52971V1.45824C9.52971 1.40417 9.50779 1.35157 9.47126 1.31212ZM11.1662 1.31212C11.1151 1.25514 11.0113 1.10463 11.0259 1.00235C11.0289 0.986279 11.0347 0.940985 11.1209 0.888384C11.1852 0.848932 11.2247 0.780263 11.2247 0.704283C11.2247 0.486569 11.267 0.435423 11.2656 0.435423C11.2714 0.432501 11.286 0.429587 11.3284 0.429587C11.3722 0.429587 11.3868 0.432498 11.3883 0.432498C11.3883 0.433959 11.4336 0.483647 11.4336 0.704283C11.4336 0.780263 11.4716 0.848932 11.5359 0.888384C11.6221 0.940985 11.6279 0.986279 11.6309 1.00235C11.6455 1.10463 11.5417 1.25514 11.492 1.31067C11.4555 1.35158 11.4336 1.40271 11.4336 1.45824V1.7271H11.2247V1.45824C11.2247 1.40417 11.2027 1.35157 11.1662 1.31212ZM13.0277 1.31212C12.9751 1.25514 12.8714 1.10463 12.8875 1.00235C12.8889 0.986279 12.8962 0.940985 12.9824 0.888384C13.0453 0.848932 13.0847 0.780263 13.0847 0.704283C13.0847 0.486569 13.1271 0.435423 13.1256 0.435423C13.1315 0.432501 13.1461 0.429587 13.1899 0.429587C13.2308 0.429587 13.2469 0.432498 13.2498 0.432498C13.2498 0.433959 13.2937 0.483647 13.2937 0.704283C13.2937 0.780263 13.3331 0.848932 13.3959 0.888384C13.4836 0.940985 13.4895 0.986279 13.4924 1.00235C13.507 1.10463 13.4032 1.25514 13.3521 1.31067C13.3141 1.35158 13.2937 1.40271 13.2937 1.45824V1.7271H13.0847V1.45824C13.0847 1.40417 13.0628 1.35157 13.0277 1.31212ZM14.7227 1.31212C14.6701 1.25514 14.5678 1.10463 14.5824 1.00235C14.5853 0.986279 14.5912 0.940985 14.6759 0.888384C14.7417 0.848932 14.7797 0.780263 14.7797 0.704283C14.7797 0.486569 14.8235 0.435423 14.822 0.435423C14.8264 0.432501 14.841 0.429587 14.8849 0.429587C14.9272 0.429587 14.9433 0.432498 14.9448 0.432498C14.9448 0.433959 14.9886 0.483647 14.9886 0.704283C14.9886 0.780263 15.0281 0.848932 15.0924 0.888384C15.1786 0.940985 15.1844 0.986279 15.1873 1.00235C15.2019 1.10463 15.0982 1.25514 15.0471 1.31067C15.0091 1.35158 14.9886 1.40271 14.9886 1.45824V1.7271H14.7797V1.45824C14.7797 1.40417 14.7578 1.35157 14.7227 1.31212ZM16.5652 0.429587C16.6105 0.429587 16.6529 0.442726 16.6894 0.461721C16.7303 0.492406 16.7654 0.524551 16.7961 0.556697C16.8224 0.600532 16.8399 0.65022 16.8399 0.704283C16.8399 0.856244 16.7172 0.978979 16.5652 0.978979C16.4132 0.978979 16.289 0.856244 16.289 0.704283C16.289 0.553783 16.4132 0.429587 16.5652 0.429587ZM14.8761 3.62953C14.8746 3.62807 14.7431 3.49363 14.768 3.34021C14.7899 3.21017 14.9229 3.07429 15.1435 2.95009C15.3641 3.07429 15.4971 3.21017 15.5176 3.34021C15.5453 3.49363 15.4138 3.62806 15.4138 3.62806C15.3714 3.66898 15.3495 3.72451 15.3495 3.78296V4.18916H14.9389V3.78296C14.9389 3.72597 14.9141 3.67045 14.8761 3.62953ZM13.6809 5.68538H13.4135V4.61873H16.6426V5.68538H13.6809ZM17.0854 6.34875H13.8694C13.8708 6.34583 13.8723 6.34291 13.8737 6.33999C13.8767 6.33269 13.8796 6.32537 13.8825 6.31953C13.8854 6.31222 13.8869 6.30491 13.8884 6.29907C13.8898 6.29176 13.8913 6.28593 13.8927 6.27862C13.8942 6.27131 13.8957 6.264 13.8957 6.25523C13.8957 6.25231 13.8971 6.24794 13.8971 6.24502V6.11642H17.0854V6.34875ZM14.0739 8.33301H13.7189V6.7798H17.4083V8.33301H14.0739ZM17.8744 9.18048H14.2127L14.2624 9.09136C14.2653 9.08844 14.2653 9.08551 14.2668 9.08258C14.2712 9.07528 14.2741 9.06797 14.277 9.06067C14.28 9.05482 14.2814 9.04752 14.2829 9.04167C14.2843 9.03437 14.2858 9.02853 14.2872 9.02123C14.2872 9.01392 14.2873 9.00514 14.2887 8.99784C14.2887 8.99492 14.2887 8.99053 14.2887 8.98761V8.7626H17.8744V9.18048ZM14.7125 11.7127H14.0622V9.61007H18.2572V11.7127H14.7125ZM14.7724 12.8582L14.8995 12.6274C14.9024 12.623 14.9024 12.6201 14.9039 12.6171C14.9082 12.6098 14.9112 12.6025 14.9141 12.5952C14.9156 12.5894 14.9185 12.5821 14.9199 12.5762C14.9214 12.5689 14.9229 12.5631 14.9243 12.5558C14.9258 12.5485 14.9258 12.5412 14.9258 12.5324C14.9272 12.5295 14.9272 12.5266 14.9272 12.5222V12.1423H18.6868V12.8582H14.7724ZM15.3174 16.2803H14.6204V13.2878H19.093V16.2803H15.3174ZM15.3013 17.7078L15.5059 17.3411C15.5073 17.3382 15.5088 17.3338 15.5102 17.3308C15.5132 17.3235 15.5161 17.3177 15.519 17.3089C15.5205 17.3031 15.5234 17.2972 15.5249 17.2899C15.5263 17.2826 15.5278 17.2768 15.5292 17.2695C15.5307 17.2622 15.5307 17.2549 15.5307 17.2461C15.5322 17.2432 15.5322 17.2403 15.5322 17.2359V16.7099H19.4934V17.7078H15.3013ZM11.6367 16.7099H12.2533C12.2548 16.7099 12.2562 16.7099 12.2592 16.7099C12.2606 16.7099 12.2635 16.7099 12.265 16.7099H12.8816H15.1026V17.1804L14.8089 17.7078H12.2592H9.70797L9.41574 17.1804V16.7099H11.6367ZM12.265 16.2803C12.2635 16.2803 12.2606 16.2803 12.2592 16.2803C12.2562 16.2803 12.2548 16.2803 12.2533 16.2803H11.8515V14.7241H12.2533C12.2548 14.7241 12.2562 14.7227 12.2592 14.7227C12.2606 14.7227 12.2635 14.7241 12.265 14.7241H12.6668V16.2803H12.265ZM10.326 13.2878H12.2592H14.1908V16.2803H13.0964V14.5093C13.0964 14.3895 13 14.2931 12.8816 14.2931H12.265C12.2635 14.2931 12.2606 14.2946 12.2592 14.2946C12.2562 14.2946 12.2548 14.2931 12.2533 14.2931H11.6367C11.5184 14.2931 11.4219 14.3895 11.4219 14.5093V16.2803H10.326V13.2878ZM11.6367 12.1423H12.2533C12.2562 12.1423 12.2577 12.1423 12.2592 12.1423C12.2606 12.1423 12.2621 12.1423 12.2635 12.1423H12.265H12.8816H14.4977V12.4666L14.2799 12.8582H12.2592H10.2369L10.0192 12.4666V12.1423H11.6367ZM12.265 11.7127H12.2635C12.2621 11.7127 12.2606 11.7127 12.2592 11.7127C12.2577 11.7127 12.2562 11.7127 12.2533 11.7127H11.8515V10.5394H12.2533C12.2548 10.5394 12.2562 10.5394 12.2592 10.5394C12.2606 10.5394 12.2635 10.5394 12.265 10.5394H12.6668V11.7127H12.265ZM10.8857 9.61007H12.2592H13.6327V11.7127H13.0964V10.3246C13.0964 10.2048 13 10.1098 12.8816 10.1098H12.265C12.2635 10.1098 12.2606 10.1098 12.2592 10.1098C12.2562 10.1098 12.2548 10.1098 12.2533 10.1098H11.6367C11.5184 10.1098 11.4219 10.2048 11.4219 10.3246V11.7127H10.8857V9.61007ZM11.6367 8.7626H12.2533H12.2548C12.2562 8.7626 12.2577 8.7626 12.2592 8.7626C12.2606 8.7626 12.2606 8.7626 12.2621 8.7626H12.265H12.8816H13.8591V8.93209L13.7218 9.18048H12.2592H10.7965L10.6577 8.93209V8.7626H11.6367ZM12.265 8.33301H12.2621C12.2606 8.33301 12.2606 8.33301 12.2592 8.33301C12.2577 8.33301 12.2562 8.33301 12.2548 8.33301H12.2533H11.8515V7.6112H12.2533C12.2548 7.6112 12.2562 7.6112 12.2592 7.6112C12.2606 7.6112 12.2635 7.6112 12.265 7.6112H12.6668V8.33301H12.265ZM11.229 6.7798H12.2592H13.2893V8.33301H13.0964V7.39641C13.0964 7.27806 13 7.18162 12.8816 7.18162H12.265C12.2635 7.18162 12.2606 7.18162 12.2592 7.18162C12.2562 7.18162 12.2548 7.18162 12.2533 7.18162H11.6367C11.5184 7.18162 11.4219 7.27806 11.4219 7.39641V8.33301H11.229V6.7798ZM12.2562 6.11642C12.2562 6.11642 12.2577 6.11642 12.2592 6.11642C12.2606 6.11642 12.2606 6.11642 12.2621 6.11642H13.4661V6.18948L13.3755 6.34875H12.2592H11.1414L11.0522 6.18948V6.11642H12.2562ZM11.5344 4.61873H12.2592H12.9839V5.68538H12.2621C12.2606 5.68538 12.2606 5.68685 12.2592 5.68685C12.2577 5.68685 12.2562 5.68538 12.2562 5.68538H11.5344V4.61873ZM12.2592 4.18916H11.4468L11.4 4.10732V3.83117H12.2562C12.2577 3.83117 12.2577 3.83117 12.2592 3.83117H12.2606H13.1183V4.10732L13.0716 4.18916H12.2592ZM12.2548 2.72507C12.2548 2.72507 12.2562 2.72507 12.2577 2.72507C12.2577 2.72507 12.2592 2.72507 12.2606 2.72507C12.2606 2.72507 12.2621 2.72507 12.2635 2.72507C12.2665 2.72507 12.642 2.72215 12.8889 2.9647C12.9985 3.07283 13.0686 3.2204 13.0993 3.40158H12.2606H12.2592C12.2577 3.40158 12.2577 3.40158 12.2562 3.40158H11.419C11.4497 3.2204 11.5184 3.07283 11.6294 2.9647C11.8734 2.72215 12.246 2.72507 12.2548 2.72507ZM12.265 21.973C12.2635 21.973 12.2606 21.9744 12.2592 21.9744C12.2562 21.9744 12.2548 21.973 12.2533 21.973H11.2042L11.0625 18.998H12.2533C12.2548 18.998 12.2562 18.998 12.2592 18.998C12.2606 18.998 12.2635 18.998 12.265 18.998H13.4544L13.3141 21.973H12.265ZM13.7452 21.973L13.8957 18.7935C13.8986 18.735 13.8767 18.6781 13.8358 18.6357C13.7963 18.5918 13.7408 18.5685 13.6809 18.5685H12.265C12.2635 18.5685 12.2606 18.5685 12.2592 18.5685C12.2562 18.5685 12.2548 18.5685 12.2533 18.5685H10.8374C10.7775 18.5685 10.722 18.5918 10.6826 18.6357C10.6402 18.6781 10.6183 18.735 10.6212 18.7935L10.7717 21.973H9.7971V18.1374H12.2592H14.7198V21.973H13.7452ZM20.0968 21.973H15.1493V18.1374H20.0968V21.973ZM3.96706 24.3327H9.94029V29.1604H3.96706V24.3327ZM14.578 29.1604V24.3327H20.5513V29.1604H14.578ZM12.2592 23.5686H20.8289L20.6389 23.9032H12.2592H3.87793L3.68944 23.5686H12.2592ZM12.2592 30.3074H10.3713V24.3327H12.2592H14.147V30.3074H12.2592ZM20.9911 30.3074H14.578V29.59H20.6331L20.9911 30.3074ZM23.3041 33.4621L23.7775 34.5127H23.5744H23.3947H22.8804C22.781 34.0729 22.3894 33.7426 21.9189 33.7426C21.4499 33.7426 21.0554 34.0729 20.9575 34.5127H20.449C20.3496 34.0729 19.9566 33.7426 19.489 33.7426C19.0185 33.7426 18.6255 34.0729 18.5261 34.5127H18.0176C17.9197 34.0729 17.5252 33.7426 17.0562 33.7426C16.5857 33.7426 16.1941 34.0729 16.0947 34.5127H15.2224V33.4621H21.7217H23.3041ZM21.406 34.5127C21.4908 34.314 21.6895 34.1722 21.9189 34.1722C22.1498 34.1722 22.347 34.314 22.4318 34.5127H21.406ZM18.9747 34.5127C19.0594 34.314 19.2581 34.1722 19.489 34.1722C19.7184 34.1722 19.9156 34.314 20.0004 34.5127H18.9747ZM16.5433 34.5127C16.628 34.314 16.8253 34.1722 17.0562 34.1722C17.2856 34.1722 17.4843 34.314 17.569 34.5127H16.5433ZM6.9493 34.5127C7.03259 34.314 7.2313 34.1722 7.46216 34.1722C7.69156 34.1722 7.88882 34.314 7.97357 34.5127H6.9493ZM4.51792 34.5127C4.60267 34.314 4.80138 34.1722 5.03078 34.1722C5.26165 34.1722 5.4589 34.314 5.54219 34.5127H4.51792ZM2.08654 34.5127C2.17129 34.314 2.36854 34.1722 2.59794 34.1722C2.82881 34.1722 3.02753 34.314 3.11228 34.5127H2.08654ZM1.33843 42.59V34.9437H9.29592V42.59H1.33843ZM12.2592 42.59H9.72551V33.4621H12.2592H14.7928V42.59H12.2592ZM15.2224 42.59V34.9437H23.1799V42.59H15.2224ZM24.3035 42.59H23.6109V34.9437H24.1121C24.1837 34.9437 24.2524 34.9057 24.2918 34.8444C24.3313 34.783 24.3371 34.7055 24.3064 34.6398L23.6387 33.1582C23.6036 33.0807 23.5277 33.031 23.4429 33.031H21.9364V31.5027H22.2477C22.366 31.5027 22.4639 31.4062 22.4639 31.2864V30.5222C22.4639 30.4039 22.366 30.3074 22.2477 30.3074H21.4733L20.9808 29.3241V24.1749L21.3841 23.459C21.4206 23.3918 21.4192 23.3114 21.3827 23.2442C21.3432 23.1784 21.2716 23.139 21.1956 23.139H20.9808V22.1892C20.9808 22.0694 20.8844 21.973 20.7661 21.973H20.5264V17.9226C20.5264 17.8043 20.43 17.7078 20.3116 17.7078H19.9244V16.4951C19.9244 16.3767 19.828 16.2803 19.7096 16.2803H19.5226V13.073C19.5226 12.9547 19.4262 12.8582 19.3078 12.8582H19.1164V11.9275C19.1164 11.8091 19.0214 11.7127 18.9016 11.7127H18.6868V9.39528C18.6868 9.27692 18.5904 9.18048 18.472 9.18048H18.304V8.5478C18.304 8.42799 18.2076 8.33301 18.0892 8.33301H17.8379V6.565C17.8379 6.44519 17.7414 6.34875 17.6231 6.34875H17.515V5.90164C17.515 5.78183 17.42 5.68538 17.3002 5.68538H17.0722V4.40395V1.96234C17.1833 1.79577 17.4565 1.3282 17.3878 0.838713C17.3557 0.616616 17.2607 0.42082 17.1029 0.254247C17.0562 0.198723 17.0021 0.149032 16.9407 0.111042C16.9393 0.109581 16.9378 0.108123 16.9363 0.106661C16.9188 0.0949721 16.8998 0.0862137 16.8823 0.0789078C16.7858 0.0306895 16.6792 -6.74668e-07 16.5652 -6.74668e-07C16.1765 -6.74668e-07 15.8595 0.315613 15.8595 0.704283C15.8595 0.835787 15.8975 0.957064 15.9603 1.06227C15.9632 1.06519 15.9632 1.06957 15.9661 1.07395C16.0465 1.22884 16.0538 1.35888 15.9866 1.46992C15.8916 1.63065 15.6593 1.7271 15.4913 1.7271H15.4197V1.53568C15.5059 1.42317 15.6476 1.19377 15.6125 0.945375C15.5994 0.846016 15.5526 0.71158 15.4167 0.593226C15.389 0.194328 15.2136 -6.74668e-07 14.8849 -6.74668e-07C14.5546 -6.74668e-07 14.3793 0.194328 14.353 0.593226C14.2157 0.71158 14.1689 0.846016 14.1557 0.945375C14.1221 1.19377 14.2639 1.42317 14.3501 1.53568V1.7271H13.7247V1.53568C13.8094 1.42317 13.9526 1.19377 13.9176 0.945375C13.9044 0.846016 13.8577 0.71158 13.7203 0.593226C13.694 0.194328 13.5201 -6.74668e-07 13.1899 -6.74668e-07C12.8582 -6.74668e-07 12.6829 0.194328 12.6581 0.593226C12.5207 0.71158 12.474 0.846016 12.4593 0.945375C12.4272 1.19377 12.5689 1.42317 12.6551 1.53568V1.7271H12.265C12.2635 1.7271 12.2606 1.72855 12.2592 1.72855C12.2562 1.72855 12.2548 1.7271 12.2533 1.7271H11.8632V1.53568C11.9494 1.42317 12.0911 1.19377 12.0575 0.945375C12.0444 0.846016 11.9962 0.71158 11.8603 0.593226C11.834 0.194328 11.6601 -6.74668e-07 11.3284 -6.74668e-07C10.9982 -6.74668e-07 10.8243 0.194328 10.7965 0.593226C10.6607 0.71158 10.6139 0.846016 10.6007 0.945375C10.5657 1.19377 10.7074 1.42317 10.7936 1.53568V1.7271H10.1682V1.53568C10.253 1.42317 10.3962 1.19377 10.3626 0.945375C10.3494 0.846016 10.3027 0.71158 10.1639 0.593226C10.139 0.194328 9.96367 -6.74668e-07 9.63344 -6.74668e-07C9.30322 -6.74668e-07 9.12789 0.194328 9.10159 0.593226C8.96424 0.71158 8.91894 0.846016 8.90433 0.945375C8.87073 1.19377 9.01246 1.42317 9.09866 1.53568V1.7271H9.02706C8.85903 1.7271 8.6267 1.63065 8.53027 1.46992C8.46451 1.35888 8.47182 1.22884 8.55218 1.07395C8.55365 1.06957 8.55512 1.06518 8.55658 1.0608C8.62087 0.955594 8.65739 0.835787 8.65739 0.704283C8.65739 0.315613 8.34178 -6.74668e-07 7.95311 -6.74668e-07C7.83914 -6.74668e-07 7.73102 0.0306895 7.63605 0.0789078C7.61705 0.0862137 7.59951 0.0949721 7.58198 0.106661C7.58052 0.108123 7.57906 0.109581 7.5776 0.111042C7.51623 0.149032 7.46217 0.198723 7.41395 0.254247C7.25614 0.42082 7.16262 0.616616 7.13048 0.838713C7.0618 1.3282 7.33505 1.79577 7.4461 1.96234V4.40395V5.68538H7.21669C7.09834 5.68538 7.0019 5.78183 7.0019 5.90164V6.34875H6.89376C6.77541 6.34875 6.67898 6.44519 6.67898 6.565V8.33301H6.42766C6.30931 8.33301 6.21287 8.42799 6.21287 8.5478V9.18048H6.04629C5.92794 9.18048 5.83151 9.27692 5.83151 9.39528V11.7127H5.61672C5.4969 11.7127 5.40192 11.8091 5.40192 11.9275V12.8582H5.20905C5.09069 12.8582 4.99425 12.9547 4.99425 13.073V16.2803H4.8087C4.69034 16.2803 4.5939 16.3767 4.5939 16.4951V17.7078H4.20522C4.08687 17.7078 3.99044 17.8043 3.99044 17.9226V21.973H3.75226C3.63391 21.973 3.53748 22.0694 3.53748 22.1892V23.139H3.32269C3.24525 23.139 3.17512 23.1784 3.13566 23.2442C3.09767 23.3114 3.09767 23.3918 3.13419 23.459L3.53748 24.1749V29.3241L3.04507 30.3074H2.27065C2.15084 30.3074 2.0544 30.4039 2.0544 30.5222V31.2864C2.0544 31.4062 2.15084 31.5027 2.27065 31.5027H2.58188V33.031H1.07542C0.990677 33.031 0.91323 33.0807 0.879623 33.1582L0.210413 34.6398C0.179729 34.7055 0.187035 34.783 0.225025 34.8444C0.265937 34.9057 0.333142 34.9437 0.4062 34.9437H0.907391V42.59H0.214794C0.0964396 42.59 0 42.6864 0 42.8048V43.7852C0 43.9036 0.0964396 44 0.214794 44H12.2592H24.3035C24.4219 44 24.5183 43.9036 24.5183 43.7852V42.8048C24.5183 42.6864 24.4219 42.59 24.3035 42.59Z" fill="#858585"/>
<path d="M24.0873 43.5704H12.2592H0.431043V43.0196H0.94392H1.12364H12.2592H23.3947H23.5744H24.0873V43.5704ZM1.21424 33.4621H2.79667H9.29592V34.5127H8.42215C8.32425 34.0729 7.9312 33.7426 7.46216 33.7426C6.99167 33.7426 6.59861 34.0729 6.49925 34.5127H5.99224C5.89288 34.0729 5.49981 33.7426 5.03078 33.7426C4.56175 33.7426 4.16724 34.0729 4.06934 34.5127H3.56086C3.4615 34.0729 3.06844 33.7426 2.59795 33.7426C2.12891 33.7426 1.73587 34.0729 1.63797 34.5127H1.12364H0.94392H0.739357L1.21424 33.4621ZM12.2592 31.5027H21.5069V33.031H12.2592H3.01147V31.5027H12.2592ZM2.48545 31.0716V30.737H3.1795H12.2592H21.3388H22.0329V31.0716H21.7217H12.2592H2.79667H2.48545ZM3.88377 29.59H9.94029V30.3074H3.52578L3.88377 29.59ZM3.96706 22.404H12.2533C12.2548 22.404 12.2562 22.4026 12.2592 22.4026C12.2606 22.4026 12.2635 22.404 12.265 22.404H20.5513V23.139H12.2592H3.96706V22.404ZM4.42149 18.1374H9.36752V21.973H4.42149V18.1374ZM5.02495 16.7099H8.98615V17.2359C8.98615 17.2403 8.98615 17.2432 8.98615 17.2461C8.98761 17.2549 8.98762 17.2622 8.98908 17.2695C8.99054 17.2768 8.992 17.2826 8.99346 17.2899C8.99492 17.2972 8.99639 17.3031 8.99931 17.3089C9.00223 17.3162 9.00516 17.3235 9.00954 17.3308C9.00954 17.3338 9.00953 17.3382 9.011 17.3411L9.21701 17.7078H5.02495V16.7099ZM5.42384 13.2878H9.89645V16.2803H9.20095H5.42384V13.2878ZM5.83151 12.1423H9.58961V12.5222C9.58961 12.5265 9.59108 12.5295 9.59108 12.5324C9.59108 12.5412 9.59254 12.5485 9.594 12.5558C9.59547 12.5631 9.59692 12.5689 9.59839 12.5762C9.59985 12.5821 9.6013 12.5894 9.60422 12.5952C9.60714 12.6025 9.61007 12.6098 9.613 12.6171C9.61446 12.6201 9.61592 12.623 9.61738 12.6274L9.74596 12.8582H5.83151V12.1423ZM6.26108 9.61007H10.4561V11.7127H9.8044H6.26108V9.61007ZM6.64246 8.7626H10.2281V8.98761C10.2281 8.99053 10.2296 8.99492 10.2296 8.99784C10.2296 9.00514 10.2311 9.01392 10.2325 9.02122C10.2325 9.02707 10.234 9.03437 10.2354 9.04167C10.2369 9.04752 10.2384 9.05482 10.2413 9.06067C10.2442 9.06797 10.2471 9.07528 10.2501 9.08258C10.2515 9.08551 10.253 9.08844 10.2544 9.09136L10.3041 9.18048H6.64246V8.7626ZM7.10856 6.7798H10.7995V8.33301H10.4429H7.10856V6.7798ZM7.43148 6.11642H10.6212V6.24501C10.6212 6.24794 10.6227 6.25231 10.6227 6.25523C10.6227 6.264 10.6241 6.27131 10.6241 6.27862C10.6256 6.28592 10.627 6.29176 10.6285 6.29907C10.6314 6.30491 10.6329 6.31223 10.6358 6.31807C10.6387 6.32538 10.6417 6.33269 10.6446 6.33999C10.646 6.34291 10.6475 6.34583 10.649 6.34875H7.43148V6.11642ZM7.87567 4.61873H11.1048V5.68538H10.8374H7.87567V4.61873ZM8.22782 0.704283C8.22782 0.856244 8.10361 0.978977 7.95311 0.978977C7.80115 0.978977 7.67841 0.856244 7.67841 0.704283C7.67841 0.65022 7.69449 0.600532 7.72079 0.556697C7.75294 0.524551 7.788 0.492404 7.82745 0.461719C7.86544 0.442724 7.90781 0.429585 7.95311 0.429585C8.10361 0.429585 8.22782 0.553783 8.22782 0.704283ZM9.1688 4.18916V3.78296C9.1688 3.72597 9.14543 3.67045 9.10451 3.62953C9.10305 3.62807 8.97301 3.49363 8.99931 3.34021C9.01976 3.21017 9.15273 3.07429 9.37483 2.95009C9.59547 3.07429 9.72696 3.21017 9.74888 3.34021C9.77518 3.49363 9.64368 3.62806 9.64368 3.62806C9.60276 3.66898 9.57792 3.72451 9.57792 3.78296V4.18916H9.1688ZM9.02706 2.15814H12.2533C12.2548 2.15814 12.2562 2.15667 12.2592 2.15667C12.2606 2.15667 12.2635 2.15814 12.265 2.15814H15.4913C15.7718 2.15814 16.1634 2.01202 16.3548 1.69202C16.4118 1.59997 16.4439 1.50208 16.4571 1.39833C16.4921 1.40418 16.5272 1.41002 16.5652 1.41002C16.6923 1.41002 16.8121 1.3735 16.9144 1.31359C16.8326 1.56637 16.6879 1.76216 16.6865 1.76508C16.6573 1.80161 16.6426 1.84837 16.6426 1.89513V4.18916H15.7791V3.86332C15.8624 3.75519 15.9851 3.54332 15.9442 3.27593C15.8975 2.97785 15.6608 2.72068 15.2385 2.51466C15.2341 2.51173 15.2297 2.51174 15.2253 2.50882C15.218 2.50736 15.2122 2.50443 15.2063 2.50151C15.199 2.50005 15.1917 2.49859 15.1859 2.49713C15.1786 2.49567 15.1713 2.49421 15.1639 2.49421C15.1581 2.49275 15.1508 2.49274 15.1435 2.49274C15.1362 2.49274 15.1289 2.49275 15.123 2.49421C15.1157 2.49421 15.1099 2.49567 15.104 2.49713C15.0967 2.49859 15.088 2.50005 15.0807 2.50151C15.0748 2.50443 15.069 2.50736 15.0617 2.50882C15.0573 2.51028 15.0529 2.51173 15.05 2.51466C14.6277 2.72068 14.3895 2.97785 14.3442 3.27593C14.3004 3.54332 14.4261 3.75519 14.5093 3.86332V4.18916H13.545C13.5464 4.18623 13.545 4.1833 13.545 4.18038C13.5464 4.17454 13.5479 4.1687 13.5479 4.16286V3.61638C13.5479 3.21163 13.4266 2.88725 13.187 2.65347C12.8217 2.2984 12.3132 2.29402 12.2592 2.29548C12.2036 2.29402 11.6966 2.2984 11.3313 2.65347C11.0917 2.88725 10.9704 3.21163 10.9704 3.61638V4.16286C10.9704 4.1687 10.9719 4.17454 10.9719 4.18038C10.9719 4.1833 10.9719 4.18623 10.9719 4.18916H10.0075V3.86332C10.0908 3.75519 10.2164 3.54332 10.1741 3.27593C10.1273 2.97785 9.89061 2.72068 9.46834 2.51466C9.46541 2.51173 9.46103 2.51174 9.45665 2.50882C9.44934 2.50736 9.44349 2.50443 9.43619 2.50151C9.42888 2.50005 9.42158 2.49859 9.41427 2.49713C9.40843 2.49567 9.40112 2.49421 9.39528 2.49421C9.38943 2.49275 9.38067 2.49274 9.37336 2.49274C9.36752 2.49274 9.36022 2.49275 9.35291 2.49421C9.34707 2.49421 9.33976 2.49567 9.33245 2.49713C9.32514 2.49859 9.31784 2.50005 9.31346 2.50151C9.30615 2.50443 9.29884 2.50736 9.293 2.50882C9.28861 2.51174 9.28424 2.51173 9.27985 2.51466C8.85758 2.72068 8.62086 2.97785 8.5741 3.27593C8.53173 3.54332 8.65594 3.75519 8.73922 3.86332V4.18916H7.87567V1.89513C7.87567 1.84837 7.86106 1.80161 7.83183 1.76508C7.83037 1.76216 7.68572 1.56491 7.6039 1.31359C7.70764 1.3735 7.82599 1.41002 7.95311 1.41002C7.98964 1.41002 8.02471 1.40418 8.06124 1.39833C8.07439 1.50208 8.10654 1.59997 8.16206 1.69202C8.35494 2.01202 8.74506 2.15814 9.02706 2.15814ZM9.47126 1.31212C9.41866 1.25514 9.31638 1.10463 9.331 1.00235C9.33246 0.986277 9.33976 0.940986 9.42597 0.888384C9.4888 0.848933 9.52971 0.780263 9.52971 0.704283C9.52971 0.48657 9.57062 0.435423 9.57062 0.435423C9.575 0.432501 9.59107 0.429585 9.63345 0.429585C9.67582 0.429585 9.69189 0.432496 9.69482 0.432496C9.69482 0.433957 9.73865 0.483647 9.73865 0.704283C9.73865 0.780263 9.77664 0.848933 9.84093 0.888384C9.92714 0.940986 9.93299 0.986277 9.93591 1.00235C9.95052 1.10463 9.84824 1.25514 9.79564 1.31066C9.75911 1.35158 9.73865 1.40271 9.73865 1.45824V1.7271H9.52971V1.45824C9.52971 1.40417 9.50779 1.35157 9.47126 1.31212ZM11.1662 1.31212C11.1151 1.25514 11.0113 1.10463 11.0259 1.00235C11.0289 0.986277 11.0347 0.940986 11.1209 0.888384C11.1852 0.848933 11.2247 0.780263 11.2247 0.704283C11.2247 0.48657 11.267 0.435423 11.2656 0.435423C11.2714 0.432501 11.286 0.429585 11.3284 0.429585C11.3722 0.429585 11.3868 0.432496 11.3883 0.432496C11.3883 0.433957 11.4336 0.483647 11.4336 0.704283C11.4336 0.780263 11.4716 0.848933 11.5359 0.888384C11.6221 0.940986 11.6279 0.986277 11.6309 1.00235C11.6455 1.10463 11.5417 1.25514 11.492 1.31066C11.4555 1.35158 11.4336 1.40271 11.4336 1.45824V1.7271H11.2247V1.45824C11.2247 1.40417 11.2027 1.35157 11.1662 1.31212ZM13.0277 1.31212C12.9751 1.25514 12.8714 1.10463 12.8875 1.00235C12.8889 0.986277 12.8962 0.940986 12.9824 0.888384C13.0453 0.848933 13.0847 0.780263 13.0847 0.704283C13.0847 0.48657 13.1271 0.435423 13.1256 0.435423C13.1315 0.432501 13.1461 0.429585 13.1899 0.429585C13.2308 0.429585 13.2469 0.432496 13.2498 0.432496C13.2498 0.433957 13.2937 0.483647 13.2937 0.704283C13.2937 0.780263 13.3331 0.848933 13.3959 0.888384C13.4836 0.940986 13.4895 0.986277 13.4924 1.00235C13.507 1.10463 13.4032 1.25514 13.3521 1.31066C13.3141 1.35158 13.2937 1.40271 13.2937 1.45824V1.7271H13.0847V1.45824C13.0847 1.40417 13.0628 1.35157 13.0277 1.31212ZM14.7227 1.31212C14.6701 1.25514 14.5678 1.10463 14.5824 1.00235C14.5853 0.986277 14.5912 0.940986 14.6759 0.888384C14.7417 0.848933 14.7797 0.780263 14.7797 0.704283C14.7797 0.48657 14.8235 0.435423 14.822 0.435423C14.8264 0.432501 14.841 0.429585 14.8849 0.429585C14.9272 0.429585 14.9433 0.432496 14.9448 0.432496C14.9448 0.433957 14.9886 0.483647 14.9886 0.704283C14.9886 0.780263 15.0281 0.848933 15.0924 0.888384C15.1786 0.940986 15.1844 0.986277 15.1873 1.00235C15.2019 1.10463 15.0982 1.25514 15.0471 1.31066C15.0091 1.35158 14.9886 1.40271 14.9886 1.45824V1.7271H14.7797V1.45824C14.7797 1.40417 14.7578 1.35157 14.7227 1.31212ZM16.5652 0.429585C16.6105 0.429585 16.6529 0.442724 16.6894 0.461719C16.7303 0.492404 16.7654 0.524551 16.7961 0.556697C16.8224 0.600532 16.8399 0.65022 16.8399 0.704283C16.8399 0.856244 16.7172 0.978977 16.5652 0.978977C16.4132 0.978977 16.289 0.856244 16.289 0.704283C16.289 0.553783 16.4132 0.429585 16.5652 0.429585ZM14.8761 3.62953C14.8746 3.62807 14.7431 3.49363 14.768 3.34021C14.7899 3.21017 14.9229 3.07429 15.1435 2.95009C15.3641 3.07429 15.4971 3.21017 15.5176 3.34021C15.5453 3.49363 15.4138 3.62806 15.4138 3.62806C15.3714 3.66898 15.3495 3.72451 15.3495 3.78296V4.18916H14.9389V3.78296C14.9389 3.72597 14.9141 3.67045 14.8761 3.62953ZM13.6809 5.68538H13.4135V4.61873H16.6426V5.68538H13.6809ZM17.0854 6.34875H13.8694C13.8708 6.34583 13.8723 6.34291 13.8737 6.33999C13.8767 6.33269 13.8796 6.32537 13.8825 6.31953C13.8854 6.31222 13.8869 6.30491 13.8884 6.29907C13.8898 6.29176 13.8913 6.28592 13.8927 6.27862C13.8942 6.27131 13.8957 6.264 13.8957 6.25523C13.8957 6.25231 13.8971 6.24794 13.8971 6.24501V6.11642H17.0854V6.34875ZM14.0739 8.33301H13.7189V6.7798H17.4083V8.33301H14.0739ZM17.8744 9.18048H14.2127L14.2624 9.09136C14.2653 9.08844 14.2653 9.08551 14.2668 9.08258C14.2712 9.07528 14.2741 9.06797 14.277 9.06067C14.28 9.05482 14.2814 9.04752 14.2829 9.04167C14.2843 9.03437 14.2858 9.02853 14.2872 9.02122C14.2872 9.01392 14.2873 9.00514 14.2887 8.99784C14.2887 8.99492 14.2887 8.99053 14.2887 8.98761V8.7626H17.8744V9.18048ZM14.7125 11.7127H14.0622V9.61007H18.2572V11.7127H14.7125ZM14.7724 12.8582L14.8995 12.6274C14.9024 12.623 14.9024 12.6201 14.9039 12.6171C14.9082 12.6098 14.9112 12.6025 14.9141 12.5952C14.9156 12.5894 14.9185 12.5821 14.9199 12.5762C14.9214 12.5689 14.9229 12.5631 14.9243 12.5558C14.9258 12.5485 14.9258 12.5412 14.9258 12.5324C14.9272 12.5295 14.9272 12.5265 14.9272 12.5222V12.1423H18.6868V12.8582H14.7724ZM15.3174 16.2803H14.6204V13.2878H19.093V16.2803H15.3174ZM15.3013 17.7078L15.5059 17.3411C15.5073 17.3382 15.5088 17.3338 15.5102 17.3308C15.5132 17.3235 15.5161 17.3177 15.519 17.3089C15.5205 17.3031 15.5234 17.2972 15.5249 17.2899C15.5263 17.2826 15.5278 17.2768 15.5292 17.2695C15.5307 17.2622 15.5307 17.2549 15.5307 17.2461C15.5322 17.2432 15.5322 17.2403 15.5322 17.2359V16.7099H19.4934V17.7078H15.3013ZM11.6367 16.7099H12.2533C12.2548 16.7099 12.2562 16.7099 12.2592 16.7099C12.2606 16.7099 12.2635 16.7099 12.265 16.7099H12.8816H15.1026V17.1804L14.8089 17.7078H12.2592H9.70797L9.41574 17.1804V16.7099H11.6367ZM12.265 16.2803C12.2635 16.2803 12.2606 16.2803 12.2592 16.2803C12.2562 16.2803 12.2548 16.2803 12.2533 16.2803H11.8515V14.7241H12.2533C12.2548 14.7241 12.2562 14.7227 12.2592 14.7227C12.2606 14.7227 12.2635 14.7241 12.265 14.7241H12.6668V16.2803H12.265ZM10.326 13.2878H12.2592H14.1908V16.2803H13.0964V14.5093C13.0964 14.3895 13 14.2931 12.8816 14.2931H12.265C12.2635 14.2931 12.2606 14.2946 12.2592 14.2946C12.2562 14.2946 12.2548 14.2931 12.2533 14.2931H11.6367C11.5184 14.2931 11.4219 14.3895 11.4219 14.5093V16.2803H10.326V13.2878ZM11.6367 12.1423H12.2533C12.2562 12.1423 12.2577 12.1423 12.2592 12.1423C12.2606 12.1423 12.2621 12.1423 12.2635 12.1423H12.265H12.8816H14.4977V12.4666L14.2799 12.8582H12.2592H10.2369L10.0192 12.4666V12.1423H11.6367ZM12.265 11.7127H12.2635C12.2621 11.7127 12.2606 11.7127 12.2592 11.7127C12.2577 11.7127 12.2562 11.7127 12.2533 11.7127H11.8515V10.5394H12.2533C12.2548 10.5394 12.2562 10.5394 12.2592 10.5394C12.2606 10.5394 12.2635 10.5394 12.265 10.5394H12.6668V11.7127H12.265ZM10.8857 9.61007H12.2592H13.6327V11.7127H13.0964V10.3246C13.0964 10.2048 13 10.1098 12.8816 10.1098H12.265C12.2635 10.1098 12.2606 10.1098 12.2592 10.1098C12.2562 10.1098 12.2548 10.1098 12.2533 10.1098H11.6367C11.5184 10.1098 11.4219 10.2048 11.4219 10.3246V11.7127H10.8857V9.61007ZM11.6367 8.7626H12.2533H12.2548C12.2562 8.7626 12.2577 8.7626 12.2592 8.7626C12.2606 8.7626 12.2606 8.7626 12.2621 8.7626H12.265H12.8816H13.8591V8.93208L13.7218 9.18048H12.2592H10.7965L10.6577 8.93208V8.7626H11.6367ZM12.265 8.33301H12.2621C12.2606 8.33301 12.2606 8.33301 12.2592 8.33301C12.2577 8.33301 12.2562 8.33301 12.2548 8.33301H12.2533H11.8515V7.6112H12.2533C12.2548 7.6112 12.2562 7.6112 12.2592 7.6112C12.2606 7.6112 12.2635 7.6112 12.265 7.6112H12.6668V8.33301H12.265ZM11.229 6.7798H12.2592H13.2893V8.33301H13.0964V7.39641C13.0964 7.27806 13 7.18162 12.8816 7.18162H12.265C12.2635 7.18162 12.2606 7.18162 12.2592 7.18162C12.2562 7.18162 12.2548 7.18162 12.2533 7.18162H11.6367C11.5184 7.18162 11.4219 7.27806 11.4219 7.39641V8.33301H11.229V6.7798ZM12.2562 6.11642C12.2562 6.11642 12.2577 6.11642 12.2592 6.11642C12.2606 6.11642 12.2606 6.11642 12.2621 6.11642H13.4661V6.18948L13.3755 6.34875H12.2592H11.1414L11.0522 6.18948V6.11642H12.2562ZM11.5344 4.61873H12.2592H12.9839V5.68538H12.2621C12.2606 5.68538 12.2606 5.68685 12.2592 5.68685C12.2577 5.68685 12.2562 5.68538 12.2562 5.68538H11.5344V4.61873ZM12.2592 4.18916H11.4468L11.4 4.10732V3.83117H12.2562C12.2577 3.83117 12.2577 3.83117 12.2592 3.83117H12.2606H13.1183V4.10732L13.0716 4.18916H12.2592ZM12.2548 2.72507C12.2548 2.72507 12.2562 2.72507 12.2577 2.72507C12.2577 2.72507 12.2592 2.72507 12.2606 2.72507C12.2606 2.72507 12.2621 2.72507 12.2635 2.72507C12.2665 2.72507 12.642 2.72215 12.8889 2.96471C12.9985 3.07283 13.0686 3.2204 13.0993 3.40158H12.2606H12.2592C12.2577 3.40158 12.2577 3.40158 12.2562 3.40158H11.419C11.4497 3.2204 11.5184 3.07283 11.6294 2.96471C11.8734 2.72215 12.246 2.72507 12.2548 2.72507ZM12.265 21.973C12.2635 21.973 12.2606 21.9744 12.2592 21.9744C12.2562 21.9744 12.2548 21.973 12.2533 21.973H11.2042L11.0625 18.998H12.2533C12.2548 18.998 12.2562 18.998 12.2592 18.998C12.2606 18.998 12.2635 18.998 12.265 18.998H13.4544L13.3141 21.973H12.265ZM13.7452 21.973L13.8957 18.7935C13.8986 18.735 13.8767 18.6781 13.8358 18.6357C13.7963 18.5918 13.7408 18.5685 13.6809 18.5685H12.265C12.2635 18.5685 12.2606 18.5685 12.2592 18.5685C12.2562 18.5685 12.2548 18.5685 12.2533 18.5685H10.8374C10.7775 18.5685 10.722 18.5918 10.6826 18.6357C10.6402 18.6781 10.6183 18.735 10.6212 18.7935L10.7717 21.973H9.7971V18.1374H12.2592H14.7198V21.973H13.7452ZM20.0968 21.973H15.1493V18.1374H20.0968V21.973ZM3.96706 24.3327H9.94029V29.1604H3.96706V24.3327ZM14.578 29.1604V24.3327H20.5513V29.1604H14.578ZM12.2592 23.5686H20.8289L20.6389 23.9032H12.2592H3.87793L3.68944 23.5686H12.2592ZM12.2592 30.3074H10.3713V24.3327H12.2592H14.147V30.3074H12.2592ZM20.9911 30.3074H14.578V29.59H20.6331L20.9911 30.3074ZM23.3041 33.4621L23.7775 34.5127H23.5744H23.3947H22.8804C22.781 34.0729 22.3894 33.7426 21.9189 33.7426C21.4499 33.7426 21.0554 34.0729 20.9575 34.5127H20.449C20.3496 34.0729 19.9566 33.7426 19.489 33.7426C19.0185 33.7426 18.6255 34.0729 18.5261 34.5127H18.0176C17.9197 34.0729 17.5252 33.7426 17.0562 33.7426C16.5857 33.7426 16.1941 34.0729 16.0947 34.5127H15.2224V33.4621H21.7217H23.3041ZM21.406 34.5127C21.4908 34.314 21.6895 34.1722 21.9189 34.1722C22.1498 34.1722 22.347 34.314 22.4318 34.5127H21.406ZM18.9747 34.5127C19.0594 34.314 19.2581 34.1722 19.489 34.1722C19.7184 34.1722 19.9156 34.314 20.0004 34.5127H18.9747ZM16.5433 34.5127C16.628 34.314 16.8253 34.1722 17.0562 34.1722C17.2856 34.1722 17.4843 34.314 17.569 34.5127H16.5433ZM6.9493 34.5127C7.03259 34.314 7.2313 34.1722 7.46216 34.1722C7.69156 34.1722 7.88882 34.314 7.97357 34.5127H6.9493ZM4.51792 34.5127C4.60267 34.314 4.80138 34.1722 5.03078 34.1722C5.26165 34.1722 5.4589 34.314 5.54219 34.5127H4.51792ZM2.08654 34.5127C2.17129 34.314 2.36854 34.1722 2.59795 34.1722C2.82881 34.1722 3.02753 34.314 3.11228 34.5127H2.08654ZM1.33843 42.59V34.9437H9.29592V42.59H1.33843ZM12.2592 42.59H9.72551V33.4621H12.2592H14.7928V42.59H12.2592ZM15.2224 42.59V34.9437H23.1799V42.59H15.2224ZM24.3035 42.59H23.6109V34.9437H24.1121C24.1837 34.9437 24.2524 34.9057 24.2918 34.8444C24.3313 34.783 24.3371 34.7055 24.3064 34.6398L23.6387 33.1582C23.6036 33.0807 23.5277 33.031 23.4429 33.031H21.9364V31.5027H22.2477C22.366 31.5027 22.4639 31.4062 22.4639 31.2864V30.5222C22.4639 30.4039 22.366 30.3074 22.2477 30.3074H21.4733L20.9808 29.3241V24.1749L21.3841 23.459C21.4206 23.3918 21.4192 23.3114 21.3827 23.2442C21.3432 23.1784 21.2716 23.139 21.1956 23.139H20.9808V22.1892C20.9808 22.0694 20.8844 21.973 20.7661 21.973H20.5264V17.9226C20.5264 17.8043 20.43 17.7078 20.3116 17.7078H19.9244V16.4951C19.9244 16.3767 19.828 16.2803 19.7096 16.2803H19.5226V13.073C19.5226 12.9547 19.4262 12.8582 19.3078 12.8582H19.1164V11.9275C19.1164 11.8091 19.0214 11.7127 18.9016 11.7127H18.6868V9.39528C18.6868 9.27692 18.5904 9.18048 18.472 9.18048H18.304V8.5478C18.304 8.42799 18.2076 8.33301 18.0892 8.33301H17.8379V6.565C17.8379 6.44519 17.7414 6.34875 17.6231 6.34875H17.515V5.90164C17.515 5.78183 17.42 5.68538 17.3002 5.68538H17.0722V4.40395V1.96234C17.1833 1.79577 17.4565 1.3282 17.3878 0.838713C17.3557 0.616616 17.2607 0.420819 17.1029 0.254246C17.0562 0.198722 17.0021 0.149032 16.9407 0.111041C16.9393 0.10958 16.9378 0.108122 16.9363 0.10666C16.9188 0.094971 16.8998 0.0862132 16.8823 0.0789074C16.7858 0.030689 16.6792 -7.52748e-08 16.5652 -7.52748e-08C16.1765 -7.52748e-08 15.8595 0.315614 15.8595 0.704283C15.8595 0.835788 15.8975 0.957062 15.9603 1.06227C15.9632 1.06519 15.9632 1.06957 15.9661 1.07395C16.0465 1.22884 16.0538 1.35887 15.9866 1.46992C15.8916 1.63065 15.6593 1.7271 15.4913 1.7271H15.4197V1.53567C15.5059 1.42316 15.6476 1.19377 15.6125 0.945373C15.5994 0.846014 15.5526 0.711579 15.4167 0.593225C15.389 0.194328 15.2136 -7.52748e-08 14.8849 -7.52748e-08C14.5546 -7.52748e-08 14.3793 0.194328 14.353 0.593225C14.2157 0.711579 14.1689 0.846014 14.1557 0.945373C14.1221 1.19377 14.2639 1.42316 14.3501 1.53567V1.7271H13.7247V1.53567C13.8094 1.42316 13.9526 1.19377 13.9176 0.945373C13.9044 0.846014 13.8577 0.711579 13.7203 0.593225C13.694 0.194328 13.5201 -7.52748e-08 13.1899 -7.52748e-08C12.8582 -7.52748e-08 12.6829 0.194328 12.6581 0.593225C12.5207 0.711579 12.474 0.846014 12.4593 0.945373C12.4272 1.19377 12.5689 1.42316 12.6551 1.53567V1.7271H12.265C12.2635 1.7271 12.2606 1.72855 12.2592 1.72855C12.2562 1.72855 12.2548 1.7271 12.2533 1.7271H11.8632V1.53567C11.9494 1.42316 12.0911 1.19377 12.0575 0.945373C12.0444 0.846014 11.9962 0.711579 11.8603 0.593225C11.834 0.194328 11.6601 -7.52748e-08 11.3284 -7.52748e-08C10.9982 -7.52748e-08 10.8243 0.194328 10.7965 0.593225C10.6607 0.711579 10.6139 0.846014 10.6007 0.945373C10.5657 1.19377 10.7074 1.42316 10.7936 1.53567V1.7271H10.1682V1.53567C10.253 1.42316 10.3962 1.19377 10.3626 0.945373C10.3494 0.846014 10.3027 0.711579 10.1639 0.593225C10.139 0.194328 9.96367 -7.52748e-08 9.63345 -7.52748e-08C9.30322 -7.52748e-08 9.12789 0.194328 9.10159 0.593225C8.96424 0.711579 8.91894 0.846014 8.90433 0.945373C8.87073 1.19377 9.01246 1.42316 9.09866 1.53567V1.7271H9.02706C8.85903 1.7271 8.6267 1.63065 8.53027 1.46992C8.46451 1.35887 8.47182 1.22884 8.55218 1.07395C8.55365 1.06957 8.55512 1.06518 8.55658 1.0608C8.62087 0.955592 8.65739 0.835788 8.65739 0.704283C8.65739 0.315614 8.34178 -7.52748e-08 7.95311 -7.52748e-08C7.83914 -7.52748e-08 7.73102 0.030689 7.63605 0.0789074C7.61705 0.0862132 7.59951 0.094971 7.58198 0.10666C7.58052 0.108122 7.57906 0.10958 7.5776 0.111041C7.51623 0.149032 7.46217 0.198722 7.41395 0.254246C7.25614 0.420819 7.16262 0.616616 7.13048 0.838713C7.0618 1.3282 7.33505 1.79577 7.44609 1.96234V4.40395V5.68538H7.21669C7.09834 5.68538 7.0019 5.78183 7.0019 5.90164V6.34875H6.89376C6.77541 6.34875 6.67898 6.44519 6.67898 6.565V8.33301H6.42766C6.30931 8.33301 6.21287 8.42799 6.21287 8.5478V9.18048H6.04629C5.92794 9.18048 5.83151 9.27692 5.83151 9.39528V11.7127H5.61672C5.4969 11.7127 5.40192 11.8091 5.40192 11.9275V12.8582H5.20905C5.09069 12.8582 4.99425 12.9547 4.99425 13.073V16.2803H4.8087C4.69034 16.2803 4.5939 16.3767 4.5939 16.4951V17.7078H4.20522C4.08687 17.7078 3.99044 17.8043 3.99044 17.9226V21.973H3.75226C3.63391 21.973 3.53748 22.0694 3.53748 22.1892V23.139H3.32269C3.24525 23.139 3.17512 23.1784 3.13566 23.2442C3.09767 23.3114 3.09767 23.3918 3.13419 23.459L3.53748 24.1749V29.3241L3.04507 30.3074H2.27065C2.15084 30.3074 2.0544 30.4039 2.0544 30.5222V31.2864C2.0544 31.4062 2.15084 31.5027 2.27065 31.5027H2.58188V33.031H1.07542C0.990677 33.031 0.91323 33.0807 0.879623 33.1582L0.210413 34.6398C0.179729 34.7055 0.187035 34.783 0.225025 34.8444C0.265937 34.9057 0.333142 34.9437 0.4062 34.9437H0.907391V42.59H0.214794C0.0964396 42.59 0 42.6864 0 42.8048V43.7852C0 43.9036 0.0964396 44 0.214794 44H12.2592H24.3035C24.4219 44 24.5183 43.9036 24.5183 43.7852V42.8048C24.5183 42.6864 24.4219 42.59 24.3035 42.59Z" fill="#858585"/>
<path d="M20.9221 32.7979C21.0397 32.7979 21.1372 32.7018 21.1372 32.5828V31.9491C21.1372 31.83 21.0397 31.734 20.9221 31.734C20.8031 31.734 20.707 31.83 20.707 31.9491V32.5828C20.707 32.7018 20.8031 32.7979 20.9221 32.7979Z" fill="#858585"/>
<path d="M19.6858 32.7979C19.8048 32.7979 19.9008 32.7018 19.9008 32.5828V31.9491C19.9008 31.83 19.8048 31.734 19.6858 31.734C19.5668 31.734 19.4707 31.83 19.4707 31.9491V32.5828C19.4707 32.7018 19.5668 32.7979 19.6858 32.7979Z" fill="#858585"/>
<path d="M18.4494 32.7979C18.567 32.7979 18.6645 32.7018 18.6645 32.5828V31.9491C18.6645 31.83 18.567 31.734 18.4494 31.734C18.3304 31.734 18.2344 31.83 18.2344 31.9491V32.5828C18.2344 32.7018 18.3304 32.7979 18.4494 32.7979Z" fill="#858585"/>
<path d="M17.2121 32.7979C17.3311 32.7979 17.4272 32.7018 17.4272 32.5828V31.9491C17.4272 31.83 17.3311 31.734 17.2121 31.734C17.0931 31.734 16.9971 31.83 16.9971 31.9491V32.5828C16.9971 32.7018 17.0931 32.7979 17.2121 32.7979Z" fill="#858585"/>
<path d="M15.9758 32.7979C16.0934 32.7979 16.1909 32.7018 16.1909 32.5828V31.9491C16.1909 31.83 16.0934 31.734 15.9758 31.734C15.8568 31.734 15.7607 31.83 15.7607 31.9491V32.5828C15.7607 32.7018 15.8568 32.7979 15.9758 32.7979Z" fill="#858585"/>
<path d="M14.7385 32.7979C14.8575 32.7979 14.9536 32.7018 14.9536 32.5828V31.9491C14.9536 31.83 14.8575 31.734 14.7385 31.734C14.6195 31.734 14.5234 31.83 14.5234 31.9491V32.5828C14.5234 32.7018 14.6195 32.7979 14.7385 32.7979Z" fill="#858585"/>
<path d="M13.5032 32.7979C13.6207 32.7979 13.7182 32.7018 13.7182 32.5828V31.9491C13.7182 31.83 13.6207 31.734 13.5032 31.734C13.3841 31.734 13.2881 31.83 13.2881 31.9491V32.5828C13.2881 32.7018 13.3841 32.7979 13.5032 32.7979Z" fill="#858585"/>
<path d="M22.7145 41.6329H15.7248C15.6058 41.6329 15.5098 41.7304 15.5098 41.8479C15.5098 41.9669 15.6058 42.063 15.7248 42.063H22.7145C22.8321 42.063 22.9296 41.9669 22.9296 41.8479C22.9296 41.7304 22.8321 41.6329 22.7145 41.6329Z" fill="#858585"/>
<path d="M22.7145 40.6836H15.7248C15.6058 40.6836 15.5098 40.7797 15.5098 40.8987C15.5098 41.0177 15.6058 41.1138 15.7248 41.1138H22.7145C22.8321 41.1138 22.9296 41.0177 22.9296 40.8987C22.9296 40.7797 22.8321 40.6836 22.7145 40.6836Z" fill="#858585"/>
<path d="M15.7248 35.8618H22.7145C22.8321 35.8618 22.9296 35.7658 22.9296 35.6467C22.9296 35.5292 22.8321 35.4317 22.7145 35.4317H15.7248C15.6058 35.4317 15.5098 35.5292 15.5098 35.6467C15.5098 35.7658 15.6058 35.8618 15.7248 35.8618Z" fill="#858585"/>
<path d="M21.9268 36.3278V40.199C21.9268 40.318 22.0228 40.4141 22.1418 40.4141C22.2594 40.4141 22.3569 40.318 22.3569 40.199V36.3278C22.3569 36.2102 22.2594 36.1127 22.1418 36.1127C22.0228 36.1127 21.9268 36.2102 21.9268 36.3278Z" fill="#858585"/>
<path d="M20.4736 36.3278V40.199C20.4736 40.318 20.5697 40.4141 20.6887 40.4141C20.8077 40.4141 20.9038 40.318 20.9038 40.199V36.3278C20.9038 36.2102 20.8077 36.1127 20.6887 36.1127C20.5697 36.1127 20.4736 36.2102 20.4736 36.3278Z" fill="#858585"/>
<path d="M19.0225 36.3278V40.199C19.0225 40.318 19.1185 40.4141 19.2375 40.4141C19.3551 40.4141 19.4526 40.318 19.4526 40.199V36.3278C19.4526 36.2102 19.3551 36.1127 19.2375 36.1127C19.1185 36.1127 19.0225 36.2102 19.0225 36.3278Z" fill="#858585"/>
<path d="M17.5703 36.3278V40.199C17.5703 40.318 17.6664 40.4141 17.7854 40.4141C17.9044 40.4141 18.0004 40.318 18.0004 40.199V36.3278C18.0004 36.2102 17.9044 36.1127 17.7854 36.1127C17.6664 36.1127 17.5703 36.2102 17.5703 36.3278Z" fill="#858585"/>
<path d="M16.1191 36.3278V40.199C16.1191 40.318 16.2152 40.4141 16.3342 40.4141C16.4518 40.4141 16.5493 40.318 16.5493 40.199V36.3278C16.5493 36.2102 16.4518 36.1127 16.3342 36.1127C16.2152 36.1127 16.1191 36.2102 16.1191 36.3278Z" fill="#858585"/>
<path d="M20.151 28.4424H15.008C14.889 28.4424 14.793 28.5399 14.793 28.6575C14.793 28.7765 14.889 28.8726 15.008 28.8726H20.151C20.27 28.8726 20.3661 28.7765 20.3661 28.6575C20.3661 28.5399 20.27 28.4424 20.151 28.4424Z" fill="#858585"/>
<path d="M19.6858 28.084C19.8048 28.084 19.9008 27.9879 19.9008 27.8689V24.9297C19.9008 24.8121 19.8048 24.7146 19.6858 24.7146C19.5668 24.7146 19.4707 24.8121 19.4707 24.9297V27.8689C19.4707 27.9879 19.5668 28.084 19.6858 28.084Z" fill="#858585"/>
<path d="M18.6369 28.084C18.7559 28.084 18.852 27.9879 18.852 27.8689V24.9297C18.852 24.8121 18.7559 24.7146 18.6369 24.7146C18.5179 24.7146 18.4219 24.8121 18.4219 24.9297V27.8689C18.4219 27.9879 18.5179 28.084 18.6369 28.084Z" fill="#858585"/>
<path d="M17.5891 28.084C17.7067 28.084 17.8042 27.9879 17.8042 27.8689V24.9297C17.8042 24.8121 17.7067 24.7146 17.5891 24.7146C17.4701 24.7146 17.374 24.8121 17.374 24.9297V27.8689C17.374 27.9879 17.4701 28.084 17.5891 28.084Z" fill="#858585"/>
<path d="M16.5393 28.084C16.6583 28.084 16.7544 27.9879 16.7544 27.8689V24.9297C16.7544 24.8121 16.6583 24.7146 16.5393 24.7146C16.4203 24.7146 16.3242 24.8121 16.3242 24.9297V27.8689C16.3242 27.9879 16.4203 28.084 16.5393 28.084Z" fill="#858585"/>
<path d="M15.4914 28.084C15.6104 28.084 15.7065 27.9879 15.7065 27.8689V24.9297C15.7065 24.8121 15.6104 24.7146 15.4914 24.7146C15.3724 24.7146 15.2764 24.8121 15.2764 24.9297V27.8689C15.2764 27.9879 15.3724 28.084 15.4914 28.084Z" fill="#858585"/>
<path d="M19.3928 22.9854H20.0265C20.1441 22.9854 20.2416 22.8893 20.2416 22.7703C20.2416 22.6513 20.1441 22.5552 20.0265 22.5552H19.3928C19.2738 22.5552 19.1777 22.6513 19.1777 22.7703C19.1777 22.8893 19.2738 22.9854 19.3928 22.9854Z" fill="#858585"/>
<path d="M17.7287 22.9854H18.361C18.48 22.9854 18.5761 22.8893 18.5761 22.7703C18.5761 22.6513 18.48 22.5552 18.361 22.5552H17.7287C17.6097 22.5552 17.5137 22.6513 17.5137 22.7703C17.5137 22.8893 17.6097 22.9854 17.7287 22.9854Z" fill="#858585"/>
<path d="M16.0617 22.9854H16.6941C16.8131 22.9854 16.9091 22.8893 16.9091 22.7703C16.9091 22.6513 16.8131 22.5552 16.6941 22.5552H16.0617C15.9427 22.5552 15.8467 22.6513 15.8467 22.7703C15.8467 22.8893 15.9427 22.9854 16.0617 22.9854Z" fill="#858585"/>
<path d="M14.3977 22.9854H15.03C15.149 22.9854 15.245 22.8893 15.245 22.7703C15.245 22.6513 15.149 22.5552 15.03 22.5552H14.3977C14.2787 22.5552 14.1826 22.6513 14.1826 22.7703C14.1826 22.8893 14.2787 22.9854 14.3977 22.9854Z" fill="#858585"/>
<path d="M12.7317 22.9854H13.364C13.483 22.9854 13.579 22.8893 13.579 22.7703C13.579 22.6513 13.483 22.5552 13.364 22.5552H12.7317C12.6127 22.5552 12.5166 22.6513 12.5166 22.7703C12.5166 22.8893 12.6127 22.9854 12.7317 22.9854Z" fill="#858585"/>
<path d="M13.0082 19.3032C12.8892 19.2917 12.7831 19.3763 12.7716 19.4953L12.6153 20.9678H12.2655C12.2626 20.9678 12.2612 20.9692 12.2597 20.9692C12.2569 20.9692 12.2554 20.9678 12.254 20.9678H11.9027L11.7479 19.4953C11.735 19.3763 11.6289 19.2917 11.5113 19.3032C11.3938 19.3161 11.3077 19.4222 11.3206 19.5397L11.4955 21.2058C11.507 21.3148 11.6002 21.3979 11.7092 21.3979H12.0432L12.0447 21.5011C12.0447 21.5069 12.0461 21.5126 12.0461 21.5184C12.0476 21.5255 12.0476 21.5327 12.049 21.5399C12.0504 21.547 12.0533 21.5528 12.0547 21.5599C12.0576 21.5671 12.059 21.5743 12.0619 21.58C12.0648 21.5872 12.0676 21.5929 12.0705 21.5986C12.0748 21.6044 12.0777 21.6101 12.0805 21.6173C12.0848 21.6216 12.0891 21.6273 12.0934 21.6316C12.0977 21.6374 12.102 21.6431 12.1078 21.6488C12.1121 21.6531 12.1164 21.656 12.1221 21.6603C12.1278 21.666 12.1321 21.6703 12.1393 21.6746C12.1436 21.6775 12.1493 21.6804 12.1551 21.6847C12.1622 21.6875 12.168 21.6918 12.1752 21.6947C12.1809 21.6976 12.1881 21.699 12.1938 21.7004C12.201 21.7033 12.2067 21.7062 12.2153 21.7076C12.221 21.709 12.2282 21.709 12.2354 21.709C12.2425 21.7105 12.2483 21.7119 12.2554 21.7119C12.2569 21.7119 12.2583 21.7119 12.2597 21.7119C12.2612 21.7119 12.2626 21.7119 12.2641 21.7119C12.2698 21.7119 12.277 21.7105 12.2827 21.709C12.2899 21.709 12.297 21.709 12.3042 21.7076C12.3114 21.7062 12.3185 21.7033 12.3257 21.7004C12.3314 21.699 12.3386 21.6976 12.3443 21.6947C12.3515 21.6918 12.3572 21.6875 12.363 21.6847C12.3687 21.6804 12.3744 21.6775 12.3802 21.6746C12.3859 21.6703 12.3917 21.666 12.3974 21.6603C12.4017 21.656 12.4074 21.6531 12.4117 21.6488C12.4175 21.6431 12.4218 21.6374 12.4261 21.6316C12.4304 21.6273 12.4347 21.6216 12.4375 21.6173C12.4418 21.6101 12.4447 21.6044 12.4476 21.5986C12.4519 21.5929 12.4547 21.5872 12.4576 21.58C12.4605 21.5743 12.4619 21.5671 12.4633 21.5599C12.4662 21.5528 12.4691 21.547 12.4705 21.5399C12.4719 21.5327 12.472 21.5255 12.472 21.5184C12.4734 21.5126 12.4748 21.5069 12.4748 21.5011L12.4763 21.3979H12.8089C12.9193 21.3979 13.011 21.3148 13.0225 21.2058L13.1989 19.5397C13.2118 19.4222 13.1257 19.3161 13.0082 19.3032Z" fill="#858585"/>
<path d="M12.2655 8.33203H12.2626C12.2612 8.33203 12.2612 8.33203 12.2597 8.33203C12.2583 8.33203 12.2569 8.33203 12.2554 8.33203H12.254H11.8525V7.61084H12.254C12.2554 7.61084 12.2569 7.60942 12.2597 7.60942C12.2612 7.60942 12.264 7.61084 12.2655 7.61084H12.6669V8.33203H12.2655Z" fill="#FFCC05"/>
</svg>
