<?xml version="1.0" standalone="no"?>
<!DOCTYPE svg PUBLIC "-//W3C//DTD SVG 20010904//EN"
 "http://www.w3.org/TR/2001/REC-SVG-20010904/DTD/svg10.dtd">
<svg version="1.0" xmlns="http://www.w3.org/2000/svg"
 width="315.000000pt" height="315.000000pt" viewBox="0 0 315.000000 315.000000"
 preserveAspectRatio="xMidYMid meet">
<metadata>
Created by potrace 1.11, written by Peter Selinger 2001-2013
</metadata>
<g transform="translate(0.000000,315.000000) scale(0.100000,-0.100000)"
fill="#000000" stroke="none">
<path d="M1665 2867 l-27 -22 1 -1270 0 -1270 26 -22 c38 -33 117 -32 150 2
l25 24 0 1266 0 1266 -25 24 c-33 34 -112 35 -150 2z"/>
<path d="M1138 2715 c-2 -2 -30 -7 -63 -10 -33 -4 -63 -9 -67 -12 -5 -2 -16
-6 -26 -8 -155 -29 -379 -150 -507 -273 -186 -177 -293 -374 -351 -647 -13
-64 -12 -300 3 -385 79 -460 433 -826 896 -926 39 -8 129 -17 200 -20 l127 -4
0 1144 0 1145 -104 -1 c-57 0 -106 -1 -108 -3z"/>
<path d="M2488 2085 c-2 -1 -21 -5 -43 -8 -61 -7 -146 -43 -207 -86 -205 -147
-269 -422 -152 -653 34 -67 137 -167 211 -206 113 -59 270 -75 388 -38 61 19
158 76 203 119 89 86 149 222 155 352 2 46 -15 145 -33 194 -55 144 -183 264
-326 306 -45 13 -187 28 -196 20z"/>
</g>
</svg>
