<svg xmlns="http://www.w3.org/2000/svg" id="Layer_1" version="1" viewBox="0 0 161 26">
    <style>
        .st0{fill:#191516}.st1{fill:#ffcc05}.st2{fill:#f7e034}
    </style>
    <path d="M59.6 16.1c-.5 1-1 1.9-1.7 2.6-.7.7-1.4 1.3-2.1 1.7-.7.5-1.5.8-2.3 1-.8.2-1.6.3-2.3.3-1.3 0-2.5-.2-3.6-.7-1.1-.5-2.1-1.2-2.9-2-.8-.8-1.5-1.8-1.9-2.9-.5-1.1-.7-2.3-.7-3.5 0-1.2.2-2.4.7-3.5.5-1.1 1.1-2.1 1.9-2.9.8-.8 1.8-1.5 2.9-2 1.1-.5 2.3-.7 3.6-.7.7 0 1.4.1 2.1.2.7.2 1.4.5 2.2.8.7.4 1.4.9 2 1.5.7.6 1.2 1.4 1.7 2.2-.4.3-.8.6-1.2.8-.4.3-.9.6-1.3.9-.7-1.2-1.5-2-2.5-2.6-.9-.6-1.9-.8-3-.8-.9 0-1.6.2-2.4.5-.7.3-1.4.8-1.9 1.3s-1 1.2-1.3 1.9c-.3.7-.5 1.5-.5 2.3 0 .9.2 1.6.5 2.4s.8 1.4 1.3 1.9c.6.5 1.2 1 1.9 1.3.7.3 1.5.5 2.3.5.5 0 1-.1 1.5-.2.5-.2 1.1-.4 1.6-.7.5-.3 1-.7 1.4-1.2.4-.5.8-1.1 1-1.7l3 1.3zM81.9 12.6c0 1.3-.2 2.5-.7 3.6-.5 1.1-1.2 2.1-2 2.9-.8.8-1.8 1.5-2.9 1.9-1.1.5-2.3.7-3.5.7-1.3 0-2.5-.2-3.6-.7-1.1-.5-2.1-1.2-2.9-2-.8-.8-1.5-1.8-1.9-2.9-.5-1.1-.7-2.3-.7-3.5 0-1.2.2-2.4.7-3.5.3-1.1.9-2.1 1.8-3 .8-.8 1.8-1.5 2.9-2 1.1-.5 2.3-.7 3.6-.7s2.5.2 3.6.7c1.1.5 2.1 1.2 2.9 2s1.4 1.8 1.9 2.9c.5 1.2.8 2.3.8 3.6zm-3.1 0c0-.8-.2-1.6-.5-2.3-.4-.7-.8-1.3-1.3-1.9-.5-.5-1.2-1-1.9-1.3-.7-.3-1.5-.5-2.3-.5s-1.6.2-2.3.5c-.7.3-1.4.7-1.9 1.3-.5.5-1 1.2-1.3 1.9-.3.7-.5 1.5-.5 2.3s.2 1.6.5 2.3c.3.7.7 1.4 1.3 1.9.5.5 1.2 1 1.9 1.3.7.3 1.5.5 2.3.5.8 0 1.5-.2 2.3-.5.7-.3 1.4-.7 1.9-1.3.6-.5 1-1.2 1.4-1.9.2-.7.4-1.5.4-2.3zM99.6 6.5H89.4v4h7.4v3.2h-7.3v8h-3V3.4h13.2l-.1 3.1zM120.2 3.4l-6.3 9.2v9.1h-3.5v-9.1l-6.3-9.2h3.7l4.5 6.4 4.6-6.4h3.3zM140.1 21.7L127.8 11v10.8h-3.1V3.4L137 14.2V3.4h3.1v18.3zM161 12.6c0 .8-.1 1.6-.4 2.6-.2.9-.6 1.7-1.2 2.5-.5.8-1.2 1.5-2 2.2-.8.7-1.8 1.2-2.9 1.5-.1 0-.3.1-.5.1s-.4.1-.7.1c-.2 0-.4.1-.6.1h-7.3V3.4h7c.1 0 .4 0 .6.1.3 0 .6.1.9.2.3.1.6.2.8.2.2.1.4.1.5.2 1 .5 1.9 1 2.6 1.6.7.7 1.3 1.3 1.8 2.1.5.7.8 1.5 1 2.3.3.9.4 1.7.4 2.5zm-3.1 0c0-.8-.2-1.5-.5-2.3-.3-.7-.7-1.4-1.3-1.9-.5-.6-1.2-1-1.9-1.4-.7-.3-1.5-.5-2.4-.5h-3.3v12.1h3.2c.8 0 1.6-.2 2.3-.5.7-.3 1.4-.7 2-1.3.6-.5 1-1.2 1.4-1.9.3-.6.5-1.4.5-2.3z" class="st0"/>
    <g>
        <circle cx="24" cy="13" r="5" class="st1"/>
    </g>
    <g>
        <path d="M11.3 1.7C5.1 1.7 0 6.8 0 13s5.1 11.3 11.3 11.3h.9V1.7h-.9z" class="st2"/>
    </g>
    <g>
        <path d="M16.4 26h-.5c-.4 0-.7-.3-.7-.7V.7c0-.4.3-.7.7-.7h.5c.4 0 .7.3.7.7v24.6c0 .4-.3.7-.7.7z" class="st0"/>
    </g>
</svg>