<?xml version="1.0" encoding="iso-8859-1"?>
<!-- Generator: Adobe Illustrator 19.0.0, SVG Export Plug-In . SVG Version: 6.00 Build 0)  -->
<svg version="1.1" id="Capa_1" xmlns="http://www.w3.org/2000/svg" xmlns:xlink="http://www.w3.org/1999/xlink" x="0px" y="0px"
	 viewBox="0 0 512.8 512.8" style="enable-background:new 0 0 512.8 512.8;" xml:space="preserve">
<path style="fill:#FFFFFF;" d="M386,79.2H126.8c-21.6,0-39.2,17.6-39.2,39.2v252c0,31.2,24.8,56,56,56h225.6c31.2,0,56-24.8,56-56
	v-252C425.2,96.8,407.6,79.2,386,79.2z"/>
<path style="fill:#fdebb3;" d="M367.6,112.8H145.2c-12,0-22.4,9.6-22.4,22.4v125.6c0,12,9.6,22.4,22.4,22.4h223.2
	c12,0,22.4-9.6,22.4-22.4V134.4C390,122.4,380.4,112.8,367.6,112.8z"/>
<g>
	<circle style="fill:#ffda66;" cx="361.2" cy="358.4" r="32"/>
	<circle style="fill:#ffda66;" cx="150.8" cy="358.4" r="32"/>
</g>
<g>
	<path style="fill:#494949;" d="M386,71.2H281.2L304.4,16h6.4c14.4,0,25.6,11.2,25.6,25.6c0,4,3.2,8,8,8s8-3.2,8-8
		C352.4,18.4,334,0,310.8,0c-41.6,0-11.2,0-109.6,0c-23.2,0-41.6,18.4-41.6,41.6c0,4,3.2,8,8,8c4,0,8-3.2,8-8
		c0-14.4,11.2-25.6,25.6-25.6h7.2l23.2,56H126.8c-26.4,0-47.2,21.6-47.2,47.2v252c0,35.2,28.8,64,64,64h29.6L123.6,500
		c-2.4,3.2-2.4,8,1.6,11.2c1.6,0.8,3.2,1.6,4.8,1.6c2.4,0,4.8-0.8,6.4-3.2l24-31.2h192.8l24,31.2c1.6,2.4,4,3.2,6.4,3.2
		c1.6,0,3.2-0.8,4.8-1.6c3.2-2.4,4-7.2,1.6-11.2l-49.6-64.8H370c35.2,0,64-28.8,64-64V118.4C433.2,92.8,411.6,71.2,386,71.2z
		 M225.2,16h61.6l-23.2,56h-15.2L225.2,16z M319.6,435.2l20.8,27.2H171.6l20.8-27.2H319.6z M417.2,371.2c0,26.4-21.6,48-48,48H143.6
		c-26.4,0-48-21.6-48-48V118.4c0-17.6,14.4-31.2,31.2-31.2h116.8h25.6H386c17.6,0,31.2,14.4,31.2,31.2V371.2z"/>
	<rect x="207.6" y="346.4" style="fill:#494949;" width="98.4" height="10.4"/>
	<rect x="207.6" y="372.8" style="fill:#494949;" width="98.4" height="10.4"/>
	<rect x="206" y="308.8" style="fill:#494949;" width="16" height="16"/>
	<rect x="248.4" y="308.8" style="fill:#494949;" width="16" height="16"/>
	<rect x="290.8" y="308.8" style="fill:#494949;" width="16" height="16"/>
</g>
<g>
</g>
<g>
</g>
<g>
</g>
<g>
</g>
<g>
</g>
<g>
</g>
<g>
</g>
<g>
</g>
<g>
</g>
<g>
</g>
<g>
</g>
<g>
</g>
<g>
</g>
<g>
</g>
<g>
</g>
</svg>
