<svg width="512" height="512" viewBox="0 0 512 512" fill="none" xmlns="http://www.w3.org/2000/svg">
<g clip-path="url(#clip0_3760_653)">
<circle cx="256" cy="512" r="200" fill="#FFE785"/>
<path d="M384.041 351.152C388.459 351.152 392.041 347.571 392.041 343.152C392.041 338.734 388.459 335.152 384.041 335.152C379.623 335.152 376.041 338.734 376.041 343.152C376.041 347.571 379.623 351.152 384.041 351.152Z" fill="#494949"/>
<path d="M431.793 132.657C430.689 128.369 426.337 125.825 422.049 126.897L406.049 131.009C401.777 132.113 399.201 136.473 400.289 140.745C401.217 144.361 404.465 146.753 408.033 146.753C408.697 146.753 409.361 146.673 410.033 146.505L426.033 142.393C430.305 141.297 432.881 136.937 431.793 132.657V132.657Z" fill="#494949"/>
<path d="M504.041 279.153H472.041C467.617 279.153 464.041 282.737 464.041 287.153V399.153C464.041 403.561 460.457 407.153 456.041 407.153H440.041V383.153C440.041 374.329 432.865 367.153 424.041 367.153H415.809C416.713 365.953 417.697 364.825 418.473 363.513C423.913 354.313 425.441 343.553 422.785 333.201C420.449 324.121 415.065 316.705 408.113 311.441C425.297 303.505 434.977 284.225 430.113 265.241L428.121 257.497L435.873 255.505C454.497 250.713 470.145 238.969 479.937 222.409C489.729 205.849 492.473 186.481 487.697 167.857L477.745 129.113L500.993 123.145C505.265 122.041 507.841 117.681 506.753 113.409L500.785 90.1607C484.305 26.0727 418.753 -12.6713 354.689 3.78474L230.721 35.6247L224.753 12.3847C223.649 8.09674 219.281 5.56874 215.009 6.62474L153.017 22.5447C150.961 23.0727 149.201 24.3927 148.129 26.2247C147.041 28.0487 146.737 30.2247 147.265 32.2887L153.233 55.5287L6.00917 93.3367C1.73717 94.4407 -0.838834 98.8007 0.249166 103.073L4.22517 118.577C8.51317 135.273 21.1452 147.609 36.5052 152.401C37.2012 173.049 40.6652 196.105 46.5932 219.201C55.0572 252.137 67.6332 282.041 82.0012 303.393C98.8172 328.369 113.217 334.881 123.665 334.881C125.889 334.881 127.945 334.585 129.801 334.113C130.641 333.897 131.497 333.609 132.369 333.281C132.809 333.241 133.241 333.225 133.681 333.113L215.033 312.217H215.041H215.049L304.145 289.337L306.129 297.081C310.761 315.113 327.057 327.137 344.889 327.137C345.809 327.137 346.745 327.025 347.665 326.961C343.993 335.177 343.033 344.257 345.297 353.097C346.649 358.369 349.097 363.049 352.193 367.145H344.041C335.217 367.145 328.041 374.321 328.041 383.145V407.145C328.041 415.969 335.217 423.145 344.041 423.145H352.041V431.145C352.041 453.201 369.985 471.145 392.041 471.145H448.041V503.145C448.041 507.561 451.617 511.145 456.041 511.145H504.041C508.465 511.145 512.041 507.561 512.041 503.145V463.145V287.153C512.041 282.737 508.465 279.153 504.041 279.153V279.153ZM211.241 24.1127L215.217 39.6087L168.729 51.5527L164.753 36.0567L211.241 24.1127ZM140.937 282.737C139.121 302.937 133.329 316.689 125.809 318.617C118.305 320.577 106.601 311.289 95.2732 294.465C81.8972 274.585 70.1052 246.441 62.0972 215.225C56.7052 194.233 53.5292 173.401 52.6732 154.577C55.9852 154.441 59.3292 153.985 62.6652 153.129L68.4492 151.641C68.9292 165.801 71.0652 185.857 77.5852 211.241C88.3612 253.177 102.673 277.353 110.249 288.033C111.769 290.185 114.217 291.401 116.769 291.401C117.433 291.401 118.097 291.321 118.761 291.153C121.969 290.329 124.337 287.609 124.713 284.321C126.209 271.321 127.105 243.257 116.329 201.289C110.897 180.161 103.697 160.849 95.5132 144.689L111.377 140.617C119.489 157.297 126.553 176.809 131.825 197.313C139.857 228.529 143.089 258.865 140.937 282.737ZM84.8572 159.137C89.9852 170.345 95.7932 185.633 100.841 205.273C105.809 224.633 108.161 240.721 109.097 253.489C103.761 241.849 98.0572 226.617 93.0892 207.265C88.0732 187.745 85.7852 171.593 84.8572 159.137V159.137ZM211.057 296.721L150.929 312.161C153.681 305.121 155.817 296.017 156.881 284.161C159.185 258.521 155.793 226.265 147.337 193.329C142.105 172.969 135.121 153.553 127.137 136.569L196.585 118.729C204.705 135.433 211.793 154.849 217.073 175.409C234.937 245.017 225.617 292.977 211.057 296.721V296.721ZM307.913 271.849C307.905 271.849 307.905 271.849 307.905 271.849L235.961 290.329C246.673 262.937 243.793 215.137 232.569 171.433C227.321 151.025 220.337 131.681 212.345 114.689L225.393 111.337C242.481 106.937 259.953 117.281 264.345 134.361C267.529 146.777 275.369 157.217 286.409 163.737C293.913 168.169 302.265 170.441 310.761 170.441C314.761 170.441 318.801 169.937 322.785 168.913L378.041 154.721C382.313 153.617 384.889 149.257 383.801 144.985C382.697 140.705 378.337 138.137 374.057 139.225L318.801 153.417C310.521 155.553 301.921 154.321 294.553 149.969C287.193 145.625 281.977 138.665 279.849 130.385C273.257 104.745 247.025 89.2647 221.409 95.8407L58.6812 137.633C41.5852 142.009 24.1212 131.689 19.7292 114.601L17.7372 106.849L164.953 69.0407H164.961L226.953 53.1207C226.961 53.1207 226.969 53.1127 226.977 53.1127L358.673 19.2887C414.177 5.00073 471.009 38.6087 485.273 94.1447L489.257 109.649L466.017 115.617H466.009C466.009 115.617 466.009 115.617 466.001 115.617L451.225 119.409C446.945 120.513 444.369 124.873 445.465 129.153C446.577 133.441 450.953 135.985 455.209 134.913L462.241 133.105L472.185 171.849C479.873 201.753 461.785 232.337 431.881 240.017L416.401 243.993C416.393 243.993 416.385 243.993 416.377 243.993C416.369 243.993 416.369 244.001 416.361 244.001L307.913 271.849ZM350.849 310.377C338.033 313.649 324.921 305.913 321.633 293.105L319.649 285.361L412.633 261.481L414.625 269.225C417.913 282.049 410.161 295.153 397.345 298.441L350.849 310.377ZM404.697 355.369C401.441 360.889 396.217 364.801 390.009 366.393C383.817 367.977 377.345 367.073 371.833 363.809C366.313 360.545 362.393 355.329 360.801 349.121C359.209 342.913 360.121 336.457 363.385 330.937C366.641 325.417 371.865 321.505 378.073 319.913C380.065 319.401 382.081 319.145 384.089 319.145C388.321 319.145 392.513 320.281 396.257 322.489C401.777 325.753 405.697 330.969 407.289 337.177C408.873 343.393 407.961 349.849 404.697 355.369V355.369ZM360.041 407.153H344.041V383.153H384.001H384.049H384.113H424.041L424.049 407.153H360.041ZM496.041 495.153H464.041V471.153H496.041V495.153ZM496.041 455.153H456.041H392.041C378.809 455.153 368.041 444.385 368.041 431.153V423.153H424.041H456.041C469.273 423.153 480.041 412.385 480.041 399.153V295.153H496.041V455.153Z" fill="#494949"/>
</g>
<defs>
<clipPath id="clip0_3760_653">
<rect width="512" height="512" fill="white"/>
</clipPath>
</defs>
</svg>
