<svg width="512" height="512" viewBox="0 0 512 512" fill="none" xmlns="http://www.w3.org/2000/svg">
<g clip-path="url(#clip0_3760_515)">
<circle cx="256" cy="512" r="200" fill="#FFE785"/>
<path d="M468.094 123.802C486.907 103.207 528.827 35.9976 504.725 7.52764C479.263 -17.8003 404.544 27.5486 388.086 44.0635L334.882 100.793L293.997 91.8072L302.868 83.0517C315.149 69.4681 309.267 54.9649 296.756 44.37C294.62 42.2267 292.082 40.5261 289.288 39.3657C286.493 38.2053 283.497 37.608 280.471 37.608C277.445 37.608 274.449 38.2053 271.655 39.3657C268.86 40.5261 266.322 42.2267 264.186 44.37L230.314 78.2236L190.367 69.7171L200.502 59.563C204.766 55.1875 207.152 49.32 207.152 43.2109C207.152 37.1018 204.766 31.2343 200.502 26.8589L194.276 20.8813C192.14 18.738 189.602 17.0374 186.807 15.877C184.013 14.7166 181.017 14.1193 177.991 14.1193C174.965 14.1193 171.969 14.7166 169.174 15.877C166.38 17.0374 163.842 18.738 161.706 20.8813L126.569 55.8845L84.0744 46.6691C75.3006 44.8016 66.1512 46.0197 58.1717 50.1177L28.7437 64.8508C11.5008 72.955 12.0181 100.026 29.9508 107.288L240.813 200.342L132.91 314.739C132.169 315.622 131.228 316.314 130.164 316.757C129.101 317.2 127.947 317.382 126.799 317.287C67.2146 315.678 65.2988 306.999 13.3784 342.194C2.55366 348.152 4.29711 365.817 15.7924 369.763L98.4818 402.716L74.2842 426.895C72.8458 428.375 72.0412 430.358 72.0412 432.422C72.0412 434.486 72.8458 436.469 74.2842 437.949C75.8141 439.289 77.7783 440.027 79.8115 440.027C81.8448 440.027 83.809 439.289 85.3389 437.949L109.402 413.828L142.336 496.211C146.532 508.071 163.832 509.508 170.097 498.759C205.426 446.169 196.383 445.613 194.831 385.435C194.802 384.29 195.003 383.152 195.421 382.085C195.839 381.019 196.465 380.048 197.265 379.228L311.834 271.21L404.889 482.168C411.901 500.158 439.183 500.79 447.268 483.337L462.097 453.851C466.106 445.875 467.249 436.763 465.335 428.044L456.234 385.435L491.371 350.432C495.69 346.085 498.113 340.207 498.113 334.08C498.113 327.953 495.69 322.075 491.371 317.728L485.26 311.75C483.124 309.607 480.586 307.906 477.791 306.746C474.997 305.586 472.001 304.988 468.975 304.988C465.949 304.988 462.953 305.586 460.158 306.746C457.364 307.906 454.826 309.607 452.69 311.75L442.574 321.866L433.933 281.805L467.806 247.932C472.106 243.622 474.52 237.783 474.52 231.695C474.52 225.607 472.106 219.768 467.806 215.458L461.733 209.251C457.404 204.95 451.55 202.536 445.448 202.536C439.346 202.536 433.492 204.95 429.163 209.251L420.292 218.025L411.537 177.256L468.094 123.802ZM275.126 55.4247C281.774 49.0448 287.445 57.3405 291.928 61.6513C293.261 63.0895 294.002 64.9781 294.002 66.9391C294.002 68.9001 293.261 70.7888 291.928 72.2269L276.046 88.1287L248.399 82.132L275.126 55.4247ZM172.741 31.7061C179.485 25.8051 185.041 33.392 189.448 37.9327C190.157 38.6187 190.721 39.4404 191.106 40.3488C191.491 41.2572 191.69 42.2338 191.69 43.2205C191.69 44.2072 191.491 45.1838 191.106 46.0922C190.721 47.0006 190.157 47.8223 189.448 48.5083L172.205 65.7513L144.655 59.812L172.741 31.7061ZM36.1774 93.0142C30.0274 90.7727 29.9891 81.519 35.8325 78.7409L65.1455 63.9312C69.967 61.5642 75.4299 60.8376 80.7024 61.862L322.448 113.936L278.67 160.204L124.844 92.9568C122.93 92.1886 120.792 92.1926 118.881 92.968C116.969 93.7433 115.433 95.2295 114.594 97.1142C114.181 98.045 113.957 99.049 113.935 100.067C113.914 101.086 114.096 102.098 114.471 103.045C114.845 103.993 115.405 104.856 116.117 105.584C116.829 106.312 117.679 106.892 118.618 107.288L267.405 172.236L252.078 188.368L36.1774 93.0142ZM186.689 367.943C184.251 370.242 182.331 373.034 181.056 376.132C179.781 379.231 179.18 382.565 179.294 385.914L181.382 434.252C183.528 453.813 166.189 475.06 156.725 490.694L121.377 401.797L151.897 371.143C153.33 369.706 154.135 367.76 154.135 365.73C154.135 363.701 153.33 361.755 151.897 360.318C151.203 359.556 150.359 358.948 149.417 358.531C148.475 358.115 147.457 357.9 146.427 357.9C145.397 357.9 144.378 358.115 143.436 358.531C142.495 358.948 141.65 359.556 140.957 360.318L110.437 390.838L21.5592 355.279C37.6718 345.834 57.9609 328.725 77.752 330.641L126.09 332.94C129.453 333.026 132.798 332.415 135.914 331.145C139.029 329.876 141.849 327.976 144.195 325.564L399.237 54.9649C417.668 36.5341 480.547 5.15195 493.651 18.3524C498.039 22.9505 498.728 36.764 487.674 63.0115C478.343 84.8909 465.009 105.161 457.269 112.824L186.689 367.943ZM463.649 322.805C470.086 316.368 476.025 324.491 480.47 328.802C481.829 330.227 482.587 332.12 482.587 334.09C482.587 336.059 481.829 337.952 480.47 339.377L452.326 367.464L446.406 339.856L463.649 322.805ZM440.007 220.325C446.674 213.849 452.307 222.24 456.828 226.551C458.192 227.977 458.954 229.875 458.954 231.849C458.954 233.822 458.192 235.72 456.828 237.146L430.102 263.968L424.105 236.322L440.007 220.325ZM450.238 431.282C454.069 442.892 437.344 466.247 433.32 476.42C432.674 477.782 431.64 478.922 430.348 479.699C429.057 480.476 427.565 480.855 426.059 480.789C424.547 480.735 423.081 480.251 421.835 479.392C420.59 478.533 419.615 477.336 419.028 475.941L323.789 259.926L340.036 244.714L404.984 393.501C405.384 394.428 405.966 395.264 406.695 395.961C407.425 396.659 408.287 397.202 409.231 397.56C410.174 397.917 411.18 398.081 412.189 398.042C413.197 398.003 414.187 397.762 415.1 397.333C416.036 396.938 416.883 396.362 417.594 395.637C418.305 394.912 418.865 394.054 419.241 393.111C419.617 392.168 419.802 391.159 419.785 390.144C419.768 389.129 419.55 388.128 419.143 387.198L352.087 233.372L398.317 189.67L450.238 431.282Z" fill="#494949"/>
<path d="M416.288 60.4825C406.038 60.4825 406.057 75.8095 416.039 76.1544C421.337 76.214 426.402 78.3439 430.15 82.0888C433.899 85.8337 436.034 90.8963 436.098 96.1945C436.149 98.2577 437.009 100.218 438.493 101.652C439.977 103.086 441.966 103.879 444.03 103.858C463.515 100.793 443.455 58.9881 416.288 60.4825Z" fill="#494949"/>
<path d="M13.2635 218.945L64.3792 167.811C71.5446 160.664 60.2601 149.533 53.3437 156.986L2.30466 207.891C-4.76494 215.037 6.02147 226.245 13.2635 218.945V218.945Z" fill="#494949"/>
<path d="M98.4821 259.696L149.445 208.829C156.667 201.683 145.785 190.609 138.505 197.755L87.5424 248.871C80.2046 255.941 91.5083 266.957 98.4821 259.696V259.696Z" fill="#494949"/>
<path d="M343.983 447.395L292.848 498.511C285.74 505.868 296.68 516.481 303.903 509.335L354.922 458.449C361.954 451.399 351.321 440.191 343.983 447.395V447.395Z" fill="#494949"/>
<path d="M314.018 362.426C313.327 361.661 312.483 361.05 311.541 360.632C310.599 360.214 309.579 359.998 308.549 359.998C307.518 359.998 306.499 360.214 305.556 360.632C304.614 361.05 303.77 361.661 303.079 362.426L252.078 413.311C250.669 414.774 249.888 416.73 249.901 418.76C249.915 420.791 250.722 422.736 252.151 424.18C253.579 425.623 255.516 426.451 257.546 426.486C259.577 426.521 261.541 425.76 263.018 424.366L314.018 373.25C315.452 371.814 316.257 369.867 316.257 367.838C316.257 365.809 315.452 363.862 314.018 362.426Z" fill="#494949"/>
</g>
<defs>
<clipPath id="clip0_3760_515">
<rect width="512" height="512" fill="white"/>
</clipPath>
</defs>
</svg>
