<svg width="45" height="45" viewBox="0 0 45 45" fill="none" xmlns="http://www.w3.org/2000/svg">
<g clip-path="url(#clip0_3822_333)">
<circle cx="22.5" cy="45.7031" r="17.5781" fill="#FFE785"/>
<path d="M44.1211 42.2557H41.4062V28.0747C41.4062 27.5894 41.0126 27.1958 40.5272 27.1958C40.0419 27.1958 39.6483 27.5894 39.6483 28.0747V42.2557H33.3371V34.9478C33.3371 34.4624 32.9435 34.0689 32.4582 34.0689H26.727C26.2417 34.0689 25.8481 34.4624 25.8481 34.9478V42.2557H19.6847V19.8019V6.07535H39.6483V20.3146C39.6483 20.7999 40.0419 21.1935 40.5272 21.1935C41.0126 21.1935 41.4062 20.7999 41.4062 20.3146V5.19645C41.4062 4.71111 41.0126 4.31754 40.5272 4.31754H38.3649V1.8457C38.3649 1.36037 37.9713 0.966797 37.486 0.966797H22.0688C21.5835 0.966797 21.1899 1.36037 21.1899 1.8457V4.31754H18.8059C18.3205 4.31754 17.927 4.71111 17.927 5.19645V18.923H11.0373V16.1639C11.0373 15.6785 10.6437 15.285 10.1584 15.285H4.10203C3.6167 15.285 3.22313 15.6785 3.22313 16.1639V19.8019V42.2557H0.878906C0.393574 42.2557 0 42.6493 0 43.1346C0 43.6199 0.393574 44.0135 0.878906 44.0135H44.1211C44.6064 44.0135 45 43.6199 45 43.1346C45 42.6493 44.6064 42.2557 44.1211 42.2557ZM22.9477 2.72461H36.6071V4.31754H22.9477V2.72461ZM4.98094 17.0428H9.27949V18.923H4.98094V17.0428ZM12.4681 42.2553H10.3291V39.117H12.4681V42.2553ZM17.927 42.2557H14.226V38.2381C14.226 37.7528 13.8324 37.3592 13.3471 37.3592H9.45026C8.96493 37.3592 8.57136 37.7528 8.57136 38.2381V42.2557H4.98094V20.6808H10.1584H17.927V42.2557ZM31.5794 42.2553H27.606V35.8266H31.5794V42.2553Z" fill="#494949"/>
<path d="M41.2578 23.8049C40.8217 23.1513 39.7758 23.3866 39.6585 24.1641C39.5391 24.9563 40.5074 25.4795 41.1065 24.9542C41.436 24.6654 41.4965 24.1691 41.2578 23.8049V23.8049Z" fill="#494949"/>
<path d="M28.1631 10.1028C28.1631 9.61745 27.7695 9.22388 27.2842 9.22388H23.5586C23.0733 9.22388 22.6797 9.61745 22.6797 10.1028V13.8284C22.6797 14.3137 23.0733 14.7073 23.5586 14.7073H27.2842C27.7695 14.7073 28.1631 14.3137 28.1631 13.8284V10.1028ZM26.4053 12.9494H24.4375V10.9816H26.4053V12.9494Z" fill="#494949"/>
<path d="M36.4014 10.1028C36.4014 9.61745 36.0078 9.22388 35.5225 9.22388H31.7969C31.3115 9.22388 30.918 9.61745 30.918 10.1028V13.8284C30.918 14.3137 31.3115 14.7073 31.7969 14.7073H35.5225C36.0078 14.7073 36.4014 14.3137 36.4014 13.8284V10.1028ZM34.6436 12.9494H32.6758V10.9816H34.6436V12.9494Z" fill="#494949"/>
<path d="M28.1631 17.7878C28.1631 17.3025 27.7695 16.9089 27.2842 16.9089H23.5586C23.0733 16.9089 22.6797 17.3025 22.6797 17.7878V21.5134C22.6797 21.9988 23.0733 22.3923 23.5586 22.3923H27.2842C27.7695 22.3923 28.1631 21.9988 28.1631 21.5134V17.7878ZM26.4053 20.6345H24.4375V18.6667H26.4053V20.6345Z" fill="#494949"/>
<path d="M36.4014 17.7878C36.4014 17.3025 36.0078 16.9089 35.5225 16.9089H31.7969C31.3115 16.9089 30.918 17.3025 30.918 17.7878V21.5134C30.918 21.9988 31.3115 22.3923 31.7969 22.3923H35.5225C36.0078 22.3923 36.4014 21.9988 36.4014 21.5134V17.7878ZM34.6436 20.6345H32.6758V18.6667H34.6436V20.6345Z" fill="#494949"/>
<path d="M27.2842 24.594H23.5586C23.0733 24.594 22.6797 24.9876 22.6797 25.4729V29.1985C22.6797 29.6838 23.0733 30.0774 23.5586 30.0774H27.2842C27.7695 30.0774 28.1631 29.6838 28.1631 29.1985V25.4729C28.1631 24.9876 27.7696 24.594 27.2842 24.594ZM26.4053 28.3196H24.4375V26.3518H26.4053V28.3196Z" fill="#494949"/>
<path d="M35.5225 24.594H31.7969C31.3115 24.594 30.918 24.9876 30.918 25.4729V29.1985C30.918 29.6838 31.3115 30.0774 31.7969 30.0774H35.5225C36.0078 30.0774 36.4014 29.6838 36.4014 29.1985V25.4729C36.4014 24.9876 36.0078 24.594 35.5225 24.594ZM34.6436 28.3196H32.6758V26.3518H34.6436V28.3196Z" fill="#494949"/>
<path d="M7.78906 22.7061C7.30373 22.7061 6.91016 23.0996 6.91016 23.585V34.5962C6.91016 35.0815 7.30373 35.4751 7.78906 35.4751C8.27439 35.4751 8.66797 35.0815 8.66797 34.5962V23.585C8.66797 23.0996 8.27439 22.7061 7.78906 22.7061Z" fill="#494949"/>
<path d="M11.3906 35.4751C11.876 35.4751 12.2695 35.0815 12.2695 34.5962V23.585C12.2695 23.0996 11.876 22.7061 11.3906 22.7061C10.9053 22.7061 10.5117 23.0996 10.5117 23.585V34.5962C10.5117 35.0816 10.9052 35.4751 11.3906 35.4751Z" fill="#494949"/>
<path d="M14.9883 35.4751C15.4736 35.4751 15.8672 35.0815 15.8672 34.5962V23.585C15.8672 23.0996 15.4736 22.7061 14.9883 22.7061C14.5029 22.7061 14.1094 23.0996 14.1094 23.585V34.5962C14.1094 35.0816 14.5029 35.4751 14.9883 35.4751Z" fill="#494949"/>
</g>
<defs>
<clipPath id="clip0_3822_333">
<rect width="45" height="45" fill="white"/>
</clipPath>
</defs>
</svg>
