<svg width="512" height="512" viewBox="0 0 512 512" fill="none" xmlns="http://www.w3.org/2000/svg">
<g clip-path="url(#clip0_3714_563)">
<circle cx="256" cy="520" r="200" fill="#FFE785"/>
<path d="M477.871 128.006H162.138C143.286 128.006 128.004 143.288 128.004 162.139V477.873C128.004 496.724 143.286 512.006 162.138 512.006H477.871C496.722 512.006 512.004 496.724 512.004 477.873V162.139C512.004 143.288 496.722 128.006 477.871 128.006ZM494.938 162.139V477.873C494.917 479.347 494.704 480.813 494.306 482.233L332.071 320.006L494.306 157.779C494.704 159.199 494.917 160.665 494.938 162.139ZM477.871 145.073C479.346 145.093 480.813 145.308 482.232 145.713L320.004 307.94L157.777 145.713C159.196 145.308 160.662 145.093 162.138 145.073H477.871ZM145.703 482.233C145.305 480.813 145.092 479.347 145.071 477.873V162.139C145.092 160.665 145.305 159.199 145.703 157.779L307.938 320.006L145.703 482.233ZM162.138 494.939C160.662 494.919 159.196 494.704 157.777 494.299L320.004 332.072L482.232 494.299C480.813 494.704 479.346 494.919 477.871 494.939H162.138Z" fill="#494949"/>
<path d="M8.53773 145.073H93.8711C98.5839 145.073 102.404 141.252 102.404 136.539C102.404 131.826 98.5839 128.006 93.8711 128.006H8.53773C3.8249 128.006 0.00439453 131.826 0.00439453 136.539C0.00439453 141.252 3.8249 145.073 8.53773 145.073Z" fill="#494949"/>
<path d="M8.53773 512.004H93.8711C98.5839 512.004 102.404 508.184 102.404 503.471C102.404 498.758 98.5839 494.938 93.8711 494.938H8.53773C3.8249 494.938 0.00439453 498.758 0.00439453 503.471C0.00439453 508.184 3.8249 512.004 8.53773 512.004Z" fill="#494949"/>
<path d="M87.3089 227.332C90.3251 230.956 95.7082 231.449 99.3323 228.433C102.956 225.417 103.449 220.034 100.433 216.41L57.7665 165.21C56.0902 163.353 53.7058 162.293 51.2043 162.293C48.7028 162.293 46.3184 163.353 44.6422 165.21L1.97552 216.41C-1.0407 220.034 -0.54785 225.417 3.07632 228.433C6.70048 231.449 12.0836 230.956 15.0998 227.332L42.671 194.24V445.768L15.0998 412.676C12.0836 409.052 6.70048 408.559 3.07632 411.575C-0.54785 414.592 -1.04069 419.975 1.97552 423.599L44.6422 474.799C46.2634 476.749 48.6682 477.877 51.2043 477.877C53.7405 477.877 56.1452 476.749 57.7665 474.799L100.433 423.599C102.384 421.254 102.936 418.047 101.882 415.185C100.827 412.323 98.3255 410.241 95.3196 409.724C92.3137 409.206 89.26 410.332 87.3089 412.676L59.7377 445.768V194.24L87.3089 227.332Z" fill="#494949"/>
<path d="M503.471 0.00585938C498.758 0.00585938 494.938 3.82636 494.938 8.53919V93.8725C494.938 98.5854 498.758 102.406 503.471 102.406C508.184 102.406 512.004 98.5854 512.004 93.8725V8.53919C512.004 3.82636 508.184 0.00585938 503.471 0.00585938Z" fill="#494949"/>
<path d="M136.538 0.00585938C131.825 0.00585938 128.004 3.82636 128.004 8.53919V93.8725C128.004 98.5854 131.825 102.406 136.538 102.406C141.251 102.406 145.071 98.5854 145.071 93.8725V8.53919C145.071 3.82636 141.251 0.00585938 136.538 0.00585938Z" fill="#494949"/>
<path d="M228.433 3.07696C226.984 1.33435 224.901 0.23988 222.644 0.0349699C220.387 -0.16994 218.141 0.531548 216.401 1.9847L165.201 44.6514C163.257 46.2727 162.133 48.6735 162.133 51.205C162.133 53.7365 163.257 56.1373 165.201 57.7586L216.401 100.425C218.743 102.379 221.949 102.936 224.812 101.885C227.675 100.835 229.76 98.3367 230.282 95.3319C230.803 92.3271 229.682 89.2722 227.341 87.318L194.24 59.7383H445.769L412.668 87.318C410.327 89.2722 409.206 92.3271 409.727 95.3319C410.249 98.3367 412.334 100.835 415.197 101.885C418.06 102.936 421.266 102.379 423.608 100.425L474.808 57.7586C476.752 56.1373 477.876 53.7365 477.876 51.205C477.876 48.6735 476.752 46.2727 474.808 44.6514L423.608 1.9847C421.266 0.0305012 418.06 -0.526141 415.197 0.524453C412.334 1.57505 410.249 4.07326 409.727 7.07805C409.206 10.0828 410.327 13.1377 412.668 15.0919L445.769 42.6716H194.24L227.341 15.0919C230.959 12.075 231.448 6.69685 228.433 3.07696Z" fill="#494949"/>
</g>
<defs>
<clipPath id="clip0_3714_563">
<rect width="512" height="512" fill="white"/>
</clipPath>
</defs>
</svg>
