<svg width="299" height="59" viewBox="0 0 299 59" fill="none" xmlns="http://www.w3.org/2000/svg">
<path d="M163.002 3.5L163.067 3.00427L163.002 3.5ZM0.732443 15.5424C0.577347 15.7709 0.63683 16.0819 0.865302 16.2369L4.58848 18.7644C4.81695 18.9195 5.12789 18.86 5.28299 18.6315C5.43809 18.4031 5.3786 18.0921 5.15013 17.937L1.84064 15.6904L4.08726 12.3809C4.24235 12.1524 4.18287 11.8415 3.9544 11.6864C3.72593 11.5313 3.41498 11.5908 3.25989 11.8193L0.732443 15.5424ZM298.227 57.5752C298.489 57.1499 298.489 57.1499 298.489 57.1499C298.489 57.1499 298.489 57.1499 298.489 57.1499C298.489 57.1498 298.489 57.1498 298.489 57.1498C298.489 57.1497 298.489 57.1496 298.489 57.1494C298.488 57.1491 298.488 57.1487 298.487 57.1481C298.485 57.147 298.482 57.1454 298.479 57.1432C298.471 57.1388 298.461 57.1323 298.447 57.1237C298.419 57.1064 298.377 57.0808 298.322 57.0469C298.211 56.9792 298.047 56.8786 297.83 56.7469C297.396 56.4836 296.753 56.0959 295.915 55.5975L295.404 56.4569C296.239 56.9537 296.879 57.3399 297.311 57.6018C297.527 57.7327 297.69 57.8326 297.799 57.8996C297.854 57.9331 297.895 57.9584 297.923 57.9753C297.937 57.9838 297.947 57.9901 297.954 57.9943C297.957 57.9964 297.96 57.998 297.961 57.999C297.962 57.9995 297.963 57.9999 297.963 58.0002C297.963 58.0003 297.963 58.0004 297.964 58.0004C297.964 58.0005 297.964 58.0005 297.964 58.0005C297.964 58.0005 297.964 58.0005 297.964 58.0005C297.964 58.0005 297.964 58.0005 298.227 57.5752ZM290.62 52.5047C289.051 51.6034 287.27 50.592 285.295 49.4894L284.808 50.3625C286.778 51.463 288.556 52.4724 290.122 53.3718L290.62 52.5047ZM279.941 46.5389C278.243 45.6152 276.447 44.6499 274.562 43.6508L274.094 44.5344C275.975 45.5317 277.768 46.4953 279.463 47.4174L279.941 46.5389ZM269.151 40.8196C267.391 39.9106 265.57 38.9818 263.693 38.0383L263.244 38.9317C265.117 39.8735 266.935 40.8007 268.692 41.7081L269.151 40.8196ZM258.211 35.3189C256.419 34.4423 254.586 33.5575 252.715 32.6683L252.285 33.5715C254.153 34.459 255.983 35.3422 257.772 36.2172L258.211 35.3189ZM247.183 30.0784C245.357 29.2364 243.501 28.3938 241.618 27.5535L241.211 28.4666C243.089 29.3052 244.942 30.1462 246.764 30.9865L247.183 30.0784ZM236.021 25.0976C234.165 24.2975 232.287 23.5025 230.391 22.7152L230.007 23.6388C231.899 24.4243 233.773 25.2176 235.625 26.0159L236.021 25.0976ZM224.728 20.4111C222.843 19.6601 220.943 18.9191 219.031 18.1907L218.675 19.1252C220.582 19.8517 222.477 20.5908 224.357 21.34L224.728 20.4111ZM213.299 16.0603C211.385 15.3669 209.462 14.6884 207.531 14.0272L207.207 14.9733C209.132 15.6325 211.05 16.3091 212.958 17.0005L213.299 16.0603ZM201.727 12.0997C199.783 11.4749 197.835 10.87 195.885 10.2875L195.599 11.2457C197.542 11.8261 199.483 12.429 201.421 13.0517L201.727 12.0997ZM190.004 8.60199C188.029 8.06035 186.054 7.54426 184.084 7.05636L183.843 8.02705C185.806 8.51287 187.772 9.02684 189.74 9.56639L190.004 8.60199ZM178.124 5.66628C176.116 5.22771 174.115 4.82145 172.124 4.45032L171.941 5.43339C173.921 5.80255 175.912 6.20676 177.91 6.64324L178.124 5.66628ZM166.086 3.43062C165.076 3.27839 164.07 3.13614 163.067 3.00427L162.937 3.99573C163.933 4.12676 164.933 4.26812 165.937 4.41945L166.086 3.43062ZM163.067 3.00427C162.124 2.88021 161.168 2.76349 160.201 2.6539L160.089 3.64754C161.05 3.75649 162 3.87248 162.937 3.99573L163.067 3.00427ZM154.395 2.09065C152.491 1.93508 150.55 1.80338 148.577 1.69416L148.522 2.69263C150.487 2.8014 152.419 2.93251 154.313 3.08733L154.395 2.09065ZM142.753 1.43865C140.835 1.37541 138.891 1.33102 136.926 1.30431L136.912 2.30422C138.871 2.33085 140.808 2.37509 142.72 2.4381L142.753 1.43865ZM131.097 1.27559C129.17 1.28211 127.227 1.30393 125.27 1.34002L125.288 2.33985C127.24 2.30385 129.179 2.28208 131.101 2.27558L131.097 1.27559ZM119.444 1.48742C117.513 1.54908 115.572 1.62334 113.625 1.70924L113.669 2.70827C115.613 2.62254 117.549 2.54844 119.476 2.48691L119.444 1.48742ZM107.813 1.99839C105.878 2.10521 103.94 2.22248 102.002 2.34928L102.067 3.34714C104.002 3.22056 105.937 3.1035 107.868 2.99687L107.813 1.99839ZM96.1928 2.75687C94.2546 2.90187 92.3187 3.05549 90.3881 3.2168L90.4714 4.21333C92.3992 4.05225 94.3322 3.89886 96.2674 3.75408L96.1928 2.75687ZM84.5891 3.72525C82.649 3.90319 80.7174 4.08805 78.7972 4.27888L78.8961 5.27398C80.8138 5.08339 82.743 4.89877 84.6805 4.72107L84.5891 3.72525ZM73.0132 4.87479C71.0675 5.08222 69.1371 5.29492 67.2254 5.51185L67.3382 6.50547C69.2477 6.28879 71.1758 6.07633 73.1192 5.86915L73.0132 4.87479ZM61.44 6.18744C59.488 6.42173 57.56 6.65948 55.6597 6.8995L55.785 7.89162C57.6833 7.65185 59.6093 7.41435 61.5592 7.18032L61.44 6.18744ZM49.8849 7.64647C47.9246 7.90594 46.0002 8.16661 44.1161 8.42705L44.2531 9.41763C46.1353 9.15744 48.0578 8.89703 50.0161 8.63782L49.8849 7.64647ZM38.3546 9.24008C36.3811 9.52421 34.4623 9.80625 32.604 10.0843L32.752 11.0733C34.6085 10.7955 36.5255 10.5137 38.4971 10.2299L38.3546 9.24008ZM26.8664 10.959C24.8431 11.2732 22.9123 11.5791 21.0838 11.8736L21.2428 12.8608C23.0695 12.5666 24.9984 12.2611 27.0198 11.9472L26.8664 10.959ZM15.3441 12.815C13.2138 13.1709 11.2874 13.5 9.58879 13.795L9.75988 14.7802C11.4565 14.4856 13.3807 14.1568 15.5089 13.8013L15.3441 12.815ZM3.88836 14.8069C2.96693 14.9745 2.25823 15.1058 1.77971 15.1952C1.54046 15.2398 1.35875 15.2741 1.23676 15.2971C1.17577 15.3087 1.12971 15.3174 1.09886 15.3233C1.08343 15.3262 1.07181 15.3284 1.06402 15.3299C1.06012 15.3307 1.05718 15.3312 1.05521 15.3316C1.05422 15.3318 1.05348 15.3319 1.05297 15.332C1.05272 15.3321 1.05253 15.3321 1.0524 15.3321C1.05233 15.3321 1.05228 15.3322 1.05224 15.3322C1.05223 15.3322 1.05221 15.3322 1.0522 15.3322C1.05219 15.3322 1.05218 15.3322 1.14613 15.8233C1.24007 16.3144 1.24007 16.3144 1.24008 16.3144C1.24008 16.3144 1.24009 16.3144 1.2401 16.3144C1.24013 16.3143 1.24017 16.3143 1.24022 16.3143C1.24033 16.3143 1.2405 16.3143 1.24073 16.3142C1.2412 16.3141 1.2419 16.314 1.24284 16.3138C1.24473 16.3135 1.24758 16.3129 1.25139 16.3122C1.259 16.3107 1.27046 16.3086 1.28571 16.3057C1.31621 16.2999 1.36192 16.2912 1.42255 16.2797C1.54382 16.2568 1.7248 16.2227 1.96331 16.1782C2.44034 16.0891 3.1475 15.9581 4.06733 15.7908L3.88836 14.8069ZM163.002 3.5L163.132 2.50854L163.002 3.5ZM0.318757 15.2616C0.00856391 15.7186 0.12753 16.3404 0.584475 16.6506L8.03083 21.7055C8.48777 22.0157 9.10966 21.8967 9.41985 21.4398C9.73005 20.9829 9.61108 20.361 9.15413 20.0508L2.53516 15.5575L7.02839 8.93857C7.33858 8.48162 7.21961 7.85973 6.76267 7.54954C6.30572 7.23935 5.68383 7.35831 5.37364 7.81526L0.318757 15.2616ZM298.227 57.5752C298.752 56.7246 298.752 56.7246 298.752 56.7246C298.752 56.7246 298.752 56.7246 298.752 56.7245C298.752 56.7245 298.752 56.7245 298.752 56.7244C298.752 56.7243 298.752 56.7242 298.752 56.7241C298.751 56.7237 298.75 56.7233 298.749 56.7227C298.747 56.7216 298.745 56.7199 298.741 56.7176C298.734 56.7132 298.723 56.7066 298.709 56.6979C298.681 56.6804 298.639 56.6546 298.583 56.6206C298.472 56.5525 298.307 56.4516 298.089 56.3195C297.654 56.0554 297.01 55.6669 296.171 55.1678L295.148 56.8866C295.982 57.3826 296.621 57.7681 297.051 58.0292C297.267 58.1598 297.429 58.2593 297.538 58.326C297.593 58.3593 297.634 58.3844 297.661 58.4011C297.674 58.4095 297.684 58.4157 297.691 58.4199C297.694 58.4219 297.697 58.4234 297.699 58.4244C297.699 58.4249 297.7 58.4253 297.7 58.4255C297.7 58.4256 297.701 58.4257 297.701 58.4258C297.701 58.4258 297.701 58.4258 297.701 58.4258C297.701 58.4258 297.701 58.4258 297.701 58.4258C297.701 58.4258 297.701 58.4258 298.227 57.5752ZM290.869 52.0711C289.299 51.1689 287.515 50.1565 285.539 49.0529L284.564 50.7991C286.533 51.8985 288.309 52.9069 289.873 53.8053L290.869 52.0711ZM280.18 46.0996C278.48 45.1751 276.683 44.2089 274.796 43.209L273.86 44.9761C275.74 45.9726 277.531 46.9353 279.224 47.8566L280.18 46.0996ZM269.38 40.3753C267.618 39.4655 265.796 38.5359 263.918 37.5916L263.02 39.3784C264.891 40.3194 266.707 41.2457 268.462 42.1524L269.38 40.3753ZM258.431 34.8697C256.637 33.9924 254.802 33.1068 252.929 32.2167L252.071 34.0231C253.936 34.9098 255.765 35.7921 257.552 36.6663L258.431 34.8697ZM247.392 29.6243C245.564 28.7816 243.706 27.938 241.822 27.0969L241.007 28.9232C242.884 29.7609 244.734 30.6011 246.555 31.4406L247.392 29.6243ZM236.219 24.6385C234.361 23.8375 232.481 23.0416 230.582 22.2534L229.816 24.1006C231.705 24.8852 233.577 25.6776 235.427 26.4751L236.219 24.6385ZM224.913 19.9466C223.026 19.1947 221.123 18.4528 219.209 17.7234L218.497 19.5925C220.402 20.318 222.294 21.0562 224.172 21.8045L224.913 19.9466ZM213.469 15.5902C211.553 14.8959 209.627 14.2164 207.693 13.5542L207.045 15.4463C208.967 16.1045 210.882 16.7801 212.788 17.4706L213.469 15.5902ZM201.88 11.6237C199.933 10.9979 197.981 10.392 196.028 9.80845L195.455 11.7248C197.395 12.3042 199.334 12.906 201.268 13.5278L201.88 11.6237ZM190.136 8.11979C188.157 7.5771 186.179 7.05996 184.204 6.57101L183.723 8.5124C185.681 8.99717 187.643 9.51009 189.607 10.0486L190.136 8.11979ZM178.23 5.1778C176.218 4.73819 174.212 4.33091 172.215 3.95879L171.849 5.92493C173.824 6.2931 175.81 6.69628 177.803 7.13172L178.23 5.1778ZM166.16 2.93621C165.148 2.78352 164.138 2.64083 163.132 2.50854L162.872 4.49146C163.865 4.62207 164.862 4.76299 165.862 4.91386L166.16 2.93621ZM163.132 2.50854C162.186 2.38408 161.228 2.267 160.258 2.15708L160.033 4.14436C160.991 4.25298 161.938 4.36862 162.872 4.49146L163.132 2.50854ZM154.436 1.59231C152.527 1.43636 150.582 1.30437 148.605 1.19492L148.494 3.19186C150.455 3.30041 152.382 3.43123 154.273 3.58567L154.436 1.59231ZM142.77 0.938919C140.848 0.875572 138.901 0.831111 136.933 0.804358L136.905 2.80417C138.861 2.83076 140.795 2.87494 142.704 2.93783L142.77 0.938919ZM131.096 0.775591C129.166 0.78212 127.22 0.80397 125.26 0.840101L125.297 2.83976C127.247 2.80381 129.183 2.78207 131.103 2.77558L131.096 0.775591ZM119.428 0.987676C117.495 1.0494 115.552 1.12374 113.603 1.20973L113.691 3.20779C115.633 3.12214 117.567 3.04811 119.492 2.98666L119.428 0.987676ZM107.785 1.49915C105.849 1.60607 103.909 1.72344 101.969 1.85034L102.1 3.84608C104.033 3.7196 105.966 3.60264 107.896 3.49611L107.785 1.49915ZM96.1555 2.25826C94.2158 2.40338 92.2784 2.55711 90.3465 2.71853L90.513 4.71159C92.4394 4.55063 94.371 4.39736 96.3047 4.25269L96.1555 2.25826ZM84.5435 3.22734C82.6021 3.4054 80.6691 3.59038 78.7478 3.78133L78.9455 5.77153C80.8621 5.58106 82.79 5.39656 84.7261 5.21898L84.5435 3.22734ZM72.9602 4.37761C71.0133 4.58516 69.0818 4.79798 67.169 5.01504L67.3945 7.00228C69.303 6.78572 71.23 6.57339 73.1722 6.36634L72.9602 4.37761ZM61.3804 5.69101C59.4274 5.92542 57.4983 6.1633 55.597 6.40344L55.8477 8.38768C57.745 8.14803 59.6699 7.91066 61.6188 7.67675L61.3804 5.69101ZM49.8193 7.15079C47.858 7.41039 45.9326 7.67119 44.0477 7.93176L44.3215 9.91292C46.2028 9.65286 48.1244 9.39258 50.0817 9.1335L49.8193 7.15079ZM38.2833 8.74518C36.3089 9.02945 34.3891 9.31163 32.53 9.58982L32.8259 11.5678C34.6816 11.2901 36.5977 11.0085 38.5683 10.7248L38.2833 8.74518ZM26.7897 10.4649C24.7654 10.7793 22.8336 11.0853 21.0043 11.3799L21.3223 13.3545C23.1481 13.0604 25.0761 12.755 27.0966 12.4413L26.7897 10.4649ZM15.2617 12.3218C13.1303 12.6779 11.2029 13.0072 9.50324 13.3024L9.84542 15.2729C11.541 14.9784 13.4642 14.6498 15.5913 14.2945L15.2617 12.3218ZM3.79888 14.315C2.87664 14.4828 2.16717 14.6141 1.68791 14.7037C1.44829 14.7484 1.26621 14.7827 1.14387 14.8058C1.0827 14.8174 1.03647 14.8262 1.00544 14.8321C0.989921 14.835 0.978208 14.8373 0.97033 14.8388C0.966391 14.8395 0.963411 14.8401 0.961394 14.8405C0.960386 14.8407 0.959618 14.8408 0.959092 14.8409C0.958829 14.841 0.958626 14.841 0.958484 14.841C0.958413 14.841 0.958356 14.8411 0.958315 14.8411C0.958295 14.8411 0.958276 14.8411 0.958265 14.8411C0.95825 14.8411 0.958238 14.8411 1.14613 15.8233C1.33402 16.8055 1.33402 16.8055 1.33402 16.8055C1.33402 16.8055 1.33402 16.8055 1.33403 16.8055C1.33405 16.8054 1.33409 16.8054 1.33414 16.8054C1.33424 16.8054 1.3344 16.8054 1.33462 16.8053C1.33506 16.8053 1.33574 16.8051 1.33666 16.8049C1.3385 16.8046 1.34131 16.8041 1.34507 16.8033C1.3526 16.8019 1.36397 16.7997 1.37913 16.7969C1.40946 16.7911 1.45499 16.7824 1.51544 16.771C1.63635 16.7482 1.81697 16.7141 2.05511 16.6697C2.5314 16.5807 3.23779 16.4499 4.15682 16.2827L3.79888 14.315Z" fill="#4343E8"/>
</svg>
