<svg width="301" height="56" viewBox="0 0 301 56" fill="none" xmlns="http://www.w3.org/2000/svg">
<path d="M137.413 2.84333L137.357 2.34654L137.413 2.84333ZM299.448 17.7159C299.599 17.9471 299.534 18.2569 299.303 18.408L295.536 20.8701C295.305 21.0212 294.995 20.9563 294.844 20.7251C294.693 20.494 294.758 20.1841 294.989 20.033L298.337 17.8445L296.149 14.4963C295.998 14.2652 296.063 13.9553 296.294 13.8042C296.525 13.6532 296.835 13.7181 296.986 13.9492L299.448 17.7159ZM1.26562 54.5503C1.01018 54.1205 1.01019 54.1205 1.01021 54.1205C1.01021 54.1204 1.01023 54.1204 1.01025 54.1204C1.01029 54.1204 1.01034 54.1204 1.0104 54.1203C1.01053 54.1203 1.01071 54.1202 1.01095 54.12C1.01142 54.1197 1.01212 54.1193 1.01304 54.1188C1.01487 54.1177 1.01758 54.1161 1.02117 54.1139C1.02834 54.1097 1.03902 54.1034 1.05317 54.095C1.08147 54.0783 1.12367 54.0533 1.17953 54.0204C1.29126 53.9546 1.45764 53.857 1.67683 53.7291C2.11522 53.4734 2.76487 53.0969 3.61101 52.6132L4.10725 53.4814C3.26377 53.9636 2.61666 54.3386 2.1807 54.5929C1.96273 54.72 1.79754 54.817 1.68698 54.8821C1.6317 54.9147 1.59009 54.9392 1.56236 54.9557C1.54849 54.9639 1.5381 54.97 1.53121 54.9741C1.52776 54.9761 1.52519 54.9777 1.5235 54.9787C1.52266 54.9792 1.52203 54.9795 1.52162 54.9798C1.52142 54.9799 1.52127 54.98 1.52118 54.9801C1.52113 54.9801 1.5211 54.9801 1.52108 54.9801C1.52107 54.9801 1.52107 54.9801 1.52107 54.9801C1.52107 54.9801 1.52107 54.9801 1.26562 54.5503ZM8.95944 49.6133C10.5437 48.7395 12.3427 47.7594 14.3359 46.6915L14.8082 47.5729C12.8187 48.6388 11.0233 49.6171 9.44238 50.489L8.95944 49.6133ZM19.7409 43.8348C21.4551 42.9408 23.2675 42.007 25.1696 41.041L25.6224 41.9326C23.7236 42.8969 21.9144 43.8291 20.2032 44.7215L19.7409 43.8348ZM30.6294 38.3047C32.4052 37.4265 34.242 36.5297 36.1345 35.6191L36.5681 36.5202C34.679 37.4292 32.8454 38.3244 31.0727 39.2011L30.6294 38.3047ZM41.6636 32.9957C43.4706 32.1506 45.3191 31.2979 47.2052 30.4415L47.6187 31.352C45.7361 32.2068 43.891 33.0579 42.0873 33.9015L41.6636 32.9957ZM52.7813 27.9485C54.6219 27.1386 56.4924 26.3284 58.3894 25.5211L58.781 26.4412C56.8878 27.2469 55.0211 28.0554 53.1841 28.8638L52.7813 27.9485ZM64.0288 23.1633C65.8985 22.3957 67.7898 21.6336 69.6995 20.8795L70.0668 21.8096C68.1613 22.562 66.2743 23.3225 64.4086 24.0884L64.0288 23.1633ZM75.402 18.6746C77.2996 17.9566 79.2121 17.2488 81.1368 16.554L81.4764 17.4945C79.5566 18.1876 77.6489 18.8936 75.7558 19.6099L75.402 18.6746ZM86.9049 14.5239C88.8305 13.8641 90.7655 13.2192 92.707 12.5918L93.0145 13.5433C91.0788 14.1689 89.1494 14.8119 87.229 15.4699L86.9049 14.5239ZM98.5441 10.7659C100.499 10.1751 102.457 9.60431 104.417 9.05594L104.687 10.019C102.734 10.5654 100.782 11.1343 98.8335 11.7231L98.5441 10.7659ZM110.326 7.4733C112.311 6.96621 114.294 6.48466 116.273 6.03122L116.496 7.00596C114.526 7.45746 112.551 7.93704 110.574 8.44216L110.326 7.4733ZM122.256 4.74538C124.271 4.34191 126.279 3.97063 128.276 3.63431L128.442 4.62043C126.456 4.95496 124.458 5.32436 122.453 5.72591L122.256 4.74538ZM134.331 2.72014C135.343 2.58555 136.352 2.46089 137.357 2.34654L137.47 3.34013C136.471 3.45375 135.469 3.57763 134.463 3.71142L134.331 2.72014ZM137.357 2.34654C138.302 2.23896 139.259 2.13894 140.228 2.04624L140.323 3.04169C139.36 3.13384 138.409 3.23325 137.47 3.34013L137.357 2.34654ZM146.044 1.58441C147.95 1.46209 149.893 1.36428 151.868 1.28951L151.905 2.28879C149.939 2.36326 148.005 2.46064 146.108 2.58236L146.044 1.58441ZM157.695 1.13568C159.614 1.10594 161.559 1.09548 163.524 1.10307L163.52 2.10306C161.561 2.0955 159.623 2.10593 157.711 2.13556L157.695 1.13568ZM169.352 1.17607C171.279 1.21622 173.222 1.27196 175.178 1.3422L175.142 2.34155C173.191 2.27149 171.253 2.21589 169.331 2.17585L169.352 1.17607ZM181 1.59125C182.929 1.6866 184.868 1.79472 186.814 1.91459L186.752 2.9127C184.811 2.79306 182.876 2.68517 180.95 2.59003L181 1.59125ZM192.62 2.30513C194.553 2.4457 196.488 2.59678 198.424 2.75738L198.342 3.75396C196.409 3.59362 194.476 3.44281 192.548 3.3025L192.62 2.30513ZM204.225 3.26629C206.161 3.4451 208.094 3.63248 210.021 3.82746L209.92 4.82238C207.996 4.62769 206.066 4.44058 204.133 4.26205L204.225 3.26629ZM215.81 4.43704C217.747 4.64881 219.675 4.86736 221.592 5.09167L221.475 6.08489C219.561 5.86086 217.636 5.6426 215.702 5.43111L215.81 4.43704ZM227.364 5.78843C229.306 6.02978 231.233 6.27614 233.14 6.5264L233.01 7.51791C231.105 7.26793 229.181 7.02186 227.241 6.7808L227.364 5.78843ZM238.913 7.30286C240.861 7.57119 242.784 7.84255 244.68 8.1157L244.537 9.10547C242.643 8.83261 240.722 8.56154 238.776 8.29351L238.913 7.30286ZM250.441 8.96333C252.396 9.25697 254.316 9.55119 256.195 9.84447L256.041 10.8325C254.164 10.5395 252.246 10.2456 250.292 9.95225L250.441 8.96333ZM261.942 10.7579C263.91 11.0765 265.823 11.3919 267.677 11.7024L267.511 12.6887C265.66 12.3785 263.748 12.0633 261.782 11.7451L261.942 10.7579ZM273.398 12.6771C275.416 13.0265 277.341 13.3661 279.164 13.6924L278.988 14.6768C277.166 14.3507 275.243 14.0115 273.227 13.6624L273.398 12.6771ZM284.886 14.7339C287.01 15.1269 288.93 15.4896 290.623 15.8142L290.435 16.7963C288.744 16.4721 286.826 16.1098 284.704 15.7172L284.886 14.7339ZM296.305 16.9255C297.224 17.1091 297.93 17.2527 298.407 17.3504C298.645 17.3993 298.826 17.4367 298.948 17.4619C299.009 17.4745 299.055 17.484 299.085 17.4904C299.101 17.4936 299.112 17.496 299.12 17.4976C299.124 17.4985 299.127 17.4991 299.129 17.4995C299.13 17.4997 299.131 17.4998 299.131 17.4999C299.131 17.5 299.132 17.5 299.132 17.5001C299.132 17.5001 299.132 17.5001 299.132 17.5001C299.132 17.5001 299.132 17.5001 299.132 17.5001C299.132 17.5001 299.132 17.5001 299.029 17.9895C298.927 18.4789 298.927 18.4789 298.927 18.4789C298.927 18.4789 298.927 18.4789 298.927 18.4789C298.927 18.4789 298.927 18.4789 298.927 18.4788C298.927 18.4788 298.927 18.4788 298.926 18.4787C298.926 18.4786 298.925 18.4785 298.924 18.4783C298.922 18.4779 298.919 18.4773 298.916 18.4765C298.908 18.4749 298.897 18.4725 298.881 18.4694C298.851 18.463 298.806 18.4536 298.745 18.4411C298.624 18.416 298.444 18.3788 298.206 18.3301C297.731 18.2327 297.026 18.0894 296.109 17.906L296.305 16.9255ZM137.413 2.84333L137.3 1.84975L137.413 2.84333ZM299.867 17.4424C300.169 17.9047 300.039 18.5244 299.577 18.8265L292.043 23.7507C291.581 24.0529 290.961 23.9231 290.659 23.4608C290.357 22.9985 290.487 22.3788 290.949 22.0766L297.645 17.6996L293.268 11.0032C292.966 10.5409 293.096 9.92118 293.558 9.61901C294.02 9.31684 294.64 9.44664 294.942 9.90893L299.867 17.4424ZM1.26562 54.5503C0.754738 53.6906 0.754755 53.6906 0.754775 53.6906C0.754786 53.6906 0.75481 53.6906 0.754833 53.6906C0.754878 53.6906 0.754937 53.6905 0.755009 53.6905C0.755155 53.6904 0.755355 53.6903 0.755611 53.6901C0.756122 53.6898 0.756854 53.6894 0.757805 53.6888C0.759708 53.6877 0.762491 53.686 0.766149 53.6839C0.773465 53.6795 0.784285 53.6731 0.798579 53.6647C0.827168 53.6478 0.869654 53.6227 0.925809 53.5896C1.03812 53.5234 1.2051 53.4254 1.4249 53.2972C1.86451 53.0408 2.51543 52.6636 3.36288 52.1792L4.35538 53.9155C3.51321 54.3969 2.86738 54.7712 2.43264 55.0248C2.21527 55.1516 2.05068 55.2482 1.94071 55.313C1.88572 55.3453 1.84439 55.3697 1.81695 55.386C1.80323 55.3941 1.79298 55.4002 1.78623 55.4042C1.78285 55.4062 1.78035 55.4077 1.77873 55.4086C1.77792 55.4091 1.77733 55.4095 1.77696 55.4097C1.77678 55.4098 1.77665 55.4099 1.77657 55.4099C1.77653 55.4099 1.77651 55.4099 1.7765 55.4099C1.7765 55.41 1.7765 55.4099 1.7765 55.41C1.7765 55.4099 1.77651 55.4099 1.26562 54.5503ZM8.71796 49.1755C10.3039 48.3008 12.1047 47.3196 14.0998 46.2507L15.0443 48.0137C13.0567 49.0785 11.2631 50.0558 9.68385 50.9268L8.71796 49.1755ZM19.5097 43.3914C21.2254 42.4967 23.0394 41.5621 24.9432 40.5952L25.8488 42.3784C23.9517 43.3419 22.1441 44.2733 20.4344 45.1648L19.5097 43.3914ZM30.4078 37.8565C32.1852 36.9776 34.0236 36.0799 35.9177 35.1685L36.7849 36.9707C34.8975 37.8789 33.0655 38.7734 31.2944 39.6493L30.4078 37.8565ZM41.4518 32.5428C43.2604 31.6969 45.1106 30.8435 46.9985 29.9862L47.8254 31.8073C45.9446 32.6613 44.1012 33.5116 42.2991 34.3544L41.4518 32.5428ZM52.5799 27.4909C54.4223 26.6801 56.2947 25.8691 58.1936 25.061L58.9768 26.9013C57.0856 27.7061 55.2207 28.5139 53.3854 29.3215L52.5799 27.4909ZM63.839 22.7008C65.7107 21.9324 67.604 21.1694 69.5159 20.4145L70.2504 22.2747C68.3471 23.0262 66.4622 23.7858 64.5985 24.5509L63.839 22.7008ZM75.225 18.2069C77.1249 17.4881 79.0398 16.7795 80.967 16.0837L81.6462 17.9648C79.7289 18.657 77.8235 19.3621 75.9328 20.0775L75.225 18.2069ZM86.7428 14.0509C88.6711 13.3902 90.6088 12.7444 92.5533 12.116L93.1683 14.0191C91.2354 14.6437 89.3088 15.2858 87.3911 15.9429L86.7428 14.0509ZM98.3995 10.2873C100.357 9.69554 102.319 9.12377 104.282 8.57443L104.821 10.5005C102.872 11.0459 100.923 11.6138 98.9781 12.2017L98.3995 10.2873ZM110.203 6.98886C112.191 6.48079 114.178 5.99826 116.161 5.54385L116.608 7.49333C114.642 7.94386 112.671 8.42246 110.698 8.9266L110.203 6.98886ZM122.158 4.25511C124.178 3.85069 126.191 3.47847 128.193 3.14125L128.525 5.11349C126.544 5.44713 124.551 5.81559 122.551 6.21618L122.158 4.25511ZM134.265 2.2245C135.28 2.08951 136.292 1.96446 137.3 1.84975L137.526 3.83692C136.531 3.95018 135.532 4.07367 134.529 4.20705L134.265 2.2245ZM137.3 1.84975C138.249 1.74182 139.209 1.64148 140.181 1.54851L140.371 3.53942C139.411 3.6313 138.462 3.7304 137.526 3.83692L137.3 1.84975ZM146.012 1.08544C147.923 0.96282 149.87 0.864794 151.849 0.789869L151.924 2.78844C149.962 2.86275 148.032 2.95991 146.14 3.08133L146.012 1.08544ZM157.687 0.635744C159.61 0.60595 161.557 0.595473 163.526 0.603071L163.518 2.60306C161.562 2.59551 159.628 2.60592 157.718 2.6355L157.687 0.635744ZM169.362 0.676178C171.292 0.716385 173.237 0.772198 175.196 0.842519L175.124 2.84123C173.175 2.77125 171.239 2.71573 169.321 2.67574L169.362 0.676178ZM181.024 1.09186C182.956 1.18731 184.897 1.29554 186.844 1.41554L186.721 3.41175C184.782 3.29223 182.849 3.18446 180.926 3.08942L181.024 1.09186ZM192.656 1.80645C194.591 1.94715 196.528 2.09835 198.466 2.25909L198.3 4.25225C196.369 4.09204 194.438 3.94137 192.511 3.80118L192.656 1.80645ZM204.271 2.76841C206.208 2.94736 208.143 3.13488 210.071 3.33L209.87 5.31984C207.947 5.12529 206.018 4.93833 204.087 4.75993L204.271 2.76841ZM215.865 3.94C217.803 4.15191 219.732 4.3706 221.65 4.59506L221.417 6.5815C219.504 6.35761 217.58 6.13949 215.647 5.92815L215.865 3.94ZM227.426 5.29225C229.369 5.53375 231.297 5.78025 233.205 6.03065L232.945 8.01366C231.041 7.76382 229.118 7.5179 227.179 7.27698L227.426 5.29225ZM238.981 6.80754C240.93 7.07601 242.854 7.34751 244.751 7.62081L244.466 9.60036C242.573 9.32764 240.653 9.05671 238.708 8.78883L238.981 6.80754ZM250.515 8.46888C252.472 8.76267 254.392 9.05703 256.272 9.35045L255.964 11.3265C254.087 11.0337 252.171 10.7399 250.218 10.4467L250.515 8.46888ZM262.021 10.2644C263.991 10.583 265.905 10.8987 267.759 11.2093L267.429 13.1818C265.578 12.8718 263.667 12.5567 261.702 12.2387L262.021 10.2644ZM273.483 12.1844C275.502 12.534 277.428 12.8737 279.252 13.2003L278.899 15.169C277.079 14.8431 275.157 14.504 273.142 14.1551L273.483 12.1844ZM284.977 14.2422C287.102 14.6354 289.023 14.9984 290.718 15.3231L290.341 17.2874C288.651 16.9634 286.734 16.6012 284.613 16.2089L284.977 14.2422ZM296.403 16.4352C297.323 16.619 298.03 16.7627 298.507 16.8606C298.746 16.9095 298.928 16.947 299.049 16.9723C299.11 16.9849 299.157 16.9945 299.187 17.0009C299.203 17.0041 299.215 17.0066 299.222 17.0082C299.226 17.009 299.229 17.0097 299.231 17.0101C299.232 17.0103 299.233 17.0104 299.234 17.0106C299.234 17.0106 299.234 17.0106 299.234 17.0107C299.234 17.0107 299.234 17.0107 299.234 17.0107C299.234 17.0107 299.234 17.0107 299.234 17.0107C299.234 17.0107 299.234 17.0107 299.029 17.9895C298.824 18.9683 298.824 18.9683 298.824 18.9683C298.824 18.9683 298.824 18.9683 298.824 18.9682C298.824 18.9682 298.824 18.9682 298.824 18.9682C298.824 18.9682 298.824 18.9682 298.824 18.9681C298.823 18.968 298.823 18.9679 298.822 18.9677C298.82 18.9673 298.817 18.9667 298.813 18.9659C298.806 18.9644 298.795 18.962 298.78 18.9589C298.749 18.9526 298.704 18.9431 298.644 18.9307C298.523 18.9057 298.343 18.8685 298.106 18.8199C297.631 18.7226 296.927 18.5795 296.011 18.3963L296.403 16.4352Z" fill="#4343E8"/>
</svg>
