<svg width="512" height="512" viewBox="0 0 512 512" fill="none" xmlns="http://www.w3.org/2000/svg">
<g clip-path="url(#clip0_3714_685)">
<circle cx="256" cy="520" r="200" fill="#FFE785"/>
<g clip-path="url(#clip1_3714_685)">
<path d="M496.704 272.086H415V184.013C415 179.871 411.643 176.513 407.5 176.513C403.357 176.513 400 179.871 400 184.013V272.086H385V78.376C385 70.127 378.289 63.417 370.041 63.417H278.459C270.211 63.417 263.5 70.127 263.5 78.376V272.086H248.5V78.376C248.5 70.127 241.789 63.417 233.541 63.417H141.959C133.711 63.417 127 70.127 127 78.376V272.086H112V48.417H400V149.013C400 153.155 403.357 156.513 407.5 156.513C411.643 156.513 415 153.155 415 149.013V48.417H418.204C426.639 48.417 433.5 41.534 433.5 33.073V15.343C433.5 6.883 426.639 0 418.204 0H93.796C85.361 0 78.5 6.883 78.5 15.344V33.074C78.5 41.534 85.361 48.418 93.796 48.418H97V272.087H15.296C6.861 272.086 0 278.948 0 287.382V305.004C0 313.439 6.861 320.3 15.296 320.3H15.796V463.786H15.296C6.861 463.786 0 470.648 0 479.082V496.704C0 505.138 6.861 512 15.296 512H238.5C242.643 512 246 508.642 246 504.5C246 500.358 242.643 497 238.5 497H15.296C15.133 497 15 496.867 15 496.704V479.082C15 478.919 15.133 478.786 15.296 478.786H496.704C496.867 478.786 497 478.919 497 479.082V496.704C497 496.867 496.867 497 496.704 497H273.5C269.357 497 266 500.358 266 504.5C266 508.642 269.357 512 273.5 512H496.704C505.139 512 512 505.138 512 496.704V479.082C512 470.648 505.139 463.786 496.704 463.786H496.204V320.3H496.704C505.139 320.3 512 313.438 512 305.004V287.382C512 278.948 505.139 272.086 496.704 272.086ZM93.5 33.074V15.344C93.5 15.132 93.653 15 93.796 15H418.204C418.347 15 418.5 15.131 418.5 15.344V33.074C418.5 33.286 418.347 33.418 418.204 33.418C402.837 33.418 109.153 33.418 93.796 33.418C93.653 33.417 93.5 33.286 93.5 33.074ZM278.459 78.417L370 78.376V272.086H278.498L278.459 78.417ZM141.959 78.417L233.5 78.376V272.086H141.998L141.959 78.417ZM481.204 463.234H30.796V320.3H481.204V463.234ZM497 305.004C497 305.168 496.867 305.3 496.704 305.3C493.88 305.3 25.551 305.3 15.296 305.3C15.133 305.3 15 305.167 15 305.004V287.382C15 287.219 15.133 287.086 15.296 287.086H496.704C496.867 287.086 497 287.219 497 287.382V305.004Z" fill="#494949"/>
<path d="M67.655 442.705H86.645C95.413 442.705 102.545 435.572 102.545 426.804V357.284C102.545 348.516 95.412 341.383 86.645 341.383H67.655C58.887 341.383 51.755 348.516 51.755 357.284V426.804C51.755 435.572 58.888 442.705 67.655 442.705ZM66.755 357.284C66.755 356.787 67.159 356.383 67.655 356.383H86.645C87.141 356.383 87.545 356.787 87.545 357.284V426.804C87.545 427.301 87.141 427.705 86.645 427.705H67.655C67.159 427.705 66.755 427.301 66.755 426.804V357.284Z" fill="#494949"/>
<path d="M139.406 442.705H158.395C167.163 442.705 174.296 435.572 174.296 426.804V357.284C174.296 348.516 167.162 341.383 158.395 341.383H139.406C130.638 341.383 123.505 348.516 123.505 357.284V426.804C123.505 435.572 130.639 442.705 139.406 442.705ZM138.505 357.284C138.505 356.787 138.909 356.383 139.406 356.383H158.395C158.892 356.383 159.296 356.787 159.296 357.284V426.804C159.296 427.301 158.892 427.705 158.395 427.705H139.406C138.909 427.705 138.505 427.301 138.505 426.804V357.284Z" fill="#494949"/>
<path d="M210.796 442.705H229.786C238.554 442.705 245.687 435.572 245.687 426.804V357.284C245.687 348.516 238.553 341.383 229.786 341.383H210.796C202.028 341.383 194.896 348.516 194.896 357.284V426.804C194.896 435.572 202.028 442.705 210.796 442.705ZM209.896 357.284C209.896 356.787 210.3 356.383 210.796 356.383H229.786C230.283 356.383 230.687 356.787 230.687 357.284V426.804C230.687 427.301 230.283 427.705 229.786 427.705H210.796C210.3 427.705 209.896 427.301 209.896 426.804V357.284Z" fill="#494949"/>
<path d="M282.547 442.705H301.536C310.304 442.705 317.437 435.572 317.437 426.804V357.284C317.437 348.516 310.303 341.383 301.536 341.383H282.547C273.779 341.383 266.646 348.516 266.646 357.284V426.804C266.646 435.572 273.779 442.705 282.547 442.705ZM281.646 357.284C281.646 356.787 282.05 356.383 282.547 356.383H301.536C302.033 356.383 302.437 356.787 302.437 357.284V426.804C302.437 427.301 302.033 427.705 301.536 427.705H282.547C282.05 427.705 281.646 427.301 281.646 426.804V357.284Z" fill="#494949"/>
<path d="M354.131 442.705H373.12C381.888 442.705 389.021 435.572 389.021 426.804V357.284C389.021 348.516 381.887 341.383 373.12 341.383H354.131C345.363 341.383 338.23 348.516 338.23 357.284V426.804C338.229 435.572 345.363 442.705 354.131 442.705ZM353.229 357.284C353.229 356.787 353.633 356.383 354.13 356.383H373.119C373.616 356.383 374.02 356.787 374.02 357.284V426.804C374.02 427.301 373.616 427.705 373.119 427.705H354.13C353.633 427.705 353.229 427.301 353.229 426.804V357.284Z" fill="#494949"/>
<path d="M425.521 442.705H444.51C453.278 442.705 460.411 435.572 460.411 426.804V357.284C460.411 348.516 453.277 341.383 444.51 341.383H425.521C416.753 341.383 409.62 348.516 409.62 357.284V426.804C409.62 435.572 416.754 442.705 425.521 442.705ZM424.62 357.284C424.62 356.787 425.024 356.383 425.521 356.383H444.51C445.007 356.383 445.411 356.787 445.411 357.284V426.804C445.411 427.301 445.007 427.705 444.51 427.705H425.521C425.024 427.705 424.62 427.301 424.62 426.804V357.284Z" fill="#494949"/>
<path d="M316.411 107.267C313.481 104.338 308.733 104.338 305.804 107.267C302.875 110.196 302.875 114.945 305.804 117.873L329.316 141.385C332.246 144.314 336.994 144.314 339.923 141.385C342.852 138.456 342.852 133.707 339.923 130.779L316.411 107.267Z" fill="#494949"/>
<path d="M342.604 92.8315C339.674 89.9025 334.926 89.9025 331.997 92.8315C329.068 95.7605 329.068 100.51 331.997 103.438L343.753 115.194C346.683 118.123 351.431 118.123 354.36 115.194C357.289 112.265 357.289 107.516 354.36 104.588L342.604 92.8315Z" fill="#494949"/>
</g>
</g>
<defs>
<clipPath id="clip0_3714_685">
<rect width="512" height="512" fill="white"/>
</clipPath>
<clipPath id="clip1_3714_685">
<rect width="512" height="512" fill="white"/>
</clipPath>
</defs>
</svg>
