<?xml version="1.0" encoding="utf-8"?>
<!-- Generator: Adobe Illustrator 22.1.0, SVG Export Plug-In . SVG Version: 6.00 Build 0)  -->
<svg version="1.1" id="Layer_1" xmlns="http://www.w3.org/2000/svg" xmlns:xlink="http://www.w3.org/1999/xlink" x="0px" y="0px"
	 viewBox="0 0 44.8 44.8" style="enable-background:new 0 0 44.8 44.8;" xml:space="preserve">
<style type="text/css">
	.st0{fill:#858585;}
	.st1{fill:#FFCC05;}
</style>
<g>
	<g>
		<path class="st0" d="M12.6,41.2H4.9c-0.3,0-0.5-0.2-0.5-0.5V24.9c0-0.3,0.2-0.5,0.5-0.5h7.7c0.3,0,0.5,0.2,0.5,0.5v15.7
			C13.1,40.9,12.9,41.2,12.6,41.2z M5.4,40.2h6.7V25.4H5.4V40.2z"/>
		<path class="st0" d="M32.1,41.2H12.6c-0.3,0-0.5-0.2-0.5-0.5V26.2c0-0.3,0.2-0.5,0.5-0.5h19.5c0.3,0,0.5,0.2,0.5,0.5v14.5
			C32.6,40.9,32.4,41.2,32.1,41.2z M13.1,40.2h18.5V26.7H13.1V40.2z"/>
		<path class="st0" d="M11.8,25.4H5.7c-0.3,0-0.5-0.2-0.5-0.5v-2.7c0-0.3,0.2-0.5,0.5-0.5h6.1c0.3,0,0.5,0.2,0.5,0.5v2.7
			C12.3,25.2,12.1,25.4,11.8,25.4z M6.2,24.4h5.1v-1.7H6.2V24.4z"/>
		<path class="st0" d="M11.1,22.7H6.4c-0.3,0-0.5-0.2-0.5-0.5v-1.1c0-1.3,0.5-2.4,1.4-3.3l1.1-1.1c0.1-0.1,0.2-0.1,0.4-0.1l0,0
			c0.1,0,0.3,0.1,0.4,0.1l1.1,1.1c0.9,0.9,1.4,2.1,1.4,3.3v1.1C11.6,22.5,11.4,22.7,11.1,22.7z M6.9,21.7h3.6v-0.6
			c0-1-0.4-1.9-1.1-2.6l-0.7-0.7L8,18.5c-0.7,0.7-1.1,1.6-1.1,2.6C6.9,21.1,6.9,21.7,6.9,21.7z"/>
		<path class="st0" d="M8.8,17.5c-0.3,0-0.5-0.2-0.5-0.5v-2.2c0-0.3,0.2-0.5,0.5-0.5s0.5,0.2,0.5,0.5V17C9.3,17.3,9,17.5,8.8,17.5z"
			/>
		<path class="st0" d="M39.8,41.2h-7.7c-0.3,0-0.5-0.2-0.5-0.5V24.9c0-0.3,0.2-0.5,0.5-0.5h7.7c0.3,0,0.5,0.2,0.5,0.5v15.7
			C40.3,40.9,40.1,41.2,39.8,41.2z M32.6,40.2h6.7V25.4h-6.7V40.2z"/>
		<path class="st0" d="M39,25.4h-6.1c-0.3,0-0.5-0.2-0.5-0.5v-2.7c0-0.3,0.2-0.5,0.5-0.5H39c0.3,0,0.5,0.2,0.5,0.5v2.7
			C39.5,25.2,39.3,25.4,39,25.4z M33.4,24.4h5.1v-1.7h-5.1V24.4z"/>
		<path class="st0" d="M38.3,22.7h-4.6c-0.3,0-0.5-0.2-0.5-0.5v-1.1c0-1.3,0.5-2.4,1.4-3.3l1.1-1.1c0.2-0.2,0.5-0.2,0.7,0l1.1,1.1
			c0.9,0.9,1.4,2.1,1.4,3.3v1.1C38.8,22.5,38.6,22.7,38.3,22.7z M34.2,21.7h3.6v-0.6c0-1-0.4-1.9-1.1-2.6L36,17.8l-0.7,0.7
			c-0.7,0.7-1.1,1.6-1.1,2.6V21.7z"/>
		<path class="st1" d="M29,16.5H15.7v-1.3c0-2.9,1.5-5.6,3.9-7.2l2.8-1.8L25.2,8c2.4,1.6,3.9,4.3,3.9,7.2v1.3H29z"/>
		<path class="st0" d="M29,17H15.7c-0.3,0-0.5-0.2-0.5-0.5v-1.3c0-3.1,1.5-5.9,4.1-7.7l2.8-1.8c0.2-0.1,0.4-0.1,0.6,0l2.7,1.9
			c2.6,1.7,4.1,4.6,4.1,7.7v1.3C29.5,16.8,29.3,17,29,17z M16.2,16h12.3v-0.8c0-2.8-1.4-5.3-3.7-6.8l-2.4-1.6l-2.5,1.6
			c-2.3,1.5-3.7,4.1-3.7,6.8V16z"/>
		<path class="st0" d="M36,17.5c-0.3,0-0.5-0.2-0.5-0.5v-2.2c0-0.3,0.2-0.5,0.5-0.5s0.5,0.2,0.5,0.5V17C36.5,17.3,36.3,17.5,36,17.5
			z"/>
		<path class="st0" d="M22.4,6.7c-0.3,0-0.5-0.2-0.5-0.5V4c0-0.3,0.2-0.5,0.5-0.5s0.5,0.2,0.5,0.5v2.2C22.9,6.5,22.6,6.7,22.4,6.7z"
			/>
		<path class="st1" d="M30.1,29.8H14.7c-0.3,0-0.5-0.2-0.5-0.5s0.2-0.5,0.5-0.5h15.4c0.3,0,0.5,0.2,0.5,0.5S30.3,29.8,30.1,29.8z"/>
		<path class="st0" d="M16.5,38.6c-0.3,0-0.5-0.2-0.5-0.5v-6.7c0-0.3,0.2-0.5,0.5-0.5s0.5,0.2,0.5,0.5v6.7
			C17,38.4,16.8,38.6,16.5,38.6z"/>
		<path class="st1" d="M20.1,38.6c-0.3,0-0.5-0.2-0.5-0.5v-6.7c0-0.3,0.2-0.5,0.5-0.5s0.5,0.2,0.5,0.5v6.7
			C20.6,38.4,20.4,38.6,20.1,38.6z"/>
		<path class="st1" d="M24.3,38.6c-0.3,0-0.5-0.2-0.5-0.5v-6.7c0-0.3,0.2-0.5,0.5-0.5s0.5,0.2,0.5,0.5v6.7
			C24.8,38.4,24.6,38.6,24.3,38.6z"/>
		<path class="st0" d="M27.9,38.6c-0.3,0-0.5-0.2-0.5-0.5v-6.7c0-0.3,0.2-0.5,0.5-0.5s0.5,0.2,0.5,0.5v6.7
			C28.4,38.4,28.2,38.6,27.9,38.6z"/>
		<path class="st1" d="M37.5,31.9h-3c-0.3,0-0.5-0.2-0.5-0.5s0.2-0.5,0.5-0.5h3c0.3,0,0.5,0.2,0.5,0.5S37.8,31.9,37.5,31.9z"/>
		<path class="st0" d="M37.5,36.4h-3c-0.3,0-0.5-0.2-0.5-0.5s0.2-0.5,0.5-0.5h3c0.3,0,0.5,0.2,0.5,0.5S37.8,36.4,37.5,36.4z"/>
		<path class="st1" d="M10.3,31.9h-3c-0.3,0-0.5-0.2-0.5-0.5s0.2-0.5,0.5-0.5h3c0.3,0,0.5,0.2,0.5,0.5S10.5,31.9,10.3,31.9z"/>
		<path class="st0" d="M10.3,36.4h-3c-0.3,0-0.5-0.2-0.5-0.5s0.2-0.5,0.5-0.5h3c0.3,0,0.5,0.2,0.5,0.5S10.5,36.4,10.3,36.4z"/>
		<path class="st0" d="M29.7,26.7H15c-0.3,0-0.5-0.2-0.5-0.5v-6.9c0-0.3,0.2-0.5,0.5-0.5h14.7c0.3,0,0.5,0.2,0.5,0.5v6.9
			C30.2,26.5,30,26.7,29.7,26.7z M15.5,25.7h13.7v-5.9H15.5V25.7z"/>
		<path class="st0" d="M30.5,19.8H14.3c-0.3,0-0.5-0.2-0.5-0.5v-2.8c0-0.3,0.2-0.5,0.5-0.5h16.2c0.3,0,0.5,0.2,0.5,0.5v2.8
			C31,19.6,30.7,19.8,30.5,19.8z M14.8,18.8H30V17H14.8V18.8z"/>
	</g>
	<path class="st0" d="M42.8,41.2h-3c-0.3,0-0.5-0.2-0.5-0.5s0.2-0.5,0.5-0.5h3c0.3,0,0.5,0.2,0.5,0.5S43.1,41.2,42.8,41.2z"/>
	<path class="st0" d="M4.9,41.2h-3c-0.3,0-0.5-0.2-0.5-0.5s0.2-0.5,0.5-0.5h3c0.3,0,0.5,0.2,0.5,0.5S5.2,41.2,4.9,41.2z"/>
</g>
</svg>
