<svg width="512" height="512" viewBox="0 0 512 512" fill="none" xmlns="http://www.w3.org/2000/svg">
<g clip-path="url(#clip0_3760_660)">
<circle cx="256" cy="512" r="200" fill="#FFE785"/>
<path d="M488 225.472V200C488 190.568 484.328 181.696 477.664 175.032C474.008 171.376 472 166.528 472 161.368V144C472 139.584 468.416 136 464 136H456V116.688C456 114.568 455.16 112.528 453.656 111.032L437.656 95.032L426.344 106.344L440 120V136H432C427.584 136 424 139.584 424 144V161.368C424 166.528 421.992 171.376 418.344 175.032C411.672 181.696 408 190.568 408 200V224H397.272L377.856 178.688C381.68 173.416 384 166.992 384 160C384 151.96 380.92 144.688 376 139.056V112C376 98.768 365.232 88 352 88C338.768 88 328 98.768 328 112V139.056C323.08 144.68 320 151.952 320 160C320 166.992 322.32 173.416 326.144 178.688L306.728 224H32C18.768 224 8 234.768 8 248C8 258.416 14.712 267.216 24 270.528V472C24 476.416 27.584 480 32 480H75.424C73.232 484.992 72 490.416 72 496C72 500.416 75.584 504 80 504H176C180.416 504 184 500.416 184 496C184 490.416 182.768 484.992 180.576 480H203.416C201.232 484.992 200 490.416 200 496C200 500.416 203.584 504 208 504H304C308.416 504 312 500.416 312 496C312 490.416 310.768 484.992 308.576 480H331.416C329.232 484.992 328 490.416 328 496C328 500.416 331.584 504 336 504H432C436.416 504 440 500.416 440 496C440 490.416 438.768 484.992 436.576 480H480C484.416 480 488 476.416 488 472V270.528C497.288 267.216 504 258.416 504 248C504 237.584 497.288 228.784 488 225.472V225.472ZM424 200C424 194.92 426.064 189.936 429.664 186.344C436.328 179.664 440 170.8 440 161.368V152H456V161.368C456 170.8 459.672 179.664 466.344 186.344C469.936 189.936 472 194.92 472 200V224H424V200ZM336 160C336 151.176 343.176 144 352 144C360.824 144 368 151.176 368 160C368 168.824 360.824 176 352 176C343.176 176 336 168.824 336 160ZM352 104C356.408 104 360 107.592 360 112V129.136C357.424 128.464 354.776 128 352 128C349.224 128 346.576 128.464 344 129.136V112C344 107.592 347.592 104 352 104ZM339.04 189.2C343.016 190.976 347.384 192 352 192C356.616 192 360.984 190.976 364.96 189.2L379.872 224H324.136L339.04 189.2ZM89.344 488C91.176 482.784 94.776 478.32 99.736 475.36C112.424 467.8 120 454.808 120 440.616V368H136V440.616C136 454.808 143.576 467.792 156.264 475.36C161.216 478.312 164.824 482.784 166.648 488H89.344ZM144 352H112H88V336C88 331.592 91.592 328 96 328H160C164.408 328 168 331.592 168 336V352H144ZM217.344 488C219.176 482.784 222.776 478.32 227.736 475.36C240.424 467.8 248 454.808 248 440.616V368H264V440.616C264 454.808 271.576 467.792 284.264 475.36C289.216 478.312 292.824 482.784 294.648 488H217.344ZM272 352H240H216V336C216 331.592 219.592 328 224 328H288C292.408 328 296 331.592 296 336V352H272ZM345.344 488C347.176 482.784 350.776 478.32 355.736 475.36C368.424 467.8 376 454.808 376 440.616V368H392V440.616C392 454.808 399.576 467.792 412.264 475.36C417.216 478.312 420.824 482.784 422.648 488H345.344ZM400 352H368H344V336C344 331.592 347.592 328 352 328H416C420.408 328 424 331.592 424 336V352H400ZM424 464V464.064C422.856 463.2 421.696 462.36 420.456 461.624C412.656 456.968 408 449.12 408 440.616V368H432C436.416 368 440 364.416 440 360V336C440 322.768 429.232 312 416 312H352C338.768 312 328 322.768 328 336V360C328 364.416 331.584 368 336 368H360V440.616C360 449.112 355.344 456.968 347.544 461.616C346.304 462.36 345.144 463.2 344 464.064V464H296V464.064C294.856 463.2 293.696 462.36 292.456 461.624C284.656 456.968 280 449.12 280 440.616V368H304C308.416 368 312 364.416 312 360V336C312 322.768 301.232 312 288 312H224C210.768 312 200 322.768 200 336V360C200 364.416 203.584 368 208 368H232V440.616C232 449.112 227.344 456.968 219.544 461.616C218.304 462.36 217.144 463.2 216 464.064V464H168V464.064C166.856 463.2 165.696 462.36 164.456 461.624C156.656 456.968 152 449.12 152 440.616V368H176C180.416 368 184 364.416 184 360V336C184 322.768 173.232 312 160 312H96C82.768 312 72 322.768 72 336V360C72 364.416 75.584 368 80 368H104V440.616C104 449.112 99.344 456.968 91.544 461.616C90.304 462.36 89.144 463.2 88 464.064V464H40V448H80V432H40V416H80V400H40V272H472V400H432V416H472V432H432V448H472V464H424ZM480 256H32C27.592 256 24 252.408 24 248C24 243.592 27.592 240 32 240H416H480C484.408 240 488 243.592 488 248C488 252.408 484.408 256 480 256Z" fill="#494949"/>
<path d="M32 56H64V72.92C59.32 74.792 56 79.344 56 84.688C56 89.768 53.936 94.752 50.344 98.344C43.672 105.008 40 113.88 40 123.312V128C40 136.824 47.176 144 56 144H88C96.824 144 104 136.824 104 128V123.312C104 113.88 100.328 105.008 93.656 98.344C90.064 94.752 88 89.768 88 84.688C88 79.352 84.68 74.792 80 72.92V56H136V72.92C131.32 74.792 128 79.344 128 84.688C128 89.768 125.936 94.752 122.344 98.344C115.672 105.008 112 113.88 112 123.312V128C112 136.824 119.176 144 128 144H160C168.824 144 176 136.824 176 128V123.312C176 113.88 172.328 105.008 165.656 98.344C162.064 94.752 160 89.768 160 84.688C160 79.352 156.68 74.792 152 72.92V56H208V72.92C203.32 74.792 200 79.344 200 84.688C200 89.768 197.936 94.752 194.344 98.344C187.672 105.008 184 113.88 184 123.312V128C184 136.824 191.176 144 200 144H232C240.824 144 248 136.824 248 128V123.312C248 113.88 244.328 105.008 237.656 98.344C234.064 94.752 232 89.768 232 84.688C232 79.352 228.68 74.792 224 72.92V56H480C493.232 56 504 45.232 504 32C504 18.768 493.232 8 480 8H32C18.768 8 8 18.768 8 32C8 45.232 18.768 56 32 56V56ZM88 123.312V128H56V123.312C56 118.232 58.064 113.248 61.656 109.656C67.536 103.776 71.088 96.176 71.848 88H72.152C72.912 96.176 76.464 103.776 82.344 109.656C85.936 113.248 88 118.232 88 123.312V123.312ZM160 123.312V128H128V123.312C128 118.232 130.064 113.248 133.656 109.656C139.536 103.776 143.088 96.176 143.848 88H144.152C144.912 96.176 148.464 103.776 154.344 109.656C157.936 113.248 160 118.232 160 123.312V123.312ZM232 123.312V128H200V123.312C200 118.232 202.064 113.248 205.656 109.656C211.536 103.776 215.088 96.176 215.848 88H216.152C216.912 96.176 220.464 103.776 226.344 109.656C229.936 113.248 232 118.232 232 123.312V123.312ZM384 40H128V24H384V40ZM400 24H416V40H400V24ZM112 40H96V24H112V40ZM488 32C488 36.408 484.408 40 480 40H432V24H480C484.408 24 488 27.592 488 32ZM32 24H80V40H32C27.592 40 24 36.408 24 32C24 27.592 27.592 24 32 24Z" fill="#494949"/>
</g>
<defs>
<clipPath id="clip0_3760_660">
<rect width="512" height="512" fill="white"/>
</clipPath>
</defs>
</svg>
