<svg width="512" height="512" viewBox="0 0 512 512" fill="none" xmlns="http://www.w3.org/2000/svg">
<g clip-path="url(#clip0_3760_640)">
<circle cx="256" cy="512" r="200" fill="#FFE785"/>
<path d="M501.881 15.0742H301.281C295.692 15.0742 291.162 19.6042 291.162 25.1932C291.162 30.7822 295.692 35.3122 301.281 35.3122H491.762V346.906H392.542L401.553 305.759C416.454 296.405 424.083 278.116 418.271 261.184C413.074 246.042 398.715 235.732 383.043 233.941V87.9712C383.043 82.3822 378.513 77.8522 372.924 77.8522H139.076C133.487 77.8522 128.957 82.3822 128.957 87.9712V233.94C111.879 235.89 96.287 248.017 92.573 265.197C89.133 281.111 96.885 297.203 110.456 305.765L119.682 346.906H20.238V35.3122H210.214C215.803 35.3122 220.333 30.7822 220.333 25.1932C220.333 19.6042 215.803 15.0742 210.214 15.0742H10.119C4.53 15.0742 0 19.6042 0 25.1932V357.025C0 362.614 4.53 367.144 10.119 367.144H124.22L154.669 502.924C156.369 510.495 166.03 513.367 171.59 507.972L221.64 459.407L241.642 479.027L226.144 494.207C221.179 499.07 222.644 507.683 228.961 510.616C233.781 512.854 238.167 510.758 241.629 507.368C246.45 502.646 251.271 497.924 256.093 493.202C260.754 497.774 265.415 502.346 270.075 506.918C273.468 510.247 277.866 512.145 282.541 509.976C288.856 507.047 290.329 498.436 285.368 493.571L270.554 479.039L290.585 459.42L341.328 508.583C346.907 513.988 356.591 511.067 358.254 503.48L388.111 367.145H501.882C507.471 367.145 512.001 362.615 512.001 357.026V25.1932C512 19.6042 507.47 15.0742 501.881 15.0742V15.0742ZM353.963 428.466L338.074 412.904L362.64 388.843L353.963 428.466ZM370.538 352.779L355.331 367.674L336.071 348.37L373.027 312.511C375.139 312.511 377.254 312.544 379.365 312.474L370.538 352.779ZM321.776 334.042L300.294 312.511H343.965L321.776 334.042ZM307.25 348.136L289.516 365.344L270.607 346.823L288.477 329.32L307.25 348.136ZM278.5 312.511L256.146 332.659L233.417 312.511H278.5ZM222.529 328.061L241.685 346.823L222.674 365.444L203.414 346.784L222.529 328.061ZM188.873 332.696L168.039 312.511H209.482L188.873 332.696ZM138.954 312.511L174.41 346.863L155.094 365.783L141.723 352.706L132.701 312.476C134.784 312.541 136.87 312.511 138.954 312.511ZM149.862 388.998L174.225 412.896L158.644 428.157L149.862 388.998ZM169.544 379.956L188.95 360.949L208.21 379.609L188.686 398.732L169.544 379.956ZM222.75 393.697L241.538 411.9L221.717 431.133L203.137 412.908L222.75 393.697ZM237.213 379.531L256.146 360.987L274.988 379.442L256.069 397.8L237.213 379.531ZM289.451 393.607L309.152 412.903L290.507 431.165L270.61 411.888L289.451 393.607ZM303.979 379.51L321.545 362.465L340.872 381.836L323.613 398.74L303.979 379.51ZM362.806 98.0902V233.633H149.194V98.0902H362.806ZM118.118 259.834C123.988 254.504 131.22 253.871 138.631 253.871H376.324C387.483 253.871 400.023 260.432 400.027 273.077C400.031 286.082 387.158 292.273 375.841 292.273C370.771 292.273 143.688 292.273 137.831 292.273C129.948 292.273 122.181 291.028 116.595 284.739C110.008 277.324 110.803 266.477 118.118 259.834V259.834ZM170.463 480.865L163.852 451.384L188.675 427.071L207.188 445.23L170.463 480.865ZM256.103 464.863L236.169 445.309L256.08 425.989L276.045 445.332L256.103 464.863ZM323.613 427.068L348.855 451.791L342.368 481.411L305.047 445.252L323.613 427.068Z" fill="#494949"/>
<path d="M256.084 35C261.607 35 266.084 30.5228 266.084 25C266.084 19.4772 261.607 15 256.084 15C250.561 15 246.084 19.4772 246.084 25C246.084 30.5228 250.561 35 256.084 35Z" fill="#494949"/>
</g>
<defs>
<clipPath id="clip0_3760_640">
<rect width="512" height="512" fill="white"/>
</clipPath>
</defs>
</svg>
