<svg width="512" height="512" viewBox="0 0 512 512" fill="none" xmlns="http://www.w3.org/2000/svg">
<g clip-path="url(#clip0_3714_699)">
<circle cx="256" cy="520" r="200" fill="#FFE785"/>
<path d="M486.4 349.867V324.267H494.933C504.359 324.267 512 316.626 512 307.2V298.667C512 279.816 496.718 264.534 477.867 264.534H422.485C411.481 243.564 389.762 230.42 366.08 230.4H272.213C254.125 229.495 236.493 236.259 223.65 249.029C222.268 247.988 220.894 246.929 219.614 245.812C193.983 224.308 161.452 212.775 128 213.334H93.8667V59.7337C93.8667 55.0208 97.6872 51.2003 102.4 51.2003H147.968C150.259 51.1952 152.454 52.1189 154.052 53.7603L166.178 65.8862C158.054 76.3269 153.629 89.1712 153.6 102.4C153.6 111.826 161.241 119.467 170.667 119.467H256C264.723 119.367 272.023 112.819 273.067 104.158C273.524 73.6682 251.298 47.568 221.124 43.1619C219.221 42.923 217.318 42.8035 215.415 42.7438L190.293 17.5193C179.094 6.25652 163.851 -0.0527011 147.968 0.000331644H102.4C69.4258 0.037952 42.7043 26.7595 42.6667 59.7337V213.334H34.1333C15.282 213.334 0 228.616 0 247.467V256C0 265.426 7.64101 273.067 17.0667 273.067H25.6V349.867C25.638 387.671 44.9372 422.851 76.8 443.196V460.8H68.2667C54.1282 460.8 42.6667 472.262 42.6667 486.4V494.934H8.53333C3.8205 494.934 0 498.754 0 503.467C0 508.18 3.8205 512 8.53333 512H503.467C508.18 512 512 508.18 512 503.467C512 498.754 508.18 494.934 503.467 494.934H469.333V486.4C469.333 472.262 457.872 460.8 443.733 460.8H435.2V443.196C467.063 422.851 486.362 387.671 486.4 349.867ZM494.933 298.667V307.2H430.08V294.4C430.079 290.1 429.642 285.812 428.774 281.6H477.867C487.292 281.6 494.933 289.241 494.933 298.667ZM409.404 276.335C411.789 282.059 413.015 288.199 413.013 294.4V392.534C413.013 397.247 409.193 401.067 404.48 401.067H341.333C336.621 401.067 332.8 397.247 332.8 392.534V294.4C332.811 276.573 325.363 259.555 312.26 247.467H366.08C385.024 247.464 402.112 258.851 409.404 276.335ZM298.667 294.4C298.696 290.465 297.92 286.565 296.388 282.94C291.8 271.819 280.967 264.556 268.937 264.534C258.663 264.41 248.522 262.198 239.13 258.031C253.172 246.574 272.557 244.226 288.929 251.999C305.301 259.772 315.735 276.277 315.733 294.4V392.534C315.762 395.447 316.293 398.334 317.303 401.067H307.2C302.487 401.067 298.667 397.247 298.667 392.534V294.4ZM256 102.4H170.667C170.667 78.8362 189.769 59.7337 213.333 59.7337C236.897 59.7337 256 78.8362 256 102.4ZM59.7333 59.7337C59.7615 36.1812 78.8475 17.0952 102.4 17.067H147.968C159.309 17.0331 170.193 21.5377 178.193 29.5769L194.406 45.8329C188.701 47.7283 183.315 50.4758 178.432 53.9822L166.118 41.6686C161.319 36.8318 154.782 34.1182 147.968 34.1337H102.4C88.2615 34.1337 76.8 45.5952 76.8 59.7337V213.334H59.7333V59.7337ZM17.0667 247.467C17.0667 238.041 24.7077 230.4 34.1333 230.4H128C157.329 229.843 185.875 239.881 208.401 258.671C224.312 272.435 244.374 280.474 265.387 281.506C269.581 281.134 273.772 282.268 277.205 284.706C280.001 287.152 281.603 290.686 281.6 294.4V307.2H273.067C243.731 307.73 215.185 297.689 192.64 278.912C175.626 264.145 153.857 256.01 131.328 256H17.0667V247.467ZM42.6667 349.867V273.067H131.328C149.74 273.076 167.533 279.719 181.444 291.781C207.084 313.277 239.613 324.81 273.067 324.267H281.6V392.534C281.6 406.672 293.062 418.134 307.2 418.134H404.48C418.619 418.134 430.08 406.672 430.08 392.534V324.267H469.333V349.867C469.272 401.683 427.282 443.673 375.467 443.734H136.533C84.7176 443.673 42.7278 401.683 42.6667 349.867ZM155.153 460.8H356.847C367.377 469.155 373.936 481.53 374.938 494.934H137.054C138.063 481.53 144.624 469.156 155.153 460.8ZM59.7333 494.934V486.4C59.7333 481.688 63.5538 477.867 68.2667 477.867H85.3333C90.0462 477.867 93.8667 474.047 93.8667 469.334V452.267C105.989 457.294 118.913 460.115 132.028 460.596C124.966 470.741 120.774 482.604 119.893 494.934H59.7333ZM426.667 477.867H443.733C448.446 477.867 452.267 481.688 452.267 486.4V494.934H392.149C391.249 482.594 387.042 470.724 379.972 460.57C393.086 460.097 406.009 457.286 418.133 452.267V469.334C418.133 474.047 421.954 477.867 426.667 477.867Z" fill="#494949"/>
<path d="M145.067 418.134C145.067 413.421 141.246 409.601 136.533 409.601C103.559 409.563 76.8376 382.842 76.8 349.867C76.8 345.154 72.9795 341.334 68.2667 341.334C63.5538 341.334 59.7333 345.154 59.7333 349.867C59.7804 392.263 94.1374 426.62 136.533 426.667C141.246 426.667 145.067 422.847 145.067 418.134Z" fill="#494949"/>
<path d="M204.8 145.067V187.733C204.8 192.446 208.621 196.267 213.333 196.267C218.046 196.267 221.867 192.446 221.867 187.733V145.067C221.867 140.354 218.046 136.533 213.333 136.533C208.621 136.533 204.8 140.354 204.8 145.067Z" fill="#494949"/>
<path d="M171.273 141.893L154.206 184.559C152.453 188.938 154.581 193.908 158.959 195.661C163.337 197.414 168.308 195.286 170.061 190.908L187.128 148.241C188.881 143.863 186.753 138.893 182.374 137.14C177.996 135.386 173.026 137.514 171.273 141.893Z" fill="#494949"/>
<path d="M255.394 141.893C253.641 137.514 248.67 135.386 244.292 137.14C239.914 138.893 237.786 143.863 239.539 148.241L256.606 190.908C257.74 193.74 260.299 195.752 263.319 196.186C266.339 196.62 269.36 195.41 271.246 193.012C273.132 190.614 273.595 187.392 272.461 184.559L255.394 141.893Z" fill="#494949"/>
</g>
<defs>
<clipPath id="clip0_3714_699">
<rect width="512" height="512" fill="white"/>
</clipPath>
</defs>
</svg>
