<svg width="512" height="512" viewBox="0 0 512 512" fill="none" xmlns="http://www.w3.org/2000/svg">
<g clip-path="url(#clip0_3714_174)">
<circle cx="256" cy="512" r="200" fill="#FFE785"/>
<path d="M479.336 251.491V90.5652C479.336 51.4212 447.49 19.5762 408.347 19.5762H101.612C62.468 19.5762 30.623 51.4222 30.623 90.5652V253.567C11.663 273.389 0 300.246 0 329.776V451.799C0 474.198 18.223 492.422 40.623 492.422C63.022 492.422 81.245 474.198 81.245 451.799V439.197H430.756V451.799C430.756 474.198 448.979 492.422 471.378 492.422C493.777 492.422 512 474.199 512 451.799V329.776C512 299.201 499.496 271.493 479.336 251.491ZM101.612 39.5762H408.347C436.463 39.5762 459.336 62.4502 459.336 90.5652V235.752C453.211 231.981 446.693 228.791 439.857 226.261V193.007C439.857 163.527 415.873 139.543 386.393 139.543H299.465C281.569 139.543 265.71 148.39 256.001 161.931C246.292 148.39 230.433 139.543 212.537 139.543H125.609C96.129 139.543 72.145 163.526 72.145 193.007V226.261C64.544 229.074 57.335 232.702 50.624 237.038V90.5652C50.623 62.4502 73.496 39.5762 101.612 39.5762ZM110.333 219.443C104.138 219.443 98.062 219.965 92.143 220.951V193.007C92.143 174.555 107.155 159.543 125.607 159.543H212.535C230.987 159.543 245.999 174.555 245.999 193.007V219.444H110.333V219.443ZM266 193.006C266 174.554 281.012 159.542 299.464 159.542H386.392C404.844 159.542 419.856 174.554 419.856 193.006V220.95C413.936 219.964 407.861 219.442 401.666 219.442H266V193.006ZM110.333 239.443H401.666C451.476 239.443 491.999 279.966 491.999 329.776V359.443H391.703C386.18 359.443 381.703 363.921 381.703 369.443C381.703 374.965 386.18 379.443 391.703 379.443H492V419.198H20V379.443H291.703C297.226 379.443 301.703 374.965 301.703 369.443C301.703 363.921 297.226 359.443 291.703 359.443H20V329.776C20 279.966 60.523 239.443 110.333 239.443ZM61.245 451.799C61.245 463.17 51.994 472.422 40.623 472.422C29.252 472.422 20 463.17 20 451.799V439.197H61.245V451.799ZM471.377 472.422C460.006 472.422 450.755 463.17 450.755 451.799V439.197H492V451.799C492 463.17 482.749 472.422 471.377 472.422Z" fill="#494949"/>
<path d="M341.698 379.448C347.223 379.448 351.703 374.968 351.703 369.443C351.703 363.917 347.223 359.438 341.698 359.438C336.172 359.438 331.693 363.917 331.693 369.443C331.693 374.968 336.172 379.448 341.698 379.448Z" fill="#494949"/>
</g>
<defs>
<clipPath id="clip0_3714_174">
<rect width="512" height="512" fill="white"/>
</clipPath>
</defs>
</svg>
