<svg width="512" height="512" viewBox="0 0 512 512" fill="none" xmlns="http://www.w3.org/2000/svg">
<g clip-path="url(#clip0_3714_605)">
<circle cx="256" cy="520" r="200" fill="#FFE785"/>
<path d="M502 480.776H471.11V319.428C471.11 313.906 466.632 309.428 461.11 309.428C455.588 309.428 451.11 313.906 451.11 319.428V480.776H379.302V397.628C379.302 392.106 374.824 387.628 369.302 387.628H304.094C298.572 387.628 294.094 392.106 294.094 397.628V480.776H223.968V225.302V69.124H451.11V231.135C451.11 236.657 455.588 241.135 461.11 241.135C466.632 241.135 471.11 236.657 471.11 231.135V59.124C471.11 53.602 466.632 49.124 461.11 49.124H436.507V21C436.507 15.478 432.029 11 426.507 11H251.094C245.572 11 241.094 15.478 241.094 21V49.124H213.969C208.447 49.124 203.969 53.602 203.969 59.124V215.302H125.58V183.909C125.58 178.387 121.102 173.909 115.58 173.909H46.672C41.15 173.909 36.672 178.387 36.672 183.909V225.302V480.776H10C4.478 480.776 0 485.254 0 490.776C0 496.298 4.478 500.776 10 500.776H502C507.522 500.776 512 496.298 512 490.776C512 485.254 507.522 480.776 502 480.776ZM261.094 31H416.508V49.124H261.094V31ZM56.672 193.909H105.58V215.302H56.672V193.909ZM141.859 480.772H117.522V445.065H141.859V480.772ZM203.969 480.776H161.86V435.065C161.86 429.543 157.382 425.065 151.86 425.065H107.523C102.001 425.065 97.523 429.543 97.523 435.065V480.776H56.672V235.302H115.58H203.969V480.776ZM359.303 480.772H314.095V407.627H359.303V480.772Z" fill="#494949"/>
<path d="M469.42 270.848C464.458 263.411 452.558 266.088 451.224 274.935C449.865 283.948 460.882 289.901 467.699 283.924C471.448 280.638 472.136 274.992 469.42 270.848Z" fill="#494949"/>
<path d="M320.455 114.947C320.455 109.425 315.977 104.947 310.455 104.947H268.066C262.544 104.947 258.066 109.425 258.066 114.947V157.336C258.066 162.858 262.544 167.336 268.066 167.336H310.455C315.977 167.336 320.455 162.858 320.455 157.336V114.947ZM300.455 147.335H278.066V124.946H300.455V147.335Z" fill="#494949"/>
<path d="M414.172 114.947C414.172 109.425 409.694 104.947 404.172 104.947H361.783C356.261 104.947 351.783 109.425 351.783 114.947V157.336C351.783 162.858 356.261 167.336 361.783 167.336H404.172C409.694 167.336 414.172 162.858 414.172 157.336V114.947ZM394.172 147.335H371.783V124.946H394.172V147.335Z" fill="#494949"/>
<path d="M320.455 202.387C320.455 196.865 315.977 192.387 310.455 192.387H268.066C262.544 192.387 258.066 196.865 258.066 202.387V244.776C258.066 250.298 262.544 254.776 268.066 254.776H310.455C315.977 254.776 320.455 250.298 320.455 244.776V202.387ZM300.455 234.776H278.066V212.387H300.455V234.776Z" fill="#494949"/>
<path d="M414.172 202.387C414.172 196.865 409.694 192.387 404.172 192.387H361.783C356.261 192.387 351.783 196.865 351.783 202.387V244.776C351.783 250.298 356.261 254.776 361.783 254.776H404.172C409.694 254.776 414.172 250.298 414.172 244.776V202.387ZM394.172 234.776H371.783V212.387H394.172V234.776Z" fill="#494949"/>
<path d="M310.455 279.826H268.066C262.544 279.826 258.066 284.304 258.066 289.826V332.215C258.066 337.737 262.544 342.215 268.066 342.215H310.455C315.977 342.215 320.455 337.737 320.455 332.215V289.826C320.455 284.304 315.978 279.826 310.455 279.826ZM300.455 322.215H278.066V299.826H300.455V322.215Z" fill="#494949"/>
<path d="M404.172 279.826H361.783C356.261 279.826 351.783 284.304 351.783 289.826V332.215C351.783 337.737 356.261 342.215 361.783 342.215H404.172C409.694 342.215 414.172 337.737 414.172 332.215V289.826C414.172 284.304 409.694 279.826 404.172 279.826ZM394.172 322.215H371.783V299.826H394.172V322.215Z" fill="#494949"/>
<path d="M88.637 258.344C83.115 258.344 78.637 262.822 78.637 268.344V393.627C78.637 399.149 83.115 403.627 88.637 403.627C94.159 403.627 98.637 399.149 98.637 393.627V268.344C98.637 262.822 94.159 258.344 88.637 258.344Z" fill="#494949"/>
<path d="M129.592 403.627C135.114 403.627 139.592 399.149 139.592 393.627V268.344C139.592 262.822 135.114 258.344 129.592 258.344C124.07 258.344 119.592 262.822 119.592 268.344V393.627C119.592 399.15 124.069 403.627 129.592 403.627Z" fill="#494949"/>
<path d="M170.548 403.627C176.07 403.627 180.548 399.149 180.548 393.627V268.344C180.548 262.822 176.07 258.344 170.548 258.344C165.026 258.344 160.548 262.822 160.548 268.344V393.627C160.548 399.15 165.025 403.627 170.548 403.627Z" fill="#494949"/>
</g>
<defs>
<clipPath id="clip0_3714_605">
<rect width="512" height="512" fill="white"/>
</clipPath>
</defs>
</svg>
