<svg width="45" height="45" viewBox="0 0 45 45" fill="none" xmlns="http://www.w3.org/2000/svg">
<g clip-path="url(#clip0_3822_422)">
<path d="M40.0781 48.9551C40.0781 58.6632 32.2081 66.5332 22.5 66.5332C12.7919 66.5332 4.92188 58.6632 4.92188 48.9551C4.92188 39.2469 12.7919 31.377 22.5 31.377C32.2081 31.377 40.0781 39.2469 40.0781 48.9551Z" fill="#FFE785"/>
<path d="M44.917 10.6633C44.7622 10.0874 44.3843 9.59637 43.8673 9.2987C43.3499 8.99955 42.7348 8.91863 42.1578 9.07351C41.5814 9.22876 41.0904 9.60626 40.7928 10.1233L40.4178 10.7757C40.0616 10.5711 39.6064 10.6915 39.3981 11.046L37.4934 14.2926L36.8409 13.9177C36.6681 13.8177 36.4623 13.7906 36.2697 13.8426C36.0768 13.895 35.9127 14.0216 35.8135 14.1952C35.6103 14.5537 35.734 15.0091 36.091 15.2149L36.7435 15.5899L30.3696 26.6355L28.7948 30.8425L28.0449 32.2445C27.6059 33.0083 27.6528 33.9577 28.165 34.6743L26.4778 36.7437L26.0055 35.5592C25.7924 35.0313 25.2992 34.6695 24.732 34.6252C24.1645 34.5805 23.6208 34.861 23.3282 35.3491L23.0583 35.8064L22.8035 32.8069C22.7449 32.0973 22.1953 31.5268 21.4887 31.4412C20.7816 31.3559 20.1123 31.7795 19.8864 32.4547L18.0417 37.9886C17.9129 38.38 18.1238 38.8018 18.5141 38.9337C18.5873 38.9677 18.666 38.9882 18.7466 38.9933C19.0688 38.9944 19.3559 38.789 19.4591 38.4837L21.2961 32.9497L21.5586 35.9939C21.6128 36.6434 22.0796 37.1835 22.7145 37.3307C23.3494 37.4779 24.0063 37.1981 24.3406 36.639L24.6181 36.1813L25.0831 37.3589C25.2805 37.855 25.7268 38.2091 26.2552 38.2878C26.7835 38.3665 27.3137 38.1582 27.6477 37.7411L29.3949 35.5292C29.5882 35.5797 29.7874 35.605 29.9873 35.6043C30.791 35.6105 31.5372 35.1872 31.9444 34.4941L32.6943 33.2419L35.5513 29.7701L41.9926 18.5894L42.6451 18.9643C42.819 19.0639 42.9457 19.2283 42.9973 19.422C43.0493 19.6142 43.0222 19.8192 42.9226 19.9917L39.9232 25.1884C39.81 25.3591 39.7716 25.5685 39.817 25.7684C39.8624 25.968 39.9872 26.1404 40.163 26.2455C40.3358 26.3458 40.5416 26.3729 40.7342 26.3209C40.9271 26.2686 41.0912 26.1419 41.1904 25.9683L44.1899 20.7716C44.489 20.2542 44.5699 19.6391 44.4147 19.062C44.2594 18.4857 43.8819 17.9947 43.3649 17.697L42.7125 17.3221L44.5871 14.0751C44.7918 13.7188 44.6714 13.2641 44.3173 13.0554L44.6922 12.4029C44.9994 11.8775 45.0807 11.2499 44.917 10.6633V10.6633ZM42.09 10.8731C42.1892 10.6996 42.354 10.5725 42.5477 10.5209C42.7403 10.4733 42.9439 10.5 43.1174 10.596C43.2913 10.6952 43.418 10.86 43.47 11.0533C43.5176 11.2459 43.4909 11.4495 43.395 11.623L43.02 12.2755L41.7151 11.5256L42.09 10.8731ZM31.8693 31.8099L31.4944 31.5924L30.3846 30.9472L31.4494 28.0979L33.8114 29.4625L31.8693 31.8099ZM29.6197 33.9767C29.303 33.756 29.2056 33.3312 29.3949 32.9944L29.7699 32.3423L31.0744 33.0921L30.6995 33.7369C30.5944 33.9193 30.4179 34.0489 30.2125 34.0946C30.0071 34.14 29.7922 34.0976 29.6197 33.9767ZM34.6664 28.233L32.0718 26.7332L38.0708 16.3397L40.6653 17.8395L34.6664 28.233ZM41.4152 16.5422L38.8207 15.0425L40.3204 12.4479L42.9149 13.9477L41.4152 16.5422Z" fill="#494949"/>
<path d="M11.8319 33.6019L9.17773 36.2492L7.58792 34.6594C7.29536 34.3686 6.82303 34.3686 6.53048 34.6594C6.38841 34.8003 6.30859 34.9918 6.30859 35.1917C6.30859 35.3917 6.38841 35.5835 6.53048 35.7241L8.1203 37.3139C8.4015 37.593 8.78156 37.7493 9.17773 37.7489C9.5761 37.7511 9.95946 37.5948 10.2425 37.3139L12.8894 34.6594C13.1442 34.3617 13.127 33.9183 12.8502 33.6415C12.573 33.3643 12.1296 33.3471 11.8319 33.6019Z" fill="#494949"/>
<path d="M3 35.6188C3 39.1393 5.85376 41.9927 9.37391 41.9927C12.8941 41.9927 15.7478 39.1393 15.7478 35.6188C15.7478 35.2047 15.4121 34.869 14.998 34.869C14.5838 34.869 14.2481 35.2047 14.2481 35.6188C14.2481 38.3108 12.0658 40.493 9.37391 40.493C6.68199 40.493 4.49974 38.3108 4.49974 35.6188C4.49974 32.9269 6.68199 30.7447 9.37391 30.7447C10.4292 30.7417 11.4562 31.0841 12.2983 31.7197C12.6297 31.9683 13.0998 31.901 13.3481 31.5696C13.5967 31.2382 13.5297 30.7685 13.1983 30.5198C11.2669 29.0714 8.68262 28.8385 6.52345 29.9179C4.3639 30.9977 3 33.2048 3 35.6188Z" fill="#494949"/>
<path d="M26.9965 5.99901C27.4107 5.99901 27.7464 5.66362 27.7464 5.24914C27.7464 4.83503 27.4107 4.49927 26.9965 4.49927H7.49987C7.08576 4.49927 6.75 4.83503 6.75 5.24914V8.24863C6.75 8.66311 7.08576 8.9985 7.49987 8.9985H26.9965C27.4107 8.9985 27.7464 8.66311 27.7464 8.24863C27.7464 7.83452 27.4107 7.49876 26.9965 7.49876H8.24974V5.99901H26.9965Z" fill="#494949"/>
<path d="M9.74987 10.4983C9.33576 10.4983 9 10.834 9 11.2482C9 11.6626 9.33576 11.998 9.74987 11.998H24.7473C25.1614 11.998 25.4972 11.6626 25.4972 11.2482C25.4972 10.834 25.1614 10.4983 24.7473 10.4983H9.74987Z" fill="#494949"/>
<path d="M29.2432 15.7473H12.746C12.3319 15.7473 11.9961 16.0831 11.9961 16.4972C11.9961 16.9117 12.3319 17.2471 12.746 17.2471H29.2432C29.6573 17.2471 29.993 16.9117 29.993 16.4972C29.993 16.0831 29.6573 15.7473 29.2432 15.7473Z" fill="#494949"/>
<path d="M21.7472 20.9965C21.7472 20.5823 21.4114 20.2466 20.9973 20.2466H5.99987C5.58576 20.2466 5.25 20.5823 5.25 20.9965C5.25 21.4109 5.58576 21.7463 5.99987 21.7463H20.9973C21.4114 21.7463 21.7472 21.4109 21.7472 20.9965Z" fill="#494949"/>
<path d="M29.2451 20.2466H23.996C23.5819 20.2466 23.2461 20.5823 23.2461 20.9965C23.2461 21.4109 23.5819 21.7463 23.996 21.7463H29.2451C29.6592 21.7463 29.9949 21.4109 29.9949 20.9965C29.9949 20.5823 29.6592 20.2466 29.2451 20.2466Z" fill="#494949"/>
<path d="M13.4986 25.4956C13.9127 25.4956 14.2485 25.1602 14.2485 24.7457C14.2485 24.3316 13.9127 23.9958 13.4986 23.9958H5.99987C5.58576 23.9958 5.25 24.3316 5.25 24.7457C5.25 25.1602 5.58576 25.4956 5.99987 25.4956H13.4986Z" fill="#494949"/>
<path d="M16.496 25.4956H21.7451C22.1592 25.4956 22.4949 25.1602 22.4949 24.7457C22.4949 24.3316 22.1592 23.9958 21.7451 23.9958H16.496C16.0819 23.9958 15.7461 24.3316 15.7461 24.7457C15.7461 25.1602 16.0819 25.4956 16.496 25.4956Z" fill="#494949"/>
<path d="M33.7442 34.4941C33.3301 34.4941 32.9944 34.8299 32.9944 35.244V42.7427C32.9944 43.1572 32.6586 43.4926 32.2445 43.4926H2.24962C1.8355 43.4926 1.49974 43.1572 1.49974 42.7427V2.24962C1.49974 1.8355 1.8355 1.49974 2.24962 1.49974H32.2445C32.6586 1.49974 32.9944 1.8355 32.9944 2.24962V16.3324C32.9944 16.7465 33.3301 17.0823 33.7442 17.0823C34.1584 17.0823 34.4941 16.7465 34.4941 16.3324V2.24962C34.4941 1.00727 33.4868 0 32.2445 0H2.24962C1.00727 0 0 1.00727 0 2.24962V42.7427C0 43.9854 1.00727 44.9923 2.24962 44.9923H32.2445C33.4868 44.9923 34.4941 43.9854 34.4941 42.7427V35.244C34.4941 34.8299 34.1584 34.4941 33.7442 34.4941Z" fill="#494949"/>
</g>
<defs>
<clipPath id="clip0_3822_422">
<rect width="45" height="45" fill="white"/>
</clipPath>
</defs>
</svg>
