<svg width="45" height="45" viewBox="0 0 45 45" fill="none" xmlns="http://www.w3.org/2000/svg">
<g clip-path="url(#clip0_3822_452)">
<path d="M40.0781 48.9551C40.0781 58.6632 32.2081 66.5332 22.5 66.5332C12.7919 66.5332 4.92188 58.6632 4.92188 48.9551C4.92188 39.2469 12.7919 31.377 22.5 31.377C32.2081 31.377 40.0781 39.2469 40.0781 48.9551Z" fill="#FFE785"/>
<path d="M32.3434 8.4802H35.7258C36.0903 8.4802 36.3856 8.18488 36.3856 7.82042C36.3856 7.45596 36.0903 7.16064 35.7258 7.16064H32.3434C31.9789 7.16064 31.6836 7.45596 31.6836 7.82042C31.6836 8.18488 31.9789 8.4802 32.3434 8.4802Z" fill="#494949"/>
<path d="M41.8253 7.16064H38.5383C38.1739 7.16064 37.8785 7.45596 37.8785 7.82042C37.8785 8.18488 38.1739 8.4802 38.5383 8.4802H41.8253C42.8496 8.4802 43.683 9.31354 43.683 10.3379V33.6705H8.20163C7.83717 33.6705 7.54185 33.9659 7.54185 34.3303C7.54185 34.6948 7.83717 34.9901 8.20163 34.9901H43.6831V35.7009C43.6831 36.7252 42.8496 37.5586 41.8254 37.5586H3.26316C2.23883 37.5586 1.40549 36.7251 1.40549 35.7009V34.9901H5.38992C5.75438 34.9901 6.0497 34.6948 6.0497 34.3303C6.0497 33.9659 5.75438 33.6705 5.38992 33.6705H1.40549V10.338C1.40549 9.31354 2.23892 8.48029 3.26316 8.48029H12.7444C13.1089 8.48029 13.4042 8.18497 13.4042 7.82051C13.4042 7.45605 13.1089 7.16073 12.7444 7.16073H3.26316C1.51123 7.16073 0.0859375 8.58602 0.0859375 10.338V35.7009C0.0859375 37.4528 1.51123 38.8781 3.26316 38.8781H14.1871V41.4541L12.5269 43.6804H11.7302C11.3657 43.6804 11.0704 43.9757 11.0704 44.3402C11.0704 44.7046 11.3657 45 11.7302 45H33.5424C33.9069 45 34.2022 44.7046 34.2022 44.3402C34.2022 43.9757 33.9069 43.6804 33.5424 43.6804H32.6498L30.9895 41.4541V38.8781H41.8255C43.5774 38.8781 45.0027 37.4528 45.0027 35.7009V10.338C45.0025 8.58602 43.5773 7.16064 41.8253 7.16064ZM29.8008 42.0675L31.0037 43.6804H14.1728L15.3757 42.0675C15.4607 41.9536 15.5066 41.8153 15.5066 41.6731V38.8782H29.6698V41.6731C29.6699 41.8153 29.7157 41.9536 29.8008 42.0675V42.0675Z" fill="#494949"/>
<path d="M22.5431 15.6409C26.8554 15.6409 30.3636 12.1327 30.3636 7.82046C30.3636 3.50825 26.8553 0 22.5431 0C18.2309 0 14.7227 3.50825 14.7227 7.82037C14.7226 12.1327 18.2308 15.6409 22.5431 15.6409ZM22.5431 1.31955C26.1277 1.31955 29.044 4.23576 29.044 7.82037C29.044 11.405 26.1277 14.3213 22.5431 14.3213C18.9585 14.3213 16.0422 11.405 16.0422 7.82037C16.0422 4.23576 18.9585 1.31955 22.5431 1.31955Z" fill="#494949"/>
<path d="M21.2259 11.0922C21.352 11.2067 21.5109 11.2637 21.6697 11.2637C21.8351 11.2637 22.0004 11.2018 22.1281 11.0786L26.8197 6.5487C27.0818 6.29561 27.0892 5.87792 26.8361 5.61577C26.5829 5.35371 26.1654 5.34632 25.9031 5.59941L21.6563 9.69996L20.3341 8.49794C20.0646 8.25303 19.6472 8.27256 19.4021 8.54237C19.157 8.81191 19.1768 9.22932 19.4465 9.47441L21.2259 11.0922Z" fill="#494949"/>
<path d="M10.3667 19.7151H28.9284C29.2928 19.7151 29.5882 19.4197 29.5882 19.0553C29.5882 18.6908 29.2928 18.3955 28.9284 18.3955H10.3667C9.41914 18.3955 8.64844 19.1664 8.64844 20.1138V24.0125C8.64844 24.96 9.41923 25.7308 10.3667 25.7308H21.2066C21.5711 25.7308 21.8664 25.4355 21.8664 25.071C21.8664 24.7066 21.5711 24.4113 21.2066 24.4113H10.3667C10.1468 24.4113 9.96799 24.2324 9.96799 24.0125V20.1138C9.96799 19.894 10.1468 19.7151 10.3667 19.7151V19.7151Z" fill="#494949"/>
<path d="M31.7379 19.7151H34.7202C34.94 19.7151 35.1189 19.8939 35.1189 20.1138V24.0125C35.1189 24.2324 34.94 24.4113 34.7202 24.4113H32.1992C31.8348 24.4113 31.5394 24.7066 31.5394 25.071C31.5394 25.4355 31.8348 25.7308 32.1992 25.7308H34.7202C35.6677 25.7308 36.4384 24.9599 36.4384 24.0125V20.1138C36.4384 19.1663 35.6676 18.3955 34.7202 18.3955H31.7379C31.3734 18.3955 31.0781 18.6908 31.0781 19.0553C31.0781 19.4197 31.3734 19.7151 31.7379 19.7151Z" fill="#494949"/>
<path d="M30.3263 25.7492C30.2663 25.3437 29.9864 25.0143 29.5957 24.8899L24.6225 23.3056C24.3068 23.2048 23.969 23.2551 23.696 23.4427C23.4229 23.6304 23.2551 23.9278 23.2357 24.2586L22.9315 29.4691C22.9077 29.8784 23.1146 30.2578 23.4717 30.4592C23.8288 30.6605 24.2605 30.6413 24.5984 30.4094L25.583 29.7329L26.7922 31.4928C26.95 31.7225 27.1878 31.877 27.4619 31.9277C27.5261 31.9397 27.5904 31.9455 27.6543 31.9455C27.8632 31.9455 28.0671 31.8826 28.2428 31.7618L29.8318 30.6701C30.3057 30.3443 30.4264 29.6936 30.1008 29.2196L28.8914 27.4595L29.8758 26.7831C30.2136 26.5509 30.3863 26.1547 30.3263 25.7492V25.7492ZM27.7232 30.5178L26.2968 28.4418C26.1976 28.2976 26.0453 28.1986 25.8733 28.1667C25.8333 28.1593 25.7931 28.1557 25.753 28.1557C25.6205 28.1557 25.4901 28.1956 25.3794 28.2716L24.2791 29.0277L24.5339 24.6623L28.7004 25.9896L27.6001 26.7456C27.4559 26.8447 27.3569 26.997 27.325 27.1691C27.2931 27.3411 27.3308 27.5188 27.4299 27.6629L28.8565 29.7391L27.7232 30.5178Z" fill="#494949"/>
</g>
<defs>
<clipPath id="clip0_3822_452">
<rect width="45" height="45" fill="white"/>
</clipPath>
</defs>
</svg>
