<svg width="512" height="512" viewBox="0 0 512 512" fill="none" xmlns="http://www.w3.org/2000/svg">
<g clip-path="url(#clip0_860_70)">
<circle cx="256" cy="557" r="200" fill="#FFE785"/>
<path d="M499 256.5C499 390.429 390.429 499 256.5 499C122.571 499 14 390.429 14 256.5C14 122.571 122.571 14 256.5 14C390.429 14 499 122.571 499 256.5Z" stroke="#494949" stroke-width="22" stroke-miterlimit="10" stroke-linecap="round" stroke-linejoin="round"/>
<path d="M234.609 368.605C242.303 393.541 268.755 407.518 293.691 399.824C318.628 392.129 332.605 365.678 324.911 340.742C317.216 315.806 290.764 301.827 265.828 309.522C240.891 317.217 226.914 343.668 234.609 368.605Z" stroke="#494949" stroke-width="22" stroke-miterlimit="10" stroke-linecap="round" stroke-linejoin="round"/>
<path d="M229.812 50.2794V223.151C229.812 228.187 233.894 232.268 238.928 232.268H416.315C424.494 232.268 428.536 222.331 422.678 216.623L245.291 43.7509C239.515 38.1212 229.812 42.2139 229.812 50.2794Z" stroke="#494949" stroke-width="22" stroke-miterlimit="10" stroke-linecap="round" stroke-linejoin="round"/>
<path d="M285.797 129.792L259.303 156.286" stroke="#494949" stroke-width="22" stroke-miterlimit="10" stroke-linecap="round" stroke-linejoin="round"/>
<path d="M310.171 154.166L283.677 180.66" stroke="#494949" stroke-width="22" stroke-miterlimit="10" stroke-linecap="round" stroke-linejoin="round"/>
<path d="M334.545 178.54L308.051 205.034" stroke="#494949" stroke-width="22" stroke-miterlimit="10" stroke-linecap="round" stroke-linejoin="round"/>
<path d="M104.283 345.482C119.882 348.267 134.335 336.429 135.278 320.61C136.786 295.31 144.303 260.393 157.199 223.094C170.095 185.795 185.751 153.692 200.192 132.864C209.221 119.842 205.167 101.604 191.178 94.1594C189.96 93.5114 188.696 92.9591 187.385 92.5053C156.717 81.9017 112.356 129.704 88.3026 199.274C64.2488 268.843 69.6101 333.836 100.277 344.44C101.589 344.893 102.925 345.24 104.283 345.482Z" stroke="#494949" stroke-width="22" stroke-miterlimit="10" stroke-linecap="round" stroke-linejoin="round"/>
<path d="M125.447 212.115C123.38 218.093 126.551 224.614 132.528 226.68L153.573 233.957C154.73 230.363 155.939 226.74 157.199 223.094C158.46 219.448 159.747 215.853 161.057 212.312L140.012 205.035C134.035 202.969 127.514 206.138 125.447 212.115Z" stroke="#494949" stroke-width="22" stroke-miterlimit="10" stroke-linecap="round" stroke-linejoin="round"/>
<path d="M117.26 266.029C115.193 272.006 118.362 278.527 124.339 280.593L139.954 285.992C141.357 278.813 143.052 271.294 145.033 263.516L131.823 258.948C125.846 256.882 119.326 260.052 117.26 266.029Z" stroke="#494949" stroke-width="22" stroke-miterlimit="10" stroke-linecap="round" stroke-linejoin="round"/>
<path d="M182.487 162.978L166.873 157.58C160.896 155.513 154.375 158.683 152.309 164.66C150.242 170.637 153.413 177.158 159.39 179.224L172.599 183.792C175.845 176.45 179.157 169.491 182.487 162.978Z" stroke="#494949" stroke-width="22" stroke-miterlimit="10" stroke-linecap="round" stroke-linejoin="round"/>
<path d="M198.734 442.332L198.814 442.307C215.092 437.283 232.507 437.819 248.598 443.413C277.135 453.332 310.691 450.003 339.72 428.371C356.625 415.774 356.096 409.462 378.43 386.761C389.362 375.647 394.507 360.083 392.35 344.644C390.605 332.152 384.288 321.081 375.04 313.267C367.692 307.058 361.067 300.055 355.045 292.551C331.083 262.695 290.422 248.826 251.676 260.782L207.161 274.518C180.68 282.689 165.836 310.779 174.007 337.261C176.865 346.526 171.673 356.354 162.408 359.212C141.318 365.72 129.495 388.094 136.003 409.184C144.172 435.66 172.258 450.5 198.734 442.332Z" stroke="#494949" stroke-width="22" stroke-miterlimit="10" stroke-linecap="round" stroke-linejoin="round"/>
<path d="M430.69 256.5C430.69 171.115 368.933 99.8859 287.743 85.1212L422.679 216.622C428.536 222.329 424.494 232.267 416.316 232.267H238.929C233.894 232.267 229.812 228.185 229.812 223.151V84.3532C216.694 86.3791 204.056 89.8756 192.068 94.6641C205.33 102.399 209.026 120.124 200.192 132.864C185.751 153.692 170.096 185.796 157.199 223.094C144.303 260.393 136.786 295.311 135.279 320.611C134.391 335.503 121.527 346.865 107.006 345.818C115.248 359.56 125.33 372.078 136.91 383.029C141.168 372.006 150.24 362.968 162.408 359.213C171.673 356.353 176.866 346.526 174.007 337.262C165.836 310.78 180.679 282.689 207.16 274.518L251.677 260.783C290.423 248.827 331.084 262.695 355.046 292.551C361.068 300.055 367.691 307.058 375.04 313.267C384.288 321.081 390.605 332.151 392.35 344.643C393.48 352.729 392.589 360.843 389.931 368.34C415.354 338.059 430.69 299.039 430.69 256.5Z" stroke="#494949" stroke-width="22" stroke-miterlimit="10" stroke-linecap="round" stroke-linejoin="round"/>
</g>
<defs>
<clipPath id="clip0_860_70">
<rect width="512" height="512" fill="white"/>
</clipPath>
</defs>
</svg>
