<svg width="32" height="32" viewBox="0 0 32 32" fill="none" xmlns="http://www.w3.org/2000/svg">
<g clip-path="url(#clip0_9147_2942)">
<path d="M31.3751 15.5583H27.6735C27.3283 15.5583 27.0485 15.8381 27.0485 16.1833V16.7114H23.1561C23.0741 16.7114 22.9928 16.7275 22.9171 16.759L17.9313 18.8225C17.3544 19.0615 16.9061 19.5112 16.6696 20.0891C16.4328 20.6667 16.4364 21.3015 16.6798 21.8767L16.6967 21.9165C16.8412 22.2578 17.0541 22.5481 17.3126 22.7776C16.5539 22.9834 15.7582 23 14.9848 22.823L10.09 21.7021C9.49111 21.5652 8.87636 21.6724 8.35927 22.0042C7.84242 22.3357 7.48867 22.8499 7.36367 23.4512C7.11586 24.6426 7.84584 25.8108 9.02529 26.1106L14.8656 27.595C15.3602 27.7205 15.8617 27.783 16.3615 27.783C17.1107 27.783 17.8563 27.6426 18.568 27.3633L25.9957 24.4502H27.0485V24.7791C27.0485 25.1243 27.3285 25.4041 27.6735 25.4041H31.3751C31.7204 25.4041 32.0001 25.1243 32.0001 24.7791V16.1833C32.0001 15.8381 31.7204 15.5583 31.3751 15.5583V15.5583ZM25.8773 23.2002C25.7992 23.2002 25.7218 23.2148 25.6493 23.2432L18.1115 26.1997C17.1698 26.5688 16.1539 26.6323 15.1735 26.3833L9.33315 24.8989C8.80385 24.7644 8.47621 24.2402 8.5873 23.7056C8.64345 23.4355 8.80214 23.2048 9.03432 23.0562C9.20034 22.9495 9.38906 22.8945 9.58144 22.8945C9.65761 22.8945 9.73451 22.9031 9.81093 22.9207L14.7057 24.0413C15.8834 24.3108 17.1019 24.2244 18.2299 23.7908L19.6503 23.2446C19.6796 23.2346 19.7086 23.2239 19.7377 23.2126C20.9933 22.7285 22.5958 22.1123 22.9403 21.9797L23.0075 21.9539C23.3295 21.8301 23.4904 21.4683 23.3666 21.1462C23.2428 20.824 22.8812 20.6633 22.5587 20.7871C22.5587 20.7871 22.5331 20.7971 22.4857 20.8152L19.2282 22.0679C18.6759 22.2468 18.0788 21.9749 17.8478 21.4292L17.8307 21.3892C17.7182 21.1235 17.7167 20.8301 17.8261 20.563C17.9354 20.2959 18.1425 20.0879 18.4093 19.9775L23.2804 17.9614H27.0485V23.2002H25.8773ZM30.7501 24.1541H28.2985V16.8083H30.7501V24.1541Z" fill="#494949"/>
<path d="M6.08643 15.2971H4.9519V9.45728H5.125C5.58716 9.45728 6.04858 9.34595 6.45947 9.13525C6.47876 9.12524 6.4978 9.1145 6.51587 9.10254L10.5635 6.46167C11.1228 6.18726 11.8025 6.24976 12.303 6.62378L12.5952 6.84155C12.5774 6.8667 12.5603 6.89233 12.543 6.91748C12.4658 7.02979 12.3916 7.14429 12.3218 7.26123C11.8896 7.98315 11.6121 8.79541 11.51 9.62378C11.084 9.66968 10.6895 9.85767 10.3823 10.1646C10.0266 10.5203 9.83057 10.9939 9.83057 11.4978C9.83057 12.5371 10.6763 13.3828 11.7156 13.3828H16.3425C16.5979 13.3828 16.8384 13.4824 17.0188 13.6624C17.2 13.844 17.2998 14.0847 17.3 14.3401C17.2998 14.7214 17.0764 15.0652 16.7285 15.2168C16.6882 15.2346 16.6519 15.2478 16.6177 15.2573C16.6145 15.2583 16.6116 15.2593 16.6084 15.2603C16.5242 15.2847 16.4348 15.2971 16.3425 15.2971H11.0852C10.7402 15.2971 10.4602 15.5769 10.4602 15.9221C10.4602 16.2673 10.7402 16.5471 11.0852 16.5471H16.3425C16.5039 16.5471 16.6631 16.5295 16.8179 16.4956C17.0803 16.5293 17.3462 16.5476 17.6106 16.5476C21.001 16.5476 23.7595 13.7893 23.7595 10.3987C23.7595 7.0083 21.001 4.25 17.6106 4.25C16.0483 4.25 14.553 4.84497 13.4214 5.89868L13.0508 5.62207C12.1628 4.95874 10.9517 4.85693 9.96582 5.36304C9.94653 5.3728 9.92798 5.38379 9.90967 5.39551L5.86255 8.03613C5.63403 8.14819 5.37964 8.20703 5.125 8.20703H4.95166V7.98096C4.95166 7.63574 4.67188 7.35596 4.32666 7.35596H0.625C0.279785 7.35596 0 7.63574 0 7.98096V16.5767C0 16.9219 0.279785 17.2017 0.625 17.2017H4.32666C4.67188 17.2017 4.95166 16.9219 4.95166 16.5767V16.5471H6.08643C6.4314 16.5471 6.71143 16.2673 6.71143 15.9221C6.71143 15.5769 6.4314 15.2971 6.08643 15.2971V15.2971ZM11.0806 11.4978C11.0806 11.3279 11.1465 11.1682 11.2664 11.0486C11.3289 10.9861 11.4023 10.9385 11.4824 10.907C11.5164 11.325 11.5925 11.7341 11.7097 12.1326C11.3623 12.1294 11.0806 11.8459 11.0806 11.4978ZM22.5093 10.3989C22.5093 12.8455 20.7063 14.8792 18.3589 15.2405C18.4844 14.9587 18.55 14.6487 18.55 14.3401C18.55 13.9614 18.4546 13.5974 18.2759 13.2742C18.5471 13.2314 18.7976 13.1062 18.9956 12.9082C19.2432 12.6609 19.3794 12.332 19.3794 11.9822V11.0579C19.3794 10.3357 18.7917 9.74805 18.0696 9.74805H17.1526C17.1196 9.74805 17.0928 9.72119 17.0928 9.68823V8.81567C17.0928 8.78271 17.1196 8.7561 17.1526 8.7561H17.6108H17.6111H17.6113H18.0696C18.1025 8.7561 18.1294 8.78271 18.1294 8.81567C18.1294 9.16089 18.4092 9.44067 18.7544 9.44067C19.0994 9.44067 19.3794 9.16089 19.3794 8.81567C19.3794 8.15015 18.8796 7.6001 18.2361 7.51782V7.30127C18.2361 6.95605 17.9563 6.67627 17.6111 6.67627C17.2659 6.67627 16.9861 6.95605 16.9861 7.30127V7.51782C16.3423 7.6001 15.8428 8.15015 15.8428 8.81567V9.68823C15.8428 10.4104 16.4304 10.998 17.1526 10.998H18.0696C18.1025 10.998 18.1294 11.0249 18.1294 11.0579V11.9822C18.1294 11.9985 18.1235 12.0127 18.1118 12.0244C18.1001 12.0359 18.0862 12.0417 18.0696 12.0417H17.1526C17.1196 12.0417 17.0928 12.0149 17.0928 11.9822V11.8975C17.0928 11.5522 16.813 11.2725 16.4678 11.2725C16.1226 11.2725 15.8428 11.5522 15.8428 11.8975V11.9822C15.8428 12.033 15.8464 12.083 15.8521 12.1326H13.0273C12.8179 11.5813 12.7119 10.9995 12.7119 10.3989C12.7119 9.48315 12.9724 8.56641 13.4631 7.79224C13.6042 7.56982 13.7615 7.35767 13.936 7.16016C14.866 6.10498 16.2043 5.5 17.6106 5.5C20.3118 5.5 22.5093 7.69751 22.5093 10.3989V10.3989ZM3.70166 15.9519H1.25V8.60596H3.70166V15.9519Z" fill="#494949"/>
<path d="M9.08668 15.5757C8.93995 15.3513 8.65236 15.248 8.39577 15.3215C8.14772 15.3928 7.96681 15.6147 7.94459 15.8716C7.92213 16.1311 8.07277 16.3845 8.30958 16.4912C8.5442 16.5972 8.82667 16.5464 9.00929 16.3645C9.21754 16.1565 9.24977 15.8201 9.08668 15.5757Z" fill="#494949"/>
</g>
<defs>
<clipPath id="clip0_9147_2942">
<rect width="32" height="32" fill="white"/>
</clipPath>
</defs>
</svg>
