<svg width="100" height="100" viewBox="0 0 100 100" fill="none" xmlns="http://www.w3.org/2000/svg">
<g clip-path="url(#clip0_3410_5106)">
<path d="M-2 100C-2 77.9086 15.9086 60 38 60H50C72.0914 60 90 77.9086 90 100V100L-2 100V100Z" fill="#FFE785"/>
<path d="M87.4936 0V3.54648L76.2603 3.52481L76.2656 6.45449L87.4934 6.47617V28.9352L85.0225 28.9531L76.6625 32.6174C72.1865 34.3939 67.0828 33.3533 63.6551 29.9625L62.9752 29.2898L53.4135 33.0746C52.2121 33.5504 50.8447 33.0045 50.3004 31.8322L48.7447 28.4799L65.4328 21.4516L64.2957 18.7516L55.3508 22.5189C52.627 18.1281 48.2711 15.073 43.3154 13.9676L51.8404 6.49883L73.3359 6.45977L73.3307 3.53008L50.7365 3.57109L39.3895 13.5121C39.3143 13.5111 39.2393 13.5082 39.1641 13.5082C28.6637 13.5082 20.1211 22.0508 20.1211 32.5512C20.1211 33.9492 20.2736 35.3447 20.5744 36.6986L23.4344 36.0633C23.1799 34.9176 23.0508 33.7359 23.0508 32.5512C23.0508 23.6662 30.2793 16.4379 39.1641 16.4379C44.609 16.4379 49.6412 19.1785 52.6109 23.6727L44.809 26.9586L47.643 33.0654C48.84 35.6447 51.8484 36.8445 54.4918 35.7986L54.99 35.6014C53.5676 43.0895 47.0168 48.6645 39.1639 48.6645C32.5922 48.6645 26.7365 44.735 24.2459 38.6539L21.5348 39.7643C24.4779 46.9508 31.3977 51.5943 39.1639 51.5943C49.0611 51.5943 57.2094 44.1004 58.1221 34.3617L62.3061 32.7055C65.0865 35.1236 68.6109 36.4027 72.1926 36.4027C74.0687 36.4027 75.9613 36.0518 77.7705 35.3297L85.6463 31.8785L87.4932 31.8652V40.9914H99.8955V0L87.4936 0ZM96.9662 38.0615H90.4232V2.92969H96.9662V38.0615Z" fill="#212529"/>
<path d="M37.5953 21.0375V22.9832C37.4931 23.0094 37.39 23.0373 37.2857 23.0688C35.5158 23.6018 34.1941 25.1131 33.8361 27.0127C33.5078 28.7545 34.0726 30.4393 35.3099 31.4098C36.3634 32.2359 37.8296 32.9395 40.3718 33.8381C42.241 34.4988 42.1994 36.018 42.0947 36.6404C41.8867 37.8787 40.8453 39.217 39.0503 39.2289C37.3884 39.2408 36.8267 39.1504 35.5294 38.3016L33.9257 40.7533C35.3607 41.692 36.3695 42.0156 37.5953 42.117V44.065H40.5249V41.9787C43.0267 41.358 44.6308 39.2271 44.9839 37.126C45.4433 34.3936 44.0162 32.0188 41.3482 31.0756C39.8027 30.5293 38.0913 29.8678 37.1181 29.1043C36.7503 28.8158 36.5923 28.2078 36.7152 27.5549C36.8365 26.9117 37.272 26.1322 38.1308 25.8736C40.1121 25.2773 41.3935 26.365 41.447 26.4115L41.432 26.3979L43.4183 24.2443C43.3519 24.183 42.2822 23.2191 40.5251 22.8801V21.0371H37.5953V21.0375Z" fill="#212529"/>
<path d="M77.3953 66.4932L73.6826 68.7502L73.6926 68.7186C74.8172 65.891 73.544 62.6959 70.7723 61.4199C67.9701 60.1305 64.6836 61.2756 63.2893 64.0268L56.2041 79.0094L43.8238 74.6762L58.3395 68.5246L56.4102 63.1844L56.393 63.1391C54.9844 59.6105 50.9727 57.8826 47.4426 59.2801L38.8029 62.4773C34.832 58.9445 28.6406 56.533 23.0564 58.7615C20.09 59.9455 17.5744 62.0074 15.891 64.6164H12.5059V59.009H0.103516V100H12.5059V92.9738H21.326L58.0608 96.9375L72.1219 85.4395L70.2672 83.1715L57.1555 93.8934L21.5619 90.0527L21.4836 90.0443H12.5059V67.5463H17.5736L17.9936 66.7998C19.3334 64.4188 21.517 62.5305 24.142 61.4826C28.8299 59.6119 34.1947 62.0051 37.4316 65.2068L38.0949 65.8631L48.4752 62.0217L48.51 62.0084C50.5371 61.1992 52.8439 62.1844 53.6633 64.2047L54.6406 66.9102L34.7402 75.2451L35.8324 77.9637L39.7971 76.3711L56.9256 82.3662L78.8637 69.0283C80.166 68.2961 81.7996 68.7129 82.5901 69.9834C83.3815 71.2549 83.0313 72.9111 81.7932 73.7537L81.7401 73.79L72.5613 81.2957L74.416 83.5637L83.4984 76.1367C85.9938 74.3951 86.6899 71.0266 85.0777 68.4357C83.4481 65.8164 80.0735 64.9639 77.3953 66.4932V66.4932ZM9.57617 97.0705H3.0332V61.9387H9.57617V97.0705ZM65.9104 65.3352C66.5943 64.0066 68.1879 63.4557 69.5473 64.0812C70.9078 64.7074 71.5272 66.2828 70.9574 67.6678L69.8961 71.0522L60.5084 76.7594L65.9104 65.3352Z" fill="#212529"/>
</g>
<defs>
<clipPath id="clip0_3410_5106">
<rect width="100" height="100" fill="white"/>
</clipPath>
</defs>
</svg>
