<svg width="32" height="32" viewBox="0 0 32 32" fill="none" xmlns="http://www.w3.org/2000/svg">
<g clip-path="url(#clip0_9086_1429)">
<path d="M31.375 30.0485H29.4444V19.9643C29.4444 19.6191 29.1645 19.3393 28.8194 19.3393C28.4742 19.3393 28.1944 19.6191 28.1944 19.9643V30.0485H23.7064V24.8517C23.7064 24.5066 23.4265 24.2267 23.0814 24.2267H19.0059C18.6607 24.2267 18.3809 24.5066 18.3809 24.8517V30.0485H13.998V14.0814V4.32025H28.1944V14.4459C28.1944 14.7911 28.4742 15.0709 28.8194 15.0709C29.1645 15.0709 29.4444 14.7911 29.4444 14.4459V3.69525C29.4444 3.35013 29.1645 3.07025 28.8194 3.07025H27.2817V1.3125C27.2817 0.967375 27.0018 0.6875 26.6567 0.6875H15.6934C15.3482 0.6875 15.0684 0.967375 15.0684 1.3125V3.07025H13.3731C13.0279 3.07025 12.7481 3.35013 12.7481 3.69525V13.4564H7.84875V11.4943C7.84875 11.1492 7.56888 10.8693 7.22375 10.8693H2.917C2.57188 10.8693 2.292 11.1492 2.292 11.4943V14.0814V30.0485H0.625C0.279875 30.0485 0 30.3284 0 30.6735C0 31.0186 0.279875 31.2985 0.625 31.2985H31.375C31.7201 31.2985 32 31.0186 32 30.6735C32 30.3284 31.7201 30.0485 31.375 30.0485ZM16.3184 1.9375H26.0317V3.07025H16.3184V1.9375ZM3.542 12.1193H6.59875V13.4564H3.542V12.1193ZM8.86619 30.0483H7.34513V27.8166H8.86619V30.0483ZM12.7481 30.0485H10.1163V27.1916C10.1163 26.8464 9.83638 26.5666 9.49125 26.5666H6.72019C6.37506 26.5666 6.09519 26.8464 6.09519 27.1916V30.0485H3.542V14.7064H7.22375H12.7481V30.0485ZM22.4564 30.0483H19.6309V25.4767H22.4564V30.0483Z" fill="#494949"/>
<path d="M29.3388 16.9281C29.0286 16.4633 28.2849 16.6306 28.2015 17.1835C28.1166 17.7468 28.8051 18.1189 29.2312 17.7453C29.4655 17.54 29.5085 17.1871 29.3388 16.9281Z" fill="#494949"/>
<path d="M20.0282 7.18408C20.0282 6.83896 19.7483 6.55908 19.4032 6.55908H16.7539C16.4088 6.55908 16.1289 6.83896 16.1289 7.18408V9.83339C16.1289 10.1785 16.4088 10.4584 16.7539 10.4584H19.4032C19.7483 10.4584 20.0282 10.1785 20.0282 9.83339V7.18408ZM18.7782 9.20833H17.3789V7.80902H18.7782V9.20833Z" fill="#494949"/>
<path d="M25.8856 7.18408C25.8856 6.83896 25.6058 6.55908 25.2606 6.55908H22.6113C22.2662 6.55908 21.9863 6.83896 21.9863 7.18408V9.83339C21.9863 10.1785 22.2662 10.4584 22.6113 10.4584H25.2606C25.6058 10.4584 25.8856 10.1785 25.8856 9.83339V7.18408ZM24.6356 9.20833H23.2363V7.80902H24.6356V9.20833Z" fill="#494949"/>
<path d="M20.0282 12.6492C20.0282 12.304 19.7483 12.0242 19.4032 12.0242H16.7539C16.4088 12.0242 16.1289 12.304 16.1289 12.6492V15.2985C16.1289 15.6436 16.4088 15.9235 16.7539 15.9235H19.4032C19.7483 15.9235 20.0282 15.6436 20.0282 15.2985V12.6492ZM18.7782 14.6735H17.3789V13.2742H18.7782V14.6735Z" fill="#494949"/>
<path d="M25.8856 12.6492C25.8856 12.304 25.6058 12.0242 25.2606 12.0242H22.6113C22.2662 12.0242 21.9863 12.304 21.9863 12.6492V15.2985C21.9863 15.6436 22.2662 15.9235 22.6113 15.9235H25.2606C25.6058 15.9235 25.8856 15.6436 25.8856 15.2985V12.6492ZM24.6356 14.6735H23.2363V13.2742H24.6356V14.6735Z" fill="#494949"/>
<path d="M19.4032 17.489H16.7539C16.4088 17.489 16.1289 17.7689 16.1289 18.114V20.7633C16.1289 21.1085 16.4088 21.3883 16.7539 21.3883H19.4032C19.7483 21.3883 20.0282 21.1085 20.0282 20.7633V18.114C20.0282 17.7689 19.7484 17.489 19.4032 17.489ZM18.7782 20.1383H17.3789V18.739H18.7782V20.1383Z" fill="#494949"/>
<path d="M25.2606 17.489H22.6113C22.2662 17.489 21.9863 17.7689 21.9863 18.114V20.7633C21.9863 21.1085 22.2662 21.3883 22.6113 21.3883H25.2606C25.6058 21.3883 25.8856 21.1085 25.8856 20.7633V18.114C25.8856 17.7689 25.6058 17.489 25.2606 17.489ZM24.6356 20.1383H23.2363V18.739H24.6356V20.1383Z" fill="#494949"/>
<path d="M5.54004 16.1465C5.19491 16.1465 4.91504 16.4264 4.91504 16.7715V24.6017C4.91504 24.9468 5.19491 25.2267 5.54004 25.2267C5.88516 25.2267 6.16504 24.9468 6.16504 24.6017V16.7715C6.16504 16.4264 5.88516 16.1465 5.54004 16.1465Z" fill="#494949"/>
<path d="M8.09961 25.2267C8.44473 25.2267 8.72461 24.9468 8.72461 24.6017V16.7715C8.72461 16.4264 8.44473 16.1465 8.09961 16.1465C7.75448 16.1465 7.47461 16.4264 7.47461 16.7715V24.6017C7.47461 24.9469 7.75442 25.2267 8.09961 25.2267Z" fill="#494949"/>
<path d="M10.6592 25.2267C11.0043 25.2267 11.2842 24.9468 11.2842 24.6017V16.7715C11.2842 16.4264 11.0043 16.1465 10.6592 16.1465C10.3141 16.1465 10.0342 16.4264 10.0342 16.7715V24.6017C10.0342 24.9469 10.314 25.2267 10.6592 25.2267Z" fill="#494949"/>
</g>
<defs>
<clipPath id="clip0_9086_1429">
<rect width="32" height="32" fill="white"/>
</clipPath>
</defs>
</svg>
