<svg width="142" height="142" viewBox="0 0 142 142" fill="none" xmlns="http://www.w3.org/2000/svg">
<g clip-path="url(#clip0_4072_3487)">
<circle cx="71" cy="154.48" r="55.4688" fill="#FFE785"/>
<path d="M75.5534 138.627C75.5534 140.487 77.0665 142 78.9267 142H138.626C140.486 142 142 140.487 142 138.627V133.697C142 131.125 139.906 129.031 137.333 129.031H131.968V124.786C131.968 123.637 131.037 122.706 129.888 122.706C128.739 122.706 127.808 123.637 127.808 124.786V129.031H119.294V112.624C119.294 110.495 117.562 108.763 115.433 108.763H102.12C99.9909 108.763 98.2592 110.495 98.2592 112.624V129.031H89.7453V109.521L108.777 93.0951L127.808 109.521V115.744C127.808 116.893 128.739 117.824 129.888 117.824C131.037 117.824 131.968 116.893 131.968 115.744V111.649C132.497 111.753 133.037 111.808 133.583 111.808C136.032 111.808 138.355 110.744 139.955 108.891C142.986 105.379 142.595 100.055 139.083 97.0237L131.968 90.8825V76.9562C131.968 75.0869 130.448 73.566 128.578 73.566H121.479C119.61 73.566 118.089 75.0867 118.089 76.9562V78.9029L114.274 75.6106C111.14 72.9053 106.413 72.9053 103.279 75.6106L92.0237 85.3248L70.3784 80.4233C70.367 80.4128 70.3576 80.4006 70.3459 80.39L67.2988 77.6332C67.2025 77.5461 67.1013 77.4665 66.9973 77.3919V74.0233C72.6701 69.7115 76.48 63.0211 76.9706 55.4288C82.1686 55.2255 86.3351 50.9353 86.3351 45.6882C86.3351 42.864 85.127 40.3175 83.2017 38.5353L84.4805 27.7948C85.3197 20.7464 83.0979 13.6595 78.3845 8.35193C73.6721 3.04412 66.898 0 59.7997 0H44.1708C33.6822 0 24.2675 6.64044 20.7436 16.5244C20.3578 17.6063 20.9222 18.7961 22.0041 19.1822C23.0866 19.5685 24.2761 19.0036 24.6619 17.9214C27.5967 9.69039 35.4367 4.16016 44.1708 4.16016H59.7997C65.7101 4.16016 71.3505 6.6948 75.2749 11.114C79.199 15.5335 81.0492 21.434 80.3506 27.3028L79.277 36.3184C78.5384 36.106 77.7646 35.9781 76.9661 35.9474C76.8253 33.8232 76.427 31.7334 75.7683 29.716C75.3459 28.4211 74.1905 27.5114 72.8237 27.3985C58.4546 26.2154 48.096 19.7363 43.2004 15.9792C42.1049 15.1385 40.6261 15.0484 39.4327 15.7498C32.2317 19.9848 27.5848 27.6137 27.0204 35.9476C26.2164 35.979 25.4373 36.1085 24.6943 36.3237L23.6202 27.3034C23.5539 26.7465 23.5095 26.1832 23.4879 25.6285C23.4432 24.4803 22.4717 23.5795 21.3285 23.6308C20.1806 23.6754 19.2861 24.642 19.3308 25.7899C19.3566 26.4547 19.4098 27.1289 19.4891 27.7948L20.7699 38.5508C18.8543 40.3324 17.6529 42.8721 17.6529 45.6882C17.6529 50.935 21.8194 55.2252 27.0176 55.4288C27.5116 63.0727 31.3703 69.8019 37.1069 74.1104V77.3648C37.0101 77.4333 36.9158 77.5062 36.8251 77.5855L33.6864 80.3298C33.6409 80.3698 33.6018 80.4153 33.5588 80.4574L11.7657 85.3761C6.43236 86.5798 2.44693 91.23 2.0739 96.6845L1.4582 105.687C1.37971 106.833 2.2453 107.826 3.39156 107.904C3.43982 107.908 3.4878 107.909 3.5355 107.909C4.61964 107.909 5.53376 107.069 5.60865 105.971L6.22435 96.9685C6.47285 93.3342 9.12814 90.2363 12.6815 89.4345L32.833 84.8863L35.7825 101.802C35.9853 102.964 36.7604 103.92 37.8565 104.358C38.2661 104.522 38.6927 104.602 39.1165 104.602C39.8265 104.602 40.5273 104.376 41.1217 103.936L43.6502 102.063L49.6231 109.777L41.9745 129.028H25.8242V117.338C25.8242 116.19 24.8929 115.258 23.7442 115.258C22.5954 115.258 21.6641 116.19 21.6641 117.338V129.028H5.97418C5.46609 129.028 4.99516 128.823 4.6482 128.452C4.30125 128.08 4.12929 127.597 4.16396 127.09L5.01236 114.686C5.09084 113.54 4.22526 112.547 3.07899 112.469C1.9319 112.393 0.940396 113.257 0.861907 114.403L0.0137901 126.805C-0.0988115 128.451 0.482224 130.086 1.60796 131.291C2.7337 132.496 4.3251 133.187 5.97418 133.187H75.5534V138.627ZM102.42 112.923H115.134V129.031H102.42V112.923ZM122.249 77.7264H127.808V87.292L122.249 82.494V77.7264ZM105.997 78.7598C107.582 77.3922 109.972 77.3922 111.556 78.7598L136.365 100.173C138.14 101.705 138.338 104.397 136.806 106.173C135.997 107.11 134.822 107.647 133.583 107.647C132.565 107.647 131.578 107.28 130.806 106.613L110.136 88.7727C109.356 88.0991 108.199 88.0985 107.418 88.7727L86.747 106.614C85.8869 107.356 84.7892 107.719 83.6559 107.636C82.5227 107.553 81.4896 107.033 80.7474 106.173C79.2151 104.397 79.4126 101.706 81.1881 100.173L105.997 78.7598ZM78.4699 97.0237C74.9579 100.055 74.5668 105.379 77.5979 108.891C79.0665 110.592 81.1097 111.62 83.3509 111.785C83.5617 111.801 83.7716 111.808 83.9807 111.808C84.524 111.808 85.0604 111.755 85.5852 111.652V129.031H82.3241V117.338C82.3241 116.189 81.3931 115.258 80.2441 115.258C79.095 115.258 78.164 116.189 78.164 117.338V129.027H62.014L54.3654 109.777L60.3252 102.079L62.8771 103.953C63.4689 104.388 64.1656 104.611 64.8715 104.611C65.2969 104.611 65.726 104.53 66.1367 104.365C67.2292 103.926 68.0021 102.971 68.2046 101.812L71.1647 84.8664L88.1093 88.7034L78.4699 97.0237ZM64.3237 99.8537L54.98 92.9911L65.1019 81.2551L67.2355 83.1857L64.3237 99.8537ZM77.0269 51.2559V40.1203C79.9029 40.3466 82.1758 42.7545 82.1758 45.6882C82.1755 48.6214 79.9029 51.0296 77.0269 51.2559V51.2559ZM21.8127 45.6879C21.8127 42.7545 24.0853 40.3466 26.9616 40.12V51.2556C24.0853 51.0296 21.8127 48.6214 21.8127 45.6879V45.6879ZM31.1218 53.7592V37.6627C31.1218 30.3131 34.9303 23.443 41.0962 19.6052C46.4544 23.6319 57.209 30.1567 71.9676 31.4999C72.5641 33.4912 72.8665 35.5616 72.8665 37.663V53.7595C72.8665 65.4329 63.503 74.93 51.9941 74.93C40.4852 74.9297 31.1218 65.4326 31.1218 53.7592V53.7592ZM51.9944 79.0898C55.8766 79.0898 59.5553 78.191 62.838 76.5879V77.5742C62.7101 77.6843 62.5873 77.801 62.4747 77.9314C62.4747 77.9314 62.4747 77.9314 62.4744 77.9314L51.95 90.1345L41.6264 77.9455C41.5155 77.8143 41.3938 77.6965 41.267 77.5855V76.6428C44.52 78.2107 48.1573 79.0898 51.9944 79.0898V79.0898ZM39.6631 99.8379L36.7568 83.1707L38.9651 81.2398L48.9134 92.9861L39.6631 99.8379ZM51.9409 95.9207L56.9716 99.6155L51.9944 106.044L46.9936 99.5853L51.9409 95.9207ZM51.9944 115.075L57.5377 129.027H46.4511L51.9944 115.075ZM137.839 137.84H79.7135V133.697C79.7135 133.418 79.9407 133.191 80.2199 133.191H137.333C137.612 133.191 137.839 133.418 137.839 133.697V137.84Z" fill="#494949"/>
<path d="M46.0491 64.1711C47.9453 64.9491 49.8939 65.3379 51.8805 65.3379C53.848 65.3379 55.8527 64.9566 57.8814 64.1939C58.9567 63.7895 59.5006 62.59 59.0962 61.5147C58.6918 60.4392 57.4912 59.8961 56.4171 60.2997C53.3119 61.4679 50.437 61.4742 47.6278 60.3224C46.5647 59.8859 45.3499 60.3945 44.914 61.4573C44.478 62.5204 44.9863 63.7354 46.0491 64.1711Z" fill="#494949"/>
<path d="M41.1348 48.405C42.2835 48.405 43.2148 47.4739 43.2148 46.3249V43.3296C43.2148 42.1806 42.2835 41.2495 41.1348 41.2495C39.986 41.2495 39.0547 42.1806 39.0547 43.3296V46.3249C39.0547 47.4739 39.986 48.405 41.1348 48.405Z" fill="#494949"/>
<path d="M62.8535 48.405C64.0023 48.405 64.9336 47.4739 64.9336 46.3249V43.3296C64.9336 42.1806 64.0023 41.2495 62.8535 41.2495C61.7048 41.2495 60.7734 42.1806 60.7734 43.3296V46.3249C60.7734 47.4739 61.7048 48.405 62.8535 48.405Z" fill="#494949"/>
</g>
<defs>
<clipPath id="clip0_4072_3487">
<rect width="142" height="142" fill="white"/>
</clipPath>
</defs>
</svg>
