<svg width="100" height="100" viewBox="0 0 100 100" fill="none" xmlns="http://www.w3.org/2000/svg">
<path d="M4 94C4 71.9086 21.9086 54 44 54H56C78.0914 54 96 71.9086 96 94V94L4 94V94Z" fill="#FFE785"/>
<path d="M37.1622 97.2974H33.1892C32.8308 97.2974 32.4871 97.1551 32.2337 96.9016C31.9803 96.6482 31.8379 96.3045 31.8379 95.9461C31.8379 95.5877 31.9803 95.244 32.2337 94.9905C32.4871 94.7371 32.8308 94.5947 33.1892 94.5947H37.1622C37.5206 94.5947 37.8643 94.7371 38.1178 94.9905C38.3712 95.244 38.5136 95.5877 38.5136 95.9461C38.5136 96.3045 38.3712 96.6482 38.1178 96.9016C37.8643 97.1551 37.5206 97.2974 37.1622 97.2974Z" fill="#212529"/>
<path d="M95.9464 97.2971H60.0545C59.6961 97.2971 59.3524 97.1548 59.0989 96.9013C58.8455 96.6479 58.7031 96.3042 58.7031 95.9458C58.7031 95.5874 58.8455 95.2437 59.0989 94.9902C59.3524 94.7368 59.6961 94.5944 60.0545 94.5944H94.595V89.189H5.40583V94.5944H23.7302C24.0886 94.5944 24.4323 94.7368 24.6857 94.9902C24.9391 95.2437 25.0815 95.5874 25.0815 95.9458C25.0815 96.3042 24.9391 96.6479 24.6857 96.9013C24.4323 97.1548 24.0886 97.2971 23.7302 97.2971H4.05448C3.69608 97.2971 3.35235 97.1548 3.09893 96.9013C2.8455 96.6479 2.70313 96.3042 2.70312 95.9458V87.8377C2.70312 87.4793 2.8455 87.1356 3.09893 86.8821C3.35235 86.6287 3.69608 86.4863 4.05448 86.4863H95.9464C96.3048 86.4863 96.6485 86.6287 96.9019 86.8821C97.1553 87.1356 97.2977 87.4793 97.2977 87.8377V95.9458C97.2977 96.3042 97.1553 96.6479 96.9019 96.9013C96.6485 97.1548 96.3048 97.2971 95.9464 97.2971Z" fill="#212529"/>
<path d="M50.5823 97.2974H46.6228C46.2644 97.2974 45.9207 97.1551 45.6673 96.9016C45.4139 96.6482 45.2715 96.3045 45.2715 95.9461C45.2715 95.5877 45.4139 95.244 45.6673 94.9905C45.9207 94.7371 46.2644 94.5947 46.6228 94.5947H50.5823C50.9407 94.5947 51.2844 94.7371 51.5378 94.9905C51.7913 95.244 51.9336 95.5877 51.9336 95.9461C51.9336 96.3045 51.7913 96.6482 51.5378 96.9016C51.2844 97.1551 50.9407 97.2974 50.5823 97.2974Z" fill="#212529"/>
<path d="M67.568 13.5134H4.05448C3.69608 13.5134 3.35235 13.3711 3.09893 13.1176C2.8455 12.8642 2.70313 12.5205 2.70312 12.1621V4.05399C2.70312 3.69559 2.8455 3.35187 3.09893 3.09844C3.35235 2.84501 3.69608 2.70264 4.05448 2.70264H67.568C67.9264 2.70264 68.2701 2.84501 68.5235 3.09844C68.777 3.35187 68.9193 3.69559 68.9193 4.05399V12.1621C68.9193 12.5205 68.777 12.8642 68.5235 13.1176C68.2701 13.3711 67.9264 13.5134 67.568 13.5134ZM5.40583 10.8107H66.2166V5.40534H5.40583V10.8107Z" fill="#212529"/>
<path d="M95.9459 45.9461H63.5135C63.1551 45.9461 62.8113 45.8037 62.5579 45.5503C62.3045 45.2968 62.1621 44.9531 62.1621 44.5947V36.4866C62.1621 36.1282 62.3045 35.7845 62.5579 35.5311C62.8113 35.2776 63.1551 35.1353 63.5135 35.1353H95.9459C96.3043 35.1353 96.648 35.2776 96.9014 35.5311C97.1549 35.7845 97.2972 36.1282 97.2972 36.4866V44.5947C97.2972 44.9531 97.1549 45.2968 96.9014 45.5503C96.648 45.8037 96.3043 45.9461 95.9459 45.9461ZM64.8648 43.2434H94.5945V37.838H64.8648V43.2434Z" fill="#212529"/>
<path d="M63.5148 89.1889H9.46073C9.10233 89.1889 8.7586 89.0466 8.50518 88.7931C8.25175 88.5397 8.10938 88.196 8.10938 87.8376V12.1619C8.10938 11.8035 8.25175 11.4598 8.50518 11.2063C8.7586 10.9529 9.10233 10.8105 9.46073 10.8105H63.5148C63.8732 10.8105 64.2169 10.9529 64.4703 11.2063C64.7238 11.4598 64.8661 11.8035 64.8661 12.1619V87.8376C64.8661 88.196 64.7238 88.5397 64.4703 88.7931C64.2169 89.0466 63.8732 89.1889 63.5148 89.1889ZM10.8121 86.4862H62.1634V13.5132H10.8121V86.4862Z" fill="#212529"/>
<path d="M52.0276 35.1353H42.5681C42.2097 35.1353 41.866 34.9929 41.6126 34.7395C41.3592 34.4861 41.2168 34.1424 41.2168 33.784V24.3245C41.2168 23.9661 41.3592 23.6224 41.6126 23.3689C41.866 23.1155 42.2097 22.9731 42.5681 22.9731H52.0276C52.386 22.9731 52.7297 23.1155 52.9832 23.3689C53.2366 23.6224 53.379 23.9661 53.379 24.3245V33.784C53.379 34.1424 53.2366 34.4861 52.9832 34.7395C52.7297 34.9929 52.386 35.1353 52.0276 35.1353ZM43.9195 32.4326H50.6763V25.6758H43.9195V32.4326Z" fill="#212529"/>
<path d="M80.7428 63.0917H73.3103C72.9519 63.0917 72.6082 62.9493 72.3548 62.6959C72.1014 62.4424 71.959 62.0987 71.959 61.7403V54.3079C71.959 53.9495 72.1014 53.6058 72.3548 53.3523C72.6082 53.0989 72.9519 52.9565 73.3103 52.9565H80.7428C81.1012 52.9565 81.4449 53.0989 81.6983 53.3523C81.9517 53.6058 82.0941 53.9495 82.0941 54.3079V61.7403C82.0941 62.0987 81.9517 62.4424 81.6983 62.6959C81.4449 62.9493 81.1012 63.0917 80.7428 63.0917ZM74.6617 60.389H79.3914V55.6592H74.6617V60.389Z" fill="#212529"/>
<path d="M80.7428 79.4755H73.3103C72.9519 79.4755 72.6082 79.3331 72.3548 79.0797C72.1014 78.8262 71.959 78.4825 71.959 78.1241V70.6917C71.959 70.3333 72.1014 69.9896 72.3548 69.7361C72.6082 69.4827 72.9519 69.3403 73.3103 69.3403H80.7428C81.1012 69.3403 81.4449 69.4827 81.6983 69.7361C81.9517 69.9896 82.0941 70.3333 82.0941 70.6917V78.1241C82.0941 78.4825 81.9517 78.8262 81.6983 79.0797C81.4449 79.3331 81.1012 79.4755 80.7428 79.4755ZM74.6617 76.7728H79.3914V72.043H74.6617V76.7728Z" fill="#212529"/>
<path d="M30.4065 35.1353H20.9471C20.5887 35.1353 20.2449 34.9929 19.9915 34.7395C19.7381 34.4861 19.5957 34.1424 19.5957 33.784V24.3245C19.5957 23.9661 19.7381 23.6224 19.9915 23.3689C20.2449 23.1155 20.5887 22.9731 20.9471 22.9731H30.4065C30.7649 22.9731 31.1086 23.1155 31.3621 23.3689C31.6155 23.6224 31.7579 23.9661 31.7579 24.3245V33.784C31.7579 34.1424 31.6155 34.4861 31.3621 34.7395C31.1086 34.9929 30.7649 35.1353 30.4065 35.1353ZM22.2984 32.4326H29.0552V25.6758H22.2984V32.4326Z" fill="#212529"/>
<path d="M52.0276 56.0811H42.5681C42.2097 56.0811 41.866 55.9387 41.6126 55.6853C41.3592 55.4319 41.2168 55.0882 41.2168 54.7298V45.2703C41.2168 44.9119 41.3592 44.5682 41.6126 44.3147C41.866 44.0613 42.2097 43.9189 42.5681 43.9189H52.0276C52.386 43.9189 52.7297 44.0613 52.9832 44.3147C53.2366 44.5682 53.379 44.9119 53.379 45.2703V54.7298C53.379 55.0882 53.2366 55.4319 52.9832 55.6853C52.7297 55.9387 52.386 56.0811 52.0276 56.0811ZM43.9195 53.3784H50.6763V46.6216H43.9195V53.3784Z" fill="#212529"/>
<path d="M30.4065 56.0811H20.9471C20.5887 56.0811 20.2449 55.9387 19.9915 55.6853C19.7381 55.4319 19.5957 55.0882 19.5957 54.7298V45.2703C19.5957 44.9119 19.7381 44.5682 19.9915 44.3147C20.2449 44.0613 20.5887 43.9189 20.9471 43.9189H30.4065C30.7649 43.9189 31.1086 44.0613 31.3621 44.3147C31.6155 44.5682 31.7579 44.9119 31.7579 45.2703V54.7298C31.7579 55.0882 31.6155 55.4319 31.3621 55.6853C31.1086 55.9387 30.7649 56.0811 30.4065 56.0811ZM22.2984 53.3784H29.0552V46.6216H22.2984V53.3784Z" fill="#212529"/>
<path d="M52.0276 77.0269H42.5681C42.2097 77.0269 41.866 76.8845 41.6126 76.6311C41.3592 76.3777 41.2168 76.034 41.2168 75.6756V66.2161C41.2168 65.8577 41.3592 65.514 41.6126 65.2605C41.866 65.0071 42.2097 64.8647 42.5681 64.8647H52.0276C52.386 64.8647 52.7297 65.0071 52.9832 65.2605C53.2366 65.514 53.379 65.8577 53.379 66.2161V75.6756C53.379 76.034 53.2366 76.3777 52.9832 76.6311C52.7297 76.8845 52.386 77.0269 52.0276 77.0269ZM43.9195 74.3242H50.6763V67.5674H43.9195V74.3242Z" fill="#212529"/>
<path d="M30.4065 77.0269H20.9471C20.5887 77.0269 20.2449 76.8845 19.9915 76.6311C19.7381 76.3777 19.5957 76.034 19.5957 75.6756V66.2161C19.5957 65.8577 19.7381 65.514 19.9915 65.2605C20.2449 65.0071 20.5887 64.8647 20.9471 64.8647H30.4065C30.7649 64.8647 31.1086 65.0071 31.3621 65.2605C31.6155 65.514 31.7579 65.8577 31.7579 66.2161V75.6756C31.7579 76.034 31.6155 76.3777 31.3621 76.6311C31.1086 76.8845 30.7649 77.0269 30.4065 77.0269ZM22.2984 74.3242H29.0552V67.5674H22.2984V74.3242Z" fill="#212529"/>
<path d="M90.5405 89.1891H63.5135C63.1551 89.1891 62.8113 89.0467 62.5579 88.7933C62.3045 88.5399 62.1621 88.1962 62.1621 87.8378V44.5945C62.1621 44.2361 62.3045 43.8924 62.5579 43.639C62.8113 43.3855 63.1551 43.2432 63.5135 43.2432H90.5405C90.8989 43.2432 91.2426 43.3855 91.496 43.639C91.7495 43.8924 91.8918 44.2361 91.8918 44.5945V87.8378C91.8918 88.1962 91.7495 88.5399 91.496 88.7933C91.2426 89.0467 90.8989 89.1891 90.5405 89.1891ZM64.8648 86.4864H89.1891V45.9459H64.8648V86.4864Z" fill="#212529"/>
</svg>
