<svg width="512" height="512" viewBox="0 0 512 512" fill="none" xmlns="http://www.w3.org/2000/svg">
<g clip-path="url(#clip0_3760_478)">
<circle cx="256" cy="557" r="200" fill="#FFE785"/>
<path d="M492.417 205.145L481.258 193.33L442.092 87.7573C435.419 69.9248 418.352 58.1094 399.316 58H119.576C100.54 58 83.4735 69.9248 76.8 87.7573L38.1812 192.017L22.0991 206.896C8.09573 218.821 0 236.325 0 254.704V408.523C0.109402 433.685 20.5675 454.034 45.7299 454.034H74.612C99.7744 454.034 120.232 433.685 120.342 408.523V386.205H391.658V408.523C391.768 433.685 412.226 454.034 437.388 454.034H466.27C491.433 454.034 511.891 433.685 512 408.523V250.656C511.891 233.48 504.889 217.07 492.417 205.145ZM97.3675 95.1966C100.868 85.8974 109.73 79.8803 119.576 79.8803H399.426C409.272 79.8803 418.133 86.0068 421.634 95.1966L455.768 187.094H430.277C424.26 146.068 386.079 117.733 345.053 123.86C312.342 128.674 286.632 154.383 281.819 187.094H63.2342L97.3675 95.1966ZM407.959 187.094H303.918C309.935 158.321 338.161 139.942 366.933 145.959C387.501 150.335 403.583 166.417 407.959 187.094ZM98.4615 408.523C98.3521 421.651 87.7402 432.154 74.612 432.154H45.7299C32.6017 432.154 21.9897 421.651 21.8803 408.523V379.86C28.4444 384.127 37.0872 386.205 45.7299 386.205H98.4615V408.523ZM490.12 408.523C490.01 421.651 479.398 432.154 466.27 432.154H437.388C424.26 432.154 413.648 421.542 413.538 408.523V386.205H466.27C474.913 386.205 483.556 384.127 490.12 379.86V408.523ZM466.27 364.325H45.7299C32.7111 364.434 21.9897 354.041 21.8803 340.913V254.704C21.8803 242.67 27.241 231.183 36.4308 223.415C36.5402 223.306 36.759 223.087 36.8684 222.978L51.747 208.974H466.051L476.554 220.243C476.663 220.462 476.991 220.571 477.101 220.79C485.306 228.557 490.01 239.388 490.01 250.656V340.913H490.12C490.01 353.932 479.289 364.434 466.27 364.325Z" fill="#494949"/>
<path d="M144.41 252.735H62.3591C56.342 252.735 51.4189 257.658 51.4189 263.676V320.564C51.4189 326.582 56.342 331.505 62.3591 331.505H144.41C150.427 331.505 155.351 326.582 155.351 320.564V263.676C155.351 257.658 150.427 252.735 144.41 252.735ZM133.47 309.624H73.2993V274.616H133.47V309.624Z" fill="#494949"/>
<path d="M449.641 252.735H367.59C361.572 252.735 356.649 257.658 356.649 263.676V320.564C356.649 326.582 361.572 331.505 367.59 331.505H449.641C455.658 331.505 460.581 326.582 460.581 320.564V263.676C460.581 257.658 455.658 252.735 449.641 252.735ZM438.701 309.624H378.53V274.616H438.701V309.624Z" fill="#494949"/>
<path d="M308.841 298.684H203.159C197.142 298.684 192.219 303.607 192.219 309.624C192.219 315.641 197.142 320.564 203.159 320.564H308.841C314.858 320.564 319.781 315.641 319.781 309.624C319.781 303.607 314.858 298.684 308.841 298.684Z" fill="#494949"/>
<path d="M308.841 264.77H203.159C197.142 264.77 192.219 269.693 192.219 275.71C192.219 281.727 197.142 286.65 203.159 286.65H308.841C314.858 286.65 319.781 281.727 319.781 275.71C319.781 269.693 314.858 264.77 308.841 264.77Z" fill="#494949"/>
</g>
<defs>
<clipPath id="clip0_3760_478">
<rect width="512" height="512" fill="white"/>
</clipPath>
</defs>
</svg>
