<svg width="636" height="636" viewBox="0 0 636 636" fill="none" xmlns="http://www.w3.org/2000/svg">
<g clip-path="url(#clip0_859_55)">
<circle cx="318" cy="691.898" r="248.438" fill="#FFE785"/>
<g clip-path="url(#clip1_859_55)">
<path d="M614.8 159H180.2C174.346 159 169.6 163.746 169.6 169.6C169.6 175.454 174.346 180.2 180.2 180.2H244.277C197.235 210.134 168.995 262.245 169.6 318C168.995 373.755 197.235 425.866 244.277 455.8H21.2V180.2H127.2C133.054 180.2 137.8 175.454 137.8 169.6C137.8 163.746 133.054 159 127.2 159H21.2C9.49156 159 0 168.492 0 180.2V455.8C0 467.508 9.49156 477 21.2 477H614.8C626.508 477 636 467.508 636 455.8V180.2C636 168.492 626.508 159 614.8 159ZM190.8 318C190.8 242.019 247.86 180.2 318 180.2C388.14 180.2 445.2 242.019 445.2 318C445.2 393.981 388.14 455.8 318 455.8C247.86 455.8 190.8 393.981 190.8 318ZM614.8 455.8H391.723C438.765 425.866 467.005 373.755 466.4 318C467.005 262.245 438.765 210.134 391.723 180.2H614.8V455.8Z" fill="#494949"/>
<path d="M559.001 44.626C553.983 42.1146 548.174 41.6953 542.847 43.46L314.523 119.981C308.961 121.843 305.962 127.861 307.824 133.422C309.685 138.984 315.703 141.983 321.264 140.121L549.525 63.6L572.951 133.443C574.153 137.041 577.184 139.724 580.9 140.482C584.617 141.239 588.456 139.956 590.97 137.116C593.485 134.276 594.293 130.31 593.091 126.712L569.654 56.9114C567.908 51.5457 564.065 47.1145 559.001 44.626V44.626Z" fill="#494949"/>
<path d="M314.735 495.889L86.4748 572.4L63.0488 502.557C61.1901 496.995 55.1748 493.993 49.6133 495.852C44.0518 497.711 41.0501 503.726 42.9088 509.288L66.303 579.067C68.0368 584.423 71.8588 588.853 76.903 591.353C79.8377 592.812 83.07 593.574 86.3476 593.579C88.6261 593.582 90.8908 593.224 93.0574 592.519L321.381 515.997C326.943 514.136 329.942 508.118 328.081 502.557C326.219 496.995 320.201 493.996 314.64 495.857L314.735 495.889Z" fill="#494949"/>
<path d="M349.8 280.9C349.8 286.754 354.546 291.5 360.4 291.5C366.254 291.5 371 286.754 371 280.9C369.977 257.139 352.149 237.489 328.6 234.165V233.2C328.6 227.346 323.854 222.6 318 222.6C312.146 222.6 307.4 227.346 307.4 233.2V234.165C283.851 237.489 266.023 257.139 265 280.9C266.023 304.661 283.851 324.311 307.4 327.635V379.968C295.604 377.292 286.976 367.171 286.2 355.1C286.2 349.246 281.454 344.5 275.6 344.5C269.746 344.5 265 349.246 265 355.1C266.023 378.861 283.851 398.511 307.4 401.835V402.8C307.4 408.654 312.146 413.4 318 413.4C323.854 413.4 328.6 408.654 328.6 402.8V401.835C352.149 398.511 369.977 378.861 371 355.1C369.977 331.339 352.149 311.689 328.6 308.365V256.032C340.396 258.708 349.024 268.829 349.8 280.9ZM286.2 280.9C286.976 268.829 295.604 258.708 307.4 256.032V305.768C295.604 303.091 286.976 292.971 286.2 280.9ZM349.8 355.1C349.024 367.171 340.396 377.292 328.6 379.968V330.232C340.396 332.908 349.024 343.029 349.8 355.1V355.1Z" fill="#494949"/>
<path d="M540.6 434.6H583C588.854 434.6 593.6 429.854 593.6 424V381.6C593.6 375.746 588.854 371 583 371C577.146 371 572.4 375.746 572.4 381.6V413.4H540.6C534.746 413.4 530 418.146 530 424C530 429.854 534.746 434.6 540.6 434.6Z" fill="#494949"/>
<path d="M53.0004 371C47.1462 371 42.4004 375.746 42.4004 381.6V424C42.4004 429.854 47.1462 434.6 53.0004 434.6H95.4004C101.255 434.6 106 429.854 106 424C106 418.146 101.255 413.4 95.4004 413.4H63.6004V381.6C63.6004 375.746 58.8546 371 53.0004 371Z" fill="#494949"/>
<path d="M95.4004 201.4H53.0004C47.1462 201.4 42.4004 206.146 42.4004 212V254.4C42.4004 260.254 47.1462 265 53.0004 265C58.8546 265 63.6004 260.254 63.6004 254.4V222.6H95.4004C101.255 222.6 106 217.854 106 212C106 206.146 101.255 201.4 95.4004 201.4Z" fill="#494949"/>
<path d="M540.6 222.6H572.4V254.4C572.4 260.254 577.146 265 583 265C588.854 265 593.6 260.254 593.6 254.4V212C593.6 206.146 588.854 201.4 583 201.4H540.6C534.746 201.4 530 206.146 530 212C530 217.854 534.746 222.6 540.6 222.6Z" fill="#494949"/>
</g>
</g>
<defs>
<clipPath id="clip0_859_55">
<rect width="636" height="636" fill="white"/>
</clipPath>
<clipPath id="clip1_859_55">
<rect width="636" height="636" fill="white"/>
</clipPath>
</defs>
</svg>
