<svg width="512" height="512" viewBox="0 0 512 512" fill="none" xmlns="http://www.w3.org/2000/svg">
<g clip-path="url(#clip0_3760_700)">
<circle cx="256" cy="512" r="200" fill="#FFE785"/>
<path d="M499.454 452.86H447.977C442.22 452.86 437.519 451.612 433.187 448.937C417.581 439.278 405.148 408.345 397.719 389.863C396.885 387.789 396.049 385.717 395.205 383.647C382.982 353.672 367.771 316.368 337.552 297.11C324.023 288.464 308.644 284.081 291.844 284.081H271.621V198.672C278.807 198.653 285.554 195.853 290.618 190.789C295.708 185.718 298.515 178.951 298.522 171.735C298.529 164.506 295.726 157.716 290.619 152.61L234.72 96.9066C231.786 93.9826 227.037 93.9896 224.114 96.9256C221.19 99.8596 221.198 104.609 224.133 107.532L280.023 163.225C282.283 165.486 283.527 168.503 283.523 171.721C283.52 174.925 282.28 177.923 280.023 180.173C275.35 184.845 267.749 184.845 263.076 180.173L154.564 71.6866C151.635 68.7576 146.887 68.7576 143.959 71.6866L35.447 180.173C33.189 182.431 30.177 183.674 26.964 183.674C26.96 183.674 26.956 183.674 26.952 183.674C23.748 183.671 20.751 182.431 18.491 180.163C16.242 177.923 15.003 174.925 15 171.721C14.997 168.503 16.24 165.486 18.501 163.225L140.798 40.9246C143.038 38.6766 146.036 37.4366 149.239 37.4336H149.251C152.464 37.4336 155.477 38.6766 157.735 40.9346L201.048 84.2496C203.976 87.1786 208.725 87.1786 211.654 84.2496C214.583 81.3206 214.583 76.5726 211.654 73.6436L168.341 30.3286C163.249 25.2376 156.471 22.4346 149.251 22.4346C149.242 22.4346 149.233 22.4346 149.225 22.4346C142.01 22.4416 135.243 25.2476 130.182 30.3286L7.89501 152.619C2.79701 157.717 -0.00698693 164.505 1.30746e-05 171.735C0.00701307 178.95 2.81401 185.717 7.88401 190.769C12.947 195.851 19.699 198.656 26.901 198.672V330.783V492.063H7.50001C3.35801 492.063 1.30746e-05 495.421 1.30746e-05 499.563C1.30746e-05 503.705 3.35801 507.063 7.50001 507.063H499.766C506.512 507.063 512 501.587 512 494.857V465.404C512 458.488 506.372 452.86 499.454 452.86V452.86ZM60.038 492.064H41.901V338.284H60.038V492.064ZM111.601 492.064H75.038V338.284H104.19H111.601V492.064ZM171.922 492.064H126.601V468.115H171.922V492.064ZM171.922 453.115H126.601V424.857H171.922V453.115ZM171.922 409.857H126.601V381.571H171.922V409.857ZM171.922 366.571H126.601V338.284H171.922V366.571ZM186.832 323.284H111.69V286.109C111.69 265.392 128.544 248.537 149.261 248.537C169.978 248.537 186.832 265.392 186.832 286.109V323.284ZM223.456 492.064H186.922V338.284H194.332H223.456V492.064ZM201.832 323.284V286.109C201.832 257.121 178.249 233.537 149.261 233.537C120.273 233.537 96.69 257.12 96.69 286.109V323.284H67.538H41.901V194.184C43.379 193.2 44.77 192.063 46.053 190.779L149.261 87.5956L252.468 190.779C253.752 192.063 255.143 193.2 256.621 194.185V323.284H230.956H201.832ZM271.621 492.064V442.416C271.621 438.274 268.263 434.916 264.121 434.916C259.979 434.916 256.621 438.274 256.621 442.416V492.064H238.456V338.284H256.621V407.804C256.621 411.946 259.979 415.304 264.121 415.304C268.263 415.304 271.621 411.946 271.621 407.804V338.284H291.844C298.289 338.284 303.548 339.722 308.392 342.806C324.27 352.928 336.094 382.114 343.917 401.427C344.885 403.814 345.855 406.2 346.825 408.587C358.44 437.205 372.754 472.47 400.205 492.064H271.621ZM497 492.064H447.977C434.983 492.064 423.062 488.769 412.553 482.274C386.33 466.033 372.727 432.516 360.724 402.945C359.756 400.562 358.786 398.179 357.82 395.795C349.28 374.713 336.374 342.855 316.452 330.155C309.191 325.531 301.142 323.283 291.844 323.283H271.621V299.079H291.844C305.736 299.079 318.397 302.668 329.483 309.753C355.685 326.451 369.302 359.845 381.316 389.309C382.15 391.355 382.977 393.404 383.801 395.455C392.442 416.953 405.499 449.44 425.298 461.694C432.014 465.842 439.433 467.859 447.977 467.859H497V492.064Z" fill="#494949"/>
<path d="M343.945 155.189H453.788C485.886 155.189 512 129.087 512 97.004C512 64.905 485.886 38.791 453.788 38.791C453.407 38.791 453.024 38.795 452.641 38.803C440.908 18.112 418.685 5 394.657 5C357.901 5 327.998 34.892 327.998 71.633C327.998 72.993 328.04 74.362 328.124 75.731C312.848 82.012 302.656 96.882 302.656 113.898C302.656 136.666 321.178 155.189 343.945 155.189V155.189ZM337.939 88.291C341.766 87.398 344.254 83.703 343.643 79.821C343.215 77.1 342.997 74.345 342.997 71.633C342.997 43.163 366.171 20 394.656 20C414.628 20 432.989 31.688 441.435 49.775C442.792 52.68 445.847 54.401 449.033 54.059C450.716 53.878 452.27 53.79 453.787 53.79C477.614 53.79 496.999 73.175 496.999 97.003C496.999 120.815 477.614 140.188 453.787 140.188H343.945C329.449 140.188 317.656 128.395 317.656 113.898C317.656 101.609 325.997 91.079 337.939 88.291V88.291Z" fill="#494949"/>
<path d="M149.261 144.497C130.871 144.497 115.909 159.459 115.909 177.85C115.909 196.241 130.871 211.203 149.261 211.203C167.651 211.203 182.613 196.241 182.613 177.85C182.613 159.459 167.651 144.497 149.261 144.497ZM149.261 196.203C139.142 196.203 130.909 187.97 130.909 177.85C130.909 167.73 139.142 159.497 149.261 159.497C159.38 159.497 167.613 167.73 167.613 177.85C167.613 187.97 159.38 196.203 149.261 196.203Z" fill="#494949"/>
</g>
<defs>
<clipPath id="clip0_3760_700">
<rect width="512" height="512" fill="white"/>
</clipPath>
</defs>
</svg>
