<svg width="512" height="512" viewBox="0 0 512 512" fill="none" xmlns="http://www.w3.org/2000/svg">
<g clip-path="url(#clip0_3760_687)">
<circle cx="256" cy="512" r="200" fill="#FFE785"/>
<path d="M281.082 71.6418C265.145 69.1653 250.125 80.1028 247.594 96.0637C246.387 103.798 248.262 111.536 252.875 117.849C257.489 124.165 264.289 128.306 272.024 129.509C273.547 129.747 275.063 129.861 276.559 129.861C290.735 129.861 303.231 119.536 305.489 105.118C307.973 89.1926 297.039 74.1809 281.114 71.6496C281.102 71.6457 281.094 71.6457 281.082 71.6418V71.6418ZM285.75 102.036C284.961 107.095 280.18 110.564 275.102 109.771C272.637 109.388 270.473 108.072 269.008 106.064C267.543 104.06 266.949 101.603 267.328 99.1692C268.059 94.5676 272.051 91.2707 276.567 91.2707C277.035 91.2707 277.512 91.3059 277.992 91.3801C283.059 92.1926 286.539 96.9739 285.75 102.036V102.036Z" fill="#494949"/>
<path d="M313.449 171.919C312.223 179.63 314.082 187.356 318.684 193.685C323.301 200.028 330.106 204.185 337.852 205.395C339.371 205.634 340.879 205.751 342.375 205.747C356.531 205.747 369.047 195.431 371.34 181.005C372.547 173.274 370.672 165.536 366.063 159.212C361.449 152.884 354.645 148.735 346.906 147.532H346.91C330.946 145.044 315.934 155.997 313.449 171.919V171.919ZM349.922 170.981C351.391 172.997 351.985 175.462 351.606 177.895C350.797 182.966 346.004 186.442 340.93 185.657C338.473 185.274 336.309 183.95 334.84 181.931C333.383 179.927 332.793 177.489 333.184 175.028C333.903 170.442 337.875 167.157 342.387 167.157C342.864 167.157 343.348 167.192 343.832 167.27C346.289 167.653 348.453 168.97 349.922 170.981V170.981Z" fill="#494949"/>
<path d="M382.591 277.619C387.204 283.943 394.009 288.095 401.743 289.298C403.27 289.54 404.802 289.658 406.321 289.658C412.473 289.658 418.45 287.72 423.52 284.025C429.852 279.411 434.001 272.615 435.208 264.884C436.415 257.161 434.54 249.427 429.927 243.107C425.309 236.786 418.509 232.638 410.774 231.431C394.813 228.943 379.805 239.88 377.313 255.822C376.106 263.556 377.981 271.294 382.591 277.619V277.619ZM397.052 258.908C397.766 254.333 401.739 251.06 406.243 251.06C406.723 251.06 407.208 251.095 407.692 251.173H407.7C410.157 251.556 412.321 252.876 413.79 254.888C415.255 256.896 415.852 259.349 415.469 261.802C415.087 264.255 413.766 266.415 411.755 267.88C409.743 269.349 407.278 269.947 404.821 269.56C402.36 269.177 400.2 267.861 398.731 265.849C397.262 263.833 396.665 261.369 397.052 258.908V258.908Z" fill="#494949"/>
<path d="M502.109 63.3561C494.023 52.2702 482.145 45.0045 468.664 42.8913L412.508 34.11C407.07 33.2584 401.945 36.985 401.098 42.4381C400.242 47.8874 403.973 52.9967 409.422 53.8483L465.574 62.6295C473.785 63.9147 481.027 68.3561 485.973 75.1295C490.914 81.903 492.926 90.1491 491.637 98.3483L459.32 304.536C456.906 319.938 443.551 330.977 428.414 330.977C426.824 330.977 425.215 330.856 423.594 330.602L311.391 313.032V243.059C311.391 214.809 288.395 191.825 260.129 191.825H202.266L223.48 56.4069C224.766 48.1959 229.215 40.9538 236.004 36.0084C242.781 31.0749 251.023 29.0709 259.23 30.3678L330.949 41.6413C336.391 42.4967 341.512 38.7741 342.367 33.3249C343.223 27.8756 339.5 22.7624 334.051 21.9069L262.34 10.6334C248.863 8.50454 235.34 11.7819 224.242 19.86C213.137 27.9459 205.859 39.8249 203.742 53.3131L182.047 191.829H51.2617C22.9961 191.825 0 214.809 0 243.059V451.739C0 480.005 22.9961 502.997 51.2617 502.997H260.129C288.395 502.997 311.391 480.005 311.391 451.739V333.255L420.516 350.34C423.172 350.755 425.809 350.954 428.414 350.954C453.219 350.954 475.102 332.864 479.059 307.63L511.375 101.446C513.488 87.9694 510.199 74.442 502.109 63.3561V63.3561ZM291.414 451.739C291.414 468.985 277.379 483.02 260.129 483.02H51.2617C34.0117 483.02 19.9766 468.985 19.9766 451.739V243.059C19.9766 225.825 34.0117 211.805 51.2617 211.805H190.566H190.605H190.637H260.129C277.379 211.805 291.41 225.825 291.41 243.059V451.739H291.414Z" fill="#494949"/>
<path d="M79.2422 249.216C63.0898 249.216 49.9492 262.349 49.9492 278.493C49.9492 294.638 63.0898 307.774 79.2422 307.774C95.4102 307.774 108.562 294.638 108.562 278.493C108.562 262.349 95.4102 249.216 79.2422 249.216ZM79.2422 287.794C74.1055 287.794 69.9258 283.622 69.9258 278.493C69.9258 273.368 74.1055 269.192 79.2422 269.192C84.3945 269.192 88.5859 273.368 88.5859 278.493C88.5859 283.622 84.3945 287.794 79.2422 287.794Z" fill="#494949"/>
<path d="M156.035 313.997C139.883 313.997 126.742 327.134 126.742 343.274C126.742 359.435 139.883 372.583 156.035 372.583C172.188 372.583 185.328 359.438 185.328 343.274C185.328 327.134 172.188 313.997 156.035 313.997V313.997ZM156.035 352.606C150.898 352.606 146.719 348.423 146.719 343.278C146.719 338.149 150.898 333.978 156.035 333.978C161.172 333.978 165.352 338.149 165.352 343.278C165.352 348.423 161.172 352.606 156.035 352.606Z" fill="#494949"/>
<path d="M232.122 249.524C215.969 249.524 202.829 262.661 202.829 278.806C202.829 294.95 215.969 308.083 232.122 308.083C248.29 308.083 261.442 294.95 261.442 278.806C261.442 262.661 248.286 249.524 232.122 249.524V249.524ZM232.122 288.106C226.985 288.106 222.805 283.935 222.805 278.806C222.805 273.677 226.985 269.505 232.122 269.505C237.274 269.505 241.465 273.677 241.465 278.806C241.465 283.935 237.274 288.106 232.122 288.106Z" fill="#494949"/>
<path d="M79.2422 386.712C63.0898 386.712 49.9492 399.845 49.9492 415.989C49.9492 432.134 63.0898 445.271 79.2422 445.271C95.4102 445.271 108.562 432.134 108.562 415.989C108.562 399.845 95.4102 386.712 79.2422 386.712ZM79.2422 425.29C74.1055 425.29 69.9258 421.118 69.9258 415.989C69.9258 410.86 74.1055 406.688 79.2422 406.688C84.3945 406.688 88.5859 410.86 88.5859 415.989C88.5859 421.118 84.3945 425.29 79.2422 425.29V425.29Z" fill="#494949"/>
<path d="M232.122 387.024C215.969 387.024 202.829 400.157 202.829 416.302C202.829 432.446 215.969 445.583 232.122 445.583C248.29 445.583 261.442 432.446 261.442 416.302C261.442 400.157 248.286 387.024 232.122 387.024V387.024ZM232.122 425.603C226.985 425.603 222.805 421.431 222.805 416.302C222.805 411.173 226.985 407.001 232.122 407.001C237.274 407.001 241.465 411.173 241.465 416.302C241.465 421.431 237.274 425.603 232.122 425.603V425.603Z" fill="#494949"/>
<path d="M370.344 47.7427L370.516 47.7701C371.071 47.8638 371.622 47.9107 372.169 47.9107C376.965 47.9107 381.196 44.4459 382.008 39.5631C382.915 34.1217 379.239 28.9732 373.801 28.067L373.629 28.0396C368.176 27.1295 363.04 30.8092 362.133 36.2506C361.227 41.6881 364.903 46.8365 370.344 47.7427V47.7427Z" fill="#494949"/>
</g>
<defs>
<clipPath id="clip0_3760_687">
<rect width="512" height="512" fill="white"/>
</clipPath>
</defs>
</svg>
