<svg width="90" height="90" viewBox="0 0 90 90" fill="none" xmlns="http://www.w3.org/2000/svg">
<g clip-path="url(#clip0_4156_2554)">
<circle cx="45" cy="97.9102" r="35.1562" fill="#FFE785"/>
<path d="M78.9746 73.8466H75.4199V50.0312C75.4199 49.5545 75.0913 49.1405 74.6268 49.0325L70.4029 48.0502V16.1519H70.9608C71.5273 16.1519 71.9862 15.693 71.9862 15.1265V11.0254C71.9862 10.459 71.5273 10 70.9608 10H61.8759C61.3095 10 60.8505 10.459 60.8505 11.0254C60.8505 11.5918 61.3095 12.0508 61.8759 12.0508H69.9355V14.1012H64.7993C63.2398 14.1012 61.8134 14.9254 61.0769 16.2523C60.2552 17.7324 58.4945 18.6889 56.5914 18.6889C54.6884 18.6889 52.9278 17.7324 52.1061 16.2521C51.3693 14.9253 49.9432 14.1012 48.3837 14.1012H43.1689C41.5518 14.1012 40.0163 14.8588 38.9562 16.1801C38.6342 16.5814 38.155 16.8115 37.6414 16.8115C37.1277 16.8115 36.6485 16.5812 36.3266 16.18C35.2663 14.8588 33.7308 14.1012 32.1138 14.1012H28.2674V12.0508H56.7796C57.346 12.0508 57.8049 11.5918 57.8049 11.0254C57.8049 10.459 57.346 10 56.7796 10H27.2423C26.676 10 26.2169 10.459 26.2169 11.0254V15.1265C26.2169 15.693 26.676 16.1519 27.2423 16.1519H27.8004V22.5893H25.4018C24.8355 22.5893 24.3764 23.0483 24.3764 23.6147C24.3764 24.1812 24.8355 24.6401 25.4018 24.6401H27.8004V27.5112H25.4018C24.8355 27.5112 24.3764 27.9702 24.3764 28.5366C24.3764 29.103 24.8355 29.562 25.4018 29.562H27.8004V32.4331H25.4018C24.8355 32.4331 24.3764 32.8921 24.3764 33.4585C24.3764 34.0249 24.8355 34.4839 25.4018 34.4839H27.8004V38.1426L15.8379 35.3606C15.5334 35.2897 15.2129 35.3619 14.9679 35.5564C14.7229 35.751 14.5802 36.0466 14.5802 36.3594V61.0844C14.5802 61.6508 15.0393 62.1098 15.6056 62.1098C16.1719 62.1098 16.631 61.6508 16.631 61.0844V37.6505L34.2226 41.7416C34.774 41.8697 35.3252 41.5268 35.4536 40.9753C35.5819 40.4236 35.2387 39.8725 34.6872 39.7443L29.8512 38.6196V34.4839H43.5081C44.0744 34.4839 44.5335 34.0249 44.5335 33.4585C44.5335 32.8921 44.0744 32.4331 43.5081 32.4331H29.8512V29.562H43.5081C44.0744 29.562 44.5335 29.103 44.5335 28.5366C44.5335 27.9702 44.0744 27.5112 43.5081 27.5112H29.8512V24.6401H43.5081C44.0744 24.6401 44.5335 24.1812 44.5335 23.6147C44.5335 23.0483 44.0744 22.5893 43.5081 22.5893H29.8512V16.1519H32.1143C33.106 16.1519 34.0587 16.63 34.7275 17.4635C35.4408 18.3524 36.5029 18.8622 37.6418 18.8622C38.7805 18.8622 39.8428 18.3524 40.5561 17.4636C41.2249 16.63 42.1774 16.1519 43.1693 16.1519H48.3841C49.1989 16.1519 49.9381 16.5718 50.3133 17.2476C51.509 19.4017 53.9147 20.7398 56.5917 20.7398C59.2687 20.7398 61.6745 19.4017 62.8702 17.2476C63.2453 16.5718 63.9845 16.1519 64.7995 16.1519H68.3522V47.5733L39.9443 40.9668C39.3926 40.8384 38.8416 41.1814 38.7133 41.7331C38.585 42.2848 38.9282 42.8359 39.4797 42.9641L73.3691 50.8455V73.8466H69.1516C68.0039 73.8466 66.929 73.4264 66.125 72.6637C64.5044 71.1259 61.6362 70.2078 58.4526 70.2078C55.2689 70.2078 52.4007 71.1259 50.7803 72.6637C49.9763 73.4264 48.9014 73.8466 47.7535 73.8466H44.5334V61.3967C44.5334 60.8303 44.0743 60.3713 43.508 60.3713H23.0834C22.5171 60.3713 22.058 60.8303 22.058 61.3967V73.8466H16.6309V66.271C16.6309 65.7046 16.1718 65.2456 15.6055 65.2456C15.0392 65.2456 14.5801 65.7046 14.5801 66.271V73.8466H11.0254C10.4591 73.8466 10 74.3055 10 74.872V78.9746C10 79.541 10.4591 80 11.0254 80H59.4673C60.0337 80 60.4927 79.541 60.4927 78.9746C60.4927 78.4082 60.0337 77.9492 59.4673 77.9492H12.0508V75.8973H47.7535C49.4289 75.8973 51.0051 75.2773 52.1918 74.1513C53.4034 73.0015 55.8609 72.2586 58.4526 72.2586C61.0442 72.2586 63.5019 73.0015 64.7135 74.1513C65.9002 75.2773 67.4763 75.8973 69.1516 75.8973H77.9492V77.9492H64.527C63.9606 77.9492 63.5016 78.4082 63.5016 78.9746C63.5016 79.541 63.9606 80 64.527 80H78.9746C79.541 80 80 79.541 80 78.9746V74.872C80 74.3057 79.5409 73.8466 78.9746 73.8466V73.8466ZM32.2703 73.8466H24.1088V62.4221H32.2703V73.8466ZM42.4826 73.8466H34.321V62.4221H42.4826V73.8466Z" fill="#494949"/>
<path d="M60.9949 34.0049C60.9949 31.7287 59.1429 29.8767 56.8666 29.8767C54.5903 29.8767 52.7383 31.7287 52.7383 34.0049C52.7383 36.2812 54.5903 38.1332 56.8666 38.1332C59.1429 38.1332 60.9949 36.2812 60.9949 34.0049ZM54.7891 34.0049C54.7891 32.8594 55.7211 31.9275 56.8666 31.9275C58.0122 31.9275 58.9441 32.8594 58.9441 34.0049C58.9441 35.1505 58.0122 36.0824 56.8666 36.0824C55.7211 36.0824 54.7891 35.1505 54.7891 34.0049Z" fill="#494949"/>
<path d="M29.2637 71.7581C29.83 71.7581 30.2891 71.299 30.2891 70.7327C30.2891 70.1664 29.83 69.7073 29.2637 69.7073C28.6974 69.7073 28.2383 70.1664 28.2383 70.7327C28.2383 71.299 28.6974 71.7581 29.2637 71.7581Z" fill="#494949"/>
<path d="M37.3301 71.7581C37.8964 71.7581 38.3555 71.299 38.3555 70.7327C38.3555 70.1664 37.8964 69.7073 37.3301 69.7073C36.7638 69.7073 36.3047 70.1664 36.3047 70.7327C36.3047 71.299 36.7638 71.7581 37.3301 71.7581Z" fill="#494949"/>
</g>
<defs>
<clipPath id="clip0_4156_2554">
<rect width="90" height="90" fill="white"/>
</clipPath>
</defs>
</svg>
