<svg width="138" height="138" viewBox="0 0 138 138" fill="none" xmlns="http://www.w3.org/2000/svg">
<g clip-path="url(#clip0_4264_2587)">
<circle cx="69" cy="150.129" r="53.9062" fill="#FFE785"/>
<path d="M107.814 81.9377C106.234 81.9438 104.657 82.0946 103.105 82.3883C104.609 76.6032 105.438 70.6635 105.578 64.6877H112.126C112.698 64.6877 113.247 64.4605 113.651 64.0561C114.055 63.6518 114.283 63.1033 114.283 62.5314C114.283 61.9596 114.055 61.4111 113.651 61.0067C113.247 60.6024 112.698 60.3752 112.126 60.3752H105.61C109.869 57.198 112.808 52.5617 113.862 47.3536C114.633 47.2707 115.397 47.1352 116.15 46.9482C119.223 56.5542 119.398 66.8527 116.654 76.5578C116.577 76.8304 116.555 77.1154 116.588 77.3966C116.622 77.6779 116.71 77.9498 116.848 78.1968C116.987 78.4439 117.172 78.6613 117.395 78.8367C117.617 79.012 117.872 79.1418 118.144 79.2186C118.335 79.2732 118.532 79.3008 118.731 79.3006C119.201 79.3003 119.657 79.1466 120.032 78.8629C120.406 78.5791 120.678 78.1809 120.805 77.7287C123.798 67.1366 123.581 55.8951 120.184 45.4259C122.371 44.2834 124.288 42.685 125.804 40.7386C127.321 38.7922 128.402 36.5431 128.975 34.1431C129.548 31.7432 129.6 29.2482 129.126 26.8266C128.653 24.405 127.665 22.1132 126.23 20.1058C124.796 18.0984 122.947 16.4222 120.809 15.1903C118.671 13.9584 116.294 13.1995 113.838 12.9648C111.381 12.7301 108.903 13.0251 106.571 13.8298C104.238 14.6346 102.105 15.9303 100.316 17.6297C91.2504 10.8092 80.3053 6.94357 68.9668 6.55733C68.2638 6.50342 67.5566 6.46892 66.845 6.46892C59.9382 6.46402 53.0907 7.74359 46.6517 10.2424C42.3199 6.65696 36.9361 4.58339 31.3184 4.33665C25.7006 4.08991 20.1558 5.68349 15.5263 8.8753C15.2931 9.03599 15.0938 9.24104 14.9399 9.47874C14.786 9.71644 14.6803 9.98213 14.6291 10.2606C14.5778 10.5392 14.5819 10.825 14.6412 11.102C14.7004 11.3789 14.8136 11.6415 14.9743 11.8746C15.135 12.1078 15.34 12.3071 15.5777 12.461C15.8154 12.615 16.0811 12.7206 16.3596 12.7718C16.6381 12.8231 16.924 12.819 17.2009 12.7598C17.4779 12.7005 17.7404 12.5873 17.9736 12.4266C22.1798 9.51802 27.2838 8.2012 32.3721 8.71185C37.4604 9.2225 42.2009 11.5273 45.7452 15.2137C49.2895 18.9002 51.4062 23.7276 51.7165 28.8321C52.0268 33.9365 50.5104 38.9848 47.4388 43.0734C47.4244 40.314 46.5294 37.6313 44.8842 35.4159C43.2389 33.2006 40.9294 31.5683 38.292 30.7569C39.6597 29.1994 40.5495 27.2805 40.8547 25.2302C41.1599 23.1799 40.8675 21.0851 40.0127 19.1967C39.1578 17.3083 37.7767 15.7064 36.0347 14.5828C34.2927 13.4593 32.2638 12.8617 30.1909 12.8617C28.118 12.8617 26.0891 13.4593 24.3471 14.5828C22.6052 15.7064 21.2241 17.3083 20.3692 19.1967C19.5143 21.0851 19.222 23.1799 19.5272 25.2302C19.8323 27.2805 20.7221 29.1994 22.0899 30.7569C19.4516 31.5676 17.1412 33.1995 15.4951 35.4149C13.8491 37.6303 12.9535 40.3135 12.9388 43.0734C10.2291 39.4729 8.72162 35.1108 8.62989 30.6055C8.53817 26.1002 9.86691 21.6804 12.4277 17.9725C12.5884 17.7393 12.7016 17.4768 12.7609 17.1998C12.8201 16.9229 12.8242 16.637 12.7729 16.3585C12.7217 16.08 12.6161 15.8143 12.4621 15.5766C12.3082 15.3389 12.1089 15.1339 11.8757 14.9732C11.6426 14.8125 11.38 14.6993 11.1031 14.6401C10.8261 14.5808 10.5403 14.5767 10.2617 14.628C9.98323 14.6792 9.71754 14.7849 9.47984 14.9388C9.24214 15.0927 9.03709 15.292 8.8764 15.5252C5.36722 20.6097 3.80008 26.7851 4.46016 32.9276C5.12024 39.0702 7.96367 44.7716 12.473 48.9945C10.2642 57.7305 10.2191 66.8733 12.3415 75.6307C12.4747 76.1868 12.8235 76.6672 13.3109 76.9663C13.7984 77.2653 14.3847 77.3584 14.9408 77.2252C15.497 77.0919 15.9774 76.7432 16.2765 76.2558C16.5755 75.7683 16.6686 75.182 16.5354 74.6258C15.7587 71.365 15.298 68.0369 15.1597 64.6877H28.0972C28.2691 73.5631 30.0086 82.3382 33.2356 90.608C32.9315 90.595 32.6426 90.5627 32.345 90.5627C29.623 90.5657 26.9264 91.0867 24.3992 92.0979C22.3001 89.0928 20.5256 85.8735 19.1056 82.494C18.8849 81.9664 18.4636 81.5482 17.9345 81.3312C17.4054 81.1143 16.8117 81.1164 16.2842 81.3372C15.7566 81.5579 15.3384 81.9792 15.1214 82.5083C14.9045 83.0374 14.9066 83.6311 15.1274 84.1586C16.5929 87.6468 18.4061 90.9785 20.5396 94.1032C17.5875 96.035 15.155 98.662 13.4554 101.754C11.7558 104.845 10.8413 108.307 10.792 111.834C10.7427 115.362 11.5603 118.847 13.1729 121.985C14.7855 125.123 17.1437 127.817 20.0407 129.83C22.9376 131.844 26.2845 133.115 29.7876 133.533C33.2907 133.951 36.8428 133.502 40.1319 132.226C43.4211 130.951 46.3468 128.887 48.652 126.216C50.9573 123.546 52.5717 120.35 53.3534 116.91C63.2286 119.414 73.6054 119.123 83.3252 116.071C85.056 121.197 88.3484 125.653 92.7404 128.812C97.1324 131.972 102.403 133.677 107.814 133.688C108.098 133.688 108.377 133.67 108.655 133.651L108.995 133.632C109.278 133.618 109.556 133.549 109.812 133.429C110.068 133.308 110.298 133.139 110.489 132.929C110.68 132.72 110.827 132.475 110.923 132.208C111.019 131.942 111.061 131.659 111.048 131.376C111.012 130.809 110.757 130.277 110.336 129.894C109.916 129.511 109.363 129.307 108.795 129.323L108.364 129.349C108.18 129.362 107.999 129.375 107.814 129.375C103.142 129.373 98.5989 127.844 94.8763 125.022V120.75C94.8763 118.463 95.785 116.269 97.4025 114.651C99.02 113.034 101.214 112.125 103.501 112.125H112.126C114.414 112.125 116.608 113.034 118.225 114.651C119.843 116.269 120.751 118.463 120.751 120.75V124.985C119.42 126.014 117.973 126.882 116.439 127.573C116.179 127.686 115.944 127.849 115.747 128.053C115.55 128.257 115.395 128.498 115.292 128.762C115.082 129.295 115.093 129.89 115.322 130.414C115.551 130.939 115.979 131.352 116.511 131.562C117.044 131.771 117.639 131.76 118.164 131.531C123.614 129.155 128.08 124.974 130.81 119.691C133.54 114.409 134.367 108.347 133.152 102.527C131.937 96.7058 128.755 91.4811 124.14 87.7313C119.525 83.9816 113.76 81.9356 107.814 81.9377V81.9377ZM98.2486 83.7921C94.9475 85.1092 91.9523 87.0909 89.449 89.6139C87.1224 88.9024 84.7527 88.3202 82.3485 87.8372C83.1269 82.5134 83.6422 76.8813 83.901 71.2578C83.9146 70.9744 83.8721 70.6911 83.776 70.4241C83.68 70.1571 83.5321 69.9117 83.341 69.702C83.1499 69.4923 82.9193 69.3223 82.6624 69.2019C82.4055 69.0814 82.1273 69.0129 81.8439 69.0002C81.2763 68.9883 80.7259 69.1953 80.3067 69.5783C79.8876 69.9613 79.632 70.4909 79.5928 71.0572C79.3634 76.4178 78.8647 81.7634 78.0985 87.0739C70.6329 85.9823 63.049 85.9728 55.5808 87.0458C54.5367 79.6379 53.9886 72.1686 53.9399 64.6877H101.265C101.116 71.1618 100.101 77.5869 98.2486 83.7921V83.7921ZM67.0606 114.238C66.914 114.238 66.7674 114.238 66.6294 114.238C63.1557 113.906 58.8841 105.633 56.2794 91.3131C63.2882 90.3119 70.4043 90.3206 77.4106 91.3389C74.7175 106.051 70.3209 113.908 67.0606 114.238ZM79.8364 60.3752H53.9399C53.9885 52.8805 54.5382 45.3974 55.5851 37.976C59.3138 38.5214 63.0766 38.801 66.845 38.8127C68.3544 38.8127 69.9392 38.7523 71.634 38.638C70.7706 42.6663 71.0849 46.858 72.5394 50.7125C73.9939 54.567 76.5271 57.9214 79.8364 60.3752V60.3752ZM88.4075 38.8127C88.4075 37.9597 88.6604 37.126 89.1343 36.4168C89.6082 35.7076 90.2817 35.1548 91.0697 34.8284C91.8577 34.502 92.7248 34.4166 93.5613 34.583C94.3979 34.7494 95.1663 35.1602 95.7694 35.7633C96.3725 36.3664 96.7833 37.1348 96.9497 37.9713C97.1161 38.8079 97.0306 39.675 96.7042 40.463C96.3778 41.251 95.8251 41.9245 95.1159 42.3984C94.4067 42.8723 93.5729 43.1252 92.72 43.1252C91.5763 43.1252 90.4794 42.6708 89.6706 41.8621C88.8619 41.0533 88.4075 39.9564 88.4075 38.8127ZM88.4075 47.4377H97.0325C98.1763 47.4377 99.2732 47.892 100.082 48.7008C100.891 49.5095 101.345 50.6064 101.345 51.7502V58.0421C98.7274 59.57 95.7509 60.3751 92.72 60.3751C89.6891 60.3751 86.7126 59.57 84.095 58.0421V51.7502C84.095 50.6064 84.5494 49.5095 85.3581 48.7008C86.1669 47.892 87.2638 47.4377 88.4075 47.4377ZM105.658 54.4972V51.7502C105.652 49.9642 105.091 48.2243 104.052 46.7713C103.014 45.3183 101.549 44.2242 99.8615 43.6405C100.74 42.3435 101.248 40.8318 101.333 39.2676C101.417 37.7034 101.073 36.1459 100.339 34.7621C99.6051 33.3783 98.508 32.2206 97.1656 31.4132C95.8233 30.6058 94.2865 30.1792 92.72 30.1792C91.1536 30.1792 89.6167 30.6058 88.2744 31.4132C86.9321 32.2206 85.835 33.3783 85.1008 34.7621C84.3667 36.1459 84.0233 37.7034 84.1075 39.2676C84.1916 40.8318 84.7002 42.3435 85.5785 43.6405C83.8906 44.2242 82.4261 45.3183 81.3876 46.7713C80.3491 48.2243 79.7882 49.9642 79.7825 51.7502V54.4972C77.5867 52.0075 76.156 48.9369 75.662 45.6542C75.1681 42.3714 75.6319 39.0158 76.9977 35.9901C78.3636 32.9644 80.5735 30.3971 83.3623 28.5962C86.1511 26.7953 89.4003 25.8374 92.72 25.8374C96.0397 25.8374 99.2889 26.7953 102.078 28.5962C104.867 30.3971 107.076 32.9644 108.442 35.9901C109.808 39.0158 110.272 42.3714 109.778 45.6542C109.284 48.9369 107.853 52.0075 105.658 54.4972V54.4972ZM88.2415 22.037C85.2961 22.6682 82.5167 23.9128 80.0844 25.6897C79.0188 20.9998 77.2847 16.4873 74.9353 12.2908C80.1514 14.3113 84.7416 17.6734 88.2415 22.037V22.037ZM118.595 41.4002C118.057 41.7141 117.496 41.9879 116.917 42.2196C116.892 42.2196 116.864 42.2196 116.838 42.2325C116.812 42.2454 116.788 42.267 116.76 42.2778C115.959 42.5839 115.129 42.8078 114.283 42.9462C114.264 40.812 113.929 38.6923 113.288 36.6564H114.283C115.426 36.6564 116.523 37.1108 117.332 37.9195C118.141 38.7283 118.595 39.8252 118.595 40.9689V41.4002ZM112.126 32.3439C111.844 32.3422 111.563 32.3023 111.292 32.2253C110.607 31.0548 109.813 29.9517 108.92 28.9306C108.955 28.2985 109.175 27.6906 109.552 27.1822C109.929 26.6738 110.447 26.2874 111.042 26.0707C111.637 25.854 112.282 25.8166 112.898 25.9631C113.514 26.1097 114.073 26.4338 114.507 26.8952C114.94 27.3566 115.229 27.935 115.336 28.5589C115.444 29.1827 115.367 29.8244 115.113 30.4045C114.86 30.9846 114.442 31.4776 113.911 31.8223C113.38 32.1671 112.759 32.3484 112.126 32.3439V32.3439ZM112.126 17.2502C114.543 17.2474 116.911 17.9221 118.964 19.1978C121.016 20.4735 122.669 22.299 123.736 24.4671C124.803 26.6352 125.24 29.059 124.999 31.4633C124.758 33.8675 123.847 36.156 122.371 38.0688C121.646 36.0639 120.204 34.399 118.323 33.3962C118.917 32.5474 119.33 31.5851 119.535 30.5696C119.74 29.5541 119.733 28.5072 119.515 27.4944C119.297 26.4817 118.872 25.5248 118.267 24.6839C117.662 23.8429 116.89 23.1358 115.999 22.607C115.108 22.0782 114.117 21.7389 113.089 21.6105C112.061 21.4821 111.018 21.5672 110.024 21.8607C109.031 22.1541 108.108 22.6494 107.315 23.3157C106.522 23.982 105.875 24.8049 105.414 25.7329C104.105 24.7671 102.691 23.9526 101.198 23.3049C102.355 21.4503 103.966 19.921 105.878 18.8616C107.79 17.8023 109.94 17.2476 112.126 17.2502V17.2502ZM97.5824 20.9654C97.3667 21.2975 97.1835 21.6425 96.9959 21.9918C95.8038 21.7582 94.5942 21.6262 93.3798 21.5972C91.6638 19.2534 89.7241 17.082 87.5881 15.1133C91.1279 16.6842 94.4802 18.6472 97.5824 20.9654V20.9654ZM76.4511 29.0233C75.1001 30.5806 73.979 32.3233 73.1219 34.1983C70.806 34.3988 68.7856 34.5002 66.845 34.5002C63.3092 34.4898 59.7785 34.2297 56.2794 33.7218C58.9424 19.1218 63.3368 10.7814 66.845 10.7814C69.5921 10.7814 73.579 16.448 76.4446 29.0233H76.4511ZM50.0263 13.5975C53.1084 12.5327 56.2854 11.7652 59.5138 11.3054C57.3979 14.6051 55.7819 18.1997 54.7183 21.9724C53.6916 18.9119 52.1001 16.0712 50.0263 13.5975ZM50.3087 46.4307C49.9055 51.002 49.6619 55.7026 49.6166 60.3752H32.4054C32.4456 58.896 32.5297 57.4168 32.6577 55.9376C36.0836 55.6076 39.409 54.5966 42.439 52.9641C45.4689 51.3315 48.1423 49.1103 50.3023 46.4307H50.3087ZM30.1888 17.2502C31.4682 17.2502 32.7188 17.6296 33.7826 18.3404C34.8464 19.0511 35.6755 20.0614 36.1651 21.2434C36.6547 22.4254 36.7828 23.7261 36.5332 24.9809C36.2836 26.2357 35.6675 27.3883 34.7629 28.293C33.8582 29.1977 32.7056 29.8138 31.4508 30.0634C30.1959 30.313 28.8953 30.1849 27.7133 29.6953C26.5313 29.2057 25.521 28.3765 24.8102 27.3128C24.0994 26.249 23.72 24.9983 23.72 23.7189C23.72 22.0033 24.4015 20.358 25.6147 19.1448C26.8278 17.9317 28.4732 17.2502 30.1888 17.2502V17.2502ZM25.8763 34.5002H34.5013C36.7888 34.5002 38.9826 35.4089 40.6001 37.0264C42.2176 38.6439 43.1263 40.8377 43.1263 43.1252V47.3967C39.4046 50.2211 34.8609 51.7501 30.1888 51.7501C25.5167 51.7501 20.973 50.2211 17.2513 47.3967V43.1252C17.2513 40.8377 18.16 38.6439 19.7775 37.0264C21.395 35.4089 23.5888 34.5002 25.8763 34.5002V34.5002ZM28.3301 55.9678C28.2122 57.4384 28.1331 58.9075 28.0929 60.3752H15.1683C15.2809 57.5347 15.6278 54.7083 16.2055 51.9248C19.8411 54.2741 24.0121 55.6649 28.3301 55.9678V55.9678ZM32.4011 64.6877H49.6101C49.6859 72.4152 50.2737 80.1292 51.3696 87.779C47.0462 88.6354 42.8112 89.8899 38.7189 91.5265C38.5744 91.4812 38.4235 91.4532 38.2876 91.4122C34.5814 82.9797 32.5808 73.897 32.4011 64.6877V64.6877ZM23.72 127.042V120.75C23.72 119.606 24.1744 118.51 24.9831 117.701C25.7919 116.892 26.8888 116.438 28.0325 116.438H36.6575C37.8013 116.438 38.8982 116.892 39.7069 117.701C40.5157 118.51 40.97 119.606 40.97 120.75V127.042C38.3524 128.57 35.3759 129.375 32.345 129.375C29.3141 129.375 26.3376 128.57 23.72 127.042V127.042ZM28.0325 107.813C28.0325 106.96 28.2854 106.126 28.7593 105.417C29.2332 104.708 29.9067 104.155 30.6947 103.828C31.4827 103.502 32.3498 103.417 33.1863 103.583C34.0229 103.749 34.7913 104.16 35.3944 104.763C35.9975 105.366 36.4083 106.135 36.5747 106.971C36.7411 107.808 36.6557 108.675 36.3293 109.463C36.0028 110.251 35.4501 110.925 34.7409 111.398C34.0317 111.872 33.198 112.125 32.345 112.125C31.2013 112.125 30.1044 111.671 29.2956 110.862C28.4869 110.053 28.0325 108.956 28.0325 107.813ZM45.2825 123.497V120.75C45.2768 118.964 44.7159 117.224 43.6774 115.771C42.639 114.318 41.1744 113.224 39.4865 112.641C40.3649 111.344 40.8734 109.832 40.9576 108.268C41.0417 106.703 40.6983 105.146 39.9642 103.762C39.2301 102.378 38.133 101.221 36.7906 100.413C35.4483 99.6058 33.9115 99.1792 32.345 99.1792C30.7786 99.1792 29.2417 99.6058 27.8994 100.413C26.5571 101.221 25.46 102.378 24.7259 103.762C23.9917 105.146 23.6483 106.703 23.7325 108.268C23.8166 109.832 24.3252 111.344 25.2035 112.641C23.5157 113.224 22.0511 114.318 21.0126 115.771C19.9741 117.224 19.4132 118.964 19.4075 120.75V123.497C17.2117 121.007 15.781 117.937 15.2871 114.654C14.7931 111.371 15.2569 108.016 16.6227 104.99C17.9886 101.964 20.1985 99.3971 22.9873 97.5962C25.7761 95.7954 29.0253 94.8374 32.345 94.8374C35.6647 94.8374 38.9139 95.7954 41.7027 97.5962C44.4915 99.3971 46.7015 101.964 48.0673 104.99C49.4332 108.016 49.8969 111.371 49.403 114.654C48.909 117.937 47.4783 121.007 45.2825 123.497V123.497ZM44.185 94.1248C46.7693 93.2742 49.4016 92.5773 52.0682 92.0376C53.7307 101.219 56.2147 109.001 59.4728 113.723C57.5902 113.45 55.7243 113.072 53.8838 112.591C53.8838 112.434 53.9075 112.283 53.9075 112.125C53.9053 108.554 53.0156 105.04 51.3185 101.898C49.6214 98.7557 47.1701 96.0847 44.185 94.1248ZM74.2949 113.697C77.5724 108.953 80.024 101.148 81.6541 92.0872C83.2742 92.4163 84.8727 92.8009 86.4496 93.2407C82.6826 98.6738 81.1905 105.365 82.2924 111.884C79.6788 112.699 77.0045 113.305 74.2949 113.697V113.697ZM107.814 107.813C106.534 107.813 105.284 107.433 104.22 106.723C103.156 106.012 102.327 105.001 101.837 103.819C101.348 102.637 101.22 101.337 101.469 100.082C101.719 98.8271 102.335 97.6745 103.24 96.7698C104.144 95.8652 105.297 95.2491 106.552 94.9995C107.807 94.7499 109.107 94.878 110.289 95.3676C111.471 95.8572 112.482 96.6863 113.192 97.7501C113.903 98.8139 114.283 100.065 114.283 101.344C114.283 103.06 113.601 104.705 112.388 105.918C111.175 107.131 109.529 107.813 107.814 107.813V107.813ZM125.064 120.657C125.041 117.905 124.142 115.232 122.498 113.025C120.854 110.818 118.55 109.192 115.919 108.382C117.287 106.824 118.177 104.906 118.482 102.855C118.787 100.805 118.495 98.7101 117.64 96.8217C116.785 94.9333 115.404 93.3314 113.662 92.2078C111.92 91.0843 109.891 90.4867 107.818 90.4867C105.745 90.4867 103.716 91.0843 101.974 92.2078C100.232 93.3314 98.8512 94.9333 97.9963 96.8217C97.1415 98.7101 96.8491 100.805 97.1543 102.855C97.4595 104.906 98.3493 106.824 99.717 108.382C97.0784 109.192 94.7674 110.824 93.121 113.039C91.4745 115.255 90.5786 117.938 90.5638 120.698C88.1508 117.496 86.6777 113.685 86.3097 109.692C85.9417 105.7 86.6933 101.684 88.4803 98.0942C90.2672 94.5048 93.0189 91.4843 96.4266 89.3714C99.8342 87.2585 103.763 86.1368 107.773 86.132C111.782 86.1272 115.714 87.2397 119.127 89.3445C122.539 91.4493 125.298 94.4632 127.094 98.0483C128.889 101.633 129.65 105.648 129.292 109.641C128.933 113.635 127.469 117.45 125.064 120.657V120.657Z" fill="#494949"/>
</g>
<defs>
<clipPath id="clip0_4264_2587">
<rect width="138" height="138" fill="white"/>
</clipPath>
</defs>
</svg>
