<svg width="142" height="142" viewBox="0 0 142 142" fill="none" xmlns="http://www.w3.org/2000/svg">
<g clip-path="url(#clip0_3494_68)">
<circle cx="71" cy="154.48" r="55.4688" fill="#FFE785"/>
<path d="M140.573 97.2783L135.533 95.3385C134.71 91.8365 133.337 88.5233 131.438 85.4598L133.632 80.5198C134.005 79.6811 133.822 78.6996 133.173 78.0503L127.976 72.8531C127.327 72.2042 126.345 72.0225 125.506 72.3944L120.565 74.5893C117.983 72.9896 115.223 71.7679 112.326 70.9292V59.3055L114.497 60.8827C119.681 64.6402 126.955 63.4778 130.712 58.294C134.469 53.1096 133.308 45.8352 128.125 42.0802L73.4543 2.3593C69.3555 -0.736687 63.8086 -0.791046 59.6429 2.22812L4.79402 42.0783C-0.390372 45.8352 -1.55189 53.109 2.20473 58.294C4.47313 61.4244 8.02341 63.0876 11.6222 63.0876C13.9835 63.0876 16.3662 62.3712 18.4202 60.8827C18.4207 60.8822 18.4216 60.8816 18.4224 60.8811L20.5907 59.3057V106.624C20.5907 115.253 27.6111 122.273 36.2401 122.273H73.8182L72.3724 125.528C71.9997 126.367 72.1822 127.349 72.8311 127.998L78.0286 133.195C78.6778 133.844 79.6594 134.027 80.498 133.654L85.4398 131.459C88.5047 133.358 91.8167 134.731 95.3157 135.553L97.2565 140.595C97.5863 141.452 98.4095 142.017 99.3272 142.017H106.677C107.595 142.017 108.418 141.452 108.748 140.595L110.688 135.555C114.19 134.732 117.503 133.359 120.567 131.46L125.506 133.654C126.345 134.026 127.327 133.844 127.976 133.195L133.173 127.997C133.822 127.348 134.005 126.367 133.632 125.528L131.437 120.587C133.336 117.522 134.709 114.21 135.532 110.711L140.574 108.77C141.43 108.441 141.995 107.617 141.995 106.699V99.3492C141.995 98.4312 141.43 97.608 140.573 97.2783V97.2783ZM15.8143 57.2914C12.6112 59.61 8.11853 58.8922 5.798 55.6903C3.47691 52.487 4.19468 47.9929 7.39994 45.6701L62.2491 5.81972C64.7857 3.98176 68.2988 4.01865 70.7918 5.90902C70.804 5.91818 70.816 5.92733 70.8285 5.9362L125.519 45.6715C128.722 47.9926 129.44 52.487 127.119 55.69C124.798 58.8928 120.304 59.6103 117.103 57.2911L67.7624 21.4436C67.3736 21.161 66.916 21.0198 66.4583 21.0198C66.0007 21.0198 65.5431 21.1613 65.1543 21.4436L15.8143 57.2914ZM25.0282 106.624V56.0816L66.4583 25.9809L107.888 56.0816V64.395C107.535 64.1645 107.118 64.0314 106.677 64.0314H99.3272C98.4095 64.0314 97.5863 64.5966 97.2565 65.4531L95.3157 70.4952C91.8164 71.3175 88.5038 72.6906 85.4398 74.5896L81.4052 72.7977C80.4243 69.1406 77.0692 66.464 73.159 66.464H59.7577C55.0506 66.464 51.2214 70.2933 51.2214 75.0001V117.836H36.2401C30.0578 117.836 25.0282 112.806 25.0282 106.624V106.624ZM72.3724 80.5203L74.5668 85.4612C72.6681 88.5253 71.2947 91.8379 70.4723 95.338L65.4308 97.2785C64.5744 97.608 64.0091 98.4312 64.0091 99.3492V106.699C64.0091 107.617 64.5744 108.44 65.4308 108.77L70.4712 110.71C71.0534 113.187 71.9167 115.569 73.0414 117.836H55.6586V74.9998C55.6586 72.74 57.4974 70.9012 59.7574 70.9012H73.1587C74.9869 70.9012 76.5589 72.1215 77.0751 73.8067L72.8309 78.0508C72.1822 78.6998 72 79.6814 72.3724 80.5203V80.5203ZM137.558 105.176L132.819 107C132.107 107.274 131.586 107.895 131.439 108.643C130.698 112.414 129.231 115.951 127.081 119.155C126.656 119.788 126.586 120.595 126.895 121.292L128.958 125.937L125.915 128.98L121.272 126.917C120.574 126.608 119.767 126.678 119.134 127.104C115.932 129.254 112.395 130.721 108.62 131.462C107.872 131.609 107.251 132.13 106.977 132.842L105.154 137.58H100.851L99.0263 132.841C98.7523 132.129 98.1318 131.608 97.3833 131.461C93.6125 130.72 90.0758 129.254 86.8711 127.102C86.2379 126.677 85.4306 126.608 84.7339 126.917L80.089 128.98L77.0459 125.937L79.1083 121.294C79.4181 120.596 79.3479 119.789 78.9225 119.156C76.7719 115.954 75.3056 112.417 74.564 108.642C74.417 107.893 73.8956 107.273 73.1837 106.999L68.4461 105.175V100.872L73.1848 99.0483C73.8967 98.7743 74.4178 98.1535 74.5648 97.405C75.3056 93.6326 76.7719 90.0959 78.9227 86.8928C79.3479 86.2597 79.4181 85.4526 79.1085 84.7554L77.0457 80.111L80.0884 77.0679L84.7334 79.1308C85.4303 79.4401 86.2374 79.3702 86.8706 78.945C90.0744 76.7942 93.6111 75.3279 97.3827 74.5871C98.1313 74.4404 98.7517 73.919 99.0257 73.207L100.85 68.4681H105.153L106.978 73.207C107.252 73.9187 107.872 74.4401 108.621 74.5871C112.392 75.3279 115.929 76.7942 119.133 78.945C119.766 79.3699 120.573 79.4398 121.27 79.1308L125.915 77.0679L128.958 80.1107L126.895 84.754C126.586 85.4512 126.656 86.2583 127.081 86.8915C129.232 90.0937 130.698 93.6312 131.44 97.4058C131.587 98.1544 132.108 98.7751 132.82 99.0488L137.558 100.872V105.176ZM103.002 83.9319C92.4749 83.9319 83.9102 92.4966 83.9102 103.024C83.9102 113.551 92.4749 122.116 103.002 122.116C113.53 122.116 122.094 113.551 122.094 103.024C122.094 92.4966 113.53 83.9319 103.002 83.9319ZM103.002 117.679C94.9219 117.679 88.3477 111.105 88.3477 103.024C88.3477 94.9433 94.9219 88.3694 103.002 88.3694C111.083 88.3694 117.657 94.9433 117.657 103.024C117.657 111.105 111.083 117.679 103.002 117.679Z" fill="#494949"/>
</g>
<defs>
<clipPath id="clip0_3494_68">
<rect width="142" height="142" fill="white"/>
</clipPath>
</defs>
</svg>
