<svg width="45" height="45" viewBox="0 0 45 45" fill="none" xmlns="http://www.w3.org/2000/svg">
<g clip-path="url(#clip0_3822_323)">
<path d="M40.0781 48.9551C40.0781 58.6632 32.2081 66.5332 22.5 66.5332C12.7919 66.5332 4.92188 58.6632 4.92188 48.9551C4.92188 39.2469 12.7919 31.377 22.5 31.377C32.2081 31.377 40.0781 39.2469 40.0781 48.9551Z" fill="#FFE785"/>
<path d="M44.2992 36.7463C43.9354 36.7463 43.6406 37.0412 43.6406 37.4049V44.2976C43.6406 45.1469 44.9577 45.1469 44.9577 44.2976V37.4049C44.9577 37.0412 44.6629 36.7463 44.2992 36.7463Z" fill="#494949"/>
<path d="M44.2976 21.8946H39.1264V19.5201H40.7078C41.6705 19.5201 42.4537 18.7369 42.4537 17.7743V1.74591C42.4537 0.78322 41.6705 0 40.7078 0H16.1393C15.1766 0 14.3935 0.78322 14.3935 1.74591V4.11041C14.3935 4.95975 15.7106 4.95975 15.7106 4.11041V1.74591C15.7106 1.50945 15.9029 1.31707 16.1393 1.31707H40.7079C40.9443 1.31707 41.1367 1.50945 41.1367 1.74591V14.5153H39.1265V7.49906C39.1265 7.28175 39.0193 7.07848 38.84 6.95573C38.6608 6.83298 38.4325 6.80655 38.2298 6.88504C38.0575 6.95186 34.4243 8.43559 33.6511 14.5152H15.7106V7.53471C15.7106 6.68538 14.3935 6.68538 14.3935 7.53471V17.7743C14.3935 18.7369 15.1766 19.5201 16.1393 19.5201H24.9853V21.8946H10.0331C11.4917 20.4376 11.6341 18.1303 11.6341 16.1917C11.6341 15.8281 11.3394 15.5332 10.9756 15.5332H7.41951V14.29C9.5321 14.739 11.835 13.0066 11.8069 10.809C11.8031 10.5146 11.7666 10.2156 11.4946 10.036C10.2438 9.21038 8.52102 9.5544 7.41951 10.456V9.26807C9.30143 7.96917 9.44122 4.9104 7.63279 3.48269C7.4506 3.33887 7.249 3.20198 7.03273 3.11382C6.10455 2.73486 5.08425 4.38814 4.86307 5.0263C4.34055 6.53426 4.8132 8.26859 6.10235 9.22548V10.4487C5.25705 9.76092 4.15308 9.42173 3.07458 9.63773C2.62888 9.72702 1.84785 9.92871 1.75065 10.469C1.33288 12.7937 3.96641 14.7401 6.10244 14.2919V15.5332H2.28293C1.91915 15.5332 1.62439 15.8281 1.62439 16.1917C1.62439 18.1276 1.7294 20.4377 3.18784 21.8946H0.658537C0.294761 21.8946 0 22.1894 0 22.5531V44.2976C0 45.1469 1.31707 45.1469 1.31707 44.2976V41.2244H13.2146V44.2976C13.2146 45.1469 14.5317 45.1469 14.5317 44.2976V27.5268H37.8189C37.8223 27.7563 37.8443 28.9921 37.847 29.3625H26.702C24.0985 29.3625 22.1695 30.0402 20.9685 31.3766C19.5266 32.9812 19.7164 34.9262 19.7253 35.0082C19.7611 35.3428 20.0435 35.5965 20.38 35.5965H28.8878V36.7819H26.2976C25.4482 36.7819 25.4482 38.099 26.2976 38.099H28.8878V43.639H20.4585C19.6092 43.639 19.6092 44.9561 20.4585 44.9561H29.3115C29.3845 44.984 29.4635 45 29.5463 45C29.6292 45 29.7082 44.984 29.7812 44.9561H38.6341C39.4835 44.9561 39.4835 43.639 38.6341 43.639H30.2049V35.5966H34.6044C36.1163 35.5966 37.2091 35.2321 37.9456 34.4824C39.2362 33.1684 39.1969 30.9683 39.1471 28.1826C39.1432 27.9672 39.1395 27.748 39.1361 27.5267H43.639V33.7171C43.639 34.5664 44.9561 34.5664 44.9561 33.7171V22.5531C44.9561 22.1894 44.6613 21.8946 44.2976 21.8946ZM8.51936 11.2826C9.36685 10.7449 10.1041 10.8716 10.488 11.0071C10.3721 12.3722 8.71253 13.3656 7.44401 12.9356C7.49722 12.5132 7.71164 11.795 8.51936 11.2826ZM4.14211 12.6524C3.58261 12.2974 3.10671 11.6861 3.04516 11.0068C4.36399 10.5432 5.91489 11.5703 6.08672 12.9356C5.44706 13.1525 4.70283 13.0081 4.14211 12.6524ZM6.79496 4.49289C7.89779 5.33178 7.84835 7.24636 6.79109 8.09763C6.4649 7.82939 5.97284 7.26515 5.97284 6.30281C5.97275 5.2992 6.47482 4.74454 6.79496 4.49289ZM2.95077 16.8503H10.3072C10.1956 20.4077 9.1339 21.8113 6.62918 21.8113C4.09013 21.8113 3.05754 20.4529 2.95077 16.8503ZM37.006 33.5595C36.53 34.0441 35.7445 34.2796 34.6044 34.2796H21.0524C21.1133 33.7538 21.3163 32.9602 21.9482 32.257C22.8888 31.2102 24.4882 30.6796 26.7021 30.6796H37.8301C37.7757 31.9702 37.5806 32.9745 37.006 33.5595ZM41.1366 15.8324V17.7743C41.1366 18.0108 40.9443 18.2031 40.7078 18.2031H39.1264V15.8324H41.1366ZM36.7794 9.77778C37.138 9.30407 37.4985 8.95153 37.8093 8.69584V25.1911C37.4995 24.9257 37.1416 24.5637 36.7856 24.0829C35.5023 22.3497 34.8239 19.8639 34.8239 16.8941C34.8239 13.9287 35.5002 11.4678 36.7794 9.77778ZM33.684 19.5202C33.8097 20.4066 33.9959 21.1952 34.2229 21.8947H31.8618V19.5202H33.684ZM15.7106 17.7743V15.8323H33.5344C33.4932 16.6218 33.4979 17.4141 33.5492 18.203H16.1393C15.9029 18.2031 15.7106 18.0107 15.7106 17.7743ZM26.3024 19.5202H30.5448V21.8947H26.3024V19.5202ZM34.7401 23.2117C35.4263 24.678 36.2781 25.6252 36.9673 26.2098H1.31707V23.2117H34.7401ZM1.31707 39.9073V34.3756H13.2146V39.9073H1.31707ZM13.2146 33.0585H1.31707V27.5268H13.2146V33.0585ZM39.1264 26.2098V23.2117H43.639V26.2098H39.1264Z" fill="#494949"/>
<path d="M4.78544 30.9511H9.79032C10.6397 30.9511 10.6397 29.634 9.79032 29.634H4.78544C3.9361 29.634 3.9361 30.9511 4.78544 30.9511Z" fill="#494949"/>
<path d="M9.79032 36.4829H4.78544C3.9361 36.4829 3.9361 37.8 4.78544 37.8H9.79032C10.6397 37.8 10.6397 36.4829 9.79032 36.4829Z" fill="#494949"/>
</g>
<defs>
<clipPath id="clip0_3822_323">
<rect width="45" height="45" fill="white"/>
</clipPath>
</defs>
</svg>
