<svg width="121" height="100" viewBox="0 0 121 100" fill="none" xmlns="http://www.w3.org/2000/svg">
<path d="M77.3661 12.5H44.3208C41.7878 12.5 39.7344 14.8195 39.7344 17.6809V34.8191C39.7344 37.6805 41.7878 40 44.3208 40H77.3661C79.8992 40 81.9526 37.6805 81.9526 34.8191V17.6809C81.9526 14.8195 79.8992 12.5 77.3661 12.5Z" fill="#FFDA66"/>
<path d="M74.4584 87.5C74.4935 87.1481 74.5052 86.7903 74.5052 86.4264C74.5052 78.7386 68.3865 72.5 60.8463 72.5C53.3062 72.5 47.1875 78.7386 47.1875 86.4264C47.1875 86.7903 47.1992 87.1481 47.2343 87.5H74.4584Z" fill="#FFDA66"/>
<path d="M74.4286 86.7475C74.4286 87.1565 74.4078 87.576 74.3765 87.985H46.0833C46.0521 87.576 46.0312 87.1565 46.0312 86.7475C46.0312 78.851 52.3858 72.4541 60.2299 72.4541C68.0741 72.4541 74.4286 78.851 74.4286 86.7475Z" stroke="#494949" stroke-width="1.5" stroke-miterlimit="10" stroke-linecap="round"/>
<path d="M46.0312 64.4395H74.4286" stroke="#494949" stroke-width="1.5" stroke-miterlimit="10" stroke-linecap="round"/>
<path d="M99.6997 46.6331H20.4455C18.754 46.6331 17.3828 48.0111 17.3828 49.7109C17.3828 51.4108 18.754 52.7888 20.4455 52.7888H99.6997C101.391 52.7888 102.762 51.4108 102.762 49.7109C102.762 48.0111 101.391 46.6331 99.6997 46.6331Z" stroke="#494949" stroke-width="1.5" stroke-miterlimit="10" stroke-linecap="round"/>
<path d="M64.3781 46.6434H55.6484L57.1173 37.2158H62.9197L64.3781 46.6434Z" stroke="#494949" stroke-width="1.5" stroke-miterlimit="10" stroke-linecap="round"/>
<path d="M63.4701 40.5206H78.2938C80.0231 40.5206 81.419 39.1049 81.419 37.3746V15.646C81.419 13.9157 80.0231 12.5 78.2938 12.5H41.8127C40.0834 12.5 38.6875 13.9157 38.6875 15.646V37.3746C38.6875 39.1049 40.0834 40.5206 41.8127 40.5206H56.6468" stroke="#494949" stroke-width="1.5" stroke-miterlimit="10" stroke-linecap="round"/>
<path d="M60.9554 52.8013H34.6832C29.8183 52.8013 25.5993 56.199 24.5264 60.9809L18.2656 88.8757" stroke="#494949" stroke-width="1.5" stroke-miterlimit="10" stroke-linecap="round"/>
<path d="M59.1641 52.8013H85.4363C90.3011 52.8013 94.5201 56.199 95.5931 60.9809L101.854 88.8757" stroke="#494949" stroke-width="1.5" stroke-miterlimit="10" stroke-linecap="round"/>
</svg>
