<?xml version="1.0" encoding="UTF-8"?><svg id="a" xmlns="http://www.w3.org/2000/svg" viewBox="0 0 92.05 75.57"><defs><style>.b{fill:none;stroke:#494949;stroke-linecap:round;stroke-miterlimit:10;stroke-width:2.75px;}.c{fill:#ffda66;}</style></defs><rect class="c" y="11.24" width="92.05" height="53.08" rx="10" ry="10"/><g><path class="b" d="M59.78,72.18c0,.39-.02,.79-.05,1.18h-27.16c-.03-.39-.05-.79-.05-1.18,0-7.53,6.1-13.63,13.63-13.63s13.63,6.1,13.63,13.63Z"/><line class="b" x1="32.52" y1="50.91" x2="59.78" y2="50.91"/><rect class="b" x="5.05" y="33.93" width="81.96" height="5.87" rx="2.94" ry="2.94"/><polygon class="b" points="50.21 33.94 41.83 33.94 43.24 24.95 48.81 24.95 50.21 33.94"/><path class="b" d="M49.3,28.1h14.23c1.66,0,3-1.35,3-3V4.38c0-1.65-1.34-3-3-3H28.51c-1.66,0-3,1.35-3,3V25.1c0,1.65,1.34,3,3,3h14.24"/><path class="b" d="M46.84,39.81H21.62c-4.67,0-8.72,3.24-9.75,7.8l-6.01,26.6"/><path class="b" d="M45.21,39.81h25.22c4.67,0,8.72,3.24,9.75,7.8l6.01,26.6"/></g></svg>