<svg width="57" height="50" viewBox="0 0 57 50" fill="none" xmlns="http://www.w3.org/2000/svg">
<path fill-rule="evenodd" clip-rule="evenodd" d="M14.719 1.31567C14.3853 1.31567 14.2342 1.57706 14.2405 1.86965C14.2185 2.6597 13.8345 3.42765 13.2554 4.00372C12.6605 4.59856 11.864 4.98897 11.0488 4.98897C10.7844 4.98897 10.5703 5.20306 10.5703 5.46744C10.5703 5.73183 10.7844 5.94902 11.0488 5.94902C11.864 5.94902 12.6604 6.33611 13.2554 6.93106C13.8345 7.51024 14.2185 8.27508 14.2405 9.06512C14.2342 9.35794 14.3853 9.62232 14.719 9.62232C15.0525 9.62232 15.2037 9.35794 15.1974 9.06512C15.2194 8.27519 15.6035 7.51024 16.1827 6.93106C16.7776 6.33622 17.5739 5.94902 18.3892 5.94902C18.6535 5.94902 18.8676 5.73183 18.8676 5.46744C18.8676 5.20306 18.6537 4.98897 18.3892 4.98897C17.5739 4.98897 16.7776 4.59856 16.1827 4.00372C15.6035 3.42765 15.2195 2.6597 15.1974 1.86965C15.2038 1.57706 15.0526 1.31567 14.719 1.31567ZM30.3469 33.7581C30.0132 33.7581 29.8622 34.0225 29.8684 34.3153C29.8464 35.1053 29.4625 35.8702 28.8864 36.4494C28.2883 37.0443 27.4952 37.4314 26.6799 37.4314C26.4124 37.4314 26.1984 37.6487 26.1984 37.9131C26.1984 38.1775 26.4124 38.3916 26.6799 38.3916C27.4952 38.3916 28.2883 38.7786 28.8864 39.3737C29.4625 39.9529 29.8464 40.721 29.8684 41.511C29.8621 41.8005 30.0132 42.0649 30.3469 42.0649C30.6806 42.0649 30.8316 41.8005 30.8285 41.511C30.8505 40.721 31.2314 39.9529 31.8106 39.3737C32.4055 38.7788 33.2018 38.3916 34.0172 38.3916C34.2816 38.3916 34.4987 38.1775 34.4987 37.9131C34.4987 37.6487 34.2816 37.4314 34.0172 37.4314C33.2018 37.4314 32.4055 37.0443 31.8106 36.4494C31.2314 35.8702 30.8505 35.1055 30.8285 34.3153C30.8316 34.0225 30.6806 33.7581 30.3469 33.7581Z" fill="#FFD064"/>
<path fill-rule="evenodd" clip-rule="evenodd" d="M52.6351 35.3386H39.7849C39.3339 35.3386 38.9609 35.4831 38.9609 35.6578V43.1745C38.9609 43.3504 39.3339 43.4938 39.7849 43.4938H52.6351C53.0891 43.4938 53.4589 43.3505 53.4589 43.1745V35.6578C53.4589 35.4831 53.0891 35.3386 52.6351 35.3386Z" fill="#FFD064"/>
<path fill-rule="evenodd" clip-rule="evenodd" d="M10.117 31.9575H19.3206C20.5073 31.9575 21.4768 30.9881 21.4768 29.8014V16.7859C21.4768 15.5994 20.5073 14.6299 19.3206 14.6299H10.117C8.93031 14.6299 7.96094 15.5993 7.96094 16.7859V29.8014C7.96094 30.9881 8.93042 31.9575 10.117 31.9575Z" fill="#FFD064"/>
<path fill-rule="evenodd" clip-rule="evenodd" d="M10.117 31.9575H19.3206C20.5073 31.9575 21.4768 30.9881 21.4768 29.8014V16.7859C21.4768 15.5994 20.5073 14.6299 19.3206 14.6299H18.7824V27.107C18.7824 28.2904 17.8129 29.263 16.6262 29.263H7.96094V29.8014C7.96094 30.9881 8.93042 31.9575 10.117 31.9575ZM9.61976 35.7283H19.8181C20.7308 35.7283 21.4769 36.4743 21.4769 37.3871V38.6399C21.4769 39.1151 21.0897 39.5024 20.6143 39.5024H8.82338C8.34813 39.5024 7.96094 39.1152 7.96094 38.6399V37.3871C7.96094 36.4743 8.7069 35.7283 9.61976 35.7283Z" fill="#FFD064"/>
<path fill-rule="evenodd" clip-rule="evenodd" d="M26.9406 6.54712H46.0183C46.4935 6.54712 46.8807 6.9342 46.8807 7.40956V18.7252C46.8807 19.2005 46.4936 19.5877 46.0183 19.5877H26.9406C26.4653 19.5877 26.0781 19.2006 26.0781 18.7252V7.40956C26.0781 6.93431 26.4652 6.54712 26.9406 6.54712Z" fill="white"/>
<path fill-rule="evenodd" clip-rule="evenodd" d="M44.1863 6.54712H46.0183C46.4935 6.54712 46.8807 6.9342 46.8807 7.40956V18.7252C46.8807 19.2005 46.4936 19.5877 46.0183 19.5877H26.9406C26.4653 19.5877 26.0781 19.2006 26.0781 18.7252V16.8933H42.5684C43.4593 16.8933 44.1863 16.1663 44.1863 15.2755V6.54712Z" fill="#FFD064"/>
<path d="M53.8576 43.3493H38.6797V41.7314H53.8575V43.3493H53.8576ZM38.6797 35.1057H53.8575V36.7236H38.6797V35.1057Z" fill="#FFD064"/>
<path d="M25.7003 37.079C26.6667 37.079 27.6141 36.6162 28.3254 35.9049C29.0367 35.1935 29.5027 34.2462 29.5027 33.2767C29.5026 33.1675 29.524 33.0594 29.5657 32.9586C29.6074 32.8577 29.6686 32.7661 29.7458 32.6889C29.823 32.6117 29.9146 32.5505 30.0155 32.5088C30.1163 32.4671 30.2244 32.4457 30.3336 32.4458C30.7932 32.4458 31.1677 32.8172 31.1677 33.2767C31.1677 34.2462 31.6304 35.1935 32.3417 35.9049C33.0531 36.6162 34.0005 37.079 34.9701 37.079C35.4297 37.079 35.801 37.4535 35.801 37.9131C35.801 38.3727 35.4296 38.744 34.9701 38.744C33.9785 38.744 33.0343 39.2288 32.3417 39.9214C31.6461 40.617 31.1866 41.5391 31.1645 42.4834C31.2023 42.9651 30.8214 43.3805 30.3336 43.3805C29.8489 43.3805 29.468 42.9651 29.5058 42.4834C29.4838 41.5391 29.0242 40.6169 28.3254 39.9214C27.6141 39.2098 26.6666 38.744 25.7003 38.744C25.2407 38.744 24.8662 38.3726 24.8662 37.9131C24.8662 37.4535 25.2407 37.079 25.7003 37.079ZM19.339 4.63657C19.8017 4.63657 20.1731 5.008 20.1731 5.46748C20.1732 5.57704 20.1517 5.68554 20.1098 5.78677C20.0679 5.888 20.0064 5.97999 19.929 6.05746C19.8515 6.13493 19.7595 6.19637 19.6583 6.23826C19.557 6.28015 19.4485 6.30168 19.339 6.30161C18.3474 6.30161 17.4031 6.78629 16.7139 7.47563C16.0182 8.17129 15.5398 9.10613 15.5398 10.1038C15.5398 10.5634 15.1652 10.9348 14.7056 10.9348C14.246 10.9348 13.8715 10.5633 13.8715 10.1038C13.8715 9.10613 13.393 8.17129 12.6975 7.47563C11.9862 6.76431 11.0387 6.30161 10.0693 6.30161C9.6097 6.30161 9.23838 5.92707 9.23838 5.46748C9.23838 5.00788 9.60981 4.63657 10.0693 4.63657C11.0387 4.63657 11.9862 4.17076 12.6975 3.45944C13.4088 2.74801 13.8715 1.80073 13.8715 0.834129C13.8715 0.374537 14.2462 0 14.7056 0C15.1651 0 15.5398 0.374537 15.5398 0.834129C15.5398 1.80062 16.0025 2.7479 16.7139 3.45944C17.4032 4.15177 18.3474 4.63657 19.339 4.63657ZM45.1462 46.6856C44.6835 46.6856 44.3121 46.314 44.3121 45.8546C44.312 45.745 44.3336 45.6365 44.3755 45.5353C44.4174 45.434 44.4788 45.342 44.5563 45.2646C44.6337 45.1871 44.7257 45.1257 44.827 45.0838C44.9282 45.0419 45.0367 45.0204 45.1462 45.0204H47.4093C47.8689 45.0204 48.2404 45.395 48.2404 45.8546C48.2404 46.3142 47.8688 46.6856 47.4093 46.6856H45.1462ZM45.1462 40.0599C44.6835 40.0599 44.3121 39.6884 44.3121 39.2289C44.312 39.1194 44.3335 39.0109 44.3754 38.9096C44.4173 38.8084 44.4787 38.7164 44.5562 38.6389C44.6337 38.5614 44.7257 38.5 44.8269 38.4581C44.9282 38.4162 45.0367 38.3946 45.1462 38.3947H47.4093C47.8689 38.3947 48.2404 38.7692 48.2404 39.2289C48.2405 39.3381 48.219 39.4462 48.1773 39.5471C48.1356 39.6479 48.0744 39.7396 47.9972 39.8167C47.92 39.8939 47.8283 39.9551 47.7275 39.9968C47.6266 40.0386 47.5185 40.06 47.4093 40.0599H45.1462ZM45.1462 33.434C44.6835 33.434 44.3121 33.0627 44.3121 32.6032C44.312 32.4937 44.3336 32.3852 44.3755 32.2839C44.4174 32.1827 44.4788 32.0907 44.5563 32.0132C44.6337 31.9358 44.7257 31.8743 44.827 31.8324C44.9282 31.7905 45.0367 31.769 45.1462 31.7691H47.4093C47.8689 31.7691 48.2404 32.1436 48.2404 32.6032C48.2404 33.0628 47.8688 33.434 47.4093 33.434H45.1462ZM39.5214 35.0834H53.031V30.1228H39.5214V35.0834ZM53.031 43.3743H39.5214V48.335H53.031V43.3743ZM53.031 36.7485H39.5214V41.7092H53.031V36.7485ZM46.0464 18.7567V14.9544C46.0464 14.4948 46.421 14.1202 46.8806 14.1202C47.3402 14.1202 47.7115 14.4948 47.7115 14.9544V19.5877C47.7115 20.0473 47.34 20.422 46.8806 20.422H39.5561L40.0157 24.1454H56.0213C56.1305 24.1453 56.2386 24.1668 56.3395 24.2085C56.4403 24.2502 56.532 24.3114 56.6092 24.3886C56.6863 24.4658 56.7475 24.5575 56.7892 24.6583C56.831 24.7592 56.8524 24.8673 56.8523 24.9765V29.2886C56.8523 29.7483 56.4808 30.1228 56.0213 30.1228H54.6962V49.1659C54.6962 49.6255 54.3247 50 53.8652 50H38.6873C38.2277 50 37.8564 49.6255 37.8564 49.1659V30.1228H32.2221C31.7625 30.1228 31.388 29.7483 31.388 29.2886C31.388 28.829 31.7625 28.4577 32.2221 28.4577H55.1872V25.8106H22.2946V28.4577H28.4481C28.9077 28.4577 29.2822 28.8291 29.2822 29.2886C29.2822 29.7483 28.9077 30.1228 28.4481 30.1228H22.2789C22.2032 30.8185 21.8886 31.4417 21.4195 31.9139C21.1423 32.1915 20.8131 32.4117 20.4507 32.5618C20.0882 32.712 19.6997 32.7891 19.3074 32.7889H15.5398V34.8977H19.8048C20.4909 34.8977 21.1142 35.1779 21.5643 35.6279C22.0145 36.0781 22.2946 36.7012 22.2946 37.3875V39.5028C22.2948 39.6119 22.2733 39.72 22.2316 39.8209C22.1899 39.9218 22.1287 40.0134 22.0515 40.0906C21.9744 40.1678 21.8827 40.229 21.7818 40.2707C21.681 40.3125 21.5729 40.3339 21.4637 40.3338H15.5399V44.6962L21.6368 46.0087C21.823 46.0492 21.9897 46.1521 22.1094 46.3004C22.2291 46.4487 22.2944 46.6334 22.2947 46.8239V49.1659C22.2947 49.6255 21.9233 50 21.4638 50C21.0042 50 20.6297 49.6255 20.6297 49.1659V47.4944L15.54 46.3959V49.1658C15.54 49.6254 15.1655 49.9999 14.7059 49.9999C14.2463 49.9999 13.8717 49.6254 13.8717 49.1658V46.3959L8.78212 47.4944V49.1659C8.78212 49.6255 8.40758 50 7.94799 50C7.4884 50 7.11708 49.6255 7.11708 49.1659V46.8239C7.11708 46.4053 7.42244 46.0591 7.82218 45.9994L13.8718 44.6962V40.3338H7.94777C7.83861 40.3339 7.73051 40.3125 7.62965 40.2707C7.52878 40.229 7.43714 40.1678 7.35996 40.0906C7.28278 40.0134 7.22158 39.9218 7.17987 39.8209C7.13815 39.72 7.11674 39.6119 7.11686 39.5028V37.3875C7.11686 36.7012 7.39379 36.0781 7.84705 35.6279C8.29721 35.1779 8.92036 34.8977 9.60659 34.8977H13.8716V32.7889H10.1038C9.71152 32.7891 9.32302 32.712 8.96059 32.5618C8.59816 32.4117 8.26892 32.1915 7.99174 31.9139C7.52271 31.4417 7.20802 30.8185 7.13251 30.1228H4.35952V49.1659C4.35952 49.6255 3.9881 50 3.5285 50C3.06902 50 2.69437 49.6255 2.69437 49.1659V30.1228H0.834129C0.374536 30.1228 0 29.7483 0 29.2886V24.9765C0 24.5169 0.374647 24.1454 0.834129 24.1454H7.11686V22.1846C7.11676 22.0754 7.13818 21.9674 7.1799 21.8665C7.22162 21.7656 7.28282 21.674 7.36 21.5968C7.43718 21.5196 7.52881 21.4584 7.62967 21.4167C7.73053 21.375 7.83862 21.3536 7.94777 21.3537C8.40736 21.3537 8.7819 21.7251 8.7819 22.1846V29.8019C8.7819 30.1639 8.9298 30.4943 9.16898 30.7336C9.41138 30.976 9.74183 31.1239 10.1038 31.1239H13.8715V23.2927C13.8715 22.8331 14.2462 22.4617 14.7056 22.4617C15.1651 22.4617 15.5398 22.8332 15.5398 23.2927V31.1239H19.3074C19.6694 31.1239 19.9999 30.976 20.2423 30.7336C20.3649 30.6114 20.4623 30.4662 20.5287 30.3063C20.5952 30.1465 20.6294 29.975 20.6295 29.8019V16.7864C20.6293 16.4358 20.4901 16.0996 20.2423 15.8516C19.9999 15.6124 19.6694 15.4645 19.3074 15.4645H10.1038C9.74183 15.4645 9.41138 15.6124 9.16898 15.8516C8.92123 16.0996 8.78201 16.4358 8.7819 16.7864V18.4137C8.7819 18.8733 8.40736 19.2446 7.94777 19.2446C7.48817 19.2446 7.11686 18.8732 7.11686 18.4137V16.7864C7.11686 15.9617 7.45042 15.2158 7.99185 14.6744C8.53328 14.133 9.28235 13.7962 10.1039 13.7962H19.3076C20.129 13.7962 20.8782 14.133 21.4196 14.6744C21.961 15.2159 22.2946 15.9618 22.2946 16.7864V24.1454H32.9398L33.3995 20.422H26.0781C25.6185 20.422 25.244 20.0473 25.244 19.5877V6.54711C25.244 6.08752 25.6185 5.71299 26.0781 5.71299H46.8807C47.3403 5.71299 47.7116 6.08752 47.7116 6.54711V11.1805C47.7116 11.6401 47.3402 12.0147 46.8807 12.0147C46.4211 12.0147 46.0466 11.6401 46.0466 11.1805V7.37813H26.909V18.7568L46.0464 18.7567ZM35.0771 20.4218L34.6175 24.1453H38.3378L37.8783 20.4218H35.0771ZM1.66515 28.4577H7.11686V25.8106H1.66515V28.4577ZM19.8048 36.5628H9.60659C9.37996 36.5628 9.17531 36.654 9.0243 36.8052C8.87328 36.9563 8.7819 37.1608 8.7819 37.3875V38.6685H20.6296V37.3875C20.6296 37.1608 20.5383 36.9563 20.3872 36.8052C20.2361 36.654 20.0314 36.5628 19.8048 36.5628ZM13.8747 4.63657C13.5605 4.95128 13.2121 5.22997 12.8361 5.46748C13.2121 5.70499 13.5605 5.98368 13.8747 6.29839C14.1894 6.61267 14.4682 6.96104 14.7057 7.33705C14.9433 6.96105 15.222 6.61268 15.5367 6.29839C15.8509 5.98368 16.1993 5.70499 16.5753 5.46748C16.1993 5.22996 15.8509 4.95127 15.5367 4.63657C15.2205 4.32358 14.9417 3.97504 14.7057 3.5979C14.4698 3.97506 14.1909 4.3236 13.8747 4.63657ZM29.5058 37.0821C29.1915 37.3969 28.8431 37.6756 28.4671 37.9131C28.8432 38.1505 29.1916 38.4292 29.5058 38.744C29.8201 39.0579 30.0978 39.4064 30.3336 39.7828C30.5695 39.4056 30.8483 39.057 31.1645 38.744C31.4788 38.4293 31.8271 38.1507 32.2031 37.9131C31.8271 37.6756 31.4787 37.3968 31.1645 37.0821C30.8507 36.767 30.5721 36.4188 30.3336 36.0435C30.0961 36.4187 29.8185 36.7669 29.5058 37.0821Z" fill="black"/>
</svg>
