<svg width="70" height="70" viewBox="0 0 70 70" fill="none" xmlns="http://www.w3.org/2000/svg">
<g clip-path="url(#clip0_4156_1904)">
<circle cx="32.2656" cy="76.1523" r="27.3438" fill="#FFE785"/>
<path d="M48.1258 16.9656H52.6559C53.144 16.9656 53.5395 16.5842 53.5395 16.1136C53.5395 15.643 53.144 15.2617 52.6559 15.2617H48.1258C47.6377 15.2617 47.2422 15.643 47.2422 16.1136C47.2422 16.5842 47.6377 16.9656 48.1258 16.9656Z" fill="#494949"/>
<path d="M60.8227 15.2617H56.4205C55.9324 15.2617 55.5368 15.643 55.5368 16.1136C55.5368 16.5842 55.9324 16.9656 56.4205 16.9656H60.8227C62.1946 16.9656 63.3106 18.0416 63.3106 19.3642V49.4922H15.7911C15.303 49.4922 14.9074 49.8735 14.9074 50.3441C14.9074 50.8147 15.303 51.196 15.7911 51.196H63.3108V52.1138C63.3108 53.4365 62.1946 54.5125 60.8228 54.5125H9.17707C7.80521 54.5125 6.68913 53.4364 6.68913 52.1138V51.196H12.0254C12.5135 51.196 12.909 50.8147 12.909 50.3441C12.909 49.8735 12.5135 49.4922 12.0254 49.4922H6.68913V19.3644C6.68913 18.0416 7.80533 16.9657 9.17707 16.9657H21.8751C22.3633 16.9657 22.7588 16.5844 22.7588 16.1138C22.7588 15.6432 22.3633 15.2618 21.8751 15.2618H9.17707C6.83074 15.2618 4.92188 17.1022 4.92188 19.3644V52.1138C4.92188 54.376 6.83074 56.2164 9.17707 56.2164H23.8073V59.5426L21.5838 62.4172H20.5168C20.0287 62.4172 19.6332 62.7986 19.6332 63.2692C19.6332 63.7398 20.0287 64.1211 20.5168 64.1211H49.7295C50.2176 64.1211 50.6132 63.7398 50.6132 63.2692C50.6132 62.7986 50.2176 62.4172 49.7295 62.4172H48.534L46.3105 59.5426V56.2164H60.8229C63.1693 56.2164 65.0781 54.376 65.0781 52.1138V19.3644C65.0779 17.1022 63.169 15.2617 60.8227 15.2617ZM44.7184 60.3346L46.3295 62.4172H23.7881L25.3992 60.3346C25.5131 60.1875 25.5745 60.0089 25.5745 59.8253V56.2165H44.543V59.8253C44.5431 60.0089 44.6045 60.1875 44.7184 60.3346V60.3346Z" fill="#494949"/>
<path d="M35.0011 26.2117C40.7765 26.2117 45.475 21.6817 45.475 16.1137C45.475 10.5456 40.7764 6.01562 35.0011 6.01562C29.2259 6.01562 24.5273 10.5456 24.5273 16.1135C24.5272 21.6817 29.2258 26.2117 35.0011 26.2117ZM35.0011 7.71947C39.802 7.71947 43.7077 11.485 43.7077 16.1135C43.7077 20.7421 39.802 24.5077 35.0011 24.5077C30.2003 24.5077 26.2946 20.7421 26.2946 16.1135C26.2946 11.485 30.2003 7.71947 35.0011 7.71947Z" fill="#494949"/>
<path d="M33.235 20.3383C33.4038 20.4862 33.6166 20.5598 33.8293 20.5598C34.0509 20.5598 34.2723 20.4798 34.4432 20.3208L40.7266 14.4716C41.0776 14.1448 41.0875 13.6055 40.7485 13.267C40.4095 12.9286 39.8503 12.919 39.4991 13.2458L33.8114 18.5406L32.0406 16.9885C31.6797 16.6723 31.1207 16.6975 30.7923 17.0459C30.4641 17.3939 30.4906 17.9329 30.8518 18.2494L33.235 20.3383Z" fill="#494949"/>
<path d="M18.6918 31.4724H43.5512C44.0393 31.4724 44.4348 31.0911 44.4348 30.6205C44.4348 30.1499 44.0393 29.7686 43.5512 29.7686H18.6918C17.4228 29.7686 16.3906 30.7639 16.3906 31.9873V37.0214C16.3906 38.2449 17.4229 39.2401 18.6918 39.2401H33.2096C33.6977 39.2401 34.0932 38.8588 34.0932 38.3882C34.0932 37.9176 33.6977 37.5363 33.2096 37.5363H18.6918C18.3974 37.5363 18.1579 37.3054 18.1579 37.0214V31.9873C18.1579 31.7034 18.3974 31.4724 18.6918 31.4724V31.4724Z" fill="#494949"/>
<path d="M47.3172 31.4724H51.3113C51.6058 31.4724 51.8453 31.7033 51.8453 31.9873V37.0214C51.8453 37.3054 51.6058 37.5363 51.3113 37.5363H47.9351C47.4469 37.5363 47.0514 37.9176 47.0514 38.3882C47.0514 38.8588 47.4469 39.2401 47.9351 39.2401H51.3113C52.5803 39.2401 53.6125 38.2448 53.6125 37.0214V31.9873C53.6125 30.7638 52.5802 29.7686 51.3113 29.7686H47.3172C46.8291 29.7686 46.4336 30.1499 46.4336 30.6205C46.4336 31.0911 46.8291 31.4724 47.3172 31.4724Z" fill="#494949"/>
<path d="M45.4218 39.2641C45.3415 38.7404 44.9666 38.3151 44.4433 38.1544L37.7828 36.1088C37.3599 35.9786 36.9075 36.0436 36.5419 36.2859C36.1761 36.5281 35.9514 36.9122 35.9255 37.3393L35.5181 44.0673C35.4862 44.5958 35.7633 45.0857 36.2415 45.3457C36.7198 45.6057 37.298 45.5809 37.7505 45.2814L39.0691 44.4079L40.6886 46.6804C40.9 46.9769 41.2184 47.1764 41.5856 47.242C41.6715 47.2574 41.7576 47.2649 41.8432 47.2649C42.123 47.2649 42.396 47.1837 42.6314 47.0277L44.7596 45.6181C45.3942 45.1973 45.5559 44.3571 45.1197 43.7451L43.5 41.4724L44.8185 40.599C45.2709 40.2992 45.5022 39.7876 45.4218 39.2641V39.2641ZM41.9355 45.4214L40.0251 42.7408C39.8923 42.5545 39.6884 42.4268 39.4579 42.3856C39.4044 42.376 39.3506 42.3713 39.2969 42.3713C39.1194 42.3713 38.9447 42.4229 38.7965 42.521L37.3228 43.4973L37.6641 37.8606L43.2442 39.5744L41.7707 40.5506C41.5774 40.6786 41.4449 40.8752 41.4022 41.0974C41.3595 41.3195 41.41 41.5491 41.5427 41.7351L43.4533 44.4159L41.9355 45.4214Z" fill="#494949"/>
</g>
<defs>
<clipPath id="clip0_4156_1904">
<rect width="70" height="70" fill="white"/>
</clipPath>
</defs>
</svg>
