<svg width="512" height="512" viewBox="0 0 512 512" fill="none" xmlns="http://www.w3.org/2000/svg">
<g clip-path="url(#clip0_3760_632)">
<circle cx="256" cy="512" r="200" fill="#FFE785"/>
<path d="M484.529 425.123C462.693 404.04 440.858 382.205 419.023 361.123C442.364 355.099 460.435 339.287 466.458 315.193C486.035 270.017 454.411 220.323 406.223 217.311C369.329 215.052 337.705 241.405 332.435 277.546C286.505 232.37 254.129 197.734 212.717 156.323C211.211 154.817 208.952 154.064 206.693 154.817C199.917 157.076 185.611 158.582 178.082 159.334C144.952 123.946 117.093 87.805 85.4698 46.3933C92.2463 37.358 89.9875 25.3109 81.7051 18.5345C74.1757 11.758 61.3757 10.2521 50.0816 14.0168C30.5051 20.0403 15.4463 41.8756 22.9757 60.6992C26.7404 71.2403 38.7875 78.0168 50.0816 75.758C77.9404 109.64 106.552 144.276 134.411 178.158C119.352 184.934 119.352 184.182 117.846 185.687C117.093 186.44 116.34 187.193 115.587 187.946C115.587 187.946 115.587 188.699 114.835 188.699C105.799 193.97 104.293 211.287 105.799 220.323C108.058 232.37 114.082 242.911 120.858 253.452C173.564 338.534 236.058 419.852 319.635 474.064C348.246 492.887 379.87 507.193 412.246 495.146C439.352 492.134 470.223 474.064 486.787 451.476C492.058 443.193 491.305 431.899 484.529 425.123ZM343.729 279.805C373.846 304.652 416.764 315.946 457.423 307.664C454.411 316.699 448.387 324.982 440.858 331.005C400.952 367.146 336.952 334.017 343.729 279.805V279.805ZM460.435 295.617C421.282 305.405 376.858 294.111 346.74 267.758C348.246 263.993 349.752 259.476 352.764 255.711C382.129 279.805 422.035 292.605 461.187 288.087C461.187 290.346 461.187 290.346 460.435 295.617V295.617ZM401.705 228.605H405.47C433.329 230.111 455.164 251.193 459.682 276.793C424.293 280.558 386.646 269.264 358.787 246.676C370.082 234.629 385.893 228.605 401.705 228.605V228.605ZM35.7757 38.8639C50.0816 17.0286 77.1875 20.7933 77.9404 34.3462C77.9404 38.8639 75.6816 40.3697 74.9286 42.6286C72.6698 44.1345 72.6698 47.8992 74.1757 50.158C107.305 93.0756 136.67 132.229 172.058 169.123C173.564 170.629 175.07 171.382 176.576 170.629C184.105 169.876 190.882 169.123 198.411 167.617C196.152 181.17 191.635 190.205 189.376 200.746C171.305 196.982 157.752 192.464 137.423 188.699C148.717 184.182 152.482 182.676 153.235 178.158C153.235 176.652 153.235 175.146 152.482 173.64C100.529 108.134 56.8581 58.4403 56.1051 57.6874C54.5992 55.4286 51.5875 55.4286 49.3286 56.9345C47.0698 56.1815 42.5522 58.4403 36.5286 55.4286C30.5051 50.9109 32.011 44.8874 35.7757 38.8639V38.8639ZM310.599 444.699C240.576 379.946 178.835 318.205 126.882 230.111C122.364 222.582 119.352 210.534 122.364 199.993C196.905 288.84 279.729 376.934 388.905 485.358C361.046 483.099 327.164 461.264 310.599 444.699V444.699ZM476.999 444.699C461.187 466.534 428.811 483.852 403.964 484.605C295.54 376.934 212.717 288.84 138.929 201.499C160.764 206.017 175.07 210.534 193.14 213.546C196.152 214.299 199.164 212.04 199.917 208.276C200.67 197.734 207.446 184.182 209.705 168.37C251.87 210.534 289.517 250.44 331.682 291.852C331.682 294.864 333.187 303.899 334.693 309.17C342.223 338.534 370.082 363.382 404.717 361.876C428.811 385.217 452.905 408.558 476.246 431.899C479.258 436.417 480.011 440.934 476.999 444.699V444.699Z" fill="#494949"/>
<path d="M288.764 182.675C285.752 184.181 284.999 187.945 286.505 190.204L300.811 214.298C301.564 215.804 303.823 217.31 305.328 217.31C309.846 217.31 312.105 212.792 309.846 209.028L295.54 184.934C295.54 181.922 291.775 181.169 288.764 182.675V182.675Z" fill="#494949"/>
<path d="M327.164 149.546C324.152 150.299 321.893 153.311 322.646 156.323L331.682 206.77C332.435 209.782 334.693 211.288 336.952 211.288C340.717 211.288 342.976 208.276 342.223 204.511L333.188 154.064C333.188 151.052 330.176 148.793 327.164 149.546V149.546Z" fill="#494949"/>
<path d="M376.105 172.887L364.058 197.734C362.552 200.746 364.058 203.757 366.317 205.263C369.329 206.769 372.341 205.263 373.847 203.004L385.894 178.157C387.399 175.146 385.894 172.134 383.635 170.628C380.623 169.122 377.611 169.875 376.105 172.887Z" fill="#494949"/>
</g>
<defs>
<clipPath id="clip0_3760_632">
<rect width="512" height="512" fill="white"/>
</clipPath>
</defs>
</svg>
