<svg width="512" height="512" viewBox="0 0 512 512" fill="none" xmlns="http://www.w3.org/2000/svg">
<g clip-path="url(#clip0_3760_666)">
<circle cx="256" cy="512" r="200" fill="#FFE785"/>
<path d="M498.112 418.859C493.019 416.718 487.157 419.107 485.016 424.199C470.965 457.594 438.477 479.172 402.249 479.172C358.781 479.172 322.437 448.11 314.234 407.019C314.241 406.861 314.258 406.706 314.258 406.546C314.258 402.141 313.68 397.87 312.605 393.798C312.535 392.347 312.497 390.888 312.497 389.421C312.497 351.881 335.667 319.656 368.455 306.281L392.623 392.131C393.865 396.541 397.877 399.424 402.244 399.424C403.141 399.424 404.053 399.302 404.959 399.047C410.275 397.55 413.372 392.027 411.875 386.711L387.706 300.854C392.441 300.079 397.298 299.67 402.249 299.67C437.96 299.67 470.266 320.823 484.552 353.561C486.761 358.623 492.654 360.935 497.717 358.726C502.779 356.517 505.092 350.623 502.883 345.561C485.415 305.534 445.914 279.67 402.249 279.67C395.423 279.67 388.742 280.302 382.257 281.501L381.4 278.456C378.507 268.179 376.348 257.723 374.924 247.168C374.924 247.164 374.923 247.16 374.923 247.156C374.099 241.046 373.518 234.904 373.192 228.742C374.102 233.328 378.148 236.785 383.001 236.785H396.664C415.58 236.785 430.97 221.395 430.97 202.479C430.97 183.563 415.58 168.173 396.664 168.173H366.667L289.974 100.213C293.953 101.368 298.152 102 302.498 102C327.311 102 347.498 81.813 347.498 57C347.498 32.187 327.311 12 302.498 12C277.685 12 257.498 32.187 257.498 57C257.498 65.455 259.845 73.369 263.917 80.134C256.762 76.875 248.934 75.147 240.836 75.147C225.949 75.147 211.954 80.945 201.427 91.471L119.545 173.352C119.523 173.374 119.506 173.4 119.484 173.422C119.221 173.69 118.971 173.975 118.736 174.276C118.709 174.311 118.679 174.343 118.653 174.378C118.643 174.391 118.632 174.402 118.623 174.415C113.424 181.33 110.455 189.613 109.826 198.547H90.173C84.65 198.547 80.173 203.025 80.173 208.547V220.784C80.173 241.606 97.113 258.547 117.936 258.547H129.792L124.664 280.69C119.785 280.024 114.808 279.672 109.75 279.672C49.234 279.669 0 328.904 0 389.42C0 426.47 18.457 459.288 46.657 479.171H10C4.477 479.171 0 483.649 0 489.171C0 494.693 4.477 499.171 10 499.171H109.751C164.011 499.171 209.193 459.588 217.958 407.784C218.569 412.721 222.771 416.545 227.873 416.545H295.893C302.446 442.225 318.078 464.31 339.155 479.171H275.667C270.144 479.171 265.667 483.649 265.667 489.171C265.667 494.693 270.144 499.171 275.667 499.171H402.25C446.548 499.171 486.271 472.787 503.452 431.954C505.593 426.864 503.202 421.002 498.112 418.859ZM372.873 188.172H396.663C404.551 188.171 410.969 194.588 410.969 202.477C410.969 210.365 404.552 216.783 396.663 216.783H383C377.826 216.783 373.57 220.712 373.053 225.749C372.933 222.734 372.873 219.718 372.873 216.697V188.172ZM353.842 238.544H253.618C252.016 236.633 250.335 234.777 248.556 232.997L217.04 201.48L258.561 159.959L353.16 228.483C353.32 231.842 353.546 235.198 353.842 238.544ZM339.085 258.544L277.809 314.052L271.97 277.771C271.959 277.701 271.947 277.631 271.934 277.561C270.726 270.952 268.751 264.584 266.081 258.544H339.085ZM302.498 31.998C316.283 31.998 327.498 43.213 327.498 56.998C327.498 70.783 316.283 81.998 302.498 81.998C288.713 81.998 277.498 70.783 277.498 56.998C277.498 43.213 288.712 31.998 302.498 31.998ZM215.569 105.612C222.318 98.862 231.291 95.145 240.836 95.145C250.381 95.145 259.354 98.862 266.105 105.613L352.874 182.672V203.58L263.387 138.76C261.626 137.485 259.57 136.859 257.524 136.859C254.947 136.859 252.386 137.851 250.45 139.788L199.946 190.293L166.573 181.079L145.83 175.352L215.569 105.612ZM117.936 238.545C108.142 238.544 100.173 230.576 100.173 220.782V218.545H112.176C114.399 225.915 118.02 232.739 122.701 238.545H117.936ZM109.751 479.171C60.262 479.171 20 438.91 20 389.42C20 339.93 60.262 299.669 109.751 299.669C113.261 299.669 116.723 299.878 120.13 300.273L100.009 387.165C99.321 390.135 100.026 393.257 101.923 395.644C103.82 398.031 106.702 399.421 109.751 399.421H198.942C193.953 444.22 155.86 479.171 109.751 479.171ZM122.331 379.42L139.614 304.784C171.447 316.049 195.085 344.79 198.942 379.42H122.331V379.42ZM144.151 285.197L150.29 258.683L198.219 286.359L213.958 354.968C203.063 322.1 177.026 296.075 144.151 285.197ZM216.738 277.641C216.117 274.934 214.398 272.607 211.992 271.217L147.254 233.835C138.994 229.065 132.548 219.662 130.433 209.294C129.162 203.065 129.54 197.166 131.469 192.135L160.591 200.175L197.693 210.418L234.415 247.14C243.698 256.422 249.861 268.148 252.242 281.056L264.392 356.549C264.347 356.549 264.304 356.546 264.259 356.546H234.839V356.545L216.738 277.641ZM237.873 396.545V376.545H264.258C277.296 376.545 288.417 384.904 292.545 396.545H237.873ZM294.803 367.001C291.905 364.757 288.758 362.824 285.406 361.252L281.6 337.603L358.277 268.145C359.397 273.424 360.684 278.67 362.149 283.874L363.009 286.928C328.591 300.15 302.467 330.227 294.803 367.001Z" fill="#494949"/>
<path d="M501.999 379.419C496.476 379.419 491.999 383.897 491.999 389.419L491.998 389.888C491.982 395.41 496.446 399.901 501.969 399.917C501.979 399.917 501.989 399.917 501.999 399.917C507.508 399.917 511.982 395.459 511.999 389.946L512 389.419C511.999 383.897 507.522 379.419 501.999 379.419Z" fill="#494949"/>
<path d="M243.4 482.103C241.54 480.233 238.97 479.173 236.33 479.173C233.7 479.173 231.12 480.233 229.26 482.103C227.4 483.963 226.33 486.534 226.33 489.173C226.33 491.803 227.4 494.383 229.26 496.243C231.12 498.102 233.7 499.173 236.33 499.173C238.96 499.173 241.54 498.103 243.4 496.243C245.27 494.383 246.33 491.803 246.33 489.173C246.33 486.533 245.27 483.963 243.4 482.103Z" fill="#494949"/>
</g>
<defs>
<clipPath id="clip0_3760_666">
<rect width="512" height="512" fill="white"/>
</clipPath>
</defs>
</svg>
