<svg width="192" height="192" viewBox="0 0 192 192" fill="none" xmlns="http://www.w3.org/2000/svg">
<g clip-path="url(#clip0_4072_3506)">
<circle cx="96" cy="208.875" r="75" fill="#FFE785"/>
<path d="M150.339 140.488L163.329 163.057L152.852 161.945C151.762 161.821 150.706 162.434 150.262 163.434L145.919 173.245L131.272 147.968C131.952 147.709 132.639 147.413 133.352 147.033C135.828 145.711 138.529 144.591 141.851 144.49C146.006 144.379 148.317 143.266 150.339 140.488ZM104.829 140.467C106.851 143.266 109.174 144.377 113.332 144.49C116.654 144.591 119.408 145.6 121.842 147.033C122.476 147.4 123.086 147.699 123.685 147.942L109.209 173.211L104.876 163.434C104.432 162.434 103.376 161.821 102.275 161.945L91.7963 163.057L104.829 140.467ZM139.606 82.3228C142.294 85.1558 145.074 86.9905 148.961 88.279C151.694 89.1772 152.75 90.0326 153.396 93.4012C154.173 97.4886 155.406 100.29 158.019 103.569C159.594 105.546 160.229 107.234 158.975 110.18C157.462 113.747 157.106 117.203 157.43 121.258C157.652 124.102 157.484 125.393 154.661 127.355C151.171 129.8 149.228 131.901 147.284 135.778C146.164 138.011 144.771 139.355 141.582 139.409C137.373 139.49 134.418 140.2 130.851 142.589C128.274 144.322 126.395 143.797 124.328 142.589C120.628 140.42 117.806 139.49 113.593 139.409C110.403 139.355 109.017 138.011 107.897 135.778C105.951 131.901 104.018 129.8 100.517 127.355C97.7078 125.391 97.5286 124.102 97.7504 121.258C98.0704 117.203 97.727 113.747 96.2059 110.18C94.9622 107.236 95.583 105.546 97.1616 103.569C99.7728 100.292 101.008 97.4886 101.795 93.4012C102.431 90.0326 103.498 89.1793 106.22 88.279C110.107 86.9905 112.895 85.1665 115.574 82.3228C117.697 80.055 119.632 79.8118 122.075 80.3686C126.075 81.2924 129.552 81.1793 133.121 80.3686C135.873 79.7457 138.12 80.742 139.606 82.3228V82.3228ZM135.252 74.8561C134.239 74.8668 133.162 75.046 132.008 75.3916C128.865 76.3345 125.885 76.023 123.176 75.3916C121.998 75.1121 120.921 74.9564 119.907 74.9436C116.852 74.9244 114.373 76.1788 111.939 78.7452C109.541 81.2796 107.353 82.4785 104.517 83.4769C99.8944 85.1025 97.6736 87.8545 96.7947 92.3665C96.127 95.799 95.0048 98.0796 93.1275 100.48C90.1174 104.322 89.727 107.724 91.4379 112.002C92.7179 115.191 92.927 117.879 92.6731 120.868C92.2614 125.689 93.8059 128.868 97.5179 131.466C99.295 132.712 100.639 134.112 101.748 135.609L84.8843 164.834C83.839 166.634 85.2811 168.868 87.3504 168.646L100.972 167.2L106.595 179.878C107.438 181.779 110.083 181.913 111.114 180.111L127.483 151.567L144.016 180.121C145.059 181.924 147.696 181.777 148.539 179.878L154.16 167.2L167.784 168.646C169.851 168.868 171.295 166.634 170.248 164.834L153.413 135.633C154.525 134.122 155.884 132.723 157.672 131.464C161.381 128.864 162.913 125.687 162.504 120.866C162.248 117.877 162.459 115.189 163.737 112C165.45 107.722 165.07 104.32 162.049 100.477C160.17 98.0774 159.048 95.799 158.39 92.3644C157.514 87.8524 155.282 85.1004 150.67 83.4748C147.826 82.4785 145.648 81.2774 143.248 78.743C140.808 76.1788 138.297 74.8006 135.252 74.8561V74.8561Z" fill="#494949"/>
<path fill-rule="evenodd" clip-rule="evenodd" d="M123.084 92.4756C119.086 93.4207 115.374 95.6116 112.575 98.9119C106.975 105.502 106.22 115.023 110.698 122.447C115.176 129.869 123.907 133.523 132.264 131.447C140.609 129.357 146.655 122.024 147.242 113.344C147.43 111.902 146.352 110.603 144.895 110.513C143.453 110.413 142.22 111.567 142.207 113.024C141.774 119.558 137.251 124.99 131.041 126.547C124.842 128.092 118.374 125.404 115.018 119.836C111.664 114.259 112.242 107.125 116.441 102.18C120.631 97.2351 127.408 95.6351 133.296 98.178C134.574 98.7369 136.063 98.1481 136.62 96.8681C137.177 95.5903 136.584 94.1033 135.308 93.5444C131.353 91.8356 127.075 91.5327 123.084 92.4756V92.4756Z" fill="#494949"/>
<path fill-rule="evenodd" clip-rule="evenodd" d="M146.096 96.1898C145.441 96.2004 144.807 96.4692 144.353 96.9364L126.919 114.056L122.209 109.357C119.819 106.967 116.253 110.558 118.642 112.936L124.009 118.304C125.573 119.868 128.208 119.857 129.797 118.304L147.886 100.535C149.528 98.946 148.385 96.1556 146.096 96.1898V96.1898Z" fill="#494949"/>
<path fill-rule="evenodd" clip-rule="evenodd" d="M59.4183 10.5C58.7143 10.5 58.0508 10.8115 57.5943 11.3341L22.3495 51.844C21.9633 52.2899 21.75 52.8445 21.75 53.4355V178.566C21.75 179.912 22.8273 181 24.1735 180.99H94.6737C96.0497 181.054 97.2082 179.953 97.2082 178.577C97.2082 177.199 96.0497 176.1 94.6737 176.153H26.5863V55.8461H63.6871C65.0183 55.8355 66.0849 54.7688 66.0956 53.4355V25.7235C66.1063 24.3667 65.0055 23.2659 63.6508 23.2787C62.3175 23.2893 61.2508 24.3901 61.2615 25.7235V51.012H29.4727L60.5169 15.332H142.375V68.1875C142.364 69.5443 143.452 70.6451 144.807 70.6451C146.151 70.6451 147.25 69.5443 147.231 68.1875V12.9363C147.231 11.5901 146.14 10.5 144.807 10.5H59.4183Z" fill="#494949"/>
<path d="M45.0076 97.6998C41.7841 97.6998 42.0167 102.536 45.2401 102.536H78.4732C81.8268 102.536 81.8268 97.6806 78.4732 97.6998C68.2055 97.768 54.2279 97.6998 45.0076 97.6998Z" fill="#494949"/>
<path d="M45.0076 119.321C41.7841 119.321 42.0167 124.155 45.2401 124.155H78.4732C81.8268 124.155 81.8268 119.3 78.4732 119.321C68.2055 119.377 54.2279 119.321 45.0076 119.321Z" fill="#494949"/>
<path d="M45.0076 140.942C41.7841 140.942 42.0167 145.779 45.2401 145.779H78.4732C81.8268 145.779 81.8268 140.923 78.4732 140.942C68.2055 141.011 54.2279 140.942 45.0076 140.942Z" fill="#494949"/>
<path d="M45.0076 76.0787C41.7841 76.0787 42.0167 80.9107 45.2401 80.9107H89.3169C92.6748 80.9107 92.6748 76.0552 89.3169 76.0787C79.0407 76.132 54.2279 76.0787 45.0076 76.0787V76.0787Z" fill="#494949"/>
</g>
<defs>
<clipPath id="clip0_4072_3506">
<rect width="192" height="192" fill="white"/>
</clipPath>
</defs>
</svg>
