<?xml version="1.0" encoding="UTF-8"?><svg id="a" xmlns="http://www.w3.org/2000/svg" xmlns:xlink="http://www.w3.org/1999/xlink" viewBox="0 0 100 100"><defs><style>.c{clip-path:url(#b);}.d{fill:#494949;}.e,.f{fill:none;}.f{stroke:#494949;stroke-linecap:round;stroke-miterlimit:10;stroke-width:2.75px;}.g{fill:#ffda66;}</style><clipPath id="b"><rect class="e" width="100" height="100"/></clipPath></defs><g class="c"><g><path class="g" d="M89.77,71.21c.06-.59,.08-1.19,.08-1.8,0-12.89-10.46-23.35-23.35-23.35s-23.35,10.46-23.35,23.35c0,.61,.02,1.21,.08,1.8h46.54Z"/><rect class="f" x="6.07" y="42.23" width="87.86" height="28.98" rx="5" ry="5"/><path class="f" d="M20.92,20.06h58.4c4.4,0,7.97,3.57,7.97,7.97v14.01c0,.11-.09,.19-.19,.19H13.55c-.33,0-.59-.27-.59-.59v-13.6c0-4.4,3.57-7.97,7.97-7.97Z"/><path class="d" d="M21.21,42.45c-1.81-12.95,14.26-20.34,22.85-10.47,2.49,2.81,3.53,6.77,3.01,10.43-.1,.7-.75,1.19-1.45,1.09-.7-.1-1.19-.75-1.09-1.45,.4-2.99-.44-6.12-2.45-8.37-3.93-4.77-11.87-4.76-15.77,.03-1.99,2.25-2.82,5.41-2.38,8.34,.23,1.79-2.44,2.18-2.72,.39h0Z"/><path class="d" d="M53.82,42.45c-1.81-12.95,14.26-20.34,22.85-10.47,2.49,2.81,3.53,6.77,3.01,10.43-.1,.7-.75,1.19-1.45,1.09-.7-.1-1.19-.75-1.09-1.45,.4-2.99-.44-6.12-2.45-8.37-3.93-4.77-11.87-4.76-15.77,.03-1.99,2.25-2.82,5.41-2.38,8.34,.23,1.79-2.44,2.18-2.72,.39h0Z"/><line class="f" x1="12.82" y1="71.21" x2="12.82" y2="79.94"/><line class="f" x1="87.46" y1="71.21" x2="87.46" y2="79.94"/></g></g></svg>