<svg width="50" height="50" viewBox="0 0 50 50" fill="none" xmlns="http://www.w3.org/2000/svg">
<g clip-path="url(#clip0_7588_998)">
<mask id="mask0_7588_998" style="mask-type:luminance" maskUnits="userSpaceOnUse" x="0" y="0" width="50" height="50">
<path d="M50 0H0V50H50V0Z" fill="white"/>
</mask>
<g mask="url(#mask0_7588_998)">
<path d="M46.9623 38C46.9906 37.7185 47 37.4322 47 37.1412C47 30.9909 42.0724 26 36 26C29.9276 26 25 30.9909 25 37.1412C25 37.4322 25.0094 37.7185 25.0377 38H46.9623Z" fill="#4343E8" fill-opacity="0.6"/>
<path d="M46.0468 22.3228H3.95316C2.46025 22.3228 1.25 23.564 1.25 25.0952V35.6195C1.25 37.1507 2.46025 38.392 3.95316 38.392H46.0468C47.5398 38.392 48.75 37.1507 48.75 35.6195V25.0952C48.75 23.564 47.5398 22.3228 46.0468 22.3228Z" stroke="#494949" stroke-width="1.5" stroke-miterlimit="10" stroke-linecap="round"/>
<path d="M9.28 10.0298H40.853C43.2317 10.0298 45.1618 12.0093 45.1618 14.4491V22.2176C45.1618 22.2786 45.1131 22.3229 45.0591 22.3229H5.29554C5.11713 22.3229 4.97656 22.1732 4.97656 21.9958V14.4547C4.97656 12.0149 6.90662 10.0353 9.28541 10.0353L9.28 10.0298Z" stroke="#494949" stroke-width="1.5" stroke-miterlimit="10" stroke-linecap="round"/>
<path d="M9.43555 22.4451C8.457 15.2644 17.145 11.1666 21.789 16.6395C23.1352 18.1976 23.6974 20.3934 23.4163 22.4229C23.3623 22.811 23.0108 23.0827 22.6324 23.0273C22.254 22.9718 21.989 22.6114 22.0431 22.2233C22.2594 20.5653 21.8052 18.8298 20.7186 17.5821C18.5939 14.9372 14.3012 14.9427 12.1928 17.5988C11.1169 18.8464 10.6682 20.5986 10.9061 22.2233C11.0304 23.2158 9.58693 23.4321 9.43555 22.4395V22.4451Z" fill="#494949"/>
<path d="M27.0527 22.4451C26.0742 15.2644 34.7622 11.1666 39.4062 16.6395C40.7524 18.1976 41.3146 20.3934 41.0335 22.4229C40.9794 22.811 40.628 23.0827 40.2496 23.0273C39.8711 22.9718 39.6062 22.6114 39.6603 22.2233C39.8765 20.5653 39.4224 18.8298 38.3357 17.5821C36.2111 14.9372 31.9184 14.9427 29.81 17.5988C28.7341 18.8464 28.2854 20.5986 28.5233 22.2233C28.6476 23.2158 27.2041 23.4321 27.0527 22.4395V22.4451Z" fill="#494949"/>
<path d="M4.90625 38.3923V43.2331" stroke="#494949" stroke-width="1.5" stroke-miterlimit="10" stroke-linecap="round"/>
<path d="M45.2578 38.3923V43.2331" stroke="#494949" stroke-width="1.5" stroke-miterlimit="10" stroke-linecap="round"/>
</g>
</g>
<defs>
<clipPath id="clip0_7588_998">
<rect width="50" height="50" fill="white"/>
</clipPath>
</defs>
</svg>
