<svg width="126" height="126" viewBox="0 0 126 126" fill="none" xmlns="http://www.w3.org/2000/svg">
<g clip-path="url(#clip0_4156_2900)">
<circle cx="63" cy="137.074" r="49.2188" fill="#FFE785"/>
<path d="M107.506 95.1623C106.49 91.4691 106.846 86.6821 101.916 82.9393C99.1006 80.8066 98.2325 80.9538 82.0782 76.3349L77.0711 73.0527V69.9931C86.2059 65.1888 90.5961 56.6708 90.5961 48.3172V47.9763C96.8319 46.8588 99.8767 40.7759 96.4015 36.2222C96.4035 36.1946 96.5036 29.3793 96.188 26.515C92.9959 0.431848 59.1667 -9.12395 41.9913 10.2707C41.2982 11.0375 41.3771 12.204 42.1683 12.8758C42.9596 13.5476 44.1628 13.4709 44.8562 12.7043C59.0126 -3.15226 85.9409 3.08965 91.6203 23.0697L91.6513 23.1805C92.9347 27.776 92.5165 30.9737 92.5988 33.4017C91.4708 32.9511 90.2173 32.6902 88.8956 32.6656C87.5299 31.9409 86.3687 30.6866 85.7466 29.0328C85.4275 28.123 85.3056 27.6589 85.2099 26.1296C85.1721 24.6858 84.4914 23.3249 83.3426 22.3957C79.3677 19.181 75.9619 24.1077 54.4089 21.6596L51.5385 21.2727C48.44 20.8052 45.5729 23.0596 45.4906 26.1464C45.4467 27.038 45.3949 27.5821 45.1121 28.5734C44.4868 30.6021 43.2493 31.6259 43.3366 31.5378C42.8507 32.0125 42.3168 32.3957 41.806 32.6656C40.484 32.6902 39.2298 32.9509 38.1015 33.4019C38.1099 28.0105 38.1322 24.4914 40.386 19.5107C40.8082 18.577 40.37 17.4881 39.4065 17.0786C38.4432 16.6693 37.32 17.0941 36.8973 18.028C35.3646 21.4162 34.4902 25.036 34.3227 28.8071C34.3227 28.832 34.262 35.7253 34.2993 36.2227C30.8117 40.7926 33.886 46.8628 40.1057 47.9768C40.2237 64.1006 53.3248 69.748 53.519 69.935C53.5355 69.9438 53.5525 69.9525 53.569 69.9613V73.0815L48.6391 76.313C33.8395 80.5443 32.5505 80.9048 32.3753 80.9681C28.2301 82.4663 25.0873 85.666 24.14 90.2667C18.3412 118.502 18.587 117.288 18.573 117.383C17.8444 122.373 20.5635 126 26.295 126H46.5861C47.6383 126 48.4908 125.173 48.4908 124.154C48.4908 123.134 47.6383 122.307 46.5861 122.307H39.7236V104.907C39.7236 103.887 38.871 103.061 37.8189 103.061C36.7668 103.061 35.9143 103.887 35.9143 104.907V122.308H26.2948C23.2113 122.308 21.9157 120.998 22.3382 117.949C28.3637 89.5501 27.5312 89.4039 30.019 86.7867C31.0092 85.744 32.2814 84.9528 33.6478 84.4488C47.5941 80.4614 48.1978 80.2889 48.2052 80.2867C48.2092 80.2854 48.2179 80.283 48.2359 80.2778C51.9074 90.1735 51.6601 89.7534 52.0193 90.3634C53.0049 92.0383 55.2617 92.8458 57.3832 91.6569C57.9016 91.4578 62.3903 89.7329 63.0497 89.4795V104.907C63.0497 105.926 63.9022 106.753 64.9543 106.753C66.0064 106.753 66.859 105.926 66.859 104.907V89.3963C75.1154 92.3041 72.7603 91.4423 73.732 91.8838C75.7257 92.7892 78.1821 91.8671 78.9567 89.7622L82.4443 80.2889C99.2415 85.0914 94.914 83.874 95.6411 84.062C95.7947 84.1511 101.542 85.0471 102.764 90.9873L103.77 95.8831C103.975 96.8832 104.978 97.5326 106.01 97.3333C107.042 97.1342 107.711 96.1621 107.506 95.1623ZM90.5961 36.6179C95.1933 37.9433 95.1905 42.864 90.5961 44.189V36.6179ZM40.1064 44.1892C35.5088 42.8642 35.5096 37.9424 40.1064 36.6176V44.1892ZM45.4119 55.9603C43.475 51.2235 43.9158 48.7038 43.9158 35.7499C46.9434 34.0194 49.1796 30.734 49.3004 26.2234C49.322 25.3916 50.12 24.7943 50.9512 24.9208L51.5362 25.007C53.3487 25.0914 62.7242 27.2437 79.7501 24.9211C80.1617 24.8593 80.5826 24.9718 80.9027 25.2304C81.3676 25.6067 81.3882 26.0221 81.4098 26.3804C81.5311 29.65 82.7754 32.5977 85.2681 34.6883L85.2544 34.677C85.6065 34.9848 86.2257 35.4307 86.7861 35.7494C86.7861 35.8119 86.7868 48.089 86.7868 48.3174C86.7868 63.2102 70.6391 74.0652 55.5138 66.782C55.5057 66.7781 55.4943 66.7724 55.4828 66.7673C55.4826 66.767 55.4826 66.767 55.4823 66.767C51.0429 64.5313 47.3582 60.7385 45.4119 55.9603ZM55.3447 88.5379C55.2904 88.533 55.4742 88.9021 51.7187 78.7518L55.0515 76.5674L61.9831 85.918C55.4417 88.4565 55.7157 88.2714 55.3447 88.5379ZM65.0145 83.6793L57.3791 73.3796V71.5358C61.5401 72.8694 64.9345 72.7631 65.1666 72.7838V72.7678C65.178 72.7678 65.1894 72.7685 65.2011 72.7685L65.2014 72.784C68.7362 72.7252 70.7854 72.3442 73.2618 71.556V73.3992L65.0145 83.6793ZM75.3652 88.5308C75.3223 88.5682 75.2527 88.4232 74.847 88.2803C74.3256 88.0967 68.867 86.1754 68.0647 85.8929L75.5762 76.53L78.9656 78.7518L75.3652 88.5308Z" fill="#494949"/>
<path d="M48.2053 80.2866C48.2 80.2876 48.2061 80.2865 48.2053 80.2866V80.2866Z" fill="#494949"/>
<path d="M97.4531 126C105.595 126 112.219 119.376 112.219 111.234C112.219 103.093 105.595 96.4688 97.4531 96.4688C89.3113 96.4688 82.6875 103.093 82.6875 111.234C82.6873 119.376 89.3112 126 97.4531 126ZM97.4531 98.9602C104.221 98.9602 109.727 104.466 109.727 111.234C109.727 118.002 104.221 123.508 97.4531 123.508C90.6851 123.508 85.1789 118.002 85.1789 111.234C85.1789 104.466 90.6851 98.9602 97.4531 98.9602Z" fill="#494949"/>
<path d="M94.9629 117.412C95.2009 117.628 95.5009 117.736 95.8007 117.736C96.1131 117.736 96.4252 117.619 96.6662 117.386L105.524 108.833C106.019 108.355 106.033 107.567 105.555 107.072C105.077 106.577 104.289 106.563 103.794 107.041L95.7755 114.783L93.2791 112.514C92.7703 112.051 91.9822 112.088 91.5193 112.597C91.0565 113.106 91.0939 113.894 91.6032 114.357L94.9629 117.412Z" fill="#494949"/>
</g>
<defs>
<clipPath id="clip0_4156_2900">
<rect width="126" height="126" fill="white"/>
</clipPath>
</defs>
</svg>
