<svg width="512" height="512" viewBox="0 0 512 512" fill="none" xmlns="http://www.w3.org/2000/svg">
<g clip-path="url(#clip0_3714_619)">
<circle cx="256" cy="520" r="200" fill="#FFE785"/>
<path d="M437.019 74.981C388.668 26.629 324.38 0 256 0C187.62 0 123.332 26.629 74.981 74.981C26.629 123.332 0 187.62 0 256C0 324.38 26.629 388.668 74.981 437.019C123.332 485.371 187.62 512 256 512C324.38 512 388.668 485.371 437.019 437.019C485.371 388.668 512 324.38 512 256C512 187.62 485.371 123.332 437.019 74.981ZM256 496.792C123.227 496.792 15.208 388.773 15.208 256C15.208 123.227 123.227 15.208 256 15.208C388.773 15.208 496.792 123.227 496.792 256C496.792 388.773 388.773 496.792 256 496.792Z" fill="#494949"/>
<path d="M415.512 96.488C372.905 53.882 316.256 30.416 256 30.416C195.744 30.416 139.095 53.882 96.488 96.488C53.881 139.095 30.416 195.744 30.416 256C30.416 316.256 53.881 372.905 96.488 415.512C139.095 458.119 195.744 481.584 256 481.584C316.256 481.584 372.905 458.118 415.512 415.512C458.119 372.905 481.584 316.256 481.584 256C481.584 195.744 458.118 139.095 415.512 96.488ZM256 466.376C139.998 466.376 45.624 372.002 45.624 256C45.624 139.998 139.998 45.624 256 45.624C372.002 45.624 466.376 139.998 466.376 256C466.376 372.002 372.002 466.376 256 466.376Z" fill="#494949"/>
<path d="M267.152 65.3945V106.289L245.418 65.3945H231.667V141.435H246.875V100.541L268.609 141.435H282.36V65.3945H267.152Z" fill="#494949"/>
<path d="M115.58 217.473V263.208L102.828 243.426H92.847L80.095 263.208V217.473H64.887V294.02H78.326L97.838 263.752L117.349 294.02H130.788V217.473H115.58Z" fill="#494949"/>
<path d="M445.592 233.188V217.98H397.434V294.02H445.592V278.812H412.642V263.604H445.592V248.396H412.642V233.188H445.592Z" fill="#494949"/>
<path d="M266.888 402.484L250.439 398.829C247.275 398.126 245.065 395.371 245.065 392.13C245.065 388.346 248.143 385.267 251.928 385.267H282.361V370.059H251.928C239.759 370.059 229.857 379.96 229.857 392.13C229.857 402.552 236.964 411.414 247.139 413.675L263.589 417.33C266.753 418.033 268.963 420.788 268.963 424.029C268.963 427.813 265.885 430.892 262.1 430.892H231.667V446.1H262.101C274.27 446.1 284.172 436.199 284.172 424.029C284.171 413.606 277.064 404.747 266.888 402.484Z" fill="#494949"/>
<path d="M295.23 228.537L326.912 196.856L316.158 186.102L284.477 217.783L124.374 123.363L218.794 283.466L187.113 315.146L197.866 325.9L229.547 294.22L389.65 388.64L295.23 228.537ZM167.411 166.397L280.138 232.876L346.617 345.603L233.891 279.124L167.411 166.397Z" fill="#494949"/>
<path d="M319.22 87.5005C323.751 89.2055 328.271 91.1225 332.653 93.1935L339.152 79.4455C334.399 77.1975 329.496 75.1195 324.581 73.2695L319.22 87.5005Z" fill="#494949"/>
<path d="M379.193 104.729L369.58 116.513C391.178 134.134 408.638 156.807 420.071 182.081L433.925 175.813C421.529 148.408 402.602 123.828 379.193 104.729Z" fill="#494949"/>
<path d="M345.576 99.9592C349.766 102.374 353.918 104.996 357.915 107.752L366.546 95.2312C362.214 92.2452 357.714 89.4022 353.172 86.7852L345.576 99.9592Z" fill="#494949"/>
<path d="M150.492 91.8708L158.736 104.651C162.81 102.024 167.038 99.5328 171.304 97.2478L164.122 83.8418C159.494 86.3198 154.908 89.0218 150.492 91.8708Z" fill="#494949"/>
<path d="M202.193 68.375C194.104 70.699 186.086 73.581 178.36 76.943L184.428 90.888C191.548 87.79 198.937 85.132 206.392 82.991L202.193 68.375Z" fill="#494949"/>
<path d="M92.485 149.545C87.239 157.575 82.552 166.058 78.554 174.758L92.373 181.109C96.059 173.088 100.38 165.266 105.218 157.862L92.485 149.545Z" fill="#494949"/>
<path d="M97.729 341.592L84.364 348.849C91.874 362.679 101.072 375.611 111.702 387.284L122.948 377.045C113.141 366.277 104.657 354.349 97.729 341.592Z" fill="#494949"/>
<path d="M122.81 398.539C126.648 402.128 130.678 405.603 134.787 408.867L144.247 396.959C140.456 393.947 136.737 390.741 133.196 387.43L122.81 398.539Z" fill="#494949"/>
<path d="M156.027 405.57L147.557 418.202C151.922 421.129 156.459 423.912 161.04 426.474L168.463 413.201C164.237 410.837 160.053 408.27 156.027 405.57Z" fill="#494949"/>
<path d="M343.537 413.199C336.042 417.39 328.188 421.068 320.196 424.129L325.635 438.331C334.308 435.009 342.828 431.018 350.958 426.472L343.537 413.199Z" fill="#494949"/>
<path d="M421.776 326.029C418.073 334.756 413.636 343.266 408.587 351.318L421.472 359.397C426.948 350.664 431.761 341.435 435.777 331.965L421.776 326.029Z" fill="#494949"/>
<path d="M278.518 266.754L267.764 277.508L278.517 288.261L289.27 277.507L278.518 266.754Z" fill="#494949"/>
<path d="M224.754 234.497L235.507 245.25L246.261 234.496L235.508 223.744L224.754 234.497Z" fill="#494949"/>
<path d="M246.261 256.005L257.014 266.758L267.766 256.006L257.013 245.253L246.261 256.005Z" fill="#494949"/>
<path d="M358.4 141.941H343.192V157.149H358.4V141.941Z" fill="#494949"/>
<path d="M327.984 141.941H312.776V157.149H327.984V141.941Z" fill="#494949"/>
<path d="M168.808 354.852H153.6V370.06H168.808V354.852Z" fill="#494949"/>
<path d="M199.224 354.852H184.016V370.06H199.224V354.852Z" fill="#494949"/>
</g>
<defs>
<clipPath id="clip0_3714_619">
<rect width="512" height="512" fill="white"/>
</clipPath>
</defs>
</svg>
