<svg width="50" height="50" viewBox="0 0 50 50" fill="none" xmlns="http://www.w3.org/2000/svg">
<g clip-path="url(#clip0_3955_522)">
<circle cx="25.4688" cy="54.8633" r="20" fill="#FFE785"/>
<path d="M49.7799 22.4423C49.4906 22.131 49.0263 22.127 48.7292 22.4257L45.0749 26.2328C45.1165 25.6682 45.1384 25.0959 45.1384 24.5291C45.1384 14.6606 38.9328 6.04391 30.0479 3.57553C28.3939 3.116 26.6984 2.88306 25.0073 2.88306L24.7352 2.88482C24.3169 2.89119 23.9824 3.26164 23.9884 3.71198C23.9943 4.15831 24.3323 4.5158 24.7458 4.5158H24.7566L25.007 4.51392C26.5703 4.51392 28.1386 4.72954 29.6686 5.15455C37.8848 7.43735 43.6229 15.4044 43.6229 24.529C43.6229 25.0954 43.6003 25.6683 43.5551 26.2313C43.5544 26.2389 43.5547 26.2466 43.5542 26.2541L39.9712 22.274C39.68 21.95 39.2003 21.9425 38.8999 22.2559C38.5994 22.5691 38.5919 23.0854 38.883 23.4089L43.7196 28.7816C43.8593 28.9369 44.0508 29.0259 44.2519 29.0295H44.2637C44.4604 29.0295 44.6497 28.947 44.7908 28.7996L49.7806 23.5929C50.0753 23.2749 50.0751 22.7602 49.7799 22.4423V22.4423Z" fill="#494949"/>
<path d="M9.35265 41.2687C9.05861 40.9476 8.57988 40.9436 8.28091 41.259C7.98282 41.5747 7.97877 42.091 8.27204 42.4122C8.75756 42.9436 9.27142 43.4584 9.79963 43.9422C9.94238 44.0729 10.1167 44.1369 10.2905 44.1369C10.505 44.1369 10.7181 44.0395 10.8675 43.8498C11.1388 43.5068 11.1003 42.9926 10.7817 42.7005C10.2875 42.2476 9.80653 41.766 9.35265 41.2687V41.2687Z" fill="#494949"/>
<path d="M25.1349 48.369C21.1918 48.369 17.3236 47.2482 13.9482 45.1288C13.5864 44.902 13.1227 45.033 12.912 45.4223C12.7011 45.8113 12.823 46.3105 13.1845 46.5376C16.7913 48.8028 20.9238 49.9999 25.1349 49.9999C25.5534 49.9999 25.8925 49.6349 25.8925 49.1846C25.8925 48.7339 25.5534 48.369 25.1349 48.369V48.369Z" fill="#494949"/>
<path d="M6.34313 37.1471C6.12232 36.7646 5.65575 36.6468 5.29996 36.8838C4.94429 37.1213 4.8347 37.6239 5.05529 38.0066C5.2391 38.3252 5.42903 38.6392 5.6251 38.9476C5.77179 39.1782 6.00935 39.3025 6.25095 39.3025C6.39841 39.3025 6.5473 39.2564 6.67823 39.16C7.0235 38.9058 7.11163 38.3983 6.8755 38.0264C6.69202 37.7379 6.51445 37.4452 6.34313 37.1471V37.1471Z" fill="#494949"/>
<path d="M44.5822 13.0786C44.7198 13.3499 44.9798 13.5037 45.248 13.5037C45.3705 13.5037 45.4948 13.4715 45.61 13.4039C45.9776 13.188 46.1125 12.6927 45.9124 12.2974C45.5802 11.642 45.2169 10.9956 44.8334 10.3757C44.6009 10.001 44.131 9.89957 43.7828 10.1496C43.4346 10.3995 43.3405 10.9057 43.5727 11.2805C43.9317 11.8602 44.2714 12.4653 44.5822 13.0786V13.0786Z" fill="#494949"/>
<path d="M31.1778 1.60078C34.9569 2.74406 38.3925 4.95911 41.1128 8.00697C41.2616 8.1737 41.4601 8.25759 41.6593 8.25759C41.8481 8.25759 42.0372 8.18206 42.1841 8.02995C42.4858 7.71806 42.4954 7.20173 42.2054 6.87724C39.2981 3.62 35.6268 1.25236 31.5877 0.0308357C31.1869 -0.0915877 30.7668 0.161507 30.6534 0.59535C30.5403 1.02872 30.7748 1.47894 31.1778 1.60078V1.60078Z" fill="#494949"/>
<path d="M18.8907 18.4371C18.595 18.1188 18.1153 18.1188 17.8195 18.4371C17.5237 18.7554 17.5237 19.2719 17.8195 19.5902L24.1332 26.3861C24.2814 26.5451 24.4752 26.6248 24.6691 26.6248C24.8628 26.6248 25.0566 26.5451 25.2046 26.3857L36.9483 13.7458C37.244 13.4276 37.244 12.9109 36.9483 12.5926C36.6524 12.2741 36.1728 12.2741 35.8769 12.5926L24.669 24.6561L18.8907 18.4371Z" fill="#494949"/>
<path d="M24.7226 10.9499C25.141 10.9499 25.4801 10.5849 25.4801 10.1346V7.50677C25.4801 7.05608 25.141 6.69116 24.7226 6.69116C24.3041 6.69116 23.9648 7.05608 23.9648 7.50677V10.1346C23.965 10.5849 24.3041 10.9499 24.7226 10.9499Z" fill="#494949"/>
<path d="M23.9648 39.0388V41.6668C23.9648 42.1171 24.304 42.482 24.7226 42.482C25.141 42.482 25.4801 42.1171 25.4801 41.6668V39.0388C25.4801 38.5884 25.141 38.2234 24.7226 38.2234C24.304 38.2233 23.9648 38.5884 23.9648 39.0388Z" fill="#494949"/>
<path d="M18.5706 11.7156C18.6959 12.0192 18.9729 12.1999 19.2629 12.1999C19.3658 12.1999 19.4706 12.1769 19.5705 12.1289C19.9527 11.9458 20.1244 11.4639 19.9544 11.0523L18.9615 8.65194C18.7915 8.24072 18.3439 8.05538 17.9612 8.23872C17.5791 8.42182 17.4073 8.90374 17.5773 9.31508L18.5706 11.7156Z" fill="#494949"/>
<path d="M29.879 37.0445C29.4972 37.2277 29.3252 37.7098 29.4953 38.1214L30.4885 40.5218C30.6139 40.8254 30.8908 41.0059 31.1809 41.0059C31.2838 41.0059 31.3887 40.9831 31.4886 40.9349C31.8705 40.7518 32.0425 40.2699 31.8723 39.8583L30.8792 37.4574C30.7094 37.0468 30.2618 36.8613 29.879 37.0445V37.0445Z" fill="#494949"/>
<path d="M14.2638 15.5224C14.4089 15.6628 14.5901 15.7319 14.7707 15.7319C14.9778 15.7319 15.1844 15.6408 15.3341 15.4618C15.6139 15.1274 15.589 14.6116 15.2781 14.3103L13.4641 12.5522C13.1527 12.2508 12.6743 12.2781 12.3938 12.6124C12.1139 12.9473 12.1389 13.4631 12.4499 13.7643L14.2638 15.5224Z" fill="#494949"/>
<path d="M35.2102 33.6508C34.8998 33.3495 34.4204 33.3766 34.1398 33.711C33.8601 34.0456 33.8849 34.5611 34.1959 34.863L36.0103 36.6218C36.1552 36.7623 36.3363 36.8312 36.5173 36.8312C36.7245 36.8312 36.9309 36.7401 37.0806 36.5616C37.3604 36.2268 37.3358 35.7114 37.0247 35.4097L35.2102 33.6508Z" fill="#494949"/>
<path d="M12.6986 20.373C12.828 19.9449 12.6101 19.4848 12.2123 19.3454L9.89039 18.5334C9.49432 18.3958 9.06529 18.6286 8.93568 19.0572C8.8065 19.4853 9.02413 19.9456 9.42228 20.0848L11.7441 20.897C11.8218 20.9239 11.9007 20.937 11.9785 20.937C12.2973 20.9369 12.5944 20.7175 12.6986 20.373Z" fill="#494949"/>
<path d="M39.8301 30.6807C40.1492 30.6807 40.4467 30.4617 40.5506 30.1174C40.68 29.6887 40.4621 29.2286 40.0645 29.0893L37.7423 28.2769C37.3441 28.1379 36.9167 28.372 36.7873 28.8002C36.6579 29.2286 36.8758 29.6887 37.2735 29.8281L39.5956 30.6405C39.6737 30.6676 39.7526 30.6807 39.8301 30.6807V30.6807Z" fill="#494949"/>
<path d="M8.93566 30.1167C9.03966 30.4613 9.33666 30.6806 9.6561 30.6806C9.73382 30.6806 9.81286 30.6675 9.89048 30.6404L12.2124 29.8287C12.6104 29.6893 12.8282 29.2296 12.6989 28.8008C12.5697 28.3727 12.1415 28.1393 11.7442 28.2772L9.42226 29.089C9.02433 29.2283 8.80648 29.6884 8.93566 30.1167V30.1167Z" fill="#494949"/>
<path d="M40.551 19.0573C40.4218 18.6287 39.9949 18.3952 39.5963 18.5334L37.2738 19.345C36.8761 19.4843 36.658 19.9443 36.7872 20.3726C36.8912 20.7172 37.1882 20.9365 37.5076 20.9365C37.5853 20.9365 37.6639 20.9234 37.7421 20.8965L40.0645 20.0849C40.4621 19.9457 40.6801 19.4857 40.551 19.0573V19.0573Z" fill="#494949"/>
<path d="M12.9572 36.8307C13.1377 36.8307 13.3189 36.7618 13.4637 36.6213L15.2786 34.8635C15.5897 34.5621 15.6146 34.0464 15.3346 33.7116C15.0555 33.3772 14.576 33.3494 14.2648 33.6511L12.45 35.4094C12.1389 35.7105 12.1138 36.2261 12.3939 36.5609C12.5434 36.7399 12.7498 36.8307 12.9572 36.8307V36.8307Z" fill="#494949"/>
<path d="M17.9613 40.9352C18.0615 40.9834 18.1662 41.0062 18.2691 41.0062C18.559 41.0062 18.836 40.8261 18.9616 40.5222L19.9551 38.1213C20.1253 37.71 19.9535 37.2277 19.5714 37.0447C19.1886 36.8613 18.741 37.0465 18.5709 37.4577L17.5774 39.8583C17.4072 40.2701 17.5792 40.7522 17.9613 40.9352V40.9352Z" fill="#494949"/>
<path d="M30.1871 12.2C30.477 12.2 30.7538 12.0197 30.8795 11.7159L31.8732 9.31554C32.0436 8.90432 31.8716 8.42193 31.4895 8.23883C31.1077 8.05537 30.6592 8.24047 30.489 8.65193L29.4954 11.0522C29.3252 11.4634 29.497 11.9459 29.8791 12.1289C29.9793 12.1771 30.084 12.2 30.1871 12.2V12.2Z" fill="#494949"/>
<path d="M7.03878 16.7759C7.13916 16.8241 7.24393 16.847 7.34727 16.847C7.63705 16.847 7.91379 16.6669 8.03969 16.3637C8.14204 16.1167 8.249 15.8723 8.36011 15.631C8.54622 15.2272 8.39307 14.7379 8.01812 14.5381C7.64274 14.3373 7.18865 14.5024 7.00276 14.9062C6.88278 15.1672 6.76707 15.4312 6.65595 15.6986C6.48517 16.1098 6.65672 16.5921 7.03878 16.7759V16.7759Z" fill="#494949"/>
<path d="M8.82645 13.1373C8.95967 13.2394 9.11305 13.2883 9.26499 13.2883C9.502 13.2883 9.73551 13.1689 9.88308 12.9448C10.4429 12.0969 11.0706 11.2891 11.7485 10.5442C12.0412 10.2224 12.0363 9.70618 11.7371 9.39111C11.4387 9.07651 10.9593 9.08134 10.6659 9.40325C9.93289 10.2091 9.25383 11.0825 8.64812 11.9999C8.40541 12.3673 8.48566 12.8763 8.82645 13.1373V13.1373Z" fill="#494949"/>
<path d="M25.2887 44.5715L25.0386 44.5734C23.4755 44.5734 21.9071 44.3577 20.3765 43.9326C12.1606 41.6502 6.42245 33.6837 6.42245 24.5599C6.42245 23.9954 6.44544 23.4222 6.49054 22.8566C6.49087 22.8525 6.49065 22.8483 6.49098 22.8441C6.49098 22.8441 10.0473 26.7945 10.0508 26.798C10.3494 27.1194 10.8311 27.1215 11.1269 26.8031C11.4205 26.4875 11.4199 25.9751 11.1285 25.653L11.1291 25.6523L6.29284 20.2802C6.00186 19.9561 5.52204 19.9487 5.22153 20.262L0.230341 25.4674C-0.0701623 25.7807 -0.0776065 26.297 0.213701 26.6206C0.362036 26.7857 0.559744 26.8685 0.757781 26.8685C0.947606 26.8685 1.13787 26.792 1.28489 26.6384L4.97599 22.7892C4.93088 23.3774 4.90735 23.9729 4.90735 24.56C4.90735 34.4278 11.1129 43.0438 19.9977 45.5123C21.6521 45.9715 23.3478 46.2046 25.0387 46.2046L25.3106 46.2024C25.729 46.1961 26.0633 45.8256 26.0574 45.3754C26.0511 44.925 25.7153 44.5606 25.2887 44.5715V44.5715Z" fill="#494949"/>
<path d="M13.4729 8.6466C13.6303 8.6466 13.7888 8.59393 13.9247 8.48494C16.2651 6.61065 19.0152 5.33811 21.8772 4.80482C22.2896 4.72811 22.5658 4.30593 22.4944 3.86219C22.4228 3.41869 22.0297 3.122 21.6188 3.19788C18.5235 3.77441 15.55 5.15052 13.02 7.17693C12.6844 7.44558 12.6151 7.95648 12.8648 8.31798C13.0134 8.5329 13.2416 8.6466 13.4729 8.6466V8.6466Z" fill="#494949"/>
<path d="M42.9981 32.3126C42.6156 32.1284 42.1677 32.3129 41.9972 32.7246C41.8945 32.972 41.7876 33.2159 41.6766 33.4572C41.4907 33.8609 41.6442 34.35 42.0194 34.5497C42.1275 34.6074 42.2422 34.6345 42.3551 34.6345C42.6341 34.6345 42.9026 34.4683 43.0346 34.1809C43.1545 33.9205 43.2699 33.6567 43.381 33.3894C43.5517 32.9788 43.3801 32.4963 42.9981 32.3126V32.3126Z" fill="#494949"/>
<path d="M36.1356 40.6027C33.7951 42.4769 31.0453 43.7494 28.1831 44.2827C27.7707 44.3594 27.4945 44.7816 27.5659 45.2252C27.6297 45.6217 27.9498 45.9018 28.3114 45.9018C28.3542 45.9018 28.3979 45.8979 28.4416 45.8897C31.5368 45.3131 34.5103 43.937 37.04 41.9106C37.3759 41.642 37.4452 41.1311 37.1955 40.7697C36.9458 40.4084 36.4713 40.3336 36.1356 40.6027V40.6027Z" fill="#494949"/>
<path d="M41.2509 35.9503C40.9096 35.6888 40.4376 35.7758 40.1946 36.1426C39.6348 36.9911 39.0071 37.7987 38.3297 38.543C38.0369 38.8648 38.0417 39.381 38.3409 39.6961C38.4882 39.8515 38.6795 39.9289 38.8712 39.9289C39.0677 39.9289 39.264 39.8469 39.4123 39.6839C40.1453 38.8787 40.8239 38.0049 41.4298 37.0869C41.6723 36.72 41.5923 36.2109 41.2509 35.9503V35.9503Z" fill="#494949"/>
</g>
<defs>
<clipPath id="clip0_3955_522">
<rect width="50" height="50" fill="white"/>
</clipPath>
</defs>
</svg>
