<svg id="Layer_1" data-name="Layer 1" xmlns="http://www.w3.org/2000/svg" viewBox="0 0 50 50"><defs><style>.cls-1{opacity:0.7;}.cls-2{fill:#ffcc05;}.cls-3{fill:#494949;}</style></defs><title>Iconset for homepage 2</title><g class="cls-1"><path class="cls-2" d="M1.875,42.363a13.705,13.705,0,0,1,27.41,0"/></g><path class="cls-3" d="M38.24,43.463H3.546A3.528,3.528,0,0,1,.022,39.938V34.01a1.1,1.1,0,1,1,2.2,0v5.928a1.327,1.327,0,0,0,1.325,1.325H38.24a1.327,1.327,0,0,0,1.325-1.325V26.555a1.1,1.1,0,1,1,2.2,0V39.938A3.528,3.528,0,0,1,38.24,43.463Z"/><path class="cls-3" d="M1.122,22.261a1.1,1.1,0,0,1-1.1-1.1V18.556a3.529,3.529,0,0,1,3.524-3.525H30.039a1.1,1.1,0,0,1,0,2.2H3.546a1.327,1.327,0,0,0-1.325,1.325v2.605A1.1,1.1,0,0,1,1.122,22.261Z"/><path class="cls-3" d="M1.122,30.863a1.1,1.1,0,0,1-1.1-1.1v-4.07a1.1,1.1,0,1,1,2.2,0v4.07A1.1,1.1,0,0,1,1.122,30.863Z"/><path class="cls-3" d="M25.56,27.854H16.335a1.1,1.1,0,0,1,0-2.2H25.56a1.1,1.1,0,0,1,0,2.2Z"/><path class="cls-3" d="M25.451,24.69H16.226a1.1,1.1,0,1,1,0-2.2h9.225a1.1,1.1,0,0,1,0,2.2Z"/><path class="cls-3" d="M21.679,36a1.1,1.1,0,0,1-.924-.5l-2.82-4.343a1.1,1.1,0,0,1,.331-1.526l.634-.405c2.2-1.216,2.741-2.852,1.682-4.9a1.111,1.111,0,0,1-.122-.557l0-.1a1.1,1.1,0,0,1,2.186-.12c1.393,2.913.557,5.624-2.259,7.356l2.209,3.4a1.1,1.1,0,0,1-.922,1.7Z"/><path class="cls-3" d="M39.637,27.219A10.341,10.341,0,1,1,49.978,16.878,10.353,10.353,0,0,1,39.637,27.219Zm0-18.482a8.141,8.141,0,1,0,8.142,8.141A8.15,8.15,0,0,0,39.637,8.737Z"/><path class="cls-3" d="M36.059,21.556a1.1,1.1,0,0,1-.777-1.878l7.157-7.156a1.1,1.1,0,1,1,1.555,1.555l-7.158,7.157A1.091,1.091,0,0,1,36.059,21.556Z"/><path class="cls-3" d="M43.216,21.556a1.093,1.093,0,0,1-.777-.322l-7.157-7.157a1.1,1.1,0,1,1,1.554-1.555l7.158,7.156a1.1,1.1,0,0,1-.778,1.878Z"/></svg>