<svg width="512" height="512" viewBox="0 0 512 512" fill="none" xmlns="http://www.w3.org/2000/svg">
<g clip-path="url(#clip0_3761_1531)">
<circle cx="256" cy="512" r="200" fill="#FFE785"/>
<path d="M418.944 18H280.144C279.225 17.9995 278.314 18.1802 277.465 18.5318C276.615 18.8834 275.843 19.399 275.193 20.0491C274.543 20.6992 274.027 21.4711 273.676 22.3206C273.324 23.1701 273.143 24.0806 273.144 25V38.696C268.285 39.623 263.658 41.5033 259.53 44.2282C255.402 46.9531 251.854 50.4687 249.092 54.572C210.774 55.5692 174.358 71.4792 147.592 98.9167C120.826 126.354 105.823 163.153 105.776 201.484V311.444L100.092 337.636H93C91.1435 337.636 89.363 338.373 88.0503 339.686C86.7375 340.999 86 342.78 86 344.636V486.544C86 488.401 86.7375 490.181 88.0503 491.494C89.363 492.806 91.1435 493.544 93 493.544H160.372C161.291 493.545 162.202 493.364 163.051 493.012C163.901 492.661 164.673 492.145 165.323 491.495C165.973 490.845 166.489 490.073 166.84 489.223C167.192 488.374 167.373 487.463 167.372 486.544V344.636C167.373 343.717 167.192 342.806 166.84 341.957C166.489 341.107 165.973 340.335 165.323 339.685C164.673 339.035 163.901 338.519 163.051 338.168C162.202 337.816 161.291 337.635 160.372 337.636H153.296L147.612 311.444V201.32C147.648 174.074 158.261 147.907 177.215 128.335C196.169 108.762 221.982 97.3143 249.212 96.404C250.248 97.9067 251.394 99.3305 252.64 100.664V129.668C233.538 131.432 215.781 140.261 202.846 154.427C189.91 168.593 182.726 187.077 182.7 206.26V466.544C182.707 473.703 185.554 480.566 190.616 485.628C195.678 490.69 202.541 493.537 209.7 493.544H350.552C357.711 493.537 364.574 490.69 369.636 485.628C374.698 480.566 377.545 473.703 377.552 466.544V206.26C377.526 187.075 370.341 168.591 357.403 154.425C344.466 140.259 326.708 131.43 307.604 129.668V100.664C312.294 95.586 315.479 89.304 316.804 82.52C346.34 83.5697 375.317 90.8803 401.816 103.968C403.439 104.87 405.354 105.09 407.139 104.58C408.925 104.07 410.434 102.871 411.336 101.248C412.238 99.6249 412.458 97.71 411.948 95.9247C411.438 94.1393 410.239 92.6297 408.616 91.728C389.836 82.154 369.719 75.4694 348.944 71.9L420.832 51.772C422.303 51.3587 423.598 50.4761 424.521 49.2587C425.444 48.0413 425.943 46.5557 425.944 45.028V25.028C425.948 24.1064 425.769 23.1931 425.419 22.3406C425.069 21.4881 424.554 20.7131 423.904 20.0601C423.253 19.4072 422.48 18.889 421.629 18.5355C420.778 18.182 419.866 18 418.944 18V18ZM280.144 52C284.77 52.0008 289.291 53.3731 293.137 55.9435C296.982 58.5139 299.979 62.1669 301.749 66.4406C303.518 70.7142 303.981 75.4167 303.078 79.9532C302.175 84.4898 299.947 88.6568 296.676 91.9272C293.405 95.1977 289.238 97.4248 284.701 98.3269C280.165 99.229 275.462 98.7656 271.189 96.9953C266.916 95.225 263.263 92.2273 260.693 88.3813C258.124 84.5352 256.752 80.0135 256.752 75.388C256.763 69.1915 259.229 63.2519 263.61 58.8704C267.992 54.4888 273.932 52.0226 280.128 52.012L280.144 52ZM266.664 129.304V110.232C275.326 113.641 284.958 113.641 293.62 110.232V129.316L266.664 129.304ZM153.384 479.544H100V351.636H153.384V479.544ZM114.42 337.636L118.42 319.196H134.968L138.968 337.636H114.42ZM133.62 201.32V305.196H119.776V201.484C119.82 167.859 132.585 135.496 155.507 110.894C178.429 86.2923 209.81 71.2743 243.348 68.856C242.495 73.4364 242.534 78.1385 243.464 82.704C213.593 85.0389 185.698 98.5436 165.339 120.527C144.98 142.51 133.652 171.358 133.612 201.32H133.62ZM363.572 206.26V466.544C363.568 469.991 362.197 473.295 359.76 475.732C357.323 478.169 354.019 479.54 350.572 479.544H209.7C206.253 479.54 202.949 478.169 200.512 475.732C198.075 473.295 196.704 469.991 196.7 466.544V206.26C196.719 189.571 203.357 173.572 215.158 161.772C226.959 149.971 242.959 143.334 259.648 143.316H300.604C317.296 143.329 333.301 149.964 345.107 161.764C356.912 173.565 363.553 189.568 363.572 206.26V206.26ZM411.972 39.704L316.392 66.48C314.675 59.5386 311.007 53.2337 305.821 48.3103C300.636 43.3869 294.149 40.0507 287.128 38.696V32H411.928L411.972 39.704Z" fill="#494949"/>
<path d="M212.516 247.912V374.944C212.516 375.864 212.696 376.774 213.048 377.624C213.399 378.473 213.915 379.245 214.565 379.895C215.215 380.545 215.987 381.061 216.837 381.412C217.686 381.764 218.597 381.945 219.516 381.944H340.736C342.593 381.944 344.373 381.207 345.686 379.894C346.999 378.581 347.736 376.801 347.736 374.944V247.912C347.736 246.056 346.999 244.275 345.686 242.962C344.373 241.65 342.593 240.912 340.736 240.912H219.536C218.615 240.909 217.702 241.088 216.851 241.438C215.999 241.789 215.224 242.304 214.572 242.954C213.92 243.605 213.403 244.377 213.05 245.228C212.697 246.079 212.516 246.991 212.516 247.912V247.912ZM226.516 254.912H333.736V367.944H226.536L226.516 254.912Z" fill="#494949"/>
</g>
<defs>
<clipPath id="clip0_3761_1531">
<rect width="512" height="512" fill="white"/>
</clipPath>
</defs>
</svg>
