<svg width="194" height="194" viewBox="0 0 194 194" fill="none" xmlns="http://www.w3.org/2000/svg">
<g clip-path="url(#clip0_4262_2575)">
<circle cx="97" cy="211.051" r="75.7812" fill="#FFE785"/>
<path d="M186.054 65.6311C157.913 36.619 163.105 40.2126 159.53 38.9652H104.793L83.9914 17.116C83.4828 16.6022 82.7939 16.307 82.0711 16.293H17.0508C14.3385 16.2962 11.7382 17.3751 9.82029 19.2929C7.9024 21.2108 6.82352 23.8111 6.82031 26.5234V144.651C6.82352 147.364 7.9024 149.964 9.82029 151.882C11.7382 153.8 14.3385 154.879 17.0508 154.882H84.2839V167.325C84.2871 170.037 85.366 172.638 87.2839 174.555C89.2018 176.473 91.8021 177.552 94.5144 177.555H176.616C179.328 177.552 181.928 176.473 183.846 174.555C185.764 172.638 186.843 170.037 186.846 167.325V67.5211C186.832 66.8131 186.549 66.1371 186.054 65.6311V65.6311ZM162.187 48.2575L178.001 64.8687H162.187V48.2575ZM119.234 112.217C112.111 112.217 96.803 112.217 89.5886 112.217V104.305H119.234C119.938 104.305 120.612 104.026 121.11 103.528C121.607 103.031 121.887 102.356 121.887 101.653V93.261L141.287 108.246L121.887 123.24V114.869C121.887 114.166 121.607 113.491 121.11 112.994C120.612 112.496 119.938 112.217 119.234 112.217V112.217ZM74.4369 81.624H104.078V89.5507H74.4369C74.0885 89.5505 73.7435 89.619 73.4216 89.7522C73.0998 89.8854 72.8073 90.0808 72.561 90.3271C72.3146 90.5734 72.1193 90.8659 71.986 91.1878C71.8528 91.5097 71.7843 91.8547 71.7845 92.203V100.575L52.3845 85.5798L71.7845 70.5948V78.9716C71.7843 79.32 71.8528 79.665 71.986 79.9869C72.1193 80.3088 72.3146 80.6012 72.561 80.8476C72.8073 81.0939 73.0998 81.2893 73.4216 81.4225C73.7435 81.5557 74.0885 81.6242 74.4369 81.624V81.624ZM100.539 42.195H84.7234V25.5792L100.539 42.195ZM12.125 144.651V26.5234C12.1266 25.2175 12.6461 23.9656 13.5695 23.0422C14.4929 22.1187 15.7449 21.5993 17.0508 21.5977H79.4187V44.8473C79.4187 45.5508 79.6982 46.2254 80.1956 46.7228C80.693 47.2202 81.3676 47.4997 82.0711 47.4997H104.078V76.3193H77.0892V65.1946C77.0823 64.7018 76.9391 64.2204 76.6754 63.804C76.4118 63.3875 76.038 63.0521 75.5955 62.8349C75.1531 62.6178 74.6591 62.5273 74.1684 62.5736C73.6776 62.6198 73.2093 62.801 72.8152 63.097L46.4281 83.4806C46.1101 83.7302 45.853 84.0488 45.6762 84.4123C45.4994 84.7758 45.4076 85.1748 45.4076 85.579C45.4076 85.9832 45.4994 86.3822 45.6762 86.7457C45.853 87.1092 46.1101 87.4278 46.4281 87.6774L72.8137 108.078C73.2777 108.439 73.849 108.635 74.4369 108.634C75.139 108.63 75.8111 108.349 76.3075 107.852C76.804 107.356 77.0849 106.684 77.0892 105.982V94.8554H104.078V99.0006H86.9363C86.2328 99.0006 85.5582 99.2801 85.0608 99.7775C84.5633 100.275 84.2839 100.95 84.2839 101.653V114.869C84.2839 115.573 84.5633 116.247 85.0608 116.745C85.5582 117.242 86.2328 117.522 86.9363 117.522H104.078V144.651C104.076 145.957 103.557 147.209 102.633 148.133C101.71 149.056 100.458 149.575 99.1522 149.577H17.0508C15.7449 149.575 14.4929 149.056 13.5695 148.133C12.6461 147.209 12.1266 145.957 12.125 144.651V144.651ZM181.542 167.325C181.54 168.631 181.02 169.883 180.097 170.806C179.174 171.73 177.922 172.249 176.616 172.251H94.5144C93.2085 172.249 91.9565 171.73 91.0331 170.806C90.1097 169.883 89.5902 168.631 89.5886 167.325V154.882H99.1522C101.864 154.879 104.465 153.8 106.383 151.882C108.301 149.964 109.379 147.364 109.383 144.651V117.522H116.582V128.646C116.582 129.142 116.721 129.628 116.983 130.049C117.245 130.47 117.62 130.809 118.066 131.027C118.514 131.235 119.009 131.318 119.5 131.269C119.992 131.219 120.46 131.037 120.857 130.744L147.243 110.344C147.56 110.094 147.817 109.775 147.994 109.411C148.17 109.048 148.262 108.649 148.262 108.245C148.262 107.841 148.17 107.442 147.994 107.079C147.817 106.715 147.56 106.397 147.243 106.147L120.856 85.7616C120.464 85.4585 119.994 85.2714 119.501 85.2215C119.007 85.1717 118.51 85.2611 118.065 85.4797C117.62 85.6983 117.245 86.0373 116.983 86.4581C116.721 86.879 116.582 87.3649 116.582 87.8608V99.0006H109.383C109.383 94.6826 109.392 83.423 109.383 78.9716C109.367 78.9247 109.383 44.8989 109.383 44.8458C109.372 44.6533 109.351 44.4616 109.319 44.2714H156.878V67.5211C156.878 67.8698 156.947 68.2151 157.08 68.5372C157.214 68.8592 157.409 69.1518 157.656 69.3982C157.903 69.6445 158.196 69.8398 158.518 69.9728C158.841 70.1059 159.186 70.174 159.535 70.1734H181.542V167.325Z" fill="#494949"/>
<path d="M140.191 87.8669C140.191 88.5704 140.471 89.245 140.968 89.7424C141.466 90.2398 142.14 90.5193 142.844 90.5193H167.723C168.426 90.5193 169.101 90.2398 169.598 89.7424C170.096 89.245 170.375 88.5704 170.375 87.8669C170.375 87.1635 170.096 86.4889 169.598 85.9915C169.101 85.494 168.426 85.2146 167.723 85.2146H142.844C142.14 85.215 141.466 85.4946 140.969 85.9919C140.471 86.4892 140.192 87.1636 140.191 87.8669V87.8669Z" fill="#494949"/>
<path d="M167.724 105.607H155.285C154.582 105.607 153.907 105.887 153.41 106.384C152.912 106.881 152.633 107.556 152.633 108.26C152.633 108.963 152.912 109.638 153.41 110.135C153.907 110.632 154.582 110.912 155.285 110.912H167.724C168.427 110.912 169.102 110.632 169.599 110.135C170.097 109.638 170.376 108.963 170.376 108.26C170.376 107.556 170.097 106.881 169.599 106.384C169.102 105.887 168.427 105.607 167.724 105.607V105.607Z" fill="#494949"/>
<path d="M167.723 126.001H142.844C142.14 126.001 141.466 126.281 140.968 126.778C140.471 127.276 140.191 127.95 140.191 128.654C140.191 129.357 140.471 130.032 140.968 130.529C141.466 131.027 142.14 131.306 142.844 131.306H167.723C168.426 131.306 169.101 131.027 169.598 130.529C170.096 130.032 170.375 129.357 170.375 128.654C170.375 127.95 170.096 127.276 169.598 126.778C169.101 126.281 168.426 126.001 167.723 126.001V126.001Z" fill="#494949"/>
<path d="M25.9414 67.8469H50.8219C51.5254 67.8469 52.2 67.5675 52.6974 67.0701C53.1948 66.5727 53.4743 65.898 53.4743 65.1946C53.4743 64.4911 53.1948 63.8165 52.6974 63.3191C52.2 62.8217 51.5254 62.5422 50.8219 62.5422H25.9414C25.238 62.5422 24.5633 62.8217 24.0659 63.3191C23.5685 63.8165 23.2891 64.4911 23.2891 65.1946C23.2891 65.898 23.5685 66.5727 24.0659 67.0701C24.5633 67.5675 25.238 67.8469 25.9414 67.8469V67.8469Z" fill="#494949"/>
<path d="M25.9414 88.2397H38.3817C39.0851 88.2397 39.7597 87.9603 40.2571 87.4629C40.7546 86.9655 41.034 86.2908 41.034 85.5874C41.034 84.884 40.7546 84.2093 40.2571 83.7119C39.7597 83.2145 39.0851 82.9351 38.3817 82.9351H25.9414C25.238 82.9351 24.5633 83.2145 24.0659 83.7119C23.5685 84.2093 23.2891 84.884 23.2891 85.5874C23.2891 86.2908 23.5685 86.9655 24.0659 87.4629C24.5633 87.9603 25.238 88.2397 25.9414 88.2397V88.2397Z" fill="#494949"/>
<path d="M50.8219 103.329H25.9414C25.238 103.329 24.5633 103.609 24.0659 104.106C23.5685 104.604 23.2891 105.278 23.2891 105.982C23.2891 106.685 23.5685 107.36 24.0659 107.857C24.5633 108.355 25.238 108.634 25.9414 108.634H50.8219C51.5254 108.634 52.2 108.355 52.6974 107.857C53.1948 107.36 53.4743 106.685 53.4743 105.982C53.4743 105.278 53.1948 104.604 52.6974 104.106C52.2 103.609 51.5254 103.329 50.8219 103.329V103.329Z" fill="#494949"/>
</g>
<defs>
<clipPath id="clip0_4262_2575">
<rect width="194" height="194" fill="white"/>
</clipPath>
</defs>
</svg>
