<svg width="32" height="32" viewBox="0 0 32 32" fill="none" xmlns="http://www.w3.org/2000/svg">
<g clip-path="url(#clip0_9147_2954)">
<path d="M30.6892 10.8258C26.0475 6.04025 26.904 6.633 26.3142 6.42725H17.2855L13.8542 2.82325C13.7704 2.73851 13.6567 2.68981 13.5375 2.6875H2.8125C2.36511 2.68803 1.93619 2.86599 1.61984 3.18234C1.30349 3.49869 1.12553 3.92761 1.125 4.375V23.86C1.12553 24.3074 1.30349 24.7363 1.61984 25.0527C1.93619 25.369 2.36511 25.547 2.8125 25.5475H13.9025V27.6C13.903 28.0474 14.081 28.4763 14.3973 28.7927C14.7137 29.109 15.1426 29.287 15.59 29.2875H29.1325C29.5799 29.287 30.0088 29.109 30.3252 28.7927C30.6415 28.4763 30.8195 28.0474 30.82 27.6V11.1375C30.8177 11.0207 30.7709 10.9092 30.6892 10.8258V10.8258ZM26.7525 7.96L29.361 10.7H26.7525V7.96ZM19.6675 18.51C18.4925 18.51 15.9675 18.51 14.7775 18.51V17.205H19.6675C19.7835 17.205 19.8948 17.1589 19.9769 17.0769C20.0589 16.9948 20.105 16.8835 20.105 16.7675V15.3833L23.305 17.855L20.105 20.3282V18.9475C20.105 18.8315 20.0589 18.7202 19.9769 18.6381C19.8948 18.5561 19.7835 18.51 19.6675 18.51V18.51ZM12.2782 13.4637H17.1675V14.7712H12.2782C12.2208 14.7712 12.1639 14.7825 12.1108 14.8045C12.0577 14.8265 12.0094 14.8587 11.9688 14.8993C11.9282 14.9399 11.896 14.9882 11.874 15.0413C11.852 15.0944 11.8407 15.1513 11.8407 15.2087V16.5897L8.64075 14.1163L11.8407 11.6445V13.0262C11.8407 13.0837 11.852 13.1406 11.874 13.1937C11.896 13.2468 11.9282 13.2951 11.9688 13.3357C12.0094 13.3763 12.0577 13.4085 12.1108 13.4305C12.1639 13.4525 12.2208 13.4638 12.2782 13.4637V13.4637ZM16.5837 6.96H13.975V4.21925L16.5837 6.96ZM2 23.86V4.375C2.00026 4.15959 2.08595 3.95308 2.23827 3.80077C2.39058 3.64845 2.59709 3.56276 2.8125 3.5625H13.1V7.3975C13.1 7.51353 13.1461 7.62481 13.2281 7.70686C13.3102 7.78891 13.4215 7.835 13.5375 7.835H17.1675V12.5887H12.7157V10.7537C12.7146 10.6725 12.691 10.5931 12.6475 10.5244C12.604 10.4557 12.5424 10.4003 12.4694 10.3645C12.3964 10.3287 12.3149 10.3138 12.234 10.3214C12.153 10.329 12.0758 10.3589 12.0107 10.4078L7.65825 13.77C7.6058 13.8112 7.56339 13.8637 7.53422 13.9237C7.50506 13.9836 7.48991 14.0494 7.48991 14.1161C7.48991 14.1828 7.50506 14.2486 7.53422 14.3086C7.56339 14.3685 7.6058 14.4211 7.65825 14.4622L12.0105 17.8273C12.087 17.8868 12.1813 17.9191 12.2782 17.919C12.3941 17.9183 12.5049 17.872 12.5868 17.7901C12.6687 17.7082 12.715 17.5973 12.7157 17.4815V15.6462H17.1675V16.33H14.34C14.224 16.33 14.1127 16.3761 14.0306 16.4581C13.9486 16.5402 13.9025 16.6515 13.9025 16.7675V18.9475C13.9025 19.0635 13.9486 19.1748 14.0306 19.2569C14.1127 19.3389 14.224 19.385 14.34 19.385H17.1675V23.86C17.1672 24.0754 17.0815 24.2819 16.9292 24.4342C16.7769 24.5865 16.5704 24.6722 16.355 24.6725H2.8125C2.59709 24.6722 2.39058 24.5865 2.23827 24.4342C2.08595 24.2819 2.00026 24.0754 2 23.86V23.86ZM29.945 27.6C29.9447 27.8154 29.859 28.0219 29.7067 28.1742C29.5544 28.3265 29.3479 28.4122 29.1325 28.4125H15.59C15.3746 28.4122 15.1681 28.3265 15.0158 28.1742C14.8635 28.0219 14.7778 27.8154 14.7775 27.6V25.5475H16.355C16.8024 25.547 17.2313 25.369 17.5477 25.0527C17.864 24.7363 18.042 24.3074 18.0425 23.86V19.385H19.23V21.22C19.23 21.3018 19.2529 21.382 19.2962 21.4514C19.3395 21.5208 19.4013 21.5767 19.4748 21.6127C19.5486 21.647 19.6304 21.6608 19.7114 21.6525C19.7924 21.6443 19.8698 21.6144 19.9352 21.566L24.2875 18.201C24.3399 18.1598 24.3822 18.1072 24.4113 18.0473C24.4404 17.9873 24.4555 17.9215 24.4555 17.8549C24.4555 17.7882 24.4404 17.7225 24.4113 17.6625C24.3822 17.6025 24.3399 17.55 24.2875 17.5087L19.935 14.1462C19.8703 14.0962 19.7928 14.0654 19.7115 14.0572C19.6301 14.0489 19.548 14.0637 19.4746 14.0997C19.4012 14.1358 19.3394 14.1917 19.2961 14.2611C19.2529 14.3306 19.23 14.4107 19.23 14.4925V16.33H18.0425C18.0425 15.6178 18.044 13.7605 18.0425 13.0262C18.04 13.0185 18.0425 7.406 18.0425 7.39725C18.0408 7.3655 18.0373 7.33386 18.032 7.3025H25.8767V11.1375C25.8767 11.195 25.8881 11.252 25.9101 11.3051C25.9322 11.3582 25.9645 11.4065 26.0052 11.4471C26.0459 11.4878 26.0942 11.52 26.1473 11.5419C26.2005 11.5639 26.2575 11.5751 26.315 11.575H29.945V27.6Z" fill="#494949"/>
<path d="M23.124 14.4934C23.124 14.6094 23.1701 14.7207 23.2522 14.8028C23.3342 14.8848 23.4455 14.9309 23.5615 14.9309H27.6653C27.7813 14.9309 27.8926 14.8848 27.9746 14.8028C28.0567 14.7207 28.1028 14.6094 28.1028 14.4934C28.1028 14.3774 28.0567 14.2661 27.9746 14.184C27.8926 14.102 27.7813 14.0559 27.6653 14.0559H23.5615C23.4455 14.056 23.3343 14.1021 23.2522 14.1841C23.1702 14.2662 23.1241 14.3774 23.124 14.4934V14.4934Z" fill="#494949"/>
<path d="M27.665 17.4197H25.6133C25.4972 17.4197 25.386 17.4658 25.3039 17.5478C25.2219 17.6299 25.1758 17.7411 25.1758 17.8572C25.1758 17.9732 25.2219 18.0845 25.3039 18.1665C25.386 18.2486 25.4972 18.2947 25.6133 18.2947H27.665C27.7811 18.2947 27.8923 18.2486 27.9744 18.1665C28.0564 18.0845 28.1025 17.9732 28.1025 17.8572C28.1025 17.7411 28.0564 17.6299 27.9744 17.5478C27.8923 17.4658 27.7811 17.4197 27.665 17.4197V17.4197Z" fill="#494949"/>
<path d="M27.6653 20.7837H23.5615C23.4455 20.7837 23.3342 20.8298 23.2522 20.9118C23.1701 20.9939 23.124 21.1052 23.124 21.2212C23.124 21.3372 23.1701 21.4485 23.2522 21.5306C23.3342 21.6126 23.4455 21.6587 23.5615 21.6587H27.6653C27.7813 21.6587 27.8926 21.6126 27.9746 21.5306C28.0567 21.4485 28.1028 21.3372 28.1028 21.2212C28.1028 21.1052 28.0567 20.9939 27.9746 20.9118C27.8926 20.8298 27.7813 20.7837 27.6653 20.7837V20.7837Z" fill="#494949"/>
<path d="M4.2793 11.1912H8.3833C8.49933 11.1912 8.61061 11.1451 8.69266 11.063C8.7747 10.981 8.8208 10.8697 8.8208 10.7537C8.8208 10.6376 8.7747 10.5264 8.69266 10.4443C8.61061 10.3623 8.49933 10.3162 8.3833 10.3162H4.2793C4.16326 10.3162 4.05198 10.3623 3.96994 10.4443C3.88789 10.5264 3.8418 10.6376 3.8418 10.7537C3.8418 10.8697 3.88789 10.981 3.96994 11.063C4.05198 11.1451 4.16326 11.1912 4.2793 11.1912V11.1912Z" fill="#494949"/>
<path d="M4.2793 14.5549H6.3313C6.44733 14.5549 6.55861 14.5088 6.64066 14.4268C6.7227 14.3447 6.7688 14.2335 6.7688 14.1174C6.7688 14.0014 6.7227 13.8901 6.64066 13.8081C6.55861 13.726 6.44733 13.6799 6.3313 13.6799H4.2793C4.16326 13.6799 4.05198 13.726 3.96994 13.8081C3.88789 13.8901 3.8418 14.0014 3.8418 14.1174C3.8418 14.2335 3.88789 14.3447 3.96994 14.4268C4.05198 14.5088 4.16326 14.5549 4.2793 14.5549V14.5549Z" fill="#494949"/>
<path d="M8.3833 17.0439H4.2793C4.16326 17.0439 4.05198 17.09 3.96994 17.1721C3.88789 17.2541 3.8418 17.3654 3.8418 17.4814C3.8418 17.5975 3.88789 17.7088 3.96994 17.7908C4.05198 17.8729 4.16326 17.9189 4.2793 17.9189H8.3833C8.49933 17.9189 8.61061 17.8729 8.69266 17.7908C8.7747 17.7088 8.8208 17.5975 8.8208 17.4814C8.8208 17.3654 8.7747 17.2541 8.69266 17.1721C8.61061 17.09 8.49933 17.0439 8.3833 17.0439V17.0439Z" fill="#494949"/>
</g>
<defs>
<clipPath id="clip0_9147_2954">
<rect width="32" height="32" fill="white"/>
</clipPath>
</defs>
</svg>
