<svg width="512" height="512" viewBox="0 0 512 512" fill="none" xmlns="http://www.w3.org/2000/svg">
<g clip-path="url(#clip0_3760_616)">
<circle cx="256" cy="512" r="200" fill="#FFE785"/>
<path d="M492.732 141.251C486.932 99.251 433.032 85.151 407.432 118.851C388.532 143.251 398.632 179.851 426.632 191.551C460.232 206.451 497.932 177.751 492.732 141.251V141.251ZM450.232 183.151C449.332 183.251 448.532 183.351 447.632 183.351L448.732 179.051C448.932 178.251 448.632 177.351 447.832 176.851L433.432 167.751C433.032 167.451 432.432 167.351 431.932 167.451L418.732 170.051C418.432 170.151 418.132 170.251 417.832 170.451C413.732 165.451 410.832 159.351 409.932 152.451C406.932 133.451 421.432 114.451 440.432 112.251C459.732 109.151 479.032 124.251 480.732 143.651C480.232 143.551 479.632 143.651 479.232 143.951L466.332 152.951C465.932 153.251 465.632 153.751 465.532 154.251L462.532 170.651C462.332 171.751 463.132 172.851 464.132 172.951L469.332 173.951C464.332 178.851 457.732 182.151 450.232 183.151V183.151Z" fill="#494949"/>
<path d="M451.331 124.251C451.031 124.151 444.831 122.951 433.031 120.751C432.231 120.551 431.431 120.951 430.931 121.651L420.931 137.651C420.431 138.451 420.531 139.351 421.131 140.051L433.331 153.651C433.931 154.251 434.831 154.451 435.631 154.151L453.531 146.251C454.331 145.851 454.831 145.051 454.731 144.251L452.731 126.051C452.731 125.151 452.131 124.451 451.331 124.251V124.251Z" fill="#494949"/>
<path d="M466.931 219.052C462.031 210.552 441.631 210.852 433.031 210.452C406.531 209.552 380.231 205.952 354.531 199.552C356.431 195.852 358.031 191.952 359.631 188.152C360.831 185.452 361.531 182.652 361.831 179.652C362.631 160.552 330.231 146.052 313.631 142.652C311.831 137.052 305.731 135.552 303.731 135.152L279.031 129.452C280.431 125.452 281.231 121.252 281.331 116.952C283.831 101.352 286.231 66.8516 269.031 57.1516C265.731 55.4516 262.131 54.4516 258.431 54.1516C216.131 47.1516 195.631 72.8516 206.431 109.852C178.031 107.352 149.931 116.252 124.931 124.152C121.931 124.952 119.131 126.752 117.731 129.552C104.131 130.352 90.8313 134.352 79.0313 141.352C67.6313 148.052 56.6313 157.052 44.5313 161.452C35.5313 164.752 24.2313 167.552 20.1313 178.452C16.8313 189.052 21.2313 201.552 27.1313 210.452C28.5313 212.652 30.4313 214.452 32.7313 215.552C35.4313 216.652 38.4313 216.752 41.2313 215.952C56.1313 213.252 71.3313 207.552 75.3313 192.152C75.8313 191.752 76.4313 191.552 77.0313 191.352L133.031 169.052C135.131 169.952 156.731 168.152 159.431 168.252C157.631 175.352 154.331 187.552 151.631 192.152C151.031 193.152 150.331 193.552 148.631 194.452C146.231 195.652 143.031 197.452 140.731 201.752C137.231 208.352 137.831 212.752 138.531 218.352C138.631 220.352 139.431 222.352 141.031 223.452C136.331 234.952 135.331 247.652 138.231 259.952C139.531 265.452 141.631 270.552 143.631 275.452C151.131 292.952 154.731 312.152 157.931 330.852C158.731 335.652 165.031 337.552 168.231 333.852C168.831 333.452 169.931 332.952 170.731 332.652C171.531 338.152 173.331 343.452 176.231 348.252C167.531 349.852 159.631 352.952 151.831 355.652C142.931 358.652 133.631 360.352 124.231 360.552C122.031 360.452 119.931 360.752 117.931 361.552C109.131 352.452 92.5313 350.752 83.2313 360.352C76.0313 358.752 72.3313 368.252 78.9313 371.652C78.8313 373.852 78.9313 375.852 78.9313 377.952C78.9313 392.052 71.2313 406.052 67.7313 420.252C61.3313 420.452 59.6313 429.252 65.6313 431.752L65.7313 431.852C65.4313 434.852 65.4313 437.952 65.6313 440.952C58.7313 443.452 60.9313 453.352 68.3313 452.652C70.8313 458.952 77.4313 461.252 84.3313 458.352C96.2313 453.652 102.731 442.252 108.131 430.852C112.231 422.252 116.431 413.252 123.731 408.952C124.231 408.652 124.631 408.252 125.031 407.852C140.731 406.952 156.531 407.252 172.231 408.752C183.631 409.752 195.331 410.752 206.731 408.652C222.631 405.852 237.131 395.352 241.531 382.352C245.631 370.952 243.131 358.952 241.131 349.252L233.831 313.852C234.531 312.552 234.631 310.852 234.231 309.452C234.331 308.552 234.231 307.652 233.831 306.752C229.831 296.552 225.931 286.352 221.931 276.052C232.131 271.952 242.731 268.552 253.431 265.952C257.931 265.252 260.131 259.652 257.131 256.152C256.931 255.352 256.631 254.652 256.431 253.952C264.431 251.752 272.131 248.752 279.631 245.052C288.431 252.052 301.131 252.452 312.231 251.952L335.931 250.752C343.731 250.352 351.631 249.952 359.431 248.852C360.531 257.952 366.231 273.852 381.831 271.452C385.431 278.352 395.331 274.452 393.131 267.152C406.231 258.752 423.231 260.052 438.231 255.552C442.131 260.952 450.131 257.452 449.131 250.852C452.931 248.552 456.331 245.752 459.231 242.452C460.031 242.752 461.131 242.852 462.031 242.852C467.631 242.852 470.131 235.752 465.931 232.252C467.131 228.452 469.631 224.552 466.931 219.052V219.052ZM349.831 179.052C349.631 180.652 349.231 182.152 348.531 183.652C347.131 187.252 345.531 190.852 343.831 194.252C343.431 195.052 343.231 195.852 343.231 196.652C322.031 190.552 299.831 182.952 277.431 186.652C276.431 182.152 276.231 177.052 277.431 172.552C277.931 172.052 300.331 170.752 301.631 170.552C310.231 174.552 319.931 176.252 329.331 177.052C332.631 177.352 335.531 174.852 335.731 171.552C335.931 168.252 333.531 165.352 330.231 165.152C323.231 164.652 316.431 163.252 309.731 160.952C310.531 158.852 311.231 156.752 311.931 154.652C323.231 157.152 333.931 162.252 342.931 169.352C346.131 171.852 349.831 175.552 349.831 179.052V179.052ZM275.231 208.252C270.231 217.852 269.231 227.452 272.231 235.152C266.131 238.052 259.931 240.352 253.431 242.152C250.731 228.652 252.231 212.052 261.431 202.152C268.431 200.352 275.431 198.652 282.631 197.952C279.731 201.052 277.231 204.452 275.231 208.252V208.252ZM265.531 188.852C262.431 189.552 259.431 190.352 256.531 191.052C255.231 190.652 253.831 190.852 252.531 190.852C255.131 186.652 257.531 182.352 259.731 177.952C261.331 178.352 262.631 178.452 264.531 178.652C264.531 182.052 264.831 185.452 265.531 188.852V188.852ZM301.731 147.052C300.531 151.052 299.231 154.952 297.631 158.752L279.231 160.152C274.331 160.252 269.231 162.152 266.931 166.752C263.231 166.652 261.831 166.052 257.431 164.952C262.531 160.352 266.431 153.452 267.231 145.752C269.431 144.352 271.331 142.652 273.131 140.452L301.031 146.852C301.231 146.952 301.431 146.952 301.731 147.052V147.052ZM226.131 122.852C225.031 117.052 226.131 110.852 227.131 104.252C227.731 100.352 228.431 99.6516 228.631 99.4516C230.731 99.2516 233.231 101.852 234.631 103.352C236.131 105.052 238.331 105.752 240.531 105.252C242.731 104.752 244.431 103.152 245.031 100.952C245.831 97.9516 247.031 95.0516 248.631 92.3516C251.731 87.7516 254.831 88.4516 259.631 90.0516C263.231 91.3516 267.631 92.1516 270.831 91.6516C271.231 99.5516 270.731 107.452 269.331 115.252C269.031 122.452 266.331 134.052 258.431 136.552C248.131 139.352 234.231 132.652 226.231 124.852C226.231 124.252 226.331 123.552 226.131 122.852V122.852ZM227.631 141.152C236.931 146.752 245.531 149.452 254.031 149.252C251.231 156.452 244.731 160.552 236.231 160.152C231.231 159.952 227.031 152.852 223.331 146.552C221.031 142.952 219.531 139.052 218.931 134.652C221.931 137.452 225.231 139.652 227.631 141.152V141.152ZM222.131 72.5516C228.731 65.7516 240.031 63.6516 256.831 66.0516C259.031 66.2516 261.231 66.7516 263.231 67.7516C266.031 69.2516 268.231 73.7516 269.431 79.8516C268.331 80.1516 265.031 79.3516 263.231 78.7516C259.831 77.6516 256.031 76.4516 251.531 77.1516C245.231 77.9516 239.231 83.3516 236.531 89.6516C227.331 84.5516 218.231 89.3516 216.031 98.5516C214.431 89.6516 216.231 78.2516 222.131 72.5516V72.5516ZM72.8313 180.252C55.8313 186.952 73.6313 198.152 37.6313 204.552C34.2313 199.852 31.9313 194.252 31.1313 188.452C30.7313 186.452 30.8313 184.252 31.4313 182.252C33.2313 177.252 42.3313 174.952 48.5313 172.652C58.0313 169.152 66.2313 163.652 74.3313 158.352C87.3313 149.152 101.931 142.152 118.031 141.452C120.131 147.452 122.331 153.452 124.831 159.352L72.8313 180.252ZM151.431 207.352C151.931 206.352 152.531 206.052 154.331 205.052C156.631 203.852 159.731 202.252 162.031 198.252C165.631 192.252 169.031 179.752 171.931 168.252L170.131 167.752L177.531 167.452C180.831 167.252 183.431 164.452 183.231 161.152C183.031 157.852 180.231 155.252 176.931 155.452L137.031 157.352C134.031 150.152 131.131 142.852 128.831 135.452C152.931 127.752 180.031 119.252 206.331 121.852C206.231 130.652 206.631 143.352 213.031 152.652C217.831 161.152 225.231 172.852 237.531 172.152C242.331 172.152 246.731 171.152 250.631 169.352C247.331 176.152 243.531 182.852 239.431 189.252C239.031 189.852 238.731 190.552 238.631 191.252C208.131 192.952 178.431 199.652 150.231 211.252C150.231 210.052 150.631 208.952 151.431 207.352V207.352ZM168.331 320.052C165.731 305.752 162.731 291.252 157.431 277.352C154.931 270.652 151.631 263.752 150.031 257.052C147.231 245.152 149.031 232.752 155.031 222.152C184.131 210.252 214.931 203.752 246.531 202.852C238.031 218.352 239.331 238.952 244.531 255.752C233.831 258.652 223.331 262.252 213.131 266.652C199.731 272.352 186.131 278.652 172.531 278.452C169.231 278.452 166.531 281.052 166.531 284.352C166.531 287.652 169.131 290.352 172.431 290.452C186.131 290.652 198.731 285.752 210.831 280.652C213.931 288.752 217.131 296.852 220.231 304.952C202.031 305.252 183.531 310.052 168.331 320.052ZM97.2313 425.652C92.8313 434.952 87.6313 444.552 79.1313 447.352C74.5313 434.052 79.7313 420.752 83.6313 409.452C87.2313 399.452 90.8313 389.052 90.8313 377.852C90.8313 374.952 90.5313 370.452 91.7313 368.652C96.7313 363.652 106.131 365.652 110.231 370.852C107.431 381.052 108.531 392.052 113.031 401.652C105.631 408.052 101.231 417.252 97.2313 425.652V425.652ZM173.131 396.752C156.731 395.152 140.131 394.852 123.731 395.852C120.631 388.652 119.631 379.952 122.531 372.552C133.831 372.252 145.031 370.652 155.731 366.952C165.231 363.752 177.131 358.852 186.331 359.352C188.431 361.052 190.931 362.652 192.831 364.252C200.631 371.152 203.231 385.452 202.431 397.052C193.131 398.452 183.431 397.652 173.131 396.752V396.752ZM230.131 378.152C227.831 384.552 222.231 389.952 214.631 393.452C214.631 380.452 211.131 364.352 200.831 355.152C198.231 352.852 195.331 351.052 192.731 349.052C185.831 343.252 182.131 334.752 182.431 325.752C194.831 319.852 208.431 316.752 222.131 316.852L229.331 351.552C231.031 360.152 233.131 369.952 230.131 378.152V378.152ZM349.331 237.752C340.131 238.452 320.931 239.352 311.531 239.852C302.531 240.352 289.931 240.152 284.931 233.452C277.031 221.952 290.831 201.952 303.231 198.852C315.531 200.752 327.931 204.852 340.031 208.252C355.431 212.552 371.231 215.952 387.131 218.352C387.531 223.852 385.831 229.952 371.931 233.952C364.631 235.952 357.031 237.252 349.331 237.752ZM418.331 247.052C409.631 248.252 400.631 249.552 392.331 253.652C379.031 260.852 374.031 264.252 371.031 246.452C387.231 243.252 399.531 233.552 399.131 219.852C410.231 221.152 421.431 222.052 432.631 222.452C440.531 222.752 448.731 222.752 455.631 225.052C449.331 241.352 434.731 245.152 418.331 247.052Z" fill="#494949"/>
</g>
<defs>
<clipPath id="clip0_3760_616">
<rect width="512" height="512" fill="white"/>
</clipPath>
</defs>
</svg>
