<svg xmlns="http://www.w3.org/2000/svg" viewBox="0 0 17.86 18.8"><defs><style>.cls-1{fill:#ffda66;}.cls-2{fill:#494949;}</style></defs><g id="Layer_2" data-name="Layer 2"><g id="Layer_1-2" data-name="Layer 1"><path class="cls-1" d="M17.65,10.66a4.39,4.39,0,1,0-8.78,0V11h8.78Z"/><path class="cls-2" d="M6.91,5.87H1.52A1.48,1.48,0,0,1,0,4.4V1.48A1.48,1.48,0,0,1,1.52,0H6.91A1.47,1.47,0,0,1,8.38,1.48V4.4A1.47,1.47,0,0,1,6.91,5.87ZM1.52.75a.73.73,0,0,0-.73.73V4.4a.73.73,0,0,0,.73.72H6.91a.72.72,0,0,0,.72-.72V1.48A.73.73,0,0,0,6.91.75Z"/><path class="cls-2" d="M4.21,5.77a.38.38,0,0,1-.37-.38V.48a.38.38,0,1,1,.75,0V5.39A.38.38,0,0,1,4.21,5.77Z"/><path class="cls-2" d="M5.27,4a.38.38,0,0,1-.38-.38V2.27a.38.38,0,0,1,.75,0V3.6A.38.38,0,0,1,5.27,4Z"/><path class="cls-2" d="M3.19,4a.38.38,0,0,1-.37-.38V2.27a.38.38,0,0,1,.75,0V3.6A.38.38,0,0,1,3.19,4Z"/><path class="cls-2" d="M7.49,18.8a.38.38,0,0,1-.38-.37V14.52a.43.43,0,0,0-.43-.43H1.18a.43.43,0,0,0-.43.43v3.91a.38.38,0,0,1-.75,0V14.52a1.18,1.18,0,0,1,1.18-1.18h5.5a1.18,1.18,0,0,1,1.18,1.18v3.91A.38.38,0,0,1,7.49,18.8Z"/><path class="cls-2" d="M.38,14.9A.38.38,0,0,1,0,14.52v-7a.38.38,0,0,1,.38-.38.38.38,0,0,1,.37.38v7A.38.38,0,0,1,.38,14.9Z"/><path class="cls-2" d="M5.17,14.09H1.29A1.29,1.29,0,0,1,0,12.8v-.9a1.28,1.28,0,0,1,1.29-1.28H5.17A1.28,1.28,0,0,1,6.46,11.9v.9A1.29,1.29,0,0,1,5.17,14.09ZM1.29,11.37a.54.54,0,0,0-.54.53v.9a.54.54,0,0,0,.54.54H5.17a.54.54,0,0,0,.54-.54v-.9a.54.54,0,0,0-.54-.53Z"/><path class="cls-2" d="M17.49,11.37H8.82a.38.38,0,1,1,0-.75h8.67a.38.38,0,0,1,0,.75Z"/><path class="cls-2" d="M16.23,14h-6a.38.38,0,0,1,0-.75h6a.38.38,0,1,1,0,.75Z"/><path class="cls-2" d="M10.25,18.8a.38.38,0,0,1-.37-.37V11a.38.38,0,0,1,.75,0v7.44A.38.38,0,0,1,10.25,18.8Z"/><path class="cls-2" d="M16.23,18.8a.38.38,0,0,1-.37-.37V11a.38.38,0,0,1,.75,0v7.44A.38.38,0,0,1,16.23,18.8Z"/><path class="cls-2" d="M15.84,11.37a.38.38,0,0,1-.37-.38V7.44l-2.33-.82a.37.37,0,0,1,.24-.7l2.59.9a.37.37,0,0,1,.25.35V11A.38.38,0,0,1,15.84,11.37Z"/></g></g></svg>