<svg width="512" height="512" viewBox="0 0 512 512" fill="none" xmlns="http://www.w3.org/2000/svg">
<g clip-path="url(#clip0_3720_739)">
<circle cx="256" cy="520" r="200" fill="#FFE785"/>
<path d="M56 448H8C5.87827 448 3.84344 447.157 2.34315 445.657C0.842855 444.157 0 442.122 0 440V344C0 341.878 0.842855 339.843 2.34315 338.343C3.84344 336.843 5.87827 336 8 336H56C58.1217 336 60.1566 336.843 61.6569 338.343C63.1571 339.843 64 341.878 64 344V440C64 442.122 63.1571 444.157 61.6569 445.657C60.1566 447.157 58.1217 448 56 448ZM16 432H48V352H16V432Z" fill="#494949"/>
<path d="M296 448H248C245.878 448 243.843 447.157 242.343 445.657C240.843 444.157 240 442.122 240 440V344C240 341.878 240.843 339.843 242.343 338.343C243.843 336.843 245.878 336 248 336H296C298.122 336 300.157 336.843 301.657 338.343C303.157 339.843 304 341.878 304 344V440C304 442.122 303.157 444.157 301.657 445.657C300.157 447.157 298.122 448 296 448ZM256 432H288V352H256V432Z" fill="#494949"/>
<path d="M248 448H56C53.8783 448 51.8434 447.157 50.3431 445.657C48.8429 444.157 48 442.122 48 440V408C48 405.878 48.8429 403.843 50.3431 402.343C51.8434 400.843 53.8783 400 56 400H248C250.122 400 252.157 400.843 253.657 402.343C255.157 403.843 256 405.878 256 408V440C256 442.122 255.157 444.157 253.657 445.657C252.157 447.157 250.122 448 248 448ZM64 432H240V416H64V432Z" fill="#494949"/>
<path d="M248 416H56C53.8783 416 51.8434 415.157 50.3431 413.657C48.8429 412.157 48 410.122 48 408V376C48 373.878 48.8429 371.843 50.3431 370.343C51.8434 368.843 53.8783 368 56 368H248C250.122 368 252.157 368.843 253.657 370.343C255.157 371.843 256 373.878 256 376V408C256 410.122 255.157 412.157 253.657 413.657C252.157 415.157 250.122 416 248 416ZM64 400H240V384H64V400Z" fill="#494949"/>
<path d="M280 344H264V288C264 285.878 263.157 283.843 261.657 282.343C260.157 280.843 258.122 280 256 280H48C45.8783 280 43.8434 280.843 42.3431 282.343C40.8429 283.843 40 285.878 40 288V344H24V288C24 281.635 26.5286 275.53 31.0294 271.029C35.5303 266.529 41.6348 264 48 264H256C262.365 264 268.47 266.529 272.971 271.029C277.471 275.53 280 281.635 280 288V344Z" fill="#494949"/>
<path d="M56 480H32C29.8783 480 27.8434 479.157 26.3431 477.657C24.8429 476.157 24 474.122 24 472V440H40V464H52L73.6 435.2L86.4 444.8L62.4 476.8C61.6548 477.793 60.6886 478.6 59.5777 479.155C58.4669 479.711 57.242 480 56 480V480Z" fill="#494949"/>
<path d="M272 480H248C246.758 480 245.533 479.711 244.422 479.155C243.311 478.6 242.345 477.793 241.6 476.8L217.6 444.8L230.4 435.2L252 464H264V440H280V472C280 474.122 279.157 476.157 277.657 477.657C276.157 479.157 274.122 480 272 480Z" fill="#494949"/>
<path d="M104 288H120V360H104V288Z" fill="#494949"/>
<path d="M184 288H200V360H184V288Z" fill="#494949"/>
<path d="M488 416H320V400H488C490.122 400 492.157 399.157 493.657 397.657C495.157 396.157 496 394.122 496 392V56C496 53.8783 495.157 51.8434 493.657 50.3431C492.157 48.8429 490.122 48 488 48H232C229.878 48 227.843 48.8429 226.343 50.3431C224.843 51.8434 224 53.8783 224 56V256H208V56C208 49.6348 210.529 43.5303 215.029 39.0294C219.53 34.5286 225.635 32 232 32H488C494.365 32 500.47 34.5286 504.971 39.0294C509.471 43.5303 512 49.6348 512 56V392C512 398.365 509.471 404.47 504.971 408.971C500.47 413.471 494.365 416 488 416V416Z" fill="#494949"/>
<path d="M352 40H368V312H352V40Z" fill="#494949"/>
<path d="M296 304H504V320H296V304Z" fill="#494949"/>
<path d="M320 352H504V368H320V352Z" fill="#494949"/>
<path d="M408 216H392C389.878 216 387.843 215.157 386.343 213.657C384.843 212.157 384 210.122 384 208V144C384 141.878 384.843 139.843 386.343 138.343C387.843 136.843 389.878 136 392 136H408C414.365 136 420.47 138.529 424.971 143.029C429.471 147.53 432 153.635 432 160V192C432 198.365 429.471 204.47 424.971 208.971C420.47 213.471 414.365 216 408 216V216ZM400 200H408C410.122 200 412.157 199.157 413.657 197.657C415.157 196.157 416 194.122 416 192V160C416 157.878 415.157 155.843 413.657 154.343C412.157 152.843 410.122 152 408 152H400V200Z" fill="#494949"/>
<path d="M328 216H312C305.635 216 299.53 213.471 295.029 208.971C290.529 204.47 288 198.365 288 192V160C288 153.635 290.529 147.53 295.029 143.029C299.53 138.529 305.635 136 312 136H328C330.122 136 332.157 136.843 333.657 138.343C335.157 139.843 336 141.878 336 144V208C336 210.122 335.157 212.157 333.657 213.657C332.157 215.157 330.122 216 328 216ZM312 152C309.878 152 307.843 152.843 306.343 154.343C304.843 155.843 304 157.878 304 160V192C304 194.122 304.843 196.157 306.343 197.657C307.843 199.157 309.878 200 312 200H320V152H312Z" fill="#494949"/>
<path d="M8 464H424V480H8V464Z" fill="#494949"/>
<path d="M440 464H456V480H440V464Z" fill="#494949"/>
</g>
<defs>
<clipPath id="clip0_3720_739">
<rect width="512" height="512" fill="white"/>
</clipPath>
</defs>
</svg>
