<svg width="128" height="128" viewBox="0 0 128 128" fill="none" xmlns="http://www.w3.org/2000/svg">
<g clip-path="url(#clip0_4156_2735)">
<circle cx="64" cy="139.25" r="50" fill="#FFE785"/>
<path d="M12.0605 49.9998H12.041C11.4885 49.9998 11.0508 50.4472 11.0508 51C11.0508 51.5525 11.5087 51.9999 12.0605 51.9999C12.6132 51.9999 13.0607 51.5525 13.0607 51C13.0607 50.4472 12.6132 49.9998 12.0605 49.9998Z" fill="#494949"/>
<path d="M16.0605 49.9998H16.041C15.4882 49.9998 15.0508 50.4472 15.0508 51C15.0508 51.5525 15.5087 51.9999 16.0605 51.9999C16.6132 51.9999 17.0604 51.5525 17.0604 51C17.0607 50.4472 16.6135 49.9998 16.0605 49.9998Z" fill="#494949"/>
<path d="M20.0605 49.9998H20.041C19.4885 49.9998 19.0508 50.4472 19.0508 51C19.0508 51.5525 19.509 51.9999 20.0607 51.9999C20.6132 51.9999 21.0607 51.5525 21.0604 51C21.0602 50.4472 20.6127 49.9998 20.0605 49.9998Z" fill="#494949"/>
<path d="M110 48H9.99987C8.34561 48 7 49.3459 7 51.0001V53.0003C7 53.5528 7.4472 54.0002 7.99996 54.0002H112C112.552 54.0002 113 53.5528 113 53.0003V51.0001C112.999 49.3456 111.654 48 110 48ZM111 52.0001H8.99991V51.0001C8.99991 50.4491 9.44812 49.9999 9.99987 49.9999H110C110.543 49.9999 111 50.4571 111 51.0001V52.0001V52.0001Z" fill="#494949"/>
<path d="M112 52C111.447 52 111 52.4475 111 53.0002V87C111 87.5528 111.447 88 112 88C112.553 88 113 87.5528 113 87.0003V53.0002C113 52.4475 112.553 52 112 52Z" fill="#494949"/>
<path d="M7.99996 52C7.4472 52 7 52.4475 7 53.0002V117C7 117.553 7.4472 118 7.99996 118C8.55246 118 8.99991 117.553 8.99991 117V53.0002C8.99991 52.4475 8.55246 52 7.99996 52Z" fill="#494949"/>
<path d="M83.9997 116H7.99996C7.4472 116 7 116.447 7 117C7 117.553 7.4472 118 7.99996 118H83.9997C84.5527 118 84.9999 117.553 84.9999 117C84.9997 116.447 84.5527 116 83.9997 116Z" fill="#494949"/>
<path d="M54.8472 108.471L44.8473 92.4705C44.4822 91.8845 43.5172 91.8845 43.1521 92.4705L33.1522 108.471C32.8594 108.937 33.0019 109.555 33.4696 109.847C33.9383 110.143 34.5566 110 34.8478 109.529L43.9999 94.8866L53.1521 109.529C53.3417 109.834 53.6679 110 54.001 110C54.1818 110 54.3654 109.951 54.5298 109.847C54.9977 109.555 55.1403 108.937 54.8472 108.471Z" fill="#494949"/>
<path d="M36.7089 105.4L31.8474 98.4279C31.6611 98.1603 31.3554 98 31.0293 98C31.0283 98 31.0283 98 31.0273 98C30.7021 98 30.3965 98.1583 30.2089 98.4259L23.1817 108.426C22.8643 108.877 22.9736 109.5 23.4248 109.818C23.5996 109.941 23.8007 110 23.9991 110C24.3137 110 24.6231 109.851 24.8184 109.574L31.0245 100.744L35.0684 106.545C35.3828 106.998 36.0058 107.107 36.461 106.793C36.914 106.477 37.0243 105.854 36.7089 105.4Z" fill="#494949"/>
<path d="M104 60H16C15.4472 60 15 60.4475 15 61.0002V77.0003C15 77.553 15.4472 78.0002 16 78.0002H104C104.553 78.0002 105 77.553 105 77.0003V61.0002C105 60.4475 104.553 60 104 60ZM103 76.0003H16.9999V62.0002H103V76.0003Z" fill="#494949"/>
<path d="M56 82H16C15.4472 82 15 82.4475 15 83V109C15 109.553 15.4472 110 16 110H56C56.5527 110 56.9999 109.553 56.9999 109V83C56.9999 82.4475 56.5527 82 56 82ZM55 108H16.9999V83.9999H55V108Z" fill="#494949"/>
<path d="M23.0001 86C20.7941 86 19 87.7951 19 89.9998C19 92.2048 20.7941 93.9999 23.0001 93.9999C25.2063 93.9999 26.9999 92.2051 26.9999 89.9998C26.9999 87.7951 25.2061 86 23.0001 86ZM23.0001 92C21.8973 92 20.9999 91.1033 20.9999 89.9998C20.9999 88.8963 21.8976 87.9999 23.0001 87.9999C24.1026 87.9999 25 88.8963 25 89.9998C24.9997 91.1033 24.1028 92 23.0001 92Z" fill="#494949"/>
<path d="M104 86H64C63.4472 86 63 86.4472 63 87C63 87.5527 63.4472 87.9999 64 87.9999H104C104.553 87.9999 105 87.5527 105 87C105 86.4472 104.553 86 104 86Z" fill="#494949"/>
<path d="M87.9999 92H64C63.4472 92 63 92.4472 63 93C63 93.5527 63.4472 93.9999 64 93.9999H87.9999C88.5527 93.9999 88.9999 93.5527 88.9999 93C88.9996 92.4472 88.5527 92 87.9999 92Z" fill="#494949"/>
<path d="M83.9999 98H64C63.4472 98 63 98.4475 63 99C63 99.553 63.4472 99.9999 64 99.9999H83.9999C84.5529 99.9999 85.0001 99.5527 85.0001 99C85.0001 98.4475 84.5529 98 83.9999 98Z" fill="#494949"/>
<path d="M81.9999 104H64C63.4472 104 63 104.447 63 105C63 105.553 63.4472 106 64 106H81.9999C82.5527 106 82.9999 105.553 82.9999 105C82.9999 104.447 82.5527 104 81.9999 104Z" fill="#494949"/>
<path d="M94 66H26C25.4472 66 25 66.4475 25 67C25 67.5527 25.4472 67.9999 26 67.9999H94C94.5528 67.9999 95 67.5527 95 67C95 66.4475 94.5528 66 94 66Z" fill="#494949"/>
<path d="M81.9998 70H38C37.4472 70 37 70.4472 37 71C37 71.5527 37.4472 71.9999 38 71.9999H81.9998C82.5526 71.9999 82.9998 71.5527 82.9998 71C82.9998 70.4472 82.5526 70 81.9998 70Z" fill="#494949"/>
<path d="M29.998 15.0002C26.0086 15.0002 23 18.221 23 22.4904C23 26.7931 27.0066 31.0001 29.998 31.0001C32.9901 31.0001 36.9999 26.7929 36.9999 22.4904C36.9997 18.221 33.9898 15.0002 29.998 15.0002ZM29.998 28.9999C28.3945 28.9999 24.9999 25.9197 24.9999 22.4902C24.9999 19.3085 27.1014 16.9999 29.998 16.9999C32.8963 16.9999 34.9997 19.3085 35 22.4902C35 25.9863 31.6455 28.9999 29.998 28.9999Z" fill="#494949"/>
<path d="M38.9287 31.4746C37.3202 30.8436 35.3946 29.9569 34.9024 29.5683C34.7413 29.2324 34.3974 29 34 29C33.4472 29 33 29.4475 33 30.0002C33 30.5762 33 31.295 38.1964 33.338C38.3164 33.385 38.4405 33.4063 38.5625 33.4063C38.961 33.4063 39.3376 33.1662 39.4932 32.7715C39.6953 32.2577 39.4427 31.6777 38.9287 31.4746Z" fill="#494949"/>
<path d="M34 26.5432C33.4472 26.5432 33 26.9907 33 27.5432V30.0003C33 30.553 33.4472 31.0003 34 31.0003C34.5527 31.0003 34.9999 30.5528 35.0002 30.0003V27.5432C35.0002 26.9907 34.5527 26.5432 34 26.5432Z" fill="#494949"/>
<path d="M26.0001 29C25.603 29 25.2593 29.2324 25.098 29.5683C24.6057 29.9572 22.6801 30.8438 21.0716 31.4746C20.5579 31.6777 20.305 32.2577 20.5071 32.7715C20.6622 33.1662 21.0394 33.4063 21.4378 33.4063C21.5599 33.4063 21.6839 33.3848 21.804 33.338C27.0001 31.295 27.0001 30.5765 27.0001 30.0002C27.0001 29.4475 26.5526 29 26.0001 29Z" fill="#494949"/>
<path d="M26 26.5432C25.4472 26.5432 25 26.9907 25 27.5432V30.0003C25 30.553 25.4472 31.0003 26 31.0003C26.5527 31.0003 26.9999 30.5528 26.9999 30.0003V27.5432C26.9999 26.9907 26.5525 26.5432 26 26.5432Z" fill="#494949"/>
<path d="M30.0002 10.9998C22.8319 10.9998 17 16.8319 17 23.9999C17 31.168 22.8322 37.0001 30.0002 37.0001C37.1682 37.0001 43.0001 31.168 43.0001 23.9999C43.0001 16.8319 37.168 10.9998 30.0002 10.9998ZM30.0002 35C23.9347 35 19.0002 30.0645 19.0002 23.9999C19.0002 17.9354 23.9347 12.9999 30.0002 12.9999C36.0657 12.9999 41 17.9354 41 23.9999C41 30.0645 36.0655 35 30.0002 35Z" fill="#494949"/>
<path d="M89.998 15.0002C86.0079 15.0002 83 18.221 83 22.4904C83 26.7931 87.0078 31.0001 89.998 31.0001C92.9903 31.0001 96.9999 26.7929 96.9999 22.4904C96.9999 18.221 93.9903 15.0002 89.998 15.0002ZM89.998 28.9999C88.3945 28.9999 85.0002 25.9197 85.0002 22.4902C85.0002 19.3085 87.1016 16.9999 89.998 16.9999C92.8965 16.9999 95 19.3085 95 22.4902C95 25.9863 91.6445 28.9999 89.998 28.9999Z" fill="#494949"/>
<path d="M98.9275 31.4746C97.3202 30.8436 95.3943 29.9569 94.9021 29.5683C94.74 29.2324 94.3984 29 94 29C93.4472 29 93 29.4475 93 30.0002C93 30.5762 93 31.295 98.1971 33.338C98.3164 33.385 98.4415 33.4063 98.5623 33.4063C98.9605 33.4063 99.3376 33.1662 99.4942 32.7715C99.6951 32.2577 99.4414 31.6777 98.9275 31.4746Z" fill="#494949"/>
<path d="M94 26.5432C93.4472 26.5432 93 26.9907 93 27.5432V30.0003C93 30.553 93.4472 31.0003 94 31.0003C94.5527 31.0003 94.9999 30.5528 94.9999 30.0003V27.5432C94.9999 26.9907 94.5527 26.5432 94 26.5432Z" fill="#494949"/>
<path d="M86.0007 29C85.6025 29 85.2604 29.2324 85.0983 29.5683C84.6063 29.9572 82.6804 30.8438 81.0729 31.4746C80.5592 31.6777 80.3053 32.2577 80.5064 32.7715C80.6628 33.1662 81.0397 33.4063 81.4381 33.4063C81.5592 33.4063 81.6842 33.3848 81.8035 33.338C87.0007 31.295 87.0007 30.5765 87.0007 30.0002C87.0007 29.4475 86.5532 29 86.0007 29Z" fill="#494949"/>
<path d="M86 26.5432C85.4472 26.5432 85 26.9907 85 27.5432V30.0003C85 30.553 85.4472 31.0003 86 31.0003C86.5527 31.0003 86.9999 30.5528 86.9999 30.0003V27.5432C86.9999 26.9907 86.5525 26.5432 86 26.5432Z" fill="#494949"/>
<path d="M89.9999 10.9998C82.8319 10.9998 77 16.8319 77 23.9999C77 31.168 82.8322 37.0001 89.9999 37.0001C97.168 37.0001 103 31.168 103 23.9999C103 16.8319 97.168 10.9998 89.9999 10.9998ZM89.9999 35C83.9357 35 79.0002 30.0645 79.0002 23.9999C79.0002 17.9354 83.9357 12.9999 89.9999 12.9999C96.0645 12.9999 101 17.9354 101 23.9999C101 30.0645 96.0645 35 89.9999 35Z" fill="#494949"/>
<path d="M59.9979 4.00024C56.0086 4.00024 53 7.22097 53 11.4904C53 15.7929 57.0068 20.0001 59.9979 20.0001C62.9901 20.0001 66.9996 15.7929 66.9999 11.4904C66.9999 7.22097 63.99 4.00024 59.9979 4.00024ZM59.9979 17.9999C58.3945 17.9999 54.9999 14.9197 54.9999 11.4902C54.9999 8.30846 57.1014 5.99991 59.9979 5.99991C62.8963 5.99991 64.9997 8.30846 65 11.4902C65 14.9863 61.6454 17.9999 59.9979 17.9999Z" fill="#494949"/>
<path d="M68.9277 20.4746C67.3202 19.8438 65.3946 18.9569 64.9021 18.5683C64.7413 18.2326 64.3974 18 64 18C63.4472 18 63 18.4475 63 19C63 19.5762 63 20.295 68.1971 22.338C68.3164 22.3848 68.4415 22.4063 68.5625 22.4063C68.961 22.4063 69.3379 22.1662 69.4942 21.7715C69.6951 21.2577 69.4412 20.6777 68.9277 20.4746Z" fill="#494949"/>
<path d="M64 15.5432C63.4472 15.5432 63 15.9904 63 16.5432V19C63 19.5528 63.4472 20.0002 64 20.0002C64.5527 20.0002 64.9999 19.5528 64.9999 19V16.5432C64.9997 15.9904 64.5527 15.5432 64 15.5432Z" fill="#494949"/>
<path d="M56.0004 18C55.6032 18 55.2593 18.2324 55.0982 18.5683C54.606 18.9572 52.6801 19.8438 51.0716 20.4746C50.5579 20.6777 50.305 21.2577 50.5071 21.7715C50.6624 22.1662 51.0394 22.4063 51.4378 22.4063C51.5599 22.4063 51.6839 22.3848 51.8042 22.338C57.0003 20.295 57.0003 19.5762 57.0003 19C57.0003 18.4475 56.5531 18 56.0004 18Z" fill="#494949"/>
<path d="M56 15.5432C55.4472 15.5432 55 15.9904 55 16.5432V19C55 19.5528 55.4472 20.0002 56 20.0002C56.5527 20.0002 56.9999 19.5528 56.9999 19V16.5432C56.9999 15.9904 56.5527 15.5432 56 15.5432Z" fill="#494949"/>
<path d="M59.9999 0C52.8319 0 47 5.83192 47 12.9999C47 20.168 52.8319 25.9999 59.9999 25.9999C67.168 25.9999 72.9999 20.168 72.9999 12.9999C72.9999 5.83192 67.168 0 59.9999 0ZM59.9999 24C53.9344 24 48.9999 19.0645 48.9999 12.9999C48.9999 6.93542 53.9347 1.99991 59.9999 1.99991C66.0645 1.99991 71 6.93542 71 12.9999C71 19.0645 66.0645 24 59.9999 24Z" fill="#494949"/>
<path d="M78.781 34.3749C78.4374 33.945 77.8103 33.8767 77.3749 34.2186L67.3751 42.2148C66.9431 42.5604 66.8751 43.1892 67.2188 43.6209C67.4161 43.8673 67.707 43.9961 67.9999 43.9961C68.2187 43.9961 68.4396 43.9238 68.6249 43.7775L78.6247 35.7813C79.0567 35.4354 79.1249 34.8066 78.781 34.3749Z" fill="#494949"/>
<path d="M68 40C67.4475 40 67 40.4472 67 41V42.9961C67 43.5486 67.4475 43.9961 68 43.9961C68.553 43.9961 69.0002 43.5486 69.0002 42.9961V41C69.0002 40.4472 68.553 40 68 40Z" fill="#494949"/>
<path d="M70.0001 42H68C67.4475 42 67 42.4475 67 43.0002C67 43.5527 67.4475 44.0002 68 44.0002H70.0001C70.5529 44.0002 71.0001 43.5527 71.0001 43.0002C71.0001 42.4475 70.5529 42 70.0001 42Z" fill="#494949"/>
<path d="M52.6239 42.2146L42.6241 34.2184C42.1954 33.8768 41.5646 33.9451 41.2189 34.3748C40.874 34.8067 40.9443 35.4355 41.376 35.7811L51.3761 43.7773C51.5596 43.9239 51.7802 43.9961 51.9991 43.9961C52.293 43.9961 52.5841 43.8673 52.7812 43.6207C53.1261 43.189 53.0558 42.5602 52.6239 42.2146Z" fill="#494949"/>
<path d="M52 40C51.4472 40 51 40.4472 51 41V42.9961C51 43.5486 51.4472 43.9961 52 43.9961C52.5527 43.9961 53.0002 43.5486 53.0002 42.9961V41C53.0002 40.4472 52.5527 40 52 40Z" fill="#494949"/>
<path d="M52.0001 42H50C49.4472 42 49 42.4475 49 43.0002C49 43.5527 49.4472 44.0002 50 44.0002H52.0001C52.5529 44.0002 53.0003 43.5527 53.0003 43.0002C53.0003 42.4475 52.5529 42 52.0001 42Z" fill="#494949"/>
<path d="M60 28C59.4472 28 59 28.4475 59 29V40.9979C59 41.5507 59.4472 41.9979 60 41.9979C60.5527 41.9979 61.0002 41.5507 61.0002 40.9979V29C60.9999 28.4475 60.5527 28 60 28Z" fill="#494949"/>
<path d="M62.1231 38.8748C61.7324 38.4841 61.0996 38.4841 60.7089 38.8748L59.293 40.2909C58.9023 40.6816 58.9023 41.3144 59.293 41.7051C59.4883 41.9004 59.7442 41.998 60.0001 41.998C60.2559 41.998 60.5118 41.9004 60.7069 41.7051L62.1231 40.2889C62.5137 39.8983 62.5137 39.2655 62.1231 38.8748Z" fill="#494949"/>
<path d="M60.7051 40.2909L59.2892 38.8748C58.8985 38.4841 58.2657 38.4841 57.875 38.8748C57.4844 39.2655 57.4844 39.8983 57.875 40.2889L59.2912 41.7051C59.4865 41.9004 59.7424 41.998 59.9983 41.998C60.2541 41.998 60.51 41.9004 60.7051 41.7051C61.0958 41.3144 61.0958 40.6816 60.7051 40.2909Z" fill="#494949"/>
<path d="M104 90C94.627 90 87 97.627 87 107C87 116.373 94.627 124 104 124C113.373 124 121 116.373 121 107C121 97.627 113.373 90 104 90ZM104 122C95.7282 122 88.9999 115.272 88.9999 107C88.9999 98.7285 95.7285 92.0002 104 92.0002C112.272 92.0002 119 98.7287 119 107C119 115.272 112.272 122 104 122Z" fill="#494949"/>
<path d="M120 110C119.447 110 119 110.447 119 111C119 119.271 112.272 126 104 126C95.7282 126 88.9999 119.271 88.9999 111C88.9999 110.447 88.5527 110 88 110C87.4472 110 87 110.447 87 111C87 120.373 94.627 128 104 128C113.373 128 121 120.373 121 111C121 110.447 120.553 110 120 110Z" fill="#494949"/>
<path d="M88 106C87.4472 106 87 106.447 87 107V111C87 111.553 87.4472 112 88 112C88.5527 112 88.9999 111.553 88.9999 111V107C88.9997 106.447 88.5527 106 88 106Z" fill="#494949"/>
<path d="M120 106C119.447 106 119 106.447 119 107V111C119 111.553 119.447 112 120 112C120.553 112 121 111.553 121 111V107C121 106.447 120.553 106 120 106Z" fill="#494949"/>
<path d="M104 99.9998C103.447 99.9998 103 100.447 103 101V113C103 113.553 103.447 114 104 114C104.553 114 105 113.553 105 113V101C105 100.447 104.553 99.9998 104 99.9998Z" fill="#494949"/>
<path d="M104 122C103.447 122 103 122.447 103 123V127C103 127.553 103.447 128 104 128C104.553 128 105 127.553 105 127V123C105 122.447 104.553 122 104 122Z" fill="#494949"/>
<path d="M112 119.859C111.447 119.859 111 120.307 111 120.86V124.859C111 125.412 111.447 125.859 112 125.859C112.553 125.859 113 125.412 113 124.859V120.86C113 120.307 112.553 119.859 112 119.859Z" fill="#494949"/>
<path d="M96 119.859C95.4472 119.859 95 120.307 95 120.86V124.859C95 125.412 95.4472 125.859 96 125.859C96.5527 125.859 96.9999 125.412 96.9999 124.859V120.86C96.9999 120.307 96.5527 119.859 96 119.859Z" fill="#494949"/>
</g>
<defs>
<clipPath id="clip0_4156_2735">
<rect width="128" height="128" fill="white"/>
</clipPath>
</defs>
</svg>
