<svg width="512" height="512" viewBox="0 0 512 512" fill="none" xmlns="http://www.w3.org/2000/svg">
<g clip-path="url(#clip0_3760_604)">
<circle cx="256" cy="512" r="200" fill="#FFE785"/>
<g clip-path="url(#clip1_3760_604)">
<path d="M438.251 320.489C443.256 311.895 446.139 301.919 446.139 291.277C446.139 259.16 420.01 233.032 387.894 233.032C355.777 233.032 329.647 259.16 329.647 291.277C329.647 291.888 329.674 292.491 329.693 293.098C305.873 290.12 281.135 288.609 256.008 288.609C232.296 288.609 208.888 289.961 186.287 292.616V215.694C207.345 211.54 276.07 193.845 355.392 129.502C357.148 128.078 358.167 125.938 358.167 123.677C358.167 121.417 357.147 119.277 355.392 117.853C324.916 93.1279 292.722 72.7015 259.702 57.1422C255.954 55.3762 251.487 56.9832 249.721 60.7293C247.955 64.4763 249.562 68.9454 253.309 70.7105C282.613 84.5187 311.274 102.315 338.625 123.675C268.944 178.057 208.008 195.496 186.288 200.313V47.02C194.573 48.837 208.53 52.4671 226.402 59.2562C227.278 59.5892 228.178 59.7472 229.064 59.7472C232.089 59.7472 234.94 57.9042 236.078 54.9081C237.549 51.0361 235.602 46.704 231.73 45.233C210.53 37.1798 194.625 33.3497 186.289 31.6797V12.5763C186.289 8.43424 182.931 5.07617 178.788 5.07617H127.733C123.59 5.07617 120.232 8.43424 120.232 12.5763V304.852C44.8179 324.593 0 359.11 0 397.762C0 428.161 27.5045 456.156 77.4465 476.587C125.265 496.15 188.678 506.924 256.005 506.924C326.143 506.924 391.404 495.372 439.763 474.394C443.563 472.746 445.307 468.329 443.659 464.529C442.011 460.729 437.593 458.984 433.793 460.633C387.95 480.518 323.148 491.924 256.005 491.924C190.581 491.924 129.185 481.547 83.1266 462.704C39.8318 444.992 15.0003 421.321 15.0003 397.762C15.0003 367.401 55.0571 338.139 120.232 320.376V353.733C77.7965 359.871 50.751 376.826 50.751 397.759C50.751 419.773 80.6356 437.4 126.884 442.664C135.459 443.64 144.333 444.134 153.259 444.134C162.185 444.134 171.059 443.639 179.635 442.664C225.89 437.401 255.778 419.774 255.778 397.759C255.778 376.825 228.728 359.869 186.287 353.732V307.729C208.849 305.003 232.264 303.607 256.008 303.607C282.087 303.607 307.705 305.291 332.269 308.573C339.655 332.27 361.797 349.521 387.894 349.521C403.785 349.521 418.203 343.118 428.722 332.764C472.189 350.51 497.001 374.051 497.001 397.761C497.001 419.606 476.562 436.825 459.417 447.422C455.894 449.6 454.803 454.221 456.98 457.745C458.398 460.04 460.854 461.303 463.367 461.303C464.712 461.303 466.075 460.941 467.303 460.182C496.545 442.109 512.001 420.524 512.001 397.761C512 368.008 485.899 340.773 438.251 320.489V320.489ZM65.7513 397.76C65.7513 392.211 71.4844 385.986 81.4806 380.682C91.3908 375.422 104.94 371.331 120.232 368.91V426.619C104.939 424.198 91.3898 420.107 81.4806 414.847C71.4844 409.542 65.7513 403.314 65.7513 397.76V397.76ZM135.233 428.399V20.0765H171.286V428.398C159.428 429.36 147.089 429.36 135.233 428.399ZM225.048 380.682C235.045 385.986 240.778 392.211 240.778 397.76C240.778 403.314 235.045 409.542 225.048 414.847C215.137 420.107 201.585 424.198 186.288 426.619V368.909C201.584 371.33 215.136 375.421 225.048 380.682V380.682ZM387.894 334.522C364.048 334.522 344.648 315.122 344.648 291.277C344.648 267.431 364.047 248.032 387.894 248.032C411.739 248.032 431.138 267.431 431.138 291.277C431.138 315.122 411.738 334.522 387.894 334.522V334.522Z" fill="#494949"/>
<path d="M289.422 312.324C289.095 312.433 281.331 315.061 273.627 321.113C270.11 323.876 267.137 326.916 264.729 330.192C262.321 326.917 259.348 323.876 255.831 321.113C248.128 315.061 240.364 312.433 240.037 312.324C236.109 311.015 231.86 313.138 230.55 317.068C229.24 320.997 231.364 325.245 235.294 326.555C235.513 326.628 257.23 334.086 257.23 352.948C257.23 357.09 260.588 360.448 264.73 360.448C268.872 360.448 272.23 357.09 272.23 352.948C272.23 334.285 293.266 326.863 294.191 326.546C298.105 325.226 300.217 320.989 298.91 317.067C297.598 313.138 293.351 311.015 289.422 312.324V312.324Z" fill="#494949"/>
<path d="M375.363 421.088C375.036 421.197 367.272 423.825 359.569 429.877C356.052 432.64 353.079 435.68 350.671 438.956C348.263 435.68 345.29 432.64 341.772 429.877C334.069 423.825 326.305 421.197 325.978 421.088C322.048 419.778 317.802 421.902 316.491 425.831C315.181 429.761 317.305 434.008 321.235 435.318C321.454 435.391 343.17 442.849 343.17 461.711C343.17 465.853 346.529 469.211 350.671 469.211C354.813 469.211 358.171 465.853 358.171 461.711C358.171 443.076 379.144 435.648 380.128 435.311C384.044 433.993 386.158 429.754 384.851 425.831C383.54 421.902 379.292 419.778 375.363 421.088V421.088Z" fill="#494949"/>
<path d="M402.389 431.273C402.389 435.415 405.747 438.773 409.889 438.773C414.031 438.773 417.389 435.415 417.389 431.273C417.389 412.61 438.425 405.188 439.35 404.871C443.264 403.551 445.376 399.314 444.069 395.392C442.759 391.462 438.51 389.339 434.581 390.649C434.254 390.758 426.49 393.386 418.787 399.438C415.27 402.201 412.297 405.241 409.889 408.517C407.481 405.241 404.508 402.201 400.991 399.438C393.288 393.386 385.523 390.758 385.196 390.649C381.279 389.343 377.054 391.456 375.733 395.37C374.412 399.284 376.518 403.534 380.426 404.87C381.322 405.177 402.389 412.596 402.389 431.273V431.273Z" fill="#494949"/>
<path d="M411.824 302.303H411.316C407.174 302.303 403.816 305.661 403.816 309.803C403.816 313.945 407.174 317.303 411.316 317.303H411.824C415.966 317.303 419.324 313.945 419.324 309.803C419.324 305.661 415.966 302.303 411.824 302.303Z" fill="#494949"/>
<path d="M393.46 312.611H392.952C388.81 312.611 385.452 315.969 385.452 320.111C385.452 324.253 388.81 327.611 392.952 327.611H393.46C397.602 327.611 400.96 324.253 400.96 320.111C400.96 315.969 397.602 312.611 393.46 312.611Z" fill="#494949"/>
<path d="M393.967 293.74H393.458C389.316 293.74 385.958 297.098 385.958 301.24C385.958 305.382 389.316 308.74 393.458 308.74H393.967C398.109 308.74 401.467 305.382 401.467 301.24C401.467 297.098 398.11 293.74 393.967 293.74Z" fill="#494949"/>
</g>
</g>
<defs>
<clipPath id="clip0_3760_604">
<rect width="512" height="512" fill="white"/>
</clipPath>
<clipPath id="clip1_3760_604">
<rect width="512" height="512" fill="white"/>
</clipPath>
</defs>
</svg>
