<svg width="90" height="90" viewBox="0 0 90 90" fill="none" xmlns="http://www.w3.org/2000/svg">
<g clip-path="url(#clip0_4156_2581)">
<circle cx="45.1758" cy="97.9102" r="35.1562" fill="#FFE785"/>
<path d="M78.615 75.407H73.955V55.7065C73.955 55.1252 73.501 54.6538 72.9411 54.6538C72.3811 54.6538 71.9271 55.1252 71.9271 55.7065V75.407H64.0304V40.7554C64.0304 40.562 64.182 40.4045 64.3684 40.4045H71.5892C71.7755 40.4045 71.9271 40.562 71.9271 40.7554V51.4956C71.9271 52.077 72.3811 52.5484 72.9411 52.5484C73.501 52.5484 73.955 52.077 73.955 51.4956V40.7554C73.955 39.4011 72.8937 38.2991 71.5892 38.2991H64.3684C63.064 38.2991 62.0026 39.4011 62.0026 40.7554V75.4071H58.6943V48.4168C58.6943 47.0624 57.633 45.9604 56.3285 45.9604H49.1078C47.8032 45.9604 46.7419 47.0624 46.7419 48.4168V75.4071H43.4337V56.0781C43.4337 54.7237 42.3725 53.6217 41.0679 53.6217H33.8471C32.5427 53.6217 31.4813 54.7237 31.4813 56.0781V65.2834C31.4813 65.8648 31.9353 66.3361 32.4952 66.3361C33.0552 66.3361 33.5091 65.8648 33.5091 65.2834V56.0781C33.5091 55.8845 33.6608 55.7272 33.8471 55.7272H41.0679C41.2543 55.7272 41.4059 55.8845 41.4059 56.0781V75.407H33.5091V69.4943C33.5091 68.9129 33.0552 68.4416 32.4952 68.4416C31.9353 68.4416 31.4813 68.9129 31.4813 69.4943V75.407H28.1731V63.7394C28.1731 62.385 27.1118 61.2831 25.8072 61.2831H18.5866C17.2822 61.2831 16.2208 62.385 16.2208 63.7394V75.407H11.5608C11.0008 75.407 10.5469 75.8783 10.5469 76.4597C10.5469 77.0411 11.0008 77.5125 11.5608 77.5125H78.615C79.1749 77.5125 79.6289 77.0411 79.6289 76.4597C79.6289 75.8783 79.1749 75.407 78.615 75.407ZM48.7698 48.4168C48.7698 48.2233 48.9215 48.0659 49.1078 48.0659H56.3285C56.5148 48.0659 56.6665 48.2233 56.6665 48.4168V75.4071H48.7698V48.4168ZM18.2486 63.7394C18.2486 63.546 18.4003 63.3885 18.5866 63.3885H25.8074C25.9938 63.3885 26.1454 63.546 26.1454 63.7394V75.407H18.2486V63.7394Z" fill="#494949"/>
<path d="M21.3735 48.7153C21.4291 48.7153 21.4852 48.7132 21.5414 48.7093C29.019 48.17 36.0507 46.4757 42.4412 43.6733C51.0463 39.8998 58.1702 34.2117 63.6294 26.7583L67.0467 29.2253C67.72 29.7465 68.7458 29.12 68.6344 28.2558L67.218 13.6063C67.1719 12.9807 66.5348 12.5205 65.9536 12.6927L52.2213 16.4062C51.4015 16.5982 51.1927 17.8151 51.8979 18.2893L55.3464 20.7788C54.6604 21.898 53.1487 24.1173 50.5129 26.8319C50.1153 27.2415 50.1127 27.908 50.5071 28.3206C50.9014 28.7335 51.5434 28.7361 51.9409 28.3267C56.0043 24.1417 57.5384 21.0818 57.6017 20.9537C57.8333 20.4846 57.6951 19.9099 57.2783 19.609L54.8652 17.8669L65.3187 15.0401L66.397 26.1916L63.9818 24.4482C63.5295 24.1217 62.9094 24.2297 62.5844 24.6913C57.2717 32.2386 50.229 37.9726 41.6523 41.7337C33.9495 45.1114 26.388 46.249 21.4011 46.6088C21.1097 46.6862 21.0215 46.1308 21.3116 46.0985C32.4208 42.5391 41.6985 37.5351 48.8869 31.2258C49.3147 30.8504 49.3682 30.1862 49.0067 29.7423C48.6454 29.2983 48.0054 29.2424 47.5779 29.6179C40.5991 35.7432 31.5607 40.6112 20.7138 44.0867C19.5874 44.4476 18.9264 45.5819 19.1422 46.7837C19.3473 47.9265 20.2716 48.7153 21.3735 48.7153V48.7153Z" fill="#494949"/>
</g>
<defs>
<clipPath id="clip0_4156_2581">
<rect width="90" height="90" fill="white"/>
</clipPath>
</defs>
</svg>
