<svg width="512" height="512" viewBox="0 0 512 512" fill="none" xmlns="http://www.w3.org/2000/svg">
<g clip-path="url(#clip0_3760_645)">
<circle cx="256" cy="512" r="200" fill="#FFE785"/>
<path d="M512 192.359V156.789C512 147.18 504.18 139.359 494.57 139.359C488.414 139.359 482.629 136.965 478.277 132.621C473.926 128.262 471.527 122.473 471.527 116.32V53.6875C471.527 43.9336 463.594 36 453.84 36H432.508C422.754 36 414.82 43.9375 414.82 53.6875V90.3477C414.82 113.09 396.684 131.895 374.395 132.27C363.312 132.441 352.781 128.266 344.859 120.473C336.934 112.676 332.57 102.262 332.57 91.1484V53.6875C332.57 43.9336 324.633 36 314.879 36H293.551C283.797 36 275.859 43.9375 275.859 53.6875V76.2891C275.859 80.4336 279.219 83.7891 283.359 83.7891C287.504 83.7891 290.859 80.4336 290.859 76.2891V53.6875C290.859 52.207 292.066 51 293.551 51H314.879C316.363 51 317.57 52.207 317.57 53.6875V91.1484C317.57 106.316 323.527 120.527 334.34 131.164C345.152 141.801 359.465 147.488 374.645 147.27C405.07 146.754 429.82 121.219 429.82 90.3477V53.6875C429.82 52.207 431.027 51 432.508 51H453.84C455.32 51 456.527 52.207 456.527 53.6875V116.32C456.527 126.473 460.48 136.027 467.672 143.227C474.863 150.406 484.414 154.359 494.57 154.359C495.91 154.359 497 155.449 497 156.789V187.777L373.691 246.938L250.391 187.781V156.789C250.391 155.961 250.777 155.398 251.117 155.059C251.379 154.797 251.945 154.359 252.82 154.359C273.797 154.359 290.859 137.297 290.859 116.32V106.289C290.859 102.148 287.504 98.7891 283.359 98.7891C279.219 98.7891 275.859 102.148 275.859 106.289V116.32C275.859 129.023 265.523 139.359 252.82 139.359C248.148 139.359 243.766 141.176 240.496 144.465C237.203 147.758 235.391 152.137 235.391 156.789V192.242C235.387 192.41 235.387 192.578 235.391 192.746V317.367L196.82 340.484C191.387 337.367 185.168 335.688 178.859 335.688H134.109V206.125H178.859C198.738 206.125 214.91 189.953 214.91 170.074C214.91 150.195 198.738 134.023 178.859 134.023H171.004V125.832C171.004 109.602 157.797 96.3984 141.566 96.3984H134.109V81.6992C134.109 73.1523 127.156 66.1992 118.609 66.1992H96.3008C87.7539 66.1992 80.8008 73.1523 80.8008 81.6992V96.3984H73.3438C57.1133 96.3984 43.9062 109.602 43.9062 125.832V134.023H36.0508C32.7578 134.023 29.4961 134.469 26.3516 135.344C22.3633 136.457 20.0273 140.594 21.1406 144.586C22.2539 148.574 26.3867 150.902 30.3828 149.793C32.2148 149.281 34.1211 149.023 36.0508 149.023H178.859C190.469 149.023 199.91 158.465 199.91 170.074C199.91 181.68 190.469 191.121 178.859 191.121H36.0508C24.4414 191.121 15 181.68 15 170.074C15 168.883 15.1016 167.684 15.2969 166.52C15.9883 162.434 13.2383 158.562 9.15625 157.871C5.07422 157.176 1.19922 159.93 0.507812 164.016C0.171875 166.008 0 168.047 0 170.074C0 189.953 16.1719 206.125 36.0508 206.125H80.8008V335.688H36.0508C16.1719 335.688 0 351.859 0 371.738C0 381.355 3.74609 390.41 10.5625 397.238C17.3789 404.043 26.4336 407.789 36.0508 407.789H43.9102V415.977C43.9102 432.211 57.1133 445.418 73.3398 445.418H80.8008V460.117C80.8008 468.664 87.7539 475.617 96.3008 475.617H118.609C127.156 475.617 134.109 468.664 134.109 460.117V445.418H134.406C135.957 447.453 137.664 449.387 139.527 451.203C149.602 461.043 162.668 466.051 175.984 466.051H446.379C462.168 466.051 475.016 453.203 475.016 437.41V392.988H479.02C497.207 392.988 512 378.191 512 360.008V192.617C512 192.531 512 192.445 512 192.359V192.359ZM95.8008 81.6992C95.8008 81.4258 96.0234 81.1992 96.3008 81.1992H118.609C118.887 81.1992 119.109 81.4258 119.109 81.6992V96.3984H95.8008V81.6992ZM58.9062 134.023V125.832C58.9062 117.871 65.3828 111.398 73.3438 111.398H88.1445H88.3008H88.4531H126.453H126.609H126.766H141.566C149.527 111.398 156.004 117.871 156.004 125.832V134.023H58.9062ZM314.523 300.43C317.875 300.43 320.891 302.547 322.035 305.695C330.742 329.719 353.762 345.859 379.309 345.859C405.402 345.859 428.582 329.262 436.984 304.559C437.824 302.09 440.145 300.43 442.754 300.43H447.414C454.363 300.43 460.016 306.082 460.016 313.031V407.516H356.18L331.578 372.266C329.211 368.871 324.531 368.039 321.137 370.41C317.742 372.777 316.91 377.453 319.277 380.852L337.887 407.516H319.891L273.562 341.121L286.254 333.512L302.117 356.25C303.578 358.34 305.906 359.461 308.277 359.461C309.758 359.461 311.254 359.023 312.559 358.109C315.957 355.738 316.789 351.062 314.422 347.668L298.457 324.785C302.699 320.004 305.164 313.746 305.164 307.215V300.43H314.523ZM284.121 407.516L248.34 356.238L260.664 348.852L301.598 407.516H284.121ZM247.828 407.516L222.75 371.578L235.441 363.973L265.828 407.52H247.828V407.516ZM178.367 369.031C178.75 369.727 179.188 370.398 179.676 371.035C184.672 377.535 192.242 381.016 199.949 381.016C203.234 381.016 206.547 380.383 209.695 379.078L229.539 407.516H139.324C141.168 396.973 147.535 387.512 156.855 381.93L178.367 369.031ZM290.164 302.031V307.219C290.164 311.16 288.086 314.867 284.734 316.934C284.602 317.012 284.469 317.09 284.34 317.176L259.16 332.266C259.031 332.34 258.902 332.418 258.773 332.5L233.816 347.457C233.77 347.484 233.719 347.516 233.672 347.547L205.359 364.516C200.762 367.273 194.836 366.145 191.566 361.895C191.527 361.844 191.406 361.684 191.457 361.422C191.5 361.191 191.637 361.086 191.707 361.039L200.297 355.891C200.395 355.836 200.496 355.773 200.594 355.711L289.828 302.223C289.941 302.156 290.051 302.094 290.164 302.031V302.031ZM95.8008 206.125H119.109V335.688H95.8008V206.125ZM58.9102 415.98V407.789H101.281C105.422 407.789 108.781 404.434 108.781 400.289C108.781 396.148 105.422 392.789 101.281 392.789H36.0508C30.4336 392.789 25.1445 390.602 21.168 386.633C17.1914 382.645 15 377.355 15 371.738C15 360.133 24.4414 350.688 36.0508 350.688H178.859C179.164 350.688 179.465 350.695 179.766 350.707L149.145 369.062C133.496 378.441 123.777 395.598 123.777 413.844C123.777 418.828 124.48 423.652 125.789 428.219C125.805 428.277 125.824 428.336 125.84 428.395C125.852 428.434 125.863 428.473 125.875 428.512C126.059 429.152 126.258 429.785 126.469 430.418H73.3398C65.3828 430.418 58.9102 423.941 58.9102 415.98V415.98ZM119.109 460.117C119.109 460.391 118.883 460.617 118.609 460.617H96.3008C96.0273 460.617 95.8008 460.391 95.8008 460.117V445.418H119.109V460.117ZM460.016 437.41C460.016 444.934 453.898 451.051 446.375 451.051C273.375 451.051 175.789 451.059 174.992 451.039C157.898 450.59 143.641 438.555 139.797 422.516H243.73C243.797 422.52 243.859 422.52 243.926 422.52C243.992 422.52 244.059 422.52 244.125 422.516H280.02C280.086 422.52 280.148 422.52 280.215 422.52C280.281 422.52 280.348 422.52 280.414 422.516H315.789C315.855 422.52 315.922 422.52 315.984 422.52C316.051 422.52 316.117 422.52 316.184 422.516H352.078C352.145 422.52 352.207 422.52 352.273 422.52C352.34 422.52 352.406 422.52 352.473 422.516H460.016V437.41ZM479.02 377.988H475.016V313.031C475.016 297.812 462.633 285.43 447.414 285.43H442.754C433.719 285.43 425.695 291.176 422.781 299.727C416.449 318.348 398.977 330.855 379.309 330.855C360.047 330.855 342.699 318.691 336.133 300.586C332.848 291.52 324.164 285.43 314.52 285.43C297.801 285.859 291.43 283.789 282.117 289.359L250.387 308.375V204.418L370.445 262.02C371.473 262.512 372.582 262.758 373.691 262.758C374.801 262.758 375.91 262.512 376.934 262.02L496.996 204.414V360.008C497 369.922 488.934 377.988 479.02 377.988V377.988Z" fill="#494949"/>
</g>
<defs>
<clipPath id="clip0_3760_645">
<rect width="512" height="512" fill="white"/>
</clipPath>
</defs>
</svg>
