<svg width="50" height="50" viewBox="0 0 50 50" fill="none" xmlns="http://www.w3.org/2000/svg">
<g clip-path="url(#clip0_3955_574)">
<circle cx="25.4688" cy="54.8633" r="20" fill="#FFE785"/>
<path d="M45.5078 25.9766C46.0472 25.9766 46.4844 25.5393 46.4844 25C46.4844 24.4607 46.0472 24.0234 45.5078 24.0234C44.9685 24.0234 44.5312 24.4607 44.5312 25C44.5312 25.5393 44.9685 25.9766 45.5078 25.9766Z" fill="#494949"/>
<path d="M33.7891 17.1875C34.3284 17.1875 34.7656 16.7503 34.7656 16.2109C34.7656 15.6716 34.3284 15.2344 33.7891 15.2344C33.2497 15.2344 32.8125 15.6716 32.8125 16.2109C32.8125 16.7503 33.2497 17.1875 33.7891 17.1875Z" fill="#494949"/>
<path d="M33.7891 34.7656C34.3284 34.7656 34.7656 34.3284 34.7656 33.7891C34.7656 33.2497 34.3284 32.8125 33.7891 32.8125C33.2497 32.8125 32.8125 33.2497 32.8125 33.7891C32.8125 34.3284 33.2497 34.7656 33.7891 34.7656Z" fill="#494949"/>
<path d="M16.2109 17.1875C16.7503 17.1875 17.1875 16.7503 17.1875 16.2109C17.1875 15.6716 16.7503 15.2344 16.2109 15.2344C15.6716 15.2344 15.2344 15.6716 15.2344 16.2109C15.2344 16.7503 15.6716 17.1875 16.2109 17.1875Z" fill="#494949"/>
<path d="M16.2109 34.7656C16.7503 34.7656 17.1875 34.3284 17.1875 33.7891C17.1875 33.2497 16.7503 32.8125 16.2109 32.8125C15.6716 32.8125 15.2344 33.2497 15.2344 33.7891C15.2344 34.3284 15.6716 34.7656 16.2109 34.7656Z" fill="#494949"/>
<path d="M4.49219 25.9766C5.03153 25.9766 5.46875 25.5393 5.46875 25C5.46875 24.4607 5.03153 24.0234 4.49219 24.0234C3.95285 24.0234 3.51562 24.4607 3.51562 25C3.51562 25.5393 3.95285 25.9766 4.49219 25.9766Z" fill="#494949"/>
<path d="M0.976562 7.8125C3.66895 7.8125 5.85938 10.0029 5.85938 12.6953C5.85938 13.2346 6.29668 13.6719 6.83594 13.6719C7.3752 13.6719 7.8125 13.2346 7.8125 12.6953C7.8125 10.0029 10.0029 7.8125 12.6953 7.8125C13.2346 7.8125 13.6719 7.3752 13.6719 6.83594C13.6719 6.29668 13.2346 5.85938 12.6953 5.85938C10.0029 5.85938 7.8125 3.66895 7.8125 0.976562C7.8125 0.437305 7.3752 0 6.83594 0C6.29668 0 5.85938 0.437305 5.85938 0.976562C5.85938 3.66895 3.66895 5.85938 0.976562 5.85938C0.437305 5.85938 0 6.29668 0 6.83594C0 7.3752 0.437305 7.8125 0.976562 7.8125ZM6.83594 4.49336C7.41357 5.45215 8.21973 6.2583 9.17852 6.83594C8.21973 7.41357 7.41357 8.21973 6.83594 9.17852C6.2583 8.21973 5.45215 7.41357 4.49336 6.83594C5.45215 6.2583 6.2583 5.45215 6.83594 4.49336Z" fill="#494949"/>
<path d="M49.0234 42.1875C46.3311 42.1875 44.1406 39.9971 44.1406 37.3047C44.1406 36.7654 43.7033 36.3281 43.1641 36.3281C42.6248 36.3281 42.1875 36.7654 42.1875 37.3047C42.1875 39.9971 39.9971 42.1875 37.3047 42.1875C36.7654 42.1875 36.3281 42.6248 36.3281 43.1641C36.3281 43.7033 36.7654 44.1406 37.3047 44.1406C39.9971 44.1406 42.1875 46.3311 42.1875 49.0234C42.1875 49.5627 42.6248 50 43.1641 50C43.7033 50 44.1406 49.5627 44.1406 49.0234C44.1406 46.3311 46.3311 44.1406 49.0234 44.1406C49.5627 44.1406 50 43.7033 50 43.1641C50 42.6248 49.5627 42.1875 49.0234 42.1875ZM43.1641 45.5066C42.5864 44.5478 41.7803 43.7417 40.8215 43.1641C41.7804 42.5864 42.5864 41.7803 43.1641 40.8215C43.7417 41.7804 44.5479 42.5864 45.5066 43.1641C44.5479 43.7417 43.7417 44.5479 43.1641 45.5066Z" fill="#494949"/>
<path d="M33.7891 24.0234C29.4813 24.0234 25.9766 20.5187 25.9766 16.2109C25.9766 15.6717 25.5393 15.2344 25 15.2344C24.4607 15.2344 24.0234 15.6717 24.0234 16.2109C24.0234 20.5187 20.5187 24.0234 16.2109 24.0234C15.6717 24.0234 15.2344 24.4607 15.2344 25C15.2344 25.5393 15.6717 25.9766 16.2109 25.9766C20.5187 25.9766 24.0234 29.4813 24.0234 33.7891C24.0234 34.3283 24.4607 34.7656 25 34.7656C25.5393 34.7656 25.9766 34.3283 25.9766 33.7891C25.9766 29.4813 29.4813 25.9766 33.7891 25.9766C34.3283 25.9766 34.7656 25.5393 34.7656 25C34.7656 24.4607 34.3283 24.0234 33.7891 24.0234ZM25 29.5347C24.0413 27.5621 22.4379 25.9587 20.4653 25C22.4379 24.0413 24.0413 22.4379 25 20.4653C25.9587 22.4379 27.5621 24.0413 29.5347 25C27.5621 25.9587 25.9587 27.5621 25 29.5347Z" fill="#494949"/>
<path d="M10.3516 43.5547C10.8908 43.5547 11.3281 43.1174 11.3281 42.5781V40.625H13.2812C13.8205 40.625 14.2578 40.1877 14.2578 39.6484C14.2578 39.1092 13.8205 38.6719 13.2812 38.6719H11.3281V36.7188C11.3281 36.1795 10.8908 35.7422 10.3516 35.7422C9.8123 35.7422 9.375 36.1795 9.375 36.7188V38.6719H7.42188C6.88262 38.6719 6.44531 39.1092 6.44531 39.6484C6.44531 40.1877 6.88262 40.625 7.42188 40.625H9.375V42.5781C9.375 43.1174 9.8123 43.5547 10.3516 43.5547Z" fill="#494949"/>
<path d="M39.6484 14.2578C40.1877 14.2578 40.625 13.8205 40.625 13.2812V11.3281H42.5781C43.1174 11.3281 43.5547 10.8908 43.5547 10.3516C43.5547 9.8123 43.1174 9.375 42.5781 9.375H40.625V7.42188C40.625 6.88262 40.1877 6.44531 39.6484 6.44531C39.1092 6.44531 38.6719 6.88262 38.6719 7.42188V9.375H36.7188C36.1795 9.375 35.7422 9.8123 35.7422 10.3516C35.7422 10.8908 36.1795 11.3281 36.7188 11.3281H38.6719V13.2812C38.6719 13.8205 39.1092 14.2578 39.6484 14.2578Z" fill="#494949"/>
<path d="M25 0C24.4607 0 24.0234 0.437305 24.0234 0.976562V2.92969H22.0703C21.5311 2.92969 21.0938 3.36699 21.0938 3.90625C21.0938 4.44551 21.5311 4.88281 22.0703 4.88281H24.0234V6.83594C24.0234 7.3752 24.4607 7.8125 25 7.8125C25.5393 7.8125 25.9766 7.3752 25.9766 6.83594V4.88281H27.9297C28.4689 4.88281 28.9062 4.44551 28.9062 3.90625C28.9062 3.36699 28.4689 2.92969 27.9297 2.92969H25.9766V0.976562C25.9766 0.437305 25.5393 0 25 0Z" fill="#494949"/>
<path d="M25 50C25.5393 50 25.9766 49.5627 25.9766 49.0234V47.0703H27.9297C28.4689 47.0703 28.9062 46.633 28.9062 46.0938C28.9062 45.5545 28.4689 45.1172 27.9297 45.1172H25.9766V43.1641C25.9766 42.6248 25.5393 42.1875 25 42.1875C24.4607 42.1875 24.0234 42.6248 24.0234 43.1641V45.1172H22.0703C21.5311 45.1172 21.0938 45.5545 21.0938 46.0938C21.0938 46.633 21.5311 47.0703 22.0703 47.0703H24.0234V49.0234C24.0234 49.5627 24.4607 50 25 50Z" fill="#494949"/>
</g>
<defs>
<clipPath id="clip0_3955_574">
<rect width="50" height="50" fill="white"/>
</clipPath>
</defs>
</svg>
