<svg id="Layer_1" data-name="Layer 1" xmlns="http://www.w3.org/2000/svg" viewBox="0 0 22 22"><defs><style>.cls-1{fill:#ffda66;}.cls-2{fill:#494949;}</style></defs><title>Iconset for Detail page</title><path class="cls-1" d="M11.275,20.261a5.246,5.246,0,0,0-7.419-7.419l-.31.31,7.419,7.419Z"/><path class="cls-2" d="M11.161,19.643a.407.407,0,0,1-.286-.117l-8.4-8.4a.406.406,0,0,1,0-.572,6.345,6.345,0,0,1,8.973,8.974A.4.4,0,0,1,11.161,19.643Zm-7.82-8.795,7.81,7.81a5.537,5.537,0,0,0-7.81-7.81Z"/><path class="cls-2" d="M12.915,9.623a.538.538,0,0,1-.38-.919L20.914.325a.538.538,0,1,1,.762.761L13.3,9.466A.537.537,0,0,1,12.915,9.623Z"/><path class="cls-2" d="M.7,13.306a.4.4,0,0,1-.284-.69l1.475-1.474a.4.4,0,0,1,.57.572L.98,13.188A.4.4,0,0,1,.7,13.306Z"/><path class="cls-2" d="M9.1,21.708a.4.4,0,0,1-.285-.69l1.475-1.475a.4.4,0,1,1,.57.572L9.382,21.59A.4.4,0,0,1,9.1,21.708Z"/><path class="cls-2" d="M2.553,15.163a.4.4,0,0,1-.286-.69L3.741,13a.4.4,0,1,1,.572.572L2.839,15.046A.407.407,0,0,1,2.553,15.163Z"/><path class="cls-2" d="M4.765,17.376a.4.4,0,0,1-.286-.118.408.408,0,0,1,0-.572l1.475-1.474a.4.4,0,0,1,.572.572L5.051,17.258A.4.4,0,0,1,4.765,17.376Z"/><path class="cls-2" d="M6.9,19.479a.4.4,0,0,1-.286-.69l1.475-1.474a.4.4,0,1,1,.572.572L7.188,19.361A.4.4,0,0,1,6.9,19.479Z"/></svg>