<?xml version="1.0" encoding="utf-8"?>
<!-- Generator: Adobe Illustrator 26.1.0, SVG Export Plug-In . SVG Version: 6.00 Build 0)  -->
<svg version="1.1" id="Layer_1" xmlns="http://www.w3.org/2000/svg" xmlns:xlink="http://www.w3.org/1999/xlink" x="0px" y="0px"
	 viewBox="0 0 100 100" style="enable-background:new 0 0 100 100;" xml:space="preserve">
<style type="text/css">
	.st0{opacity:0.7;fill:#FFCC05;}
</style>
<path class="st0" d="M80.65,98.26c-0.28,0.02-0.56,0.02-0.85,0.02c-14.86,0-26.9-12.04-26.9-26.9s12.04-26.9,26.9-26.9
	c0.29,0,0.57,0,0.85,0.02V98.26z"/>
<g>
	<path d="M66.9,0.11c2.15,0.48,4.17,1.2,5.83,2.74c2.23,2.07,3.53,4.6,3.55,7.65c0.05,6.22,0.02,12.43,0.03,18.65
		c0,0.42,0,0.84,0,1.34c1.3,0.24,1.56,1.13,1.53,2.3c-0.05,2.11-0.04,4.23,0.01,6.35c0.01,0.33,0.27,0.79,0.55,0.96
		c2.46,1.5,3.7,3.68,3.72,6.55c0.02,2.38,0.01,4.75,0,7.13c0,1.28-0.55,2-1.5,1.98c-0.92-0.02-1.43-0.7-1.43-1.93
		c0-2.34,0.01-4.69,0-7.03c-0.01-2.94-1.87-4.77-4.81-4.64c-1.59,0.07-3.16,0.37-4.75,0.51c-0.76,0.07-0.92,0.43-0.92,1.14
		c0.03,5.89-0.09,11.79,0.05,17.67c0.1,4.04-2.76,6.33-6.23,6.22c-4.59-0.15-9.18-0.02-13.77-0.05c-0.69,0-0.93,0.18-1.05,0.89
		c-0.88,5.03-2.02,10.02-2.69,15.07c-0.91,6.88,4.59,13.25,11.55,13.52c4.81,0.18,9.63,0.04,14.45,0.05c0.05,0,0.1-0.05,0.16-0.08
		c-11.55-8.67-6.6-26.9,8.02-28.66c0-0.62,0-1.25,0-1.89c0-1.95,0-3.91,0-5.86c0-1.3,0.53-1.99,1.48-1.97
		c0.95,0.02,1.45,0.7,1.45,2.03c0,2.25,0,4.49,0,6.74c0,0.32,0,0.64,0,0.79c1.73,0.54,3.4,0.9,4.94,1.56
		c6.41,2.74,10.28,9.71,9.29,16.58c-1,7-6.48,12.53-13.37,13.52c-0.22,0.03-0.43,0.12-0.65,0.18c-8.92,0-17.84,0-26.76,0
		c-0.21-0.06-0.42-0.16-0.63-0.19c-8.47-1.29-14.28-9.47-12.71-17.92c1.12-6.01,2.21-12.02,3.38-18.02
		c2.2-11.26,8.69-18.94,19.39-23.05c0.64-0.24,0.82-0.54,0.81-1.19c-0.04-2.31-0.02-4.62-0.01-6.93c0-1.61,0.18-1.85,1.72-2.4
		c0-1.38,0-2.78,0-4.18c0-5.05,0-10.09,0-15.14c0-1.27-0.69-2.08-1.77-2.17c-0.91-0.08-1.58,0.42-2.1,1.57
		C52.81,34.71,42,58.92,31.18,83.14c-0.11,0.25-0.18,0.52-0.28,0.8c2.06,0.66,2.84,2.07,2.77,4.06c-0.03,0.77,0,1.54,0,2.39
		c1.13,0,2.13-0.01,3.14,0c3.54,0.04,6.39,2.21,7.37,5.6c0.17,0.59,0.27,1.21,0.47,1.79c0.36,1.01,0.08,1.77-0.8,2.34
		c-4.04,0-8.07,0-12.11,0c-0.73-0.44-1.22-1.03-0.93-1.92c0.29-0.89,1.05-1.03,1.89-1.02c1.37,0.03,2.73,0.01,4.1,0.01
		c1.51,0,3.03,0,4.56,0c-0.36-2.33-2.19-3.84-4.65-3.86c-2.44-0.03-4.88-0.01-7.32-0.01c-5.72,0-11.45-0.02-17.17,0.01
		c-2.9,0.01-5.16,1.22-6.82,3.86c0.52,0,0.87,0,1.22,0c6.38,0,12.75,0,19.13-0.01c0.82,0,1.58,0.06,1.93,0.96
		c0.36,0.92-0.21,1.45-0.81,1.98c-8.07,0-16.15,0-24.22,0c-0.94-0.73-0.95-1.63-0.58-2.68c1.48-4.17,5.4-6.98,9.94-7.04
		c1.62-0.02,3.24,0,4.98,0c0-0.94-0.01-1.77,0-2.61c0.02-2.45,1.22-3.69,3.66-3.91c0.33-0.03,0.75-0.43,0.9-0.77
		c3.03-6.72,6.03-13.46,9.04-20.2c4.73-10.59,9.47-21.18,14.2-31.77c0.13-0.3,0.25-0.61,0.44-0.87c0.44-0.57,1.02-0.8,1.72-0.5
		c0.69,0.3,0.98,0.85,0.86,1.57c-0.06,0.35-0.22,0.68-0.36,1c-7.48,16.76-14.97,33.53-22.46,50.29c-0.17,0.38-0.32,0.76-0.53,1.26
		c1.03,0,1.94,0.07,2.82-0.04c0.28-0.04,0.59-0.51,0.75-0.85c3.28-7.29,6.53-14.59,9.79-21.89C45.49,43.91,53.18,26.7,60.85,9.49
		c0.7-1.56,1.66-2.8,3.35-3.3c3.15-0.93,6.2,1.35,6.22,4.7c0.03,6.15,0.01,12.3,0.01,18.45c0,0.36,0,0.71,0,1.15
		c0.97,0,1.88,0,2.87,0c0.02-0.14,0.06-0.29,0.06-0.44c0-6.44,0.04-12.89-0.02-19.33c-0.04-4.44-3.72-7.89-8.14-7.64
		c-3.25,0.18-5.53,1.89-6.86,4.85c-2.62,5.84-5.22,11.69-7.84,17.53c-0.13,0.3-0.25,0.6-0.41,0.89c-0.43,0.78-1.15,1.05-1.88,0.74
		c-0.77-0.33-1.09-1.1-0.77-1.95c0.28-0.73,0.62-1.43,0.94-2.14c2.37-5.31,4.78-10.6,7.12-15.93c1.64-3.74,4.36-6.07,8.4-6.81
		c0.09-0.02,0.17-0.09,0.25-0.14C65.08,0.11,65.99,0.11,66.9,0.11z M93.54,84.29c0-7.15-5.76-12.91-12.91-12.9
		c-7.09,0.01-12.87,5.75-12.91,12.83c-0.04,7.09,5.78,12.95,12.88,12.97C87.74,97.19,93.53,91.41,93.54,84.29z M48.56,64.74
		c0.38,0,0.7,0,1.02,0c4.36,0,8.72,0,13.07,0c2.27,0,3.13-0.85,3.13-3.11c0-5.59,0-11.19,0-16.78c0-0.31,0-0.63,0-0.96
		C58.17,45.39,48.7,56.83,48.56,64.74z M30.73,90.35c0-1,0.05-1.9-0.03-2.8c-0.02-0.26-0.45-0.68-0.69-0.69
		c-3.12-0.05-6.24-0.04-9.35-0.01c-0.24,0-0.67,0.36-0.69,0.58c-0.08,0.95-0.03,1.92-0.03,2.91C23.57,90.35,27.07,90.35,30.73,90.35
		z M74.82,39.09c0-1.87,0-3.7,0-5.54c-2.04,0-4.01,0-6.01,0c0,2.09,0,4.13,0,6.18C70.85,39.52,72.8,39.31,74.82,39.09z"/>
	<path d="M74.07,84.27c0-3.63,2.93-6.58,6.55-6.59c3.65-0.01,6.61,2.97,6.6,6.65c-0.02,3.61-3.01,6.58-6.61,6.55
		C76.99,90.84,74.07,87.9,74.07,84.27z M77.01,84.31c0.02,2.02,1.68,3.65,3.68,3.62c2.01-0.03,3.62-1.69,3.6-3.7
		c-0.02-2-1.69-3.65-3.69-3.62C78.59,80.64,76.99,82.28,77.01,84.31z"/>
</g>
</svg>
