<?xml version="1.0" encoding="utf-8"?>
<!-- Generator: Adobe Illustrator 22.1.0, SVG Export Plug-In . SVG Version: 6.00 Build 0)  -->
<svg version="1.1" id="Layer_1" xmlns="http://www.w3.org/2000/svg" xmlns:xlink="http://www.w3.org/1999/xlink" x="0px" y="0px"
	 viewBox="0 0 43.6 43.5" style="enable-background:new 0 0 43.6 43.5;" xml:space="preserve">
<style type="text/css">
	.st0{fill:#858585;}
	.st1{fill:#FFCC05;}
</style>
<g>
	<g>
		<path class="st0" d="M32,43.1H12c-0.3,0-0.5-0.2-0.5-0.5V28.9c0-0.3,0.2-0.5,0.5-0.5h20c0.3,0,0.5,0.2,0.5,0.5v13.6
			C32.5,42.8,32.2,43.1,32,43.1z M12.5,42.1h19V29.4h-19V42.1z"/>
		<path class="st0" d="M32,22.9H11.4c-0.3,0-0.5-0.2-0.5-0.5s0.2-0.5,0.5-0.5H32c0.3,0,0.5,0.2,0.5,0.5C32.5,22.7,32.2,22.9,32,22.9
			z"/>
		<path class="st0" d="M32,18.6H11.4c-0.3,0-0.5-0.2-0.5-0.5s0.2-0.5,0.5-0.5H32c0.3,0,0.5,0.2,0.5,0.5S32.2,18.6,32,18.6z"/>
		<path class="st0" d="M32,29.4H12c-0.3,0-0.5-0.2-0.5-0.5s0.2-0.5,0.5-0.5h20c0.3,0,0.5,0.2,0.5,0.5S32.2,29.4,32,29.4z"/>
		<path class="st1" d="M16.6,42.6V38c0-1.9,0.9-3.8,2.5-4.9l2.6-2l2.4,2c1.4,1.2,2.2,2.9,2.2,4.8v4.8"/>
		<path class="st0" d="M26.3,43.1c-0.3,0-0.5-0.2-0.5-0.5v-4.8c0-1.7-0.8-3.3-2.1-4.4l-2-1.7l-2.3,1.7c-1.4,1.1-2.3,2.8-2.3,4.5v4.6
			c0,0.3-0.2,0.5-0.5,0.5s-0.5-0.2-0.5-0.5v-4.6c0-2.1,1-4.1,2.7-5.3l2.6-2c0.2-0.1,0.4-0.1,0.6,0l2.4,2c1.5,1.3,2.4,3.2,2.4,5.2
			v4.8C26.8,42.8,26.5,43.1,26.3,43.1z"/>
		<path class="st0" d="M21.7,27.5c-0.3,0-0.5-0.2-0.5-0.5v-2.6c0-0.3,0.2-0.5,0.5-0.5s0.5,0.2,0.5,0.5V27
			C22.2,27.2,21.9,27.5,21.7,27.5z"/>
		<path class="st0" d="M18.1,27.5c-0.3,0-0.5-0.2-0.5-0.5v-2.6c0-0.3,0.2-0.5,0.5-0.5s0.5,0.2,0.5,0.5V27
			C18.6,27.2,18.4,27.5,18.1,27.5z"/>
		<path class="st0" d="M14.8,27.5c-0.3,0-0.5-0.2-0.5-0.5v-2.6c0-0.3,0.2-0.5,0.5-0.5s0.5,0.2,0.5,0.5V27
			C15.3,27.2,15,27.5,14.8,27.5z"/>
		<path class="st0" d="M11.4,25.2H8.8c-0.3,0-0.5-0.2-0.5-0.5s0.2-0.5,0.5-0.5h2.6c0.3,0,0.5,0.2,0.5,0.5S11.7,25.2,11.4,25.2z"/>
		<path class="st0" d="M34.9,25.2h-2.6c-0.3,0-0.5-0.2-0.5-0.5s0.2-0.5,0.5-0.5h2.6c0.3,0,0.5,0.2,0.5,0.5S35.2,25.2,34.9,25.2z"/>
		<path class="st1" d="M14.8,34.6c-0.3,0-0.5-0.2-0.5-0.5v-2.6c0-0.3,0.2-0.5,0.5-0.5s0.5,0.2,0.5,0.5v2.6
			C15.3,34.4,15,34.6,14.8,34.6z"/>
		<path class="st1" d="M28.6,34.6c-0.3,0-0.5-0.2-0.5-0.5v-2.6c0-0.3,0.2-0.5,0.5-0.5s0.5,0.2,0.5,0.5v2.6
			C29.1,34.4,28.8,34.6,28.6,34.6z"/>
		<path class="st0" d="M25.2,27.5c-0.3,0-0.5-0.2-0.5-0.5v-2.6c0-0.3,0.2-0.5,0.5-0.5s0.5,0.2,0.5,0.5V27
			C25.7,27.2,25.5,27.5,25.2,27.5z"/>
		<path class="st1" d="M21.7,21.4c-0.3,0-0.5-0.2-0.5-0.5v-1.3c0-0.3,0.2-0.5,0.5-0.5s0.5,0.2,0.5,0.5v1.3
			C22.2,21.2,21.9,21.4,21.7,21.4z"/>
		<path class="st1" d="M18.1,21.4c-0.3,0-0.5-0.2-0.5-0.5v-1.3c0-0.3,0.2-0.5,0.5-0.5s0.5,0.2,0.5,0.5v1.3
			C18.6,21.2,18.4,21.4,18.1,21.4z"/>
		<path class="st1" d="M14.8,21.4c-0.3,0-0.5-0.2-0.5-0.5v-1.3c0-0.3,0.2-0.5,0.5-0.5s0.5,0.2,0.5,0.5v1.3
			C15.3,21.2,15,21.4,14.8,21.4z"/>
		<path class="st1" d="M25.2,21.4c-0.3,0-0.5-0.2-0.5-0.5v-1.3c0-0.3,0.2-0.5,0.5-0.5s0.5,0.2,0.5,0.5v1.3
			C25.7,21.2,25.5,21.4,25.2,21.4z"/>
		<path class="st1" d="M28.6,21.4c-0.3,0-0.5-0.2-0.5-0.5v-1.3c0-0.3,0.2-0.5,0.5-0.5s0.5,0.2,0.5,0.5v1.3
			C29.1,21.2,28.8,21.4,28.6,21.4z"/>
		<path class="st0" d="M28.6,27.5c-0.3,0-0.5-0.2-0.5-0.5v-2.6c0-0.3,0.2-0.5,0.5-0.5s0.5,0.2,0.5,0.5V27
			C29.1,27.2,28.8,27.5,28.6,27.5z"/>
		<path class="st1" d="M9,3.6V2.5C9,2,9.2,1.6,9.6,1.3l0.6-0.5l0.6,0.5c0.3,0.3,0.5,0.7,0.5,1.1v1.2H9z"/>
		<path class="st0" d="M11.3,4.1H9c-0.3,0-0.5-0.2-0.5-0.5V2.5c0-0.6,0.3-1.2,0.8-1.6l0.6-0.5c0.2-0.1,0.4-0.1,0.6,0l0.6,0.5
			c0.5,0.4,0.7,0.9,0.7,1.5v1.2C11.8,3.9,11.6,4.1,11.3,4.1z M9.5,3.1h1.3V2.5c0-0.3-0.1-0.6-0.4-0.8l-0.2-0.2L9.9,1.7
			C9.7,1.9,9.5,2.2,9.5,2.5C9.5,2.5,9.5,3.1,9.5,3.1z"/>
		<path class="st0" d="M13.1,28.6H7.2c-0.3,0-0.5-0.2-0.5-0.5v-5.4c0-0.3,0.2-0.5,0.5-0.5h5.9c0.3,0,0.5,0.2,0.5,0.5v5.4
			C13.6,28.4,13.3,28.6,13.1,28.6z M7.7,27.6h4.9v-4.4H7.7V27.6z"/>
		<path class="st0" d="M12,43.1H8.3c-0.3,0-0.5-0.2-0.5-0.5V28.1c0-0.3,0.2-0.5,0.5-0.5H12c0.3,0,0.5,0.2,0.5,0.5v14.5
			C12.5,42.8,12.3,43.1,12,43.1z M8.8,42.1h2.7V28.6H8.8V42.1z"/>
		<path class="st0" d="M12,18.6H8.3c-0.3,0-0.5-0.2-0.5-0.5v-4.5c0-0.3,0.2-0.5,0.5-0.5H12c0.3,0,0.5,0.2,0.5,0.5v4.5
			C12.5,18.4,12.3,18.6,12,18.6z M8.8,17.6h2.7v-3.5H8.8V17.6z"/>
		<path class="st0" d="M11.3,23.1H9c-0.3,0-0.5-0.2-0.5-0.5v-4.5c0-0.3,0.2-0.5,0.5-0.5h2.3c0.3,0,0.5,0.2,0.5,0.5v4.5
			C11.8,22.9,11.6,23.1,11.3,23.1z M9.5,22.1h1.3v-3.5H9.5V22.1z"/>
		<path class="st0" d="M11.5,10.8H8.7c-0.3,0-0.5-0.2-0.5-0.5V7c0-0.3,0.2-0.5,0.5-0.5h2.8C11.8,6.5,12,6.7,12,7v3.3
			C12,10.6,11.8,10.8,11.5,10.8z M9.3,9.8h1.8V7.5H9.3V9.8z"/>
		<path class="st0" d="M11,14.2H9.3c-0.3,0-0.5-0.2-0.5-0.5v-3.3c0-0.3,0.2-0.5,0.5-0.5H11c0.3,0,0.5,0.2,0.5,0.5v3.3
			C11.5,13.9,11.3,14.2,11,14.2z M9.8,13.2h0.7v-2.3H9.8V13.2z"/>
		<path class="st1" d="M32.4,3.6V2.5c0-0.5,0.2-0.9,0.6-1.2l0.6-0.5l0.6,0.5c0.3,0.3,0.5,0.7,0.5,1.1v1.2H32.4z"/>
		<path class="st0" d="M11,7.5H9.3C9,7.5,8.8,7.3,8.8,7V3.7c0-0.3,0.2-0.5,0.5-0.5H11c0.3,0,0.5,0.2,0.5,0.5V7
			C11.5,7.3,11.3,7.5,11,7.5z M9.8,6.5h0.7V4.2H9.8V6.5z"/>
		<path class="st0" d="M34.8,4.1h-2.3c-0.3,0-0.5-0.2-0.5-0.5V2.5c0-0.6,0.3-1.2,0.8-1.6l0.6-0.5c0.2-0.1,0.4-0.1,0.6,0l0.6,0.5
			c0.5,0.4,0.7,0.9,0.7,1.5v1.2C35.3,3.9,35,4.1,34.8,4.1z M32.9,3.1h1.3V2.5c0-0.3-0.1-0.6-0.4-0.8l-0.2-0.2l-0.3,0.2
			c-0.2,0.2-0.4,0.5-0.4,0.8V3.1z"/>
		<path class="st0" d="M36.5,28.6h-5.8c-0.3,0-0.5-0.2-0.5-0.5v-5.4c0-0.3,0.2-0.5,0.5-0.5h5.9c0.3,0,0.5,0.2,0.5,0.5v5.4
			C37,28.4,36.8,28.6,36.5,28.6z M31.2,27.6h4.9v-4.4h-4.9V27.6z"/>
		<path class="st0" d="M35.4,43.1h-3.7c-0.3,0-0.5-0.2-0.5-0.5V28.1c0-0.3,0.2-0.5,0.5-0.5h3.7c0.3,0,0.5,0.2,0.5,0.5v14.5
			C35.9,42.8,35.7,43.1,35.4,43.1z M32.3,42.1H35V28.6h-2.7V42.1z"/>
		<path class="st0" d="M35.4,18.6h-3.7c-0.3,0-0.5-0.2-0.5-0.5v-4.5c0-0.3,0.2-0.5,0.5-0.5h3.7c0.3,0,0.5,0.2,0.5,0.5v4.5
			C35.9,18.4,35.7,18.6,35.4,18.6z M32.3,17.6H35v-3.5h-2.7V17.6z"/>
		<path class="st0" d="M34.8,23.1h-2.3c-0.3,0-0.5-0.2-0.5-0.5v-4.5c0-0.3,0.2-0.5,0.5-0.5h2.3c0.3,0,0.5,0.2,0.5,0.5v4.5
			C35.3,22.9,35,23.1,34.8,23.1z M32.9,22.1h1.3v-3.5h-1.3V22.1z"/>
		<path class="st0" d="M35,10.8h-2.8c-0.3,0-0.5-0.2-0.5-0.5V7c0-0.3,0.2-0.5,0.5-0.5H35c0.3,0,0.5,0.2,0.5,0.5v3.3
			C35.5,10.6,35.3,10.8,35,10.8z M32.7,9.8h1.8V7.5h-1.8V9.8z"/>
		<path class="st0" d="M34.5,14.2h-1.8c-0.3,0-0.5-0.2-0.5-0.5v-3.3c0-0.3,0.2-0.5,0.5-0.5h1.7c0.3,0,0.5,0.2,0.5,0.5v3.3
			C35,13.9,34.7,14.2,34.5,14.2z M33.2,13.2h0.7v-2.3h-0.7V13.2z"/>
		<path class="st0" d="M34.5,7.5h-1.8c-0.3,0-0.5-0.2-0.5-0.5V3.7c0-0.3,0.2-0.5,0.5-0.5h1.7c0.3,0,0.5,0.2,0.5,0.5V7
			C35,7.3,34.7,7.5,34.5,7.5z M33.2,6.5h0.7V4.2h-0.7V6.5z"/>
	</g>
	<path class="st0" d="M42.7,43.1H0.8c-0.3,0-0.5-0.2-0.5-0.5s0.2-0.5,0.5-0.5h41.9c0.3,0,0.5,0.2,0.5,0.5S43,43.1,42.7,43.1z"/>
</g>
</svg>
