<svg width="50" height="50" viewBox="0 0 50 50" fill="none" xmlns="http://www.w3.org/2000/svg">
<g clip-path="url(#clip0_4156_2912)">
<circle cx="25" cy="54.3945" r="19.5312" fill="#FFE785"/>
<path d="M45.8485 12.8826H45.4197C45.1687 10.7319 43.438 9.02672 41.275 8.81805C41.0267 6.49948 39.0598 4.6875 36.6768 4.6875H7.16324C3.2135 4.6875 0 7.901 0 11.8504V32.5439C0 34.9438 1.8364 36.9217 4.17709 37.1479C4.42276 39.4417 6.35109 41.2384 8.6998 41.2762C8.7059 41.6832 8.76961 42.0761 8.88519 42.4469C9.41124 44.1357 10.9898 45.3651 12.8494 45.3651H45.8485C48.1377 45.3651 50 43.5028 50 41.214V17.0341C50 14.7449 48.1377 12.8826 45.8485 12.8826V12.8826ZM48.0469 17.0341V33.0242L43.7988 29.8153C42.638 28.9387 41.0683 28.9249 39.8926 29.7813L34.5188 33.6967L24.271 23.1316C23.0503 21.8727 21.064 21.7953 19.7491 22.9557L10.6514 30.9822V17.0341C10.6514 15.8218 11.6375 14.8357 12.8494 14.8357H45.8485C47.0608 14.8357 48.0469 15.8218 48.0469 17.0341ZM48.0469 41.2136C48.0469 42.4259 47.0608 43.412 45.8488 43.412H12.8494C11.8649 43.412 11.0291 42.7608 10.7506 41.8667C10.6861 41.6603 10.6514 41.441 10.6514 41.214V33.5865L21.0415 24.4202C21.5729 23.951 22.3755 23.9822 22.8691 24.4911L27.494 29.2595C27.494 29.2599 27.494 29.2599 27.4944 29.2599L36.6997 38.7505C36.8912 38.9481 37.1456 39.0472 37.4008 39.0472C37.6457 39.0472 37.891 38.9557 38.0806 38.7718C38.4674 38.3961 38.4769 37.7781 38.1016 37.3909L35.8921 35.1128L41.0427 31.3602C41.518 31.0139 42.1524 31.0192 42.6216 31.3736L48.0469 35.4717V41.2136ZM6.10352 36.6524V13.5948C6.10352 13.4968 6.10847 13.3995 6.11839 13.3041C6.26411 11.871 7.47833 10.7491 8.94928 10.7491H20.8946C21.434 10.7491 21.8712 10.3119 21.8712 9.77249C21.8712 9.23309 21.434 8.79593 20.8946 8.79593H8.94928C6.30302 8.79593 4.15039 10.9486 4.15039 13.5948V35.1746C2.9026 34.9499 1.95312 33.8558 1.95312 32.5439V11.8504C1.95312 8.97789 4.29039 6.64062 7.16324 6.64062H36.6768C37.973 6.64062 39.0568 7.56874 39.2982 8.79593H28.7071C28.1677 8.79593 27.7306 9.23309 27.7306 9.77249C27.7306 10.3119 28.1677 10.7491 28.7071 10.7491H40.3252H40.3263H40.8272C42.1158 10.7491 43.1946 11.6665 43.4444 12.8826H12.8494C10.5606 12.8826 8.69827 14.7449 8.69827 17.0341V33.1451V33.1459V39.323C7.26051 39.2822 6.10352 38.1001 6.10352 36.6524V36.6524Z" fill="#494949"/>
<path d="M37.9411 18.8103C35.6363 18.8103 33.7617 20.6852 33.7617 22.9893C33.7617 25.2938 35.6366 27.1687 37.9411 27.1687C40.2452 27.1687 42.1201 25.2938 42.1201 22.9893C42.1201 20.6852 40.2452 18.8103 37.9411 18.8103ZM37.9411 25.2156C36.7135 25.2156 35.7148 24.2169 35.7148 22.9897C35.7148 21.7621 36.7135 20.7634 37.9411 20.7634C39.1683 20.7634 40.167 21.7621 40.167 22.9897C40.167 24.2169 39.1683 25.2156 37.9411 25.2156Z" fill="#494949"/>
<path d="M23.8994 10.1463C23.9238 10.205 23.9539 10.2615 23.989 10.3145C24.0245 10.3679 24.0653 10.4179 24.1103 10.4629C24.1553 10.5075 24.2049 10.5487 24.2587 10.5849C24.3114 10.62 24.369 10.6502 24.4277 10.6746C24.4861 10.699 24.5479 10.7177 24.6104 10.7303C24.6726 10.7429 24.7371 10.749 24.8008 10.749C24.8652 10.749 24.9286 10.7429 24.9923 10.7303C25.0545 10.7177 25.1151 10.699 25.1746 10.6746C25.2334 10.6502 25.2898 10.62 25.3428 10.5849C25.3963 10.5487 25.4462 10.5075 25.4912 10.4629C25.537 10.4179 25.5771 10.3679 25.6133 10.3145C25.6484 10.2615 25.6785 10.205 25.703 10.1463C25.7274 10.0867 25.7461 10.0253 25.7587 9.96392C25.7712 9.90021 25.7773 9.83574 25.7773 9.77242C25.7773 9.70871 25.7712 9.64425 25.7587 9.58207C25.7461 9.5195 25.7274 9.45771 25.703 9.39934C25.6785 9.33983 25.6484 9.28299 25.6133 9.23035C25.5771 9.17656 25.537 9.12697 25.4912 9.08196C25.4462 9.03695 25.3963 8.99613 25.3428 8.96065C25.2898 8.92556 25.2334 8.89542 25.1746 8.87101C25.1151 8.84659 25.0545 8.8279 24.9923 8.81531C24.866 8.78975 24.7363 8.78975 24.6104 8.81531C24.5479 8.8279 24.4861 8.84659 24.4277 8.87101C24.369 8.89542 24.3114 8.92556 24.2587 8.96065C24.2049 8.99613 24.1553 9.03695 24.1103 9.08196C24.0653 9.12697 24.0245 9.17656 23.989 9.23035C23.9539 9.28299 23.9238 9.33983 23.8994 9.39934C23.875 9.45771 23.8563 9.5195 23.8437 9.58207C23.8311 9.64425 23.8242 9.70871 23.8242 9.77242C23.8242 9.83574 23.8311 9.90021 23.8437 9.96392C23.8563 10.0253 23.875 10.0867 23.8994 10.1463Z" fill="#494949"/>
</g>
<defs>
<clipPath id="clip0_4156_2912">
<rect width="50" height="50" fill="white"/>
</clipPath>
</defs>
</svg>
