<svg width="118" height="118" viewBox="0 0 118 118" fill="none" xmlns="http://www.w3.org/2000/svg">
<g clip-path="url(#clip0_4156_2707)">
<circle cx="59" cy="128.371" r="46.0938" fill="#FFE785"/>
<path d="M54.8987 59.6039C53.2369 58.3892 51.1972 57.6635 48.9851 57.6635C43.444 57.6635 38.9353 62.1707 38.9353 67.7118C38.9353 73.2536 43.444 77.7616 48.9851 77.7616C54.5285 77.7616 59.0373 73.2536 59.0373 67.7118C59.0373 65.4997 58.3108 63.4599 57.0953 61.7989L64.4914 54.402C67.5689 57.9825 69.4356 62.631 69.4356 67.7118C69.4356 78.9879 60.262 88.1622 48.9866 88.1622C37.7097 88.1622 28.5354 78.9879 28.5354 67.7118C28.5354 56.4372 37.7097 47.2636 48.9866 47.2636C54.0659 47.2636 58.7159 49.1303 62.2964 52.2062L54.8987 59.6039ZM47.8876 68.8092C48.191 69.1127 48.5885 69.2641 48.9851 69.2641C49.3825 69.2641 49.7807 69.1127 50.0841 68.8092L54.8646 64.0288C55.5367 65.0984 55.9326 66.3589 55.9326 67.7118C55.9326 71.5422 52.8162 74.6569 48.9851 74.6569C45.1562 74.6569 42.0399 71.5422 42.0399 67.7118C42.0399 63.8829 45.1562 60.7682 48.9851 60.7682C50.3395 60.7682 51.6 61.1632 52.6688 61.8346L47.8876 66.6151C47.2814 67.2205 47.2814 68.2038 47.8876 68.8092V68.8092ZM48.9851 33.811C57.7744 33.811 65.7907 37.1796 71.8192 42.6826L64.4945 50.0073C60.3482 46.3718 54.9228 44.1589 48.9866 44.1589C35.9982 44.1589 25.4307 54.7257 25.4307 67.7118C25.4307 80.6994 35.9982 91.2669 48.9866 91.2669C61.975 91.2669 72.5402 80.6994 72.5402 67.7118C72.5402 61.7756 70.3282 56.3494 66.691 52.2031L74.0149 44.8784C79.5188 50.9077 82.8819 58.924 82.8819 67.7118C82.8819 86.4027 67.6768 101.609 48.9851 101.609C30.295 101.609 15.089 86.4027 15.089 67.7118C15.089 49.0216 30.295 33.811 48.9851 33.811V33.811ZM48.9851 104.714C69.3882 104.714 85.9866 88.1149 85.9866 67.7118C85.9866 58.0679 82.2749 49.2769 76.21 42.6826L83.1737 35.7205C83.4213 36.0697 83.8063 36.3181 84.2658 36.3647L98.8414 37.9713C98.8989 37.9713 98.9563 37.9791 99.013 37.9791C99.7946 37.9791 100.467 37.3892 100.554 36.5975C100.648 35.7437 100.033 34.9753 99.1806 34.8821L85.5131 33.3841L89.5197 29.3713C89.5849 29.3869 89.6485 29.4102 89.7184 29.418L104.294 31.0168C104.351 31.0246 104.409 31.0246 104.466 31.0246C105.246 31.0246 105.919 30.4425 106.006 29.643C106.099 28.7892 105.485 28.0286 104.632 27.9354L92.3154 26.5771L99.7961 19.0949C100.403 18.4895 100.403 17.5116 99.7961 16.8984C99.1899 16.293 98.2074 16.293 97.6012 16.8984L89.9287 24.5746L85.8818 14.1274C85.5729 13.328 84.6733 12.9321 83.8746 13.2426C83.0736 13.5453 82.677 14.4456 82.9867 15.2451L87.4776 26.8411C87.4947 26.8876 87.5249 26.9187 87.5443 26.9575L84.241 30.2639L80.1847 19.4597C79.8828 18.6525 78.9879 18.2489 78.1853 18.5516C77.3827 18.8543 76.976 19.7469 77.2772 20.5464L81.7665 32.5071C81.7867 32.5614 81.824 32.6003 81.8496 32.6546L74.0142 40.4861C67.4206 34.4242 58.6297 30.7064 48.9851 30.7064C28.5835 30.7064 11.9844 47.3102 11.9844 67.7118C11.9844 88.1149 28.5835 104.714 48.9851 104.714" fill="#494949"/>
</g>
<defs>
<clipPath id="clip0_4156_2707">
<rect width="118" height="118" fill="white"/>
</clipPath>
</defs>
</svg>
