<svg width="512" height="512" viewBox="0 0 512 512" fill="none" xmlns="http://www.w3.org/2000/svg">
<g clip-path="url(#clip0_3760_181)">
<circle cx="256" cy="512" r="200" fill="#FFE785"/>
<g clip-path="url(#clip1_3760_181)">
<path d="M504.5 314.569C508.643 314.569 512 311.212 512 307.069V27.5C512 12.336 499.664 0 484.5 0H27.5C12.336 0 0 12.336 0 27.5V382.5C0 397.664 12.336 410 27.5 410H345.5V477.75C345.5 496.636 360.864 512 379.75 512C398.636 512 414 496.636 414 477.75V410H484.5C499.664 410 512 397.664 512 382.5V346.924C512 337.538 497 337.111 497 346.924V382.5C497 389.393 491.393 395 484.5 395H414V366.481H427.378C449.501 366.481 467.5 348.483 467.5 326.36V78.288C467.5 56.165 449.501 38.167 427.378 38.167H385.622C363.499 38.167 345.5 56.165 345.5 78.288V326.36C345.5 348.483 363.499 366.481 385.622 366.481H399V395H27.5C20.607 395 15 389.393 15 382.5V27.5C15 20.607 20.607 15 27.5 15H484.5C491.393 15 497 20.607 497 27.5V307.069C497 311.212 500.357 314.569 504.5 314.569V314.569ZM360.5 326.36V78.288C360.5 64.436 371.77 53.167 385.622 53.167H427.378C441.231 53.167 452.5 64.437 452.5 78.288V326.36C452.5 340.212 441.23 351.481 427.378 351.481H385.622C371.77 351.481 360.5 340.212 360.5 326.36V326.36ZM399 477.75C399 488.364 390.364 497 379.75 497C369.136 497 360.5 488.364 360.5 477.75V410H399V477.75Z" fill="#494949"/>
<path d="M314.275 252.183V46.0508C314.275 41.9078 310.918 38.5508 306.775 38.5508H42C37.858 38.5508 34.5 41.9078 34.5 46.0508V75.5278C34.5 84.9138 49.5 85.3408 49.5 75.5278V53.5508H299.275V244.683H219.784V214.991C240.962 212.984 257.801 195.824 259.239 174.46C260.394 157.299 251.359 140.972 236.22 132.866C231.238 130.199 228.143 125.218 228.143 119.866V119.41C228.143 87.3958 202.098 61.3508 170.085 61.3508C138.072 61.3508 112.027 87.3958 112.027 119.41V119.867C112.027 125.218 108.932 130.199 103.95 132.866C88.811 140.971 79.776 157.299 80.931 174.46C82.324 195.146 98.156 211.891 118.386 214.754V244.683H49.5V117.001C49.5 107.615 34.5 107.188 34.5 117.001V252.183C34.5 256.326 37.858 259.683 42 259.683H306.775C310.918 259.683 314.275 256.325 314.275 252.183V252.183ZM95.899 173.452C95.139 162.16 101.079 151.42 111.032 146.091C120.899 140.808 127.029 130.76 127.029 119.867V119.41C127.029 95.6678 146.345 76.3508 170.087 76.3508C193.829 76.3508 213.145 95.6668 213.145 119.41V119.866C213.145 130.759 219.274 140.807 229.142 146.091C239.095 151.42 245.035 162.16 244.275 173.452C243.329 187.497 232.242 198.775 218.308 200.066C216.092 191.029 211.421 182.765 204.709 176.146C208.743 169.699 211.084 162.09 211.084 153.94V138.278C211.084 136.189 210.213 134.195 208.681 132.776C204.933 129.304 201.27 123.556 198.087 116.154C194.139 106.97 181.12 105.181 174.94 113.163C160.902 131.298 134.62 132.4 134.376 132.408C130.32 132.525 127.092 135.847 127.092 139.905C127.092 152.515 126.453 164.945 133.475 176.159C126.89 182.684 122.213 190.891 119.949 199.825C106.926 197.726 96.801 186.847 95.899 173.452ZM142.09 153.94V146.646C152.542 145.026 171.937 139.967 185.263 124.241C188.475 131.256 192.101 136.992 196.082 141.353V153.94C196.082 168.826 183.972 180.936 169.086 180.936C154.201 180.937 142.09 168.826 142.09 153.94V153.94ZM133.388 244.683V212.205C133.388 202.845 137.118 193.882 143.568 187.262C158.414 198.659 179.772 198.657 194.616 187.253C201.121 193.896 204.785 202.784 204.785 212.205V244.683H133.388Z" fill="#494949"/>
<path d="M44.6382 325.564C44.6382 341.968 57.9842 355.314 74.3882 355.314C90.7922 355.314 104.138 341.968 104.138 325.564C104.138 309.16 90.7922 295.814 74.3882 295.814C57.9842 295.814 44.6382 309.16 44.6382 325.564V325.564ZM89.1382 325.564C89.1382 333.697 82.5212 340.314 74.3882 340.314C66.2552 340.314 59.6382 333.697 59.6382 325.564C59.6382 317.431 66.2552 310.814 74.3882 310.814C82.5212 310.814 89.1382 317.432 89.1382 325.564Z" fill="#494949"/>
<path d="M122.388 325.564C122.388 341.968 135.734 355.314 152.138 355.314C168.542 355.314 181.888 341.968 181.888 325.564C181.888 309.16 168.542 295.814 152.138 295.814C135.734 295.814 122.388 309.16 122.388 325.564ZM166.888 325.564C166.888 333.697 160.271 340.314 152.138 340.314C144.005 340.314 137.388 333.697 137.388 325.564C137.388 317.431 144.005 310.814 152.138 310.814C160.271 310.814 166.888 317.432 166.888 325.564Z" fill="#494949"/>
<path d="M293 288.5C283.348 288.5 283.332 303.5 293 303.5C302.652 303.5 302.668 288.5 293 288.5Z" fill="#494949"/>
<path d="M293 319.99C283.348 319.99 283.332 334.99 293 334.99C302.652 334.99 302.668 319.99 293 319.99Z" fill="#494949"/>
<path d="M293 366.482C302.652 366.482 302.668 351.482 293 351.482C283.348 351.482 283.332 366.482 293 366.482Z" fill="#494949"/>
<path d="M261 319.99C251.348 319.99 251.332 334.99 261 334.99C270.652 334.99 270.668 319.99 261 319.99Z" fill="#494949"/>
<path d="M261 366.482C270.652 366.482 270.668 351.482 261 351.482C251.348 351.482 251.332 366.482 261 366.482Z" fill="#494949"/>
<path d="M229 366.482C238.652 366.482 238.668 351.482 229 351.482C219.348 351.482 219.332 366.482 229 366.482Z" fill="#494949"/>
</g>
</g>
<defs>
<clipPath id="clip0_3760_181">
<rect width="512" height="512" fill="white"/>
</clipPath>
<clipPath id="clip1_3760_181">
<rect width="512" height="512" fill="white"/>
</clipPath>
</defs>
</svg>
