<svg width="512" height="512" viewBox="0 0 512 512" fill="none" xmlns="http://www.w3.org/2000/svg">
<g clip-path="url(#clip0_3980_760)">
<circle cx="256" cy="557" r="200" fill="#FFE785"/>
<path d="M453.451 310.992C458.137 315.679 458.137 323.276 453.451 327.963L386.151 395.263C383.901 397.513 380.848 398.778 377.666 398.778C374.484 398.778 371.431 397.514 369.181 395.263L328.273 354.355C323.587 349.668 323.587 342.071 328.273 337.384C332.96 332.698 340.558 332.698 345.244 337.384L377.666 369.807L436.481 310.992C441.167 306.307 448.765 306.306 453.451 310.992V310.992ZM511.98 353.127C511.98 419.912 457.647 474.245 390.862 474.245C378.605 474.245 366.771 472.409 355.612 469.007C304.965 493.915 253.661 506.488 202.803 506.488C195.566 506.488 188.345 506.234 181.129 505.725C123.023 501.622 64.327 480.866 6.67196 444.031C3.56596 442.047 1.54396 438.744 1.18896 435.075C-3.68904 384.703 6.54497 335.56 30.008 296.699C52.311 259.757 85.52 232.892 126.779 218.163C110.622 198.961 99.256 176.448 93.663 152.28C87.246 124.549 89.047 96.055 98.733 72.047C115.642 30.141 153.694 5.704 203.134 5.002L203.304 5L203.474 5.002C252.914 5.705 290.966 30.142 307.874 72.048C317.561 96.055 319.361 124.549 312.944 152.28C307.351 176.45 295.983 198.965 279.823 218.169C299.274 225.106 316.946 234.744 332.606 246.967C349.901 237.439 369.757 232.009 390.86 232.009C457.647 232.008 511.98 286.342 511.98 353.127V353.127ZM153.635 211.959C170.387 228.573 187.098 236.997 203.304 236.997C219.51 236.997 236.221 228.573 252.972 211.959C288.916 176.313 302.341 122.472 285.618 81.026C272.328 48.088 243.1 29.616 203.304 29C163.507 29.616 134.279 48.088 120.989 81.026C104.267 122.473 117.691 176.314 153.635 211.959ZM326.802 455.871C292.565 434.448 269.743 396.405 269.743 353.127C269.743 316.513 286.076 283.643 311.836 261.415C296.774 250.779 279.701 242.687 260.863 237.261C242.213 253.017 222.894 260.998 203.304 260.998C183.714 260.998 164.396 253.017 145.745 237.262C64.715 260.669 17.758 334.111 24.581 426.952C126.104 490.108 225.223 499.625 326.802 455.871V455.871ZM487.98 353.127C487.98 299.576 444.413 256.008 390.862 256.008C337.311 256.008 293.743 299.575 293.743 353.127C293.743 406.679 337.31 450.245 390.862 450.245C444.414 450.245 487.98 406.678 487.98 353.127V353.127Z" fill="#494949"/>
</g>
<defs>
<clipPath id="clip0_3980_760">
<rect width="512" height="512" fill="white"/>
</clipPath>
</defs>
</svg>
