<svg width="512" height="512" viewBox="0 0 512 512" fill="none" xmlns="http://www.w3.org/2000/svg">
<g clip-path="url(#clip0_3760_678)">
<circle cx="256" cy="512" r="200" fill="#FFE785"/>
<path d="M417.205 494.688H368.97V114.062C368.97 101.618 358.846 91.4941 346.402 91.4941H82.117C69.6726 91.4941 59.5491 101.618 59.5491 114.062V494.688H31.595C22.4696 494.688 15.0453 487.264 15.0453 478.138V147.343C15.0453 143.189 11.6771 139.82 7.52263 139.82C3.36813 139.82 0 143.189 0 147.343V478.138C0 495.559 14.1736 509.733 31.595 509.733H417.205C421.359 509.733 424.727 506.365 424.727 502.21C424.727 498.056 421.359 494.688 417.205 494.688ZM353.925 114.062V494.688H221.777V106.539H346.402C350.549 106.539 353.925 109.914 353.925 114.062ZM74.5944 114.062C74.5944 109.914 77.9685 106.539 82.117 106.539H206.732V494.688H74.5944V114.062Z" fill="#494949"/>
<path d="M480.405 0H31.595C14.1736 0 0 14.1736 0 31.595V112.238C0 116.392 3.36813 119.76 7.52263 119.76C11.6771 119.76 15.0453 116.392 15.0453 112.238V31.595C15.0453 22.4696 22.4696 15.0453 31.595 15.0453H480.405C489.53 15.0453 496.955 22.4696 496.955 31.595V478.138C496.955 487.264 489.53 494.688 480.405 494.688H452.31C448.156 494.688 444.788 498.056 444.788 502.211C444.788 506.365 448.156 509.733 452.31 509.733H480.405C497.826 509.733 512 495.56 512 478.138V31.595C512 14.1736 497.826 0 480.405 0V0Z" fill="#494949"/>
<path d="M306.558 78.8792C313.472 78.8792 319.096 73.2553 319.096 66.3415V39.4947C319.096 32.5809 313.472 26.957 306.558 26.957H121.961C115.047 26.957 109.423 32.5809 109.423 39.4947V66.3415C109.423 73.2553 115.047 78.8792 121.961 78.8792H306.558ZM124.469 42.0023H304.051V63.834H124.469V42.0023Z" fill="#494949"/>
<path d="M411.534 256.668H457.988C461.958 256.668 465.657 254.532 467.641 251.094C469.626 247.657 469.626 243.385 467.641 239.947L444.414 199.717C442.429 196.28 438.73 194.144 434.761 194.144C430.792 194.144 427.092 196.279 425.108 199.717L401.881 239.947C399.896 243.385 399.896 247.657 401.881 251.094C403.865 254.532 407.564 256.668 411.534 256.668V256.668ZM434.761 213.089L451.235 241.622H418.286L434.761 213.089Z" fill="#494949"/>
<path d="M467.641 298.665C465.656 295.226 461.956 293.091 457.988 293.091H411.534C407.564 293.091 403.865 295.226 401.881 298.665C399.896 302.102 399.896 306.374 401.881 309.811L425.108 350.041C427.093 353.478 430.792 355.615 434.761 355.615C438.73 355.615 442.43 353.479 444.414 350.041L467.641 309.811C469.626 306.374 469.626 302.102 467.641 298.665V298.665ZM434.761 336.671L418.286 308.137H451.235L434.761 336.671Z" fill="#494949"/>
</g>
<defs>
<clipPath id="clip0_3760_678">
<rect width="512" height="512" fill="white"/>
</clipPath>
</defs>
</svg>
