<svg width="222" height="222" viewBox="0 0 222 222" fill="none" xmlns="http://www.w3.org/2000/svg">
<g clip-path="url(#clip0_4072_3467)">
<circle cx="111" cy="241.512" r="86.7188" fill="#FFE785"/>
<path d="M181.242 9.38098e-05H76.708C74.3146 -0.00761474 71.9434 0.459821 69.732 1.37531C67.5205 2.29079 65.5128 3.63611 63.8251 5.3333L27.8802 41.2782C26.183 42.9659 24.8377 44.9736 23.9222 47.1851C23.0067 49.3965 22.5393 51.7677 22.547 54.1612V203.789C22.5525 208.617 24.4729 213.246 27.8869 216.66C31.3009 220.074 35.9298 221.995 40.7579 222H181.242C186.07 221.995 190.699 220.074 194.113 216.66C197.527 213.246 199.448 208.617 199.453 203.789V18.211C199.448 13.3829 197.527 8.75406 194.113 5.34004C190.699 1.92602 186.07 0.00560226 181.242 9.38098e-05V9.38098e-05ZM67.6407 8.89397V37.2892C67.6384 39.3584 66.8154 41.3422 65.3522 42.8054C63.8891 44.2685 61.9053 45.0915 59.836 45.0938H31.4408L67.6407 8.89397ZM194.25 203.789C194.246 207.238 192.875 210.544 190.436 212.983C187.997 215.422 184.691 216.793 181.242 216.797H40.7579C37.3091 216.793 34.0027 215.422 31.564 212.983C29.1254 210.544 27.7538 207.238 27.7501 203.789V54.1612C27.7494 52.851 27.9464 51.5483 28.3346 50.297H59.836C63.2848 50.2933 66.5912 48.9217 69.0299 46.483C71.4685 44.0444 72.8402 40.7379 72.8438 37.2892V5.7877C74.0952 5.39957 75.3979 5.20252 76.708 5.20322H181.242C184.691 5.20689 187.997 6.57853 190.436 9.01718C192.875 11.4558 194.246 14.7623 194.25 18.211V203.789Z" fill="black"/>
<path d="M144.82 19.0781H181.242C181.932 19.0781 182.594 18.804 183.082 18.3161C183.57 17.8283 183.844 17.1665 183.844 16.4766C183.844 15.7866 183.57 15.1249 183.082 14.637C182.594 14.1491 181.932 13.875 181.242 13.875H144.82C144.13 13.875 143.469 14.1491 142.981 14.637C142.493 15.1249 142.219 15.7866 142.219 16.4766C142.219 17.1665 142.493 17.8283 142.981 18.3161C143.469 18.804 144.13 19.0781 144.82 19.0781Z" fill="black"/>
<path d="M181.242 27.75H158.695C158.005 27.75 157.344 28.0241 156.856 28.512C156.368 28.9999 156.094 29.6616 156.094 30.3516C156.094 31.0415 156.368 31.7033 156.856 32.1911C157.344 32.679 158.005 32.9531 158.695 32.9531H181.242C181.932 32.9531 182.594 32.679 183.082 32.1911C183.57 31.7033 183.844 31.0415 183.844 30.3516C183.844 29.6616 183.57 28.9999 183.082 28.512C182.594 28.0241 181.932 27.75 181.242 27.75V27.75Z" fill="black"/>
<path d="M74.5797 121.406C80.9858 121.392 87.2138 119.297 92.3262 115.437C97.4386 111.576 101.159 106.16 102.926 100.002C103.019 99.6736 103.047 99.3297 103.007 98.9903C102.967 98.6509 102.861 98.3226 102.695 98.0243C102.528 97.7259 102.304 97.4633 102.036 97.2514C101.768 97.0396 101.461 96.8826 101.132 96.7894C100.803 96.6962 100.459 96.6688 100.12 96.7085C99.7806 96.7483 99.4524 96.8545 99.154 97.0211C98.8557 97.1877 98.5931 97.4114 98.3812 97.6795C98.1693 97.9476 98.0123 98.2548 97.9192 98.5836C96.5581 103.336 93.7777 107.56 89.9501 110.689C86.1225 113.818 81.4304 115.703 76.5019 116.092C71.5734 116.481 66.6436 115.356 62.3726 112.866C58.1015 110.376 54.693 106.641 52.6032 102.16C50.5134 97.6796 49.8422 92.6677 50.6793 87.7953C51.5164 82.9228 53.8219 78.4223 57.2873 74.8963C60.7526 71.3702 65.2123 68.9868 70.0695 68.0652C74.9267 67.1435 79.9495 67.7276 84.4656 69.7392C84.7784 69.8836 85.1168 69.9644 85.4611 69.9769C85.8054 69.9894 86.1488 69.9335 86.4712 69.8122C86.7937 69.691 87.0889 69.5069 87.3397 69.2706C87.5904 69.0344 87.7918 68.7507 87.932 68.436C88.0722 68.1213 88.1486 67.7819 88.1566 67.4375C88.1646 67.093 88.1041 66.7504 87.9786 66.4296C87.8531 66.1087 87.6652 65.816 87.4256 65.5683C87.1861 65.3207 86.8998 65.1231 86.5833 64.987C82.5712 63.2005 78.2107 62.3329 73.8203 62.4475C69.43 62.5622 65.1207 63.6562 61.2073 65.6496C57.2939 67.643 53.8752 70.4854 51.2011 73.9693C48.527 77.4532 46.6649 81.4905 45.751 85.7862C44.837 90.0819 44.8943 94.5275 45.9185 98.7983C46.9428 103.069 48.9082 107.057 51.6712 110.471C54.4342 113.885 57.9249 116.638 61.8883 118.53C65.8518 120.422 70.1878 121.405 74.5797 121.406V121.406Z" fill="black"/>
<path d="M180.167 83.25H128.552C127.117 83.2514 125.742 83.8219 124.727 84.8364C123.713 85.8509 123.142 87.2265 123.141 88.6612V95.1825C123.142 96.6172 123.713 97.9928 124.727 99.0073C125.742 100.022 127.117 100.592 128.552 100.594H180.167C181.602 100.592 182.977 100.022 183.992 99.0073C185.006 97.9928 185.577 96.6172 185.578 95.1825V88.6612C185.577 87.2265 185.006 85.8509 183.992 84.8364C182.977 83.8219 181.602 83.2514 180.167 83.25V83.25ZM180.375 95.1825C180.375 95.2377 180.353 95.2906 180.314 95.3297C180.275 95.3687 180.222 95.3906 180.167 95.3906H128.552C128.497 95.3906 128.444 95.3687 128.405 95.3297C128.366 95.2906 128.344 95.2377 128.344 95.1825V88.6612C128.344 88.606 128.366 88.5531 128.405 88.5141C128.444 88.4751 128.497 88.4531 128.552 88.4531H180.167C180.222 88.4531 180.275 88.4751 180.314 88.5141C180.353 88.5531 180.375 88.606 180.375 88.6612V95.1825Z" fill="black"/>
<path d="M180.167 156.094H128.552C127.117 156.095 125.742 156.666 124.727 157.68C123.713 158.695 123.142 160.07 123.141 161.505V168.026C123.142 169.461 123.713 170.837 124.727 171.851C125.742 172.866 127.117 173.436 128.552 173.438H180.167C181.602 173.436 182.977 172.866 183.992 171.851C185.006 170.837 185.577 169.461 185.578 168.026V161.505C185.577 160.07 185.006 158.695 183.992 157.68C182.977 156.666 181.602 156.095 180.167 156.094V156.094ZM180.375 168.026C180.375 168.081 180.353 168.134 180.314 168.173C180.275 168.212 180.222 168.234 180.167 168.234H128.552C128.497 168.234 128.444 168.212 128.405 168.173C128.366 168.134 128.344 168.081 128.344 168.026V161.505C128.344 161.478 128.349 161.451 128.36 161.425C128.37 161.4 128.385 161.377 128.405 161.358C128.424 161.339 128.447 161.323 128.472 161.313C128.497 161.302 128.525 161.297 128.552 161.297H180.167C180.194 161.297 180.221 161.302 180.247 161.313C180.272 161.323 180.295 161.339 180.314 161.358C180.333 161.377 180.349 161.4 180.359 161.425C180.37 161.451 180.375 161.478 180.375 161.505V168.026Z" fill="black"/>
<path d="M105.681 71.2831C104.053 69.5742 101.816 68.5786 99.4566 68.5136C97.0975 68.4487 94.8085 69.3196 93.0893 70.9363L77.9101 85.3316L73.5741 80.9956C71.8973 79.3604 69.6437 78.4517 67.3015 78.4664C64.9594 78.4811 62.7173 79.418 61.0611 81.0742C59.4049 82.7304 58.468 84.9724 58.4533 87.3146C58.4386 89.6567 59.3473 91.9103 60.9826 93.5872L71.4547 104.063C73.0885 105.715 75.3063 106.66 77.63 106.692C79.9537 106.725 82.197 105.843 83.8763 104.236L105.341 83.8747C107.053 82.2504 108.051 80.0133 108.116 77.6541C108.181 75.2949 107.308 73.0062 105.688 71.2901L105.681 71.2831ZM101.761 80.0938L80.2896 100.447C79.5918 101.115 78.6592 101.483 77.6929 101.47C76.7267 101.457 75.8042 101.064 75.1247 100.377L64.6629 89.9155C63.997 89.2161 63.6308 88.2842 63.6425 87.3186C63.6542 86.353 64.0428 85.4302 64.7254 84.7471C65.408 84.064 66.3306 83.6748 67.2962 83.6625C68.2618 83.6502 69.194 84.0157 69.8938 84.6812L76.0179 90.8035C76.497 91.2833 77.1446 91.5571 77.8227 91.5665C78.5007 91.5759 79.1556 91.3202 79.6479 90.8538L96.6656 74.7241C97.0186 74.3898 97.4341 74.1282 97.8882 73.9544C98.3423 73.7806 98.8262 73.698 99.3122 73.7112C99.7983 73.7244 100.277 73.8332 100.721 74.0314C101.165 74.2296 101.566 74.5133 101.9 74.8663C102.234 75.2194 102.496 75.6348 102.67 76.0889C102.843 76.543 102.926 77.0269 102.913 77.513C102.9 77.999 102.791 78.4777 102.593 78.9217C102.394 79.3657 102.111 79.7663 101.758 80.1007L101.761 80.0938Z" fill="black"/>
<path d="M101.133 169.634C100.804 169.541 100.46 169.513 100.121 169.553C99.781 169.592 99.4527 169.698 99.1542 169.865C98.8558 170.031 98.5931 170.255 98.3811 170.523C98.1691 170.791 98.0121 171.099 97.9189 171.427C96.5579 176.18 93.7775 180.404 89.9499 183.533C86.1223 186.662 81.4302 188.547 76.5017 188.936C71.5732 189.325 66.6434 188.199 62.3724 185.709C58.1013 183.22 54.6927 179.484 52.603 175.004C50.5132 170.523 49.842 165.512 50.6791 160.639C51.5162 155.767 53.8217 151.266 57.287 147.74C60.7524 144.214 65.2121 141.831 70.0693 140.909C74.9265 139.987 79.9493 140.571 84.4654 142.583C84.7782 142.727 85.1166 142.808 85.4609 142.821C85.8052 142.833 86.1485 142.777 86.471 142.656C86.7935 142.535 87.0887 142.351 87.3394 142.114C87.5902 141.878 87.7915 141.594 87.9318 141.28C88.072 140.965 88.1483 140.626 88.1563 140.281C88.1643 139.937 88.1038 139.594 87.9784 139.273C87.8529 138.952 87.6649 138.66 87.4254 138.412C87.1859 138.164 86.8996 137.967 86.583 137.831C81.0947 135.383 74.9894 134.671 69.0851 135.79C63.1807 136.909 57.7592 139.805 53.5467 144.091C49.3342 148.376 46.5319 153.847 45.515 159.77C44.4982 165.693 45.3154 171.785 47.8572 177.23C50.3991 182.675 54.5442 187.214 59.7373 190.238C64.9303 193.262 70.9235 194.627 76.9139 194.15C82.9044 193.673 88.6061 191.377 93.2554 187.57C97.9047 183.762 101.279 178.625 102.928 172.846C103.021 172.517 103.048 172.173 103.008 171.834C102.969 171.495 102.862 171.167 102.696 170.868C102.529 170.57 102.305 170.307 102.037 170.096C101.769 169.884 101.462 169.727 101.133 169.634V169.634Z" fill="black"/>
<path d="M105.681 144.127C104.053 142.419 101.815 141.424 99.4566 141.359C97.0979 141.294 94.8092 142.164 93.0893 143.78L77.9101 158.175L73.5741 153.839C71.8973 152.204 69.6437 151.295 67.3015 151.31C64.9594 151.325 62.7173 152.262 61.0611 153.918C59.4049 155.574 58.468 157.816 58.4533 160.158C58.4386 162.5 59.3473 164.754 60.9826 166.431L71.4547 176.906C73.0885 178.559 75.3063 179.503 77.63 179.536C79.9537 179.568 82.197 178.686 83.8763 177.08L105.341 156.718C107.053 155.094 108.051 152.857 108.116 150.498C108.181 148.138 107.308 145.85 105.688 144.134L105.681 144.127ZM101.761 152.937L80.2896 173.29C79.5918 173.959 78.6592 174.326 77.6929 174.313C76.7267 174.3 75.8042 173.908 75.1247 173.221L64.6629 162.759C63.997 162.06 63.6308 161.128 63.6425 160.162C63.6542 159.197 64.0428 158.274 64.7254 157.591C65.408 156.908 66.3306 156.518 67.2962 156.506C68.2618 156.494 69.194 156.859 69.8938 157.525L76.0179 163.647C76.497 164.127 77.1446 164.401 77.8227 164.41C78.5007 164.419 79.1556 164.164 79.6479 163.697L96.6656 147.568C97.0186 147.233 97.4341 146.972 97.8882 146.798C98.3423 146.624 98.8262 146.542 99.3122 146.555C99.7983 146.568 100.277 146.677 100.721 146.875C101.165 147.073 101.566 147.357 101.9 147.71C102.234 148.063 102.496 148.478 102.67 148.932C102.843 149.387 102.926 149.871 102.913 150.357C102.9 150.843 102.791 151.321 102.593 151.765C102.394 152.209 102.111 152.61 101.758 152.944L101.761 152.937Z" fill="black"/>
</g>
<defs>
<clipPath id="clip0_4072_3467">
<rect width="222" height="222" fill="white"/>
</clipPath>
</defs>
</svg>
