<svg width="45" height="45" viewBox="0 0 45 45" fill="none" xmlns="http://www.w3.org/2000/svg">
<g clip-path="url(#clip0_3822_350)">
<circle cx="22.5" cy="48.9551" r="17.5781" fill="#FFE785"/>
<path d="M41.7041 3.25195H3.2959C1.4785 3.25195 0 4.73045 0 6.54785V35.5518C0 37.3692 1.4785 38.8477 3.2959 38.8477H17.3634L16.57 41.6245C16.2514 42.7396 15.0025 43.6816 13.8428 43.6816H8.87695C8.51291 43.6816 8.21777 43.9767 8.21777 44.3408C8.21777 44.705 8.51291 45 8.87695 45H36.123C36.4871 45 36.7822 44.705 36.7822 44.3408C36.7822 43.9767 36.4871 43.6816 36.123 43.6816H31.1572C29.9975 43.6816 28.7486 42.7395 28.43 41.6245L27.6366 38.8477H41.7041C43.5215 38.8477 45 37.3692 45 35.5518V6.54785C45 4.73045 43.5215 3.25195 41.7041 3.25195ZM3.2959 4.57031H41.7041C42.7946 4.57031 43.6816 5.45748 43.6816 6.54785V29.6191H1.31836V6.54785C1.31836 5.45748 2.20544 4.57031 3.2959 4.57031ZM27.1623 41.9867C27.3432 42.6199 27.7028 43.2017 28.1741 43.6816H16.8259C17.2972 43.2017 17.6568 42.6198 17.8377 41.9867L18.7345 38.8477H26.2654L27.1623 41.9867ZM41.7041 37.5293H3.2959C2.20544 37.5293 1.31836 36.6421 1.31836 35.5518V30.9375H43.6816V35.5518C43.6816 36.6421 42.7946 37.5293 41.7041 37.5293Z" fill="#494949"/>
<path d="M3.2959 28.3008H41.7041C42.0681 28.3008 42.3633 28.0057 42.3633 27.6416V6.54785C42.3633 6.18372 42.0681 5.88867 41.7041 5.88867H3.2959C2.93186 5.88867 2.63672 6.18372 2.63672 6.54785V15.7764C2.63672 16.1405 2.93186 16.4355 3.2959 16.4355C3.65994 16.4355 3.95508 16.1405 3.95508 15.7764V7.20703H41.0449V26.9824H3.95508V18.4131C3.95508 18.049 3.65994 17.7539 3.2959 17.7539C2.93186 17.7539 2.63672 18.049 2.63672 18.4131V27.6416C2.63672 28.0057 2.93186 28.3008 3.2959 28.3008Z" fill="#494949"/>
<path d="M22.501 32.2559C21.4105 32.2559 20.5234 33.143 20.5234 34.2334C20.5234 35.3238 21.4105 36.2109 22.501 36.2109C23.5914 36.2109 24.4785 35.3238 24.4785 34.2334C24.4785 33.143 23.5914 32.2559 22.501 32.2559ZM22.501 34.8926C22.1375 34.8926 21.8418 34.5969 21.8418 34.2334C21.8418 33.8699 22.1375 33.5742 22.501 33.5742C22.8645 33.5742 23.1602 33.8699 23.1602 34.2334C23.1602 34.5969 22.8645 34.8926 22.501 34.8926Z" fill="#494949"/>
<path d="M29.6321 24.5215H28.8081V23.1235C29.0869 23.0774 29.3491 22.9602 29.5692 22.7831C29.7894 22.606 29.9602 22.3751 30.0649 22.1127C30.1697 21.8503 30.205 21.5652 30.1673 21.2852C30.1296 21.0052 30.0203 20.7396 29.8499 20.5142C29.9181 20.286 29.9252 20.0438 29.8704 19.812C29.8157 19.5801 29.701 19.3667 29.5379 19.1931C29.5999 19.0549 29.632 18.9052 29.6321 18.7537C29.6321 18.4623 29.5163 18.1828 29.3103 17.9768C29.1043 17.7708 28.8248 17.655 28.5334 17.655C28.2421 17.655 27.9626 17.7708 27.7566 17.9768C27.5506 18.1828 27.4348 18.4623 27.4348 18.7537C27.4349 18.9052 27.467 19.0549 27.529 19.1931C27.366 19.3667 27.2514 19.5801 27.1966 19.8119C27.1419 20.0436 27.1489 20.2857 27.217 20.5139C27.0465 20.7393 26.937 21.0049 26.8993 21.285C26.8615 21.5651 26.8967 21.8502 27.0015 22.1127C27.1063 22.3752 27.2771 22.6061 27.4974 22.7832C27.7176 22.9603 27.9799 23.0775 28.2588 23.1235V23.4591L27.8619 23.1943C27.8319 23.1743 27.7982 23.1604 27.7629 23.1534C27.7275 23.1464 27.6911 23.1464 27.6557 23.1535C27.6203 23.1605 27.5867 23.1745 27.5567 23.1946C27.5267 23.2146 27.501 23.2404 27.481 23.2704C27.4609 23.3004 27.447 23.3341 27.44 23.3695C27.433 23.4049 27.433 23.4413 27.4401 23.4766C27.4472 23.512 27.4611 23.5457 27.4812 23.5756C27.5013 23.6056 27.527 23.6313 27.557 23.6514L28.2588 24.1191V24.5215H26.0615V10.7886H26.8855C26.9583 10.7886 27.0282 10.7596 27.0797 10.7081C27.1312 10.6566 27.1602 10.5868 27.1602 10.5139V9.41528C27.1602 9.34244 27.1312 9.27258 27.0797 9.22107C27.0282 9.16956 26.9583 9.14062 26.8855 9.14062H18.0964C18.0236 9.14062 17.9537 9.16956 17.9022 9.22107C17.8507 9.27258 17.8218 9.34244 17.8218 9.41528V10.5139C17.8218 10.5868 17.8507 10.6566 17.9022 10.7081C17.9537 10.7596 18.0236 10.7886 18.0964 10.7886H18.9204V24.5215H16.9978V23.9474C17.2766 23.9014 17.5388 23.7842 17.7589 23.6071C17.9791 23.43 18.1499 23.1991 18.2546 22.9367C18.3594 22.6742 18.3947 22.3892 18.357 22.1092C18.3193 21.8292 18.21 21.5636 18.0396 21.3382C18.1077 21.11 18.1147 20.868 18.06 20.6362C18.0052 20.4045 17.8906 20.1912 17.7276 20.0176C17.7897 19.8793 17.8218 19.7293 17.8218 19.5776C17.8218 19.2863 17.706 19.0068 17.5 18.8008C17.294 18.5948 17.0145 18.479 16.7231 18.479C16.4318 18.479 16.1523 18.5948 15.9463 18.8008C15.7403 19.0068 15.6245 19.2863 15.6245 19.5776C15.6246 19.7291 15.6567 19.8789 15.7187 20.0171C15.5557 20.1906 15.4411 20.404 15.3863 20.6357C15.3316 20.8674 15.3386 21.1095 15.4067 21.3376C15.2362 21.563 15.1267 21.8287 15.089 22.1088C15.0512 22.3889 15.0865 22.674 15.1912 22.9365C15.296 23.199 15.4668 23.43 15.6871 23.6071C15.9073 23.7842 16.1696 23.9014 16.4485 23.9474V24.5215H14.2512C14.1784 24.5215 14.1085 24.5504 14.057 24.6019C14.0055 24.6534 13.9766 24.7233 13.9766 24.7961C13.9766 24.869 14.0055 24.9388 14.057 24.9904C14.1085 25.0419 14.1784 25.0708 14.2512 25.0708H29.6321C29.7049 25.0708 29.7748 25.0419 29.8263 24.9904C29.8778 24.9388 29.9067 24.869 29.9067 24.7961C29.9067 24.7233 29.8778 24.6534 29.8263 24.6019C29.7748 24.5504 29.7049 24.5215 29.6321 24.5215ZM27.4348 21.5002C27.4357 21.2237 27.5414 20.9578 27.7306 20.7562C27.7671 20.7168 27.7912 20.6677 27.8 20.6148C27.8089 20.5619 27.802 20.5075 27.7803 20.4585C27.7044 20.2885 27.6891 20.0976 27.7369 19.9176C27.7848 19.7377 27.8929 19.5796 28.0432 19.4697C28.1015 19.426 28.14 19.3609 28.1503 19.2888C28.1606 19.2167 28.1418 19.1434 28.0981 19.0852C28.0245 18.9903 27.9844 18.8737 27.9841 18.7537C27.9841 18.608 28.042 18.4683 28.145 18.3652C28.248 18.2622 28.3878 18.2043 28.5334 18.2043C28.6791 18.2043 28.8189 18.2622 28.9219 18.3652C29.0249 18.4683 29.0828 18.608 29.0828 18.7537C29.0822 18.873 29.0422 18.9889 28.9691 19.0833C28.9253 19.1415 28.9066 19.2148 28.9169 19.2869C28.9272 19.359 28.9657 19.4241 29.024 19.4678C29.1744 19.5776 29.2825 19.7357 29.3303 19.9157C29.3781 20.0957 29.3627 20.2866 29.2866 20.4565C29.2649 20.5056 29.2581 20.56 29.267 20.6129C29.2759 20.6658 29.3 20.715 29.3365 20.7543C29.4671 20.8926 29.5591 21.0627 29.6036 21.2477C29.648 21.4326 29.6433 21.626 29.5898 21.8085C29.5364 21.9911 29.4361 22.1565 29.299 22.2883C29.1619 22.4201 28.9926 22.5137 28.8081 22.5599V21.7749C28.8081 21.7021 28.7792 21.6322 28.7277 21.5807C28.6762 21.5292 28.6063 21.5002 28.5334 21.5002C28.4606 21.5002 28.3907 21.5292 28.3392 21.5807C28.2877 21.6322 28.2588 21.7021 28.2588 21.7749V22.5599C28.0236 22.4992 27.8152 22.3622 27.6662 22.1705C27.5171 21.9788 27.4357 21.7431 27.4348 21.5002ZM15.6245 22.3242C15.6254 22.0477 15.7311 21.7818 15.9203 21.5802C15.9568 21.5408 15.981 21.4917 15.9899 21.4388C15.9988 21.3859 15.992 21.3315 15.9703 21.2824C15.8942 21.1125 15.8788 20.9216 15.9266 20.7416C15.9744 20.5616 16.0825 20.4035 16.2329 20.2937C16.2912 20.25 16.3297 20.1849 16.34 20.1128C16.3503 20.0407 16.3315 19.9674 16.2878 19.9091C16.2142 19.8143 16.1741 19.6977 16.1738 19.5776C16.1738 19.4319 16.2317 19.2922 16.3347 19.1892C16.4377 19.0862 16.5775 19.0283 16.7231 19.0283C16.8688 19.0283 17.0086 19.0862 17.1116 19.1892C17.2146 19.2922 17.2725 19.4319 17.2725 19.5776C17.2719 19.697 17.2319 19.8129 17.1588 19.9072C17.115 19.9655 17.0963 20.0388 17.1066 20.1109C17.1169 20.183 17.1554 20.248 17.2137 20.2917C17.3641 20.4016 17.4722 20.5597 17.52 20.7397C17.5678 20.9196 17.5523 21.1106 17.4763 21.2805C17.4546 21.3296 17.4478 21.384 17.4567 21.4369C17.4656 21.4898 17.4897 21.5389 17.5262 21.5782C17.6568 21.7166 17.7488 21.8867 17.7933 22.0717C17.8377 22.2566 17.833 22.45 17.7795 22.6325C17.7261 22.8151 17.6258 22.9805 17.4887 23.1123C17.3516 23.2441 17.1823 23.3377 16.9978 23.3839V22.5989C16.9978 22.526 16.9689 22.4562 16.9174 22.4047C16.8658 22.3532 16.796 22.3242 16.7231 22.3242C16.6503 22.3242 16.5804 22.3532 16.5289 22.4047C16.4774 22.4562 16.4485 22.526 16.4485 22.5989V23.3839C16.2133 23.3231 16.0049 23.1862 15.8559 22.9945C15.7068 22.8028 15.6254 22.5671 15.6245 22.3242ZM18.3711 9.68994H26.6108V10.2393H18.3711V9.68994ZM21.9417 24.5215V22.8735H23.0403V24.5215H21.9417ZM23.5896 24.5215V22.5989C23.5896 22.526 23.5607 22.4562 23.5092 22.4047C23.4576 22.3532 23.3878 22.3242 23.3149 22.3242H21.667C21.5941 22.3242 21.5243 22.3532 21.4728 22.4047C21.4213 22.4562 21.3923 22.526 21.3923 22.5989V24.5215H19.4697V10.7886H25.5122V24.5215H23.5896Z" fill="#494949"/>
<path d="M30.729 24.5215H30.4543C30.3815 24.5215 30.3116 24.5504 30.2601 24.6019C30.2086 24.6534 30.1797 24.7233 30.1797 24.7961C30.1797 24.869 30.2086 24.9388 30.2601 24.9904C30.3116 25.0419 30.3815 25.0708 30.4543 25.0708H30.729C30.8018 25.0708 30.8717 25.0419 30.9232 24.9904C30.9747 24.9388 31.0037 24.869 31.0037 24.7961C31.0037 24.7233 30.9747 24.6534 30.9232 24.6019C30.8717 24.5504 30.8018 24.5215 30.729 24.5215Z" fill="#494949"/>
<path d="M21.9421 16.8311H20.2942C20.2213 16.8311 20.1515 16.86 20.1 16.9115C20.0485 16.963 20.0195 17.0329 20.0195 17.1057V18.7537C20.0195 18.8265 20.0485 18.8964 20.1 18.9479C20.1515 18.9994 20.2213 19.0283 20.2942 19.0283H21.9421C22.015 19.0283 22.0848 18.9994 22.1364 18.9479C22.1879 18.8964 22.2168 18.8265 22.2168 18.7537V17.1057C22.2168 17.0329 22.1879 16.963 22.1364 16.9115C22.0848 16.86 22.015 16.8311 21.9421 16.8311ZM21.6675 18.479H20.5688V17.3804H21.6675V18.479Z" fill="#494949"/>
<path d="M24.6882 16.8311H23.0403C22.9674 16.8311 22.8976 16.86 22.8461 16.9115C22.7946 16.963 22.7656 17.0329 22.7656 17.1057V18.7537C22.7656 18.8265 22.7946 18.8964 22.8461 18.9479C22.8976 18.9994 22.9674 19.0283 23.0403 19.0283H24.6882C24.7611 19.0283 24.8309 18.9994 24.8824 18.9479C24.934 18.8964 24.9629 18.8265 24.9629 18.7537V17.1057C24.9629 17.0329 24.934 16.963 24.8824 16.9115C24.8309 16.86 24.7611 16.8311 24.6882 16.8311ZM24.4136 18.479H23.3149V17.3804H24.4136V18.479Z" fill="#494949"/>
<path d="M21.9421 14.0845H20.2942C20.2213 14.0845 20.1515 14.1134 20.1 14.1649C20.0485 14.2164 20.0195 14.2863 20.0195 14.3591V16.0071C20.0195 16.0799 20.0485 16.1498 20.1 16.2013C20.1515 16.2528 20.2213 16.2817 20.2942 16.2817H21.9421C22.015 16.2817 22.0848 16.2528 22.1364 16.2013C22.1879 16.1498 22.2168 16.0799 22.2168 16.0071V14.3591C22.2168 14.2863 22.1879 14.2164 22.1364 14.1649C22.0848 14.1134 22.015 14.0845 21.9421 14.0845ZM21.6675 15.7324H20.5688V14.6338H21.6675V15.7324Z" fill="#494949"/>
<path d="M24.6882 14.0845H23.0403C22.9674 14.0845 22.8976 14.1134 22.8461 14.1649C22.7946 14.2164 22.7656 14.2863 22.7656 14.3591V16.0071C22.7656 16.0799 22.7946 16.1498 22.8461 16.2013C22.8976 16.2528 22.9674 16.2817 23.0403 16.2817H24.6882C24.7611 16.2817 24.8309 16.2528 24.8824 16.2013C24.934 16.1498 24.9629 16.0799 24.9629 16.0071V14.3591C24.9629 14.2863 24.934 14.2164 24.8824 14.1649C24.8309 14.1134 24.7611 14.0845 24.6882 14.0845ZM24.4136 15.7324H23.3149V14.6338H24.4136V15.7324Z" fill="#494949"/>
<path d="M21.9421 19.5776H20.2942C20.2213 19.5776 20.1515 19.6066 20.1 19.6581C20.0485 19.7096 20.0195 19.7795 20.0195 19.8523V21.5002C20.0195 21.5731 20.0485 21.6429 20.1 21.6945C20.1515 21.746 20.2213 21.7749 20.2942 21.7749H21.9421C22.015 21.7749 22.0848 21.746 22.1364 21.6945C22.1879 21.6429 22.2168 21.5731 22.2168 21.5002V19.8523C22.2168 19.7795 22.1879 19.7096 22.1364 19.6581C22.0848 19.6066 22.015 19.5776 21.9421 19.5776ZM21.6675 21.2256H20.5688V20.127H21.6675V21.2256Z" fill="#494949"/>
<path d="M24.6882 19.5776H23.0403C22.9674 19.5776 22.8976 19.6066 22.8461 19.6581C22.7946 19.7096 22.7656 19.7795 22.7656 19.8523V21.5002C22.7656 21.5731 22.7946 21.6429 22.8461 21.6945C22.8976 21.746 22.9674 21.7749 23.0403 21.7749H24.6882C24.7611 21.7749 24.8309 21.746 24.8824 21.6945C24.934 21.6429 24.9629 21.5731 24.9629 21.5002V19.8523C24.9629 19.7795 24.934 19.7096 24.8824 19.6581C24.8309 19.6066 24.7611 19.5776 24.6882 19.5776ZM24.4136 21.2256H23.3149V20.127H24.4136V21.2256Z" fill="#494949"/>
<path d="M21.9421 11.3379H20.2942C20.2213 11.3379 20.1515 11.3668 20.1 11.4183C20.0485 11.4698 20.0195 11.5397 20.0195 11.6125V13.2605C20.0195 13.3333 20.0485 13.4032 20.1 13.4547C20.1515 13.5062 20.2213 13.5352 20.2942 13.5352H21.9421C22.015 13.5352 22.0848 13.5062 22.1364 13.4547C22.1879 13.4032 22.2168 13.3333 22.2168 13.2605V11.6125C22.2168 11.5397 22.1879 11.4698 22.1364 11.4183C22.0848 11.3668 22.015 11.3379 21.9421 11.3379ZM21.6675 12.9858H20.5688V11.8872H21.6675V12.9858Z" fill="#494949"/>
<path d="M24.6882 11.3379H23.0403C22.9674 11.3379 22.8976 11.3668 22.8461 11.4183C22.7946 11.4698 22.7656 11.5397 22.7656 11.6125V13.2605C22.7656 13.3333 22.7946 13.4032 22.8461 13.4547C22.8976 13.5062 22.9674 13.5352 23.0403 13.5352H24.6882C24.7611 13.5352 24.8309 13.5062 24.8824 13.4547C24.934 13.4032 24.9629 13.3333 24.9629 13.2605V11.6125C24.9629 11.5397 24.934 11.4698 24.8824 11.4183C24.8309 11.3668 24.7611 11.3379 24.6882 11.3379ZM24.4136 12.9858H23.3149V11.8872H24.4136V12.9858Z" fill="#494949"/>
<path d="M28.5325 21.2256C28.6053 21.2256 28.6752 21.1966 28.7267 21.1451C28.7782 21.0936 28.8071 21.0238 28.8071 20.9509V20.6763C28.8071 20.6034 28.7782 20.5336 28.7267 20.4821C28.6752 20.4305 28.6053 20.4016 28.5325 20.4016C28.4596 20.4016 28.3898 20.4305 28.3383 20.4821C28.2867 20.5336 28.2578 20.6034 28.2578 20.6763V20.9509C28.2578 21.0238 28.2867 21.0936 28.3383 21.1451C28.3898 21.1966 28.4596 21.2256 28.5325 21.2256Z" fill="#494949"/>
<path d="M26.3359 12.7111C26.3359 13.0025 26.4517 13.2819 26.6577 13.4879C26.8638 13.694 27.1432 13.8097 27.4346 13.8097H29.3572C29.4058 13.8098 29.4535 13.796 29.4945 13.7699C29.7073 13.7066 29.8916 13.5716 30.0161 13.3878C30.1406 13.2041 30.1977 12.9829 30.1777 12.7618C30.1577 12.5407 30.0618 12.3334 29.9062 12.175C29.7507 12.0166 29.5452 11.9169 29.3245 11.8929C29.2713 11.6803 29.1555 11.4886 28.9922 11.3425C28.8289 11.1963 28.6256 11.1025 28.4084 11.0731C28.1913 11.0437 27.9703 11.0801 27.774 11.1776C27.5778 11.275 27.4152 11.4291 27.3074 11.6199C27.04 11.6514 26.7934 11.7799 26.6144 11.981C26.4354 12.1821 26.3363 12.4418 26.3359 12.7111V12.7111ZM27.425 12.1618L27.4656 12.1662C27.5256 12.1701 27.5852 12.1543 27.6353 12.1211C27.6854 12.0879 27.7232 12.0392 27.743 11.9824C27.7846 11.8606 27.8678 11.7573 27.978 11.6907C28.0882 11.6242 28.2184 11.5986 28.3456 11.6186C28.4728 11.6385 28.5889 11.7027 28.6734 11.7998C28.758 11.8969 28.8056 12.0207 28.8079 12.1494C28.8079 12.156 28.8079 12.1629 28.8065 12.1681C28.8053 12.2095 28.8135 12.2506 28.8305 12.2883C28.8474 12.3261 28.8727 12.3595 28.9044 12.3862C28.9361 12.4128 28.9734 12.4319 29.0135 12.4421C29.0536 12.4523 29.0955 12.4532 29.1361 12.4449C29.1959 12.4339 29.2573 12.436 29.3162 12.4511C29.3751 12.4661 29.43 12.4938 29.4772 12.5322C29.5243 12.5705 29.5626 12.6187 29.5893 12.6733C29.616 12.7279 29.6305 12.7876 29.6318 12.8484C29.6319 12.9434 29.5991 13.0355 29.539 13.109C29.4789 13.1826 29.3953 13.2332 29.3022 13.2522C29.2919 13.2544 29.2816 13.2571 29.2715 13.2604H27.4346C27.2889 13.2617 27.1487 13.205 27.0447 13.1029C26.9408 13.0008 26.8817 12.8616 26.8804 12.7159C26.8792 12.5702 26.9358 12.43 27.0379 12.3261C27.1401 12.2221 27.2793 12.1631 27.425 12.1618Z" fill="#494949"/>
<path d="M15.8991 16.831H17.8218C17.8704 16.831 17.918 16.8172 17.9591 16.7911C18.1718 16.7278 18.3561 16.5928 18.4807 16.4091C18.6052 16.2253 18.6623 16.0041 18.6423 15.7831C18.6223 15.562 18.5263 15.3546 18.3708 15.1963C18.2153 15.0379 18.0097 14.9382 17.7891 14.9141C17.7358 14.7016 17.6201 14.5098 17.4568 14.3637C17.2935 14.2176 17.0902 14.1238 16.873 14.0944C16.6559 14.065 16.4349 14.1014 16.2386 14.1988C16.0423 14.2963 15.8798 14.4503 15.772 14.6411C15.4936 14.6736 15.2381 14.8113 15.0579 15.026C14.8777 15.2407 14.7864 15.5162 14.8026 15.796C14.8189 16.0759 14.9415 16.3389 15.1453 16.5313C15.3492 16.7237 15.6188 16.8309 15.8991 16.831V16.831ZM15.8895 15.183L15.9302 15.1874C15.9902 15.1914 16.0498 15.1755 16.0999 15.1423C16.15 15.1091 16.1878 15.0604 16.2076 15.0037C16.2492 14.8818 16.3324 14.7785 16.4426 14.712C16.5528 14.6454 16.683 14.6199 16.8102 14.6398C16.9374 14.6598 17.0535 14.7239 17.138 14.821C17.2226 14.9181 17.2702 15.0419 17.2724 15.1707C17.2724 15.1772 17.2724 15.1841 17.2711 15.1893C17.2699 15.2307 17.2781 15.2718 17.295 15.3096C17.312 15.3473 17.3373 15.3808 17.369 15.4074C17.4007 15.434 17.438 15.4531 17.4781 15.4633C17.5182 15.4735 17.5601 15.4745 17.6007 15.4662C17.6604 15.4552 17.7219 15.4572 17.7808 15.4723C17.8397 15.4874 17.8946 15.515 17.9417 15.5534C17.9889 15.5918 18.0271 15.6399 18.0538 15.6945C18.0806 15.7491 18.0951 15.8089 18.0964 15.8697C18.0964 15.9646 18.0636 16.0567 18.0036 16.1303C17.9435 16.2039 17.8599 16.2544 17.7668 16.2734C17.7564 16.2756 17.7462 16.2784 17.7361 16.2816H15.8991C15.7535 16.2829 15.6132 16.2263 15.5093 16.1242C15.4054 16.022 15.3463 15.8828 15.345 15.7371C15.3438 15.5915 15.4004 15.4512 15.5025 15.3473C15.6046 15.2434 15.7438 15.1843 15.8895 15.183V15.183Z" fill="#494949"/>
<path d="M36.2988 15.4687C38.3828 15.4687 40.0781 13.7734 40.0781 11.6895C40.0781 9.60554 38.3827 7.91016 36.2988 7.91016C34.2149 7.91016 32.5195 9.60554 32.5195 11.6894C32.5195 13.7734 34.2149 15.4687 36.2988 15.4687ZM36.2988 8.54784C38.0311 8.54784 39.4404 9.95712 39.4404 11.6894C39.4404 13.4217 38.0311 14.831 36.2988 14.831C34.5665 14.831 33.1572 13.4217 33.1572 11.6894C33.1572 9.95712 34.5665 8.54784 36.2988 8.54784Z" fill="#494949"/>
<path d="M35.6868 13.2769C35.7479 13.332 35.825 13.3594 35.902 13.3594C35.9823 13.3594 36.0625 13.3296 36.1244 13.2704L38.4003 11.0923C38.5274 10.9706 38.531 10.7698 38.4083 10.6437C38.2854 10.5177 38.0829 10.5142 37.9557 10.6359L35.8955 12.6075L35.2541 12.0295C35.1234 11.9118 34.9209 11.9212 34.802 12.0509C34.6831 12.1805 34.6927 12.3812 34.8235 12.499L35.6868 13.2769Z" fill="#494949"/>
</g>
<defs>
<clipPath id="clip0_3822_350">
<rect width="45" height="45" fill="white"/>
</clipPath>
</defs>
</svg>
