<svg width="32" height="32" viewBox="0 0 32 32" fill="none" xmlns="http://www.w3.org/2000/svg">
<g clip-path="url(#clip0_9086_1483)">
<path d="M28.6958 22.9248L24.5041 18.7332C24.5029 18.732 24.5016 18.7311 24.5004 18.7299L23.609 17.8386C23.1011 17.33 22.5263 16.892 21.9008 16.5367L21.0451 16.0505C20.7494 15.8825 20.4664 15.6925 20.1976 15.4833L23.6544 12.0267C24.3011 12.2619 24.9902 12.3888 25.7005 12.3972C25.7257 12.3975 25.7508 12.3977 25.776 12.3977C27.4365 12.3977 28.9961 11.7512 30.1748 10.5726C31.7806 8.96685 32.3856 6.61797 31.7539 4.44253C31.6765 4.17572 31.4699 3.97528 31.2016 3.90635C30.9343 3.83766 30.6577 3.91353 30.462 4.10916L28.1349 6.43616L26.7945 6.43935L25.5609 5.20585L25.5641 3.86547L27.8911 1.5386C28.0868 1.34291 28.1627 1.06641 28.094 0.798909C28.0251 0.530659 27.8249 0.324284 27.5583 0.246846C25.3615 -0.391216 22.9977 0.228596 21.3894 1.86422C20.2589 3.01403 19.6273 4.54122 19.6109 6.16447C19.6033 6.91916 19.7292 7.65441 19.9772 8.34197L17.3242 10.9949C16.6728 10.3443 15.6134 10.3447 14.9623 10.9958L13.9904 11.9677L6.39644 4.3741C6.21337 4.19103 5.91656 4.19103 5.73356 4.3741C5.5505 4.55716 5.5505 4.85391 5.73356 5.03697L13.3275 12.6305L12.6304 13.3276L0.99925 1.69691L1.69631 0.999846L4.32087 3.62428C4.50394 3.80735 4.80075 3.80735 4.98375 3.62428C5.16681 3.44122 5.16681 3.14447 4.98375 2.96141L2.25431 0.232096C1.94662 -0.0755912 1.446 -0.0755912 1.13831 0.232096L0.231437 1.13891C-0.0762503 1.4466 -0.0762503 1.94722 0.231437 2.25485L11.9675 13.9905L10.9956 14.9623C10.3444 15.6135 10.3441 16.6727 10.9948 17.3242L8.34194 19.9769C7.89331 19.8132 7.42525 19.6998 6.94612 19.644C6.68894 19.614 6.45625 19.7983 6.42631 20.0554C6.39637 20.3125 6.58056 20.5452 6.83769 20.5752C8.04625 20.7158 9.17537 21.2792 10.017 22.1614C10.956 23.1457 11.4655 24.4472 11.4516 25.8259C11.4376 27.2053 10.9015 28.5025 9.942 29.4784C8.64138 30.8013 6.75937 31.3422 4.97244 30.9234L7.23556 28.6603C7.32319 28.5727 7.37256 28.454 7.37287 28.33L7.37694 26.6013C7.37725 26.4767 7.32781 26.357 7.23962 26.2688L5.73062 24.76C5.64269 24.672 5.5235 24.6227 5.39919 24.6227H5.39812L3.66937 24.6267C3.54544 24.627 3.42669 24.6763 3.33906 24.764L1.07594 27.027C0.661687 25.2574 1.19012 23.3882 2.48819 22.0902C3.18244 21.396 4.05075 20.9097 4.99931 20.6838C5.25112 20.6238 5.40662 20.371 5.34669 20.1192C5.28675 19.8674 5.034 19.7119 4.78212 19.7718C3.66475 20.038 2.64231 20.6105 1.82537 21.4273C0.219437 23.0331 -0.385625 25.382 0.246062 27.5574C0.323562 27.8242 0.53 28.0247 0.798375 28.0936C1.06575 28.1623 1.34219 28.0865 1.53794 27.8908L3.86506 25.5638L5.2055 25.5606L6.43906 26.7941L6.43587 28.1345L4.10887 30.4614C3.91312 30.6571 3.83725 30.9336 3.90594 31.2011C3.97481 31.4693 4.175 31.6757 4.44156 31.7532C5.01319 31.9192 5.59587 32.0001 6.17387 32C7.81719 32 9.42075 31.3459 10.6106 30.1357C11.741 28.986 12.3726 27.4587 12.389 25.8355C12.3966 25.0808 12.2707 24.3455 12.0227 23.658L15.4834 20.1974C15.6926 20.4663 15.8826 20.7493 16.0506 21.045L16.5368 21.9005C16.892 22.526 17.3301 23.1007 17.8385 23.6085L18.7297 24.4998C18.7311 24.5011 18.7321 24.5025 18.7334 24.5038L22.9799 28.7502L25.4684 31.2387C25.9747 31.7446 26.6397 31.9975 27.3047 31.9975C27.9697 31.9975 28.6349 31.7445 29.1412 31.2386L31.2394 29.1405C32.2511 28.128 32.2511 26.4805 31.2392 25.4679L28.6958 22.9248ZM22.058 2.52147C23.0689 1.49322 24.4308 0.937534 25.8266 0.937534C26.2265 0.937534 26.6294 0.983159 27.0274 1.07647L24.7643 3.33953C24.6768 3.42716 24.6274 3.54597 24.6271 3.66985L24.623 5.39853C24.6227 5.52322 24.6721 5.64291 24.7603 5.73103L26.2693 7.24003C26.3573 7.32797 26.4764 7.37735 26.6008 7.37735H26.6019L28.3307 7.37328C28.4546 7.37297 28.5734 7.32366 28.6611 7.23597L30.9241 4.97291C31.3384 6.7426 30.8099 8.61172 29.5119 9.90978C28.4954 10.9263 27.1428 11.476 25.7116 11.4599C25.0219 11.4518 24.3559 11.3112 23.7404 11.0525C23.7254 11.0455 23.7101 11.0393 23.6945 11.0339C23.0579 10.7591 22.4769 10.3563 21.9829 9.83853C21.0439 8.85422 20.5345 7.55278 20.5484 6.17403C20.5624 4.79453 21.0984 3.49741 22.058 2.52147ZM21.3046 10.4856C21.7342 10.936 22.2197 11.3126 22.7461 11.6093L19.4953 14.86L17.6113 12.9755C17.7979 12.6321 17.8556 12.2368 17.7839 11.8613L20.3932 9.2521C20.6417 9.69566 20.9465 10.1102 21.3046 10.4856ZM11.6585 15.6252L15.6252 11.6587C15.7682 11.5157 15.956 11.4443 16.1437 11.4443C16.3316 11.4443 16.5194 11.5157 16.6624 11.6587C16.7337 11.73 16.7871 11.8124 16.8229 11.9005C16.8231 11.9008 16.8232 11.9013 16.8234 11.9017C16.9303 12.1664 16.8766 12.4815 16.6624 12.6957L12.6956 16.6623C12.4813 16.8767 12.1661 16.9303 11.9013 16.8232C11.901 16.8231 11.9008 16.823 11.9005 16.8229C11.8124 16.7872 11.7299 16.7337 11.6585 16.6623C11.3726 16.3764 11.3726 15.9112 11.6585 15.6252ZM10.6954 21.5144C10.2699 21.0683 9.78169 20.692 9.25075 20.3939L11.861 17.7837C11.9653 17.8037 12.0712 17.8137 12.1771 17.8137C12.4522 17.8137 12.7273 17.7459 12.9754 17.6112L14.8599 19.4951L11.6069 22.748C11.3584 22.3043 11.0535 21.8898 10.6954 21.5144ZM19.3963 23.176C19.4851 23.0872 19.6031 23.0383 19.7287 23.0383C19.8543 23.0383 19.9723 23.0872 20.0611 23.176L25.6379 28.7525C25.7267 28.8413 25.7756 28.9593 25.7756 29.0849C25.7756 29.2105 25.7267 29.3285 25.6379 29.4173C25.6379 29.4173 25.6379 29.4173 25.6379 29.4173C25.5491 29.5062 25.4311 29.555 25.3054 29.555C25.1799 29.555 25.0618 29.5062 24.9731 29.4173L23.6138 28.0581L19.3926 23.8368C19.2133 23.6532 19.2143 23.358 19.3963 23.176ZM30.5763 28.4777L28.4783 30.5756C27.8312 31.2222 26.7782 31.2222 26.1312 30.5757L25.9104 30.3549C26.0532 30.2867 26.1856 30.1955 26.3008 30.0803H26.3008C26.5667 29.8144 26.7131 29.461 26.7131 29.085C26.7131 28.709 26.5666 28.3555 26.3008 28.0897L20.724 22.5131C20.1752 21.9643 19.2822 21.9643 18.7332 22.5131C18.6169 22.6295 18.5268 22.7618 18.4597 22.9026C18.0286 22.4647 17.6556 21.9723 17.3518 21.4373L16.8656 20.5819C16.5117 19.9587 16.0737 19.3838 15.5639 18.8732L13.6868 16.9968L16.9968 13.6869L18.8736 15.5642C19.3839 16.0737 19.9587 16.5116 20.5819 16.8655L21.4376 17.3518C21.9726 17.6556 22.4648 18.0284 22.9028 18.4597C22.762 18.5267 22.6296 18.6168 22.5132 18.7332C21.9644 19.282 21.9644 20.175 22.5132 20.7238L25.5441 23.7545C25.7272 23.9375 26.0239 23.9377 26.207 23.7545C26.3901 23.5715 26.3901 23.2747 26.207 23.0917L23.1761 20.061C22.9928 19.8777 22.9927 19.5793 23.1761 19.3961C23.3583 19.2138 23.6541 19.213 23.8376 19.393L27.9054 23.4603L29.4179 24.9727C29.5067 25.0615 29.5556 25.1795 29.5556 25.3052C29.5556 25.4307 29.5067 25.5488 29.4179 25.6375C29.329 25.7263 29.211 25.7752 29.0854 25.7752C28.9598 25.7752 28.8418 25.7263 28.753 25.6375L27.6203 24.505C27.4373 24.3219 27.1404 24.3219 26.9574 24.505C26.7743 24.688 26.7743 24.9848 26.9574 25.1678L28.0901 26.3004C28.3559 26.5663 28.7094 26.7127 29.0854 26.7127C29.4613 26.7127 29.8149 26.5662 30.0807 26.3004C30.1959 26.1852 30.2872 26.0528 30.3554 25.91L30.5761 26.1306C31.2229 26.7778 31.2229 27.8307 30.5763 28.4777Z" fill="#494949"/>
</g>
<defs>
<clipPath id="clip0_9086_1483">
<rect width="32" height="32" fill="white"/>
</clipPath>
</defs>
</svg>
