<svg width="512" height="512" viewBox="0 0 512 512" fill="none" xmlns="http://www.w3.org/2000/svg">
<g clip-path="url(#clip0_3714_257)">
<circle cx="256" cy="557" r="200" fill="#FFE785"/>
<path d="M459.133 366.797L392.065 299.732C392.046 299.713 392.025 299.698 392.007 299.679L377.744 285.418C369.617 277.281 360.421 270.272 350.413 264.588L336.722 256.808C331.99 254.121 327.463 251.08 323.161 247.734L378.47 192.428C388.817 196.191 399.844 198.222 411.208 198.356C411.612 198.361 412.013 198.363 412.416 198.363C438.984 198.363 463.938 188.02 482.797 169.162C508.489 143.47 518.17 105.888 508.063 71.0805C506.824 66.8115 503.519 63.6045 499.225 62.5015C494.949 61.4025 490.523 62.6165 487.392 65.7465L450.159 102.979L428.712 103.03L408.975 83.2935L409.025 61.8475L446.257 24.6175C449.389 21.4865 450.603 17.0625 449.504 12.7825C448.402 8.49054 445.198 5.18854 440.933 3.94954C405.784 -6.25946 367.963 3.65754 342.231 29.8275C324.143 48.2245 314.037 72.6595 313.775 98.6315C313.653 110.707 315.668 122.471 319.636 133.472L277.188 175.919C266.765 165.51 249.815 165.515 239.397 175.933L223.846 191.483L102.343 69.9855C99.414 67.0565 94.665 67.0565 91.737 69.9855C88.808 72.9145 88.808 77.6625 91.737 80.5915L213.24 202.089L202.086 213.242L15.988 27.1505L27.141 15.9975L69.134 57.9885C72.063 60.9175 76.812 60.9175 79.74 57.9885C82.669 55.0595 82.669 50.3115 79.74 47.3825L36.069 3.71354C31.146 -1.20946 23.136 -1.20946 18.213 3.71354L3.70299 18.2225C-1.22001 23.1455 -1.22001 31.1555 3.70299 36.0775L191.48 223.848L175.929 239.398C165.511 249.816 165.506 266.764 175.916 277.188L133.471 319.631C126.293 317.011 118.804 315.198 111.138 314.305C107.023 313.825 103.3 316.773 102.821 320.887C102.342 325.001 105.289 328.724 109.403 329.203C128.74 331.454 146.806 340.467 160.272 354.583C175.296 370.332 183.448 391.155 183.225 413.215C183.002 435.286 174.424 456.041 159.072 471.655C138.262 492.821 108.15 501.476 79.559 494.775L115.769 458.566C117.171 457.164 117.961 455.264 117.966 453.281L118.031 425.622C118.036 423.627 117.245 421.712 115.834 420.302L91.69 396.16C90.283 394.753 88.376 393.963 86.387 393.963H86.37L58.71 394.028C56.727 394.033 54.827 394.822 53.425 396.225L17.215 432.433C10.587 404.119 19.042 374.212 39.811 353.444C50.919 342.337 64.812 334.555 79.989 330.941C84.018 329.982 86.506 325.937 85.547 321.908C84.588 317.879 80.544 315.391 76.514 316.35C58.636 320.608 42.277 329.768 29.206 342.838C3.51099 368.53 -6.17001 406.112 3.93699 440.919C5.17699 445.188 8.47999 448.395 12.774 449.498C17.052 450.597 21.475 449.384 24.607 446.253L61.841 409.021L83.288 408.97L103.025 428.706L102.974 450.152L65.742 487.383C62.61 490.514 61.396 494.938 62.495 499.218C63.597 503.51 66.8 506.812 71.065 508.051C80.211 510.708 89.534 512.002 98.782 512.001C125.075 512 150.732 501.535 169.769 482.172C187.856 463.776 197.962 439.34 198.224 413.368C198.346 401.293 196.331 389.529 192.363 378.528L247.734 323.159C251.081 327.462 254.122 331.989 256.81 336.721L264.589 350.408C270.272 360.416 277.281 369.611 285.416 377.736L299.676 391.997C299.697 392.018 299.713 392.04 299.734 392.061L367.679 460.003L407.495 499.82C415.595 507.914 426.235 511.961 436.875 511.961C447.515 511.961 458.158 507.913 466.259 499.818L499.83 466.248C516.018 450.048 516.018 423.689 499.827 407.487L459.133 366.797ZM352.928 40.3435C369.103 23.8915 390.893 15.0005 413.225 15.0005C419.624 15.0005 426.071 15.7305 432.439 17.2235L396.229 53.4325C394.828 54.8345 394.038 56.7355 394.033 58.7175L393.968 86.3765C393.963 88.3715 394.754 90.2865 396.164 91.6965L420.309 115.841C421.716 117.248 423.623 118.038 425.613 118.038H425.631L453.291 117.973C455.274 117.968 457.175 117.179 458.577 115.776L494.786 79.5665C501.414 107.882 492.959 137.788 472.19 158.557C455.926 174.822 434.285 183.616 411.385 183.359C400.35 183.229 389.695 180.98 379.847 176.841C379.606 176.728 379.361 176.629 379.112 176.543C368.927 172.146 359.631 165.702 351.727 157.417C336.703 141.668 328.552 120.845 328.774 98.7845C328.998 76.7125 337.575 55.9585 352.928 40.3435ZM340.874 167.77C347.748 174.976 355.515 181.002 363.937 185.749L311.924 237.76L281.781 207.609C284.767 202.114 285.69 195.789 284.542 189.781L326.291 148.034C330.267 155.131 335.144 161.763 340.874 167.77ZM186.536 250.004L250.004 186.539C252.292 184.252 255.296 183.109 258.3 183.109C261.305 183.109 264.311 184.252 266.598 186.539C267.739 187.68 268.594 188.999 269.166 190.408C269.169 190.414 269.171 190.421 269.174 190.427C270.885 194.663 270.026 199.704 266.598 203.132L203.13 266.597C199.7 270.027 194.658 270.885 190.421 269.172C190.416 269.17 190.412 269.168 190.408 269.167C188.998 268.595 187.678 267.739 186.536 266.597C181.961 262.023 181.961 254.579 186.536 250.004ZM171.126 344.231C164.318 337.094 156.507 331.073 148.012 326.303L189.776 284.54C191.445 284.859 193.139 285.02 194.833 285.02C199.236 285.02 203.637 283.935 207.606 281.779L237.759 311.922L185.711 363.968C181.734 356.87 176.856 350.238 171.126 344.231ZM310.341 370.816C311.761 369.395 313.65 368.613 315.659 368.613C317.669 368.613 319.557 369.395 320.978 370.816L410.206 460.04C411.628 461.461 412.41 463.35 412.41 465.359C412.41 467.368 411.628 469.257 410.207 470.678C410.206 470.678 410.206 470.678 410.206 470.678C408.786 472.099 406.897 472.881 404.887 472.881C402.878 472.881 400.989 472.099 399.569 470.678L377.82 448.93L310.281 381.389C307.412 378.452 307.429 373.728 310.341 370.816ZM489.221 455.644L455.653 489.21C445.299 499.556 428.452 499.556 418.099 489.212L414.566 485.679C416.851 484.588 418.969 483.129 420.812 481.285H420.813C425.067 477.031 427.409 471.376 427.409 465.36C427.409 459.344 425.066 453.688 420.813 449.435L331.584 360.21C322.803 351.43 308.515 351.43 299.732 360.21C297.87 362.072 296.428 364.19 295.355 366.442C288.457 359.435 282.49 351.558 277.629 342.998L269.85 329.311C264.187 319.339 257.18 310.142 249.022 301.972L218.988 271.949L271.949 218.991L301.978 249.027C310.142 257.18 319.339 264.186 329.311 269.849L343.002 277.629C351.561 282.49 359.437 288.455 366.445 295.355C364.192 296.427 362.074 297.87 360.211 299.732C351.431 308.513 351.431 322.8 360.211 331.582L408.705 380.073C411.635 383.001 416.383 383.003 419.312 380.073C422.241 377.145 422.241 372.396 419.312 369.467L370.818 320.976C367.885 318.043 367.884 313.27 370.817 310.338C373.733 307.422 378.466 307.408 381.402 310.289L446.487 375.366L470.686 399.564C472.107 400.984 472.889 402.873 472.889 404.883C472.889 406.892 472.107 408.781 470.686 410.201C469.264 411.622 467.376 412.404 465.366 412.404C463.357 412.404 461.468 411.622 460.048 410.201L441.924 392.08C438.996 389.151 434.247 389.151 431.318 392.08C428.389 395.009 428.389 399.757 431.319 402.686L449.441 420.807C453.695 425.061 459.351 427.403 465.366 427.403C471.381 427.403 477.038 425.06 481.291 420.807C483.135 418.963 484.595 416.845 485.686 414.56L489.217 418.09C499.566 428.445 499.566 445.292 489.221 455.644Z" fill="#494949"/>
</g>
<defs>
<clipPath id="clip0_3714_257">
<rect width="512" height="512" fill="white"/>
</clipPath>
</defs>
</svg>
