<svg width="512" height="512" viewBox="0 0 512 512" fill="none" xmlns="http://www.w3.org/2000/svg">
<g clip-path="url(#clip0_3760_323)">
<circle cx="256" cy="557" r="200" fill="#FFE785"/>
<path d="M305.674 201.221C301.273 201.221 299.386 201.693 296.162 207.351L288.066 221.5L279.97 207.351C276.747 201.692 274.862 201.221 270.459 201.221C267.394 201.221 264.328 202.871 264.328 207.351V254.906C264.329 257.419 267.394 258.677 270.459 258.677C273.524 258.677 276.589 257.419 276.589 254.905V224.643L284.056 238.32C284.999 240.128 286.494 240.599 287.908 240.599C289.401 240.599 290.973 240.049 291.995 238.32L299.541 225.429V254.906C299.541 257.421 302.606 258.678 305.672 258.678C308.738 258.678 311.802 257.42 311.802 254.906V207.351C311.804 202.871 308.818 201.221 305.674 201.221Z" fill="#494949"/>
<path d="M361.873 252.781L347.175 204.833C346.31 202.082 342.773 200.746 339.157 200.746C335.541 200.746 332.005 202.082 331.14 204.833L316.52 252.781C315.611 256.392 320.779 258.676 324.222 258.676C326.187 258.676 327.759 258.047 328.231 256.397L330.903 246.571H347.489L350.161 256.397C350.633 258.047 352.205 258.676 354.17 258.676C357.609 258.676 362.784 256.401 361.873 252.781ZM333.418 237.139L339.156 216.074L344.894 237.139H333.418Z" fill="#494949"/>
<path d="M396.771 247.986H378.85V204.912C378.85 202.318 375.785 201.218 372.719 201.218C369.653 201.218 366.588 202.318 366.588 204.912V254.904C366.588 257.419 369.261 258.677 371.933 258.677H396.772C399.13 258.677 400.309 256.005 400.309 253.332C400.308 250.66 399.129 247.986 396.771 247.986Z" fill="#494949"/>
<path d="M435.443 247.986H417.521V204.912C417.521 202.318 414.457 201.218 411.391 201.218C408.325 201.218 405.26 202.318 405.26 204.912V254.904C405.26 257.419 407.932 258.677 410.605 258.677H435.444C437.801 258.677 438.981 256.005 438.981 253.332C438.981 250.66 437.8 247.986 435.443 247.986Z" fill="#494949"/>
<path d="M491.919 420.651H488.162V347.038C488.162 342.896 484.805 339.538 480.662 339.538C476.519 339.538 473.162 342.896 473.162 347.038V420.651H422.216V308.483C422.216 302.676 417.491 297.95 411.684 297.95C406.319 297.95 293.465 297.95 287.984 297.95C282.234 297.95 277.555 302.628 277.555 308.379V420.65H226.609V284.644H473.163V312.036C473.163 316.178 476.52 319.536 480.663 319.536C484.806 319.536 488.163 316.178 488.163 312.036C488.163 307.87 488.163 188.765 488.163 186.378C488.163 178.87 482.056 172.762 474.548 172.762H422.217V152.857C426.233 152.713 429.446 149.421 429.446 145.371C429.446 141.321 426.233 138.029 422.217 137.885V122.159C426.233 122.015 429.446 118.723 429.446 114.673C429.446 110.623 426.233 107.331 422.217 107.187V63.1959C422.217 58.3059 419.843 53.6859 415.867 50.8389C411.89 47.9909 406.751 47.2309 402.122 48.8079L47.435 169.473C37.909 172.713 31.508 181.652 31.508 191.713V420.651H20.082C9.009 420.651 0 429.66 0 440.733V443.498C0 454.571 9.009 463.58 20.082 463.58H238.498C242.641 463.58 245.998 460.222 245.998 456.08C245.998 451.938 242.641 448.58 238.498 448.58H20.082C17.328 448.58 15.001 446.253 15.001 443.499V440.734C15.001 437.98 17.328 435.653 20.082 435.653H491.919C494.673 435.653 496.999 437.98 496.999 440.734V443.499C496.999 446.253 494.673 448.58 491.919 448.58H273.501C269.358 448.58 266.001 451.938 266.001 456.08C266.001 460.222 269.358 463.58 273.501 463.58H491.918C502.991 463.58 511.999 454.571 511.999 443.498V440.733C512 429.66 502.991 420.651 491.919 420.651ZM173.298 420.651H85.026V397.9H173.298V420.651ZM173.298 382.899H85.026V360.148H173.298V382.899ZM173.298 345.147H85.026V322.396H173.298V345.147ZM173.298 307.395H84.981L84.972 284.644H173.298V307.395ZM211.606 186.17C211.606 197.387 211.606 409.962 211.606 420.651H188.3C188.3 413.951 188.3 288.836 188.3 284.589C188.3 276.347 181.596 269.643 173.354 269.643H84.972C76.73 269.643 70.026 276.347 70.026 284.589C70.026 289.394 70.026 415.826 70.026 420.651H46.509V191.714C46.509 188.077 48.822 184.847 52.266 183.675L406.953 63.0089C407.011 62.9889 407.049 62.9759 407.132 63.0349C407.215 63.0939 407.215 63.1349 407.215 63.1959V107.171H349.885C345.742 107.171 342.385 110.529 342.385 114.671C342.385 118.813 345.742 122.171 349.885 122.171H407.215V137.869H349.885C345.742 137.869 342.385 141.227 342.385 145.369C342.385 149.511 345.742 152.869 349.885 152.869H407.215V172.76H225.014C217.62 172.762 211.606 178.776 211.606 186.17ZM226.607 187.763H414.714H473.159V269.644H226.607V187.763ZM342.383 420.651H292.554V312.952H342.383V420.651ZM407.213 420.651H357.384V312.952H407.213V420.651Z" fill="#494949"/>
</g>
<defs>
<clipPath id="clip0_3760_323">
<rect width="512" height="512" fill="white"/>
</clipPath>
</defs>
</svg>
