<svg width="120" height="120" viewBox="0 0 120 120" fill="none" xmlns="http://www.w3.org/2000/svg">
<g clip-path="url(#clip0_4156_2682)">
<circle cx="60" cy="130.547" r="46.875" fill="#FFE785"/>
<path d="M95.2482 38.7233H80.5602V30.5241H81.5737L87.9042 35.5797L94.2347 30.5241H95.2482V38.7233ZM91.841 30.5241L87.9042 33.6677L83.9682 30.5241H91.841ZM96.742 29.0303H96.1049H79.7042H79.0664V40.217H96.742V29.0303Z" fill="#494949"/>
<path d="M59.8477 84.0794C61.6925 82.0411 64.326 80.8715 67.0723 80.8715C67.3874 80.8715 67.7258 80.8902 68.0805 80.9246C72.6611 81.3757 76.3156 85.0301 76.7698 89.6145C76.9572 91.5183 76.5965 93.3937 75.745 95.0488C74.7255 93.8754 73.3087 93.1091 71.735 92.897C72.6671 91.8163 73.234 90.4144 73.234 88.8796C73.234 85.4828 70.4698 82.7178 67.0723 82.7178C63.6755 82.7178 60.9105 85.4828 60.9105 88.8796C60.9105 90.5115 61.5543 91.9933 62.5925 93.0972C61.045 93.5476 59.7223 94.5521 58.882 95.9137C58.0515 94.6283 57.5294 93.1569 57.3763 91.6251C57.0992 88.8243 57.9775 86.1445 59.8477 84.0794V84.0794ZM67.0723 93.5476C64.4993 93.5476 62.4043 91.4533 62.4043 88.8796C62.4043 86.3058 64.4993 84.2116 67.0723 84.2116C69.6475 84.2116 71.7402 86.3058 71.7402 88.8796C71.7402 91.4533 69.6475 93.5476 67.0723 93.5476ZM54.8093 91.8798C55.0908 94.6985 56.3538 97.3536 58.3666 99.356C58.6124 99.6003 58.9417 99.7317 59.2771 99.7317C59.407 99.7317 59.5393 99.7123 59.6662 99.6712C60.1248 99.5263 60.4646 99.1379 60.5475 98.6644C60.8792 96.78 62.5043 95.4118 64.4119 95.4118H70.8507C72.4819 95.4118 73.9174 96.3984 74.5097 97.9273C74.677 98.3582 75.0609 98.6667 75.518 98.7369C75.9736 98.8056 76.4336 98.6263 76.7219 98.2648C78.7266 95.7494 79.6557 92.5871 79.3375 89.3605C78.7632 83.5558 74.1355 78.9282 68.3345 78.3576C67.8983 78.3135 67.4733 78.2911 67.0723 78.2911C63.5985 78.2911 60.2675 79.7699 57.9335 82.3474C55.5688 84.9585 54.4597 88.3433 54.8093 91.8798" fill="#494949"/>
<path d="M38.2625 31.8543C49.1109 31.8543 57.9361 40.6794 57.9361 51.5263C57.9361 55.7925 56.5805 59.8525 54.0695 63.2232C53.1717 58.7957 49.4508 55.3825 44.8762 54.944C47.426 52.9671 49.0751 49.8824 49.0751 46.4125C49.0751 40.4494 44.2241 35.5976 38.2595 35.5976C32.2994 35.5976 27.4492 40.4494 27.4492 46.4125C27.4492 49.8839 29.0991 52.9693 31.6504 54.9463C31.6168 54.95 31.5847 54.9515 31.5496 54.9545C31.4973 54.9582 31.4443 54.9642 31.3935 54.9731C26.8756 55.5199 23.3279 58.907 22.4556 63.2239C19.9453 59.8533 18.5883 55.7932 18.5883 51.5263C18.5883 40.6794 27.4141 31.8543 38.2625 31.8543V31.8543ZM39.4501 54.8932H37.0713C32.9074 54.3114 29.6899 50.7354 29.6899 46.4125C29.6899 41.684 33.5348 37.8383 38.2595 37.8383C42.988 37.8383 46.8344 41.684 46.8344 46.4125C46.8344 50.7354 43.6154 54.3114 39.4501 54.8932ZM22.6334 67.3474C23.0046 67.7127 23.5572 67.8202 24.0375 67.62C24.5185 67.4191 24.8307 66.9494 24.8307 66.4288V65.295C24.8307 61.3119 27.8137 57.9726 31.7684 57.5275C31.7841 57.526 31.7991 57.5237 31.814 57.5215C32.1157 57.4894 32.3898 57.4745 32.6527 57.4745H43.8753C48.187 57.4745 51.6966 60.9825 51.6966 65.295V66.4288C51.6966 66.9494 52.0096 67.4191 52.4891 67.62C52.6496 67.6873 52.8184 67.7194 52.9865 67.7194C53.3189 67.7194 53.6475 67.5902 53.8939 67.3467C58.1653 63.1231 60.5165 57.5051 60.5165 51.5263C60.5165 39.2558 50.533 29.2731 38.2625 29.2731C25.9921 29.2731 16.0078 39.2558 16.0078 51.5263C16.0078 57.5058 18.3612 63.1238 22.6334 67.3474" fill="#494949"/>
<path d="M87.8999 20.0209C95.6719 20.0209 101.994 26.3432 101.994 34.1152C101.994 41.8865 95.6719 48.2096 87.8999 48.2096C80.1294 48.2096 73.807 41.8865 73.807 34.1152C73.807 26.3432 80.1294 20.0209 87.8999 20.0209ZM87.8999 50.79C97.0947 50.79 104.575 43.3093 104.575 34.1152C104.575 24.9204 97.0947 17.4404 87.8999 17.4404C78.7066 17.4404 71.2266 24.9204 71.2266 34.1152C71.2266 43.3093 78.7066 50.79 87.8999 50.79" fill="#494949"/>
<path d="M38.261 28.033C47.3759 28.033 55.7477 33.4112 59.5904 41.7352C59.869 42.3402 60.5636 42.633 61.191 42.4111L69.7808 39.3766C70.394 39.1592 70.7495 38.5199 70.6113 37.8843C70.3357 36.6221 70.1961 35.3539 70.1961 34.1155C70.1961 24.3516 78.1391 16.4086 87.9016 16.4086C97.6647 16.4086 105.607 24.3516 105.607 34.1155C105.607 43.8787 97.6647 51.8218 87.9016 51.8218C80.8256 51.8218 74.4413 47.6094 71.6353 41.0899C71.3664 40.4663 70.6591 40.1578 70.0198 40.3834L61.6077 43.3589C60.9617 43.5875 60.6069 44.2806 60.7996 44.9378C61.4359 47.1083 61.7578 49.325 61.7578 51.5268C61.7578 58.9508 58.1534 66.0282 52.1156 70.4601C51.8213 70.6752 51.6332 71.0046 51.5951 71.3684C51.5577 71.7299 51.6749 72.0913 51.9184 72.3625L58.1011 79.239C58.5253 79.711 59.2304 79.8043 59.7636 79.4585C62.3359 77.7863 65.413 77.0312 68.4304 77.3277C74.7191 77.9513 79.7367 82.9696 80.3611 89.2583C80.739 93.0868 79.5358 96.754 76.9717 99.5854C74.4458 102.374 70.8361 103.975 67.0704 103.975C66.6088 103.975 66.1517 103.952 65.7088 103.908C59.4208 103.287 54.4041 98.2709 53.7789 91.9799C53.4025 88.1507 54.6057 84.4836 57.119 81.7044C57.1556 81.6708 57.2362 81.5909 57.2691 81.5535C57.6978 81.0621 57.6926 80.3286 57.2564 79.8432L50.7391 72.591C50.4874 72.3117 50.1364 72.1638 49.7786 72.1638C49.5747 72.1638 49.3671 72.2116 49.1766 72.3124C45.7686 74.1117 42.0955 75.0243 38.261 75.0243C25.3072 75.0243 14.768 64.4836 14.768 51.5268C14.768 38.5722 25.3072 28.033 38.261 28.033V28.033ZM12.1875 51.5268C12.1875 65.9064 23.8836 77.6048 38.261 77.6048C42.1246 77.6048 45.9808 76.7235 49.4784 75.049L54.5758 80.7222C51.9872 83.9742 50.7959 88.023 51.2112 92.2346C51.9573 99.746 57.948 105.734 65.4526 106.475C65.9792 106.528 66.5229 106.555 67.0704 106.555C71.5636 106.555 75.8701 104.646 78.8852 101.317C81.9444 97.9393 83.3792 93.5663 82.9288 89.0037C82.1834 81.4945 76.1928 75.5046 68.6844 74.7599C65.4526 74.4403 62.1626 75.1349 59.3088 76.722L54.7648 71.6678C60.7839 66.725 64.3383 59.2973 64.3383 51.5268C64.3383 49.4781 64.0873 47.4205 63.5929 45.3942L69.7756 43.2073C73.2097 50.0465 80.1982 54.4023 87.9016 54.4023C99.0875 54.4023 108.188 45.3008 108.188 34.1155C108.188 22.9288 99.0875 13.8281 87.9016 13.8281C76.7163 13.8281 67.6156 22.9288 67.6156 34.1155C67.6156 35.1701 67.703 36.2404 67.877 37.3122L61.415 39.5954C56.9487 30.966 47.9869 25.4525 38.261 25.4525C23.8836 25.4525 12.1875 37.1494 12.1875 51.5268" fill="#494949"/>
</g>
<defs>
<clipPath id="clip0_4156_2682">
<rect width="120" height="120" fill="white"/>
</clipPath>
</defs>
</svg>
