<svg width="45" height="45" viewBox="0 0 45 45" fill="none" xmlns="http://www.w3.org/2000/svg">
<g clip-path="url(#clip0_3822_439)">
<path d="M40.0781 48.9551C40.0781 58.6632 32.2081 66.5332 22.5 66.5332C12.7919 66.5332 4.92188 58.6632 4.92188 48.9551C4.92188 39.2469 12.7919 31.377 22.5 31.377C32.2081 31.377 40.0781 39.2469 40.0781 48.9551Z" fill="#FFE785"/>
<g clip-path="url(#clip1_3822_439)">
<path d="M7.91462 34.8002C7.28462 34.8002 6.679 34.9575 6.1417 35.2527C3.31135 31.6245 1.75781 27.1173 1.75781 22.5C1.75781 11.0625 11.0625 1.75781 22.5 1.75781C23.8905 1.75781 25.2802 1.89617 26.6309 2.16911C27.106 2.26524 27.5702 1.95763 27.6663 1.48178C27.7625 1.00594 27.4548 0.54245 26.979 0.445976C25.514 0.150032 24.0072 0 22.5 0C16.4901 0 10.8397 2.34043 6.59008 6.59008C2.34043 10.8397 0 16.4901 0 22.5C0 27.5554 1.71661 32.489 4.84188 36.4441C4.43951 37.0452 4.22321 37.7518 4.22321 38.4916C4.22321 39.4777 4.60739 40.4046 5.30468 41.1016C6.00162 41.7989 6.9286 42.183 7.91462 42.183C8.90064 42.183 9.82761 41.7989 10.5249 41.1016C11.2222 40.4046 11.606 39.4773 11.606 38.4913C11.606 37.5056 11.2222 36.5783 10.5249 35.8813C9.82761 35.1841 8.90064 34.8002 7.91462 34.8002V34.8002ZM9.28173 39.8587C8.91678 40.224 8.43098 40.4252 7.91462 40.4252C7.39826 40.4252 6.9128 40.224 6.54751 39.8587C6.18221 39.4934 5.98103 39.008 5.98103 38.4916C5.98103 37.9749 6.18221 37.4895 6.54751 37.1242C6.91246 36.7589 7.39826 36.558 7.91462 36.558C8.43098 36.558 8.91644 36.7592 9.28173 37.1242C9.64703 37.4895 9.84821 37.9749 9.84821 38.4916C9.84821 39.008 9.64703 39.4934 9.28173 39.8587V39.8587Z" fill="#494949"/>
<path d="M40.1559 8.55485C41.1114 7.12148 40.9579 5.16179 39.6941 3.89802C38.9969 3.20107 38.0699 2.81689 37.0839 2.81689C36.0978 2.81689 35.1709 3.20107 34.4736 3.89802C33.7763 4.59531 33.3925 5.52228 33.3925 6.5083C33.3925 7.49432 33.7763 8.4213 34.4736 9.11858C35.1709 9.81587 36.0978 10.1997 37.0839 10.1997C37.7139 10.1997 38.3195 10.0425 38.8568 9.74721C41.6871 13.3758 43.2407 17.8826 43.2407 22.4999C43.2407 33.9374 33.9359 43.2421 22.4985 43.2421C21.1218 43.2421 19.745 43.1065 18.4071 42.8387C17.9313 42.7436 17.4681 43.0523 17.3727 43.5281C17.2776 44.0043 17.5862 44.4671 18.0621 44.5625C19.5133 44.8526 21.0061 44.9999 22.4985 44.9999C28.5084 44.9999 34.1588 42.6595 38.4084 38.4099C42.6581 34.1602 44.9985 28.5098 44.9985 22.4999C44.9985 17.4442 43.2815 12.5103 40.1559 8.55485V8.55485ZM35.7168 7.87576C35.3515 7.51046 35.1503 7.025 35.1503 6.5083C35.1503 5.99194 35.3515 5.50648 35.7168 5.14119C36.0817 4.77589 36.5675 4.57471 37.0839 4.57471C37.6002 4.57471 38.086 4.77589 38.4513 5.14119C39.2049 5.89513 39.2049 7.12182 38.4513 7.87576C38.086 8.24071 37.6002 8.44189 37.0839 8.44189C36.5672 8.44189 36.0817 8.24071 35.7168 7.87576Z" fill="#494949"/>
<path d="M18.8745 37.6172C18.8745 38.1026 19.2683 38.4961 19.7534 38.4961H25.249C25.7344 38.4961 26.1279 38.1026 26.1279 37.6172V35.9133C27.2835 35.6022 28.3883 35.1442 29.4265 34.5462L30.6295 35.7492C30.7943 35.914 31.0178 36.0067 31.2513 36.0067C31.4841 36.0067 31.7079 35.914 31.8727 35.7488L35.7571 31.8617C36.1 31.5184 36.1 30.9619 35.7571 30.6189L34.5554 29.4173C35.1535 28.3791 35.6115 27.2742 35.9225 26.1186H37.6199C38.1054 26.1186 38.4988 25.7252 38.4988 25.2397V19.7441C38.4988 19.2587 38.1054 18.8652 37.6199 18.8652H35.9222C35.6112 17.71 35.1535 16.6051 34.5554 15.5669L35.7505 14.3718C35.9153 14.207 36.008 13.9832 36.008 13.7501C36.0077 13.517 35.915 13.2931 35.7502 13.1283L31.8628 9.24397C31.5198 8.90099 30.9632 8.90099 30.6199 9.24431L29.4265 10.438C28.3883 9.83997 27.2835 9.38198 26.1279 9.07093V7.38281C26.1279 6.89735 25.7344 6.50391 25.249 6.50391H19.7534C19.2683 6.50391 18.8745 6.89735 18.8745 7.38281V9.07127C17.7192 9.38198 16.6144 9.83997 15.5762 10.438L14.3825 9.24431C14.0395 8.90133 13.483 8.90099 13.1396 9.24397L9.25255 13.1287C9.08741 13.2935 8.99471 13.517 8.99471 13.7501C8.99471 13.9832 9.08741 14.207 9.25221 14.3718L10.4473 15.5669C9.84924 16.6051 9.39125 17.7096 9.0802 18.8652H7.3859C6.90045 18.8652 6.507 19.2587 6.507 19.7438L6.50391 25.2394C6.50356 25.4725 6.59626 25.6963 6.76106 25.8611C6.92585 26.0259 7.14935 26.1186 7.38281 26.1186H9.0802C9.39125 27.2742 9.84924 28.3791 10.4473 29.4173L9.24568 30.6189C8.9027 30.9619 8.90236 31.5184 9.24568 31.8617L13.13 35.7488C13.2948 35.9136 13.5183 36.0067 13.7515 36.0067H13.7518C13.9849 36.0067 14.2084 35.914 14.3732 35.7492L15.5759 34.5462C16.6144 35.1442 17.7192 35.6022 18.8745 35.9133V37.6172ZM15.9206 32.6977C15.5728 32.4728 15.1151 32.5216 14.8219 32.8144L13.7518 33.8846L11.1099 31.2407L12.179 30.1712C12.4719 29.8783 12.5206 29.4207 12.2958 29.0729C11.4989 27.8397 10.9386 26.488 10.631 25.055C10.5438 24.6502 10.186 24.3608 9.77165 24.3608H8.26206L8.26412 20.6231H9.77165C10.186 20.6231 10.5438 20.334 10.631 19.9289C10.9386 18.4962 11.4989 17.1445 12.2958 15.9113C12.5206 15.5635 12.4719 15.1059 12.179 14.813L11.1168 13.7504L13.7607 11.1086L14.8219 12.1701C15.1151 12.463 15.5724 12.5114 15.9206 12.2868C17.1534 11.49 18.5051 10.9297 19.9381 10.6221C20.3429 10.5349 20.6323 10.1768 20.6323 9.76273V8.26172H24.3701V9.76238C24.3701 10.1768 24.6592 10.5349 25.0643 10.6217C26.497 10.9297 27.849 11.4896 29.0818 12.2865C29.4296 12.5114 29.8873 12.463 30.1801 12.1698L31.2417 11.1086L33.8856 13.7504L32.8234 14.8127C32.5302 15.1059 32.4818 15.5635 32.7066 15.9113C33.5035 17.1445 34.0635 18.4962 34.3714 19.9289C34.4583 20.334 34.8164 20.6231 35.2308 20.6231H36.741V24.3608H35.2308C34.8164 24.3608 34.4586 24.6502 34.3714 25.055C34.0638 26.4877 33.5035 27.8397 32.7066 29.0726C32.4818 29.4207 32.5305 29.8783 32.8234 30.1712L33.8925 31.2403L31.2506 33.8842L30.1805 32.8144C29.8873 32.5212 29.4296 32.4728 29.0818 32.6977C27.8486 33.4946 26.497 34.0545 25.0643 34.3625C24.6592 34.4497 24.3701 34.8074 24.3701 35.2218V36.7383H20.6323V35.2218C20.6323 34.8078 20.3429 34.4497 19.9381 34.3625C18.5054 34.0549 17.1538 33.4946 15.9206 32.6977V32.6977Z" fill="#494949"/>
<path d="M29.7629 22.5001C29.7629 18.4956 26.5051 15.2378 22.5006 15.2378C18.4961 15.2378 15.2383 18.4956 15.2383 22.5001C15.2383 26.5046 18.4961 29.7624 22.5006 29.7624C26.5051 29.7624 29.7629 26.5046 29.7629 22.5001ZM16.9961 22.5001C16.9961 19.4648 19.4653 16.9956 22.5006 16.9956C25.5359 16.9956 28.0051 19.4651 28.0051 22.5001C28.0051 25.5351 25.5359 28.0046 22.5006 28.0046C19.4653 28.0046 16.9961 25.5354 16.9961 22.5001Z" fill="#494949"/>
<path d="M30.5938 3.32403C30.8251 3.32403 31.0517 3.22996 31.2152 3.06654C31.3786 2.90208 31.4727 2.67549 31.4727 2.44409C31.4727 2.21407 31.3789 1.98713 31.2152 1.82268C31.0517 1.65926 30.8251 1.56519 30.5938 1.56519C30.3617 1.56519 30.1361 1.65926 29.9727 1.82268C29.8089 1.98713 29.7148 2.21304 29.7148 2.44409C29.7148 2.67618 29.8089 2.90208 29.9727 3.06654C30.1361 3.22996 30.3617 3.32403 30.5938 3.32403Z" fill="#494949"/>
<path d="M14.4453 41.6917C14.2143 41.6917 13.9873 41.7857 13.8239 41.9491C13.6605 42.1126 13.5664 42.3395 13.5664 42.5706C13.5664 42.8026 13.6605 43.0285 13.8239 43.192C13.9873 43.3554 14.2143 43.4495 14.4453 43.4495C14.6764 43.4495 14.9033 43.3554 15.0667 43.192C15.2301 43.0285 15.3242 42.8016 15.3242 42.5706C15.3242 42.3395 15.2301 42.1126 15.0667 41.9491C14.9033 41.7857 14.6764 41.6917 14.4453 41.6917Z" fill="#494949"/>
</g>
</g>
<defs>
<clipPath id="clip0_3822_439">
<rect width="45" height="45" fill="white"/>
</clipPath>
<clipPath id="clip1_3822_439">
<rect width="45" height="45" fill="white"/>
</clipPath>
</defs>
</svg>
