<svg width="60" height="60" viewBox="0 0 60 60" fill="none" xmlns="http://www.w3.org/2000/svg">
<g clip-path="url(#clip0_59_927)">
<ellipse cx="30" cy="65.2734" rx="23.4375" ry="23.4375" fill="#FFE785"/>
<path d="M41.3894 58.4748H5.71368C5.06856 58.4748 4.44986 58.2185 3.99369 57.7624C3.53752 57.3062 3.28125 56.6875 3.28125 56.0424V16.3126C3.28125 16.0976 3.36667 15.8914 3.51873 15.7393C3.67079 15.5873 3.87702 15.5018 4.09206 15.5018H43.011C43.226 15.5018 43.4323 15.5873 43.5843 15.7393C43.7364 15.8914 43.8218 16.0976 43.8218 16.3126V29.9991C43.8218 30.2142 43.7364 30.4204 43.5843 30.5725C43.4323 30.7245 43.226 30.8099 43.011 30.8099C42.7959 30.8099 42.5897 30.7245 42.4377 30.5725C42.2856 30.4204 42.2002 30.2142 42.2002 29.9991V17.1235H4.90287V56.0424C4.90287 56.2574 4.9883 56.4636 5.14035 56.6157C5.29241 56.7678 5.49864 56.8532 5.71368 56.8532H41.3894C41.6044 56.8532 41.8106 56.7678 41.9627 56.6157C42.1147 56.4636 42.2002 56.2574 42.2002 56.0424V40.637C42.2002 40.4219 42.2856 40.2157 42.4377 40.0636C42.5897 39.9116 42.7959 39.8262 43.011 39.8262C43.226 39.8262 43.4323 39.9116 43.5843 40.0636C43.7364 40.2157 43.8218 40.4219 43.8218 40.637V56.0424C43.8218 56.6875 43.5655 57.3062 43.1093 57.7624C42.6532 58.2185 42.0345 58.4748 41.3894 58.4748Z" fill="#494949"/>
<path d="M4.09206 17.1234C3.87702 17.1234 3.67079 17.038 3.51873 16.886C3.36667 16.7339 3.28125 16.5277 3.28125 16.3126V8.20453C3.28125 7.55941 3.53752 6.94071 3.99369 6.48454C4.44986 6.02837 5.06856 5.77209 5.71368 5.77209H11.3894C11.6044 5.77209 11.8106 5.85752 11.9627 6.00958C12.1147 6.16163 12.2002 6.36787 12.2002 6.58291C12.2002 6.79795 12.1147 7.00418 11.9627 7.15624C11.8106 7.30829 11.6044 7.39372 11.3894 7.39372H5.71368C5.49864 7.39372 5.29241 7.47914 5.14035 7.6312C4.9883 7.78325 4.90287 7.98949 4.90287 8.20453V16.3126C4.90287 16.5277 4.81745 16.7339 4.66539 16.886C4.51333 17.038 4.3071 17.1234 4.09206 17.1234Z" fill="#494949"/>
<path d="M43.0114 17.1234C42.7964 17.1234 42.5902 17.038 42.4381 16.886C42.286 16.7339 42.2006 16.5277 42.2006 16.3126V8.20453C42.2006 7.98949 42.1152 7.78325 41.9631 7.6312C41.8111 7.47914 41.6048 7.39372 41.3898 7.39372H35.7141C35.4991 7.39372 35.2929 7.30829 35.1408 7.15624C34.9887 7.00418 34.9033 6.79795 34.9033 6.58291C34.9033 6.36787 34.9887 6.16163 35.1408 6.00958C35.2929 5.85752 35.4991 5.77209 35.7141 5.77209H41.3898C42.0349 5.77209 42.6536 6.02837 43.1098 6.48454C43.566 6.94071 43.8222 7.55941 43.8222 8.20453V16.3126C43.8222 16.5277 43.7368 16.7339 43.5848 16.886C43.4327 17.038 43.2265 17.1234 43.0114 17.1234Z" fill="#494949"/>
<path d="M31.6598 7.39372H15.4436C15.2286 7.39372 15.0223 7.30829 14.8703 7.15624C14.7182 7.00418 14.6328 6.79795 14.6328 6.58291C14.6328 6.36787 14.7182 6.16163 14.8703 6.00958C15.0223 5.85752 15.2286 5.77209 15.4436 5.77209H31.6598C31.8749 5.77209 32.0811 5.85752 32.2332 6.00958C32.3852 6.16163 32.4707 6.36787 32.4707 6.58291C32.4707 6.79795 32.3852 7.00418 32.2332 7.15624C32.0811 7.30829 31.8749 7.39372 31.6598 7.39372Z" fill="#494949"/>
<path d="M33.6787 11.6586C32.9267 11.6564 32.2061 11.3568 31.6744 10.825C31.1426 10.2933 30.843 9.57272 30.8408 8.82074V4.36128C30.8408 3.60863 31.1398 2.88682 31.672 2.35462C32.2042 1.82242 32.926 1.52344 33.6787 1.52344C34.4313 1.52344 35.1531 1.82242 35.6853 2.35462C36.2175 2.88682 36.5165 3.60863 36.5165 4.36128V8.82074C36.5144 9.57272 36.2147 10.2933 35.6829 10.825C35.1512 11.3568 34.4306 11.6564 33.6787 11.6586V11.6586ZM33.6787 3.14506C33.3575 3.1472 33.0502 3.27628 32.8239 3.50413C32.5976 3.73199 32.4705 4.04011 32.4705 4.36128V8.82074C32.4705 9.1433 32.5987 9.45265 32.8268 9.68073C33.0549 9.90882 33.3642 10.037 33.6868 10.037C34.0093 10.037 34.3187 9.90882 34.5468 9.68073C34.7748 9.45265 34.903 9.1433 34.903 8.82074V4.36128C34.903 4.20088 34.8713 4.04206 34.8096 3.89397C34.748 3.74588 34.6577 3.61144 34.5439 3.4984C34.4301 3.38536 34.2951 3.29594 34.1466 3.2353C33.9981 3.17466 33.8391 3.14399 33.6787 3.14506V3.14506Z" fill="#494949"/>
<path d="M13.4082 11.6586C12.6562 11.6564 11.9356 11.3568 11.4039 10.825C10.8721 10.2933 10.5725 9.57272 10.5703 8.82074V4.36128C10.5703 3.60863 10.8693 2.88682 11.4015 2.35462C11.9337 1.82242 12.6555 1.52344 13.4082 1.52344C14.1608 1.52344 14.8826 1.82242 15.4148 2.35462C15.947 2.88682 16.246 3.60863 16.246 4.36128V8.82074C16.2438 9.57272 15.9442 10.2933 15.4124 10.825C14.8807 11.3568 14.1601 11.6564 13.4082 11.6586V11.6586ZM13.4082 3.14506C13.087 3.1472 12.7797 3.27628 12.5534 3.50413C12.3271 3.73199 12.2 4.04011 12.2 4.36128V8.82074C12.2 9.1433 12.3282 9.45265 12.5563 9.68073C12.7843 9.90882 13.0937 10.037 13.4163 10.037C13.7388 10.037 14.0482 9.90882 14.2763 9.68073C14.5043 9.45265 14.6325 9.1433 14.6325 8.82074V4.36128C14.6325 4.20088 14.6008 4.04206 14.5391 3.89397C14.4775 3.74588 14.3872 3.61144 14.2734 3.4984C14.1596 3.38536 14.0246 3.29594 13.8761 3.2353C13.7276 3.17466 13.5685 3.14399 13.4082 3.14506V3.14506Z" fill="#494949"/>
<path d="M40.6925 44.3343C40.5068 44.3351 40.3265 44.2721 40.1817 44.1559L34.9844 39.9883C34.9011 39.9219 34.8318 39.8398 34.7803 39.7465C34.7289 39.6533 34.6963 39.5509 34.6844 39.4451C34.6717 39.3388 34.6803 39.231 34.7095 39.1281C34.7387 39.0251 34.7881 38.9289 34.8546 38.8451L49.9195 20.0667C50.2324 19.6812 50.685 19.4351 51.1786 19.3819C51.6722 19.3288 52.1669 19.4729 52.5546 19.7829L56.0979 22.6289C56.2918 22.7815 56.4533 22.9713 56.5731 23.187C56.6928 23.4028 56.7683 23.6403 56.7952 23.8856C56.8491 24.3794 56.7064 24.8746 56.3979 25.264L41.3249 44.0343C41.2486 44.1283 41.1522 44.2041 41.0427 44.256C40.9333 44.3079 40.8136 44.3347 40.6925 44.3343V44.3343ZM36.6384 39.2262L40.579 42.3883L55.1736 24.2424C55.1933 24.2175 55.2078 24.1888 55.2162 24.1582C55.2245 24.1275 55.2266 24.0955 55.2222 24.064C55.2202 24.0309 55.2112 23.9987 55.1958 23.9693C55.1804 23.94 55.159 23.9142 55.133 23.8937L51.533 21.0802C51.5077 21.0593 51.4785 21.0438 51.4471 21.0345C51.4156 21.0252 51.3826 21.0224 51.3501 21.0262C51.3175 21.03 51.286 21.0403 51.2576 21.0565C51.2291 21.0728 51.2042 21.0946 51.1844 21.1208L36.6384 39.2262Z" fill="#494949"/>
<path d="M33.0458 48.5424C32.8602 48.5432 32.6799 48.4802 32.535 48.364C32.4105 48.2632 32.3186 48.1278 32.271 47.9748C32.2234 47.8219 32.2222 47.6582 32.2675 47.5045L34.6999 39.1289C34.737 39.0003 34.8053 38.8829 34.8988 38.7872C34.9923 38.6914 35.108 38.6203 35.2357 38.5802C35.3633 38.54 35.4989 38.5321 35.6304 38.5571C35.7619 38.5821 35.8851 38.6393 35.9891 38.7235L41.1864 42.891C41.2911 42.9741 41.3737 43.0818 41.4268 43.2045C41.4798 43.3273 41.5017 43.4612 41.4905 43.5944C41.4792 43.7277 41.4352 43.8561 41.3624 43.9682C41.2895 44.0803 41.1901 44.1726 41.0729 44.237L33.4269 48.437C33.3114 48.505 33.1799 48.5414 33.0458 48.5424V48.5424ZM35.9242 40.7424L34.3675 46.0775L39.2323 43.4018L35.9242 40.7424Z" fill="#494949"/>
<path d="M51.9948 30.2504C51.8081 30.2489 51.6277 30.1831 51.484 30.0639L46.3029 25.8639C46.1482 25.7248 46.0528 25.5316 46.0366 25.3242C46.0204 25.1167 46.0846 24.911 46.2158 24.7496C46.3471 24.5881 46.5354 24.4833 46.7417 24.4568C46.9481 24.4303 47.1567 24.4841 47.3245 24.6072L52.5056 28.8072C52.5889 28.8741 52.6581 28.9568 52.7093 29.0506C52.7606 29.1443 52.7928 29.2473 52.8041 29.3535C52.8154 29.4598 52.8056 29.5672 52.7752 29.6696C52.7449 29.7721 52.6946 29.8675 52.6272 29.9504C52.5509 30.0445 52.4545 30.1203 52.345 30.1722C52.2356 30.2241 52.1159 30.2508 51.9948 30.2504Z" fill="#494949"/>
<path d="M33.2814 22.7991H9.76784C9.5528 22.7991 9.34657 22.7137 9.19451 22.5616C9.04246 22.4096 8.95703 22.2033 8.95703 21.9883C8.95703 21.7733 9.04246 21.567 9.19451 21.415C9.34657 21.2629 9.5528 21.1775 9.76784 21.1775H33.2814C33.4964 21.1775 33.7026 21.2629 33.8547 21.415C34.0067 21.567 34.0922 21.7733 34.0922 21.9883C34.0922 22.2033 34.0067 22.4096 33.8547 22.5616C33.7026 22.7137 33.4964 22.7991 33.2814 22.7991Z" fill="#494949"/>
<path d="M33.2814 29.2856H9.76784C9.5528 29.2856 9.34657 29.2001 9.19451 29.0481C9.04246 28.896 8.95703 28.6898 8.95703 28.4748C8.95703 28.2597 9.04246 28.0535 9.19451 27.9014C9.34657 27.7494 9.5528 27.6639 9.76784 27.6639H33.2814C33.4964 27.6639 33.7026 27.7494 33.8547 27.9014C34.0067 28.0535 34.0922 28.2597 34.0922 28.4748C34.0922 28.6898 34.0067 28.896 33.8547 29.0481C33.7026 29.2001 33.4964 29.2856 33.2814 29.2856Z" fill="#494949"/>
<path d="M25.9841 35.7721H9.76784C9.5528 35.7721 9.34657 35.6867 9.19451 35.5347C9.04246 35.3826 8.95703 35.1764 8.95703 34.9613C8.95703 34.7463 9.04246 34.54 9.19451 34.388C9.34657 34.2359 9.5528 34.1505 9.76784 34.1505H25.9841C26.1991 34.1505 26.4053 34.2359 26.5574 34.388C26.7094 34.54 26.7949 34.7463 26.7949 34.9613C26.7949 35.1764 26.7094 35.3826 26.5574 35.5347C26.4053 35.6867 26.1991 35.7721 25.9841 35.7721Z" fill="#494949"/>
<path d="M27.6058 49.5558H15.4436C15.2286 49.5558 15.0223 49.4704 14.8703 49.3183C14.7182 49.1663 14.6328 48.9601 14.6328 48.745C14.6328 48.53 14.7182 48.3237 14.8703 48.1717C15.0223 48.0196 15.2286 47.9342 15.4436 47.9342H27.6058C27.8208 47.9342 28.0271 48.0196 28.1791 48.1717C28.3312 48.3237 28.4166 48.53 28.4166 48.745C28.4166 48.9601 28.3312 49.1663 28.1791 49.3183C28.0271 49.4704 27.8208 49.5558 27.6058 49.5558Z" fill="#494949"/>
</g>
<defs>
<clipPath id="clip0_59_927">
<rect width="60" height="60" fill="white"/>
</clipPath>
</defs>
</svg>
