<svg width="512" height="512" viewBox="0 0 512 512" fill="none" xmlns="http://www.w3.org/2000/svg">
<g clip-path="url(#clip0_3760_574)">
<circle cx="256" cy="512" r="200" fill="#FFE785"/>
<path d="M510.871 497.387L427.226 336.375L442.414 323.668C444.687 321.766 446 318.957 446 315.996V74.5C446 33.4219 412.578 0 371.5 0H140.5C99.4214 0 65.9995 33.4219 65.9995 74.5V109C65.9995 114.52 70.48 119 75.9995 119C81.523 119 85.9995 114.52 85.9995 109V74.5C85.9995 44.4492 110.449 20 140.5 20H371.5C401.55 20 426 44.4492 426 74.5V311.324L347.515 376.996H319V362.496C319 356.977 314.523 352.496 309 352.496C303.476 352.496 299 356.977 299 362.496V376.996H268.625V362.496C268.625 356.977 264.148 352.496 258.628 352.496C253.105 352.496 248.628 356.977 248.628 362.496V376.996H218.253V362.496C218.253 356.977 213.777 352.496 208.253 352.496C202.734 352.496 198.253 356.977 198.253 362.496V376.996H164.484L85.9995 311.324V203C85.9995 197.477 81.523 193 75.9995 193C70.48 193 65.9995 197.477 65.9995 203V316C65.9995 318.961 67.312 321.77 69.5855 323.668L84.773 336.375L1.12845 497.387C-1.41843 502.285 0.491732 508.324 5.39017 510.871C6.86673 511.637 8.44095 511.996 9.99173 511.996C13.605 511.996 17.0972 510.035 18.8745 506.605L100.48 349.52L114.3 361.082L61.6636 498.418C59.687 503.574 62.2652 509.355 67.4214 511.336C68.6011 511.785 69.8081 512 70.9995 512C75.0191 512 78.812 509.555 80.3394 505.574L90.9097 477.996H345C350.519 477.996 355 473.52 355 467.996C355 462.473 350.519 457.996 345 457.996H98.5738L106.277 437.902C106.703 437.957 107.128 437.996 107.57 437.996H404.082C404.636 437.996 405.175 437.941 405.703 437.855L431.66 505.574C433.187 509.555 436.976 512 441 512C442.191 512 443.398 511.785 444.578 511.336C449.734 509.355 452.312 503.574 450.335 498.418L397.699 361.082L411.519 349.52L493.125 506.605C494.906 510.035 498.394 511.996 502.007 511.996C503.558 511.996 505.136 511.637 506.609 510.871C511.507 508.324 513.418 502.289 510.871 497.387V497.387ZM398.093 417.996H113.906L130.519 374.652L154.437 394.668C156.234 396.172 158.507 396.996 160.855 396.996H351.148C353.496 396.996 355.765 396.172 357.562 394.668L381.48 374.652L398.093 417.996Z" fill="#494949"/>
<path d="M386 457.996C383.367 457.996 380.789 459.066 378.929 460.926C377.07 462.789 376 465.367 376 467.996C376 470.629 377.066 473.207 378.929 475.066C380.789 476.926 383.367 477.996 386 477.996C388.628 477.996 391.207 476.926 393.066 475.066C394.929 473.207 396 470.629 396 467.996C396 465.367 394.929 462.789 393.066 460.926C391.207 459.066 388.628 457.996 386 457.996Z" fill="#494949"/>
<path d="M398 102C398 85.457 384.542 72 368 72H144C127.46 72 114 85.457 114 102V190C114 206.543 127.46 220 144 220H368C384.542 220 398 206.543 398 190V102ZM134 190V102C134 96.4844 138.488 92 144 92H246V200H144C138.488 200 134 195.512 134 190ZM378 190C378 195.512 373.511 200 368 200H266V92H368C373.511 92 378 96.4844 378 102V190Z" fill="#494949"/>
<path d="M147.667 314C166.414 314 181.667 298.746 181.667 280C181.667 261.25 166.414 246 147.667 246C128.921 246 113.667 261.25 113.667 280C113.667 298.746 128.921 314 147.667 314ZM147.667 266C155.386 266 161.667 272.277 161.667 280C161.667 287.719 155.386 294 147.667 294C139.949 294 133.667 287.719 133.667 280C133.667 272.277 139.949 266 147.667 266Z" fill="#494949"/>
<path d="M364 246C345.25 246 330 261.25 330 280C330 298.746 345.25 314 364 314C382.746 314 398 298.746 398 280C398 261.25 382.746 246 364 246ZM364 294C356.277 294 350 287.719 350 280C350 272.277 356.277 266 364 266C371.718 266 378 272.277 378 280C378 287.719 371.718 294 364 294Z" fill="#494949"/>
<path d="M309 246.125H208.253C202.734 246.125 198.253 250.602 198.253 256.125C198.253 261.648 202.734 266.125 208.253 266.125H309C314.523 266.125 319 261.648 319 256.125C319 250.602 314.523 246.125 309 246.125Z" fill="#494949"/>
<path d="M309 294H208.253C202.734 294 198.253 298.477 198.253 304C198.253 309.52 202.734 314 208.253 314H309C314.523 314 319 309.52 319 304C319 298.477 314.523 294 309 294Z" fill="#494949"/>
<path d="M75.9995 164.328C78.6323 164.328 81.2105 163.27 83.0698 161.398C84.9292 159.539 85.9995 156.969 85.9995 154.328C85.9995 151.699 84.9292 149.121 83.0698 147.262C81.2105 145.398 78.6323 144.328 75.9995 144.328C73.3706 144.328 70.7925 145.398 68.9292 147.262C67.0698 149.121 65.9995 151.699 65.9995 154.328C65.9995 156.969 67.0698 159.539 68.9292 161.398C70.7925 163.27 73.3706 164.328 75.9995 164.328Z" fill="#494949"/>
</g>
<defs>
<clipPath id="clip0_3760_574">
<rect width="512" height="512" fill="white"/>
</clipPath>
</defs>
</svg>
