<svg width="130" height="130" viewBox="0 0 130 130" fill="none" xmlns="http://www.w3.org/2000/svg">
<g clip-path="url(#clip0_4156_2694)">
<circle cx="65" cy="141.426" r="50.7812" fill="#FFE785"/>
<path d="M47.0313 45.6406H82.971C99.4432 52.4272 112.784 75.1771 112.784 96.5925C112.784 103.89 111.154 109.034 107.8 112.322C101.57 118.432 89.2256 118.19 74.9382 117.906C71.729 117.843 68.4095 117.778 65.0029 117.778C60.5904 117.778 56.358 117.929 52.2673 118.076C39.0821 118.546 27.6938 118.956 21.9456 113.412C18.7631 110.34 17.216 105.394 17.216 98.2882C17.216 74.0736 32.565 51.6467 47.0313 45.6406ZM13.2031 98.2882C13.2031 106.542 15.1509 112.432 19.1592 116.298C24.3394 121.297 32.3885 122.341 41.9661 122.341C45.2821 122.341 48.784 122.216 52.4101 122.086C56.4672 121.941 60.6613 121.791 65.0029 121.791C68.3712 121.791 71.6698 121.855 74.8592 121.919C90.0514 122.219 103.175 122.478 110.611 115.189C114.774 111.106 116.797 105.023 116.797 96.5925C116.797 76.471 104.298 49.7906 84.1035 41.7659C83.8677 41.673 83.6156 41.6265 83.3624 41.6265H46.6387C46.3844 41.6265 46.1334 41.673 45.8976 41.7659C26.3406 49.5385 13.2031 77.2665 13.2031 98.2882" fill="#494949"/>
<path d="M57.7185 65.999C62.3875 63.5139 67.745 62.9953 72.8043 64.5402C81.2017 67.1038 86.8382 74.7191 86.8301 83.49C86.829 84.6801 87.793 85.6461 88.9834 85.6473C88.9839 85.6473 88.9845 85.6473 88.9854 85.6473C90.1746 85.6473 91.1395 84.6836 91.1406 83.494C91.1452 78.4334 89.4991 73.3824 86.5057 69.2714C83.4092 65.0192 79.1065 61.9575 74.0625 60.4174C61.3457 56.5356 47.8422 63.7228 43.9607 76.439C42.0801 82.5993 42.7111 89.1228 45.7375 94.8084C48.7636 100.494 53.8223 104.661 59.9823 106.541C62.2847 107.244 64.6577 107.593 67.0264 107.593C70.3948 107.593 73.7519 106.887 76.8728 105.489C82.1358 103.131 86.381 98.9732 88.8268 93.7815C89.3342 92.7049 88.8725 91.4205 87.7958 90.9134C86.7192 90.4057 85.4349 90.8677 84.9277 91.9443C80.7707 100.769 70.5884 105.273 61.2414 102.419C56.1824 100.874 52.028 97.4524 49.5426 92.7833C47.0575 88.1143 46.5392 82.7565 48.0838 77.6975C49.6273 72.6388 53.0497 68.4841 57.7185 65.999Z" fill="#494949"/>
<path d="M87.2552 11.6244C86.8011 18.9881 83.9798 28.7679 79.6173 33.9713H49.9647C45.6022 28.7679 42.7809 18.9881 42.3279 11.6244H87.2552ZM49.0634 37.99H80.5198C81.0761 37.99 81.6058 37.7577 81.9856 37.3512C87.836 31.1024 91.3332 18.3377 91.3332 9.61501C91.3332 8.5116 90.4342 7.61724 89.3262 7.61724H40.257C39.149 7.61724 38.25 8.5116 38.25 9.61501C38.25 18.3377 41.746 31.1024 47.5987 37.3512C47.9774 37.7577 48.5082 37.99 49.0634 37.99" fill="#494949"/>
<path d="M76.5521 75.9786H74.8826C74.5429 75.06 74.0664 74.1911 73.4672 73.3977H76.5521C77.1681 73.3977 77.759 73.1681 78.1946 72.7593C78.6303 72.3505 78.875 71.796 78.875 71.2179C78.875 70.6398 78.6303 70.0854 78.1946 69.6766C77.759 69.2678 77.1681 69.0381 76.5521 69.0381H64.7438C64.6586 69.0381 64.5765 69.0265 64.4898 69.0265H58.3464C57.7303 69.0265 57.1394 69.2561 56.7038 69.6649C56.2682 70.0737 56.0234 70.6282 56.0234 71.2063C56.0234 71.7844 56.2682 72.3389 56.7038 72.7477C57.1394 73.1565 57.7303 73.3861 58.3464 73.3861H64.4898C65.5218 73.3862 66.5383 73.6223 67.4512 74.074C68.3641 74.5258 69.1458 75.1795 69.7288 75.9786L58.4424 75.9786C57.8263 75.9786 57.2355 76.2083 56.7998 76.6171C56.3642 77.0259 56.1195 77.5803 56.1195 78.1584C56.1195 78.7366 56.3642 79.291 56.7998 79.6998C57.2355 80.1086 57.8263 80.3383 58.4424 80.3383H70.7462C70.4999 81.7294 69.7363 82.9936 68.5909 83.9067C67.4456 84.8197 65.9926 85.3224 64.4898 85.3257H58.3464C57.8923 85.3258 57.4482 85.4509 57.0691 85.6853C56.6899 85.9198 56.3923 86.2534 56.213 86.6449C56.0337 87.0364 55.9807 87.4686 56.0604 87.8881C56.1401 88.3076 56.3491 88.696 56.6615 89.0052L69.2209 101.43C69.4286 101.646 69.6802 101.82 69.9608 101.943C70.2413 102.066 70.5453 102.135 70.8547 102.146C71.1641 102.157 71.4727 102.11 71.7624 102.007C72.0522 101.905 72.3171 101.749 72.5418 101.549C72.7664 101.349 72.9462 101.109 73.0706 100.843C73.1949 100.577 73.2613 100.29 73.2659 99.9995C73.2704 99.709 73.213 99.4205 73.0971 99.1511C72.9811 98.8817 72.8089 98.6368 72.5907 98.4307L63.7511 89.6853H64.4898C67.2269 89.6821 69.8647 88.7233 71.89 86.9955C73.9152 85.2678 75.1829 82.8948 75.4463 80.3383H76.5521C77.1681 80.3383 77.759 80.1086 78.1946 79.6998C78.6303 79.291 78.875 78.7366 78.875 78.1584C78.875 77.5803 78.6303 77.0259 78.1946 76.6171C77.759 76.2083 77.1681 75.9786 76.5521 75.9786V75.9786Z" fill="#494949"/>
</g>
<defs>
<clipPath id="clip0_4156_2694">
<rect width="130" height="130" fill="white"/>
</clipPath>
</defs>
</svg>
