<svg xmlns="http://www.w3.org/2000/svg" viewBox="0 0 18.93 13.97"><defs><style>.cls-1{fill:#ffda66;}.cls-2{fill:#494949;}</style></defs><g id="Layer_2" data-name="Layer 2"><g id="Layer_1-2" data-name="Layer 1"><path class="cls-1" d="M.66,13.6A7.19,7.19,0,0,1,15,13.6"/><path class="cls-2" d="M14.51,14H1.3A1.3,1.3,0,0,1,0,12.67V4.53a1.3,1.3,0,0,1,1.3-1.3H11.39a.38.38,0,0,1,.37.38.37.37,0,0,1-.37.37H1.3a.55.55,0,0,0-.55.55v8.14a.55.55,0,0,0,.55.55H14.51a.55.55,0,0,0,.55-.55V7.58a.37.37,0,0,1,.37-.38.38.38,0,0,1,.38.38v5.09A1.3,1.3,0,0,1,14.51,14Z"/><path class="cls-2" d="M2.38,3.9A.38.38,0,0,1,2,3.52v-1a1.3,1.3,0,0,1,1.3-1.3h8.93a.38.38,0,0,1,.38.38.37.37,0,0,1-.38.37H3.3a.55.55,0,0,0-.55.55v1A.38.38,0,0,1,2.38,3.9Z"/><path class="cls-2" d="M16.51,12h-.92a.38.38,0,1,1,0-.75h.92a.55.55,0,0,0,.55-.55v-4a.37.37,0,0,1,.37-.37.38.38,0,0,1,.38.37v4A1.3,1.3,0,0,1,16.51,12Z"/><path class="cls-2" d="M9.68,8H6.17a.38.38,0,1,1,0-.75H9.68a.38.38,0,0,1,0,.75Z"/><path class="cls-2" d="M9.64,6.82H6.13a.37.37,0,0,1-.38-.37.38.38,0,0,1,.38-.38H9.64a.37.37,0,0,1,.37.38A.36.36,0,0,1,9.64,6.82Z"/><path class="cls-2" d="M8.2,11.13A.37.37,0,0,1,7.89,11L6.81,9.31a.42.42,0,0,1,0-.29.36.36,0,0,1,.17-.23l.24-.16a1.3,1.3,0,0,0,.65-1.92.39.39,0,0,1,0-.18.4.4,0,0,1,.39-.39.38.38,0,0,1,.36.3,2,2,0,0,1-.88,2.78l.87,1.33a.38.38,0,0,1-.11.52A.42.42,0,0,1,8.2,11.13Z"/><path class="cls-2" d="M15,7.79a3.9,3.9,0,1,1,3.89-3.9A3.9,3.9,0,0,1,15,7.79Zm0-7a3.15,3.15,0,1,0,3.14,3.14A3.15,3.15,0,0,0,15,.75Z"/><path class="cls-2" d="M13.68,5.63a.4.4,0,0,1-.27-.11.39.39,0,0,1,0-.53l2.73-2.72a.37.37,0,0,1,.53,0,.39.39,0,0,1,0,.53L13.94,5.52A.38.38,0,0,1,13.68,5.63Z"/><path class="cls-2" d="M16.4,5.63a.38.38,0,0,1-.26-.11L13.41,2.8a.39.39,0,0,1,0-.53.37.37,0,0,1,.53,0L16.67,5a.38.38,0,0,1-.27.64Z"/></g></g></svg>