<svg width="188" height="188" viewBox="0 0 188 188" fill="none" xmlns="http://www.w3.org/2000/svg">
<g clip-path="url(#clip0_4262_2561)">
<circle cx="94" cy="204.523" r="73.4375" fill="#FFE785"/>
<path fill-rule="evenodd" clip-rule="evenodd" d="M47.1648 10.2812C46.4754 10.2812 45.8258 10.5862 45.3788 11.098L10.8682 50.7639C10.4901 51.2005 10.2812 51.7436 10.2812 52.3222V174.846C10.2812 176.164 11.3361 177.229 12.6542 177.219H81.6857C83.0331 177.282 84.1674 176.204 84.1674 174.856C84.1674 173.507 83.0331 172.431 81.6857 172.483H15.0168V54.6827H51.3446C52.6481 54.6722 53.6925 53.6278 53.703 52.3222V25.1876C53.7134 23.859 52.6356 22.7812 51.3091 22.7937C50.0036 22.8041 48.9591 23.882 48.9696 25.1876V49.9492H17.843L48.2405 15.0126H128.393V66.7669C128.383 68.0954 129.448 69.1733 130.775 69.1733C132.091 69.1733 133.166 68.0954 133.148 66.7669V12.6668C133.148 11.3487 132.08 10.2812 130.775 10.2812H47.1648Z" fill="#494949"/>
<path d="M33.0533 95.6646C29.897 95.6646 30.1247 100.4 33.281 100.4H65.8217C69.1055 100.4 69.1055 95.6458 65.8217 95.6646C55.7679 95.7315 42.0815 95.6646 33.0533 95.6646Z" fill="#494949"/>
<path d="M33.0533 116.836C29.897 116.836 30.1247 121.569 33.281 121.569H65.8217C69.1055 121.569 69.1055 116.815 65.8217 116.836C55.7679 116.89 42.0815 116.836 33.0533 116.836Z" fill="#494949"/>
<path d="M33.0533 138.006C29.897 138.006 30.1247 142.742 33.281 142.742H65.8217C69.1055 142.742 69.1055 137.988 65.8217 138.006C55.7679 138.073 42.0815 138.006 33.0533 138.006Z" fill="#494949"/>
<path d="M33.0533 74.4937C29.897 74.4937 30.1247 79.2251 33.281 79.2251H76.4396C79.7275 79.2251 79.7275 74.4708 76.4396 74.4937C66.3774 74.546 42.0815 74.4937 33.0533 74.4937V74.4937Z" fill="#494949"/>
<g clip-path="url(#clip1_4262_2561)">
<path d="M127.047 184.695C96.6764 184.695 71.9688 159.988 71.9688 129.617C71.9688 99.2467 96.6764 74.5391 127.047 74.5391C157.417 74.5391 182.125 99.2467 182.125 129.617C182.125 159.988 157.417 184.695 127.047 184.695ZM127.047 82.4071C101.016 82.4071 79.8368 103.586 79.8368 129.617C79.8368 155.649 101.016 176.827 127.047 176.827C153.078 176.827 174.257 155.649 174.257 129.617C174.257 103.586 153.078 82.4071 127.047 82.4071Z" fill="#494949"/>
<path d="M146.717 153.222C145.71 153.222 144.704 152.838 143.935 152.069L104.594 112.728C103.057 111.191 103.057 108.702 104.594 107.165C106.131 105.629 108.621 105.628 110.157 107.165L149.498 146.506C151.035 148.044 151.035 150.533 149.498 152.069C148.73 152.838 147.724 153.222 146.717 153.222V153.222Z" fill="#494949"/>
<path d="M107.375 153.222C106.368 153.222 105.362 152.838 104.594 152.069C103.057 150.533 103.057 148.043 104.594 146.506L143.935 107.165C145.473 105.628 147.962 105.628 149.498 107.165C151.034 108.702 151.035 111.192 149.498 112.728L110.157 152.069C109.389 152.838 108.382 153.222 107.375 153.222V153.222Z" fill="#494949"/>
</g>
</g>
<defs>
<clipPath id="clip0_4262_2561">
<rect width="188" height="188" fill="white"/>
</clipPath>
<clipPath id="clip1_4262_2561">
<rect width="110.156" height="110.156" fill="white" transform="translate(71.9688 74.5391)"/>
</clipPath>
</defs>
</svg>
