<?xml version="1.0" encoding="utf-8"?>
<!-- Generator: Adobe Illustrator 26.1.0, SVG Export Plug-In . SVG Version: 6.00 Build 0)  -->
<svg version="1.1" id="Layer_1" xmlns="http://www.w3.org/2000/svg" xmlns:xlink="http://www.w3.org/1999/xlink" x="0px" y="0px"
	 viewBox="0 0 100 100" style="enable-background:new 0 0 100 100;" xml:space="preserve">
<style type="text/css">
	.st0{display:none;}
	.st1{fill:#FFDA66;}
	.st2{fill:#494949;}
	.st3{fill:none;stroke:#494949;stroke-width:2.75;stroke-miterlimit:10;}
	.st4{fill:none;stroke:#494949;stroke-width:2.75;stroke-linecap:round;stroke-miterlimit:10;}
</style>
<path class="st0" d="M5.05,50.03c0-2.22,0-4.43,0-6.65c0-1.67,0.42-2.09,2.08-2.09c5.83,0,11.65,0,17.48,0c0.33,0,0.66,0,1.04,0
	c0.24-0.96,0.47-1.89,0.72-2.9c-3.38,0-6.67,0.01-9.96-0.01c-0.54,0-1.09-0.03-1.61-0.15c-2.29-0.51-3.93-2.46-3.94-4.79
	c-0.03-6.37-0.04-12.74,0-19.12c0.02-2.8,2.3-4.93,5.2-4.93c11.99-0.01,23.97,0,35.96,0c0.06,0,0.12,0,0.18,0
	c2.8,0.07,5,2.22,5.02,5.03c0.03,6.31,0.03,12.62,0,18.94c-0.01,2.8-2.22,4.99-5.02,5.02c-3.14,0.03-6.28,0.01-9.42,0.01
	c-0.33,0-0.66,0-1.07,0c0.24,0.99,0.46,1.9,0.69,2.85c8.79,0,17.55,0,26.42,0c0-0.35,0-0.67,0-0.99c0-5.74,0-11.48,0-17.21
	c0-1.61,0.43-2.04,2.03-2.04c5.43,0,10.87,0,16.3,0c1.48,0,1.95,0.47,1.95,1.94c0,6.07,0,12.14,0,18.35c1.28,0,2.53,0,3.78,0
	c1.55,0,2.01,0.45,2.01,1.97c0,2.24,0,4.48,0,6.73 M54.34,31.12c0-0.29,0-0.58,0-0.86c0-5.13,0-10.26,0-15.4
	c0-1.76-0.83-2.57-2.63-2.57c-11.77,0-23.54,0-35.31,0c-1.84,0-2.64,0.8-2.64,2.65c0,5.1,0,10.2,0,15.31c0,0.29,0,0.57,0,0.87
	C27.33,31.12,40.76,31.12,54.34,31.12z M57.2,50.05c-15,0-29.92,0-44.82,0c0,2.91,0,5.76,0,8.59c14.97,0,29.88,0,44.82,0
	C57.2,55.77,57.2,52.94,57.2,50.05z M91.99,44.25c-28.05,0-56.02,0-83.99,0c0,0.96,0,1.85,0,2.79c28.01,0,55.98,0,83.99,0
	C91.99,46.1,91.99,45.2,91.99,44.25z M87.61,58.65c0-2.92,0-5.76,0-8.59c-7.74,0-15.42,0-23.08,0c0,2.9,0,5.72,0,8.59
	C72.23,58.65,79.89,58.65,87.61,58.65z M64.55,61.63c0,2.92,0,5.77,0,8.59c7.74,0,15.42,0,23.08,0c0-2.9,0-5.72,0-8.59
	C79.92,61.63,72.27,61.63,64.55,61.63z M64.53,81.82c7.75,0,15.42,0,23.08,0c0-2.91,0-5.76,0-8.59c-7.73,0-15.38,0-23.08,0
	C64.53,76.1,64.53,78.93,64.53,81.82z M77.47,41.25c0-5.81,0-11.56,0-17.28c-1.94,0-3.82,0-5.69,0c0,5.8,0,11.52,0,17.28
	C73.68,41.25,75.54,41.25,77.47,41.25z M80.47,41.24c1.96,0,3.82,0,5.7,0c0-5.8,0-11.54,0-17.28c-1.94,0-3.82,0-5.7,0
	C80.47,29.75,80.47,35.47,80.47,41.24z M13.89,34.06c0.57,1.16,1.43,1.44,2.51,1.44c11.77-0.01,23.54-0.01,35.31-0.01
	c0.24,0,0.49,0.02,0.72-0.02c0.81-0.14,1.41-0.54,1.72-1.41C40.71,34.06,27.37,34.06,13.89,34.06z M38.71,38.42
	c-3.13,0-6.2,0-9.33,0c-0.23,0.94-0.46,1.86-0.7,2.83c3.61,0,7.13,0,10.74,0C39.17,40.28,38.94,39.36,38.71,38.42z"/>
<g>
	<path class="st1" d="M86.17,76.54H13.83c-5.53,0-10.02-4.49-10.02-10.02V33.48c0-5.53,4.49-10.02,10.02-10.02h72.34
		c5.53,0,10.02,4.49,10.02,10.02v33.05C96.19,72.06,91.7,76.54,86.17,76.54z"/>
	<path class="st2" d="M81.32,59.18c0.02,0.83-0.57,1.39-1.52,1.4c-2.49,0.01-4.98,0.01-7.47-0.01c-0.92,0-1.49-0.53-1.51-1.32
		c-0.02-0.83,0.57-1.39,1.52-1.4c1.26-0.01,2.52,0,3.78,0c1.23,0,2.47-0.01,3.7,0C80.73,57.86,81.3,58.38,81.32,59.18z"/>
	<path class="st2" d="M80.2,67.32c-1.23-0.01-2.46,0-3.69,0c-1.26,0-2.51-0.01-3.77,0c-0.91,0.01-1.48,0.5-1.5,1.26
		c-0.02,0.78,0.57,1.31,1.52,1.32c2.49,0.01,4.97,0.01,7.46,0c0.91-0.01,1.48-0.51,1.5-1.26C81.74,67.85,81.15,67.33,80.2,67.32z
		 M80.2,67.32c-1.23-0.01-2.46,0-3.69,0c-1.26,0-2.51-0.01-3.77,0c-0.91,0.01-1.48,0.5-1.5,1.26c-0.02,0.78,0.57,1.31,1.52,1.32
		c2.49,0.01,4.97,0.01,7.46,0c0.91-0.01,1.48-0.51,1.5-1.26C81.74,67.85,81.15,67.33,80.2,67.32z M64.29,53.72v28.57
		c0,0.55,0.45,1,1,1h22.39c0.55,0,1-0.45,1-1V53.72H64.29z M86.93,80.81c0,0.49-0.42,0.89-0.94,0.89H66.94
		c-0.52,0-0.94-0.4-0.94-0.89v-5.7c0-0.5,0.42-0.9,0.94-0.9h19.05c0.52,0,0.94,0.4,0.94,0.9V80.81z M86.93,71.51
		c0,0.5-0.42,0.91-0.94,0.91H66.98c-0.52,0-0.94-0.41-0.94-0.91v-5.83c0-0.5,0.42-0.91,0.94-0.91h19.01c0.52,0,0.94,0.41,0.94,0.91
		V71.51z M86.93,62.31c0,0.53-0.42,0.96-0.94,0.96H66.94c-0.52,0-0.94-0.43-0.94-0.96v-6.16c0-0.53,0.42-0.96,0.94-0.96h19.05
		c0.52,0,0.94,0.43,0.94,0.96V62.31z M80.21,76.7c-2.49-0.01-4.98-0.01-7.47,0c-0.92,0.01-1.49,0.49-1.51,1.23
		c-0.03,0.76,0.57,1.29,1.51,1.3c1.24,0.01,2.47,0,3.7,0c1.26,0,2.52,0.01,3.78,0c0.92-0.01,1.49-0.49,1.51-1.23
		C81.76,77.23,81.16,76.71,80.21,76.7z M80.2,67.32c-1.23-0.01-2.46,0-3.69,0c-1.26,0-2.51-0.01-3.77,0
		c-0.91,0.01-1.48,0.5-1.5,1.26c-0.02,0.78,0.57,1.31,1.52,1.32c2.49,0.01,4.97,0.01,7.46,0c0.91-0.01,1.48-0.51,1.5-1.26
		C81.74,67.85,81.15,67.33,80.2,67.32z"/>
	<path class="st2" d="M39.68,58.33c0,0.7-0.64,1.15-1.66,1.16c-1.32,0.01-2.64,0-3.95,0c-1.32,0-2.63,0.01-3.95,0
		c-1.03-0.01-1.66-0.46-1.66-1.16c0-0.7,0.62-1.15,1.66-1.15c2.63-0.01,5.26-0.01,7.89,0C39.05,57.18,39.68,57.63,39.68,58.33z"/>
	<path class="st2" d="M53.15,53.41H16.42c-2.72,0-4.93,2.21-4.93,4.93c0,2.72,2.21,4.93,4.93,4.93h36.73c1.37,0,2.6-0.55,3.49-1.45
		c0.89-0.89,1.44-2.12,1.44-3.48C58.08,55.62,55.88,53.41,53.15,53.41z M52.67,61.77H16.9c-2.11,0-3.82-1.54-3.82-3.43
		c0-0.94,0.43-1.8,1.12-2.42s1.64-1.01,2.7-1.01h35.77c2.11,0,3.82,1.54,3.82,3.43C56.49,60.23,54.78,61.77,52.67,61.77z"/>
	<path class="st3" d="M93.89,52.34H6.11v-5.35c0-1.1,0.9-2,2-2h83.79c1.1,0,2,0.9,2,2V52.34z"/>
	<path class="st3" d="M51.28,39.43H17.34c-2.74,0-4.97-2.23-4.97-4.97V18.22c0-2.74,2.23-4.97,4.97-4.97h33.94
		c2.74,0,4.97,2.23,4.97,4.97v16.25C56.25,37.21,54.02,39.43,51.28,39.43z"/>
	<line class="st3" x1="12.38" y1="34.46" x2="56.25" y2="34.46"/>
	<path class="st3" d="M87.63,44.99H70.29V27.38c0-1.66,1.34-3,3-3h11.34c1.66,0,3,1.34,3,3V44.99z"/>
	<line class="st3" x1="78.96" y1="24.38" x2="78.96" y2="44.99"/>
	<line class="st3" x1="28" y1="40.44" x2="26.79" y2="45.2"/>
	<line class="st3" x1="39.99" y1="40.44" x2="41.2" y2="45.2"/>
	<polyline class="st4" points="8,86.75 8,52.34 60.87,52.34 60.87,86.75 	"/>
	<polyline class="st4" points="62.4,52.34 91.99,52.34 91.99,86.75 	"/>
</g>
</svg>
