<svg width="45" height="45" viewBox="0 0 45 45" fill="none" xmlns="http://www.w3.org/2000/svg">
<g clip-path="url(#clip0_3822_391)">
<path d="M40.0781 48.9551C40.0781 58.6632 32.2081 66.5332 22.5 66.5332C12.7919 66.5332 4.92188 58.6632 4.92188 48.9551C4.92188 39.2469 12.7919 31.377 22.5 31.377C32.2081 31.377 40.0781 39.2469 40.0781 48.9551Z" fill="#FFE785"/>
<path d="M38.397 33.9865C38.0341 32.6675 38.1613 30.9579 36.4007 29.6212C35.395 28.8595 35.085 28.9121 29.3156 27.2625L27.5273 26.0903V24.9975C30.7898 23.2817 32.3577 20.2396 32.3577 17.2561V17.1344C34.5848 16.7353 35.6722 14.5628 34.4311 12.9365C34.4318 12.9266 34.4675 10.4926 34.3548 9.46965C33.2148 0.154231 21.1329 -3.25856 14.9988 3.66809C14.7513 3.94196 14.7795 4.35856 15.062 4.5985C15.3447 4.83844 15.7744 4.81102 16.022 4.53724C21.0779 -1.12581 30.6951 1.10345 32.7235 8.23919L32.7346 8.27874C33.1929 9.92 33.0436 11.0621 33.073 11.9292C32.6701 11.7683 32.2224 11.6751 31.7504 11.6663C31.2626 11.4075 30.8479 10.9595 30.6258 10.3689C30.5118 10.0439 30.4683 9.87817 30.4341 9.33202C30.4206 8.81636 30.1775 8.33033 29.7672 7.99845C28.3476 6.85034 27.1312 8.60991 19.4337 7.73557L18.4085 7.59741C17.302 7.43042 16.278 8.23558 16.2486 9.33799C16.2329 9.65642 16.2144 9.85075 16.1134 10.2048C15.8901 10.9293 15.4481 11.295 15.4793 11.2635C15.3058 11.433 15.1151 11.5699 14.9327 11.6663C14.4605 11.6751 14.0126 11.7682 13.6096 11.9293C13.6126 10.0038 13.6206 8.74693 14.4255 6.96811C14.5763 6.63466 14.4198 6.24574 14.0757 6.09949C13.7317 5.95333 13.3305 6.10503 13.1796 6.43857C12.6322 7.64865 12.3199 8.94143 12.26 10.2883C12.26 10.2971 12.2384 12.759 12.2517 12.9367C11.0061 14.5688 12.1041 16.7367 14.3254 17.1346C14.3676 22.8931 19.0465 24.91 19.1159 24.9768C19.1218 24.9799 19.1279 24.983 19.1338 24.9862V26.1006L17.3731 27.2546C12.0875 28.7658 11.6271 28.8946 11.5646 28.9172C10.0841 29.4523 8.96169 30.595 8.62339 32.2381C6.5524 42.3221 6.64017 41.8884 6.63518 41.9224C6.37495 43.7046 7.34607 44.9999 9.39303 44.9999H16.6399C17.0156 44.9999 17.3201 44.7048 17.3201 44.3405C17.3201 43.9763 17.0156 43.6812 16.6399 43.6812H14.1889V37.4668C14.1889 37.1026 13.8845 36.8075 13.5087 36.8075C13.133 36.8075 12.8285 37.1026 12.8285 37.4668V43.6813H9.39294C8.2917 43.6813 7.82899 43.2136 7.97988 42.1245C10.1318 31.9822 9.83452 31.93 10.723 30.9953C11.0767 30.6229 11.531 30.3403 12.019 30.1603C16.9998 28.7362 17.2155 28.6746 17.2181 28.6738C17.2195 28.6734 17.2226 28.6725 17.2291 28.6706C18.5403 32.2048 18.452 32.0548 18.5803 32.2727C18.9323 32.8708 19.7383 33.1592 20.4959 32.7346C20.6811 32.6635 22.2842 32.0475 22.5197 31.957V37.4666C22.5197 37.8308 22.8242 38.126 23.1999 38.126C23.5757 38.126 23.8802 37.8308 23.8802 37.4666V31.9272C26.8289 32.9658 25.9878 32.658 26.3348 32.8156C27.0469 33.139 27.9241 32.8097 28.2008 32.0579L29.4464 28.6746C35.4453 30.3898 33.8998 29.955 34.1595 30.0221C34.2144 30.0539 36.2668 30.374 36.7034 32.4955L37.0626 34.244C37.136 34.6011 37.4941 34.8331 37.8625 34.7619C38.2311 34.6908 38.4702 34.3436 38.397 33.9865ZM32.3577 13.0778C33.9995 13.5512 33.9985 15.3086 32.3577 15.7818V13.0778ZM14.3257 15.7819C12.6837 15.3087 12.6839 13.5508 14.3257 13.0777V15.7819ZM16.2205 19.9858C15.5287 18.2941 15.6862 17.3942 15.6862 12.7678C16.7674 12.1498 17.5661 10.9764 17.6093 9.3655C17.617 9.06843 17.902 8.85512 18.1988 8.9003L18.4077 8.93106C19.055 8.96121 22.4035 9.7299 28.4841 8.90039C28.6311 8.87833 28.7814 8.91849 28.8958 9.01087C29.0618 9.14525 29.0692 9.29361 29.0769 9.42158C29.1202 10.5893 29.5646 11.642 30.4548 12.3887L30.4499 12.3846C30.5757 12.4946 30.7969 12.6538 30.997 12.7677C30.997 12.79 30.9972 17.1747 30.9972 17.2562C30.9972 22.5751 25.2302 26.4518 19.8283 23.8507C19.8254 23.8493 19.8213 23.8473 19.8173 23.8455C19.8172 23.8454 19.8172 23.8454 19.8171 23.8454C18.2316 23.0469 16.9156 21.6923 16.2205 19.9858ZM19.7679 31.6207C19.7485 31.6189 19.8142 31.7508 18.4729 28.1256L19.6632 27.3455L22.1388 30.685C19.8026 31.5916 19.9004 31.5255 19.7679 31.6207ZM23.2214 29.8855L20.4945 26.207V25.5485C21.9806 26.0248 23.1929 25.9868 23.2757 25.9942V25.9885C23.2798 25.9885 23.2839 25.9888 23.2881 25.9888L23.2882 25.9943C24.5506 25.9733 25.2824 25.8372 26.1669 25.5557V26.214L23.2214 29.8855ZM26.9181 31.6181C26.9028 31.6315 26.8779 31.5797 26.733 31.5287C26.5468 31.4631 24.5973 30.7769 24.3108 30.676L26.9935 27.3322L28.2039 28.1256L26.9181 31.6181Z" fill="#494949"/>
<path d="M36.6212 30.3308C36.3298 29.998 35.8792 30.0249 35.6121 30.3424L34.6863 31.4426L34.4322 31.1328C34.1542 30.7938 33.7021 30.7959 33.4233 31.1063C33.1389 31.423 33.1287 31.9504 33.4005 32.2819L34.1639 33.2126C34.4394 33.5485 34.9043 33.5589 35.1893 33.2202L36.6311 31.5067C36.9072 31.1785 36.9027 30.6526 36.6212 30.3308ZM36.2271 31.0452L34.7853 32.7587C34.7584 32.7905 34.7206 32.8103 34.6788 32.8103C34.6389 32.81 34.6003 32.7906 34.5728 32.7571L33.8094 31.8264C33.7531 31.7577 33.7552 31.6484 33.8141 31.5828C33.8732 31.5171 33.9667 31.5194 34.0232 31.5883L34.4792 32.1442C34.5886 32.2777 34.7728 32.2814 34.8856 32.1473L36.016 30.8039C36.0734 30.7358 36.1668 30.735 36.2251 30.8016C36.2833 30.8681 36.2845 30.977 36.2271 31.0452Z" fill="#494949"/>
<path d="M36.6212 34.2208C36.3398 33.8993 35.8882 33.9042 35.6121 34.2323L34.6863 35.3325L34.4322 35.0227C34.1583 34.6887 33.7068 34.6805 33.4233 34.9962C33.1389 35.3129 33.1287 35.8403 33.4005 36.1718L34.1639 37.1025C34.4425 37.4422 34.9072 37.4452 35.1893 37.1101L36.6311 35.3967C36.9071 35.0685 36.9027 34.5426 36.6212 34.2208ZM36.2271 34.9351L34.7853 36.6485C34.7265 36.7183 34.6303 36.717 34.5728 36.647L33.8094 35.7162C33.7531 35.6475 33.7552 35.5383 33.8141 35.4727C33.8731 35.4069 33.9667 35.4092 34.0232 35.4781L34.4792 36.0341C34.5863 36.1647 34.7701 36.1744 34.8856 36.0371L36.016 34.6938C36.0735 34.6256 36.167 34.625 36.2251 34.6914C36.2833 34.758 36.2845 34.8669 36.2271 34.9351Z" fill="#494949"/>
<path d="M36.6211 38.1107C36.3398 37.7892 35.8881 37.7941 35.6121 38.1222L34.6863 39.2225L34.4322 38.9127C34.1584 38.5787 33.7066 38.5705 33.4233 38.8861C33.1389 39.2029 33.1287 39.7302 33.4005 40.0617L34.1639 40.9924C34.2966 41.1543 34.4829 41.248 34.677 41.2494H34.6797C34.8702 41.2494 35.0559 41.1585 35.1893 41.0001L36.631 39.2866C36.9071 38.9584 36.9027 38.4325 36.6211 38.1107ZM36.2271 38.825L34.7853 40.5385C34.7576 40.5713 34.7192 40.5902 34.6797 40.5902C34.6395 40.5902 34.6005 40.5707 34.5728 40.5369L33.8094 39.6062C33.7531 39.5375 33.7552 39.4283 33.8141 39.3626C33.8731 39.2969 33.9667 39.2993 34.0232 39.3681L34.4792 39.9241C34.5924 40.0621 34.7774 40.0557 34.8856 39.9271L36.016 38.5838C36.0738 38.5152 36.1674 38.5155 36.2251 38.5814C36.2835 38.648 36.2843 38.7569 36.2271 38.825Z" fill="#494949"/>
<path d="M41.9923 31.4517H37.8336C37.6774 31.4517 37.5508 31.5992 37.5508 31.7812C37.5508 31.9633 37.6774 32.1108 37.8336 32.1108H41.9923C42.1486 32.1108 42.2752 31.9633 42.2752 31.7812C42.2752 31.5993 42.1486 31.4517 41.9923 31.4517Z" fill="#494949"/>
<path d="M41.9923 35.4514H37.8336C37.6774 35.4514 37.5508 35.599 37.5508 35.781C37.5508 35.963 37.6774 36.1106 37.8336 36.1106H41.9923C42.1486 36.1106 42.2752 35.963 42.2752 35.781C42.2752 35.599 42.1486 35.4514 41.9923 35.4514Z" fill="#494949"/>
<path d="M41.9923 39.4512H37.8336C37.6774 39.4512 37.5508 39.5987 37.5508 39.7808C37.5508 39.9628 37.6774 40.1103 37.8336 40.1103H41.9923C42.1486 40.1103 42.2752 39.9628 42.2752 39.7808C42.2752 39.5988 42.1486 39.4512 41.9923 39.4512Z" fill="#494949"/>
<path d="M44.7151 35.611C44.5589 35.611 44.4323 35.7586 44.4323 35.9406V43.4768C44.4323 43.9531 44.0997 44.3407 43.6909 44.3407H31.9789C31.5701 44.3407 31.2375 43.9531 31.2375 43.4768V26.4759C31.2375 25.9995 31.5701 25.612 31.9789 25.612H34.3749V25.7955V25.7986C34.3749 26.2712 34.7049 26.6556 35.1104 26.6556H35.113H35.2166V27.2427H32.4251C32.129 27.2427 31.8882 27.5234 31.8882 27.8684V43.0174C31.8882 43.3625 32.129 43.6431 32.4251 43.6431H37.1748C37.3311 43.6431 37.4577 43.4955 37.4577 43.3135C37.4577 43.1315 37.3311 42.9839 37.1748 42.9839H32.4539V27.9019H35.2166V28.421C35.2166 28.8221 35.4965 29.1483 35.8407 29.1483H39.829C40.1732 29.1483 40.4531 28.8221 40.4531 28.421V27.9019H43.2157V42.9838H38.4948C38.3386 42.9838 38.212 43.1314 38.212 43.3134C38.212 43.4954 38.3386 43.643 38.4948 43.643H43.2445C43.5407 43.643 43.7815 43.3623 43.7815 43.0173V27.8684C43.7815 27.5234 43.5406 27.2427 43.2445 27.2427H40.4532V26.6556H40.5567H40.5593C40.9648 26.6556 41.2948 26.2711 41.2948 25.7986V25.7964C41.2948 25.7961 41.2948 25.7958 41.2948 25.7955V25.612H43.6909C44.0997 25.612 44.4322 25.9996 44.4322 26.4759V34.4025C44.4323 34.5845 44.5589 34.7321 44.7151 34.7321C44.8713 34.7321 44.9979 34.5845 44.9979 34.4025V26.4759C44.9979 25.636 44.4116 24.9528 43.6909 24.9528H41.2948V24.753C41.2948 24.2804 40.9648 23.896 40.5593 23.896H39.019V23.3601C39.019 22.8858 38.6879 22.5 38.2809 22.5H37.3889C36.9819 22.5 36.6508 22.8858 36.6508 23.3601V23.8959H35.1104C34.7049 23.8959 34.375 24.2803 34.375 24.7529V24.9527H31.9789C31.2582 24.9527 30.6719 25.6359 30.6719 26.4758V43.4767C30.6719 44.3166 31.2582 44.9998 31.9789 44.9998H43.691C44.4117 44.9998 44.998 44.3166 44.998 43.4767V35.9407C44.998 35.7586 44.8714 35.611 44.7151 35.611ZM39.8874 28.421C39.8874 28.4586 39.8612 28.4891 39.829 28.4891H35.8407C35.8085 28.4891 35.7823 28.4585 35.7823 28.421V27.9019H39.8874V28.421H39.8874ZM39.8874 27.2427H39.8874H35.7823V26.6556H39.8875V27.2427H39.8874ZM37.2164 23.3601C37.2165 23.2512 37.2954 23.1592 37.3888 23.1592H38.2808C38.3743 23.1592 38.4532 23.2512 38.4532 23.3601V23.8959H37.2164V23.3601ZM34.9406 24.7529C34.9406 24.6458 35.0184 24.5552 35.1103 24.5552C35.3515 24.5552 40.3205 24.5552 40.5593 24.5552C40.6513 24.5552 40.729 24.6458 40.729 24.7529V25.7959C40.7288 25.9046 40.65 25.9963 40.5567 25.9963C40.3795 25.9963 35.2266 25.9963 35.113 25.9963C35.0195 25.9963 34.9406 25.9043 34.9406 25.7955C34.9406 25.4244 34.9406 25.1426 34.9406 24.7529Z" fill="#494949"/>
</g>
<defs>
<clipPath id="clip0_3822_391">
<rect width="45" height="45" fill="white"/>
</clipPath>
</defs>
</svg>
