<svg width="45" height="45" viewBox="0 0 45 45" fill="none" xmlns="http://www.w3.org/2000/svg">
<g clip-path="url(#clip0_3822_378)">
<path d="M40.0781 48.9551C40.0781 58.6632 32.2081 66.5332 22.5 66.5332C12.7919 66.5332 4.92188 58.6632 4.92188 48.9551C4.92188 39.2469 12.7919 31.377 22.5 31.377C32.2081 31.377 40.0781 39.2469 40.0781 48.9551Z" fill="#FFE785"/>
<path d="M42.1205 11.6264H39.4396L40.2257 3.68617C40.3032 2.90266 39.7289 2.20213 38.9453 2.12456L36.5532 1.88782C35.7231 1.80491 35.5964 3.08936 36.4261 3.17149L38.8182 3.40823C38.8939 3.41572 38.9494 3.48348 38.9419 3.55916L37.5925 17.1907H36.5282L36.1187 9.69424C36.0763 8.91708 35.393 8.30255 34.6151 8.34633L30.9702 8.54541L30.4847 5.08646C30.3764 4.31472 29.6436 3.7628 28.8721 3.87081L16.9195 5.5486L17.3339 1.36212C17.3383 1.31809 17.3787 1.2867 17.4244 1.29048L32.884 2.82079C33.7141 2.90352 33.8408 1.61925 33.0111 1.53712L17.5515 0.00681332C16.7971 -0.0680896 16.1247 0.483234 16.0503 1.23502L15.605 5.73315L7.5825 6.85927C6.83287 6.96453 6.30846 7.65878 6.41338 8.40695L6.86529 11.6265H2.96431C1.62053 11.6265 0.527344 12.7211 0.527344 14.0665V42.5602C0.527344 43.9056 1.62053 45.0001 2.96431 45.0001H7.32107C8.15498 45.0001 8.15498 43.7102 7.32107 43.7102H2.96431C2.33181 43.7102 1.81729 43.1943 1.81729 42.5602V14.0664C1.81729 13.4322 2.33181 12.9164 2.96431 12.9164H8.85619L10.5042 18.0334C10.5901 18.3 10.8381 18.4807 11.1182 18.4807H43.2676V42.56C43.2676 43.1942 42.7531 43.71 42.1206 43.71H11.1049C10.271 43.71 10.271 44.9999 11.1049 44.9999H42.1205C43.4643 44.9999 44.5575 43.9054 44.5575 42.56V14.0664C44.5575 12.721 43.4643 11.6264 42.1205 11.6264V11.6264ZM34.6856 9.6343C34.77 9.63756 34.8185 9.68099 34.8308 9.76458L35.2365 17.1907H13.4847L13.1406 10.8914C13.1432 10.8419 13.1693 10.8137 13.2191 10.8068L34.6856 9.6343ZM9.94267 12.0821C9.86072 11.8159 9.60479 11.6265 9.32608 11.6265H8.16788L7.69077 8.22774C7.68466 8.18396 7.71648 8.14312 7.7618 8.13675L16.1003 6.96625C16.1104 6.96772 16.1203 6.96978 16.1306 6.97081C16.1522 6.97296 16.1736 6.97399 16.195 6.97399C16.2892 6.97399 16.3793 6.95284 16.461 6.9156L29.0516 5.14829C29.136 5.14442 29.1879 5.18355 29.2074 5.26576L29.6778 8.61601L13.1489 9.5188C12.4022 9.55956 11.8119 10.2141 11.8527 10.9617L12.1929 17.1908H11.5881L9.94267 12.0821ZM38.8888 17.1908L39.3119 12.9164H42.1205C42.753 12.9164 43.2675 13.4323 43.2675 14.0665V17.1909H38.8888V17.1908Z" fill="#494949"/>
<path d="M34.4596 38.5445C34.8158 38.5445 35.1046 38.2557 35.1046 37.8995V32.0102C35.1046 31.654 34.8158 31.3652 34.4596 31.3652H10.6254C10.2692 31.3652 9.98047 31.654 9.98047 32.0102V37.8995C9.98047 38.2557 10.2692 38.5445 10.6254 38.5445H34.4596ZM11.2704 32.6552H33.8147V37.2545H11.2704V32.6552Z" fill="#494949"/>
<path d="M30.4267 34.3101H14.6567C13.8228 34.3101 13.8228 35.6 14.6567 35.6H30.4267C31.2607 35.6 31.2607 34.3101 30.4267 34.3101Z" fill="#494949"/>
</g>
<defs>
<clipPath id="clip0_3822_378">
<rect width="45" height="45" fill="white"/>
</clipPath>
</defs>
</svg>
