<svg width="50" height="50" viewBox="0 0 50 50" fill="none" xmlns="http://www.w3.org/2000/svg">
<g clip-path="url(#clip0_3955_508)">
<circle cx="25.0977" cy="54.3945" r="19.5312" fill="#FFE785"/>
<path d="M15.0312 14.1666C15.0312 16.0075 16.5236 17.4999 18.3646 17.4999C20.2055 17.4999 21.6979 16.0075 21.6979 14.1666C21.6979 12.3256 20.2055 10.8333 18.3646 10.8333C16.5236 10.8333 15.0312 12.3256 15.0312 14.1666ZM20.0313 14.1666C20.0313 15.0871 19.2851 15.8333 18.3646 15.8333C17.4441 15.8333 16.6979 15.0871 16.6979 14.1666C16.6979 13.2461 17.4441 12.4999 18.3646 12.4999C19.2851 12.4999 20.0313 13.2461 20.0313 14.1666Z" fill="#494949"/>
<path d="M3.59979 21.325L3.02478 21.9C2.67013 22.2561 2.49512 22.7533 2.5485 23.2531C2.60187 23.7528 2.87792 24.2018 3.29979 24.475L4.84979 25.5417C4.37755 25.699 4.00033 26.0591 3.82133 26.5235C3.64232 26.988 3.68027 27.5081 3.92479 27.9417C4.62717 28.8721 5.62713 29.5339 6.75812 29.8167C7.38555 30.0978 8.10345 30.0964 8.72975 29.8127C9.35606 29.5291 9.83063 28.9904 10.0331 28.3333L10.3415 28.6417C10.3415 30.2167 10.5831 35.5917 12.0915 38.6417C13.7581 41.9083 16.1748 45.2083 16.1748 47.4167C16.1056 48.1001 16.3388 48.7796 16.8132 49.2764C17.2876 49.7732 17.9556 50.0376 18.6415 50C19.3714 50.0857 20.0772 49.7062 20.4081 49.05C20.9998 47.7583 22.0081 48.6583 22.8498 47.5333C23.1061 47.1897 23.2087 46.7553 23.1331 46.3333C23.1445 45.5139 23.3411 44.7077 23.7081 43.975C24.6581 41.475 24.9415 40.125 23.7081 37.0167C26.5081 35.15 28.8498 32.625 33.2415 28.2417C34.0165 27.475 33.4831 26.575 34.2748 25.8083C34.5492 25.7472 34.8337 25.7472 35.1081 25.8083C35.7023 25.8265 36.2693 25.5594 36.6335 25.0896C36.9978 24.6199 37.1153 24.0042 36.9498 23.4333C36.4242 22.1645 35.6732 21.0012 34.7331 20L34.4748 19.8083L35.2415 19.15C35.2415 19.15 35.2415 19.0833 35.2415 19.0667L36.3248 19.7417C36.737 19.949 37.2168 19.9762 37.6498 19.8167L38.3831 19.45L37.9248 20.7583C37.7436 21.4979 38.0866 22.2662 38.7581 22.625L40.6498 23.8583C41.0767 24.1048 41.5908 24.1496 42.0539 23.9808C42.517 23.8119 42.8817 23.4467 43.0498 22.9833C43.4998 21.725 44.5498 18.5833 44.5498 16.6C44.5498 15.5333 45.6415 15.1083 46.2915 14.9333C47.0191 14.7415 47.5279 14.0858 47.5331 13.3333V11.8333C47.6033 11.0675 47.2916 10.3162 46.6998 9.825C45.9081 9.18333 43.9248 8.51667 41.5248 10.1083C38.8915 11.8667 39.0248 14.2333 36.9415 14.925C36.8519 14.9526 36.756 14.9526 36.6665 14.925C36.2915 14.7333 35.9831 13.3583 35.6998 12.6583C35.4946 12.1511 35.0535 11.7769 34.5196 11.6572C33.9857 11.5374 33.427 11.6874 33.0248 12.0583L31.8248 13.0917C31.3155 13.5981 31.1879 14.3738 31.5081 15.0167C31.5581 15.1083 31.5831 15.1333 31.9665 15.6667L30.9498 16.6667L29.6331 16.275C28.8598 16.0364 28.0268 16.3879 27.6581 17.1083C27.603 17.2092 27.4786 17.2495 27.3748 17.2L25.3998 16.125C25.6822 15.4099 25.84 14.6517 25.8665 13.8833C25.8154 10.4012 23.3092 7.44116 19.8831 6.81667C20.2528 6.22774 20.7014 5.69221 21.2165 5.225C21.8125 4.66843 21.9183 3.76224 21.4665 3.08333L20.6331 1.81667C20.1669 1.11648 19.252 0.873454 18.4998 1.25L16.3498 2.30833L14.5165 0.483333C14.2101 0.179432 13.7979 0.0061724 13.3665 0H10.4831C9.92717 0.00102933 9.40834 0.279198 9.09979 0.741667L8.14145 2.16667C7.89355 2.53595 7.80354 2.989 7.89145 3.425C8.05812 4.25833 8.49145 4.4 9.79979 5.3L9.69979 5.49167C9.3389 6.21544 9.54972 7.09385 10.1998 7.575L12.5915 9.325C12.0018 10.0134 11.5492 10.8082 11.2581 11.6667L8.40812 15.525L7.91645 15.2083C7.15669 14.7707 6.18774 14.9965 5.69979 15.725C5.64979 15.7917 5.63312 15.8417 4.77479 17.525C4.42293 18.0734 4.42293 18.7766 4.77479 19.325L6.19145 21.175L5.14979 20.8667C4.58865 20.7419 4.00284 20.9152 3.59979 21.325V21.325ZM24.1998 13.8833C24.1998 15.55 22.1748 19.3333 18.7915 23.9667C18.6941 24.0994 18.5394 24.1778 18.3748 24.1778C18.2102 24.1778 18.0554 24.0994 17.9581 23.9667C14.5915 19.3333 12.5331 15.5583 12.5331 13.8833C12.5702 12.3737 13.2058 10.9406 14.2998 9.89968C15.3939 8.85876 16.8568 8.29529 18.3665 8.33333C19.8761 8.29529 21.339 8.85876 22.4331 9.89968C23.5271 10.9406 24.1627 12.3737 24.1998 13.8833V13.8833ZM18.3665 28.3333C17.1777 28.3291 16.0811 27.6922 15.4885 26.6616C14.8959 25.631 14.897 24.3629 15.4915 23.3333C15.8748 23.8833 16.2581 24.4167 16.6331 24.925C17.0449 25.4807 17.6956 25.8084 18.3873 25.8084C19.0789 25.8084 19.7297 25.4807 20.1415 24.925C20.4998 24.425 20.8831 23.9 21.2581 23.3583C21.8413 24.3888 21.834 25.6514 21.239 26.6751C20.6439 27.6988 19.5505 28.33 18.3665 28.3333ZM10.7331 3.91667L9.52479 3.08333L10.4831 1.66667H13.3665L15.1998 3.49167C15.7082 3.99815 16.4837 4.12236 17.1248 3.8L19.2665 2.74167L20.0998 3.99167C19.2534 4.73763 18.5673 5.64768 18.0831 6.66667C16.548 6.71429 15.0645 7.23206 13.8331 8.15L11.1998 6.23333L11.2915 6.04167C11.6647 5.29355 11.4259 4.38471 10.7331 3.91667V3.91667ZM7.53312 22.175C7.94984 21.6088 7.96651 20.8421 7.57479 20.2583C6.02479 18.2083 6.18312 18.45 6.24145 18.3333L7.07479 16.6667L7.55812 16.9833C8.30394 17.412 9.25343 17.2026 9.74979 16.5L10.9915 14.8333C11.3915 16.7583 12.8415 19.3833 14.4748 21.875C12.8237 23.9162 13.0326 26.8867 14.953 28.6768C16.8734 30.4669 19.8512 30.4669 21.7716 28.6768C23.692 26.8867 23.9008 23.9162 22.2498 21.875C23.1742 20.4995 24.0092 19.066 24.7498 17.5833L26.5748 18.575C27.4986 19.0645 28.6442 18.7234 29.1498 17.8083L30.4831 18.2083C31.0482 18.3689 31.6561 18.2201 32.0831 17.8167L33.1915 16.85C33.7322 16.3061 33.8319 15.4634 33.4331 14.8083L33.0498 14.275L34.1998 13.3333C34.5665 14.25 34.7915 15.875 35.9498 16.4667C36.4496 16.6992 37.024 16.7113 37.5331 16.5C40.4165 15.55 40.1998 13.0417 42.5331 11.5C44.1248 10.4417 45.3165 10.7917 45.7248 11.1167C45.9498 11.3 45.8998 11.3333 45.9248 13.3583C44.0331 13.8083 42.9081 15.025 42.9081 16.625C42.9081 18.3917 41.8331 21.5167 41.4998 22.4583L39.6581 21.2583C39.5748 21.1917 39.3831 21.775 40.0081 19.9833C40.1551 19.3867 39.9619 18.7575 39.5053 18.3463C39.0487 17.935 38.4029 17.8083 37.8248 18.0167L37.1081 18.3L36.0915 17.6583C35.4718 17.349 34.7253 17.4552 34.2165 17.925L33.3831 18.6333C32.7858 19.2241 32.7215 20.167 33.2331 20.8333C34.1029 21.74 34.8204 22.7812 35.3581 23.9167C35.3525 24.0029 35.3137 24.0835 35.2498 24.1417C34.498 23.9616 33.7052 24.13 33.0915 24.6C32.4597 25.2681 32.0873 26.14 32.0415 27.0583C27.9248 31.1583 25.3748 33.8833 22.7581 35.625C22.1333 36.0475 21.8701 36.8371 22.1165 37.55C22.5628 38.5488 22.8146 39.6236 22.8581 40.7167C22.8581 42.5833 21.1915 44.6333 21.4831 46.55C20.3615 46.6121 19.3711 47.3025 18.9248 48.3333C18.0915 48.4417 17.8581 48.1583 17.8581 47.3917C17.8581 44.6083 15.2915 41.25 13.5998 37.875C12.2165 35.1083 12.0415 29.6833 12.0248 28.625C12.01 28.2011 11.8342 27.7988 11.5331 27.5L11.2248 27.1917C10.822 26.7904 10.2425 26.6221 9.68741 26.7452C9.13235 26.8684 8.67836 27.266 8.48312 27.8C8.29145 28.3 8.04979 28.525 7.28312 28.2667C6.55137 28.0941 5.88725 27.7084 5.37479 27.1583C5.98806 26.9579 6.43058 26.4216 6.51082 25.7814C6.59107 25.1412 6.29462 24.5122 5.74979 24.1667L4.19979 23.075L4.74145 22.4917L5.79145 22.8C6.44496 22.9627 7.13215 22.7161 7.53312 22.175V22.175Z" fill="#494949"/>
</g>
<defs>
<clipPath id="clip0_3955_508">
<rect width="50" height="50" fill="white"/>
</clipPath>
</defs>
</svg>
