<svg width="60" height="60" viewBox="0 0 60 60" fill="none" xmlns="http://www.w3.org/2000/svg">
<g clip-path="url(#clip0_3822_1128)">
<circle cx="30" cy="65.2734" r="23.4375" fill="#FFE785"/>
<path d="M55.1845 4.3288H47.5156C47.0302 4.3288 46.6367 4.72231 46.6367 5.2077C46.6367 5.69309 47.0302 6.08661 47.5156 6.08661H55.1845C55.6699 6.08661 56.0634 5.69309 56.0634 5.2077C56.0634 4.72231 55.67 4.3288 55.1845 4.3288Z" fill="#494949"/>
<path d="M43.1602 6.08661H44.095C44.5804 6.08661 44.9739 5.69309 44.9739 5.2077C44.9739 4.72231 44.5804 4.3288 44.095 4.3288H43.1602C42.6748 4.3288 42.2812 4.72231 42.2812 5.2077C42.2812 5.69309 42.6748 6.08661 43.1602 6.08661Z" fill="#494949"/>
<path d="M43.1602 10.2153H55.1841C55.6695 10.2153 56.063 9.82182 56.063 9.33643C56.063 8.85104 55.6695 8.45752 55.1841 8.45752H43.1602C42.6748 8.45752 42.2812 8.85104 42.2812 9.33643C42.2812 9.82182 42.6748 10.2153 43.1602 10.2153Z" fill="#494949"/>
<path d="M46.341 52.0063C46.341 48.4955 45.1689 45.0512 43.0339 42.2684L43.1968 39.2678C43.3077 37.2252 41.6868 35.4972 39.6252 35.4972H30.0043C29.5617 35.1844 29.2932 34.6764 29.2932 34.1277V31.6737C30.7849 30.709 31.8322 29.6088 32.6016 28.2996H34.3024C36.2701 28.2996 37.8709 26.6988 37.8709 24.7311V18.1672C37.8709 17.0602 37.2305 16.0815 36.2727 15.6185V11.0119C36.2727 8.9147 34.5666 7.20845 32.4694 7.20845H32.3708C32.3108 7.20845 32.2621 7.15959 32.2621 7.0997C32.2621 5.00251 30.5558 3.29626 28.4586 3.29626H19.1505C14.5302 3.29626 10.7712 7.05529 10.7712 11.6756V15.6184C9.81351 16.0814 9.17297 17.0601 9.17297 18.1671V21.5053C9.17297 23.0672 10.4436 24.3379 12.0055 24.3379H13.1401C13.4338 26.8218 14.599 29.0903 16.4241 30.6674C16.8523 31.0375 17.2951 31.3681 17.7506 31.6634V34.1276C17.7506 34.6746 17.4811 35.1828 17.0365 35.497H7.41902C5.3734 35.497 3.7357 37.2092 3.8475 39.2677L4.01039 42.2683C1.87535 45.0512 0.703242 48.4955 0.703242 52.0063V55.3167C0.26625 55.8065 0 56.4516 0 57.158C0 58.6847 1.24207 59.9267 2.76879 59.9267H44.2754C45.8021 59.9267 47.0442 58.6846 47.0442 57.158C47.0442 56.4516 46.778 55.8065 46.341 55.3169V52.0063ZM44.5832 52.0063V54.4067C44.482 54.3954 44.3795 54.3892 44.2754 54.3892H42.3761L42.8721 45.2497C43.9846 47.3159 44.5832 49.6436 44.5832 52.0063ZM36.023 17.7381C36.0807 17.8703 36.1133 18.0154 36.1133 18.1674V21.5056C36.1133 22.0982 35.6312 22.5803 35.0386 22.5803H33.9934V19.267L34.535 19.0784C35.2051 18.8449 35.7321 18.3527 36.023 17.7381ZM30.155 27.9215H27.9493C27.5938 27.9215 27.3045 27.6322 27.3045 27.2767C27.3045 26.9212 27.5938 26.6319 27.9493 26.6319H30.155C30.5106 26.6319 30.7998 26.9212 30.7998 27.2767C30.7998 27.6322 30.5106 27.9215 30.155 27.9215ZM34.3027 26.5419H33.4143C33.6618 25.8362 33.8326 25.097 33.9227 24.3381H35.0386C35.4189 24.3381 35.7817 24.2623 36.1133 24.1258V24.7314C36.1133 25.7297 35.301 26.5419 34.3027 26.5419ZM12.5292 11.6759C12.5292 8.02478 15.4997 5.05431 19.1508 5.05431H28.4589C29.5868 5.05431 30.5045 5.97201 30.5045 7.09994C30.5045 8.12919 31.3419 8.9665 32.3711 8.9665H32.4696C33.5975 8.9665 34.5151 9.88419 34.5151 11.0121V16.6328C34.5151 16.9865 34.2907 17.3022 33.9567 17.4185L32.1097 18.0618C32.0353 18.0876 31.9586 18.0339 31.9586 17.9538L31.962 14.4612C31.9726 11.9122 29.5859 9.68919 26.2418 10.7633C24.5599 11.3038 22.4786 11.3019 20.8023 10.7633C17.4929 9.69974 15.0715 11.8833 15.0821 14.4585L15.0862 17.9541C15.0862 18.0347 15.0077 18.0878 14.9351 18.0618L13.0875 17.4184C12.7535 17.3022 12.5291 16.9863 12.5291 16.6327V11.6759H12.5292ZM10.931 21.5056V18.1672C10.931 18.0154 10.9636 17.8702 11.0214 17.738C11.3123 18.3527 11.8393 18.8449 12.5096 19.0784L13.0512 19.2669V22.5802H12.0059C11.4131 22.5803 10.931 22.0981 10.931 21.5056ZM14.825 23.3229C14.7959 22.1674 14.8138 20.941 14.8089 19.8181C14.863 19.8228 14.9173 19.8254 14.9715 19.8254C16.0165 19.8254 16.8458 18.9761 16.8441 17.9515L16.84 14.4537C16.834 13.0266 18.1141 11.7456 20.2645 12.4368C22.3027 13.0916 24.7481 13.0896 26.7796 12.4368C28.8284 11.7785 30.2105 12.9374 30.2041 14.4566L30.2007 17.9517C30.1993 19.0411 31.1305 19.9139 32.2354 19.8181V23.394C32.2098 24.1537 32.0848 24.895 31.8727 25.6C31.4361 25.1528 30.8278 24.874 30.155 24.874H27.9493C26.6245 24.874 25.5466 25.9518 25.5466 27.2766C25.5466 28.6014 26.6245 29.6792 27.9493 29.6792H29.066C27.4426 30.9463 25.5966 31.607 23.5682 31.6406C19.131 31.6051 14.952 28.327 14.825 23.3229ZM19.5088 34.1278V32.59C20.7792 33.116 22.1345 33.3886 23.5658 33.3987H23.572C23.5766 33.3987 23.5812 33.3987 23.5857 33.3986C24.9792 33.3769 26.2985 33.1069 27.5358 32.5971V34.1277C27.5358 34.6076 27.6362 35.0721 27.8211 35.4972H19.2224C19.4079 35.072 19.5088 34.6074 19.5088 34.1278ZM4.17211 45.2497L4.31086 47.8069C4.33723 48.2917 4.75242 48.6645 5.23605 48.6369C5.72074 48.6107 6.09234 48.1964 6.06609 47.7117L5.60262 39.1726C5.54625 38.1339 6.37055 37.2551 7.41902 37.2551H39.6253C40.666 37.2551 41.4984 38.126 41.4417 39.1726L40.6158 54.3893H26.8336C27.0015 53.3854 27.4536 52.4411 28.1501 51.6674L28.1753 51.6393C30.8357 48.6629 30.0394 44.0087 26.6006 42.0547C25.7182 41.5534 24.5975 42.1786 24.5975 43.2179V47.2058C24.5975 47.3886 24.4488 47.5372 24.266 47.5372H22.7782C22.5954 47.5372 22.4467 47.3885 22.4467 47.2058V43.2179C22.4467 42.1806 21.3278 41.5524 20.4436 42.0547C16.995 44.0141 16.2149 48.6701 18.8716 51.6422L18.8941 51.6674C19.5906 52.441 20.0427 53.3853 20.2106 54.3892H6.42855L6.28758 51.7908C6.26133 51.3061 5.84707 50.934 5.36238 50.9608C4.8777 50.987 4.50609 51.4013 4.53234 51.886L4.66816 54.3892H2.76879C2.66473 54.3892 2.56219 54.3955 2.46105 54.4067V52.0063C2.46105 49.6437 3.05977 47.3159 4.17211 45.2497ZM21.9866 54.3892C21.8067 52.9491 21.1894 51.5896 20.2008 50.4914L20.1796 50.4676C18.4814 48.568 18.7089 45.6305 20.689 44.0104V47.2057C20.689 48.3578 21.6262 49.2949 22.7783 49.2949H24.2661C25.4182 49.2949 26.3555 48.3577 26.3555 47.2057V44.0104C28.3225 45.6197 28.5744 48.5551 26.8627 50.4701L26.8437 50.4913C25.855 51.5896 25.2376 52.9491 25.0577 54.3892H21.9866ZM44.2754 58.169H2.76879C2.21133 58.169 1.75781 57.7154 1.75781 57.1581C1.75781 56.6008 2.21133 56.1471 2.76879 56.1471H44.2754C44.8329 56.1471 45.2864 56.6006 45.2864 57.1581C45.2864 57.7156 44.8329 58.169 44.2754 58.169Z" fill="#494949"/>
<path d="M59.1209 6.01488C59.6063 6.01488 59.9998 5.62137 59.9998 5.13598V3.43488C59.9998 1.5409 58.4589 0 56.5648 0H41.7827C39.8886 0 38.3477 1.5409 38.3477 3.43488V10.828C38.3477 12.7221 39.8886 14.263 41.7827 14.263C42.1211 14.263 42.3965 14.5384 42.3965 14.8768V19.4489C42.3965 20.1093 42.824 20.6713 43.4604 20.8474C44.1006 21.0246 44.7545 20.7581 45.0921 20.1952L48.4707 14.5611C48.5809 14.3773 48.7827 14.263 48.9972 14.263H56.5649C58.459 14.263 59.9999 12.7221 59.9999 10.828V9.24504C59.9999 8.75965 59.6064 8.36613 59.121 8.36613C58.6356 8.36613 58.2421 8.75965 58.2421 9.24504V10.828C58.2421 11.7529 57.4898 12.5052 56.5649 12.5052H48.9971C48.1686 12.5052 47.3891 12.9466 46.963 13.6571L44.1542 18.3411V14.8768C44.1542 13.5691 43.0902 12.5052 41.7825 12.5052C40.8577 12.5052 40.1054 11.7529 40.1054 10.828V3.43488C40.1054 2.51016 40.8577 1.75781 41.7825 1.75781H56.5648C57.4897 1.75781 58.242 2.51016 58.242 3.43488V5.13598C58.242 5.62137 58.6355 6.01488 59.1209 6.01488Z" fill="#494949"/>
</g>
<defs>
<clipPath id="clip0_3822_1128">
<rect width="60" height="60" fill="white"/>
</clipPath>
</defs>
</svg>
