<svg width="45" height="45" viewBox="0 0 45 45" fill="none" xmlns="http://www.w3.org/2000/svg">
<g clip-path="url(#clip0_3822_487)">
<path d="M40.0781 48.9551C40.0781 58.6632 32.2081 66.5332 22.5 66.5332C12.7919 66.5332 4.92188 58.6632 4.92188 48.9551C4.92188 39.2469 12.7919 31.377 22.5 31.377C32.2081 31.377 40.0781 39.2469 40.0781 48.9551Z" fill="#FFE785"/>
<path d="M43.0113 34.61L35.9372 19.5055C35.7829 19.1758 35.3904 19.0338 35.0606 19.1881C34.7309 19.3425 34.5888 19.735 34.7432 20.0647L41.8172 35.1689C42.1336 35.8456 41.8408 36.6539 41.1644 36.9708L27.6014 43.3226C26.9251 43.6394 26.1169 43.3468 25.7999 42.6704L23.2641 37.2545L29.8641 21.3304C30.1493 20.6421 30.1333 19.8598 29.8205 19.1838L26.2103 11.3855L30.8899 12.8659C31.25 12.9796 31.5481 13.2409 31.7081 13.5833L33.4415 17.283C33.5535 17.5222 33.791 17.6627 34.0389 17.6627C34.1325 17.6627 34.2277 17.6425 34.3181 17.6003C34.6478 17.4458 34.7898 17.0532 34.6353 16.7235L32.9022 13.0245C32.5868 12.3493 31.998 11.8333 31.2872 11.6088L25.6437 9.82338C26.8072 8.12374 28.0328 5.85097 28.4545 4.83345C29.5604 2.16543 28.6678 0.681648 27.4639 0.182602C26.2599 -0.316268 24.5795 0.101127 23.4737 2.76915C22.9981 3.91666 22.5617 6.41575 22.2514 8.55968C21.882 8.58262 21.5108 8.65997 21.1492 8.79822L12.6108 12.0606C11.9278 12.3216 11.3754 12.8588 11.0953 13.5342L1.96301 35.569C1.68958 36.2287 1.6894 36.9553 1.96257 37.6151C2.23564 38.2749 2.74937 38.7888 3.40899 39.0621L6.08 40.1691C6.41636 40.3085 6.80212 40.1489 6.94142 39.8125C7.08082 39.4762 6.92121 39.0905 6.58485 38.9511L3.91384 37.844C3.57959 37.7055 3.31917 37.4451 3.18074 37.1107C3.04231 36.7763 3.0424 36.4081 3.181 36.0737L12.3136 14.0387C12.4555 13.6964 12.7355 13.4241 13.0817 13.2918L21.62 10.0295C21.7667 9.97341 21.9159 9.9328 22.0657 9.90635C21.9843 10.5255 21.9182 11.067 21.8703 11.4729C21.5908 11.4889 21.3138 11.5579 21.0525 11.6803C20.5137 11.9325 20.1055 12.3795 19.903 12.9389C19.7004 13.4983 19.7278 14.103 19.9801 14.6417C20.3583 15.4495 21.1625 15.9243 22.0005 15.9243C22.3163 15.9243 22.6371 15.8568 22.9416 15.7142C23.4803 15.4619 23.8886 15.0148 24.0912 14.4556C24.2937 13.8962 24.2663 13.2915 24.0141 12.7527C23.8262 12.3516 23.5302 12.023 23.1603 11.7976C23.2094 11.3778 23.2842 10.7588 23.3791 10.0382C23.9497 10.2606 24.4375 10.6939 24.7117 11.2864L28.6239 19.7374C28.7825 20.0799 28.7905 20.4766 28.646 20.8253L19.5195 42.8455C19.381 43.1797 19.1206 43.4402 18.7862 43.5786C18.4518 43.7171 18.0836 43.7169 17.7492 43.5784L9.59301 40.198C9.25683 40.0585 8.87099 40.2182 8.73159 40.5546C8.59228 40.891 8.7518 41.2766 9.08816 41.416L17.2444 44.7964C17.5779 44.9347 17.9239 45.0001 18.2644 45.0001C19.3138 45.0001 20.3114 44.3784 20.7374 43.3502L22.5804 38.9037L24.6058 43.2296C25.0599 44.1988 26.0252 44.7687 27.0308 44.7687C27.4099 44.7687 27.7951 44.6877 28.1605 44.5164L41.7236 38.1648C43.058 37.5395 43.6357 35.9451 43.0113 34.61ZM22.8515 14.0066C22.7689 14.2348 22.6023 14.4172 22.3824 14.5202C21.9287 14.7327 21.3866 14.5364 21.1741 14.0827C21.0712 13.8629 21.06 13.6161 21.1426 13.3879C21.2252 13.1597 21.3918 12.9774 21.6116 12.8743C21.7341 12.817 21.865 12.7881 21.9964 12.7881C22.1007 12.7881 22.2053 12.8063 22.3063 12.8429C22.5345 12.9255 22.7168 13.0921 22.8198 13.3119C22.9229 13.5318 22.9342 13.7784 22.8515 14.0066ZM24.5125 9.14214C24.217 8.95484 23.8969 8.80938 23.5623 8.70962C23.8596 6.65236 24.2673 4.29872 24.692 3.27382C24.9911 2.55197 25.8109 0.924755 26.9593 1.40051C28.1077 1.87653 27.536 3.60675 27.2367 4.32852C26.8314 5.30657 25.6361 7.51685 24.5125 9.14214Z" fill="#494949"/>
<path d="M13.5802 22.227C15.0084 21.4668 16.6472 21.3082 18.1948 21.7808C20.7635 22.5649 22.4876 24.8944 22.4852 27.5773C22.4848 27.9414 22.7797 28.2369 23.1438 28.2372C23.144 28.2372 23.1442 28.2372 23.1444 28.2372C23.5082 28.2372 23.8034 27.9424 23.8037 27.5786C23.8051 26.0305 23.3016 24.4855 22.3859 23.228C21.4388 21.9273 20.1226 20.9907 18.5797 20.5196C14.6897 19.3322 10.5591 21.5307 9.37181 25.4205C8.79656 27.3049 8.98957 29.3003 9.91532 31.0395C10.841 32.7787 12.3884 34.0533 14.2727 34.6285C14.9769 34.8435 15.7028 34.9502 16.4274 34.9502C17.4577 34.9502 18.4847 34.7342 19.4393 34.3065C21.0492 33.5853 22.3478 32.3135 23.0959 30.7254C23.2511 30.3961 23.1099 30.0032 22.7806 29.8481C22.4513 29.6928 22.0584 29.8341 21.9033 30.1634C20.6317 32.8628 17.517 34.2404 14.6578 33.3674C13.1103 32.8951 11.8395 31.8483 11.0793 30.4201C10.3191 28.9918 10.1605 27.3529 10.633 25.8054C11.1052 24.258 12.1521 22.9871 13.5802 22.227Z" fill="#494949"/>
<path d="M38.6468 34.5753L34.4277 25.6097C34.2726 25.2802 33.8797 25.1388 33.5505 25.2939C33.2211 25.449 33.0798 25.8417 33.2347 26.1711L37.4538 35.1367C37.5663 35.3754 37.8033 35.5154 38.0508 35.5154C38.1448 35.5154 38.2404 35.4952 38.331 35.4525C38.6604 35.2974 38.8017 34.9048 38.6468 34.5753Z" fill="#494949"/>
<path d="M35.6976 36.1517L31.4785 27.1861C31.3235 26.8566 30.9305 26.7153 30.6014 26.8703C30.2719 27.0253 30.1305 27.4181 30.2856 27.7474L34.5047 36.7131C34.617 36.9518 34.8541 37.0918 35.1016 37.0918C35.1957 37.0918 35.2912 37.0716 35.3818 37.0289C35.7112 36.8738 35.8526 36.481 35.6976 36.1517Z" fill="#494949"/>
<path d="M19.9766 26.8614L19.536 26.656C19.5594 26.3717 19.5405 26.0837 19.48 25.8006L20.2942 26.1802C20.4568 26.2561 20.641 26.2682 20.8063 26.2139C20.9716 26.1596 21.1044 26.0434 21.1756 25.8908C21.2467 25.7382 21.2504 25.5618 21.1857 25.4003C21.1211 25.2387 20.9934 25.1054 20.8308 25.0296L17.7142 23.5763C17.6917 23.5658 17.6715 23.5527 17.6486 23.542L16.0272 22.7859C15.8646 22.7101 15.6803 22.698 15.5151 22.7522C15.3498 22.8065 15.2169 22.9227 15.1458 23.0753C15.0746 23.2279 15.071 23.4044 15.1357 23.5659C15.2003 23.7274 15.328 23.8607 15.4906 23.9365L17.112 24.6926C17.3844 24.8197 17.6236 25.0071 17.809 25.2386C17.9943 25.4702 18.1202 25.739 18.1757 26.0217L15.1969 24.6326C15.0343 24.5568 14.8501 24.5447 14.6848 24.5989C14.5195 24.6532 14.3867 24.7694 14.3155 24.922C14.2444 25.0746 14.2407 25.2511 14.3054 25.4126C14.37 25.5741 14.4977 25.7074 14.6603 25.7832L17.9077 27.2975C17.6715 27.6344 17.3143 27.8741 16.8997 27.9741C16.485 28.0741 16.0396 28.0279 15.6426 27.8438L14.0212 27.0878C13.9013 27.0319 13.7687 27.0103 13.6398 27.0255C13.5108 27.0407 13.3912 27.0921 13.2957 27.1734C13.2002 27.2546 13.133 27.3622 13.1025 27.4827C13.0719 27.6032 13.0792 27.7315 13.1236 27.8515L14.9093 32.6766C14.9376 32.759 14.9825 32.836 15.0415 32.9029C15.1004 32.9699 15.1721 33.0255 15.2524 33.0665C15.3327 33.1075 15.42 33.1331 15.509 33.1417C15.5981 33.1503 15.6872 33.1418 15.7711 33.1167C15.855 33.0915 15.932 33.0503 15.9976 32.9954C16.0632 32.9404 16.116 32.8729 16.1529 32.7968C16.1899 32.7207 16.2102 32.6375 16.2128 32.5521C16.2154 32.4668 16.2001 32.3809 16.1678 32.2997L14.9111 28.9036L15.1061 28.9945C15.8288 29.3305 16.6431 29.4021 17.3902 29.1953C18.1374 28.9886 18.764 28.5183 19.1482 27.876L19.44 28.0121C19.6026 28.0879 19.7868 28.1 19.9521 28.0457C20.1174 27.9914 20.2503 27.8752 20.3214 27.7226C20.3926 27.57 20.3962 27.3936 20.3315 27.2321C20.2669 27.0706 20.1392 26.9372 19.9766 26.8614V26.8614Z" fill="#494949"/>
</g>
<defs>
<clipPath id="clip0_3822_487">
<rect width="45" height="45" fill="white"/>
</clipPath>
</defs>
</svg>
