<?xml version="1.0" encoding="UTF-8"?><svg id="a" xmlns="http://www.w3.org/2000/svg" xmlns:xlink="http://www.w3.org/1999/xlink" viewBox="0 0 99.34 99.34"><defs><style>.c{clip-path:url(#b);}.d{fill:#494949;}.e,.f{fill:none;}.f{stroke:#494949;stroke-linecap:round;stroke-miterlimit:10;stroke-width:2.75px;}.g{fill:#ffda66;}</style><clipPath id="b"><rect class="e" width="99.34" height="99.34"/></clipPath></defs><g class="c"><path class="g" d="M36.62,50H11.66c0-6.89,5.59-12.48,12.48-12.48s12.48,5.59,12.48,12.48Z"/><g><path class="f" d="M93.68,74.15v-19.93c0-2.33-1.79-4.22-4-4.22H9.65c-2.21,0-4,1.89-4,4.22v19.93"/><rect class="f" x="47.4" y="34.26" width="40.73" height="15.74" rx="4" ry="4"/><path class="d" d="M4.87,49.14c.32-17.79,23.77-22.72,30.74-6.16,.66,1.71,1.08,3.54,1.14,5.37,.03,.26-.02,.52,.12,.79,.41,.73,.15,1.66-.58,2.08-1.07,.65-2.5-.37-2.25-1.58l.08-.49c.19-1.77-.32-3.54-.92-5.2-3.43-8.9-15.19-11.42-21.76-4.4-2.45,2.54-3.84,6.06-3.82,9.6-.02,1.81-2.73,1.82-2.75,0h0Z"/><line class="f" x1="5.65" y1="73.89" x2="5.65" y2="23.6"/><line class="f" x1="5.65" y1="50" x2="12.66" y2="50"/></g></g></svg>