<svg width="45" height="45" viewBox="0 0 45 45" fill="none" xmlns="http://www.w3.org/2000/svg">
<g clip-path="url(#clip0_3822_291)">
<path d="M40.0781 48.9551C40.0781 58.6632 32.2081 66.5332 22.5 66.5332C12.7919 66.5332 4.92188 58.6632 4.92188 48.9551C4.92188 39.2469 12.7919 31.377 22.5 31.377C32.2081 31.377 40.0781 39.2469 40.0781 48.9551Z" fill="#FFE785"/>
<path d="M34.5386 36.7012C34.1742 36.7012 33.8789 36.9965 33.8789 37.3609C33.8789 37.7252 34.1742 38.0206 34.5386 38.0206H36.7375C37.1019 38.0206 37.3973 37.7253 37.3973 37.3609C37.3973 36.9966 37.1019 36.7012 36.7375 36.7012H34.5386Z" fill="#494949"/>
<path d="M34.5386 28.389H36.7375C37.1019 28.389 37.3973 28.0937 37.3973 27.7293C37.3973 27.365 37.1019 27.0696 36.7375 27.0696H34.5386C34.1742 27.0696 33.8789 27.3649 33.8789 27.7293C33.879 28.0937 34.1743 28.389 34.5386 28.389Z" fill="#494949"/>
<path d="M43.3671 2.19727H25.6888C24.7883 2.19727 24.0558 2.92975 24.0558 3.83019V7.01051C24.0558 7.37481 24.3512 7.67021 24.7155 7.67021C25.0799 7.67021 25.3753 7.3749 25.3753 7.01051V3.83019C25.3753 3.6573 25.516 3.51659 25.6888 3.51659H43.3671C43.54 3.51659 43.6807 3.65722 43.6807 3.83019V12.9589H25.3752V10.0945C25.3752 9.73019 25.0799 9.43479 24.7155 9.43479C24.3511 9.43479 24.0557 9.73011 24.0557 10.0945V15.3891C24.0557 16.2896 24.7882 17.022 25.6887 17.022H31.6786L31.2231 19.1381H23.2116C23.1401 18.0409 22.6943 16.9847 21.9382 16.1618C21.0089 15.1503 19.7394 14.5933 18.3636 14.5933H11.972C10.5962 14.5933 9.32669 15.1503 8.39742 16.1618C7.64139 16.9848 7.19552 18.0409 7.12406 19.1381H1.37593C0.617256 19.1382 0 19.7554 0 20.5141V22.1543C0 22.9131 0.617256 23.5303 1.37593 23.5303H2.2253V41.5596C2.2253 42.2873 2.81733 42.8792 3.54489 42.8792H4.93567C5.66332 42.8792 6.25526 42.2872 6.25526 41.5596V23.5303H7.91077L8.7801 27.3828C9.1176 28.8782 10.424 29.9227 11.9571 29.9227H12.7615L12.8862 30.9574H10.7822C9.28811 30.9574 8.07258 32.1729 8.07258 33.6669C8.07258 34.5485 8.78977 35.2657 9.67131 35.2657H14.5374V39.6852H13.1268C11.6248 39.6852 10.2767 40.5792 9.69258 41.9629C9.55081 42.2985 9.70805 42.6855 10.0437 42.8272C10.3781 42.9685 10.7658 42.8128 10.908 42.476C11.2854 41.5821 12.1564 41.0045 13.1269 41.0045H17.2952C18.2656 41.0045 19.1365 41.5821 19.5141 42.4761C19.6559 42.8118 20.0428 42.9689 20.3785 42.8272C20.7141 42.6854 20.8713 42.2984 20.7295 41.9628C20.1451 40.5792 18.7973 39.6851 17.2953 39.6851H15.8569V35.2658H20.6643C21.5459 35.2658 22.2631 34.5486 22.2631 33.667C22.2631 32.173 21.0476 30.9575 19.5536 30.9575H17.4495L17.5742 29.9228H18.3786C19.9117 29.9228 21.2181 28.8784 21.5555 27.3829L22.4249 23.5303H28.5993V41.4484C28.5993 42.2374 29.2412 42.8793 30.0302 42.8793H41.2471C42.0361 42.8793 42.6779 42.2374 42.6779 41.4484V38.8993C42.6779 38.535 42.3826 38.2396 42.0182 38.2396C41.6538 38.2396 41.3585 38.5349 41.3585 38.8993V41.4484C41.3585 41.5099 41.3085 41.56 41.247 41.56H30.0303C29.9688 41.56 29.9188 41.51 29.9188 41.4484V33.162H41.3586V35.8198C41.3586 36.1841 41.6539 36.4795 42.0183 36.4795C42.3827 36.4795 42.678 36.1842 42.678 35.8198V23.5303H43.5901C44.3488 23.5303 44.966 22.913 44.966 22.1543V20.5141C44.966 19.7554 44.3487 19.1382 43.5901 19.1382H37.8327L37.3772 17.0221H43.3671C44.2675 17.0221 45 16.2896 45 15.3892V3.83019C45 2.92975 44.2675 2.19727 43.3671 2.19727ZM4.93576 41.5599L3.54463 41.5596V23.5303H4.93594L4.93576 41.5599ZM1.37593 22.2109C1.34473 22.2109 1.31933 22.1855 1.31933 22.1543V20.5141C1.31933 20.4829 1.34473 20.4575 1.37593 20.4575H7.21872C7.24904 20.6016 7.42939 21.3949 7.61317 22.2109H1.37593ZM20.9437 33.6669C20.9437 33.821 20.8184 33.9463 20.6643 33.9463H9.67148C9.51741 33.9463 9.39208 33.821 9.39208 33.6669C9.39208 32.9004 10.0158 32.2767 10.7823 32.2767H19.5536C20.32 32.2767 20.9437 32.9004 20.9437 33.6669ZM16.1205 30.9574H14.2153L14.0905 29.9227H16.2452L16.1205 30.9574ZM20.2685 27.0924C20.0678 27.982 19.2907 28.6034 18.3786 28.6034H11.9572C11.0451 28.6034 10.2679 27.9821 10.0672 27.0924L8.51906 20.2316C8.25521 19.0634 8.60599 17.885 9.36896 17.0545C10.0455 16.3182 10.9699 15.9127 11.972 15.9127H18.3636C19.3657 15.9127 20.2903 16.3182 20.9667 17.0545C21.7616 17.9198 22.0699 19.1095 21.8166 20.2317L21.2513 22.7368C21.2512 22.7372 21.251 22.7377 21.2509 22.7382L20.2685 27.0924ZM41.3586 31.8426H29.9188V23.5303H41.3586V31.8426ZM43.6467 20.5141V22.1543C43.6467 22.1855 43.6213 22.2109 43.5901 22.2109H22.7226C22.9583 21.1644 23.0809 20.6298 23.1171 20.4575H43.5901C43.6212 20.4575 43.6467 20.4829 43.6467 20.5141ZM36.483 19.1382H32.5727L33.0282 17.0221H36.0275L36.483 19.1382ZM43.3671 15.7027C42.8919 15.7027 26.1634 15.7027 25.6888 15.7027C25.516 15.7027 25.3753 15.562 25.3753 15.3891V14.2783H43.6807V15.3891C43.6807 15.5621 43.54 15.7027 43.3671 15.7027Z" fill="#494949"/>
</g>
<defs>
<clipPath id="clip0_3822_291">
<rect width="45" height="45" fill="white"/>
</clipPath>
</defs>
</svg>
