<svg width="136" height="136" viewBox="0 0 136 136" fill="none" xmlns="http://www.w3.org/2000/svg">
<g clip-path="url(#clip0_3494_62)">
<circle cx="68.2656" cy="147.953" r="53.125" fill="#FFE785"/>
<path d="M85 110.5H110.5C111.064 110.5 111.604 110.276 112.003 109.878C112.401 109.479 112.625 108.939 112.625 108.375V89.25C112.625 88.6864 112.401 88.1459 112.003 87.7474C111.604 87.3489 111.064 87.125 110.5 87.125H85C84.4364 87.125 83.8959 87.3489 83.4974 87.7474C83.0989 88.1459 82.875 88.6864 82.875 89.25V108.375C82.875 108.939 83.0989 109.479 83.4974 109.878C83.8959 110.276 84.4364 110.5 85 110.5ZM87.125 91.375H108.375V106.25H87.125V91.375Z" fill="#494949"/>
<path d="M50.9993 87.125H25.5879C25.0243 87.125 24.4838 87.3489 24.0853 87.7474C23.6868 88.1459 23.4629 88.6864 23.4629 89.25V108.375C23.4629 108.939 23.6868 109.479 24.0853 109.878C24.4838 110.276 25.0243 110.5 25.5879 110.5H50.9993C51.5629 110.5 52.1034 110.276 52.5019 109.878C52.9004 109.479 53.1243 108.939 53.1243 108.375V89.25C53.1243 88.6864 52.9004 88.1459 52.5019 87.7474C52.1034 87.3489 51.5629 87.125 50.9993 87.125ZM48.8743 106.25H27.7129V91.375H48.8743V106.25Z" fill="#494949"/>
<path d="M125.375 119H121.125V82.6612C123.523 82.1682 125.678 80.8635 127.226 78.9671C128.775 77.0706 129.622 74.6983 129.625 72.25V68C129.625 67.7 129.561 67.4034 129.438 67.1299C129.315 66.8564 129.135 66.6122 128.91 66.4135L128.912 66.4117L110.5 50.0457V34C110.498 32.3098 109.826 30.6894 108.631 29.4943C107.436 28.2992 105.815 27.6269 104.125 27.625H90.1427L89.2426 16.8236C89.1984 16.2924 88.9561 15.7972 88.5639 15.4363C88.1716 15.0753 87.658 14.875 87.125 14.875H76.5V10.625C76.5008 9.39402 76.145 8.18916 75.4755 7.15612C74.806 6.12309 73.8516 5.30613 72.7277 4.80404C71.6038 4.30194 70.3584 4.13622 69.1423 4.3269C67.9262 4.51759 66.7913 5.05651 65.875 5.87851C64.9587 5.05651 63.8238 4.51759 62.6077 4.3269C61.3916 4.13622 60.1462 4.30194 59.0223 4.80404C57.8984 5.30613 56.944 6.12309 56.2745 7.15612C55.605 8.18916 55.2492 9.39402 55.25 10.625V14.875H48.875C48.342 14.875 47.8284 15.0753 47.4361 15.4363C47.0439 15.7972 46.8016 16.2924 46.7574 16.8236L45.8573 27.625H31.875C30.1848 27.6269 28.5644 28.2992 27.3693 29.4943C26.1742 30.6894 25.5019 32.3098 25.5 34V50.0457L7.08822 66.4117L7.08978 66.4135C6.86505 66.6122 6.68511 66.8564 6.56189 67.1299C6.43866 67.4034 6.37496 67.7 6.375 68V72.25C6.37819 74.6983 7.22536 77.0706 8.7737 78.9671C10.322 80.8635 12.4769 82.1682 14.875 82.6612V119H10.625C8.93424 119 7.31274 119.672 6.11719 120.867C4.92165 122.063 4.25 123.684 4.25 125.375C4.25 127.066 4.92165 128.687 6.11719 129.883C7.31274 131.078 8.93424 131.75 10.625 131.75H125.375C127.066 131.75 128.687 131.078 129.883 129.883C131.078 128.687 131.75 127.066 131.75 125.375C131.75 123.684 131.078 122.063 129.883 120.867C128.687 119.672 127.066 119 125.375 119V119ZM125.375 72.25C125.375 73.9408 124.703 75.5623 123.508 76.7578C122.312 77.9534 120.691 78.625 119 78.625C117.309 78.625 115.688 77.9534 114.492 76.7578C113.297 75.5623 112.625 73.9408 112.625 72.25V70.125H125.375V72.25ZM28.433 53.125H32.2909L24.3221 65.875H14.0892L28.433 53.125ZM121.911 65.875H111.678L103.709 53.125H107.567L121.911 65.875ZM98.6971 53.125L106.666 65.875H95.3758L93.7821 53.125H98.6971ZM89.4992 53.125L91.0929 65.875H78.625V53.125H89.4992ZM74.375 65.875H61.625V53.125H74.375V65.875ZM57.375 65.875H44.9071L46.5008 53.125H57.375V65.875ZM40.6242 65.875H29.3341L37.3029 53.125H42.2179L40.6242 65.875ZM27.625 70.125H40.375V72.25C40.375 73.9408 39.7034 75.5623 38.5078 76.7578C37.3123 77.9534 35.6908 78.625 34 78.625C32.3092 78.625 30.6877 77.9534 29.4922 76.7578C28.2966 75.5623 27.625 73.9408 27.625 72.25V70.125ZM44.625 70.125H57.375V72.25C57.375 73.9408 56.7034 75.5623 55.5078 76.7578C54.3123 77.9534 52.6908 78.625 51 78.625C49.3092 78.625 47.6877 77.9534 46.4922 76.7578C45.2966 75.5623 44.625 73.9408 44.625 72.25V70.125ZM61.625 70.125H74.375V72.25C74.375 73.9408 73.7033 75.5623 72.5078 76.7578C71.3123 77.9534 69.6908 78.625 68 78.625C66.3092 78.625 64.6877 77.9534 63.4922 76.7578C62.2966 75.5623 61.625 73.9408 61.625 72.25V70.125ZM78.625 70.125H91.375V72.25C91.375 73.9408 90.7033 75.5623 89.5078 76.7578C88.3123 77.9534 86.6908 78.625 85 78.625C83.3092 78.625 81.6877 77.9534 80.4922 76.7578C79.2967 75.5623 78.625 73.9408 78.625 72.25V70.125ZM95.625 70.125H108.375V72.25C108.375 73.9408 107.703 75.5623 106.508 76.7578C105.312 77.9534 103.691 78.625 102 78.625C100.309 78.625 98.6877 77.9534 97.4922 76.7578C96.2967 75.5623 95.625 73.9408 95.625 72.25V70.125ZM85.1698 19.125L86.9406 40.375H78.4552L76.6844 19.125H85.1698ZM70.125 8.5C70.6884 8.50065 71.2285 8.72474 71.6269 9.12311C72.0253 9.52149 72.2494 10.0616 72.25 10.625V14.875H68V10.625C68.0006 10.0616 68.2247 9.52149 68.6231 9.12311C69.0215 8.72474 69.5616 8.50065 70.125 8.5V8.5ZM59.5 10.625C59.5 10.0614 59.7239 9.52092 60.1224 9.1224C60.5209 8.72389 61.0614 8.5 61.625 8.5C62.1886 8.5 62.7291 8.72389 63.1276 9.1224C63.5261 9.52092 63.75 10.0614 63.75 10.625V14.875H59.5V10.625ZM50.8302 19.125H55.25V23.375H59.5V19.125H63.75V23.375H68V19.125H72.4198L74.1906 40.375H49.0594L50.8302 19.125ZM29.75 34C29.7506 33.4366 29.9747 32.8965 30.3731 32.4981C30.7715 32.0997 31.3116 31.8756 31.875 31.875H45.5031L44.6324 42.3236C44.608 42.6165 44.6446 42.9113 44.7399 43.1894C44.8352 43.4674 44.9872 43.7226 45.1862 43.9389C45.3853 44.1552 45.627 44.3279 45.8962 44.446C46.1653 44.5641 46.4561 44.625 46.75 44.625H89.25C89.5439 44.625 89.8347 44.5641 90.1038 44.446C90.373 44.3279 90.6147 44.1552 90.8137 43.9389C91.0128 43.7226 91.1648 43.4674 91.2601 43.1894C91.3554 42.9113 91.392 42.6165 91.3676 42.3236L90.4969 31.875H104.125C104.688 31.8756 105.229 32.0997 105.627 32.4981C106.025 32.8965 106.249 33.4366 106.25 34V48.875H29.75V34ZM10.625 72.25V70.125H23.375V72.25C23.375 73.9408 22.7034 75.5623 21.5078 76.7578C20.3123 77.9534 18.6908 78.625 17 78.625C15.3092 78.625 13.6877 77.9534 12.4922 76.7578C11.2967 75.5623 10.625 73.9408 10.625 72.25ZM19.125 82.6612C21.6727 82.1375 23.9404 80.6991 25.5 78.6176C26.4883 79.9392 27.7712 81.0121 29.2467 81.7512C30.7222 82.4902 32.3497 82.875 34 82.875C35.6503 82.875 37.2778 82.4902 38.7533 81.7512C40.2288 81.0121 41.5117 79.9392 42.5 78.6176C43.4883 79.9392 44.7712 81.0121 46.2467 81.7512C47.7222 82.4902 49.3497 82.875 51 82.875C52.6503 82.875 54.2778 82.4902 55.7533 81.7512C57.2288 81.0121 58.5117 79.9392 59.5 78.6176C60.4883 79.9392 61.7712 81.0121 63.2467 81.7512C64.7222 82.4902 66.3497 82.875 68 82.875C69.6503 82.875 71.2778 82.4902 72.7533 81.7512C74.2288 81.0121 75.5117 79.9392 76.5 78.6176C77.4883 79.9392 78.7712 81.0121 80.2467 81.7512C81.7222 82.4902 83.3497 82.875 85 82.875C86.6503 82.875 88.2778 82.4902 89.7533 81.7512C91.2288 81.0121 92.5117 79.9392 93.5 78.6176C94.4883 79.9392 95.7712 81.0121 97.2467 81.7512C98.7222 82.4902 100.35 82.875 102 82.875C103.65 82.875 105.278 82.4902 106.753 81.7512C108.229 81.0121 109.512 79.9392 110.5 78.6176C112.06 80.6991 114.327 82.1375 116.875 82.6612V119H78.625V89.25C78.625 88.6864 78.4011 88.1459 78.0026 87.7474C77.6041 87.3489 77.0636 87.125 76.5 87.125H59.5C58.9364 87.125 58.3959 87.3489 57.9974 87.7474C57.5989 88.1459 57.375 88.6864 57.375 89.25V119H19.125V82.6612ZM74.375 119H61.625V91.375H74.375V119ZM125.375 127.5H10.625C10.0614 127.5 9.52091 127.276 9.1224 126.878C8.72388 126.479 8.5 125.939 8.5 125.375C8.5 124.811 8.72388 124.271 9.1224 123.872C9.52091 123.474 10.0614 123.25 10.625 123.25H125.375C125.939 123.25 126.479 123.474 126.878 123.872C127.276 124.271 127.5 124.811 127.5 125.375C127.5 125.939 127.276 126.479 126.878 126.878C126.479 127.276 125.939 127.5 125.375 127.5Z" fill="#494949"/>
</g>
<defs>
<clipPath id="clip0_3494_62">
<rect width="136" height="136" fill="white"/>
</clipPath>
</defs>
</svg>
