<svg xmlns="http://www.w3.org/2000/svg" viewBox="0 0 42.85 23.66"><defs><style>.cls-1{fill:#858585;}.cls-2{fill:#ffcc05;}</style></defs><g id="Layer_2" data-name="Layer 2"><g id="Layer_1-2" data-name="Layer 1"><path class="cls-1" d="M28,23.66H14.61a.5.5,0,0,1-.5-.5V7.29l-1-4.43a.5.5,0,0,1,.1-.42.49.49,0,0,1,.39-.19H29a.51.51,0,0,1,.39.19.49.49,0,0,1,.09.42l-1,4.43V23.16A.51.51,0,0,1,28,23.66Zm-12.92-1H27.53V7.24a.37.37,0,0,1,0-.11l.86-3.88H14.23l.87,3.88s0,.07,0,.11Z"/><path class="cls-2" d="M18.61,23.16V18.73a3.55,3.55,0,0,1,1.58-3L21.32,15l1.12.74a3.56,3.56,0,0,1,1.59,3v4.43"/><path class="cls-1" d="M24,23.66a.5.5,0,0,1-.5-.5V18.73a3,3,0,0,0-1.37-2.53l-.84-.56-.85.56a3,3,0,0,0-1.36,2.53v4.43a.51.51,0,0,1-.5.5.5.5,0,0,1-.5-.5V18.73a4,4,0,0,1,1.81-3.36L21,14.62a.5.5,0,0,1,.55,0l1.12.75a4,4,0,0,1,1.82,3.36v4.43A.51.51,0,0,1,24,23.66Z"/><path class="cls-1" d="M42.35,23.66H.5a.5.5,0,0,1-.5-.5.5.5,0,0,1,.5-.5H42.35a.5.5,0,0,1,.5.5A.5.5,0,0,1,42.35,23.66Z"/><path class="cls-2" d="M21.32,5.77a.5.5,0,0,1-.5-.5v-1a.5.5,0,0,1,.5-.5.5.5,0,0,1,.5.5v1A.51.51,0,0,1,21.32,5.77Z"/><path class="cls-1" d="M19.61,5.77a.51.51,0,0,1-.5-.5v-1a.5.5,0,0,1,.5-.5.5.5,0,0,1,.5.5v1A.5.5,0,0,1,19.61,5.77Z"/><path class="cls-2" d="M17.91,5.77a.5.5,0,0,1-.5-.5v-1a.5.5,0,0,1,1,0v1A.5.5,0,0,1,17.91,5.77Z"/><path class="cls-1" d="M16.21,5.77a.5.5,0,0,1-.5-.5v-1a.5.5,0,0,1,.5-.5.5.5,0,0,1,.5.5v1A.51.51,0,0,1,16.21,5.77Z"/><path class="cls-2" d="M24.72,5.77a.51.51,0,0,1-.5-.5v-1a.5.5,0,0,1,.5-.5.5.5,0,0,1,.5.5v1A.5.5,0,0,1,24.72,5.77Z"/><path class="cls-1" d="M23,5.77a.5.5,0,0,1-.5-.5v-1a.5.5,0,0,1,1,0v1A.5.5,0,0,1,23,5.77Z"/><path class="cls-1" d="M41,23.66H28a.5.5,0,0,1-.5-.5V7.61a.5.5,0,0,1,.5-.5.5.5,0,0,1,.5.5V22.66H40.46V6.22L38.43,5l-2.06-.52H32.58L30.45,5l-1.5,1a.5.5,0,1,1-.54-.83l1.57-1A.47.47,0,0,1,30.13,4l2.27-.56h4.16L38.75,4a.35.35,0,0,1,.14.06l2.34,1.44a.54.54,0,0,1,.23.43V23.16A.5.5,0,0,1,41,23.66Z"/><path class="cls-1" d="M41,23.66H28a.5.5,0,0,1-.5-.5v-13a.51.51,0,0,1,.22-.42L30,8.26l.15-.07,2.27-.55.12,0h3.91l.13,0,2.19.55.14.06L41.23,9.7a.5.5,0,0,1,.23.42v13A.5.5,0,0,1,41,23.66Zm-12.43-1H40.46V10.4l-2-1.26-2.06-.52H32.58l-2.13.52L28.53,10.4Z"/><path class="cls-2" d="M34.5,7.08a.5.5,0,0,1-.5-.5v-1a.5.5,0,0,1,.5-.5.5.5,0,0,1,.5.5v1A.51.51,0,0,1,34.5,7.08Z"/><path class="cls-1" d="M31.79,7.31a.5.5,0,0,1-.5-.5v-1a.5.5,0,1,1,1,0v1A.5.5,0,0,1,31.79,7.31Z"/><path class="cls-1" d="M37.2,7.31a.5.5,0,0,1-.5-.5v-1a.5.5,0,0,1,.5-.5.5.5,0,0,1,.5.5v1A.51.51,0,0,1,37.2,7.31Z"/><path class="cls-1" d="M34.5,14a.5.5,0,0,1-.5-.5v-3.4a.5.5,0,0,1,.5-.5.5.5,0,0,1,.5.5v3.4A.51.51,0,0,1,34.5,14Z"/><path class="cls-1" d="M31.79,14.84a.5.5,0,0,1-.5-.5V11a.5.5,0,1,1,1,0v3.39A.5.5,0,0,1,31.79,14.84Z"/><path class="cls-1" d="M37.2,14.84a.5.5,0,0,1-.5-.5V11a.5.5,0,0,1,.5-.5.5.5,0,0,1,.5.5v3.39A.5.5,0,0,1,37.2,14.84Z"/><path class="cls-1" d="M14.61,23.66H1.67a.5.5,0,0,1-.5-.5V5.94a.52.52,0,0,1,.24-.43L3.74,4.07A.42.42,0,0,1,3.88,4l2.2-.56h4.16L12.5,4a.34.34,0,0,1,.15.06l1.58,1a.5.5,0,1,1-.55.83l-1.5-1-2.12-.52H6.26L4.2,5l-2,1.26V22.66H14.11v-15a.5.5,0,0,1,.5-.5.5.5,0,0,1,.5.5V23.16A.51.51,0,0,1,14.61,23.66Z"/><path class="cls-1" d="M14.61,23.66H1.67a.5.5,0,0,1-.5-.5v-13a.49.49,0,0,1,.24-.42L3.74,8.25l.14-.06,2.2-.55.12,0h3.92l.12,0,2.26.55a.52.52,0,0,1,.15.07L14.88,9.7a.52.52,0,0,1,.23.42v13A.51.51,0,0,1,14.61,23.66Zm-12.44-1H14.11V10.4L12.18,9.14l-2.12-.52H6.26L4.2,9.14l-2,1.26Z"/><path class="cls-2" d="M8.14,7.08a.5.5,0,0,1-.5-.5v-1a.5.5,0,1,1,1,0v1A.5.5,0,0,1,8.14,7.08Z"/><path class="cls-1" d="M10.84,7.31a.51.51,0,0,1-.5-.5v-1a.5.5,0,0,1,.5-.5.5.5,0,0,1,.5.5v1A.5.5,0,0,1,10.84,7.31Z"/><path class="cls-1" d="M5.43,7.31a.51.51,0,0,1-.5-.5v-1a.5.5,0,0,1,.5-.5.5.5,0,0,1,.5.5v1A.5.5,0,0,1,5.43,7.31Z"/><path class="cls-1" d="M8.14,14a.5.5,0,0,1-.5-.5v-3.4a.5.5,0,0,1,1,0v3.4A.5.5,0,0,1,8.14,14Z"/><path class="cls-1" d="M10.84,14.84a.5.5,0,0,1-.5-.5V11a.5.5,0,0,1,.5-.5.5.5,0,0,1,.5.5v3.39A.5.5,0,0,1,10.84,14.84Z"/><path class="cls-1" d="M5.43,14.84a.5.5,0,0,1-.5-.5V11a.5.5,0,0,1,.5-.5.5.5,0,0,1,.5.5v3.39A.5.5,0,0,1,5.43,14.84Z"/><path class="cls-1" d="M26.47,5.77a.5.5,0,0,1-.5-.5v-1a.5.5,0,0,1,1,0v1A.5.5,0,0,1,26.47,5.77Z"/><path class="cls-1" d="M16.62,16.14a.5.5,0,0,1-.5-.5v-4.3a.5.5,0,0,1,.5-.5.5.5,0,0,1,.5.5v4.3A.5.5,0,0,1,16.62,16.14Z"/><path class="cls-1" d="M26.06,16.14a.5.5,0,0,1-.5-.5v-4.3a.5.5,0,0,1,1,0v4.3A.5.5,0,0,1,26.06,16.14Z"/><path class="cls-1" d="M28,10H14.61a.5.5,0,0,1-.5-.5V7.24a.5.5,0,0,1,.5-.5H28a.5.5,0,0,1,.5.5V9.49A.5.5,0,0,1,28,10ZM15.11,9H27.53V7.74H15.11Z"/><path class="cls-1" d="M28,3.25H14.61a.5.5,0,0,1-.5-.5V.5a.5.5,0,0,1,.5-.5H28a.5.5,0,0,1,.5.5V2.75A.5.5,0,0,1,28,3.25Zm-12.92-1H27.53V1H15.11Z"/></g></g></svg>