<svg width="32" height="32" viewBox="0 0 32 32" fill="none" xmlns="http://www.w3.org/2000/svg">
<g clip-path="url(#clip0_9147_2948)">
<path d="M30.5284 14.1363L26.2719 11.2753C26.4127 10.9827 26.5367 10.6804 26.6411 10.3717C28.0291 6.27028 25.8445 1.80499 21.7713 0.417789C19.8065 -0.251376 17.6969 -0.113131 15.8313 0.806838C13.8356 1.79093 12.3423 3.60181 11.7418 5.74305C10.3827 5.02714 8.65362 5.59662 7.95376 6.94976L7.73902 7.36487C7.46059 7.90317 8.29319 8.33396 8.57162 7.79567L8.78636 7.38056C9.31884 6.35122 10.5869 6.09798 11.5368 6.69471C11.4142 7.50493 11.4198 8.32259 11.5469 9.11925C11.1878 9.34849 10.8932 9.67036 10.6917 10.0623C10.0755 11.2615 10.5356 12.7473 11.7174 13.3741C12.2831 13.6743 12.9515 13.7353 13.5601 13.5444C14.1837 13.3487 14.6932 12.9178 14.9947 12.3311C15.8843 10.5999 14.4107 8.43496 12.4436 8.77282C12.3744 8.24128 12.3666 7.70061 12.4222 7.16138L17.4793 9.82654C18.3852 10.304 18.7362 11.4742 18.2655 12.3842L16.0533 16.6608C15.818 17.1156 15.4047 17.4594 14.9193 17.6041C13.5986 17.9976 12.2779 18.3911 10.9572 18.7846C10.8352 18.8209 10.7332 18.9054 10.6747 19.0184L4.69293 30.5823C4.678 30.6112 4.65244 30.6314 4.62262 30.6378L2.64431 31.0611C2.59775 31.071 2.55094 31.045 2.53107 30.9975L1.74684 29.1228C1.70453 29.0221 1.89515 28.6439 1.99777 28.6165C3.26967 28.3629 3.6934 27.5854 3.15605 26.3892C3.11124 26.2659 3.5376 25.4307 3.66303 25.3973C4.93493 25.1437 5.35866 24.3661 4.8213 23.17C4.77662 23.0464 5.20267 22.2115 5.32829 22.1779C6.59781 21.9288 7.02411 21.1407 6.4865 19.9506C6.47506 19.919 6.47731 19.8841 6.49262 19.8545L7.73171 17.4591C7.78964 17.3471 7.80002 17.2165 7.76052 17.0969L6.45563 13.1408C6.29507 12.6538 6.33819 12.113 6.57412 11.657L7.42616 10.0098C7.70465 9.47161 6.87192 9.04075 6.59356 9.57917L5.74152 11.2262C5.39054 11.9047 5.32629 12.7096 5.56541 13.4344L6.80861 17.2034L5.66003 19.4237C5.52491 19.6848 5.50491 19.9932 5.60509 20.2698L5.84702 20.9381C5.8659 21.0102 5.84196 21.0604 5.77527 21.0887L5.08692 21.2721C4.40613 21.4535 3.70015 22.827 3.93983 23.489L4.18176 24.1574C4.20064 24.2295 4.1767 24.2797 4.11002 24.308L3.42179 24.4914C2.74081 24.6727 2.0349 26.0462 2.27458 26.7083L2.51651 27.3766C2.53538 27.4488 2.51144 27.499 2.44476 27.5273L1.75653 27.7107C1.10749 27.8835 0.627194 28.8755 0.88206 29.4846L1.66622 31.3593C1.8569 31.8154 2.3587 32.0809 2.8405 31.9779L4.81868 31.5545C5.12361 31.4894 5.38122 31.2921 5.52559 31.0131L11.416 19.626L12.8815 19.1667V24.7988C12.8698 25.677 13.6026 26.4337 14.4857 26.4344L26.9475 26.4423H26.9486C27.838 26.4423 28.5713 25.7151 28.5833 24.8207V23.3062C28.5915 22.7003 27.654 22.6872 27.646 23.2936V24.8082C27.6408 25.1924 27.3281 25.5048 26.9486 25.5048C26.9484 25.5048 26.9483 25.5048 26.9481 25.5048L23.37 25.5026V20.6262C23.37 20.3673 23.1602 20.1574 22.9013 20.1574H18.7022C18.4432 20.1574 18.2334 20.3673 18.2334 20.6262V25.4993L14.4862 25.497C14.1076 25.4967 13.8141 25.1667 13.8188 24.8114V18.8863L15.1871 18.5024C15.9152 18.2854 16.5345 17.7711 16.886 17.0915L17.6824 15.552C18.122 15.6419 18.5677 15.6933 19.0143 15.7057C19.2948 16.6472 20.2907 17.2572 21.2596 17.063C21.7749 16.9597 22.2192 16.6601 22.5107 16.2192C23.1081 15.3155 22.867 14.0923 21.973 13.4924C21.5407 13.2022 21.0215 13.0987 20.5107 13.2012C19.7382 13.356 19.113 13.9922 18.9661 14.7664C18.687 14.7556 18.4085 14.7276 18.1322 14.6824L19.0983 12.8149C19.0983 12.8149 20.4807 11.8894 20.9148 11.603L27.6977 16.2105V20.9621C27.6897 21.5505 28.5751 21.5925 28.5833 20.9747V16.8357C29.3273 17.3509 30.4761 17.143 30.9738 16.3884C31.4692 15.6372 31.2683 14.6261 30.5284 14.1363V14.1363ZM12.8458 9.67567C14.1377 9.67567 14.7802 11.3071 13.9267 12.2373C13.3251 11.4941 12.8768 10.6154 12.6269 9.69242C12.6999 9.68679 12.7729 9.68123 12.8458 9.67567V9.67567ZM13.0938 12.6949C12.7749 12.7513 12.4482 12.7006 12.1568 12.5459C11.4257 12.1581 11.1425 11.2361 11.5256 10.4906C11.5938 10.3581 11.6793 10.2388 11.7786 10.1346C12.0526 11.0516 12.4943 11.9209 13.0938 12.6949V12.6949ZM19.1709 21.0949H22.4325V25.502L19.1709 25.5V21.0949ZM21.7286 15.7022C21.5759 15.9331 21.3439 16.09 21.0753 16.1438C20.672 16.2245 20.224 16.0228 20.014 15.6688C20.654 15.6041 21.2866 15.4604 21.8953 15.2389C21.8779 15.3994 21.8236 15.5584 21.7286 15.7022ZM20.6948 14.1203C21.0042 14.0524 21.3298 14.1492 21.5644 14.3612C21.042 14.5504 20.4997 14.674 19.9509 14.7321C19.9756 14.6738 20.0621 14.2592 20.6948 14.1203ZM18.4441 9.3588C18.2855 9.22112 18.1097 9.09894 17.9164 8.99713L12.5925 6.19135C13.0828 4.22548 14.4272 2.54434 16.2458 1.64756C17.8866 0.8384 19.7416 0.716779 21.4689 1.30513C25.0538 2.52597 26.9756 6.4584 25.753 10.0711C25.6753 10.3008 25.5843 10.5258 25.4837 10.7456L21.8354 8.29334C21.3017 7.93991 20.6069 7.93873 20.0629 8.29196L18.4441 9.3588ZM30.1912 15.8723C29.9962 16.1679 29.5632 16.2896 29.2468 16.08L21.179 10.6508C21.022 10.5452 20.8171 10.5443 20.6592 10.6485L19.4169 11.4682C19.4104 10.9827 19.28 10.5068 19.0414 10.088L20.5762 9.07656C20.8043 8.92832 21.0955 8.92763 21.3153 9.07319L30.0082 14.9162C30.3205 15.1229 30.4026 15.5518 30.1912 15.8723V15.8723Z" fill="#494949"/>
<path d="M3.84188 29.449C4.05906 29.5618 4.36055 29.4671 4.47373 29.2487L9.34357 19.8607C9.46275 19.6309 9.37313 19.348 9.14333 19.2288C8.91377 19.1096 8.63059 19.1992 8.51147 19.429L3.64164 28.8171C3.52239 29.0469 3.61207 29.3297 3.84188 29.449V29.449Z" fill="#494949"/>
</g>
<defs>
<clipPath id="clip0_9147_2948">
<rect width="32" height="32" fill="white"/>
</clipPath>
</defs>
</svg>
