<svg width="180" height="180" viewBox="0 0 180 180" fill="none" xmlns="http://www.w3.org/2000/svg">
<g clip-path="url(#clip0_4036_3747)">
<circle cx="90" cy="195.82" r="70.3125" fill="#FFE785"/>
<path d="M171.722 79.5169L147.779 63.4236C148.572 61.778 149.269 60.0772 149.856 58.3409C157.664 35.2703 145.376 10.1531 122.464 2.35006C111.412 -1.41399 99.5453 -0.636362 89.0511 4.53847C77.8254 10.074 69.4255 20.2602 66.0474 32.3047C58.4026 28.2776 48.6766 31.481 44.7399 39.0924L43.532 41.4274C41.9658 44.4553 46.6492 46.8785 48.2154 43.8506L49.4233 41.5156C52.4185 35.7256 59.5511 34.3011 64.8943 37.6577C64.2049 42.2152 64.2362 46.8146 64.9513 51.2958C62.9313 52.5853 61.2741 54.3958 60.141 56.6003C56.6747 63.3459 59.2625 71.7033 65.9103 75.2294C69.0925 76.9182 72.852 77.2613 76.2758 76.1873C79.7836 75.0863 82.6491 72.6627 84.3449 69.3627C89.3489 59.6247 81.0604 47.4466 69.995 49.3471C69.6058 46.3572 69.5619 43.3159 69.8748 40.2827L98.3212 55.2743C103.417 57.9598 105.391 64.5426 102.743 69.6611L90.2999 93.7171C88.9763 96.2753 86.6515 98.2092 83.921 99.023C76.492 101.236 69.0634 103.45 61.6344 105.663C60.9482 105.867 60.3744 106.343 60.0454 106.978L26.3978 172.025C26.3137 172.188 26.1699 172.302 26.0023 172.338L14.8743 174.719C14.6124 174.774 14.3491 174.628 14.2373 174.361L9.826 163.816C9.588 163.249 10.6602 161.122 11.2375 160.968C18.3919 159.541 20.7754 155.168 17.7528 148.439C17.5007 147.746 19.899 143.048 20.6045 142.86C27.759 141.433 30.1425 137.059 27.1198 130.331C26.8685 129.636 29.265 124.94 29.9716 124.751C37.1127 123.35 39.5106 118.917 36.4866 112.222C36.4222 112.044 36.4349 111.848 36.521 111.681L43.4909 98.2074C43.8167 97.5774 43.8751 96.8431 43.6529 96.1698L36.3129 73.917C35.4098 71.1777 35.6523 68.1358 36.9794 65.5709L41.7721 56.3054C43.3386 53.2778 38.6546 50.8542 37.0888 53.8828L32.2961 63.1476C30.3218 66.9641 29.9604 71.4913 31.3054 75.5686L38.2985 96.7689L31.8377 109.258C31.0776 110.727 30.9651 112.462 31.5286 114.017L32.8895 117.777C32.9957 118.183 32.861 118.465 32.4859 118.624L28.6139 119.656C24.7845 120.676 20.8134 128.402 22.1616 132.126L23.5224 135.885C23.6286 136.291 23.4939 136.574 23.1188 136.732L19.2476 137.764C15.4171 138.784 11.4463 146.51 12.7945 150.234L14.1553 153.994C14.2615 154.4 14.1269 154.682 13.7518 154.841L9.88049 155.873C6.22963 156.845 3.52797 162.425 4.96159 165.851L9.3725 176.396C10.4451 178.961 13.2677 180.455 15.9778 179.875L27.1051 177.494C28.8203 177.128 30.2694 176.018 31.0815 174.449L64.2151 110.396L72.4586 107.813V139.493C72.3926 144.433 76.5148 148.69 81.4819 148.693L151.58 148.738H151.586C156.589 148.738 160.714 144.647 160.781 139.617V131.097C160.827 127.689 155.554 127.616 155.509 131.026V139.546C155.479 141.707 153.72 143.465 151.586 143.465C151.585 143.465 151.584 143.465 151.583 143.465L131.456 143.452V116.022C131.456 114.566 130.276 113.386 128.82 113.386H105.2C103.743 113.386 102.563 114.566 102.563 116.022V143.434L81.4851 143.42C79.3554 143.419 77.7045 141.562 77.7309 139.564V106.235L85.4274 104.076C89.5229 102.855 93.0064 99.9627 94.9839 96.1396L99.4634 87.4802C101.936 87.9857 104.443 88.2751 106.956 88.3443C108.533 93.6408 114.135 97.0716 119.585 95.9793C122.484 95.3985 124.983 93.7128 126.622 91.233C129.983 86.1499 128.627 79.2694 123.598 75.8945C121.167 74.2622 118.246 73.6801 115.372 74.2566C111.028 75.1274 107.51 78.7062 106.684 83.0609C105.115 83.0004 103.548 82.8425 101.994 82.5884L107.428 72.0837C107.428 72.0837 115.204 66.8779 117.646 65.2668L155.799 91.1841V117.912C155.755 121.221 160.735 121.458 160.781 117.983V94.7007C164.966 97.5985 171.428 96.4293 174.228 92.1847C177.014 87.9594 175.884 82.272 171.722 79.5169V79.5169ZM72.2576 54.4256C79.5245 54.4256 83.1384 63.6025 78.3376 68.8346C74.954 64.6544 72.4319 59.7119 71.0264 54.5199C71.4367 54.4882 71.8473 54.4569 72.2576 54.4256V54.4256ZM73.6525 71.4087C71.8589 71.7258 70.0213 71.441 68.3821 70.5706C64.2696 68.3892 62.6767 63.2032 64.8318 59.0099C65.2149 58.2642 65.6959 57.5935 66.2548 57.0071C67.796 62.1654 70.2804 67.0551 73.6525 71.4087V71.4087ZM107.836 118.659H126.183V143.449L107.836 143.437V118.659ZM122.223 88.3246C121.364 89.624 120.059 90.5064 118.549 90.809C116.28 91.2625 113.76 90.1284 112.579 88.1373C116.179 87.773 119.737 86.9645 123.161 85.7186C123.063 86.6217 122.758 87.5161 122.223 88.3246ZM116.408 79.4269C118.149 79.0447 119.98 79.5893 121.3 80.7818C118.361 81.8463 115.311 82.5413 112.224 82.8679C112.363 82.5399 112.849 80.208 116.408 79.4269ZM103.748 52.6433C102.856 51.8688 101.867 51.1815 100.78 50.6089L70.8327 34.8263C73.591 23.7683 81.1532 14.3119 91.3826 9.26753C100.612 4.716 111.046 4.03188 120.763 7.34138C140.927 14.2086 151.738 36.3285 144.861 56.6499C144.424 57.9419 143.912 59.2074 143.346 60.4438L122.824 46.65C119.822 44.662 115.914 44.6553 112.854 46.6423L103.748 52.6433ZM169.826 89.2815C168.729 90.9444 166.293 91.6289 164.513 90.4498L119.132 59.9109C118.249 59.3168 117.096 59.3118 116.208 59.8979L109.22 64.5085C109.184 61.778 108.45 59.1009 107.108 56.7448L115.741 51.0557C117.024 50.2218 118.662 50.2179 119.898 51.0367L168.796 83.9035C170.553 85.0665 171.015 87.4788 169.826 89.2815V89.2815Z" fill="#494949"/>
<path d="M21.6068 165.651C22.8284 166.285 24.5243 165.752 25.161 164.524L52.5538 111.716C53.2242 110.424 52.7201 108.833 51.4274 108.162C50.1362 107.491 48.5433 107.995 47.8733 109.288L20.4804 162.096C19.8097 163.389 20.3141 164.98 21.6068 165.651V165.651Z" fill="#494949"/>
</g>
<defs>
<clipPath id="clip0_4036_3747">
<rect width="180" height="180" fill="white"/>
</clipPath>
</defs>
</svg>
