<svg width="45" height="45" viewBox="0 0 45 45" fill="none" xmlns="http://www.w3.org/2000/svg">
<g clip-path="url(#clip0_3822_475)">
<path d="M40.0781 48.9551C40.0781 58.6632 32.2081 66.5332 22.5 66.5332C12.7919 66.5332 4.92188 58.6632 4.92188 48.9551C4.92188 39.2469 12.7919 31.377 22.5 31.377C32.2081 31.377 40.0781 39.2469 40.0781 48.9551Z" fill="#FFE785"/>
<path d="M40.614 33.1721C39.4736 31.6476 37.9061 30.5573 36.0802 30.0184L31.5538 28.6072C31.5535 28.6071 31.5531 28.6069 31.5528 28.6068L28.315 27.5974C28.0255 27.5069 27.7195 27.518 27.4437 27.6191C27.2145 27.4149 27.0764 27.1191 27.0764 26.8043V26.6018L32.0765 25.3017C33.7816 24.8583 34.9724 23.3183 34.9724 21.5564V19.086C35.6773 18.8068 36.1774 18.1187 36.1774 17.3157V14.0944C36.1774 13.2865 35.6819 12.6019 34.9724 12.325V11.68C34.9724 11.1829 34.9408 10.6826 34.8785 10.1925C34.8326 9.8311 34.5021 9.57612 34.1409 9.62121C33.7794 9.66718 33.5236 9.99747 33.5696 10.359C33.6249 10.794 33.6529 11.2384 33.6529 11.68V12.8524V12.93C33.2998 12.8451 32.8448 12.7063 32.3571 12.4838C32.3339 12.4733 32.3111 12.4625 32.288 12.4517C31.3564 12.0141 30.3186 11.2679 29.6453 10.0033C29.6352 9.98411 29.6251 9.96486 29.6152 9.94553C29.59 9.89675 29.5653 9.84736 29.5411 9.79699C29.5225 9.75797 29.5046 9.71833 29.4868 9.67869C29.4703 9.64204 29.4535 9.60583 29.4376 9.56848C29.4033 9.48762 29.3702 9.40579 29.3391 9.32238C29.2653 9.12393 29.1008 8.97302 28.8967 8.91659C28.8456 8.90244 28.7937 8.89462 28.7418 8.89295C28.7321 8.8926 28.7223 8.89357 28.7126 8.89374C28.6965 8.89392 28.6804 8.89365 28.6644 8.89506C28.5508 8.90482 28.441 8.94498 28.3455 9.01116C28.3331 9.01978 28.3204 9.02786 28.3084 9.03735C28.3062 9.0392 28.2968 9.04658 28.2821 9.0581C28.2804 9.05941 28.2793 9.06029 28.2774 9.0617C28.2719 9.06601 28.2646 9.07163 28.2576 9.07699C28.2526 9.08086 28.2478 9.08464 28.242 9.08903C28.236 9.0936 28.2289 9.09905 28.2222 9.10424C28.2125 9.11171 28.2024 9.11944 28.191 9.12806C28.1859 9.13193 28.1803 9.13623 28.1749 9.14036C28.1598 9.1517 28.1438 9.16383 28.1263 9.17701C28.1227 9.17974 28.119 9.18255 28.1153 9.18536C26.8945 10.1011 20.1012 14.9195 13.582 13.9999C13.5705 13.9983 13.559 13.9965 13.5475 13.9948C13.4427 13.9797 13.3379 13.9628 13.2334 13.9447C13.2035 13.9395 13.1737 13.9342 13.1438 13.9287C13.0534 13.9123 12.9633 13.8946 12.8731 13.8759C12.8441 13.8698 12.8149 13.864 12.786 13.8577C12.6818 13.8352 12.5779 13.811 12.474 13.7853C12.4318 13.7748 12.39 13.7634 12.3479 13.7524C12.2836 13.7356 12.2195 13.7183 12.1553 13.7003C12.1046 13.6861 12.0539 13.6716 12.0034 13.6565C11.9333 13.6356 11.8632 13.6136 11.7933 13.5912C11.7305 13.5711 11.668 13.5504 11.6057 13.5291C11.5354 13.5051 11.4652 13.4806 11.3951 13.4549C11.3534 13.4396 11.3117 13.4242 11.2702 13.4083C11.1758 13.3724 11.0814 13.3354 10.9874 13.2964C10.9788 13.2928 10.97 13.2895 10.9614 13.2859V12.9606V11.6799C10.9614 5.96716 15.609 1.3195 21.3218 1.3195H23.2924C27.4353 1.3195 31.1719 3.77824 32.8117 7.58356C32.9559 7.91824 33.3441 8.07267 33.6787 7.92835C34.0133 7.78412 34.1678 7.396 34.0235 7.0614C32.175 2.77181 27.9628 0 23.2924 0H21.3218C14.8815 0 9.64197 5.23951 9.64197 11.6799V12.595C9.18635 12.9509 8.908 13.5016 8.908 14.0943V17.3156C8.908 17.9245 9.19575 18.4671 9.64197 18.8159V21.5306C9.64197 23.3107 10.8483 24.8547 12.5754 25.2853L18.009 26.6403V26.8043C18.009 27.1192 17.8709 27.4151 17.6416 27.6193C17.3658 27.5183 17.0599 27.5072 16.7705 27.5974L13.5326 28.6069C13.5323 28.607 13.5319 28.6072 13.5316 28.6073L9.00538 30.0185C6.49593 30.759 4.4653 32.5631 3.43364 34.969C3.35437 35.1541 3.28045 35.3442 3.21409 35.5345C3.09403 35.8786 3.27553 36.2548 3.61962 36.3749C3.96371 36.4947 4.33979 36.3134 4.45994 35.9693C4.51637 35.8077 4.57912 35.6461 4.64645 35.4889C5.52324 33.444 7.24968 31.9109 9.38296 31.2827C9.3863 31.2818 9.38964 31.2808 9.39298 31.2798L13.5156 29.9944L16.9614 33.927C17.4627 34.4991 18.1722 34.8101 18.9031 34.8101C19.1827 34.81 19.4654 34.7645 19.7408 34.6707L22.5426 33.7163L25.0621 34.5745C25.385 34.6845 25.7164 34.7378 26.0442 34.7378C26.9011 34.7377 27.7329 34.3731 28.3205 33.7025L31.5697 29.9944L35.6923 31.2798C35.6957 31.2808 35.699 31.2818 35.7023 31.2827C37.2548 31.7399 38.588 32.6666 39.5573 33.9625C40.5267 35.2585 41.0391 36.7989 41.0391 38.4174V43.5939C41.0391 43.6416 41.0004 43.6803 40.9528 43.6803H37.389V37.6489C37.389 37.2845 37.0936 36.9891 36.7292 36.9891C36.3648 36.9891 36.0694 37.2844 36.0694 37.6489V43.6803H9.01593V37.6489C9.01593 37.2845 8.72053 36.9891 8.35613 36.9891C7.99174 36.9891 7.69634 37.2844 7.69634 37.6489V43.6803H4.13246C4.08482 43.6803 4.04615 43.6416 4.04615 43.5939V38.8426C4.04615 38.4782 3.75075 38.1828 3.38636 38.1828C3.02196 38.1828 2.72656 38.4781 2.72656 38.8426V43.5939C2.72656 44.3691 3.35727 44.9999 4.13246 44.9999H40.9528C41.728 44.9999 42.3587 44.3692 42.3587 43.5939V38.4174C42.3587 36.512 41.7554 34.6982 40.614 33.1721ZM31.7444 24.0245L28.5758 24.8484C28.6164 24.819 28.6554 24.7878 28.6955 24.7579C28.712 24.7456 28.7284 24.733 28.7448 24.7206C28.8577 24.6356 28.9686 24.5483 29.0776 24.4588C29.0918 24.4471 29.1061 24.4354 29.1202 24.4237C29.2366 24.3271 29.3507 24.2282 29.4626 24.1268C29.468 24.1218 29.4735 24.1171 29.4789 24.1122C29.6577 23.9494 29.8306 23.7807 29.9974 23.6061C30.0099 23.5931 30.0221 23.5798 30.0344 23.5668C30.117 23.4795 30.1983 23.3911 30.2777 23.3011L31.0224 23.1734C32.2491 22.963 33.2264 22.127 33.6526 21.0253V21.5563H33.6527C33.6528 22.7174 32.868 23.7323 31.7444 24.0245ZM32.7646 17.8746C32.794 17.6573 32.8168 17.4379 32.8324 17.2165C32.834 17.1941 32.8353 17.1717 32.8367 17.1494C32.8423 17.0629 32.8468 16.9763 32.8501 16.8892C32.8512 16.8612 32.8525 16.8333 32.8533 16.8052C32.8566 16.698 32.8588 16.5906 32.8588 16.4826V14.0847C33.6284 14.3161 34.1889 14.3672 34.2588 14.3728C34.2592 14.3728 34.26 14.3729 34.2603 14.3729C34.2606 14.3729 34.2608 14.3729 34.2611 14.3729C34.4443 14.3873 34.6252 14.3246 34.7602 14.1998C34.7779 14.1834 34.7945 14.1661 34.8102 14.1482C34.8157 14.1419 34.8204 14.135 34.8257 14.1285C34.8354 14.1165 34.8451 14.1044 34.8539 14.0918C34.8551 14.0901 34.8566 14.0885 34.8577 14.0868C34.8577 14.0892 34.8577 14.0918 34.8577 14.0942V17.3155C34.8577 17.6281 34.6107 17.8835 34.3016 17.8982C34.298 17.8983 34.2944 17.8979 34.2907 17.898C34.2803 17.8984 34.2701 17.8989 34.2586 17.8997H32.7613C32.7627 17.8915 32.7634 17.883 32.7646 17.8746ZM31.7177 21.1955C31.7638 21.1062 31.8085 21.0161 31.852 20.9254C31.874 20.8794 31.8954 20.8332 31.9168 20.7869C31.9574 20.6989 31.997 20.6104 32.0352 20.5211C32.0549 20.4749 32.0739 20.4284 32.0929 20.3819C32.1261 20.3011 32.1581 20.2197 32.1893 20.1379C32.2037 20.1001 32.2185 20.0625 32.2325 20.0246C32.2707 19.9203 32.3067 19.8151 32.3416 19.7094C32.3546 19.6699 32.3676 19.6305 32.3802 19.5909C32.4146 19.4821 32.4473 19.3725 32.4782 19.2622C32.4823 19.2479 32.487 19.2339 32.491 19.2196H32.566V19.778C32.566 20.5672 32.1363 21.2646 31.4811 21.6313C31.4979 21.6023 31.5131 21.5724 31.5296 21.5433C31.5676 21.4761 31.605 21.4085 31.6414 21.3404C31.667 21.2921 31.6927 21.244 31.7177 21.1955ZM10.5725 17.8479C10.5719 17.8476 10.5713 17.8475 10.5707 17.8472C10.3686 17.7552 10.2275 17.5518 10.2275 17.3157V14.4065C10.2468 14.415 10.2664 14.4231 10.2858 14.4316C10.3161 14.4448 10.3466 14.4578 10.3771 14.4708C10.4427 14.4987 10.5085 14.526 10.5747 14.5528C10.6036 14.5644 10.6323 14.5762 10.6613 14.5876C10.7503 14.6228 10.8397 14.657 10.9297 14.69C10.9333 14.6914 10.937 14.6929 10.9406 14.6942C11.3587 14.847 11.7881 14.9771 12.2264 15.0834V16.4827C12.2264 16.5907 12.2286 16.6981 12.2319 16.8053C12.2328 16.8333 12.234 16.8613 12.2351 16.8893C12.2385 16.9763 12.2429 17.063 12.2485 17.1495C12.2499 17.1719 12.2511 17.1943 12.2528 17.2166C12.2684 17.4379 12.2912 17.6573 12.3206 17.8747C12.3218 17.8831 12.3225 17.8915 12.3237 17.8999H10.8116C10.7295 17.8998 10.649 17.8823 10.5725 17.8479ZM12.8945 24.005C11.7564 23.7212 10.9614 22.7036 10.9614 21.5306V19.2194H12.5945C12.5983 19.2335 12.6031 19.2472 12.607 19.2612C12.6386 19.3743 12.6722 19.4864 12.7076 19.5979C12.72 19.6371 12.7328 19.6761 12.7457 19.715C12.7814 19.823 12.8184 19.9304 12.8576 20.0368C12.872 20.0759 12.8872 20.1147 12.9021 20.1536C12.9357 20.2415 12.9704 20.3289 13.0063 20.4157C13.0276 20.4672 13.0494 20.5184 13.0715 20.5696C13.1071 20.6518 13.1438 20.7336 13.1815 20.8147C13.2018 20.8585 13.2218 20.9023 13.2428 20.9458C13.2877 21.0389 13.3343 21.1309 13.3818 21.2223C13.4069 21.2706 13.4322 21.3188 13.458 21.3666C13.5051 21.4539 13.5534 21.5406 13.6029 21.6264C13.632 21.6767 13.6619 21.7267 13.6918 21.7765C13.7289 21.8383 13.7668 21.8996 13.8051 21.9605C13.8506 22.033 13.8971 22.1048 13.9445 22.1761C13.9764 22.2241 14.0086 22.2718 14.0413 22.3192C14.0986 22.4024 14.1571 22.4845 14.2167 22.566C14.2464 22.6065 14.2762 22.647 14.3064 22.6871C14.3759 22.7792 14.4473 22.8699 14.5198 22.9597C14.544 22.9896 14.5678 23.0196 14.5923 23.0492C14.6414 23.1086 14.691 23.1672 14.7413 23.2254C14.7533 23.2392 14.7656 23.2527 14.7776 23.2665C14.8707 23.373 14.9659 23.4777 15.0633 23.5804C15.0797 23.5976 15.0962 23.6145 15.1127 23.6317C15.2081 23.7308 15.3055 23.8281 15.4048 23.9235C15.4205 23.9386 15.4363 23.9537 15.4522 23.9687C15.5556 24.0668 15.6612 24.1627 15.7687 24.2566C15.7814 24.2676 15.7939 24.2787 15.8065 24.2896C15.9899 24.448 16.1787 24.6003 16.3734 24.746C16.3765 24.7483 16.3798 24.7505 16.3828 24.7529C16.4663 24.8152 16.5495 24.8779 16.6349 24.9377L12.8945 24.005ZM14.0964 19.5819C14.094 19.5754 14.0915 19.5688 14.0891 19.5623C14.0656 19.4979 14.0427 19.4332 14.0207 19.3683C14.0193 19.3641 14.0179 19.3598 14.0165 19.3556C13.9508 19.1613 13.8919 18.964 13.8395 18.7639C13.8358 18.7499 13.8318 18.7359 13.8282 18.7218C13.8159 18.6739 13.8044 18.6255 13.7928 18.5772C13.7846 18.5431 13.7764 18.5091 13.7687 18.4748C13.7589 18.432 13.7497 18.389 13.7406 18.3459C13.7331 18.3106 13.7258 18.2753 13.7188 18.2398C13.7114 18.2026 13.7043 18.1654 13.6973 18.1281C13.6892 18.0841 13.6814 18.0401 13.674 17.996C13.6688 17.9653 13.6636 17.9345 13.6587 17.9038C13.6505 17.8525 13.6429 17.8011 13.6356 17.7497C13.632 17.7246 13.6284 17.6994 13.625 17.6742C13.6174 17.6172 13.6107 17.5602 13.6042 17.5031C13.6018 17.4821 13.5992 17.4611 13.597 17.44C13.5905 17.3794 13.585 17.3188 13.5797 17.2581C13.5782 17.2395 13.5762 17.2209 13.5747 17.2023C13.5698 17.1402 13.5658 17.0779 13.5622 17.0157C13.5611 16.998 13.5597 16.9803 13.5587 16.9625C13.5554 16.8991 13.5531 16.8357 13.551 16.7723C13.5505 16.7555 13.5495 16.7388 13.5491 16.7219C13.547 16.6421 13.5458 16.5622 13.5458 16.4823V15.3272C14.527 15.4534 15.555 15.4677 16.6195 15.3725C16.6542 15.3694 16.6892 15.3656 16.724 15.3623C16.8103 15.3541 16.8968 15.3453 16.9836 15.3355C17.0603 15.3271 17.1372 15.318 17.2143 15.3084C17.236 15.3057 17.2578 15.3027 17.2796 15.2998C19.0707 15.0699 20.955 14.5382 22.9017 13.7028C25.4498 12.6092 27.4581 11.2861 28.4526 10.5754C29.2401 12.0969 30.4339 13.0126 31.5354 13.5621C31.5371 13.6316 31.539 13.7014 31.539 13.7689V16.4826C31.539 16.5625 31.5379 16.6423 31.5358 16.7222C31.5353 16.739 31.5344 16.7557 31.5339 16.7726C31.5318 16.836 31.5295 16.8994 31.5261 16.9627C31.5252 16.9806 31.5237 16.9982 31.5227 17.016C31.519 17.0782 31.515 17.1404 31.5101 17.2026C31.5086 17.2212 31.5068 17.2397 31.5051 17.2584C31.4999 17.319 31.4944 17.3797 31.4879 17.4402C31.4857 17.4613 31.4831 17.4822 31.4807 17.5033C31.4742 17.5605 31.4674 17.6175 31.4599 17.6745C31.4565 17.6997 31.4528 17.7248 31.4492 17.75C31.4419 17.8014 31.4344 17.8528 31.4262 17.904C31.4213 17.9348 31.4161 17.9655 31.4109 17.9962C31.4034 18.0403 31.3957 18.0844 31.3875 18.1283C31.3806 18.1657 31.3735 18.2029 31.3661 18.24C31.359 18.2755 31.3517 18.3109 31.3443 18.3462C31.3351 18.3893 31.3259 18.4322 31.3162 18.475C31.3084 18.5093 31.3002 18.5435 31.292 18.5777C31.2805 18.6258 31.269 18.6739 31.2567 18.7218C31.253 18.7365 31.2488 18.7511 31.245 18.7659C31.1928 18.9646 31.1342 19.1607 31.069 19.3538C31.0672 19.3589 31.0657 19.364 31.0639 19.3691C31.042 19.4334 31.0193 19.4975 30.9961 19.5611C30.9935 19.5684 30.9908 19.5758 30.9881 19.5831C30.6527 20.4942 30.1734 21.3362 29.5785 22.0822L28.0966 22.3363C27.9583 22.0932 27.769 21.8801 27.5338 21.7137C27.1116 21.4151 26.5984 21.2986 26.089 21.3864L23.9382 21.7553C22.8864 21.9357 22.1775 22.938 22.3578 23.9898C22.4704 24.6466 22.9024 25.175 23.4778 25.4307C23.1702 25.4626 22.8581 25.4792 22.5422 25.4792C21.2352 25.4792 19.9925 25.1988 18.8708 24.6953C18.846 24.6842 18.8212 24.6727 18.7964 24.6613C16.6308 23.6653 14.9253 21.8339 14.0964 19.5819ZM26.9193 23.6493C26.8243 23.7836 26.6828 23.8729 26.5207 23.9007L24.3695 24.2696C24.3346 24.2756 24.2992 24.2786 24.2642 24.2786C23.9642 24.2786 23.7096 24.0634 23.6587 23.7668C23.6013 23.4321 23.8268 23.1132 24.1615 23.0557L26.3125 22.6869C26.3478 22.6809 26.383 22.6778 26.418 22.6778C26.5441 22.6778 26.667 22.7167 26.7721 22.7909C26.9064 22.8858 26.9957 23.0275 27.0235 23.1896C27.0513 23.3518 27.0143 23.515 26.9193 23.6493ZM19.3153 33.4216C18.8277 33.5877 18.2933 33.4447 17.9539 33.0574L14.8935 29.5647L17.1633 28.857C17.1763 28.853 17.1905 28.8563 17.2006 28.8657L21.296 32.747L19.3153 33.4216ZM18.6784 28.4482C19.0876 28.0088 19.3284 27.4229 19.3284 26.8042V26.2878C19.3713 26.3019 19.4148 26.314 19.4579 26.3276C19.4796 26.3344 19.5015 26.3409 19.5232 26.3476C19.6538 26.3877 19.7851 26.425 19.9171 26.4597C19.9408 26.466 19.9645 26.4724 19.9883 26.4785C20.0618 26.4973 20.1355 26.5155 20.2094 26.5326C20.2286 26.5371 20.2478 26.541 20.2671 26.5453C20.3942 26.574 20.5217 26.6003 20.6498 26.6241C20.6943 26.6324 20.7389 26.6404 20.7835 26.6481C20.8456 26.6587 20.9076 26.6695 20.9699 26.679C21.0637 26.6934 21.158 26.7064 21.2526 26.7182C21.3022 26.7244 21.3518 26.7298 21.4015 26.7353C21.4815 26.7442 21.5617 26.752 21.6422 26.759C21.676 26.7619 21.7097 26.7654 21.7436 26.7681C21.8566 26.7768 21.9701 26.783 22.0839 26.788C22.116 26.7894 22.1482 26.7906 22.1803 26.7917C22.3005 26.7958 22.4212 26.7987 22.5425 26.7987C22.6638 26.7987 22.7843 26.7958 22.9047 26.7917C22.9368 26.7906 22.9689 26.7894 23.001 26.788C23.1149 26.783 23.2285 26.7767 23.3413 26.7681C23.3751 26.7655 23.4089 26.7619 23.4427 26.759C23.5232 26.752 23.6035 26.7442 23.6835 26.7353C23.7331 26.7298 23.7828 26.7244 23.8324 26.7182C23.9269 26.7064 24.0212 26.6934 24.115 26.679C24.1773 26.6695 24.2394 26.6587 24.3014 26.6481C24.3461 26.6404 24.3906 26.6324 24.4351 26.6241C24.5633 26.6003 24.6909 26.574 24.8179 26.5453C24.837 26.541 24.8564 26.5371 24.8755 26.5326C24.9494 26.5155 25.0232 26.4973 25.0967 26.4785C25.1205 26.4724 25.1441 26.466 25.1678 26.4597C25.2999 26.425 25.4311 26.3876 25.5618 26.3476C25.5836 26.3409 25.6054 26.3344 25.6271 26.3276C25.6701 26.314 25.7136 26.302 25.7565 26.2878V26.8042C25.7565 27.423 25.9974 28.0089 26.4066 28.4482L22.5426 32.1101L18.6784 28.4482ZM27.328 32.833C26.8691 33.3567 26.1465 33.55 25.4876 33.3255L23.7892 32.747L27.8846 28.8657C27.8946 28.8564 27.9088 28.8529 27.922 28.8571L30.1917 29.5648L27.328 32.833Z" fill="#494949"/>
<path d="M16.7742 36.6479H11.804C11.1647 36.6479 10.6445 37.1681 10.6445 37.8075V40.0089C10.6445 40.6482 11.1647 41.1683 11.804 41.1683H16.7742C17.4135 41.1683 17.9337 40.6483 17.9337 40.0089V37.8075C17.9337 37.1682 17.4134 36.6479 16.7742 36.6479ZM16.614 39.8488H11.9639V37.9675H16.614V39.8488V39.8488Z" fill="#494949"/>
</g>
<defs>
<clipPath id="clip0_3822_475">
<rect width="45" height="45" fill="white"/>
</clipPath>
</defs>
</svg>
