<svg width="140" height="140" viewBox="0 0 140 140" fill="none" xmlns="http://www.w3.org/2000/svg">
<g clip-path="url(#clip0_3573_70)">
<circle cx="70" cy="152.305" r="54.6875" fill="#FFE785"/>
<path d="M124.433 97.598C123.925 97.0892 123.219 96.7969 122.5 96.7969C121.781 96.7969 121.075 97.0892 120.567 97.598C120.058 98.1069 119.766 98.8091 119.766 99.5312C119.766 100.25 120.058 100.956 120.567 101.464C121.075 101.973 121.781 102.266 122.5 102.266C123.219 102.266 123.925 101.973 124.433 101.464C124.942 100.956 125.234 100.25 125.234 99.5312C125.234 98.8121 124.942 98.1066 124.433 97.598Z" fill="#494949"/>
<path d="M137.266 134.531H125.234V109.101C125.234 107.591 124.01 106.367 122.5 106.367C120.99 106.367 119.766 107.591 119.766 109.101V134.531H33.3594V108.828C33.3594 107.318 32.1349 106.094 30.625 106.094C29.1151 106.094 27.8906 107.318 27.8906 108.828V134.531H20.2344V62.6175L70 23.7656L119.766 62.6175V88.5935C119.766 90.1035 120.99 91.3279 122.5 91.3279C124.01 91.3279 125.234 90.1035 125.234 88.5935V66.887L125.712 67.2602C126.209 67.6482 126.803 67.8394 127.394 67.8394C128.097 67.8394 128.798 67.5689 129.328 67.0385L139.191 57.1756C139.745 56.6216 140.034 55.8565 139.987 55.0745C139.938 54.2925 139.558 53.5687 138.94 53.0866L122.5 40.252V12.8514C122.5 11.3412 121.276 10.117 119.766 10.117H103.918C102.408 10.117 101.183 11.3412 101.183 12.8514V23.61L71.6825 0.578936C70.694 -0.192979 69.306 -0.192979 68.3173 0.578936L1.05984 53.0866C0.442148 53.5687 0.06125 54.2925 0.013125 55.0745C-0.0347266 55.8565 0.255117 56.6213 0.808828 57.1756L10.6714 67.0385C11.6476 68.0144 13.1991 68.1101 14.2877 67.2602L14.7656 66.887V134.531H2.73438C1.22445 134.531 0 135.755 0 137.265C0 138.775 1.22445 140 2.73438 140H137.266C138.776 140 140 138.775 140 137.265C140 135.755 138.776 134.531 137.266 134.531ZM106.652 15.5857H117.031V35.9825L106.652 27.8795V15.5857V15.5857ZM12.8286 61.4614L6.86219 55.4948L70 6.203L133.138 55.4948L127.171 61.4614L71.6825 18.1413C71.1881 17.7552 70.5942 17.5621 70 17.5621C69.4058 17.5621 68.8116 17.7552 68.3175 18.1413L12.8286 61.4614Z" fill="#494949"/>
<path d="M96.25 59.6094H43.75C42.2401 59.6094 41.0156 60.8336 41.0156 62.3438V114.844C41.0156 116.354 42.2401 117.578 43.75 117.578H96.25C97.7599 117.578 98.9844 116.354 98.9844 114.844V62.3438C98.9844 60.8336 97.7599 59.6094 96.25 59.6094ZM67.2656 112.109H46.4844V91.3281H67.2656V112.109ZM67.2656 85.8594H46.4844V65.0781H67.2656V85.8594ZM93.5156 112.109H72.7344V91.3281H93.5156V112.109ZM93.5156 85.8594H72.7344V65.0781H93.5156V85.8594Z" fill="#494949"/>
<path d="M30.625 95.2944C29.1151 95.2944 27.8906 96.5186 27.8906 98.0288V98.0728C27.8906 99.5827 29.1151 100.807 30.625 100.807C32.1349 100.807 33.3594 99.5827 33.3594 98.0728V98.0288C33.3594 96.5189 32.1349 95.2944 30.625 95.2944Z" fill="#494949"/>
</g>
<defs>
<clipPath id="clip0_3573_70">
<rect width="140" height="140" fill="white"/>
</clipPath>
</defs>
</svg>
