<svg width="512" height="512" viewBox="0 0 512 512" fill="none" xmlns="http://www.w3.org/2000/svg">
<g clip-path="url(#clip0_3714_290)">
<circle cx="256" cy="557" r="200" fill="#FFE785"/>
<path d="M359.511 38C320.604 38 284.229 52.653 256 79.478C227.771 52.653 191.395 38 152.489 38C68.406 38 0 108.049 0 194.151C0 244.069 42.543 306.277 126.449 379.046C187.795 432.25 250.004 472.069 250.625 472.465C252.264 473.51 254.132 474.032 256 474.032C257.868 474.032 259.736 473.509 261.376 472.464C261.997 472.068 324.206 432.249 385.552 379.045C469.457 306.276 512 244.068 512 194.151C512 108.049 443.594 38 359.511 38ZM372.62 363.787C322.735 407.071 272.241 441.354 256 452.088C239.784 441.373 189.422 407.185 139.552 363.935C61.34 296.105 20 237.394 20 194.151C20 119.076 79.435 58 152.489 58C189.215 58 223.366 73.094 248.65 100.501C250.543 102.553 253.208 103.72 256 103.72C258.792 103.72 261.457 102.553 263.35 100.501C288.635 73.095 322.785 58.001 359.511 58.001C432.565 58 492 119.076 492 194.151C492 237.36 450.719 296.019 372.62 363.787Z" fill="#494949"/>
<path d="M347.379 93.3233L347.003 93.3883C341.565 94.3543 337.94 99.5453 338.906 104.983C339.767 109.829 343.984 113.235 348.74 113.235C349.321 113.235 349.91 113.184 350.5 113.079L350.699 113.045C356.145 112.128 359.817 106.97 358.9 101.524C357.983 96.0763 352.82 92.4093 347.379 93.3233Z" fill="#494949"/>
<path d="M439.056 131.398C426.778 114.531 409.338 101.968 389.95 96.0228C384.669 94.4018 379.077 97.3718 377.458 102.652C375.839 107.932 378.807 113.525 384.087 115.144C416.046 124.944 438.366 156.222 438.366 191.207C438.366 196.73 442.843 201.207 448.366 201.207C453.889 201.207 458.366 196.73 458.365 191.206C458.365 169.432 451.688 148.751 439.056 131.398Z" fill="#494949"/>
</g>
<defs>
<clipPath id="clip0_3714_290">
<rect width="512" height="512" fill="white"/>
</clipPath>
</defs>
</svg>
