<svg width="512" height="512" viewBox="0 0 512 512" fill="none" xmlns="http://www.w3.org/2000/svg">
<g clip-path="url(#clip0_3760_526)">
<circle cx="256" cy="512" r="200" fill="#FFE785"/>
<path d="M511.594 411.884V366.832H463.538V336.797H447.519V311.768H463.538V266.716H343.756V281.733H448.52V296.751H137.802V311.768H432.501V336.797H105.622C98.7205 336.797 93.107 331.184 93.107 324.283C93.107 317.382 98.7205 311.768 105.622 311.768H122.784V296.751H105.622C90.4409 296.751 78.0896 309.101 78.0896 324.283C78.0896 339.464 90.4409 351.815 105.622 351.815H448.519V366.832H189.719V381.849H496.575V396.867H72.5832C49.121 396.867 30.0338 415.954 30.0338 439.416C30.0338 462.878 49.121 481.966 72.5832 481.966H426.279V466.948H72.5842C57.4026 466.948 45.0523 454.598 45.0523 439.416C45.0523 424.235 57.4026 411.884 72.5842 411.884H480.557V436.913H147.671V451.931H480.557V466.948H441.297V481.966H496.576V496.983H72.5842C40.8414 496.983 15.0174 471.159 15.0174 439.416C15.0174 407.673 40.8414 381.849 72.5842 381.849H174.703V366.832H105.623C82.1603 366.832 63.0732 347.745 63.0732 324.283C63.0732 300.82 82.1603 281.733 105.623 281.733H328.738V266.716H105.623C73.8797 266.716 48.0557 292.54 48.0557 324.283C48.0557 341.244 55.4333 356.512 67.1439 367.057C29.6544 369.851 0 401.225 0 439.416C0 479.44 32.5608 512 72.5842 512H511.594V466.948H495.575V411.884H511.594Z" fill="#494949"/>
<path d="M117.637 436.913H132.654V451.931H117.637V436.913Z" fill="#494949"/>
<path d="M138.16 223.178L141.504 225.407C142.808 226.277 174.366 246.692 255.797 246.692C337.227 246.692 368.786 226.277 370.089 225.407L373.433 223.178V96.7572L418.486 81.7398V152.631C406.944 155.909 398.462 166.536 398.462 179.114V216.657H453.526V179.114C453.526 166.536 445.044 155.909 433.503 152.631V76.734L459.75 67.9849L380.893 41.6984L376.143 55.9449L412.261 67.9839L255.797 120.139L99.3324 67.9849L255.797 15.8304L361.897 51.1974L366.646 36.9509L255.797 0L51.8433 67.9849L138.16 96.7572V223.178ZM438.509 179.114V201.64H413.48V179.114C413.48 172.213 419.093 166.599 425.994 166.599C432.895 166.599 438.509 172.213 438.509 179.114ZM153.178 101.763L255.797 135.97L358.416 101.763V160.592H339.894V175.61H358.416V190.627H325.878V205.645H358.416V214.697C348.739 219.41 317.604 231.675 255.797 231.675C193.943 231.675 162.807 219.391 153.178 214.701V101.763Z" fill="#494949"/>
<path d="M87.6016 436.913H102.619V451.931H87.6016V436.913Z" fill="#494949"/>
<path d="M295.843 190.627H310.861V205.644H295.843V190.627Z" fill="#494949"/>
</g>
<defs>
<clipPath id="clip0_3760_526">
<rect width="512" height="512" fill="white"/>
</clipPath>
</defs>
</svg>
