<svg width="32" height="32" viewBox="0 0 32 32" fill="none" xmlns="http://www.w3.org/2000/svg">
<g clip-path="url(#clip0_9086_1463)">
<path d="M31.8533 22.5625C31.7325 22.2065 31.5425 21.8778 31.2942 21.5955C31.046 21.3131 30.7443 21.0826 30.4067 20.9172C30.0691 20.7518 29.7021 20.6547 29.3268 20.6316C28.9515 20.6085 28.5754 20.6598 28.22 20.7825L25.3333 21.6825C25.3737 21.309 25.3347 20.9312 25.2189 20.5738C25.1031 20.2164 24.9131 19.8875 24.6614 19.6087C24.4096 19.3298 24.1017 19.1074 23.758 18.9558C23.4142 18.8042 23.0423 18.727 22.6667 18.7292H15.5333C13 17.0358 10.8667 17.3958 6.66667 17.3958V16.7292C6.66667 16.5524 6.59643 16.3828 6.4714 16.2578C6.34638 16.1327 6.17681 16.0625 6 16.0625H0.666667C0.489856 16.0625 0.320286 16.1327 0.195262 16.2578C0.0702379 16.3828 0 16.5524 0 16.7292L0 27.3958C0 27.5726 0.0702379 27.7422 0.195262 27.8672C0.320286 27.9923 0.489856 28.0625 0.666667 28.0625H6C6.17681 28.0625 6.34638 27.9923 6.4714 27.8672C6.59643 27.7422 6.66667 27.5726 6.66667 27.3958C6.66667 27.1625 6.60667 27.1758 6.86 27.3225C9.48238 28.8319 12.4147 29.7228 15.4335 29.9273C18.4523 30.1317 21.478 29.6444 24.28 28.5025L30.28 26.0692C30.932 25.7857 31.4546 25.2691 31.7456 24.6205C32.0367 23.9718 32.0751 23.238 31.8533 22.5625ZM5.33333 26.7292H1.33333V17.3958H5.33333V26.7292ZM29.78 24.8358L23.78 27.2625C21.1662 28.3302 18.3429 28.7862 15.5259 28.5955C12.7089 28.4049 9.97275 27.5727 7.52667 26.1625L6.66667 25.6758V18.7292C11.06 18.7292 12.7 18.4425 14.7933 19.8358C15.26 20.1492 14.9733 20.0625 22.6667 20.0625C22.9197 20.0634 23.1672 20.1362 23.3804 20.2725C23.5936 20.4088 23.7636 20.6029 23.8705 20.8322C23.9775 21.0615 24.017 21.3165 23.9844 21.5674C23.9519 21.8183 23.8486 22.0548 23.6867 22.2492C22.94 22.9158 23.5867 22.7292 15.3333 22.7292C15.1565 22.7292 14.987 22.7994 14.8619 22.9244C14.7369 23.0495 14.6667 23.219 14.6667 23.3958C14.6667 23.5726 14.7369 23.7422 14.8619 23.8672C14.987 23.9923 15.1565 24.0625 15.3333 24.0625C22.8467 24.0625 23.4667 24.3092 24.5 23.3292L28.6667 22.0625C29.0306 21.9384 29.4283 21.9582 29.7782 22.1178C30.128 22.2774 30.4036 22.5648 30.5485 22.921C30.6933 23.2772 30.6965 23.6753 30.5574 24.0338C30.4182 24.3923 30.1473 24.684 29.8 24.8492L29.78 24.8358Z" fill="#494949"/>
<path d="M2.86033 24.2558C2.76764 24.3492 2.70469 24.468 2.67941 24.5972C2.65412 24.7264 2.66765 24.8601 2.71826 24.9816C2.76888 25.1031 2.85433 25.2069 2.96385 25.28C3.07336 25.353 3.20204 25.3919 3.33366 25.3919C3.46528 25.3919 3.59396 25.353 3.70347 25.28C3.81299 25.2069 3.89844 25.1031 3.94905 24.9816C3.99967 24.8601 4.01319 24.7264 3.98791 24.5972C3.96263 24.468 3.89968 24.3492 3.80699 24.2558C3.74502 24.1933 3.67128 24.1437 3.59004 24.1099C3.5088 24.076 3.42167 24.0586 3.33366 24.0586C3.24565 24.0586 3.15851 24.076 3.07727 24.1099C2.99604 24.1437 2.9223 24.1933 2.86033 24.2558Z" fill="#494949"/>
<path d="M21.3333 11.3959H18.6667C18.4899 11.3959 18.3203 11.4662 18.1953 11.5912C18.0702 11.7162 18 11.8858 18 12.0626C18 12.2394 18.0702 12.409 18.1953 12.534C18.3203 12.659 18.4899 12.7292 18.6667 12.7292H20V13.3959C20 13.5727 20.0702 13.7423 20.1953 13.8673C20.3203 13.9923 20.4899 14.0626 20.6667 14.0626C20.8435 14.0626 21.013 13.9923 21.1381 13.8673C21.2631 13.7423 21.3333 13.5727 21.3333 13.3959V12.7292C21.8638 12.7292 22.3725 12.5185 22.7475 12.1435C23.1226 11.7684 23.3333 11.2597 23.3333 10.7292C23.3333 10.1988 23.1226 9.69011 22.7475 9.31503C22.3725 8.93996 21.8638 8.72925 21.3333 8.72925H20C19.8232 8.72925 19.6536 8.65901 19.5286 8.53399C19.4036 8.40896 19.3333 8.23939 19.3333 8.06258C19.3333 7.88577 19.4036 7.7162 19.5286 7.59118C19.6536 7.46615 19.8232 7.39591 20 7.39591H22.6667C22.8435 7.39591 23.013 7.32568 23.1381 7.20065C23.2631 7.07563 23.3333 6.90606 23.3333 6.72925C23.3333 6.55244 23.2631 6.38287 23.1381 6.25784C23.013 6.13282 22.8435 6.06258 22.6667 6.06258H21.3333V5.39591C21.3333 5.2191 21.2631 5.04953 21.1381 4.92451C21.013 4.79949 20.8435 4.72925 20.6667 4.72925C20.4899 4.72925 20.3203 4.79949 20.1953 4.92451C20.0702 5.04953 20 5.2191 20 5.39591V6.06258C19.4696 6.06258 18.9609 6.27329 18.5858 6.64837C18.2107 7.02344 18 7.53215 18 8.06258C18 8.59301 18.2107 9.10172 18.5858 9.4768C18.9609 9.85187 19.4696 10.0626 20 10.0626H21.3333C21.5101 10.0626 21.6797 10.1328 21.8047 10.2578C21.9298 10.3829 22 10.5524 22 10.7292C22 10.9061 21.9298 11.0756 21.8047 11.2007C21.6797 11.3257 21.5101 11.3959 21.3333 11.3959Z" fill="#494949"/>
<path d="M20.6663 16.7292C22.1167 16.7292 23.5346 16.2991 24.7405 15.4933C25.9465 14.6875 26.8864 13.5422 27.4415 12.2022C27.9965 10.8622 28.1417 9.3877 27.8588 7.96517C27.5758 6.54265 26.8774 5.23597 25.8518 4.21039C24.8262 3.1848 23.5195 2.48637 22.097 2.20341C20.6745 1.92045 19.2 2.06568 17.86 2.62072C16.52 3.17576 15.3747 4.11569 14.5689 5.32166C13.7631 6.52762 13.333 7.94544 13.333 9.39584C13.333 11.3408 14.1056 13.206 15.4809 14.5813C16.8562 15.9566 18.7214 16.7292 20.6663 16.7292ZM20.6663 3.39584C21.853 3.39584 23.0131 3.74773 23.9998 4.40702C24.9865 5.06631 25.7555 6.00338 26.2096 7.09974C26.6637 8.19609 26.7826 9.40249 26.5511 10.5664C26.3195 11.7303 25.7481 12.7994 24.909 13.6385C24.0699 14.4776 23.0008 15.049 21.8369 15.2806C20.673 15.5121 19.4666 15.3932 18.3702 14.9391C17.2739 14.485 16.3368 13.716 15.6775 12.7293C15.0182 11.7426 14.6663 10.5825 14.6663 9.39584C14.6663 7.80454 15.2985 6.27841 16.4237 5.1532C17.5489 4.02798 19.075 3.39584 20.6663 3.39584Z" fill="#494949"/>
</g>
<defs>
<clipPath id="clip0_9086_1463">
<rect width="32" height="32" fill="white"/>
</clipPath>
</defs>
</svg>
