<svg width="512" height="512" viewBox="0 0 512 512" fill="none" xmlns="http://www.w3.org/2000/svg">
<g clip-path="url(#clip0_3714_574)">
<circle cx="256" cy="520" r="200" fill="#FFE785"/>
<path d="M509.653 361C507.72 355.303 504.68 350.045 500.708 345.527C496.735 341.01 491.909 337.322 486.507 334.675C481.105 332.028 475.233 330.476 469.229 330.106C463.224 329.736 457.206 330.556 451.52 332.52L405.333 346.92C405.98 340.944 405.356 334.899 403.503 329.181C401.65 323.462 398.61 318.2 394.582 313.739C390.553 309.277 385.628 305.718 380.128 303.293C374.628 300.867 368.677 299.632 362.667 299.667H248.533C208 272.573 173.867 278.333 106.667 278.333V267.667C106.667 264.838 105.543 262.125 103.542 260.124C101.542 258.124 98.829 257 96 257H10.6667C7.83769 257 5.12458 258.124 3.12419 260.124C1.12381 262.125 0 264.838 0 267.667L0 438.333C0 441.162 1.12381 443.875 3.12419 445.876C5.12458 447.876 7.83769 449 10.6667 449H96C98.829 449 101.542 447.876 103.542 445.876C105.543 443.875 106.667 441.162 106.667 438.333C106.667 434.6 105.707 434.813 109.76 437.16C151.718 461.31 198.635 475.564 246.936 478.836C295.238 482.108 343.648 474.311 388.48 456.04L484.48 417.107C494.911 412.571 503.274 404.305 507.93 393.928C512.587 383.55 513.201 371.807 509.653 361ZM85.3333 427.667H21.3333V278.333H85.3333V427.667ZM476.48 397.373L380.48 436.2C338.659 453.284 293.486 460.579 248.414 457.529C203.342 454.478 159.564 441.163 120.427 418.6L106.667 410.813V299.667C176.96 299.667 203.2 295.08 236.693 317.373C244.16 322.387 239.573 321 362.667 321C366.715 321.014 370.676 322.179 374.086 324.359C377.497 326.54 380.217 329.646 381.928 333.315C383.64 336.984 384.272 341.064 383.751 345.078C383.23 349.093 381.578 352.876 378.987 355.987C367.04 366.653 377.387 363.667 245.333 363.667C242.504 363.667 239.791 364.79 237.791 366.791C235.79 368.791 234.667 371.504 234.667 374.333C234.667 377.162 235.79 379.875 237.791 381.876C239.791 383.876 242.504 385 245.333 385C365.547 385 375.467 388.947 392 373.267L458.667 353C464.49 351.015 470.853 351.331 476.45 353.885C482.048 356.439 486.458 361.036 488.776 366.735C491.094 372.435 491.145 378.805 488.918 384.541C486.692 390.276 482.356 394.944 476.8 397.587L476.48 397.373Z" fill="#494949"/>
<path d="M45.7601 388.093C44.2771 389.588 43.2699 391.489 42.8654 393.555C42.4609 395.622 42.6772 397.762 43.4871 399.706C44.297 401.65 45.6642 403.311 47.4164 404.479C49.1687 405.647 51.2275 406.271 53.3334 406.271C55.4394 406.271 57.4982 405.647 59.2504 404.479C61.0026 403.311 62.3699 401.65 63.1797 399.706C63.9896 397.762 64.206 395.622 63.8015 393.555C63.397 391.489 62.3898 389.588 60.9068 388.093C59.9151 387.093 58.7354 386.299 57.4356 385.758C56.1357 385.216 54.7415 384.938 53.3334 384.938C51.9253 384.938 50.5311 385.216 49.2313 385.758C47.9314 386.299 46.7517 387.093 45.7601 388.093Z" fill="#494949"/>
<path d="M341.333 182.333H298.667C295.838 182.333 293.125 183.456 291.124 185.457C289.124 187.457 288 190.17 288 192.999C288 195.828 289.124 198.541 291.124 200.542C293.125 202.542 295.838 203.666 298.667 203.666H320V214.333C320 217.162 321.124 219.875 323.124 221.875C325.125 223.876 327.838 224.999 330.667 224.999C333.496 224.999 336.209 223.876 338.209 221.875C340.21 219.875 341.333 217.162 341.333 214.333V203.666C349.82 203.666 357.96 200.295 363.961 194.293C369.962 188.292 373.333 180.153 373.333 171.666C373.333 163.179 369.962 155.04 363.961 149.039C357.96 143.037 349.82 139.666 341.333 139.666H320C317.171 139.666 314.458 138.542 312.458 136.542C310.457 134.541 309.333 131.828 309.333 128.999C309.333 126.17 310.457 123.457 312.458 121.457C314.458 119.456 317.171 118.333 320 118.333H362.667C365.496 118.333 368.209 117.209 370.209 115.208C372.21 113.208 373.333 110.495 373.333 107.666C373.333 104.837 372.21 102.124 370.209 100.124C368.209 98.1232 365.496 96.9993 362.667 96.9993H341.333V86.3327C341.333 83.5037 340.21 80.7906 338.209 78.7902C336.209 76.7898 333.496 75.666 330.667 75.666C327.838 75.666 325.125 76.7898 323.124 78.7902C321.124 80.7906 320 83.5037 320 86.3327V96.9993C311.513 96.9993 303.374 100.371 297.373 106.372C291.371 112.373 288 120.512 288 128.999C288 137.486 291.371 145.626 297.373 151.627C303.374 157.628 311.513 160.999 320 160.999H341.333C344.162 160.999 346.875 162.123 348.876 164.124C350.876 166.124 352 168.837 352 171.666C352 174.495 350.876 177.208 348.876 179.208C346.875 181.209 344.162 182.333 341.333 182.333Z" fill="#494949"/>
<path d="M330.667 267.667C353.873 267.667 376.558 260.785 395.853 247.893C415.149 235 430.188 216.675 439.068 195.235C447.949 173.795 450.273 150.203 445.745 127.443C441.218 104.682 430.043 83.7756 413.634 67.3662C397.224 50.9568 376.318 39.7819 353.557 35.2546C330.797 30.7272 307.205 33.0508 285.765 41.9315C264.325 50.8122 246 65.8511 233.107 85.1465C220.215 104.442 213.333 127.127 213.333 150.333C213.333 181.452 225.695 211.296 247.699 233.301C269.704 255.305 299.548 267.667 330.667 267.667ZM330.667 54.3334C349.654 54.3334 368.214 59.9637 384.001 70.5123C399.788 81.0609 412.093 96.0541 419.359 113.596C426.625 131.137 428.526 150.44 424.822 169.062C421.118 187.684 411.975 204.79 398.549 218.216C385.123 231.641 368.017 240.785 349.395 244.489C330.773 248.193 311.471 246.292 293.929 239.026C276.387 231.76 261.394 219.455 250.846 203.668C240.297 187.881 234.667 169.32 234.667 150.333C234.667 124.873 244.781 100.455 262.784 82.4511C280.788 64.4476 305.206 54.3334 330.667 54.3334Z" fill="#494949"/>
</g>
<defs>
<clipPath id="clip0_3714_574">
<rect width="512" height="512" fill="white"/>
</clipPath>
</defs>
</svg>
