<svg width="512" height="512" viewBox="0 0 512 512" fill="none" xmlns="http://www.w3.org/2000/svg">
<g clip-path="url(#clip0_3714_261)">
<circle cx="256" cy="557" r="200" fill="#FFE785"/>
<path d="M469.335 44.6804C465.732 42.0721 461.49 40.4879 457.06 40.0959C452.629 39.7039 448.175 40.5187 444.171 42.4538L46.0728 231.063C41.8656 233.121 38.3179 236.314 35.831 240.283C33.3441 244.252 32.0171 248.837 32.0002 253.521C31.9832 258.204 33.2769 262.799 35.735 266.785C38.1931 270.772 41.7175 273.991 45.9098 276.079L181.652 341.577L208.21 466.181C208.517 467.628 209.22 468.962 210.241 470.034C211.261 471.105 212.559 471.873 213.99 472.251C215.421 472.629 216.928 472.603 218.345 472.175C219.761 471.748 221.032 470.935 222.014 469.829L260.385 426.657C261.748 425.064 262.432 423 262.288 420.909C262.145 418.817 261.187 416.866 259.62 415.474C258.052 414.082 256.001 413.36 253.908 413.465C251.814 413.569 249.845 414.491 248.424 416.032L220.561 447.383L199.884 350.374L403.944 448.837C407.537 450.571 411.493 451.418 415.481 451.308C419.469 451.197 423.372 450.132 426.863 448.201C430.354 446.27 433.332 443.53 435.545 440.211C437.759 436.892 439.144 433.091 439.585 429.126L479.647 67.7429C480.168 63.326 479.485 58.8504 477.669 54.7903C475.854 50.7302 472.974 47.2369 469.335 44.6804ZM423.679 427.36C423.511 428.777 423.009 430.133 422.213 431.317C421.418 432.501 420.352 433.479 419.104 434.17C417.856 434.86 416.462 435.244 415.036 435.29C413.61 435.335 412.194 435.04 410.905 434.43L201.988 333.626L386.842 138.094C387.57 137.332 388.14 136.434 388.52 135.451C388.899 134.468 389.08 133.42 389.053 132.366C389.026 131.313 388.791 130.275 388.362 129.313C387.933 128.351 387.317 127.483 386.551 126.759C385.785 126.035 384.884 125.47 383.899 125.096C382.914 124.722 381.865 124.546 380.811 124.578C379.758 124.611 378.722 124.852 377.762 125.286C376.802 125.721 375.937 126.341 375.217 127.11L186.869 326.332L52.8619 261.673C51.3555 260.926 50.0885 259.772 49.2048 258.341C48.321 256.911 47.8558 255.261 47.862 253.58C47.8681 251.899 48.3454 250.253 49.2396 248.829C50.1337 247.405 51.4091 246.26 52.9209 245.524L451.014 56.9069C452.454 56.2252 454.049 55.9399 455.636 56.0806C457.222 56.2213 458.742 56.7828 460.039 57.7072C461.336 58.6316 462.363 59.8854 463.014 61.3392C463.665 62.793 463.916 64.3941 463.741 65.9773L423.679 427.36Z" fill="#494949"/>
</g>
<defs>
<clipPath id="clip0_3714_261">
<rect width="512" height="512" fill="white"/>
</clipPath>
</defs>
</svg>
