<svg width="512" height="512" viewBox="0 0 512 512" fill="none" xmlns="http://www.w3.org/2000/svg">
<g clip-path="url(#clip0_3760_361)">
<circle cx="256" cy="557" r="200" fill="#FFE785"/>
<path d="M488.977 0H472.961C460.543 0 450.441 10.1055 450.441 22.5234V512H465.453V95.0938H496.484V140.496H511.5V22.5234C511.5 10.1055 501.398 0 488.977 0ZM465.453 80.0781V22.5234C465.453 18.3828 468.82 15.0156 472.961 15.0156H488.977C493.117 15.0156 496.484 18.3828 496.484 22.5234V80.0781H465.453Z" fill="#494949"/>
<path d="M496.484 185.539H511.5V512H496.484V185.539Z" fill="#494949"/>
<path d="M496.484 155.508H511.5V170.523H496.484V155.508Z" fill="#494949"/>
<path d="M275.27 145.641C275.27 113.906 249.449 88.0859 217.711 88.0859C185.977 88.0859 160.156 113.906 160.156 145.641C160.156 177.379 185.977 203.199 217.711 203.199C249.449 203.199 275.27 177.379 275.27 145.641ZM217.711 188.184C194.254 188.184 175.172 169.102 175.172 145.641C175.172 122.184 194.254 103.102 217.711 103.102C241.172 103.102 260.254 122.184 260.254 145.641C260.254 169.102 241.172 188.184 217.711 188.184Z" fill="#494949"/>
<path d="M282.777 198.195C251.039 198.195 225.219 224.012 225.219 255.75C225.219 287.488 251.039 313.305 282.777 313.305C314.512 313.305 340.332 287.488 340.332 255.75C340.332 224.012 314.512 198.195 282.777 198.195ZM282.777 298.293C259.316 298.293 240.234 279.207 240.234 255.75C240.234 232.293 259.316 213.207 282.777 213.207C306.234 213.207 325.316 232.293 325.316 255.75C325.316 279.207 306.234 298.293 282.777 298.293Z" fill="#494949"/>
<path d="M210.207 255.75C210.207 224.012 184.387 198.195 152.648 198.195C120.91 198.195 95.0938 224.012 95.0938 255.75C95.0938 287.488 120.91 313.305 152.648 313.305C184.387 313.305 210.207 287.488 210.207 255.75ZM152.648 298.293C129.191 298.293 110.109 279.207 110.109 255.75C110.109 232.293 129.191 213.207 152.648 213.207C176.105 213.207 195.191 232.293 195.191 255.75C195.191 279.207 176.105 298.293 152.648 298.293Z" fill="#494949"/>
<path d="M160.156 365.855C160.156 397.594 185.977 423.414 217.711 423.414C249.449 423.414 275.27 397.594 275.27 365.855C275.27 334.121 249.449 308.301 217.711 308.301C185.977 308.301 160.156 334.121 160.156 365.855V365.855ZM217.711 323.316C241.172 323.316 260.254 342.398 260.254 365.855C260.254 389.316 241.172 408.398 217.711 408.398C194.254 408.398 175.172 389.316 175.172 365.855C175.172 342.398 194.254 323.316 217.711 323.316V323.316Z" fill="#494949"/>
<path d="M87.5859 308.301C55.8477 308.301 30.0312 334.121 30.0312 365.855C30.0312 397.594 55.8477 423.414 87.5859 423.414C119.324 423.414 145.141 397.594 145.141 365.855C145.141 334.121 119.324 308.301 87.5859 308.301ZM87.5859 408.398C64.1289 408.398 45.043 389.316 45.043 365.855C45.043 342.398 64.1289 323.316 87.5859 323.316C111.043 323.316 130.129 342.398 130.129 365.855C130.129 389.316 111.043 408.398 87.5859 408.398Z" fill="#494949"/>
<path d="M427.613 329.715L427.469 329.398L338.703 174.359L325.672 181.82L414.09 336.246C418.277 345.562 420.406 355.508 420.41 365.816V365.949C420.359 405.25 386.633 438.43 346.719 438.43H155.062V453.441H346.719C370.074 453.441 392.227 444.328 409.098 427.773C426.074 411.117 435.426 389.125 435.426 365.855V365.684C435.402 353.148 432.773 341.047 427.613 329.715V329.715Z" fill="#494949"/>
<path d="M310.75 155.746L323.777 148.285L331.238 161.316L318.211 168.777L310.75 155.746Z" fill="#494949"/>
<path d="M15.0156 365.816C15.0195 355.512 17.1484 345.562 21.3359 336.246L149.312 112.727C163.316 88.2656 189.527 73.0703 217.711 73.0703C245.898 73.0703 272.109 88.2656 286.113 112.727L303.293 142.73L316.324 135.27L299.145 105.27C282.473 76.1445 251.27 58.0586 217.711 58.0586C184.156 58.0586 152.953 76.1445 136.281 105.27L8.12891 329.094L7.8125 329.715C2.63672 341.086 0.0078125 353.23 0 365.855C0 389.125 9.34766 411.117 26.3281 427.773C43.1953 444.328 65.3516 453.441 88.7031 453.441H110.02V438.43H88.7031C48.7617 438.43 15.0156 405.195 15.0156 365.816V365.816Z" fill="#494949"/>
<path d="M125.035 438.43H140.051V453.441H125.035V438.43Z" fill="#494949"/>
<path d="M290.285 365.855C290.285 397.594 316.102 423.414 347.84 423.414C379.578 423.414 405.395 397.594 405.395 365.855C405.395 334.121 379.578 308.301 347.84 308.301C316.102 308.301 290.285 334.121 290.285 365.855V365.855ZM347.84 323.316C371.297 323.316 390.383 342.398 390.383 365.855C390.383 389.316 371.297 408.398 347.84 408.398C324.383 408.398 305.297 389.316 305.297 365.855C305.297 342.398 324.383 323.316 347.84 323.316V323.316Z" fill="#494949"/>
<path d="M245.238 145.641H230.227C230.227 138.742 224.613 133.129 217.711 133.129V118.117C232.891 118.117 245.238 130.465 245.238 145.641Z" fill="#494949"/>
<path d="M115.113 365.855H100.098C100.098 358.957 94.4844 353.344 87.5859 353.344V338.332C102.766 338.332 115.113 350.68 115.113 365.855Z" fill="#494949"/>
<path d="M375.367 365.855H360.352C360.352 358.957 354.738 353.344 347.84 353.344V338.332C363.02 338.332 375.367 350.68 375.367 365.855V365.855Z" fill="#494949"/>
</g>
<defs>
<clipPath id="clip0_3760_361">
<rect width="512" height="512" fill="white"/>
</clipPath>
</defs>
</svg>
