<svg width="512" height="512" viewBox="0 0 512 512" fill="none" xmlns="http://www.w3.org/2000/svg">
<g clip-path="url(#clip0_3720_739)">
<circle cx="256" cy="520" r="200" fill="#FFE785"/>
<path d="M248 6.28204C243.1 7.86954 234.7 16.4023 233.2 21.4625C232.3 24.5383 232 48.5492 232 118.895V212.161L227.3 210.772C218.3 208.093 198.8 207.002 158 207.002C121.6 207.002 101.9 207.895 89.7001 209.978L86.0001 210.673V200.056V189.539H108.8C130.4 189.539 131.8 189.44 136 187.257C141 184.777 144.6 180.113 145.6 174.855C146.2 171.58 142.3 151.439 134.8 118.796C132.5 108.874 129.9 105.005 123.5 102.127C120.1 100.54 116.8 100.242 102.8 100.242H86.0001V96.3727C86.0001 89.4273 79.1001 86.1531 73.6001 90.4195C71.9 91.7094 70.8 93.793 70.4 96.3727L69.7001 100.242H53.3001C34.9001 100.242 32.3001 100.837 27.3001 106.493C23.5001 110.759 23.7001 110.164 16.5001 143.402C10.1001 172.374 9.90005 176.244 14.5001 182.197C19.6001 188.845 22.6 189.539 47.8 189.539H70.0001V203.926V218.213L65.8 221.091C55.8001 227.937 44.9001 241.53 40.9001 251.948C36.6 263.358 35.7001 269.609 36.4001 283.896L37 297.489L33.2001 297.985C27.3001 298.977 18.9001 303.641 13.4001 309.098C-2.79995 325.171 -2.89995 351.067 13.4001 367.538C16.2001 370.415 20.8001 373.788 23.7001 375.177L28.9001 377.559L29 418.139C29 447.012 29.4001 459.91 30.2001 462.788C31.7001 467.947 40.2001 476.48 45 477.869L48.5 478.861L49 489.874C49.5 501.78 50.4001 504.062 56.4001 508.428C58.8001 510.214 60.9001 510.512 72.0001 510.809C83.3 511.107 85.2001 510.909 88.8 509.123C94.9 506.047 95.7001 504.658 101 486.402L103.1 479.258H157.5H211.9L214 486.402C219.3 504.559 220.1 506.047 226 509.023C229.9 511.008 232.2 511.008 368 511.008H506.1L508.5 508.527L511 506.146V265.838C511 83.0774 510.7 24.6375 509.8 21.6609C509.2 19.4781 506.7 15.5094 504.3 12.9297C496.6 4.39688 506.5 4.99219 371.1 5.0914C286.9 5.19064 250.5 5.48828 248 6.28204ZM492.5 23.3477C495 25.7289 495 25.9273 495 44.1836V62.5391H371.5H248V44.1836C248 25.9273 248 25.7289 250.5 23.3477L252.9 20.8672H371.5H490.1L492.5 23.3477ZM363 286.773V495.133H314.5H265.9L266.2 486.997L266.5 478.861L270 477.869C274.8 476.48 283.3 467.947 284.8 462.788C285.6 459.91 286 447.012 286 418.139L286.1 377.559L291.3 375.177C301.3 370.514 309.5 359.997 312.6 348.289C318 327.354 305.4 305.129 284.5 298.779C278.9 296.993 278.5 296.695 278.7 294.116C279.7 281.713 279.2 266.83 277.6 260.977C273.8 246.788 264.7 232.898 253.7 224.266L248 219.801V149.058V78.4141H305.5H363V286.773ZM495 231.211V384.008H437H379V231.211V78.4141H437H495V231.211ZM118.3 118.3C121.5 131.099 129.9 171.977 129.5 172.771C129.1 173.267 108.8 173.664 78.4 173.664C36.3001 173.664 27.8001 173.466 27.4001 172.275C27 171.184 34.9001 132.091 38.1 119.788L39.1 116.117H78.4H117.8L118.3 118.3ZM196.5 223.373C207 223.869 218.3 225.059 221.8 225.754C239.6 229.822 255.5 244.407 261.1 261.87C263.4 268.914 264 284.789 262.3 293.62C261.5 297.588 261.2 297.985 256.5 299.771C246 303.74 237.2 312.57 232.9 323.484C231.1 327.85 230.6 331.62 230.2 342.534L229.8 356.227H157.5H85.2001L84.8 342.534C84.4 331.62 83.9 327.85 82.1001 323.484C77.8 312.57 68.9 303.641 58.8001 299.97C56.2001 298.977 53.8001 297.588 53.5001 296.894C52.2001 293.421 51.8001 273.081 53.0001 267.426C56.7001 249.269 70.1001 233.89 87.8 227.54C100.4 222.976 153.3 220.991 196.5 223.373ZM54.5001 315.348C59.2001 317.73 64 322.591 66.6001 327.453C68.3 330.628 68.5001 334.299 69.0001 366.843C69.5001 401.073 69.6001 402.859 71.6001 405.439C72.7001 406.927 74.9 409.11 76.4 410.202C79.1001 412.285 79.9 412.285 157.5 412.285C235.1 412.285 235.9 412.285 238.6 410.202C240.1 409.11 242.3 406.927 243.4 405.439C245.4 402.859 245.5 401.073 246 366.843C246.5 332.414 246.6 330.727 248.7 326.957C251.2 322.294 256.1 317.432 261 314.952C266.2 312.273 278.2 312.372 283.5 315.249C291.6 319.516 296.8 327.056 297.7 335.887C299 348.488 289.8 360.89 277.3 363.668C275.5 363.966 273.1 365.454 272 366.843C270.1 369.323 270 370.812 270 413.972V458.521L267.5 460.902L265.1 463.383H157.5H49.9L47.5 460.902L45 458.521V413.972C45 371.109 44.9001 369.323 43 366.942C41.9001 365.454 39.2001 363.966 36.6 363.271C30.7001 361.882 24.2001 356.822 20.5001 350.77C17.8001 346.503 17.5001 345.114 17.5001 338.466C17.5001 330.132 19.0001 326.362 24.4001 320.706C27.5001 317.333 31.4 314.952 36 313.463C40.1 312.074 50.2001 313.166 54.5001 315.348ZM230 384.504V396.906H157.5H85.0001V384.504V372.102H157.5H230V384.504ZM495 445.027V490.271L492.5 492.652L490.1 495.133H434.5H379V447.508V399.883H437H495V445.027ZM85.5001 481.937C85.2001 483.524 84.2001 487.096 83.4 489.874L81.9 495.133H73.4H65V487.195V479.258H75.6001H86.2001L85.5001 481.937ZM250 487.195V495.133H241.6H233.1L231.6 489.874C230.8 487.096 229.8 483.524 229.5 481.937L228.8 479.258H239.4H250V487.195Z" fill="#494949"/>
<path d="M327.3 160.17L324.5 162.552V197.973V233.394L327.3 235.775C328.8 237.065 331.2 238.156 332.5 238.156C333.8 238.156 336.2 237.065 337.7 235.775L340.5 233.394V197.973V162.552L337.7 160.17C336.2 158.88 333.8 157.789 332.5 157.789C331.2 157.789 328.8 158.88 327.3 160.17Z" fill="#494949"/>
<path d="M405.3 160.17L402.5 162.552V197.973V233.394L405.3 235.775C406.8 237.065 409.2 238.156 410.5 238.156C411.8 238.156 414.2 237.065 415.7 235.775L418.5 233.394V197.973V162.552L415.7 160.17C414.2 158.88 411.8 157.789 410.5 157.789C409.2 157.789 406.8 158.88 405.3 160.17Z" fill="#494949"/>
<path d="M39.3001 332.612C38.1001 333.208 36.6001 334.894 35.9001 336.482C32.7001 344.221 42.6001 350.769 48.5001 344.816C55.0001 338.466 47.7001 328.644 39.3001 332.612Z" fill="#494949"/>
<path d="M268.3 332.612C267.1 333.208 265.6 334.894 264.9 336.482C261.7 344.221 271.6 350.769 277.5 344.816C284 338.466 276.7 328.644 268.3 332.612Z" fill="#494949"/>
<path d="M410.5 426.176C408.9 427.664 408 429.748 408 431.633C408 433.518 408.9 435.602 410.5 437.09L412.9 439.57H437H461.1L463.5 437.09C465.1 435.602 466 433.518 466 431.633C466 429.748 465.1 427.664 463.5 426.176L461.1 423.695H437H412.9L410.5 426.176Z" fill="#494949"/>
</g>
<defs>
<clipPath id="clip0_3720_739">
<rect width="512" height="512" fill="white"/>
</clipPath>
</defs>
</svg>
