<svg width="196" height="196" viewBox="0 0 196 196" fill="none" xmlns="http://www.w3.org/2000/svg">
<g clip-path="url(#clip0_4072_3494)">
<circle cx="98" cy="213.227" r="76.5625" fill="#FFE785"/>
<path d="M140.109 151.594C137.996 151.594 136.281 153.309 136.281 155.422C136.281 157.535 137.996 159.25 140.109 159.25C142.222 159.25 143.938 157.535 143.938 155.422C143.938 153.309 142.222 151.594 140.109 151.594Z" fill="#494949"/>
<path d="M149.535 139.215L131.34 133.151L124.808 120.087C130.693 114.097 134.778 106.172 136.156 97.9062L136.971 93.0234H143.938C150.27 93.0234 155.422 87.8715 155.422 81.5391V57.4219C155.422 25.7595 129.662 0 98 0C66.2564 0 40.5781 25.6856 40.5781 57.4219V81.5391C40.5781 86.5294 43.7788 90.7847 48.2344 92.365V96.8516C48.2344 103.184 53.3863 108.336 59.7188 108.336H63.0806C64.7401 111.941 66.8881 115.28 69.5019 118.279C70.044 118.902 70.6094 119.506 71.1886 120.094L64.6601 133.151L46.4646 139.215C25.3085 146.27 9.95312 168.541 9.95312 192.172C9.95312 194.286 11.667 196 13.7812 196H182.219C184.333 196 186.047 194.286 186.047 192.172C186.047 168.541 170.692 146.27 149.535 139.215ZM147.766 81.5391C147.766 83.6499 146.048 85.3672 143.938 85.3672H138.095C139.068 77.8296 139.717 69.8085 139.977 61.9084C139.985 61.6856 139.991 61.469 139.998 61.25H147.766V81.5391ZM52.0625 85.3672C49.9517 85.3672 48.2344 83.6499 48.2344 81.5391V61.25H56.0047C56.0173 61.6493 56.0307 62.0505 56.0457 62.4543C56.046 62.4681 56.0468 62.4815 56.0472 62.4953C56.0472 62.4964 56.0472 62.4976 56.0472 62.4987C56.3152 70.1825 56.9552 77.9954 57.9061 85.3668H52.0625V85.3672ZM59.7188 100.68C57.6079 100.68 55.8906 98.9624 55.8906 96.8516V93.0234H59.0289L59.8435 97.9077C59.999 98.8361 60.19 99.7609 60.4109 100.68H59.7188ZM55.8971 53.5938H48.3798C50.3188 27.9373 71.7303 7.65625 98 7.65625C124.153 7.65625 145.659 27.9346 147.62 53.5938H140.103C139.828 32.4522 122.611 15.3125 101.427 15.3125H94.5742C73.3897 15.3125 56.1724 32.4522 55.8971 53.5938ZM94.5738 22.9688H101.426C118.58 22.9688 132.463 36.9992 132.453 54.1335C132.453 55.3382 132.444 56.3871 132.423 57.3415C132.423 57.3537 132.423 57.3664 132.423 57.379L127.635 56.6949C114.627 54.8375 102.345 48.6964 93.0506 39.4025C92.3325 38.6847 91.359 38.2812 90.3438 38.2812C80.0629 38.2812 70.2216 42.9653 63.7161 50.8788C65.3193 35.2911 78.4969 22.9688 94.5738 22.9688ZM68.3473 100.68C66.431 94.3047 64.2382 75.5469 63.7536 63.5266L68.9059 56.6566C73.6378 50.3494 80.9997 46.4306 88.8309 45.9808C99.135 55.7869 112.465 62.2625 126.552 64.2738L132.188 65.0793C131.811 73.0743 131.041 81.0973 129.938 88.476C129.938 88.4783 129.938 88.481 129.937 88.4837C129.587 90.856 129.31 92.3826 128.604 96.6468C126.577 108.807 117.504 119.803 105.526 122.798C100.596 124.029 95.403 124.028 90.4762 122.798C82.9972 120.928 76.1395 115.753 71.7138 108.336H79.5178C81.0981 112.791 85.353 115.992 90.3438 115.992H98C104.345 115.992 109.484 110.853 109.484 104.508C109.484 98.1753 104.332 93.0234 98 93.0234H90.3438C85.242 93.0234 81.0498 96.3187 79.5113 100.68H68.3473ZM90.0218 130.545C92.6475 131.098 95.3245 131.381 98 131.381C100.094 131.381 102.189 131.206 104.26 130.866L97.4958 138.02L90.0218 130.545ZM92.2329 143.585L80.0909 156.425C76.7482 150.027 73.8759 143.368 71.5201 136.551L76.0798 127.431L92.2329 143.585ZM119.271 126.134L124.479 136.55C122.119 143.379 119.246 150.04 115.907 156.431L102.911 143.435L119.271 126.134ZM86.5156 104.508C86.5156 102.394 88.2299 100.68 90.3438 100.68H98C100.111 100.68 101.828 102.397 101.828 104.508C101.828 106.622 100.114 108.336 98 108.336H90.3438C88.2329 108.336 86.5156 106.619 86.5156 104.508ZM17.7625 188.344C19.2796 169.38 31.9005 152.142 48.8859 146.478L65 141.108C67.9523 149.272 71.6097 157.206 75.896 164.743C75.9033 164.756 75.9102 164.769 75.9175 164.782C75.9175 164.782 75.9178 164.782 75.9178 164.782C79.0496 170.291 82.5746 175.673 86.3962 180.784L91.1055 188.344H17.7625ZM98 184.931L92.8083 176.596C92.7501 176.503 92.6881 176.412 92.6222 176.324C89.5222 172.189 86.6305 167.864 83.9967 163.438L97.649 149.001L112.034 163.386C109.383 167.845 106.481 172.187 103.379 176.323C103.191 176.573 103.457 176.179 98 184.931ZM104.894 188.344L109.603 180.784C113.442 175.654 116.992 170.228 120.155 164.655C120.174 164.622 120.192 164.587 120.212 164.553C120.214 164.549 120.216 164.545 120.218 164.541C124.45 157.076 128.07 149.211 131 141.108L147.114 146.478C164.099 152.142 176.72 169.38 178.238 188.344H104.894Z" fill="#494949"/>
<path d="M166.734 172.852C164.176 167.731 160.428 163.181 155.897 159.695C154.221 158.406 151.818 158.719 150.529 160.395C149.239 162.071 149.553 164.474 151.228 165.764C154.848 168.548 157.84 172.182 159.884 176.273C160.831 178.168 163.132 178.93 165.02 177.987C166.911 177.042 167.678 174.743 166.734 172.852Z" fill="#494949"/>
</g>
<defs>
<clipPath id="clip0_4072_3494">
<rect width="196" height="196" fill="white"/>
</clipPath>
</defs>
</svg>
