<svg width="512" height="512" viewBox="0 0 512 512" fill="none" xmlns="http://www.w3.org/2000/svg">
<g clip-path="url(#clip0_3760_196)">
<circle cx="256" cy="512" r="200" fill="#FFE785"/>
<g clip-path="url(#clip1_3760_196)">
<path d="M495.672 336.975C486.209 344.511 472.979 344.526 463.506 337.007L463.359 336.891C446.549 323.549 423.086 323.576 406.3 336.943C396.821 344.493 383.577 344.496 374.094 336.944C374.078 336.931 374.062 336.918 374.044 336.905C357.261 323.574 333.823 323.565 317.037 336.888L316.851 337.034C307.393 344.543 294.177 344.543 284.731 337.048L284.533 336.891C267.723 323.552 244.259 323.574 227.436 336.972C217.972 344.512 204.742 344.525 195.267 337.002L195.087 336.86C178.304 323.537 154.86 323.539 138.053 336.882L137.906 337C128.427 344.526 115.195 344.516 105.69 336.946C88.9054 323.574 65.4395 323.551 48.6117 336.905L48.4527 337.031C38.9929 344.54 25.7767 344.539 16.3149 337.03C11.9885 333.597 5.7003 334.32 2.26675 338.646C-1.1668 342.971 -0.442893 349.26 3.88254 352.694C20.6623 366.012 44.1043 366.013 60.8971 352.683L61.0551 352.557C70.5338 345.036 83.7641 345.046 93.2668 352.616C110.056 365.993 133.528 366.01 150.363 352.642L150.509 352.525C159.973 345.01 173.192 345.01 182.65 352.519L182.83 352.661C199.64 366.007 223.105 365.984 239.932 352.584C249.396 345.047 262.626 345.033 272.086 352.542L272.284 352.699C280.676 359.357 290.728 362.686 300.784 362.686C310.836 362.685 320.89 359.357 329.275 352.702L329.461 352.556C338.938 345.035 352.167 345.045 361.632 352.582C361.649 352.596 361.665 352.608 361.682 352.622C378.496 365.978 401.957 365.963 418.758 352.584C428.223 345.046 441.451 345.032 450.924 352.551L451.071 352.668C467.881 366.007 491.345 365.986 508.131 352.616C512.449 349.175 513.162 342.885 509.722 338.565C506.282 334.246 499.992 333.533 495.672 336.975V336.975Z" fill="#494949"/>
<path d="M495.672 411.631C486.207 419.167 472.979 419.181 463.506 411.664L463.359 411.548C446.548 398.207 423.084 398.231 406.3 411.599C396.821 419.152 383.577 419.152 374.094 411.601C374.078 411.588 374.063 411.576 374.046 411.563C357.262 398.23 333.823 398.223 317.01 411.565L316.851 411.692C307.393 419.2 294.176 419.199 284.707 411.685L284.534 411.548C267.725 398.209 244.261 398.231 227.474 411.599C227.457 411.613 227.429 411.635 227.402 411.658C217.939 419.169 204.73 419.172 195.24 411.637L195.088 411.518C178.306 398.195 154.862 398.197 138.055 411.54L137.909 411.657C128.43 419.183 115.197 419.173 105.692 411.603C88.9042 398.23 65.4363 398.209 48.6135 411.563L48.4555 411.689C38.9918 419.198 25.7785 419.197 16.3167 411.688C11.9923 408.255 5.70213 408.978 2.26958 413.303C-1.16397 417.627 -0.441063 423.917 3.88437 427.35C20.6622 440.671 44.1041 440.67 60.8989 427.341L61.0569 427.215C70.5356 419.694 83.7659 419.704 93.2687 427.273C110.057 440.647 133.527 440.667 150.365 427.3L150.511 427.183C159.974 419.669 173.191 419.668 182.679 427.198L182.831 427.318C199.641 440.662 223.106 440.641 239.895 427.271C239.912 427.257 239.939 427.235 239.966 427.213C249.427 419.702 262.637 419.701 272.112 427.22L272.285 427.356C280.674 434.012 290.722 437.341 300.777 437.341C310.836 437.34 320.901 434.006 329.302 427.339L329.46 427.212C338.938 419.692 352.167 419.702 361.632 427.239C361.649 427.253 361.666 427.266 361.684 427.28C378.498 440.635 401.958 440.619 418.758 427.24C428.223 419.701 441.451 419.69 450.924 427.208L451.071 427.325C467.881 440.664 491.345 440.642 508.13 427.272C512.449 423.832 513.162 417.541 509.722 413.221C506.282 408.904 499.991 408.191 495.672 411.631Z" fill="#494949"/>
<path d="M3.8836 278.036C12.2755 284.698 22.3322 288.028 32.3889 288.028C42.4396 288.028 52.4892 284.7 60.8711 278.048L61.0571 277.902C70.5359 270.381 83.7661 270.39 93.2689 277.96C110.058 291.336 133.528 291.355 150.365 277.987L150.512 277.869C159.973 270.355 173.191 270.354 182.679 277.885L182.831 278.005C199.641 291.351 223.106 291.329 239.896 277.958C239.913 277.944 239.94 277.923 239.966 277.9C249.428 270.388 262.637 270.387 272.113 277.907L272.285 278.043C289.066 291.359 312.504 291.358 329.302 278.026L329.461 277.899C338.938 270.378 352.165 270.389 361.632 277.926C361.647 277.939 361.662 277.95 361.678 277.963C378.493 291.321 401.956 291.309 418.758 277.927C428.223 270.389 441.451 270.377 450.924 277.894L451.071 278.012C467.882 291.352 491.345 291.328 508.131 277.959C512.449 274.519 513.162 268.229 509.722 263.908C506.282 259.589 499.992 258.876 495.671 262.316C486.208 269.852 472.978 269.865 463.505 262.35L463.358 262.233C446.55 248.893 423.086 248.915 406.299 262.284C396.82 269.836 383.576 269.838 374.093 262.286C374.081 262.276 374.071 262.267 374.059 262.259C370.496 259.427 366.631 257.201 362.594 255.57C361.457 248.806 359.719 242.141 357.421 235.673C362.487 237.049 367.808 237.797 373.304 237.797C406.754 237.797 433.967 210.583 433.967 177.134C433.967 143.684 406.754 116.471 373.304 116.471C354.488 116.471 337.644 125.082 326.508 138.572V121.34C326.508 115.552 329.395 110.196 334.23 107.015L392.747 68.4998C409.13 57.7162 414.362 35.9181 404.659 18.8743C399.595 9.97645 391.34 3.68828 381.415 1.16861C371.489 -1.35306 361.235 0.236728 352.539 5.64302L302.611 36.672C296.816 40.2735 291.289 44.377 286.182 48.8704C282.036 52.5179 281.631 58.8361 285.28 62.9815C288.926 67.128 295.245 67.5309 299.391 63.8834C303.672 60.1159 308.307 56.6753 313.165 53.6557L363.094 22.6268C367.128 20.1191 371.887 19.3822 376.493 20.5511C381.098 21.7199 384.93 24.6385 387.279 28.768C391.782 36.677 389.353 46.7916 381.751 51.795L323.235 90.3099C312.762 97.203 306.51 108.803 306.51 121.34V186.11C306.51 188.097 307.103 190.041 308.211 191.69L327.627 220.567C334.124 230.229 338.853 241.091 341.559 252.424C332.852 253.187 324.307 256.459 317.009 262.25L316.85 262.377C307.391 269.885 294.175 269.884 284.705 262.37L284.532 262.233C267.723 248.893 244.259 248.915 227.472 262.284C227.455 262.298 227.426 262.321 227.399 262.344C217.937 269.853 204.728 269.857 195.239 262.323L195.087 262.204C188.23 256.761 180.263 253.546 172.091 252.552L259.964 189.922C262.597 188.045 264.16 185.013 264.16 181.779V141.813C264.16 139.97 264.209 138.117 264.306 136.302C264.597 130.787 260.365 126.079 254.851 125.786C249.333 125.508 244.628 129.727 244.335 135.241C244.221 137.407 244.162 139.618 244.162 141.812V176.626L116.741 267.442C112.815 266.645 109.022 264.941 105.69 262.287C88.9045 248.916 65.4375 248.894 48.6377 262.226L48.4518 262.372C38.99 269.881 25.7757 269.881 16.314 262.372C11.9895 258.939 5.69936 259.662 2.26681 263.987C-1.16474 268.315 -0.442836 274.604 3.8836 278.036V278.036ZM373.304 136.467C395.727 136.467 413.97 154.71 413.97 177.133C413.97 199.556 395.727 217.798 373.304 217.798C350.881 217.798 332.639 199.556 332.639 177.133C332.639 154.71 350.881 136.467 373.304 136.467Z" fill="#494949"/>
<path d="M495.672 486.291C486.209 493.827 472.979 493.842 463.506 486.323L463.359 486.207C446.551 472.868 423.087 472.891 406.3 486.259C396.842 493.791 383.64 493.812 374.164 486.317C374.14 486.296 374.114 486.277 374.09 486.257C357.303 472.889 333.838 472.87 317.011 486.225L316.853 486.352C307.392 493.859 294.177 493.86 284.732 486.365L284.534 486.207C267.723 472.87 244.26 472.892 227.437 486.289C217.973 493.829 204.743 493.842 195.267 486.319L195.088 486.177C178.305 472.853 154.861 472.857 138.081 486.179L137.906 486.318C128.427 493.844 115.195 493.835 105.69 486.263C88.9004 472.892 65.4345 472.869 48.6117 486.223L48.4527 486.349C38.9929 493.858 25.7767 493.857 16.3149 486.348C11.9885 482.914 5.7003 483.638 2.26675 487.964C-1.1668 492.289 -0.442893 498.578 3.88254 502.012C20.6623 515.331 44.1043 515.332 60.8971 502.001L61.0551 501.875C70.5328 494.354 83.7631 494.366 93.2668 501.934C110.058 515.312 133.53 515.327 150.335 501.982L150.51 501.843C159.974 494.329 173.192 494.329 182.65 501.837L182.83 501.979C199.64 515.325 223.105 515.302 239.932 501.902C249.396 494.363 262.624 494.352 272.086 501.86L272.284 502.017C280.672 508.673 290.72 512.002 300.776 512.001C310.835 512 320.9 508.667 329.301 502L329.46 501.873C338.915 494.369 352.103 494.363 361.563 501.846C361.586 501.866 361.61 501.885 361.634 501.904C378.448 515.295 401.938 515.295 418.756 501.902C428.22 494.365 441.448 494.351 450.922 501.869L451.069 501.986C467.879 515.325 491.343 515.304 508.129 501.934C512.447 498.493 513.16 492.203 509.72 487.883C506.282 483.563 499.992 482.851 495.672 486.291Z" fill="#494949"/>
<path d="M265.549 102.193C268.189 102.193 270.759 101.124 272.628 99.2631C274.488 97.4033 275.548 94.8237 275.548 92.194C275.548 89.5643 274.488 86.9847 272.628 85.1149C270.769 83.2562 268.189 82.1953 265.549 82.1953C262.92 82.1953 260.34 83.2562 258.48 85.1149C256.621 86.9847 255.561 89.5643 255.561 92.194C255.561 94.8237 256.621 97.4033 258.48 99.2631C260.35 101.124 262.92 102.193 265.549 102.193V102.193Z" fill="#494949"/>
</g>
</g>
<defs>
<clipPath id="clip0_3760_196">
<rect width="512" height="512" fill="white"/>
</clipPath>
<clipPath id="clip1_3760_196">
<rect width="512" height="512" fill="white"/>
</clipPath>
</defs>
</svg>
