<svg width="512" height="512" viewBox="0 0 512 512" fill="none" xmlns="http://www.w3.org/2000/svg">
<g clip-path="url(#clip0_3714_301)">
<circle cx="256" cy="557" r="200" fill="#FFE785"/>
<path d="M500.29 317.827L355.097 221.306L277.742 272.73C271.335 267.056 263.786 262.831 255.504 260.444L189.935 241.532V224.907C198.665 217.899 205.569 208.722 209.847 198.194H214.71C232.927 198.194 247.742 183.379 247.742 165.161V83.5968C247.742 60.5484 232.645 40.4476 210.754 33.9073L203.206 26.3589C186.202 9.3629 163.601 0 139.552 0C89.9314 0 49.5484 40.3831 49.5484 90.004V165.161C49.5484 183.379 64.3629 198.194 82.5806 198.194H87.4435C91.7218 208.722 98.625 217.899 107.355 224.907V241.532L41.7863 260.444C17.1855 267.544 0 290.379 0 315.988V429.419H50.7218C54.4113 443.633 67.2298 454.194 82.5806 454.194H241.431L247.742 451.04V512H462.452V362.093L469.431 366.734C473.996 369.927 479.363 371.613 484.94 371.613C499.859 371.613 512 359.472 512 344.552V340.117C512 331.282 507.681 322.988 500.29 317.827ZM263.274 282.351L209.738 317.944C202.512 322.988 198.194 331.282 198.194 340.117V344.552C198.194 359.472 210.335 371.613 225.254 371.613C230.879 371.613 236.27 369.903 240.673 366.79L247.742 362.093V391.282L241.431 388.129H179.859L166.044 332.859L181.371 317.532L194.468 328.012L212.415 265.198L250.94 276.315C255.395 277.605 259.524 279.702 263.274 282.351ZM231.226 404.645V437.677H115.613V404.645H231.226ZM148.645 291.351L168.399 307.149L153.484 322.065H143.806L128.891 307.149L148.645 291.351ZM146.835 338.581H150.464L162.851 388.129H134.44L146.835 338.581ZM247.742 432.573V409.75L270.569 421.161L247.742 432.573ZM196.54 260.625L185.403 299.609L161.008 280.097L184.073 257.032L196.54 260.625ZM214.71 181.677H214.141C214.48 178.968 214.71 176.218 214.71 173.419V148.645C223.819 148.645 231.226 156.052 231.226 165.161C231.226 174.27 223.819 181.677 214.71 181.677ZM139.552 16.5161C159.181 16.5161 177.641 24.1613 191.52 38.0363L202.222 48.746L204.452 49.2944C220.218 53.2379 231.226 67.3427 231.226 83.5968V136.722C226.347 133.879 220.754 132.129 214.71 132.129V123.871L214.496 115.637L206.262 115.613C181.48 115.548 156.911 107.331 137.085 92.4839L130.121 87.2702L122.391 98.7903C115.323 109.319 103.532 115.613 90.8387 115.613H82.5806V132.129C76.5363 132.129 70.9435 133.879 66.0645 136.722V90.004C66.0645 49.4839 99.0323 16.5161 139.552 16.5161ZM82.5806 181.677C73.4718 181.677 66.0645 174.27 66.0645 165.161C66.0645 156.052 73.4718 148.645 82.5806 148.645V173.419C82.5806 176.218 82.8105 178.968 83.1492 181.677H82.5806ZM99.0968 173.419V131.508C113.02 129.379 125.621 121.948 134.226 110.633C153.286 123.02 175.492 130.395 198.194 131.855V173.419C198.194 200.746 175.972 222.968 148.645 222.968C121.319 222.968 99.0968 200.746 99.0968 173.419ZM148.645 239.484C157.407 239.484 165.766 237.734 173.419 234.621V244.323L148.645 269.097L123.871 244.323V234.621C131.524 237.734 139.883 239.484 148.645 239.484ZM113.218 257.024L136.282 280.089L111.887 299.601L100.75 260.625L113.218 257.024ZM50.7218 412.903H16.5161V315.988C16.5161 297.702 28.7863 281.395 46.3589 276.315L84.875 265.198L102.823 328.004L115.919 317.524L131.246 332.851L117.431 388.129H82.5806V355.097H66.0645V392.722C58.5564 397.105 52.9597 404.29 50.7218 412.903ZM66.0645 421.161C66.0645 412.052 73.4718 404.645 82.5806 404.645H99.0968V437.677H82.5806C73.4718 437.677 66.0645 430.27 66.0645 421.161ZM445.935 495.484H264.258V442.782L307.496 421.161L264.258 399.54V351.109L355.097 290.694L445.935 351.109V495.484ZM495.484 344.552C495.484 350.363 490.75 355.097 484.94 355.097C482.75 355.097 480.645 354.427 478.851 353.165L355.097 270.855L231.351 353.165C229.548 354.427 227.444 355.097 225.254 355.097C219.444 355.097 214.71 350.363 214.71 344.552V340.117C214.71 336.681 216.387 333.444 219.044 331.593L355.097 241.145L490.984 331.48C493.806 333.444 495.484 336.681 495.484 340.117V344.552Z" fill="#494949"/>
<path d="M280.774 363.355V396.387H297.29V379.871H367.194L337.302 424.722L319.645 407.065L307.968 418.742L339.859 450.633L387.04 379.871H412.903V462.452H297.29V445.936H280.774V478.968H429.419V363.355H398.056L411.516 343.165L397.774 333.996L378.202 363.355H280.774Z" fill="#494949"/>
</g>
<defs>
<clipPath id="clip0_3714_301">
<rect width="512" height="512" fill="white"/>
</clipPath>
</defs>
</svg>
