<svg width="512" height="512" viewBox="0 0 512 512" fill="none" xmlns="http://www.w3.org/2000/svg">
<g clip-path="url(#clip0_3760_623)">
<circle cx="256" cy="512" r="200" fill="#FFE785"/>
<path d="M314.927 311.855C315.207 311.855 315.491 311.855 315.767 311.851C356.015 311.595 397.963 292.235 430.847 258.735C465.363 223.567 484.731 179.755 483.983 138.523C483.427 107.899 471.931 81.1026 450.739 61.0266C397.327 10.4266 314.227 18.8866 253.139 81.1346C190.519 144.955 182.123 228.071 233.175 278.775C254.983 300.427 283.231 311.855 314.927 311.855ZM228.463 261.123L235.995 253.591L256.339 273.935L248.599 281.675C245.203 279.035 241.927 276.191 238.811 273.099C234.991 269.303 231.571 265.287 228.463 261.123V261.123ZM414.011 64.2626L393.995 84.2786L373.651 63.9346L393.047 44.5386L414.011 64.2626ZM400.931 40.9666C409.675 43.6066 418.103 47.3466 426.079 52.1946L419.671 58.6026L400.931 40.9666ZM267.651 273.935L287.995 253.591L308.339 273.935L287.995 294.279L267.651 273.935ZM281.175 298.771C271.947 295.863 263.227 291.751 255.167 286.423L261.999 279.591L281.175 298.771ZM263.995 173.591L284.339 193.935L261.995 216.279L241.651 195.935L263.995 173.591ZM235.995 190.279L215.651 169.935L237.995 147.591L258.339 167.935L235.995 190.279ZM473.999 119.587C475.183 125.739 475.867 132.103 475.987 138.671C476.139 147.051 475.355 155.555 473.787 164.071L451.651 141.935L473.999 119.587ZM468.339 169.935L447.995 190.279L425.651 167.935L445.995 147.591L468.339 169.935ZM419.995 162.279L399.651 141.935L419.995 121.591L440.339 141.935L419.995 162.279ZM295.651 193.935L315.995 173.591L336.339 193.935L315.995 214.279L295.651 193.935ZM310.339 219.935L287.995 242.279L267.651 221.935L289.995 199.591L310.339 219.935ZM321.651 167.935L341.995 147.591L362.339 167.935L341.995 188.279L321.651 167.935ZM341.995 199.591L362.339 219.935L341.995 240.279L321.651 219.935L341.995 199.591ZM347.651 193.935L367.995 173.591L388.339 193.935L367.995 214.279L347.651 193.935ZM373.651 167.935L393.995 147.591L414.339 167.935L393.995 188.279L373.651 167.935ZM393.995 136.279L373.651 115.935L393.995 95.5906L414.339 115.935L393.995 136.279ZM388.339 141.935L367.995 162.279L347.651 141.935L367.995 121.591L388.339 141.935ZM341.995 136.279L321.651 115.935L341.995 95.5906L362.339 115.935L341.995 136.279ZM336.339 141.935L315.995 162.279L295.651 141.935L315.995 121.591L336.339 141.935ZM310.339 167.935L289.995 188.279L269.651 167.935L289.995 147.591L310.339 167.935ZM256.339 221.935L235.995 242.279L215.651 221.935L235.995 201.591L256.339 221.935ZM261.995 227.591L282.339 247.935L261.995 268.279L241.651 247.935L261.995 227.591ZM293.651 247.935L315.995 225.591L336.339 245.935L313.995 268.279L293.651 247.935ZM341.995 251.591L364.339 273.935L341.995 296.279L319.651 273.935L341.995 251.591ZM369.995 279.591L378.211 287.807C369.307 292.331 360.187 295.963 350.979 298.607L369.995 279.591ZM375.651 273.935L395.995 253.591L409.635 267.231C401.923 273.523 393.867 279.091 385.563 283.847L375.651 273.935ZM369.995 268.279L347.651 245.935L367.995 225.591L390.339 247.935L369.995 268.279ZM373.651 219.935L393.995 199.591L416.339 221.935L395.995 242.279L373.651 219.935ZM399.651 193.935L419.995 173.591L442.339 195.935L421.995 216.279L399.651 193.935ZM447.995 201.591L456.943 210.539C452.343 218.955 446.955 227.183 440.827 235.111L427.651 221.935L447.995 201.591ZM453.651 195.935L470.011 179.575C467.619 187.479 464.539 195.339 460.787 203.075L453.651 195.935ZM467.583 114.691L445.995 136.279L425.651 115.935L446.623 94.9626L467.583 114.691ZM452.283 89.3026L458.819 82.7666C463.811 90.0826 467.743 98.0386 470.579 106.519L452.283 89.3026ZM419.995 110.279L399.651 89.9346L419.835 69.7506L440.795 89.4786L419.995 110.279ZM388.339 89.9346L367.995 110.279L347.651 89.9346L367.995 69.5906L388.339 89.9346ZM341.995 84.2786L321.651 63.9346L341.995 43.5906L362.339 63.9346L341.995 84.2786ZM315.995 58.2786L308.339 50.6226C316.539 46.6346 324.847 43.4266 333.187 41.0866L315.995 58.2786ZM310.339 63.9346L289.995 84.2786L276.523 70.8066C284.423 64.5146 292.575 59.0786 300.891 54.4866L310.339 63.9346ZM315.995 69.5906L336.339 89.9346L315.995 110.279L295.651 89.9346L315.995 69.5906ZM310.339 115.935L289.995 136.279L269.651 115.935L289.995 95.5906L310.339 115.935ZM284.339 141.935L263.995 162.279L243.651 141.935L263.995 121.591L284.339 141.935ZM237.995 136.279L228.343 126.627C233.055 118.427 238.571 110.351 244.883 102.483L258.339 115.935L237.995 136.279ZM232.339 141.935L213.547 160.727C216.211 151.775 219.815 142.811 224.351 133.947L232.339 141.935ZM210.007 175.603L230.339 195.935L209.995 216.279L209.499 215.783L209.379 215.903C207.283 202.939 207.519 189.363 210.007 175.603V175.603ZM230.339 247.935L223.839 254.435C219.079 246.867 215.419 238.811 212.807 230.407L230.339 247.935ZM315.719 303.851C308.979 303.895 302.411 303.359 296.023 302.303L293.651 299.935L313.995 279.591L336.367 301.963C329.467 303.155 322.567 303.811 315.719 303.851V303.851ZM425.139 253.131C422.091 256.239 418.939 259.175 415.739 262.023L401.651 247.935L421.995 227.591L435.783 241.379C432.415 245.387 428.883 249.319 425.139 253.131ZM453.979 76.2946L446.459 83.8146L425.499 64.0866L432.911 56.6746C437.183 59.7226 441.303 63.0986 445.247 66.8346C448.399 69.8266 451.295 72.9946 453.979 76.2946V76.2946ZM368.039 36.1586C373.955 36.1586 379.811 36.6226 385.579 37.5026L387.223 39.0506L367.995 58.2786L347.651 37.9346L347.723 37.8626C354.535 36.7426 361.323 36.1586 368.039 36.1586ZM258.851 86.7346C262.599 82.9146 266.443 79.3346 270.347 75.9426L284.339 89.9346L263.995 110.279L250.039 96.3226C252.847 93.0866 255.763 89.8826 258.851 86.7346V86.7346Z" fill="#494949"/>
<path d="M415.995 343.934C371.883 343.934 335.995 379.822 335.995 423.934C335.995 468.046 371.883 503.934 415.995 503.934C460.107 503.934 495.995 468.046 495.995 423.934C495.995 379.822 460.107 343.934 415.995 343.934ZM415.995 495.934C376.295 495.934 343.995 463.634 343.995 423.934C343.995 384.234 376.295 351.934 415.995 351.934C455.695 351.934 487.995 384.234 487.995 423.934C487.995 463.634 455.695 495.934 415.995 495.934Z" fill="#494949"/>
<path d="M457.419 384.83C445.847 394.57 431.135 399.934 415.995 399.934C400.851 399.934 386.143 394.57 374.571 384.83C372.883 383.41 370.355 383.626 368.935 385.314C367.515 387.006 367.731 389.526 369.419 390.95C382.431 401.902 398.971 407.934 415.995 407.934C433.019 407.934 449.559 401.902 462.571 390.95C464.259 389.526 464.479 387.006 463.055 385.314C461.631 383.622 459.103 383.406 457.419 384.83Z" fill="#494949"/>
<path d="M415.995 439.891C398.971 439.891 382.427 445.923 369.415 456.875C367.727 458.299 367.507 460.819 368.931 462.511C370.351 464.199 372.875 464.415 374.567 462.995C386.139 453.255 400.851 447.891 415.991 447.891C431.131 447.891 445.843 453.255 457.415 462.995C458.167 463.627 459.079 463.935 459.991 463.935C461.131 463.935 462.263 463.451 463.055 462.511C464.475 460.819 464.259 458.299 462.571 456.875C449.559 445.923 433.019 439.891 415.995 439.891V439.891Z" fill="#494949"/>
<path d="M317.399 340.19C362.911 339.526 410.731 318.902 450.915 279.054C489.783 240.506 512.047 190.466 511.999 141.758C511.963 102.49 497.715 67.6738 470.803 41.0898C443.483 14.0978 406.639 -0.514175 366.575 0.013825C318.323 0.621825 269.575 22.8738 232.831 61.0578C186.815 108.882 166.563 167.334 173.443 219.006C170.119 238.57 161.839 274.726 143.075 305.594L142.931 305.45C137.883 299.566 131.787 296.326 125.303 296.07C118.315 295.87 111.403 298.938 105.171 305.15C99.0869 311.214 95.9989 317.562 95.9909 324.014C95.9869 330.51 99.1069 336.93 105.267 343.09L111.619 349.442L13.2669 441.006C13.1509 441.118 13.0349 441.234 12.9349 441.358C6.30694 449.234 6.32694 462.874 13.1669 470.762L41.2829 498.874C44.9469 502.25 50.2429 503.946 55.6589 503.946C60.9589 503.946 66.3749 502.322 70.4789 499.07C70.5989 498.974 70.7149 498.874 70.8229 498.762L165.887 403.698L173.071 410.882C173.227 411.038 173.391 411.178 173.571 411.306C178.103 414.554 182.915 415.906 187.579 415.906C195.279 415.906 202.571 412.214 207.503 407.238C215.363 399.31 219.563 386.25 211.703 374.566C252.979 348.326 304.299 341.542 317.399 340.19ZM193.191 355.694C210.351 343.77 230.903 334.182 254.451 327.226C264.471 331.814 274.919 335.154 285.643 337.314C262.895 342.27 232.495 351.57 206.143 368.646L193.191 355.694ZM213.207 298.802C222.815 308.15 233.259 315.862 244.303 322.034C222.675 329.15 203.607 338.526 187.447 349.954L167.699 330.21C178.415 314.498 187.259 296.13 194.027 275.426C199.419 283.746 205.791 291.586 213.207 298.802V298.802ZM238.599 66.6018C273.867 29.9498 320.551 8.59783 366.679 8.01383C367.311 8.00583 367.943 8.00183 368.575 8.00183C405.583 8.00183 439.827 21.7338 465.183 46.7818C490.539 71.8338 503.963 104.682 503.999 141.77C504.043 188.354 482.643 236.322 445.279 273.378C406.903 311.438 361.355 331.262 318.051 332.11C318.015 332.114 317.983 332.094 317.951 332.098C317.911 332.102 317.855 332.106 317.811 332.11C281.303 332.766 246.403 319.946 218.783 293.066C160.467 236.31 168.983 138.954 238.599 66.6018V66.6018ZM177.555 239.014C180.223 248.43 183.899 257.506 188.551 266.146C181.943 288.366 172.991 307.934 161.939 324.45L148.891 311.406C163.931 287.262 172.659 259.882 177.555 239.014V239.014ZM65.3429 492.93C60.1469 496.89 50.9909 496.942 46.8229 493.106L19.0189 465.318C15.0269 460.706 14.9989 451.554 18.9149 446.682L117.287 355.098L160.235 398.042L65.3429 492.93ZM201.823 401.602C196.079 407.39 186.671 410.642 178.487 404.978L110.927 337.43C106.323 332.826 103.991 328.314 103.995 324.018C103.999 319.766 106.295 315.326 110.823 310.814C115.435 306.214 120.327 303.91 124.991 304.062C129.255 304.23 133.247 306.446 137.067 310.882L204.835 378.65C210.899 387.226 207.023 396.354 201.823 401.602V401.602Z" fill="#494949"/>
</g>
<defs>
<clipPath id="clip0_3760_623">
<rect width="512" height="512" fill="white"/>
</clipPath>
</defs>
</svg>
