<svg width="512" height="512" viewBox="0 0 512 512" fill="none" xmlns="http://www.w3.org/2000/svg">
<g clip-path="url(#clip0_3760_274)">
<circle cx="256" cy="557" r="200" fill="#FFE785"/>
<path d="M504 0H8C5.87827 0 3.84344 0.842855 2.34315 2.34315C0.842855 3.84344 0 5.87827 0 8L0 328C0 330.122 0.842855 332.157 2.34315 333.657C3.84344 335.157 5.87827 336 8 336H16C20.7065 335.995 25.308 334.609 29.2342 332.014C33.1605 329.418 36.2389 325.728 38.088 321.4L45.656 328.968C47.8783 331.205 50.5224 332.978 53.4351 334.185C56.3478 335.392 59.4711 336.009 62.624 336H72C74.1217 336 76.1566 335.157 77.6569 333.657C79.1571 332.157 80 330.122 80 328V280C79.9893 277.326 79.829 274.656 79.52 272H432.48C432.171 274.656 432.011 277.326 432 280V328C432 330.122 432.843 332.157 434.343 333.657C435.843 335.157 437.878 336 440 336H449.376C452.529 336.009 455.652 335.392 458.565 334.185C461.478 332.978 464.122 331.205 466.344 328.968L473.912 321.4C475.761 325.728 478.84 329.418 482.766 332.014C486.692 334.609 491.294 335.995 496 336H504C506.122 336 508.157 335.157 509.657 333.657C511.157 332.157 512 330.122 512 328V8C512 5.87827 511.157 3.84344 509.657 2.34315C508.157 0.842855 506.122 0 504 0V0ZM464 16V40C464 42.1217 464.843 44.1566 466.343 45.6569C467.843 47.1571 469.878 48 472 48C474.122 48 476.157 47.1571 477.657 45.6569C479.157 44.1566 480 42.1217 480 40V16H496V207.472C482.13 205.577 469.323 199.004 459.699 188.839C450.074 178.674 444.208 165.528 443.072 151.576L432.64 16H464ZM16 16H32V40C32 42.1217 32.8429 44.1566 34.3431 45.6569C35.8434 47.1571 37.8783 48 40 48C42.1217 48 44.1566 47.1571 45.6569 45.6569C47.1571 44.1566 48 42.1217 48 40V16H79.36L68.96 151.576C67.8226 165.533 61.9523 178.683 52.321 188.848C42.6898 199.013 29.8754 205.584 16 207.472V16ZM64 320H62.624C60.504 319.992 58.4724 319.15 56.968 317.656L37.656 298.344C36.5372 297.226 35.1119 296.464 33.5603 296.155C32.0086 295.847 30.4004 296.005 28.9388 296.611C27.4772 297.216 26.2279 298.241 25.3488 299.556C24.4697 300.872 24.0003 302.418 24 304V312C24 314.122 23.1571 316.157 21.6569 317.657C20.1566 319.157 18.1217 320 16 320V224.568C29.3381 226.471 41.5399 233.128 50.3596 243.313C59.1793 253.499 64.0233 266.527 64 280V320ZM75.824 256C72.2577 245.871 66.4837 236.662 58.92 229.04C53.7644 223.925 47.8725 219.611 41.44 216.24C53.5796 210.366 63.974 201.422 71.5934 190.295C79.2129 179.167 83.793 166.242 84.88 152.8L95.408 16H416.592L427.12 152.8C428.208 166.241 432.79 179.164 440.411 190.289C448.032 201.414 458.428 210.354 470.568 216.224C464.118 219.614 458.211 223.947 453.04 229.08C445.491 236.691 439.731 245.887 436.176 256H75.824ZM496 320C493.878 320 491.843 319.157 490.343 317.657C488.843 316.157 488 314.122 488 312V304C488 302.418 487.53 300.872 486.651 299.556C485.772 298.241 484.523 297.216 483.061 296.611C481.6 296.005 479.991 295.847 478.44 296.155C476.888 296.464 475.463 297.226 474.344 298.344L455.032 317.656C453.528 319.15 451.496 319.992 449.376 320H448V280C447.977 266.527 452.821 253.499 461.64 243.313C470.46 233.128 482.662 226.471 496 224.568V320Z" fill="#494949"/>
<path d="M39.9999 96C37.8782 96 35.8434 96.8429 34.3431 98.3431C32.8428 99.8434 31.9999 101.878 31.9999 104V128.16C31.9994 138.169 31.0106 148.153 29.0479 157.968L24.1599 182.4C23.9496 183.43 23.9442 184.491 24.144 185.522C24.3437 186.554 24.7448 187.536 25.3243 188.413C25.9038 189.289 26.6503 190.043 27.5212 190.631C28.3921 191.219 29.3703 191.63 30.3999 191.84C30.9262 191.949 31.4625 192.003 31.9999 192C33.8428 191.999 35.6287 191.361 37.0557 190.195C38.4827 189.029 39.4634 187.406 39.8319 185.6L44.7279 161.136C46.8994 150.278 47.9953 139.233 47.9999 128.16V104C47.9999 101.878 47.1571 99.8434 45.6568 98.3431C44.1565 96.8429 42.1217 96 39.9999 96Z" fill="#494949"/>
<path d="M32 248C29.8783 248 27.8434 248.843 26.3431 250.343C24.8429 251.843 24 253.878 24 256V272C24 274.122 24.8429 276.157 26.3431 277.657C27.8434 279.157 29.8783 280 32 280C34.1217 280 36.1566 279.157 37.6569 277.657C39.1571 276.157 40 274.122 40 272V256C40 253.878 39.1571 251.843 37.6569 250.343C36.1566 248.843 34.1217 248 32 248Z" fill="#494949"/>
<path d="M480 288C482.122 288 484.157 287.157 485.657 285.657C487.157 284.157 488 282.122 488 280V264C488 261.878 487.157 259.843 485.657 258.343C484.157 256.843 482.122 256 480 256C477.878 256 475.843 256.843 474.343 258.343C472.843 259.843 472 261.878 472 264V280C472 282.122 472.843 284.157 474.343 285.657C475.843 287.157 477.878 288 480 288Z" fill="#494949"/>
<path d="M448 384H432V376C431.987 365.395 427.769 355.228 420.27 347.73C412.772 340.231 402.605 336.013 392 336H344C337.767 336.017 331.625 337.497 326.068 340.318C320.51 343.14 315.692 347.226 312 352.248C308.308 347.226 303.49 343.14 297.932 340.318C292.375 337.497 286.233 336.017 280 336H232C225.767 336.017 219.625 337.497 214.068 340.318C208.51 343.14 203.692 347.226 200 352.248C196.308 347.226 191.49 343.14 185.932 340.318C180.375 337.497 174.233 336.017 168 336H120C109.395 336.013 99.2285 340.231 91.7298 347.73C84.2311 355.228 80.0127 365.395 80 376V384H64C53.3952 384.013 43.2285 388.231 35.7298 395.73C28.2311 403.228 24.0127 413.395 24 424V504C24 506.122 24.8429 508.157 26.3431 509.657C27.8434 511.157 29.8783 512 32 512H480C482.122 512 484.157 511.157 485.657 509.657C487.157 508.157 488 506.122 488 504V424C487.987 413.395 483.769 403.228 476.27 395.73C468.772 388.231 458.605 384.013 448 384V384ZM344 352H392C398.365 352 404.47 354.529 408.971 359.029C413.471 363.53 416 369.635 416 376V384H400C393.767 384.017 387.625 385.497 382.068 388.318C376.51 391.14 371.692 395.226 368 400.248C364.308 395.226 359.49 391.14 353.932 388.318C348.375 385.497 342.233 384.017 336 384H320V376C320 369.635 322.529 363.53 327.029 359.029C331.53 354.529 337.635 352 344 352ZM232 352H280C286.365 352 292.47 354.529 296.971 359.029C301.471 363.53 304 369.635 304 376V384H288C281.767 384.017 275.625 385.497 270.068 388.318C264.51 391.14 259.692 395.226 256 400.248C252.308 395.226 247.49 391.14 241.932 388.318C236.375 385.497 230.233 384.017 224 384H208V376C208 369.635 210.529 363.53 215.029 359.029C219.53 354.529 225.635 352 232 352ZM96 376C96 369.635 98.5286 363.53 103.029 359.029C107.53 354.529 113.635 352 120 352H168C174.365 352 180.47 354.529 184.971 359.029C189.471 363.53 192 369.635 192 376V384H176C169.767 384.017 163.625 385.497 158.068 388.318C152.51 391.14 147.692 395.226 144 400.248C140.308 395.226 135.49 391.14 129.932 388.318C124.375 385.497 118.233 384.017 112 384H96V376ZM40 424C40 417.635 42.5286 411.53 47.0294 407.029C51.5303 402.529 57.6348 400 64 400H112C118.365 400 124.47 402.529 128.971 407.029C133.471 411.53 136 417.635 136 424V496H40V424ZM152 424C152 417.635 154.529 411.53 159.029 407.029C163.53 402.529 169.635 400 176 400H224C230.365 400 236.47 402.529 240.971 407.029C245.471 411.53 248 417.635 248 424V496H152V424ZM264 424C264 417.635 266.529 411.53 271.029 407.029C275.53 402.529 281.635 400 288 400H336C342.365 400 348.47 402.529 352.971 407.029C357.471 411.53 360 417.635 360 424V496H264V424ZM472 496H376V424C376 417.635 378.529 411.53 383.029 407.029C387.53 402.529 393.635 400 400 400H448C454.365 400 460.47 402.529 464.971 407.029C469.471 411.53 472 417.635 472 424V496Z" fill="#494949"/>
<path d="M321.288 89.072C319.457 90.1396 318.125 91.8899 317.584 93.9387C317.042 95.9875 317.336 98.1675 318.4 100C327.343 115.45 330.232 133.669 326.507 151.127C322.782 168.585 312.709 184.039 298.239 194.493C283.77 204.948 265.935 209.658 248.19 207.712C230.445 205.766 214.055 197.302 202.195 183.96C190.336 170.618 183.852 153.348 183.999 135.497C184.147 117.647 190.916 100.487 202.995 87.343C215.074 74.199 231.602 66.0071 249.376 64.3549C267.151 62.7026 284.905 67.7077 299.2 78.4001C300.897 79.6731 303.031 80.2197 305.131 79.9196C307.232 79.6196 309.127 78.4974 310.4 76.8001C311.673 75.1027 312.22 72.9691 311.92 70.8687C311.62 68.7683 310.497 66.8731 308.8 65.6C291.36 52.513 269.682 46.3666 247.968 48.3521C226.255 50.3377 206.051 60.3138 191.274 76.3469C176.497 92.38 168.198 113.328 167.986 135.132C167.774 156.935 175.664 178.04 190.127 194.358C204.59 210.675 224.596 221.042 246.267 223.449C267.938 225.856 289.731 220.132 307.422 207.386C325.113 194.64 337.443 175.781 342.021 154.462C346.598 133.144 343.099 110.885 332.2 92C331.139 90.167 329.395 88.8294 327.349 88.2805C325.304 87.7317 323.124 88.0163 321.288 89.072V89.072Z" fill="#494949"/>
<path d="M228.24 89.216C227.029 88.4592 225.638 88.0402 224.21 88.0028C222.782 87.9653 221.371 88.3106 220.122 89.0029C218.873 89.6951 217.832 90.7091 217.107 91.9395C216.382 93.17 216 94.572 216 96V176C216 177.428 216.382 178.83 217.107 180.06C217.832 181.291 218.873 182.305 220.122 182.997C221.371 183.689 222.782 184.035 224.21 183.997C225.638 183.96 227.029 183.541 228.24 182.784L292.24 142.784C293.398 142.067 294.353 141.065 295.016 139.875C295.678 138.685 296.026 137.346 296.026 135.984C296.026 134.622 295.678 133.283 295.016 132.093C294.353 130.903 293.398 129.901 292.24 129.184L228.24 89.216ZM232 161.6V110.4L272.904 136L232 161.6Z" fill="#494949"/>
<path d="M472.16 185.6C472.529 187.407 473.511 189.031 474.939 190.197C476.368 191.364 478.156 192 480 192C480.537 192.003 481.074 191.949 481.6 191.84C482.63 191.63 483.608 191.219 484.479 190.631C485.35 190.043 486.096 189.289 486.676 188.413C487.255 187.536 487.656 186.554 487.856 185.522C488.056 184.491 488.05 183.43 487.84 182.4L482.952 157.936C480.991 148.132 480.003 138.158 480 128.16V104C480 101.878 479.157 99.8434 477.657 98.3431C476.157 96.8429 474.122 96 472 96C469.878 96 467.843 96.8429 466.343 98.3431C464.843 99.8434 464 101.878 464 104V128.16C464.004 139.222 465.097 150.256 467.264 161.104L472.16 185.6Z" fill="#494949"/>
</g>
<defs>
<clipPath id="clip0_3760_274">
<rect width="512" height="512" fill="white"/>
</clipPath>
</defs>
</svg>
