<?xml version="1.0" encoding="utf-8"?>
<!-- Generator: Adobe Illustrator 26.1.0, SVG Export Plug-In . SVG Version: 6.00 Build 0)  -->
<svg version="1.1" xmlns="http://www.w3.org/2000/svg" xmlns:xlink="http://www.w3.org/1999/xlink" x="0px" y="0px"
	 viewBox="0 0 100 100" style="enable-background:new 0 0 100 100;" xml:space="preserve">
<style type="text/css">
	.st0{clip-path:url(#SVGID_00000102521450554198756740000017517391491396783772_);fill:#FFDA66;}
	
		.st1{clip-path:url(#SVGID_00000102521450554198756740000017517391491396783772_);fill:none;stroke:#494949;stroke-width:2.75;stroke-linecap:round;stroke-miterlimit:10;}
	.st2{clip-path:url(#SVGID_00000102521450554198756740000017517391491396783772_);}
	.st3{fill:#414042;}
</style>
<g id="Layer_1">
	<g>
		<defs>
			<rect id="SVGID_1_" width="100" height="100"/>
		</defs>
		<clipPath id="SVGID_00000062876786586569581260000006917560886542208159_">
			<use xlink:href="#SVGID_1_"  style="overflow:visible;"/>
		</clipPath>
		<path style="clip-path:url(#SVGID_00000062876786586569581260000006917560886542208159_);fill:#FFDA66;" d="M89.77,71.21
			c0.06-0.59,0.08-1.19,0.08-1.8c0-12.89-10.46-23.35-23.35-23.35c-12.9,0-23.35,10.46-23.35,23.35c0,0.61,0.02,1.21,0.08,1.8H89.77
			z"/>
		
			<path style="clip-path:url(#SVGID_00000062876786586569581260000006917560886542208159_);fill:none;stroke:#494949;stroke-width:2.75;stroke-linecap:round;stroke-miterlimit:10;" d="
			M88.93,71.21H11.07c-2.76,0-5-2.24-5-5V47.23c0-2.76,2.24-5,5-5h77.86c2.76,0,5,2.24,5,5v18.98
			C93.93,68.97,91.69,71.21,88.93,71.21z"/>
		
			<path style="clip-path:url(#SVGID_00000062876786586569581260000006917560886542208159_);fill:none;stroke:#494949;stroke-width:2.75;stroke-linecap:round;stroke-miterlimit:10;" d="
			M87.1,42.23H13.55c-0.33,0-0.59-0.27-0.59-0.59v-13.6c0-4.4,3.57-7.97,7.97-7.97h58.4c4.4,0,7.97,3.57,7.97,7.97v14.01
			C87.29,42.15,87.21,42.23,87.1,42.23z"/>
		<g style="clip-path:url(#SVGID_00000062876786586569581260000006917560886542208159_);">
			<path class="st3" d="M18.52,41.18c-1.33-9.41,10.45-14.82,16.65-7.61c1.8,2.05,2.55,4.91,2.17,7.57c0,0-1.68-0.24-1.68-0.24
				c0.29-2.21-0.34-4.52-1.83-6.18c-2.9-3.51-8.74-3.48-11.6,0.05c-1.45,1.65-2.05,3.95-1.73,6.09L18.52,41.18L18.52,41.18z"/>
		</g>
		<g style="clip-path:url(#SVGID_00000062876786586569581260000006917560886542208159_);">
			<path class="st3" d="M40.52,41.18c-1.33-9.41,10.45-14.82,16.65-7.61c1.8,2.05,2.55,4.91,2.17,7.57c0,0-1.68-0.24-1.68-0.24
				c0.29-2.21-0.34-4.52-1.83-6.18c-2.9-3.51-8.74-3.48-11.6,0.05c-1.45,1.65-2.05,3.95-1.73,6.09
				C42.5,40.87,40.52,41.18,40.52,41.18L40.52,41.18z"/>
		</g>
		<g style="clip-path:url(#SVGID_00000062876786586569581260000006917560886542208159_);">
			<path class="st3" d="M62.52,41.18c-1.33-9.41,10.45-14.82,16.65-7.61c1.8,2.05,2.55,4.91,2.17,7.57l-1.68-0.24
				c0.29-2.21-0.34-4.52-1.83-6.18c-2.9-3.51-8.74-3.48-11.6,0.05c-1.45,1.65-2.05,3.95-1.73,6.09L62.52,41.18L62.52,41.18z"/>
		</g>
		
			<line style="clip-path:url(#SVGID_00000062876786586569581260000006917560886542208159_);fill:none;stroke:#494949;stroke-width:2.75;stroke-linecap:round;stroke-miterlimit:10;" x1="12.82" y1="71.21" x2="12.82" y2="79.94"/>
		
			<line style="clip-path:url(#SVGID_00000062876786586569581260000006917560886542208159_);fill:none;stroke:#494949;stroke-width:2.75;stroke-linecap:round;stroke-miterlimit:10;" x1="87.46" y1="71.21" x2="87.46" y2="79.94"/>
	</g>
</g>
<g id="Layer_2">
</g>
</svg>
