<svg width="70" height="70" viewBox="0 0 70 70" fill="none" xmlns="http://www.w3.org/2000/svg">
<g clip-path="url(#clip0_4156_1894)">
<circle cx="35" cy="76.1523" r="27.3438" fill="#FFE785"/>
<path d="M59.0279 60.686V53.3855C59.0279 49.6029 57.7577 45.8981 55.4437 42.9105V39.2737C55.4437 37.3116 53.8474 35.7152 51.8852 35.7152H42.2216C40.6909 34.6188 40.9138 32.9455 40.8946 32.8594C41.5019 32.4959 42.087 32.0703 42.6464 31.5783C44.4711 29.9745 45.6293 27.6827 45.9059 25.1807C47.2763 25.0206 48.341 23.8412 48.3351 22.4211L48.3271 18.7059C48.3257 18.3982 48.2724 18.0942 48.1719 17.8056C48.2725 17.5194 48.3283 17.2143 48.3283 16.8993V10.3503C48.3283 8.55135 46.865 7.06412 45.0663 7.03486C44.8863 7.03199 44.743 6.88857 44.7401 6.70852C44.7117 4.8866 43.2063 3.4043 41.3841 3.4043H31.0434C26.338 3.4043 22.5101 7.23242 22.5101 11.9377V16.8994C22.5101 17.0506 22.523 17.1996 22.5472 17.3454C22.0518 17.9621 21.7762 18.731 21.7767 19.5381L21.7783 21.7841C21.7797 23.6074 23.1813 25.1089 24.9633 25.2695C25.2607 27.7692 26.438 30.0515 28.2762 31.6397C28.5826 31.9046 28.8969 32.1479 29.2172 32.3747C29.1696 32.6352 29.5533 34.5239 27.8902 35.7153H18.2265C16.2645 35.7153 14.668 37.3116 14.668 39.2738V42.9107C12.354 45.8981 11.0838 49.6032 11.0838 53.3857V60.686C10.1001 61.2382 9.43359 62.291 9.43359 63.4971C9.43373 65.2736 10.879 66.7189 12.6555 66.7189H57.4562C59.2327 66.7189 60.678 65.2735 60.678 63.497C60.6781 62.291 60.0116 61.2382 59.0279 60.686V60.686ZM55.4437 46.7793C56.4424 48.826 56.9771 51.0889 56.9771 53.3855V60.2752H55.4437V46.7793ZM24.5607 11.9376C24.5607 8.36309 27.4687 5.45494 31.0434 5.45494H41.3841C42.093 5.45494 42.6787 6.03149 42.6896 6.74024V6.74037C42.7098 8.03428 43.7392 9.06418 45.033 9.08523C45.7192 9.09645 46.2775 9.66383 46.2775 10.3502V16.8994C46.2775 17.7781 44.8308 17.908 44.3509 16.9554C44.3499 16.9537 44.3491 16.9519 44.3481 16.95C43.8833 16.0178 42.8462 15.5389 41.8257 15.7854C37.5119 16.8276 34.3264 14.1429 32.8117 12.4497C30.7863 10.186 26.9787 11.4557 26.8301 14.505C26.8211 14.6914 26.8265 14.5481 26.8291 18.1776L25.022 17.5484C24.7461 17.4523 24.5607 17.1916 24.5607 16.8993V11.9376ZM26.9425 24.2319C26.9284 23.6759 26.4735 23.2326 25.9175 23.2326C25.9174 23.2326 25.9172 23.2326 25.9171 23.2326L25.2811 23.2329C25.2808 23.2329 25.2807 23.2329 25.2804 23.2329C24.4806 23.2329 23.8297 22.5824 23.8291 21.7826C23.8379 19.4511 23.8048 19.5166 23.8563 19.2549C24.2692 19.4991 24.4117 19.4898 26.1972 20.1291C27.4982 20.5821 28.8824 19.619 28.8802 18.2195C28.8779 15.7537 28.8746 14.6892 28.8787 14.6044C28.9373 13.4016 30.4721 12.9104 31.2834 13.8173C32.8137 15.528 35.7804 18.0767 39.8669 18.0765C40.641 18.0765 41.4556 17.9851 42.3076 17.7792C42.392 17.7587 42.4756 17.7934 42.512 17.8633C42.5126 17.8644 42.5131 17.8654 42.5137 17.8665C43.208 19.2587 44.7964 19.9536 46.2783 19.5485L46.2846 22.4279C46.2863 22.8237 45.975 23.1472 45.5906 23.1488L44.9393 23.1515C44.3815 23.1539 43.928 23.6018 43.9184 24.1594C43.8792 26.4634 42.9222 28.6062 41.2928 30.0385C37.8005 33.1082 33.0702 33.0723 29.6171 30.0882C27.9758 28.6699 27.001 26.5355 26.9425 24.2319V24.2319ZM39.5277 35.7153H30.5841C30.9631 35.0487 31.1954 34.2997 31.2529 33.5219C33.6113 34.5341 36.2809 34.6991 38.8866 33.7991C38.9739 34.4773 39.194 35.1282 39.5277 35.7153ZM13.1347 53.3857C13.1347 51.0891 13.6694 48.8262 14.6681 46.7794V51.7619C14.6681 52.3281 15.1272 52.7872 15.6935 52.7872C16.2598 52.7872 16.7189 52.3281 16.7189 51.7619V39.2738C16.7189 38.4424 17.3953 37.7661 18.2267 37.7661H51.8853C52.7167 37.7661 53.393 38.4424 53.393 39.2738V60.2753H16.7189V56.5569C16.7189 55.9906 16.2598 55.5315 15.6935 55.5315C15.1272 55.5315 14.6681 55.9906 14.6681 56.5569V60.2753H13.1347V53.3857ZM57.4562 64.6681H12.6555C12.0098 64.6681 11.4845 64.1427 11.4845 63.497C11.4845 62.8415 12.0233 62.326 12.6555 62.326H57.4562C58.087 62.326 58.6272 62.8403 58.6272 63.4971C58.6273 64.1428 58.1021 64.6681 57.4562 64.6681Z" fill="#494949"/>
<path d="M35.0578 55.1846C37.9888 55.1846 40.3734 52.8001 40.3734 49.8691C40.3734 46.9381 37.9889 44.5535 35.0578 44.5535C32.1267 44.5535 29.7422 46.938 29.7422 49.8691C29.7422 52.8001 32.1268 55.1846 35.0578 55.1846ZM35.0578 46.6042C36.858 46.6042 38.3227 48.0688 38.3227 49.8691C38.3227 51.6693 36.8581 53.1338 35.0578 53.1338C33.2576 53.1338 31.793 51.6693 31.793 49.8691C31.793 48.0689 33.2576 46.6042 35.0578 46.6042Z" fill="#494949"/>
</g>
<defs>
<clipPath id="clip0_4156_1894">
<rect width="70" height="70" fill="white"/>
</clipPath>
</defs>
</svg>
