<svg width="512" height="512" viewBox="0 0 512 512" fill="none" xmlns="http://www.w3.org/2000/svg">
<g clip-path="url(#clip0_3757_174)">
<circle cx="256" cy="557" r="200" fill="#FFE785"/>
<path d="M40 468.169H136.688C142.751 468.148 148.699 466.514 153.921 463.434C159.144 460.354 163.452 455.939 166.405 450.644C178.234 461.487 193.556 467.734 209.594 468.254L396.703 468.255C430.961 469.15 453.3 432.415 435.632 405.071C445.419 400.933 453.211 393.148 457.36 383.365C459.753 377.58 460.802 371.327 460.429 365.078C460.055 358.829 458.269 352.745 455.203 347.287C461.476 344.534 466.963 340.258 471.164 334.848C475.366 329.437 478.15 323.063 479.263 316.303C480.377 309.544 479.785 302.614 477.541 296.141C475.297 289.669 471.472 283.859 466.413 279.24C472.31 273.268 476.465 265.799 478.43 257.64C480.395 249.481 480.096 240.94 477.564 232.938C475.033 224.936 470.365 217.777 464.065 212.233C457.764 206.688 450.07 202.968 441.811 201.475C440.552 200.703 319.48 201.767 318.102 201.348C316.794 201.357 315.505 201.044 314.347 200.437C313.189 199.831 312.198 198.949 311.462 197.869C310.736 196.846 310.272 195.661 310.113 194.417C309.953 193.173 310.103 191.909 310.548 190.736C320.863 159.064 333.321 119.206 322.299 89.3338C313.15 65.3326 283.234 33.3238 253.735 47.4858C247.286 50.5307 241.874 55.4047 238.174 61.5015C234.473 67.5983 232.647 74.6486 232.922 81.7753L234.258 116.678C235.056 141.855 221.312 164.131 211.494 186.354C204.384 201.435 196.163 215.967 186.899 229.83L166.748 251.385C163.85 245.921 159.523 241.346 154.229 238.149C148.935 234.951 142.873 233.251 136.688 233.228H40C38.9493 233.228 37.9089 233.435 36.9382 233.837C35.9675 234.239 35.0855 234.828 34.3425 235.571C33.5996 236.314 33.0103 237.196 32.6084 238.167C32.2065 239.137 31.9997 240.178 32 241.228V460.169C31.9997 461.22 32.2065 462.261 32.6084 463.231C33.0103 464.202 33.5996 465.084 34.3425 465.827C35.0855 466.57 35.9675 467.159 36.9382 467.561C37.9089 467.963 38.9493 468.17 40 468.169V468.169ZM199.031 240.283C209.246 225.448 218.207 209.787 225.82 193.463C236.931 168.89 251.472 144.011 250.243 116.065L248.906 81.166C248.755 77.1703 249.781 73.2182 251.858 69.8011C253.934 66.3841 256.97 63.6529 260.586 61.9473C281.271 52.9675 301.192 79.9921 307.337 95.0046C316.373 118.116 304.656 158.062 295.564 185.123C294.222 188.718 293.772 192.585 294.25 196.393C294.729 200.2 296.123 203.835 298.313 206.986C300.53 210.183 303.488 212.795 306.934 214.6C310.38 216.405 314.212 217.348 318.102 217.35H439.656C445.575 218.539 450.997 221.486 455.216 225.806C459.434 230.125 462.251 235.616 463.301 241.561C464.35 247.506 463.583 253.63 461.098 259.132C458.613 264.635 454.528 269.26 449.374 272.404C448.215 273.128 447.259 274.135 446.597 275.33C445.934 276.525 445.586 277.868 445.587 279.235C445.587 280.601 445.935 281.945 446.597 283.14C447.26 284.334 448.216 285.341 449.375 286.064C455.069 289.233 459.475 294.293 461.831 300.368C464.187 306.443 464.343 313.151 462.273 319.33C460.353 323.595 457.344 327.278 453.547 330.009C449.751 332.741 445.302 334.424 440.648 334.889C439.162 335.11 437.767 335.742 436.622 336.714C435.476 337.686 434.626 338.96 434.166 340.39C433.706 341.82 433.655 343.351 434.019 344.808C434.383 346.266 435.148 347.593 436.227 348.639C439.831 351.958 442.392 356.254 443.598 361.003C444.804 365.751 444.602 370.749 443.018 375.385C441.434 380.022 438.535 384.097 434.676 387.116C430.816 390.134 426.162 391.964 421.28 392.384C419.748 392.534 418.292 393.121 417.084 394.075C415.877 395.03 414.97 396.312 414.471 397.768C413.972 399.224 413.902 400.793 414.27 402.287C414.638 403.782 415.429 405.139 416.547 406.197C419.885 409.473 422.41 413.484 423.92 417.911C425.43 422.337 425.883 427.056 425.242 431.689C423.517 437.825 419.766 443.197 414.6 446.931C409.434 450.666 403.157 452.542 396.789 452.255L209.789 452.259C202.211 451.902 194.804 449.882 188.094 446.343C181.384 442.803 175.535 437.83 170.962 431.777L170.961 270.306L199.031 240.283ZM48 249.228H136.688C141.532 249.234 146.177 251.161 149.603 254.586C153.029 258.012 154.956 262.657 154.961 267.502V433.896C154.956 438.741 153.029 443.386 149.603 446.811C146.177 450.237 141.532 452.164 136.688 452.169H48V249.228Z" fill="#494949"/>
<path d="M372 104.099C381.545 104.11 390.695 107.906 397.444 114.655C404.194 121.404 407.99 130.555 408 140.099C408.041 142.194 408.902 144.189 410.398 145.656C411.894 147.123 413.905 147.945 416 147.944C418.095 147.944 420.107 147.123 421.603 145.656C423.099 144.189 423.959 142.193 424 140.099C424.011 130.554 427.807 121.404 434.556 114.655C441.305 107.906 450.456 104.11 460 104.099C462.095 104.058 464.09 103.197 465.557 101.702C467.024 100.206 467.845 98.1941 467.845 96.099C467.845 94.0038 467.024 91.9923 465.557 90.4965C464.09 89.0007 462.094 88.14 460 88.0992C450.455 88.0887 441.305 84.2925 434.556 77.5434C427.807 70.7944 424.01 61.6437 424 52.0992C423.959 50.0045 423.098 48.0093 421.602 46.5424C420.107 45.0755 418.095 44.2538 416 44.2539C413.905 44.254 411.893 45.0758 410.397 46.5428C408.902 48.0098 408.041 50.005 408 52.0998C407.99 61.6443 404.193 70.7948 397.444 77.5438C390.695 84.2927 381.545 88.0888 372 88.0992C369.905 88.14 367.91 89.0008 366.443 90.4967C364.976 91.9925 364.155 94.0041 364.155 96.0992C364.155 98.1943 364.976 100.206 366.443 101.702C367.91 103.198 369.905 104.058 372 104.099ZM416 79.7867C420.159 86.3677 425.732 91.9401 432.313 96.0992C425.732 100.258 420.159 105.831 416 112.412C411.841 105.831 406.269 100.258 399.688 96.0992C406.269 91.9401 411.841 86.3677 416 79.7867V79.7867Z" fill="#494949"/>
<path d="M100 104.099C109.545 104.11 118.695 107.906 125.444 114.655C132.194 121.404 135.99 130.555 136 140.099C136.041 142.194 136.902 144.189 138.398 145.656C139.894 147.123 141.905 147.945 144 147.944C146.096 147.944 148.107 147.123 149.603 145.656C151.099 144.189 151.959 142.193 152 140.099C152.011 130.554 155.807 121.404 162.556 114.655C169.305 107.906 178.456 104.11 188 104.099C190.095 104.058 192.09 103.197 193.557 101.702C195.024 100.206 195.845 98.1941 195.845 96.099C195.845 94.0038 195.024 91.9923 193.557 90.4965C192.09 89.0007 190.094 88.14 188 88.0992C178.455 88.0887 169.305 84.2925 162.556 77.5434C155.807 70.7944 152.01 61.6437 152 52.0992C151.959 50.0045 151.098 48.0093 149.602 46.5424C148.107 45.0755 146.095 44.2538 144 44.2539C141.905 44.254 139.893 45.0758 138.397 46.5428C136.902 48.0098 136.041 50.005 136 52.0998C135.99 61.6443 132.193 70.7948 125.444 77.5438C118.695 84.2927 109.545 88.0888 100 88.0992C97.9054 88.14 95.9102 89.0008 94.4433 90.4967C92.9763 91.9925 92.1545 94.0041 92.1545 96.0992C92.1545 98.1943 92.9763 100.206 94.4433 101.702C95.9102 103.198 97.9054 104.058 100 104.099V104.099ZM144 79.7867C148.159 86.3677 153.732 91.9401 160.313 96.0992C153.732 100.258 148.159 105.831 144 112.412C139.841 105.831 134.269 100.258 127.688 96.0992C134.269 91.9401 139.841 86.3677 144 79.7867V79.7867Z" fill="#494949"/>
</g>
<defs>
<clipPath id="clip0_3757_174">
<rect width="512" height="512" fill="white"/>
</clipPath>
</defs>
</svg>
