<svg width="512" height="512" viewBox="0 0 512 512" fill="none" xmlns="http://www.w3.org/2000/svg">
<g clip-path="url(#clip0_3714_215)">
<circle cx="256" cy="512" r="200" fill="#FFE785"/>
<path d="M331.033 220.253C334.032 217.254 334.032 212.391 331.033 209.392C328.034 206.393 323.171 206.393 320.172 209.392L239.438 290.126C236.439 293.126 231.576 293.126 228.577 290.126L192.549 254.099C189.55 251.101 184.687 251.101 181.688 254.1C178.689 257.099 178.689 261.962 181.688 264.961L217.716 300.987C226.714 309.985 241.302 309.985 250.299 300.987L331.033 220.253Z" fill="#494949"/>
<path fill-rule="evenodd" clip-rule="evenodd" d="M233.634 91.0516C245.821 77.6495 266.901 77.6495 279.089 91.0516L296.075 109.731C302.874 117.207 312.914 120.861 322.928 119.504L347.947 116.114C365.899 113.681 382.046 127.231 382.768 145.332L383.774 170.56C384.176 180.657 389.518 189.91 398.061 195.307L419.406 208.792C434.722 218.468 438.382 239.226 427.3 253.557L411.854 273.529C405.672 281.522 403.817 292.045 406.892 301.67L414.575 325.721C420.088 342.977 409.548 361.232 391.848 365.086L367.178 370.458C357.304 372.608 349.119 379.476 345.288 388.826L335.714 412.188C328.845 428.951 309.037 436.16 293 427.735L270.649 415.992C261.704 411.292 251.019 411.292 242.073 415.992L219.722 427.735C203.686 436.16 183.878 428.951 177.009 412.188L167.435 388.826C163.603 379.476 155.419 372.608 145.545 370.458L120.875 365.086C103.174 361.232 92.6345 342.977 98.1472 325.721L105.83 301.67C108.905 292.045 107.05 281.522 100.869 273.529L85.4225 253.557C74.3403 239.226 78.0005 218.468 93.316 208.792L114.661 195.307C123.204 189.91 128.546 180.657 128.949 170.56L129.955 145.332C130.676 127.231 146.824 113.681 164.775 116.114L189.794 119.504C199.808 120.861 209.848 117.207 216.647 109.731L233.634 91.0516ZM267.725 101.386L284.711 120.065C294.909 131.279 309.97 136.76 324.99 134.725L350.01 131.335C358.985 130.119 367.059 136.894 367.42 145.944L368.426 171.171C369.03 186.317 377.043 200.197 389.858 208.293L411.202 221.778C418.86 226.615 420.69 236.995 415.149 244.16L399.703 264.132C390.431 276.123 387.648 291.906 392.261 306.345L399.944 330.395C402.7 339.023 397.43 348.151 388.58 350.078L363.91 355.449C349.099 358.674 336.822 368.976 331.074 383.002L321.501 406.364C318.066 414.745 308.162 418.35 300.144 414.137L277.793 402.394C264.375 395.344 248.348 395.344 234.929 402.394L212.578 414.137C204.56 418.35 194.656 414.745 191.222 406.364L181.648 383.002C175.901 368.976 163.623 358.674 148.812 355.449L124.142 350.078C115.292 348.151 110.022 339.023 112.779 330.395L120.462 306.345C125.074 291.906 122.292 276.123 113.019 264.132L97.5733 244.16C92.0319 236.995 93.8623 226.615 101.52 221.778L122.865 208.293C135.679 200.197 143.693 186.317 144.296 171.172L145.302 145.944C145.663 136.894 153.737 130.119 162.712 131.335L187.732 134.725C202.752 136.76 217.813 131.279 228.011 120.065L244.998 101.386C251.091 94.6847 261.631 94.6847 267.725 101.386Z" fill="#494949"/>
</g>
<defs>
<clipPath id="clip0_3714_215">
<rect width="512" height="512" fill="white"/>
</clipPath>
</defs>
</svg>
