<?xml version="1.0" encoding="utf-8"?>
<!-- Generator: Adobe Illustrator 26.1.0, SVG Export Plug-In . SVG Version: 6.00 Build 0)  -->
<svg version="1.1" id="Layer_1" xmlns="http://www.w3.org/2000/svg" xmlns:xlink="http://www.w3.org/1999/xlink" x="0px" y="0px"
	 viewBox="0 0 100 100" style="enable-background:new 0 0 100 100;" xml:space="preserve">
<style type="text/css">
	.st0{fill:#FFDA66;}
	.st1{fill:none;stroke:#494949;stroke-width:2.75;stroke-linecap:round;stroke-miterlimit:10;}
</style>
<g>
	<path class="st0" d="M86.17,76.54H13.83c-5.53,0-10.02-4.49-10.02-10.02V33.48c0-5.53,4.49-10.02,10.02-10.02h72.34
		c5.53,0,10.02,4.49,10.02,10.02v33.05C96.19,72.06,91.7,76.54,86.17,76.54z"/>
	<g>
		<circle class="st1" cx="50.42" cy="83.85" r="2.13"/>
		<circle class="st1" cx="39.65" cy="83.85" r="2.13"/>
		<g>
			<path class="st1" d="M68.48,65.3H32.52c-1.7,0-3.09-1.38-3.09-3.09v0c0-1.7,1.38-3.09,3.09-3.09h35.97c1.7,0,3.09,1.38,3.09,3.09
				v0C71.57,63.92,70.19,65.3,68.48,65.3z"/>
			<rect x="47.85" y="65.3" class="st1" width="5.3" height="5.3"/>
			<rect x="47.85" y="51.18" class="st1" width="5.3" height="7.95"/>
			<path class="st1" d="M50.5,70.6c-0.18,0.3,0,10.21,0,10.21"/>
			<line class="st1" x1="20.69" y1="42.47" x2="26.3" y2="42.47"/>
			<line class="st1" x1="73.7" y1="42.47" x2="79.31" y2="42.47"/>
			<path class="st1" d="M49.98,14.01H38.04c-2.6,0-4.76,2.33-4.98,5.35l-1.87,25.46c-0.25,3.42,2.05,6.35,4.98,6.35h14.02"/>
			<path class="st1" d="M50.02,14.01h11.94c2.6,0,4.76,2.33,4.98,5.35l1.87,25.46c0.25,3.42-2.05,6.35-4.98,6.35H49.81"/>
			<path class="st1" d="M23.49,42.47v13.81c0,3.28,2.66,5.94,5.94,5.94h0"/>
			<path class="st1" d="M76.51,42.47v14.81c0,2.73-2.21,4.94-4.94,4.94l0,0"/>
			<path class="st1" d="M50.14,75.88c-0.6,0.1-11.27,5.99-11.27,5.99"/>
			<path class="st1" d="M50.5,75.88c0.6,0.1,11.27,5.99,11.27,5.99"/>
		</g>
		<circle class="st1" cx="61" cy="83.85" r="2.13"/>
	</g>
</g>
</svg>
