<svg width="45" height="45" viewBox="0 0 45 45" fill="none" xmlns="http://www.w3.org/2000/svg">
<g clip-path="url(#clip0_3822_315)">
<path d="M40.0781 48.9551C40.0781 58.6632 32.2081 66.5332 22.5 66.5332C12.7919 66.5332 4.92188 58.6632 4.92188 48.9551C4.92188 39.2469 12.7919 31.377 22.5 31.377C32.2081 31.377 40.0781 39.2469 40.0781 48.9551Z" fill="#FFE785"/>
<path d="M15.4729 1.40625C12.3688 1.40625 9.84649 3.92854 9.84649 7.03263V9.67333C9.41885 10.0606 9.14337 10.6325 9.14337 11.2486C9.14337 12.533 10.1763 13.3818 11.3008 13.3553C11.4528 14.4119 11.9461 15.3632 12.659 16.0922V18.983C10.177 18.983 8.03909 20.4153 7.00378 22.4987H5.62774C4.47131 22.4987 3.51837 23.4516 3.51837 24.608V27.4205C3.50508 28.3713 4.93807 28.3713 4.92463 27.4205V24.608C4.92463 24.2063 5.22604 23.9049 5.62774 23.9049H26.7215C27.1232 23.9049 27.4246 24.2063 27.4246 24.608V36.5598H4.92463V33.7486C4.92994 33.3522 4.6069 33.0297 4.21051 33.0359C3.82273 33.0412 3.51305 33.3609 3.51837 33.7486V37.9674C3.51837 38.481 3.66772 38.9579 3.91112 39.3736H2.11211C1.7238 39.3722 1.4078 39.6857 1.40625 40.074V42.8879C1.40485 43.2784 1.72164 43.5953 2.11211 43.5938H42.8934C43.2817 43.5923 43.5952 43.2762 43.5938 42.8879V40.074C43.5922 39.6879 43.2795 39.3752 42.8934 39.3736H37.9523C38.2638 38.9625 38.4966 38.4903 38.6032 37.9674H39.3805C40.5369 37.9674 41.4871 37.0158 41.4871 35.8594V34.4531C41.4885 34.0648 41.175 33.7489 40.7867 33.7473H38.6746V33.0469C38.676 32.658 38.3617 32.3419 37.9729 32.3411H30.9402C30.5519 32.3425 30.2384 32.6586 30.2399 33.0469V37.267C30.2399 38.0606 30.5157 38.7843 30.9622 39.3736H28.4381C28.6815 38.9579 28.8309 38.481 28.8309 37.9674V24.608C28.8309 23.4516 27.8779 22.4987 26.7215 22.4987H25.3454C24.3102 20.4153 22.1723 18.983 19.6902 18.983V16.0922C20.3293 15.4914 20.8898 14.4718 21.0457 13.3608C22.4009 13.3604 23.2059 12.3038 23.2059 11.2486C23.2059 10.6311 22.9404 10.0499 22.5027 9.67625L22.5001 7.03263C22.4974 3.92854 19.9833 1.40625 16.8792 1.40625H15.4729ZM15.4729 2.81252H16.8791C19.2285 2.81252 21.0937 4.68329 21.0937 7.03263V9.13928H20.6845L18.7797 7.23449C18.5055 6.96186 18.0625 6.96186 17.7882 7.23449C17.7882 7.23449 15.8217 9.13928 13.3607 9.13928H11.2527V7.03263C11.2527 4.68329 13.1235 2.81252 15.4729 2.81252ZM18.2453 8.68991L19.6902 10.1336V12.6549C19.6902 14.6147 18.1344 16.1706 16.1746 16.1706C14.2148 16.1706 12.659 14.6147 12.659 12.6549V10.5469H13.3607C15.7687 10.5469 17.5097 9.25109 18.2453 8.68991ZM11.2527 11.9518C10.851 11.9518 10.5496 11.6258 10.5496 11.2486C10.5496 10.8715 10.8479 10.5506 11.2493 10.5469L11.2527 11.9518ZM21.7996 11.2486C21.7996 11.6338 21.4982 11.9518 21.0965 11.9518L21.0992 10.5469C21.5005 10.5496 21.7988 10.8659 21.7988 11.2486H21.7996ZM14.0652 17.0948C14.7056 17.4003 15.4189 17.5768 16.1746 17.5768C16.9303 17.5768 17.6436 17.4003 18.284 17.0948V18.983C18.284 18.983 18.2786 20.3893 16.1746 20.3893C14.0694 20.3893 14.0652 18.983 14.0652 18.983V17.0948ZM13.108 20.3893C13.108 20.3893 13.7896 21.7955 16.1746 21.7955C18.5597 21.7955 19.2412 20.3893 19.2412 20.3893H19.6902C21.3738 20.3893 22.8349 21.2269 23.7208 22.4987H8.62838C9.51431 21.2269 10.9754 20.3893 12.659 20.3893H13.108ZM33.0373 26.7092C32.6505 26.7171 32.3419 27.0338 32.3465 27.4205V30.233C32.3252 31.191 33.7734 31.191 33.7527 30.233V27.4205C33.758 27.0241 33.4336 26.7022 33.0373 26.7092ZM35.8497 26.7092C35.4636 26.7171 35.1558 27.0343 35.1604 27.4205V30.233C35.1391 31.1918 36.5881 31.1918 36.5666 30.233V27.4205C36.5719 27.0235 36.2467 26.7014 35.8497 26.7092ZM16.1732 28.1264C15.0166 28.1264 14.0666 29.0819 14.0666 30.2386C14.0666 31.3952 15.0166 32.3466 16.1732 32.3466C17.3299 32.3466 18.2867 31.3952 18.2867 30.2386C18.2867 29.0819 17.3299 28.1264 16.1732 28.1264ZM4.21051 29.5202C3.82273 29.5256 3.51305 29.8453 3.51837 30.233V30.9362C3.50508 31.887 4.93807 31.887 4.92463 30.9362V30.233C4.92994 29.8366 4.6069 29.5141 4.21051 29.5202ZM16.1732 29.5335C16.5699 29.5335 16.8791 29.8428 16.8791 30.2394C16.8791 30.6361 16.5699 30.9398 16.1732 30.9398C15.7766 30.9398 15.4729 30.6361 15.4729 30.2394C15.4729 29.8428 15.7766 29.5335 16.1732 29.5335ZM31.6406 33.7482H37.267V37.268C37.267 38.4487 36.3411 39.3745 35.1604 39.3745H33.7527C32.572 39.3745 31.6406 38.4487 31.6406 37.268V33.7482ZM38.6746 35.1545H40.0809V35.8603C40.0809 36.262 39.7822 36.5607 39.3805 36.5607H38.6746V35.1545ZM4.92463 37.9683H27.4246C27.4246 38.7596 26.8096 39.3745 26.0184 39.3745H6.33086C5.53962 39.3745 4.92463 38.7596 4.92463 37.9683ZM2.81387 40.7808H42.1875V42.1885H2.81387V40.7808Z" fill="#494949"/>
</g>
<defs>
<clipPath id="clip0_3822_315">
<rect width="45" height="45" fill="white"/>
</clipPath>
</defs>
</svg>
