<svg xmlns="http://www.w3.org/2000/svg" viewBox="0 0 22 22"><path d="M11.007,11.336A5.309,5.309,0,0,1,6.014,5.77,5.309,5.309,0,0,1,11.007.2,5.31,5.31,0,0,1,16,5.77,5.309,5.309,0,0,1,11.007,11.336Zm0-10.133A4.313,4.313,0,0,0,7.014,5.77a4.313,4.313,0,0,0,3.993,4.566A4.314,4.314,0,0,0,15,5.77,4.314,4.314,0,0,0,11.007,1.2Z"/><path d="M16.251,21.8a.5.5,0,0,1-.5-.5V17.9a.5.5,0,0,1,1,0v3.4A.5.5,0,0,1,16.251,21.8Z"/><path d="M5.757,21.8a.5.5,0,0,1-.5-.5V17.9a.5.5,0,0,1,1,0v3.4A.5.5,0,0,1,5.757,21.8Z"/><path d="M1.687,17.5a.471.471,0,0,1-.1-.009.5.5,0,0,1-.393-.588l.262-1.327a.5.5,0,1,1,.981.194L2.176,17.1A.5.5,0,0,1,1.687,17.5Z"/><path d="M19.637,21.8H2.372A1.786,1.786,0,0,1,.588,20.013L.9,18.387a.5.5,0,1,1,.98.194l-.3,1.529a.789.789,0,0,0,.793.687H19.637a.785.785,0,0,0,.784-.784l-1.274-6.371c-.139-.578-.406-.881-.793-.881H3.656c-.484,0-.728.464-.79.862l-.156.783a.5.5,0,0,1-.98-.194l.151-.764a1.842,1.842,0,0,1,1.775-1.687h14.7c.872,0,1.517.608,1.769,1.668l1.289,6.487A1.8,1.8,0,0,1,19.637,21.8Z"/></svg>