<svg xmlns="http://www.w3.org/2000/svg" viewBox="0 0 22 22"><path d="M20.23,19.343H12.94a.5.5,0,0,1,0-.991h7.29a.763.763,0,0,0,.755-.862L19.227,4.309a.763.763,0,0,0-.754-.661H11.826a.5.5,0,1,1,0-.991h6.647a1.761,1.761,0,0,1,1.738,1.522l1.756,13.18a1.753,1.753,0,0,1-1.737,1.984Z"/><path d="M16.29,19.343H1.771A1.753,1.753,0,0,1,.034,17.358L.545,13.51a.5.5,0,0,1,.984.131l-.513,3.848a.761.761,0,0,0,.755.863H16.29a.763.763,0,0,0,.754-.661L18.8,4.511a.761.761,0,0,0-.755-.863H3.527a.764.764,0,0,0-.755.661L2.223,8.427a.5.5,0,0,1-.557.426A.5.5,0,0,1,1.24,8.3l.549-4.118A1.759,1.759,0,0,1,3.527,2.657h14.52a1.754,1.754,0,0,1,1.738,1.984l-1.758,13.18A1.759,1.759,0,0,1,16.29,19.343Z"/><path d="M1.3,12.129a.489.489,0,0,1-.066,0,.5.5,0,0,1-.426-.556l.213-1.6A.5.5,0,1,1,2,10.1l-.213,1.6A.5.5,0,0,1,1.3,12.129Z"/><path d="M14.049,8.965H4.829a.5.5,0,0,1,0-.991h9.22a.5.5,0,1,1,0,.991Z"/><path d="M10.165,12.03H4.547a.5.5,0,1,1,0-.991h5.618a.5.5,0,1,1,0,.991Z"/></svg>