<svg xmlns="http://www.w3.org/2000/svg" viewBox="0 0 15 15"><path class="cls-1" d="M14.477,14.665H.523a.482.482,0,0,1-.482-.483V2.565a.482.482,0,0,1,.482-.482H14.477a.482.482,0,0,1,.482.482V14.182A.482.482,0,0,1,14.477,14.665ZM1.006,13.7H13.994V3.048H1.006Z"/><path class="cls-1" d="M4.475,4.657a.482.482,0,0,1-.482-.483V.818a.483.483,0,1,1,.965,0V4.174A.483.483,0,0,1,4.475,4.657Z"/><path class="cls-1" d="M10.525,4.657a.482.482,0,0,1-.482-.483V.818a.483.483,0,1,1,.965,0V4.174A.483.483,0,0,1,10.525,4.657Z"/><path class="cls-1" d="M11.935,7.709H3.065a.482.482,0,1,1,0-.964h8.87a.482.482,0,1,1,0,.964Z"/><path class="cls-1" d="M3.678,9.45a1.269,1.269,0,1,0,1.268,1.268A1.27,1.27,0,0,0,3.678,9.45Z"/><path class="cls-1" d="M7.5,9.45a1.269,1.269,0,1,0,1.268,1.268A1.27,1.27,0,0,0,7.5,9.45Z"/><path class="cls-1" d="M11.322,9.45a1.269,1.269,0,1,0,1.268,1.268A1.27,1.27,0,0,0,11.322,9.45Z"/></svg>