<svg xmlns="http://www.w3.org/2000/svg" viewBox="0 0 22 22"><defs><style>.cls-1{fill:#494949;}.cls-2{fill:#4343e8;}</style></defs><path class="cls-1" d="M19.594,18.805H2.406A1.593,1.593,0,0,1,.815,17.214V8.556A1.593,1.593,0,0,1,2.406,6.965H4.244a.842.842,0,0,0,.841-.841V4.786A1.593,1.593,0,0,1,6.676,3.2h8.648a1.593,1.593,0,0,1,1.591,1.591V6.124a.842.842,0,0,0,.841.841h1.838a1.593,1.593,0,0,1,1.591,1.591v8.658A1.593,1.593,0,0,1,19.594,18.805ZM2.406,7.715a.842.842,0,0,0-.841.841v8.658a.842.842,0,0,0,.841.841H19.594a.842.842,0,0,0,.841-.841V8.556a.842.842,0,0,0-.841-.841H17.756a1.593,1.593,0,0,1-1.591-1.591V4.786a.842.842,0,0,0-.841-.841H6.676a.842.842,0,0,0-.841.841V6.124A1.593,1.593,0,0,1,4.244,7.715Z"/><path class="cls-2" d="M11,16.339a4.262,4.262,0,1,1,4.262-4.261A4.266,4.266,0,0,1,11,16.339Zm0-7.773a3.512,3.512,0,1,0,3.512,3.512A3.515,3.515,0,0,0,11,8.566Z"/></svg>