<?xml version="1.0" encoding="utf-8"?>
<!-- Generator: Adobe Illustrator 22.0.0, SVG Export Plug-In . SVG Version: 6.00 Build 0)  -->
<svg version="1.1" id="Capa_1" xmlns="http://www.w3.org/2000/svg" xmlns:xlink="http://www.w3.org/1999/xlink" x="0px" y="0px"
	 viewBox="0 0 16 16" style="enable-background:new 0 0 16 16;" xml:space="preserve">
<g>
	<path d="M8,0C3.6,0,0,3.6,0,8s3.6,8,8,8s8-3.6,8-8S12.4,0,8,0z M8,15c-3.9,0-7-3.1-7-7s3.1-7,7-7s7,3.1,7,7S11.9,15,8,15z"/>
	<path d="M8.5,6.8V4.3c0-0.3-0.2-0.5-0.5-0.5S7.5,4.1,7.5,4.3v2.5C7.2,6.9,7,7.2,6.8,7.5H5.2C4.9,7.5,4.7,7.7,4.7,8s0.2,0.5,0.5,0.5
		h1.7C7,8.9,7.5,9.2,8,9.2c0.7,0,1.3-0.6,1.3-1.3C9.3,7.5,9,7,8.5,6.8z M8,7.7c0.2,0,0.3,0.1,0.3,0.3S8.2,8.2,8,8.2S7.7,8.1,7.7,8
		S7.8,7.7,8,7.7z"/>
	<path d="M8,3c0.3,0,0.5-0.2,0.5-0.5V2.3C8.5,2,8.3,1.8,8,1.8S7.5,2,7.5,2.3v0.3C7.5,2.8,7.7,3,8,3z"/>
	<path d="M8,12.9c-0.3,0-0.5,0.2-0.5,0.5v0.3c0,0.3,0.2,0.5,0.5,0.5s0.5-0.2,0.5-0.5v-0.3C8.5,13.1,8.3,12.9,8,12.9z"/>
	<path d="M13.7,7.5h-0.3c-0.3,0-0.5,0.2-0.5,0.5s0.2,0.5,0.5,0.5h0.3c0.3,0,0.5-0.2,0.5-0.5S14,7.5,13.7,7.5z"/>
	<path d="M2.6,7.5H2.3C2,7.5,1.8,7.7,1.8,8S2,8.5,2.3,8.5h0.3c0.3,0,0.5-0.2,0.5-0.5S2.8,7.5,2.6,7.5z"/>
	<path d="M11.7,3.6l-0.2,0.2c-0.2,0.2-0.2,0.5,0,0.7c0.1,0.1,0.2,0.1,0.4,0.1c0.1,0,0.3-0.1,0.4-0.1l0.2-0.2c0.2-0.2,0.2-0.5,0-0.7
		C12.2,3.4,11.9,3.4,11.7,3.6z"/>
	<path d="M4.2,11.3L4.2,11.3c-0.1,0-0.3,0.1-0.4,0.1l-0.2,0.2c-0.1,0.1-0.1,0.2-0.1,0.4c0,0.1,0.1,0.3,0.1,0.4
		c0.1,0.1,0.2,0.1,0.4,0.1c0.1,0,0.3-0.1,0.4-0.1l0.2-0.2c0.1-0.1,0.1-0.2,0.1-0.4c0-0.1-0.1-0.3-0.1-0.4
		C4.4,11.4,4.3,11.3,4.2,11.3z"/>
	<path d="M12.2,11.5L12.2,11.5c-0.2-0.2-0.5-0.2-0.7,0c-0.1,0.1-0.1,0.2-0.1,0.4c0,0.1,0.1,0.3,0.1,0.4l0.2,0.2
		c0.1,0.1,0.2,0.1,0.4,0.1c0.1,0,0.3-0.1,0.4-0.1c0.1-0.1,0.1-0.2,0.1-0.4c0-0.1-0.1-0.3-0.1-0.4L12.2,11.5z"/>
	<path d="M3.8,4.5C3.9,4.6,4,4.6,4.2,4.6c0.1,0,0.3-0.1,0.4-0.1c0.2-0.2,0.2-0.5,0-0.7L4.3,3.6C4.2,3.5,4.1,3.4,4,3.4
		c-0.1,0-0.3,0.1-0.4,0.1c-0.2,0.2-0.2,0.5,0,0.7L3.8,4.5z"/>
</g>
<g>
	<g>
		<path d="M31.7,1.2H31V0h-1.2v1.2h-8.2V0h-1.2v1.2h-0.8c-1,0-1.9,0.8-1.9,1.9v11c0,1,0.8,1.9,1.9,1.9h12.2c1,0,1.9-0.8,1.9-1.9v-11
			C33.6,2.1,32.7,1.2,31.7,1.2z M32.3,14.1c0,0.3-0.3,0.6-0.6,0.6H19.5c-0.3,0-0.6-0.3-0.6-0.6V5.9h13.5V14.1z M32.3,4.6H18.8V3.1
			c0-0.3,0.3-0.6,0.6-0.6h0.8v1.2h1.2V2.5h8.2v1.2H31V2.5h0.8c0.3,0,0.6,0.3,0.6,0.6V4.6z"/>
	</g>
</g>
<g>
	<g>
		<rect x="20" y="7.1" width="1.2" height="1.2"/>
	</g>
</g>
<g>
	<g>
		<rect x="22.5" y="7.1" width="1.2" height="1.2"/>
	</g>
</g>
<g>
	<g>
		<rect x="25" y="7.1" width="1.2" height="1.2"/>
	</g>
</g>
<g>
	<g>
		<rect x="27.5" y="7.1" width="1.2" height="1.2"/>
	</g>
</g>
<g>
	<g>
		<rect x="30" y="7.1" width="1.2" height="1.2"/>
	</g>
</g>
<g>
	<g>
		<rect x="20" y="9.6" width="1.2" height="1.2"/>
	</g>
</g>
<g>
	<g>
		<rect x="22.5" y="9.6" width="1.2" height="1.2"/>
	</g>
</g>
<g>
	<g>
		<rect x="25" y="9.6" width="1.2" height="1.2"/>
	</g>
</g>
<g>
	<g>
		<rect x="27.5" y="9.6" width="1.2" height="1.2"/>
	</g>
</g>
<g>
	<g>
		<rect x="20" y="12.1" width="1.2" height="1.2"/>
	</g>
</g>
<g>
	<g>
		<rect x="22.5" y="12.1" width="1.2" height="1.2"/>
	</g>
</g>
<g>
	<g>
		<rect x="25" y="12.1" width="1.2" height="1.2"/>
	</g>
</g>
<g>
	<g>
		<rect x="27.5" y="12.1" width="1.2" height="1.2"/>
	</g>
</g>
<g>
	<g>
		<rect x="30" y="9.6" width="1.2" height="1.2"/>
	</g>
</g>
</svg>
