<?xml version="1.0" encoding="utf-8"?>
<!-- Generator: Adobe Illustrator 22.0.0, SVG Export Plug-In . SVG Version: 6.00 Build 0)  -->
<svg version="1.1" id="Capa_1" xmlns="http://www.w3.org/2000/svg" xmlns:xlink="http://www.w3.org/1999/xlink" x="0px" y="0px"
	 viewBox="0 0 16 16" style="enable-background:new 0 0 16 16;" xml:space="preserve">
<g>
	<g>
		<path d="M14.1,1.2h-0.8V0h-1.2v1.2H3.9V0H2.6v1.2H1.9C0.8,1.2,0,2.1,0,3.1v11c0,1,0.8,1.9,1.9,1.9h12.2c1,0,1.9-0.8,1.9-1.9v-11
			C16,2.1,15.2,1.2,14.1,1.2z M14.8,14.1c0,0.3-0.3,0.6-0.6,0.6H1.9c-0.3,0-0.6-0.3-0.6-0.6V5.9h13.5V14.1z M14.8,4.6H1.2V3.1
			c0-0.3,0.3-0.6,0.6-0.6h0.8v1.2h1.2V2.5h8.2v1.2h1.2V2.5h0.8c0.3,0,0.6,0.3,0.6,0.6V4.6z"/>
	</g>
</g>
<g>
	<g>
		<rect x="2.4" y="7.1" width="1.2" height="1.2"/>
	</g>
</g>
<g>
	<g>
		<rect x="4.9" y="7.1" width="1.2" height="1.2"/>
	</g>
</g>
<g>
	<g>
		<rect x="7.4" y="7.1" width="1.2" height="1.2"/>
	</g>
</g>
<g>
	<g>
		<rect x="9.9" y="7.1" width="1.2" height="1.2"/>
	</g>
</g>
<g>
	<g>
		<rect x="12.4" y="7.1" width="1.2" height="1.2"/>
	</g>
</g>
<g>
	<g>
		<rect x="2.4" y="9.6" width="1.2" height="1.2"/>
	</g>
</g>
<g>
	<g>
		<rect x="4.9" y="9.6" width="1.2" height="1.2"/>
	</g>
</g>
<g>
	<g>
		<rect x="7.4" y="9.6" width="1.2" height="1.2"/>
	</g>
</g>
<g>
	<g>
		<rect x="9.9" y="9.6" width="1.2" height="1.2"/>
	</g>
</g>
<g>
	<g>
		<rect x="2.4" y="12.1" width="1.2" height="1.2"/>
	</g>
</g>
<g>
	<g>
		<rect x="4.9" y="12.1" width="1.2" height="1.2"/>
	</g>
</g>
<g>
	<g>
		<rect x="7.4" y="12.1" width="1.2" height="1.2"/>
	</g>
</g>
<g>
	<g>
		<rect x="9.9" y="12.1" width="1.2" height="1.2"/>
	</g>
</g>
<g>
	<g>
		<rect x="12.4" y="9.6" width="1.2" height="1.2"/>
	</g>
</g>
</svg>
