<svg xmlns="http://www.w3.org/2000/svg" viewBox="0 0 22 22"><path d="M11.006,20.881a.5.5,0,0,1-.354-.146L8.222,18.31a.5.5,0,0,1,.707-.708l2.077,2.073,8.3-8.305a5.62,5.62,0,0,0,0-7.95A4.54,4.54,0,0,0,15.4,2.17a7.15,7.15,0,0,0-4.038,2.052.5.5,0,0,1-.706,0C8.492,2.075,4.92,1.185,2.687,3.42a5.628,5.628,0,0,0,0,7.95l1.845,1.842a.5.5,0,0,1-.707.708L1.979,12.078a6.629,6.629,0,0,1,0-9.365C4.532.159,8.469.938,11.005,3.182a8.114,8.114,0,0,1,4.266-2,5.545,5.545,0,0,1,4.746,1.535,6.62,6.62,0,0,1,0,9.364l-8.658,8.658A.494.494,0,0,1,11.006,20.881Z"/><path d="M7,16.879a.5.5,0,0,1-.353-.146L5.126,15.218a.5.5,0,0,1,.707-.708L7.35,16.025A.5.5,0,0,1,7,16.879Z"/><path d="M19.089,7.768a.5.5,0,0,1-.478-.352,4.386,4.386,0,0,0-1.082-1.788A3.326,3.326,0,0,0,15.7,4.683a.5.5,0,0,1-.409-.577.508.508,0,0,1,.577-.41,4.321,4.321,0,0,1,2.372,1.225,5.37,5.37,0,0,1,1.33,2.2.5.5,0,0,1-.329.626A.507.507,0,0,1,19.089,7.768Z"/></svg>