<?xml version="1.0" encoding="utf-8"?>
<!-- Generator: Adobe Illustrator 22.1.0, SVG Export Plug-In . SVG Version: 6.00 Build 0)  -->
<svg version="1.1" id="Layer_1" xmlns="http://www.w3.org/2000/svg" xmlns:xlink="http://www.w3.org/1999/xlink" x="0px" y="0px"
	 viewBox="0 0 8.9 12" style="enable-background:new 0 0 8.9 12;" xml:space="preserve">
<path class="st0" d="M4.4,12c-0.1,0-0.2-0.1-0.3-0.1C3.4,11,0,6.8,0,4.6C0,2.1,1.9,0,4.4,0c2.5,0,4.5,2.1,4.4,4.6
	c0,2.2-3.4,6.4-4.1,7.2C4.7,11.9,4.6,12,4.4,12z M4.4,0.8c-2,0-3.7,1.7-3.6,3.8c0,1.3,1.8,4.1,3.6,6.3c1.8-2.3,3.6-5,3.6-6.3
	C8.1,2.5,6.5,0.9,4.4,0.8z"/>
<path class="st1" d="M4.4,6.5c-1.2,0-2.1-1-2.1-2.1s1-2.1,2.1-2.1s2.1,1,2.1,2.1C6.6,5.6,5.6,6.5,4.4,6.5z M4.4,3.1
	c-0.7,0-1.3,0.6-1.3,1.3s0.6,1.3,1.3,1.3c0.7,0,1.3-0.6,1.3-1.3c0,0,0,0,0,0C5.8,3.7,5.2,3.1,4.4,3.1z"/>
</svg>
