<svg xmlns="http://www.w3.org/2000/svg" viewBox="0 0 11.122 14.999"><path class="cls-1" d="M7.5,15a.513.513,0,0,1-.392-.184c-.863-1.028-5.167-6.3-5.167-9.068A5.662,5.662,0,0,1,7.5,0a5.665,5.665,0,0,1,5.563,5.747c0,2.761-4.307,8.04-5.17,9.068A.513.513,0,0,1,7.5,15Zm0-13.975A4.638,4.638,0,0,0,2.963,5.747c0,1.657,2.218,5.091,4.535,7.936,2.319-2.845,4.539-6.281,4.539-7.936A4.639,4.639,0,0,0,7.5,1.024Z" transform="translate(-1.939)"/><path class="cls-1" d="M7.5,3.332A2.172,2.172,0,1,0,9.669,5.5,2.174,2.174,0,0,0,7.5,3.332Z" transform="translate(-1.939)"/><path class="cls-1" d="M7.5,7.932A2.428,2.428,0,1,1,9.925,5.5,2.431,2.431,0,0,1,7.5,7.932Zm0-4.343A1.916,1.916,0,1,0,9.413,5.5,1.915,1.915,0,0,0,7.5,3.589Z" transform="translate(-1.939)"/></svg>