<svg xmlns="http://www.w3.org/2000/svg" viewBox="0 0 13.403 14.999"><path class="cls-1" d="M2.7.261A1.646,1.646,0,1,0,4.348,1.905,1.647,1.647,0,0,0,2.7.261Z" transform="translate(-0.799)"/><path class="cls-1" d="M2.7,3.812a1.906,1.906,0,1,1,1.9-1.907A1.907,1.907,0,0,1,2.7,3.812ZM2.7.521A1.385,1.385,0,1,0,4.088,1.905,1.386,1.386,0,0,0,2.7.521Z" transform="translate(-0.799)"/><rect class="cls-1" x="5.824" y="1.322" width="7.579" height="1.169" rx="0.585" ry="0.585"/><path class="cls-1" d="M2.7,5.854A1.646,1.646,0,1,0,4.348,7.5,1.648,1.648,0,0,0,2.7,5.854Z" transform="translate(-0.799)"/><path class="cls-1" d="M2.7,9.406A1.906,1.906,0,1,1,4.609,7.5,1.908,1.908,0,0,1,2.7,9.406Zm0-3.292A1.386,1.386,0,1,0,4.088,7.5,1.386,1.386,0,0,0,2.7,6.114Z" transform="translate(-0.799)"/><rect class="cls-1" x="5.824" y="6.915" width="7.579" height="1.169" rx="0.585" ry="0.585"/><path class="cls-1" d="M2.7,11.447a1.646,1.646,0,1,0,1.644,1.645A1.648,1.648,0,0,0,2.7,11.447Z" transform="translate(-0.799)"/><path class="cls-1" d="M2.7,15a1.906,1.906,0,1,1,1.9-1.907A1.907,1.907,0,0,1,2.7,15Zm0-3.291a1.385,1.385,0,1,0,1.384,1.384A1.386,1.386,0,0,0,2.7,11.708Z" transform="translate(-0.799)"/><rect class="cls-1" x="5.824" y="12.509" width="7.579" height="1.169" rx="0.585" ry="0.585"/></svg>