<svg xmlns="http://www.w3.org/2000/svg" viewBox="0 0 22 22"><path d="M20.3,18.951H5.162A1.56,1.56,0,0,1,3.6,17.393V15.175a.5.5,0,0,1,1,0v2.218a.558.558,0,0,0,.558.558H20.3a.558.558,0,0,0,.558-.558V8.065a.559.559,0,0,0-.558-.558H18.189a.5.5,0,0,1,0-1H20.3a1.56,1.56,0,0,1,1.558,1.558v9.328A1.56,1.56,0,0,1,20.3,18.951Z"/><path d="M16.837,15.493H1.7A1.56,1.56,0,0,1,.146,13.935V11.349a.5.5,0,0,1,1,0v2.586a.559.559,0,0,0,.558.558H16.837a.56.56,0,0,0,.559-.558V4.607a.559.559,0,0,0-.559-.558H1.7a.558.558,0,0,0-.558.558V5.743a.5.5,0,0,1-1,0V4.607A1.56,1.56,0,0,1,1.7,3.049H16.837A1.56,1.56,0,0,1,18.4,4.607v9.328A1.56,1.56,0,0,1,16.837,15.493Z"/><path d="M.646,9.9a.5.5,0,0,1-.5-.5V7.624a.5.5,0,0,1,1,0V9.4A.5.5,0,0,1,.646,9.9Z"/><path d="M15.686,7.694H2.5a.5.5,0,0,1,0-1H15.686a.5.5,0,0,1,0,1Z"/><path d="M9.271,10.154H2.5a.5.5,0,1,1,0-1H9.271a.5.5,0,0,1,0,1Z"/></svg>