<svg xmlns="http://www.w3.org/2000/svg" viewBox="0 0 15 15"><path class="cls-1" d="M7.5,7.43a3.432,3.432,0,0,1-3.23-3.595A3.432,3.432,0,0,1,7.5.24a3.431,3.431,0,0,1,3.23,3.6A3.431,3.431,0,0,1,7.5,7.43ZM7.5.99a2.685,2.685,0,0,0-2.48,2.845A2.685,2.685,0,0,0,7.5,6.68a2.685,2.685,0,0,0,2.48-2.845A2.685,2.685,0,0,0,7.5.99Z"/><path class="cls-1" d="M7.692,14.76c-1.616,0-3.35-.021-5.257-.063A2.174,2.174,0,0,1,.191,12.923a4.205,4.205,0,0,1,.852-3.11A5.475,5.475,0,0,1,2.869,8.589,11.915,11.915,0,0,1,7.5,7.68h0a14.733,14.733,0,0,1,4.6.9A5.474,5.474,0,0,1,13.945,9.8a4.206,4.206,0,0,1,.871,3.093c-.045.737-.467,1.637-2.22,1.8C11.054,14.735,9.442,14.76,7.692,14.76ZM7.5,8.43a11.157,11.157,0,0,0-4.328.844A4.736,4.736,0,0,0,1.6,10.312a3.382,3.382,0,0,0-.666,2.546c.087.663.535.989,1.542,1.091,3.93.084,7.138.082,10.07-.011,1.3-.12,1.492-.677,1.517-1.086a3.674,3.674,0,0,0-.67-2.544,4.729,4.729,0,0,0-1.565-1.033A13.938,13.938,0,0,0,7.5,8.43Z"/><rect class="cls-1" x="9.683" y="12.197" width="2.021" height="2.121"/><path class="cls-1" d="M11.7,14.692H9.683a.375.375,0,0,1-.375-.375V12.2a.375.375,0,0,1,.375-.375H11.7a.375.375,0,0,1,.375.375v2.12A.375.375,0,0,1,11.7,14.692Zm-1.646-.75h1.271v-1.37H10.058Z"/></svg>