<?xml version="1.0" encoding="utf-8"?>
<!-- Generator: Adobe Illustrator 22.0.0, SVG Export Plug-In . SVG Version: 6.00 Build 0)  -->
<svg version="1.1" id="Capa_1" xmlns="http://www.w3.org/2000/svg" xmlns:xlink="http://www.w3.org/1999/xlink" x="0px" y="0px"
	 viewBox="0 0 29.8 29.8" style="enable-background:new 0 0 29.8 29.8;" xml:space="preserve">
<g>
	<path d="M12.7,0C5.7,0,0,5.7,0,12.7c0,7,5.7,12.7,12.7,12.7c3.1,0,6-1.1,8.3-3.1l0.1-0.1l0.1,0.1l7.3,7.3c0.2,0.2,0.4,0.2,0.6,0.2
		c0.2,0,0.4-0.1,0.6-0.2c0.2-0.2,0.2-0.4,0.2-0.6s-0.1-0.4-0.2-0.6l-7.3-7.3l0.1-0.1c2-2.3,3.1-5.3,3.1-8.3C25.4,5.7,19.7,0,12.7,0z
		 M12.7,23.8c-6.1,0-11.1-5-11.1-11.1c0-6.1,5-11.1,11.1-11.1s11.1,5,11.1,11.1C23.8,18.8,18.8,23.8,12.7,23.8z"/>
</g>
</svg>
