<?xml version="1.0" encoding="utf-8"?>
<!-- Generator: Adobe Illustrator 22.1.0, SVG Export Plug-In . SVG Version: 6.00 Build 0)  -->
<svg version="1.1" id="Layer_1" xmlns="http://www.w3.org/2000/svg" xmlns:xlink="http://www.w3.org/1999/xlink" x="0px" y="0px"
	 viewBox="0 0 16.1 19.6" style="enable-background:new 0 0 16.1 19.6;" xml:space="preserve">
<path class="st0" d="M16.1,14.5c0-2.8-2.3-5.1-5.2-5.1H5.2C2.3,9.4,0,11.7,0,14.6V19c0,0.3,0.3,0.6,0.6,0.6h14.9v0h0
	c0.3,0,0.6-0.3,0.6-0.6L16.1,14.5z M12.8,18.4h-2.3v-1.8h2.3V18.4z M13.8,18.4v-2.2c0-0.3-0.2-0.5-0.5-0.5H9.9
	c-0.3,0-0.5,0.2-0.5,0.5v2.2H1.2v-3.8c0-2.2,1.8-4,4-4h5.7c2.2,0,3.9,1.8,4,3.9v0l0.1,3.9H13.8z"/>
<path class="st0" d="M8.1,8.3c-2.3,0-4.2-1.9-4.2-4.2S5.8,0,8.1,0s4.2,1.9,4.2,4.2S10.4,8.3,8.1,8.3L8.1,8.3z M8.1,1.2
	c-1.6,0-3,1.3-3,3s1.3,3,3,3s3-1.3,3-3l0,0C11,2.5,9.7,1.2,8.1,1.2z"/>
</svg>
