<svg xmlns="http://www.w3.org/2000/svg" viewBox="0 0 11.478 14.999"><path class="cls-1" d="M9.675,12.362h-.01l.382,2.034Z" transform="translate(-1.761)"/><polygon class="cls-1" points="8.286 14.396 7.904 12.362 7.914 12.362 8.286 14.396"/><path class="cls-1" d="M12.876,5.788a1.565,1.565,0,0,0-1.148-.533h-.523l-.02-2.618A2.662,2.662,0,0,0,8.537,0H6.423A2.651,2.651,0,0,0,3.776,2.647V5.255h-.5a1.585,1.585,0,0,0-1.157.533,1.37,1.37,0,0,0-.343,1.1l.443,2.647v1.842a.991.991,0,0,0,1,.987h.825V14.7a.3.3,0,0,0,.312.3h.856a.3.3,0,0,0,.3-.241l.443-2.4h3.1l.443,2.4A.3.3,0,0,0,9.8,15h.855a.3.3,0,0,0,.312-.3V12.362h.826a.988.988,0,0,0,.986-.987V9.584l.453-2.708A1.363,1.363,0,0,0,12.876,5.788ZM4.39,2.647A2.033,2.033,0,0,1,6.423.614H8.537a2.033,2.033,0,0,1,2.034,2.023l.04,6.584H4.39Zm5.275,9.715h.01l.372,2.034Zm2.506-.987a.38.38,0,0,1-.382.373H3.212a.38.38,0,0,1-.383-.373V9.835h9.342Z" transform="translate(-1.761)"/></svg>