<?xml version="1.0" encoding="utf-8"?>
<!-- Generator: Adobe Illustrator 22.0.0, SVG Export Plug-In . SVG Version: 6.00 Build 0)  -->
<svg version="1.1" id="Capa_1" xmlns="http://www.w3.org/2000/svg" xmlns:xlink="http://www.w3.org/1999/xlink" x="0px" y="0px"
	 viewBox="0 0 12 12" style="enable-background:new 0 0 12 12;" xml:space="preserve">
<style type="text/css">
	.st0{fill:#010002;}
</style>
<g>
	<g>
		<path class="st0" d="M6,0C2.7,0,0,2.7,0,6s2.7,6,6,6s6-2.7,6-6C12,2.7,9.3,0,6,0z M6,11c-2.8,0-5-2.3-5-5c0-2.8,2.3-5,5-5
			s5,2.3,5,5S8.8,11,6,11z"/>
		<path class="st0" d="M7.9,4.1L5.1,6.9l-1-1c-0.2-0.2-0.5-0.2-0.7,0c-0.2,0.2-0.2,0.5,0,0.7l1.4,1.4C4.9,8,5,8.1,5.1,8.1
			c0.1,0,0.2,0,0.3-0.1l3.1-3.1c0.2-0.2,0.2-0.5,0-0.7C8.4,3.9,8.1,3.9,7.9,4.1z"/>
	</g>
</g>
</svg>
