<?xml version="1.0" encoding="utf-8"?>
<!-- Generator: Adobe Illustrator 22.1.0, SVG Export Plug-In . SVG Version: 6.00 Build 0)  -->
<svg version="1.1" id="Layer_1" xmlns="http://www.w3.org/2000/svg" xmlns:xlink="http://www.w3.org/1999/xlink" x="0px" y="0px"
	 viewBox="0 0 23 23" style="enable-background:new 0 0 23 23;" xml:space="preserve">
<style type="text/css">
	.st0{fill:#232323;}
</style>
<title>Iconset for Detail page_2</title>
<path class="st0" d="M1.5,17.4c-0.3,0-0.5-0.2-0.5-0.5c0,0,0,0,0,0v-1.9c0-0.3,0.2-0.5,0.5-0.5c0.3,0,0.5,0.2,0.5,0.5v1.9
	C2,17.1,1.8,17.4,1.5,17.4C1.5,17.4,1.5,17.4,1.5,17.4z"/>
<path class="st0" d="M19.9,2.5h-2.6v-2c0-0.3-0.2-0.5-0.5-0.5s-0.5,0.3-0.5,0.5v2H6.7v-2C6.7,0.2,6.4,0,6.1,0C5.9,0,5.6,0.2,5.6,0.5
	v2H3.1C1.9,2.5,1,3.4,1,4.6v8c0,0.3,0.2,0.5,0.5,0.5S2,12.9,2,12.6v-1.8h19v10.1c0,0.6-0.5,1.1-1.1,1.1H3.1C2.5,22,2,21.5,2,20.9
	v-1.7c0-0.3-0.2-0.5-0.5-0.5S1,18.9,1,19.2v1.7C1,22,1.9,23,3.1,23h16.8c1.2,0,2.1-1,2.1-2.1V4.6C22,3.4,21.1,2.5,19.9,2.5z M21,9.7
	H2V4.6C2,4,2.5,3.5,3.1,3.5h2.5v2.2c0,0.3,0.2,0.5,0.5,0.5c0.3,0,0.5-0.2,0.5-0.5V3.5h9.6v2.2c0,0.3,0.2,0.5,0.5,0.5c0,0,0,0,0,0
	c0.3,0,0.5-0.2,0.5-0.5V3.5h2.6C20.5,3.5,21,4,21,4.6V9.7z"/>
<path class="st0" d="M16.8,15H6.2c-0.3,0-0.5-0.2-0.5-0.5c0-0.3,0.2-0.5,0.5-0.5h10.7c0.3,0,0.5,0.2,0.5,0.5
	C17.4,14.8,17.1,15,16.8,15z"/>
<path class="st0" d="M11.5,18.5H6.2c-0.3,0-0.5-0.3-0.5-0.5c0-0.3,0.2-0.5,0.5-0.5h5.3c0.3,0,0.5,0.2,0.5,0.5
	C12.1,18.2,11.8,18.4,11.5,18.5C11.5,18.5,11.5,18.5,11.5,18.5z"/>
</svg>
