<svg id="Layer_1" data-name="Layer 1" xmlns="http://www.w3.org/2000/svg" viewBox="0 0 50 50"><defs><style>.cls-1{fill:#eaeaea;}.cls-2{fill:#494949;}.cls-3{fill:#ffcc05;}.cls-4{fill:#fff;}</style></defs><title>Iconset for homepage</title><rect class="cls-1" x="0.071" y="4.883" width="40.991" height="25.642" rx="3.689" ry="3.689"/><path class="cls-2" d="M48.935,45.117a.994.994,0,0,1-1-.995V23.671H2.06V44.122a.995.995,0,1,1-1.989,0V22.676a.993.993,0,0,1,.994-.994h47.87a.993.993,0,0,1,.994.994V44.122A.994.994,0,0,1,48.935,45.117Z"/><rect class="cls-3" x="34.066" y="21.58" width="5.47" height="17.212" rx="1.454" ry="1.454" transform="translate(6.615 66.987) rotate(-90)"/><rect class="cls-3" x="10.464" y="21.58" width="5.47" height="17.212" rx="1.454" ry="1.454" transform="translate(-16.987 43.385) rotate(-90)"/><path class="cls-2" d="M43.952,33.916h-14.3A2.451,2.451,0,0,1,27.2,31.467V28.905a2.451,2.451,0,0,1,2.448-2.448h14.3A2.451,2.451,0,0,1,46.4,28.905v2.562A2.452,2.452,0,0,1,43.952,33.916Zm-14.3-5.47a.459.459,0,0,0-.458.459v2.562a.459.459,0,0,0,.458.459h14.3a.46.46,0,0,0,.46-.459V28.905a.46.46,0,0,0-.46-.459Z"/><path class="cls-2" d="M43.717,45.117H29.884a1,1,0,0,1,0-1.99H43.717a1,1,0,1,1,0,1.99Z"/><path class="cls-2" d="M36.8,45.117a.994.994,0,0,1-1-.995v-11.2a.995.995,0,1,1,1.989,0v11.2A.994.994,0,0,1,36.8,45.117Z"/><path class="cls-2" d="M20.351,33.916H6.047A2.452,2.452,0,0,1,3.6,31.467V28.905a2.451,2.451,0,0,1,2.449-2.448h14.3A2.451,2.451,0,0,1,22.8,28.905v2.562A2.452,2.452,0,0,1,20.351,33.916Zm-14.3-5.47a.46.46,0,0,0-.46.459v2.562a.46.46,0,0,0,.46.459h14.3a.46.46,0,0,0,.459-.459V28.905a.46.46,0,0,0-.459-.459Z"/><path class="cls-2" d="M20.115,45.117H6.283a.995.995,0,0,1,0-1.99H20.115a1,1,0,0,1,0,1.99Z"/><path class="cls-2" d="M13.2,45.117a.994.994,0,0,1-.994-.995v-11.2a.995.995,0,1,1,1.989,0v11.2A.994.994,0,0,1,13.2,45.117Z"/><path class="cls-2" d="M37.937,22.792H34.585c-.207,0-.376-.841-.376-1.874v-.262c0-1.033.169-1.874.376-1.874h3.352c.207,0,.376.841.376,1.874v.262C38.313,21.951,38.144,22.792,37.937,22.792Z"/><rect class="cls-4" x="29.093" y="10.575" width="13.988" height="8.207"/><path class="cls-2" d="M43.486,20.232H29.036a1,1,0,0,1-1-1V10.264a.994.994,0,0,1,1-.995h14.45a.994.994,0,0,1,1,.995v8.973A1,1,0,0,1,43.486,20.232Zm-13.455-1.99h12.46V11.258H30.031Z"/></svg>