<svg xmlns="http://www.w3.org/2000/svg" viewBox="0 0 21.21 13.821"><defs><style>.cls-1{fill:#ffda66;}.cls-2{fill:#494949;}</style></defs><title>Asset 32</title><g id="Layer_2" data-name="Layer 2"><g id="Layer_1-2" data-name="Layer 1"><path class="cls-1" d="M20.492,13.178a6.61,6.61,0,0,0-13.219,0v.553H20.492Z"/><path class="cls-2" d="M20.309,13.821H.9a.9.9,0,0,1-.9-.9V.9A.9.9,0,0,1,.9,0H20.309a.9.9,0,0,1,.9.9V12.92A.9.9,0,0,1,20.309,13.821ZM.9.5A.4.4,0,0,0,.5.9V12.92a.4.4,0,0,0,.4.4H20.309a.4.4,0,0,0,.4-.4V.9a.4.4,0,0,0-.4-.4Z"/><path class="cls-2" d="M13.337,2.046H7.872a.25.25,0,0,1,0-.5h5.465a.25.25,0,0,1,0,.5Z"/><path class="cls-2" d="M17.313,7.069H9.856a.25.25,0,0,1,0-.5h7.457a.25.25,0,0,1,0,.5Z"/><path class="cls-2" d="M13.779,8.906H9.856a.25.25,0,0,1,0-.5h3.923a.25.25,0,0,1,0,.5Z"/><path class="cls-2" d="M5.739,7.758A1.465,1.465,0,0,1,4.354,6.229,1.465,1.465,0,0,1,5.739,4.7a1.464,1.464,0,0,1,1.385,1.53A1.464,1.464,0,0,1,5.739,7.758Zm0-2.559a.967.967,0,0,0-.885,1.03.967.967,0,0,0,.885,1.029.966.966,0,0,0,.885-1.029A.966.966,0,0,0,5.739,5.2Z"/><path class="cls-2" d="M8.377,11.205H3.1a.25.25,0,0,1-.25-.25,2.888,2.888,0,1,1,5.775,0A.25.25,0,0,1,8.377,11.205Zm-5.013-.5h4.75a2.388,2.388,0,0,0-4.75,0Z"/></g></g></svg>