<svg xmlns="http://www.w3.org/2000/svg" viewBox="0 0 18.528 19.447"><defs><style>.cls-1{fill:#ffda66;}.cls-2{fill:#494949;}</style></defs><title>Asset 33</title><g id="Layer_2" data-name="Layer 2"><g id="Layer_1-2" data-name="Layer 1"><path class="cls-1" d="M18.279,18.694a7.242,7.242,0,0,0-14.484,0V19.3H18.279Z"/><path class="cls-2" d="M9.265,9.245A4.4,4.4,0,0,1,5.137,4.622,4.4,4.4,0,0,1,9.265,0a4.4,4.4,0,0,1,4.127,4.622A4.4,4.4,0,0,1,9.265,9.245ZM9.265.5A3.9,3.9,0,0,0,5.637,4.622,3.9,3.9,0,0,0,9.265,8.745a3.9,3.9,0,0,0,3.627-4.123A3.9,3.9,0,0,0,9.265.5Z"/><path class="cls-2" d="M10.07,12.8H8.458a.25.25,0,0,1-.25-.25v-2.2a.249.249,0,0,1,.25-.25H10.07a.249.249,0,0,1,.25.25v2.2A.25.25,0,0,1,10.07,12.8Zm-1.362-.5H9.82V10.6H8.708Z"/><path class="cls-2" d="M11.166,19.447h-3.8a.246.246,0,0,1-.19-.089.25.25,0,0,1-.057-.2l1.1-6.645a.251.251,0,0,1,.247-.21H10.07a.251.251,0,0,1,.247.21l1.1,6.645a.252.252,0,0,1-.247.291Zm-3.509-.5h3.214L9.858,12.8H8.67Z"/><path class="cls-2" d="M18.278,19.447H.25A.25.25,0,0,1,0,19.2a9.264,9.264,0,1,1,18.528,0A.25.25,0,0,1,18.278,19.447ZM.5,18.947h17.52a8.764,8.764,0,0,0-17.52,0Z"/><path class="cls-2" d="M15.043,15.259h-1.9a.25.25,0,0,1,0-.5h1.9a.25.25,0,0,1,0,.5Z"/></g></g></svg>