<svg id="Layer_1" data-name="Layer 1" xmlns="http://www.w3.org/2000/svg" viewBox="0 0 50 50"><defs><style>.cls-1{fill:#eaeaea;}.cls-2{fill:#494949;}.cls-3{fill:#fff;}.cls-4{fill:#ffcc05;}</style></defs><title>Iconset for homepage</title><rect class="cls-1" x="7.875" y="19.83" width="41.208" height="25.778" rx="3.708" ry="3.708"/><path class="cls-2" d="M48.083,32.192h-19.2a1,1,0,0,1,0-2h18.2V6.391H2.917v23.8H21.142a1,1,0,1,1,0,2H1.917a1,1,0,0,1-1-1V5.391a1,1,0,0,1,1-1H48.083a1,1,0,0,1,1,1v25.8A1,1,0,0,1,48.083,32.192Z"/><circle class="cls-3" cx="25.216" cy="23.039" r="6.055"/><circle class="cls-3" cx="25.216" cy="10.761" r="2.598"/><polygon class="cls-4" points="30.166 44.609 19.834 44.609 16.396 24.109 33.583 24.109 30.166 44.609"/><path class="cls-2" d="M30.167,45.609H19.834a1,1,0,0,1-1-.9L15.118,23.929a1,1,0,0,1,.995-1.1H33.888a1,1,0,0,1,1,1.1L31.162,44.707A1,1,0,0,1,30.167,45.609Zm-9.426-2H29.26L32.785,24.83H17.216Z"/><path class="cls-2" d="M25,14.692a4,4,0,1,1,4-4.005A4.009,4.009,0,0,1,25,14.692Zm0-6.01a2.005,2.005,0,1,0,2,2A2.006,2.006,0,0,0,25,8.682Z"/><path class="cls-2" d="M31.314,24.83H18.686a1,1,0,0,1-1-1c0-4.473,3.281-8.113,7.314-8.113s7.314,3.64,7.314,8.113A1,1,0,0,1,31.314,24.83Zm-11.557-2H30.243c-.416-2.9-2.609-5.113-5.243-5.113S20.173,19.933,19.757,22.83Z"/><path class="cls-2" d="M33.292,24.83a1,1,0,0,1-1-1V18.359L30.61,16.694a1,1,0,1,1,1.408-1.421L34,17.232a1,1,0,0,1,.3.71V23.83A1,1,0,0,1,33.292,24.83Z"/></svg>