<?xml version="1.0" encoding="utf-8"?>
<!-- Generator: Adobe Illustrator 26.1.0, SVG Export Plug-In . SVG Version: 6.00 Build 0)  -->
<svg version="1.1" id="Layer_1" xmlns="http://www.w3.org/2000/svg" xmlns:xlink="http://www.w3.org/1999/xlink" x="0px" y="0px"
	 viewBox="0 0 100 100" style="enable-background:new 0 0 100 100;" xml:space="preserve">
<style type="text/css">
	.st0{display:none;}
	.st1{display:inline;opacity:0.7;}
	.st2{fill:#FFCC05;}
	.st3{display:inline;fill:#494949;}
	.st4{display:inline;}
	.st5{display:inline;fill:#FFFFFF;}
	.st6{opacity:0.7;}
	.st7{fill:none;stroke:#494949;stroke-width:3.75;stroke-linecap:round;stroke-miterlimit:10;}
</style>
<g class="st0">
	<g class="st1">
		<path class="st2" d="M94.62,62.29c0-7.57,6.14-13.7,13.71-13.7c7.57,0,13.7,6.14,13.7,13.7"/>
	</g>
	<path class="st3" d="M130.98,63.39H96.29c-1.95,0-3.52-1.58-3.52-3.53v-5.93c0-0.61,0.49-1.1,1.1-1.1s1.1,0.49,1.1,1.1v5.93
		c0,0.73,0.59,1.32,1.32,1.33h34.69c0.73,0,1.32-0.59,1.32-1.33V46.48c0-0.61,0.49-1.1,1.1-1.1s1.1,0.49,1.1,1.1v13.38
		C134.51,61.81,132.93,63.39,130.98,63.39z"/>
	<path class="st3" d="M93.87,42.19c-0.61,0-1.1-0.49-1.1-1.1l0,0v-2.6c0-1.95,1.58-3.52,3.52-3.53h26.49c0.61,0,1.1,0.49,1.1,1.1
		s-0.49,1.1-1.1,1.1H96.29c-0.73,0-1.32,0.59-1.32,1.33v2.6C94.97,41.69,94.47,42.18,93.87,42.19z"/>
	<path class="st3" d="M93.87,50.79c-0.61,0-1.1-0.49-1.1-1.1l0,0v-4.07c0-0.61,0.49-1.1,1.1-1.1s1.1,0.49,1.1,1.1v4.07
		C94.97,50.29,94.47,50.79,93.87,50.79L93.87,50.79z"/>
	<path class="st3" d="M118.3,47.78h-9.22c-0.61,0-1.1-0.49-1.1-1.1s0.49-1.1,1.1-1.1h9.22c0.61,0,1.1,0.49,1.1,1.1
		S118.91,47.78,118.3,47.78z"/>
	<path class="st3" d="M118.2,44.61h-9.22c-0.61,0-1.1-0.49-1.1-1.1s0.49-1.1,1.1-1.1l0,0h9.22c0.61,0,1.1,0.49,1.1,1.1
		S118.8,44.61,118.2,44.61z"/>
	<path class="st3" d="M114.42,55.92c-0.37,0-0.72-0.19-0.92-0.5l-2.82-4.34c-0.33-0.51-0.19-1.19,0.32-1.52c0,0,0,0,0.01,0
		l0.63-0.41c2.2-1.22,2.74-2.85,1.68-4.9c-0.09-0.17-0.13-0.36-0.12-0.56v-0.1c0.03-0.61,0.54-1.08,1.15-1.05
		c0.52,0.02,0.96,0.41,1.04,0.93c1.39,2.91,0.56,5.62-2.26,7.36l2.21,3.4c0.33,0.51,0.19,1.19-0.32,1.52
		C114.84,55.87,114.63,55.93,114.42,55.92L114.42,55.92z"/>
	<path class="st3" d="M132.38,47.14c-5.71,0-10.34-4.63-10.34-10.34s4.63-10.34,10.34-10.34s10.34,4.63,10.34,10.34
		C142.72,42.51,138.09,47.14,132.38,47.14z M132.38,28.66c-4.5,0-8.14,3.65-8.14,8.14c0,4.5,3.65,8.14,8.14,8.14
		c4.5,0,8.14-3.65,8.14-8.14C140.52,32.31,136.88,28.67,132.38,28.66z"/>
	<path class="st3" d="M128.8,41.48c-0.61,0-1.1-0.49-1.1-1.1c0-0.29,0.12-0.57,0.32-0.78l7.16-7.16c0.42-0.44,1.11-0.46,1.55-0.04
		c0.44,0.42,0.46,1.11,0.04,1.56c-0.01,0.02-0.03,0.03-0.04,0.04l-7.16,7.16C129.38,41.37,129.1,41.48,128.8,41.48z"/>
	<path class="st3" d="M135.96,41.48c-0.29,0-0.57-0.12-0.78-0.32L128.03,34c-0.45-0.41-0.47-1.11-0.06-1.55
		c0.41-0.45,1.11-0.47,1.55-0.06c0.02,0.02,0.04,0.04,0.06,0.06l7.16,7.16c0.43,0.43,0.43,1.13,0,1.56
		C136.53,41.36,136.25,41.48,135.96,41.48z"/>
</g>
<g class="st0">
	<path class="st4" d="M31.21,64.78c1.57-1.22,3.11-2.41,4.66-3.61c1.99-1.54,3.97-3.08,5.96-4.62c1.85-1.43,3.69-2.88,5.55-4.29
		c0.83-0.62,1.69-1.22,2.59-1.72c0.37-0.21,0.9-0.17,1.35-0.17c1.51-0.02,3.01-0.01,4.49-0.01c-0.23-0.13-0.53-0.3-0.83-0.46
		c-0.6-0.31-1.21-0.59-1.81-0.91c-0.81-0.43-1.61-0.25-2.42-0.01c-1.71,0.51-3.43,1.01-5.14,1.51c-0.17,0.05-0.34,0.18-0.49,0.15
		c-0.31-0.06-0.71-0.12-0.87-0.33c-0.23-0.29,0.07-0.76,0.5-0.88c1.04-0.3,2.07-0.61,3.11-0.9c1.28-0.36,2.54-0.74,3.84-1.02
		c0.46-0.1,1.04-0.05,1.46,0.15c1.93,0.88,3.78,1.94,5.74,2.74c1.57,0.65,2.48,1.89,3.44,3.13c1.19,1.53,2.37,3.07,3.55,4.61
		c0.12,0.15,0.21,0.32,0.37,0.55c0.75-0.57,1.48-1.13,2.2-1.69c1.1-0.85,2.19-1.72,3.3-2.57c0.3-0.23,0.7-0.39,0.98,0.01
		c0.24,0.35,0.2,0.68-0.21,0.99c-1.9,1.43-3.77,2.89-5.65,4.36c-0.11,0.08-0.2,0.23-0.23,0.37c-0.4,1.81-0.78,3.63-1.16,5.44
		c-0.15,0.69-0.34,1.38-0.43,2.08c-0.18,1.35-0.94,2.27-2,3.06c-2.22,1.67-4.41,3.39-6.62,5.09c-1.52,1.17-3.04,2.33-4.55,3.5
		c-0.34,0.27-0.69,0.26-0.93-0.03c-0.27-0.33-0.15-0.72,0.18-0.97c2.11-1.63,4.23-3.25,6.34-4.89c1.91-1.48,3.82-2.96,5.67-4.52
		c0.39-0.33,0.56-0.98,0.69-1.52c0.43-1.79,0.79-3.59,1.19-5.38c0.1-0.45,0.23-0.88,0.38-1.44c-1.82,0.52-3.51,0.4-5.08-0.57
		c-0.94,0.49-1.94,0.27-2.6-0.55c-0.53-0.65-0.49-1.72,0.11-2.42c0.62-0.74,1.78-0.84,2.37-0.48c0.9,0.55,1.27,1.42,0.95,2.41
		c0.79,0.63,2.25,0.9,4.04,0.36c-0.36-0.49-0.69-0.96-1.04-1.42c-1.27-1.64-2.59-3.25-3.81-4.92c-0.63-0.86-1.42-1.19-2.42-1.21
		c-1.82-0.04-3.63-0.06-5.45-0.13c-0.89-0.03-1.82-0.25-2.62,0.3c-0.76,0.52-1.47,1.13-2.21,1.7c-2.19,1.69-4.38,3.38-6.56,5.07
		c-2.17,1.68-4.34,3.37-6.5,5.06c-0.73,0.57-1.47,1.14-2.18,1.73c-1.33,1.11-1.34,3.11-0.23,4.45c1.2,1.45,2.33,2.96,3.48,4.45
		c1.44,1.85,2.87,3.71,4.31,5.55c0.58,0.74,1.14,1.5,1.77,2.2c1.03,1.13,2.85,1.26,4.06,0.33c0.9-0.7,1.79-1.42,2.71-2.09
		c0.23-0.17,0.57-0.33,0.83-0.29c0.49,0.07,0.6,0.78,0.18,1.11c-1.15,0.88-2.27,1.82-3.49,2.57c-1.84,1.13-4.34,0.5-5.67-1.25
		c-1.56-2.07-3.19-4.09-4.77-6.14c-1.23-1.59-2.46-3.2-3.67-4.8c-0.45-0.59-0.91-1.19-1.3-1.82c-0.55-0.88-0.55-1.85-0.39-2.85
		c0.08-0.53,0-1.12-0.13-1.65c-0.55-2.38-1.14-4.75-1.73-7.12c-0.52-2.07,0.83-4.28,2.86-4.84c2.93-0.81,5.85-1.65,8.78-2.48
		c0.59-0.17,1.17-0.38,1.77-0.54c0.38-0.1,0.8-0.05,0.92,0.38c0.12,0.43-0.13,0.73-0.58,0.86c-2.42,0.69-4.85,1.38-7.27,2.08
		c-1.12,0.32-2.25,0.63-3.37,0.96c-1.34,0.39-2.26,1.88-1.89,3.39c0.47,1.92,0.96,3.83,1.44,5.75
		C31.07,64.04,31.13,64.4,31.21,64.78z M59.98,58.37c0.04-0.62-0.41-0.75-0.72-0.76c-0.36-0.01-0.74,0.29-0.62,0.72
		c0.07,0.27,0.36,0.64,0.6,0.68C59.69,59.07,59.99,58.77,59.98,58.37z"/>
	<path class="st4" d="M40.24,65.47c1.41,0.17,2.66,0.31,3.91,0.47c1.73,0.22,3.47,0.45,5.2,0.67c1.94,0.25,3.89,0.47,5.83,0.74
		c0.28,0.04,0.6,0.26,0.76,0.49c0.08,0.12-0.09,0.5-0.25,0.67c-0.11,0.12-0.39,0.13-0.59,0.1c-2.04-0.25-4.08-0.51-6.11-0.78
		c-2-0.26-4-0.53-6-0.79c-0.75-0.1-1.5-0.17-2.25-0.26c-0.21-0.03-0.48-0.02-0.61-0.14c-0.18-0.17-0.38-0.48-0.35-0.69
		C39.82,65.75,40.13,65.58,40.24,65.47z"/>
	<path class="st4" d="M45.34,61.83c-0.08-1.75,1.29-2.72,2.54-2.78c1.52-0.06,2.81,1.17,2.9,2.64c0.09,1.47-1.19,2.78-2.59,2.87
		C46.77,64.66,45.18,63.27,45.34,61.83z M46.55,61.78c-0.03,0.74,0.74,1.53,1.5,1.55c0.66,0.02,1.46-0.74,1.5-1.44
		c0.05-0.74-0.77-1.63-1.54-1.57C47.18,60.37,46.61,60.77,46.55,61.78z"/>
	<path class="st4" d="M50.54,72.31c0.02,1.76-1.23,2.73-2.53,2.76c-1.75,0.04-2.93-1.1-2.92-2.82c0.01-1.49,1.03-2.59,2.65-2.66
		C49.23,69.53,50.6,70.81,50.54,72.31z M49.3,72.3c-0.05-0.88-0.68-1.4-1.53-1.5c-0.65-0.08-1.46,0.79-1.45,1.46
		c0.02,0.8,0.73,1.56,1.49,1.57C48.66,73.85,49.29,73.2,49.3,72.3z"/>
	<path class="st5" d="M59.98,58.37c0.02,0.4-0.29,0.71-0.73,0.63c-0.24-0.04-0.53-0.41-0.6-0.68c-0.11-0.43,0.26-0.73,0.62-0.72
		C59.57,57.62,60.02,57.75,59.98,58.37z"/>
	<path class="st5" d="M46.55,61.78c0.06-1.01,0.63-1.41,1.46-1.47c0.77-0.05,1.59,0.83,1.54,1.57c-0.05,0.7-0.84,1.46-1.5,1.44
		C47.29,63.31,46.53,62.52,46.55,61.78z"/>
	<path class="st5" d="M49.3,72.3c0,0.9-0.64,1.55-1.49,1.53c-0.76-0.02-1.47-0.77-1.49-1.57c-0.01-0.67,0.81-1.53,1.45-1.46
		C48.62,70.9,49.24,71.42,49.3,72.3z"/>
</g>
<g>
	<g class="st6">
		<path class="st2" d="M37.54,52.91C41.95,40.87,55.27,34.69,67.3,39.1c12.02,4.41,18.2,17.73,13.79,29.76"/>
	</g>
	<path class="st7" d="M82.89,29.59l8.56,3.04c1.72,0.61,2.61,2.5,1.99,4.21L82.73,66.5c-0.62,1.71-2.5,2.59-4.21,1.97L42.05,55.26
		c-1.9-0.69-3.51-2-4.58-3.72l-5.21-8.42c-0.52-0.85-0.64-1.89-0.3-2.83L37.02,26c0.33-0.94,1.07-1.67,2.01-2l12.68-4.44
		c0.7-0.25,1.47-0.25,2.17,0c7.5,2.63,14.99,5.26,22.49,7.89"/>
	<path class="st7" d="M77.67,68.22L66.68,79.24c-1.67,1.67-4.33,1.85-5.99,0.39L47.76,68.28"/>
	<path class="st7" d="M43.14,64.49l-9.01-8.69c-0.53-0.51-0.84-1.2-0.88-1.93l-0.55-10.09"/>
	<circle class="st7" cx="57.48" cy="46.19" r="3.93"/>
	<circle class="st7" cx="74.15" cy="39.28" r="3.93"/>
	<line class="st7" x1="74.25" y1="55.61" x2="59.62" y2="31.97"/>
	<circle class="st7" cx="42.12" cy="36.93" r="2.96"/>
	<path class="st7" d="M39.61,38.48c-0.82,1.02-8.41,10.14-17.82,10.42c-4.37,0.13-7.87-1.46-7.87-1.46
		c-1.26-0.57-3.62-1.84-5.41-4.11c-1.1-1.39-1.53-2.59-1.64-2.9c-0.1-0.28-0.4-1.2-0.48-2.45c-0.16-2.36,0.57-4.18,0.89-4.95
		c1.53-3.7,4.45-5.57,5.29-6.09c2.26-1.4,4.33-1.78,5.38-1.96c4.92-0.84,8.97,0.74,10.72,1.57c2.37,1.13,6.68,4.15,6.68,4.15
		c0,0,2.58,1.84,5.21,3.71"/>
</g>
</svg>
