<svg id="Layer_1" data-name="Layer 1" xmlns="http://www.w3.org/2000/svg" viewBox="0 0 50 50"><defs><style>.cls-1{fill:#eaeaea;}.cls-2{fill:#fff;}.cls-3{fill:#494949;}.cls-4{fill:#ffcc05;}</style></defs><title>Iconset for homepage</title><rect class="cls-1" x="4.395" y="3.967" width="41.208" height="25.778" rx="3.708" ry="3.708"/><rect class="cls-2" x="0.864" y="33.745" width="15.125" height="11.288"/><rect class="cls-2" x="34.239" y="33.745" width="15.125" height="11.288"/><path class="cls-3" d="M16.029,46.033H1.094a1,1,0,0,1-1-1V33.745a1,1,0,0,1,1-1H13.9a3.129,3.129,0,0,1,3.126,3.126v9.162A1,1,0,0,1,16.029,46.033Zm-13.935-2H15.029V35.871A1.127,1.127,0,0,0,13.9,34.745H2.094Z"/><path class="cls-4" d="M3.26,14.751H5.967a2.167,2.167,0,0,1,2.167,2.167V33.745a0,0,0,0,1,0,0H1.093a0,0,0,0,1,0,0V16.918A2.167,2.167,0,0,1,3.26,14.751Z"/><path class="cls-3" d="M8.134,34.745H1.094a1,1,0,0,1-1-1V16.918A3.17,3.17,0,0,1,3.26,13.751H5.967a3.171,3.171,0,0,1,3.167,3.167V33.745A1,1,0,0,1,8.134,34.745Zm-6.04-2h5.04V16.918a1.169,1.169,0,0,0-1.167-1.167H3.26a1.168,1.168,0,0,0-1.166,1.167Z"/><path class="cls-3" d="M48.906,46.033H33.971a1,1,0,0,1-1-1V35.871A3.129,3.129,0,0,1,36.1,32.745h12.81a1,1,0,0,1,1,1V45.033A1,1,0,0,1,48.906,46.033Zm-13.935-2H47.906V34.745H36.1a1.127,1.127,0,0,0-1.125,1.126Z"/><path class="cls-4" d="M41.866,14.751h7.04a0,0,0,0,1,0,0V31.579a2.167,2.167,0,0,1-2.167,2.167H44.032a2.167,2.167,0,0,1-2.167-2.167V14.751A0,0,0,0,1,41.866,14.751Z" transform="translate(90.772 48.497) rotate(-180)"/><path class="cls-3" d="M48.906,34.745h-7.04a1,1,0,0,1-1-1V16.918a3.17,3.17,0,0,1,3.166-3.167h2.707a3.171,3.171,0,0,1,3.167,3.167V33.745A1,1,0,0,1,48.906,34.745Zm-6.04-2h5.04V16.918a1.168,1.168,0,0,0-1.167-1.167H44.032a1.169,1.169,0,0,0-1.166,1.167Z"/><path class="cls-3" d="M35.657,25.189H14.343a1,1,0,1,1,0-2H35.657a1,1,0,0,1,0,2Z"/><path class="cls-3" d="M29.322,46.033H20.677a1,1,0,0,1,0-2h8.645a1,1,0,1,1,0,2Z"/><path class="cls-3" d="M25,46.033a1,1,0,0,1-1-1V24.507a1,1,0,0,1,2,0V45.033A1,1,0,0,1,25,46.033Z"/></svg>