<svg id="Layer_1" data-name="Layer 1" xmlns="http://www.w3.org/2000/svg" viewBox="0 0 50 50"><defs><style>.cls-1{opacity:0.7;}.cls-2{fill:#ffcc05;}.cls-3{fill:#494949;}</style></defs><title>Iconset for homepage 2</title><g class="cls-1"><path class="cls-2" d="M9.958,45.549a13.821,13.821,0,0,1,27.641,0"/></g><path class="cls-3" d="M19.679,25.187c-5.194,0-9.42-4.7-9.42-10.481s4.226-10.48,9.42-10.48,9.419,4.7,9.419,10.48S24.872,25.187,19.679,25.187Zm0-18.761c-3.981,0-7.219,3.714-7.219,8.28s3.238,8.281,7.219,8.281S26.9,19.272,26.9,14.706,23.659,6.426,19.679,6.426Z"/><path class="cls-3" d="M29.388,45.774a1.1,1.1,0,0,1-1.1-1.1v-6.3a1.1,1.1,0,1,1,2.2,0v6.3A1.1,1.1,0,0,1,29.388,45.774Z"/><path class="cls-3" d="M9.958,45.774a1.1,1.1,0,0,1-1.1-1.1v-6.3a1.1,1.1,0,1,1,2.2,0v6.3A1.1,1.1,0,0,1,9.958,45.774Z"/><path class="cls-3" d="M2.42,37.823a1.127,1.127,0,0,1-.215-.021,1.1,1.1,0,0,1-.865-1.293l.488-2.458a1.1,1.1,0,1,1,2.158.429L3.5,36.937A1.1,1.1,0,0,1,2.42,37.823Z"/><path class="cls-3" d="M35.656,45.774H3.69A3.482,3.482,0,0,1,.212,42.3a1.185,1.185,0,0,1,.021-.214l.408-2.051a1.1,1.1,0,0,1,2.158.429l-.383,1.928A1.278,1.278,0,0,0,3.69,43.573H35.656a1.278,1.278,0,0,0,1.274-1.184l-1.512-7.618a1.1,1.1,0,1,1,2.158-.429l1.536,7.741a1.1,1.1,0,0,1,.021.214A3.481,3.481,0,0,1,35.656,45.774Z"/><path class="cls-3" d="M3.536,32.2a1.058,1.058,0,0,1-.215-.021,1.1,1.1,0,0,1-.865-1.293l.154-.777a3.576,3.576,0,0,1,3.456-3.264H30.933a1.1,1.1,0,0,1,0,2.2H6.066c-.784,0-1.185.779-1.29,1.447l-.162.821A1.1,1.1,0,0,1,3.536,32.2Z"/><path class="cls-3" d="M44.618,37.69a1.1,1.1,0,0,1-.511-.126l-6.074-3.193L31.96,37.564a1.1,1.1,0,0,1-1.6-1.16l1.16-6.762-4.913-4.789a1.1,1.1,0,0,1,.61-1.876l6.789-.987,3.037-6.153a1.1,1.1,0,0,1,.986-.613h0a1.1,1.1,0,0,1,.987.613l3.036,6.153,6.79.987a1.1,1.1,0,0,1,.609,1.876l-4.913,4.789L45.7,36.4a1.1,1.1,0,0,1-1.084,1.286Zm-6.585-5.661a1.1,1.1,0,0,1,.512.126l4.612,2.424-.881-5.135a1.1,1.1,0,0,1,.317-.974l3.73-3.637-5.156-.749a1.1,1.1,0,0,1-.828-.6l-2.306-4.673-2.306,4.673a1.1,1.1,0,0,1-.829.6l-5.156.749,3.732,3.637a1.1,1.1,0,0,1,.316.974l-.881,5.135,4.613-2.424A1.1,1.1,0,0,1,38.033,32.029Z"/><path class="cls-3" d="M40.286,27.241H35.833a.5.5,0,0,1,0-1h4.453a.5.5,0,0,1,0,1Z"/><path class="cls-3" d="M40.233,25.714H35.78a.5.5,0,0,1,0-1h4.453a.5.5,0,1,1,0,1Z"/><path class="cls-3" d="M38.412,31.175a.5.5,0,0,1-.419-.227l-1.361-2.1a.5.5,0,0,1,.149-.694l.306-.2a1.618,1.618,0,0,0,.823-2.406.508.508,0,0,1-.055-.249.552.552,0,0,1,.52-.5.486.486,0,0,1,.476.4,2.552,2.552,0,0,1-1.1,3.532L38.831,30.4a.5.5,0,0,1-.419.772Z"/></svg>