<svg id="Layer_1" data-name="Layer 1" xmlns="http://www.w3.org/2000/svg" viewBox="0 0 50 50"><defs><style>.cls-1{fill:#eaeaea;}.cls-2{fill:#fff;}.cls-3{fill:#494949;}.cls-4{fill:#ffcc05;}</style></defs><title>Iconset for homepage</title><rect class="cls-1" x="0.667" y="3.611" width="47.558" height="29.751" rx="4.28" ry="4.28"/><rect class="cls-2" x="29.959" y="32.208" width="17.456" height="13.027" transform="translate(77.373 77.443) rotate(-180)"/><path class="cls-3" d="M29.788,45.235V34.66A3.612,3.612,0,0,1,33.4,31.053H48.179a1.154,1.154,0,0,1,1.154,1.154V45.235a1.154,1.154,0,0,1-1.154,1.154H30.942A1.154,1.154,0,0,1,29.788,45.235ZM47.025,33.362H33.4a1.3,1.3,0,0,0-1.3,1.3v9.421H47.025Z"/><path class="cls-4" d="M40.055,10.287H48.18a0,0,0,0,1,0,0v19.42a2.5,2.5,0,0,1-2.5,2.5H42.555a2.5,2.5,0,0,1-2.5-2.5V10.287A0,0,0,0,1,40.055,10.287Z" transform="translate(88.234 42.495) rotate(-180)"/><path class="cls-3" d="M38.9,32.207V12.787a3.659,3.659,0,0,1,3.655-3.654h3.124a3.657,3.657,0,0,1,3.654,3.654v19.42a1.154,1.154,0,0,1-1.154,1.155H40.054A1.154,1.154,0,0,1,38.9,32.207Zm8.125-19.42a1.348,1.348,0,0,0-1.346-1.346H42.555a1.349,1.349,0,0,0-1.347,1.346V31.053h5.817Z"/><path class="cls-3" d="M7.26,25.422h24.6a1.154,1.154,0,0,0,0-2.308H7.26a1.154,1.154,0,1,0,0,2.308Z"/><path class="cls-3" d="M14.571,46.389h9.978a1.154,1.154,0,1,0,0-2.308H14.571a1.154,1.154,0,1,0,0,2.308Z"/><path class="cls-3" d="M19.56,46.389a1.154,1.154,0,0,0,1.154-1.154v-20.6a1.154,1.154,0,1,0-2.308,0v20.6A1.154,1.154,0,0,0,19.56,46.389Z"/><path class="cls-3" d="M27.957,22.071H19.334a1.123,1.123,0,0,1-1-.611L14.086,13.2a1.125,1.125,0,0,1,2-1.03l3.934,7.65h7.937a1.125,1.125,0,0,1,0,2.25Z"/></svg>