<svg id="Layer_1" data-name="Layer 1" xmlns="http://www.w3.org/2000/svg" viewBox="0 0 50 50"><defs><style>.cls-1{opacity:0.7;}.cls-2{fill:#ffcc05;}.cls-3{fill:#494949;}</style></defs><title>Iconset for homepage 2</title><g class="cls-1"><path class="cls-2" d="M2.007,44.674a10.124,10.124,0,0,1,20.248,0"/></g><path class="cls-3" d="M22.284,45.329H2.008a1.1,1.1,0,0,1-1.1-1.1A13.224,13.224,0,0,1,25.1,36.834a1.1,1.1,0,1,1-1.823,1.231A11.026,11.026,0,0,0,3.162,43.128H22.284a1.1,1.1,0,0,1,0,2.2Z"/><path class="cls-3" d="M14.131,29.962a8.1,8.1,0,1,1,8.1-8.1A8.108,8.108,0,0,1,14.131,29.962Zm0-14a5.9,5.9,0,1,0,5.9,5.9A5.906,5.906,0,0,0,14.131,15.963Z"/><path class="cls-3" d="M35.389,45.329H32.034a1.1,1.1,0,0,1,0-2.2h3.355a1.1,1.1,0,0,1,0,2.2Z"/><path class="cls-3" d="M43.6,45.329h-3.6a1.1,1.1,0,0,1,0-2.2h2.774l3.767-13.166H28.01L24.243,43.128h3.749a1.1,1.1,0,0,1,0,2.2H22.784a1.1,1.1,0,0,1-1.058-1.4l4.4-15.367a1.1,1.1,0,0,1,1.058-.8H47.992a1.1,1.1,0,0,1,1.058,1.4l-4.4,15.366A1.1,1.1,0,0,1,43.6,45.329Z"/><path class="cls-3" d="M26.088,25.955a1.1,1.1,0,0,1-1.1-1.1V7.6A2.935,2.935,0,0,1,27.92,4.671H43.2A2.935,2.935,0,0,1,46.134,7.6v11.17A2.935,2.935,0,0,1,43.2,21.705H31.053l-4.212,3.952A1.1,1.1,0,0,1,26.088,25.955ZM27.92,6.872a.733.733,0,0,0-.733.731V22.314L29.864,19.8a1.1,1.1,0,0,1,.753-.3H43.2a.733.733,0,0,0,.732-.731V7.6a.733.733,0,0,0-.732-.731Z"/><path class="cls-3" d="M36.054,17.979a1.1,1.1,0,0,1-1.1-1.1V14.569a1.1,1.1,0,0,1,1.1-1.1,1.778,1.778,0,0,0,0-3.555,1.405,1.405,0,0,0-.943.353,1.927,1.927,0,0,0-.43,1.4,1.1,1.1,0,0,1-2.2,0A3.974,3.974,0,0,1,33.6,8.663a3.612,3.612,0,0,1,2.5-.948h0a3.977,3.977,0,0,1,1.045,7.8v1.364A1.1,1.1,0,0,1,36.054,17.979Z"/><path class="cls-3" d="M23.646,39.622H18.437a1.1,1.1,0,0,1,0-2.2h5.209a1.1,1.1,0,0,1,0,2.2Z"/></svg>