<svg xmlns="http://www.w3.org/2000/svg" viewBox="0 0 22.707 16.212"><defs><style>.cls-1{fill:#ffda66;}.cls-2{fill:#494949;}</style></defs><title>Asset 34</title><g id="Layer_2" data-name="Layer 2"><g id="Layer_1-2" data-name="Layer 1"><path class="cls-1" d="M22.188,15.524a6.286,6.286,0,0,0-12.572,0v.526H22.188Z"/><path class="cls-2" d="M14.654,7.644a3.622,3.622,0,0,1-3.371-3.822A3.621,3.621,0,0,1,14.654,0a3.622,3.622,0,0,1,3.371,3.822A3.623,3.623,0,0,1,14.654,7.644Zm0-7.144a3.125,3.125,0,0,0-2.871,3.322,3.125,3.125,0,0,0,2.871,3.322,3.125,3.125,0,0,0,2.871-3.322A3.125,3.125,0,0,0,14.654.5Z"/><path class="cls-2" d="M22.456,16.212H6.852a.25.25,0,0,1-.25-.263,8.064,8.064,0,0,1,16.1,0,.25.25,0,0,1-.25.263Zm-15.336-.5H22.188a7.564,7.564,0,0,0-15.068,0Z"/><path class="cls-2" d="M6.848,6.54A3.1,3.1,0,0,1,3.959,3.27,3.1,3.1,0,0,1,6.848,0,3.1,3.1,0,0,1,9.737,3.27,3.1,3.1,0,0,1,6.848,6.54Zm0-6.04A2.6,2.6,0,0,0,4.459,3.27,2.6,2.6,0,0,0,6.848,6.04,2.6,2.6,0,0,0,9.237,3.27,2.6,2.6,0,0,0,6.848.5Z"/><path class="cls-2" d="M7.232,13.785H.25a.253.253,0,0,1-.181-.078A.255.255,0,0,1,0,13.521,6.854,6.854,0,0,1,11.636,8.989a.25.25,0,1,1-.35.357A6.354,6.354,0,0,0,.52,13.285H7.232a.25.25,0,0,1,0,.5Z"/><path class="cls-2" d="M19.816,14.2H17.775a.25.25,0,0,1,0-.5h2.041a.25.25,0,0,1,0,.5Z"/></g></g></svg>