<svg id="Layer_1" data-name="Layer 1" xmlns="http://www.w3.org/2000/svg" viewBox="0 0 50 50"><defs><style>.cls-1{fill:#eaeaea;}.cls-2{fill:#fff;}.cls-3{fill:#494949;}.cls-4{fill:#ffcc05;}</style></defs><title>Iconset for homepage</title><rect class="cls-1" x="0.521" y="4.52" width="43.043" height="26.926" rx="3.873" ry="3.873"/><circle class="cls-2" cx="10.105" cy="28.087" r="3.798"/><path class="cls-3" d="M48.435,39.959H13.651a1.045,1.045,0,1,1,0-2.09H47.39V13.941H11.1v9.174a1.045,1.045,0,0,1-2.089,0V12.9a1.044,1.044,0,0,1,1.044-1.045H48.435A1.044,1.044,0,0,1,49.479,12.9V38.914A1.044,1.044,0,0,1,48.435,39.959Z"/><path class="cls-3" d="M10.052,33.21a5.083,5.083,0,1,1,5.083-5.084A5.089,5.089,0,0,1,10.052,33.21Zm0-8.077a2.994,2.994,0,1,0,2.994,2.993A3,3,0,0,0,10.052,25.133Z"/><path class="cls-4" d="M1.566,44.436c0-5.28,3.8-9.56,8.486-9.56s8.486,4.28,8.486,9.56Z"/><path class="cls-3" d="M18.538,45.48H1.565A1.044,1.044,0,0,1,.521,44.436c0-5.848,4.276-10.6,9.531-10.6s9.531,4.757,9.531,10.6A1.045,1.045,0,0,1,18.538,45.48ZM2.666,43.391H17.437c-.451-4.2-3.59-7.471-7.385-7.471S3.117,39.187,2.666,43.391Z"/><rect class="cls-4" x="18.684" y="18.393" width="22.96" height="4.918"/><rect class="cls-4" x="18.684" y="27.362" width="10.191" height="5.128"/><path class="cls-3" d="M41.644,24.355H18.684a1.044,1.044,0,0,1-1.045-1.044V18.393a1.045,1.045,0,0,1,1.045-1.045h22.96a1.045,1.045,0,0,1,1.045,1.045v4.918A1.044,1.044,0,0,1,41.644,24.355ZM19.728,22.266H40.6V19.437H19.728Z"/><path class="cls-3" d="M28.875,33.535H18.684a1.044,1.044,0,0,1-1.045-1.044V27.362a1.045,1.045,0,0,1,1.045-1.044H28.875a1.044,1.044,0,0,1,1.045,1.044v5.129A1.044,1.044,0,0,1,28.875,33.535Zm-9.147-2.089h8.1V28.407h-8.1Z"/></svg>