<svg id="Layer_1" data-name="Layer 1" xmlns="http://www.w3.org/2000/svg" viewBox="0 0 50 50"><defs><style>.cls-1{opacity:0.7;}.cls-2{fill:#ffcc05;}.cls-3{fill:#494949;}</style></defs><title>Iconset for homepage 2</title><g class="cls-1"><path class="cls-2" d="M3.537,42.644a8.481,8.481,0,1,1,16.961,0"/></g><path class="cls-3" d="M21.21,44.178H3.537a1.1,1.1,0,0,1-1.1-1.1V29.721a1.1,1.1,0,0,1,1.1-1.1H18.7a3.62,3.62,0,0,1,3.615,3.615V43.078A1.1,1.1,0,0,1,21.21,44.178Zm-16.573-2.2H20.11V32.236A1.416,1.416,0,0,0,18.7,30.821H4.637Z"/><path class="cls-3" d="M11.867,30.821H3.537a1.1,1.1,0,0,1-1.1-1.1V23.663a1.1,1.1,0,1,1,2.2,0v4.958h6.131V9.81A1.466,1.466,0,0,0,9.3,8.347H6.1A1.465,1.465,0,0,0,4.637,9.81v2.6a1.1,1.1,0,1,1-2.2,0V9.81A3.667,3.667,0,0,1,6.1,6.146H9.3A3.668,3.668,0,0,1,12.967,9.81V29.721A1.1,1.1,0,0,1,11.867,30.821Z"/><path class="cls-3" d="M3.537,20.138a1.1,1.1,0,0,1-1.1-1.1V15.705a1.1,1.1,0,1,1,2.2,0v3.333A1.1,1.1,0,0,1,3.537,20.138Z"/><path class="cls-3" d="M32.3,23.514H19.688a1.1,1.1,0,0,1,0-2.2H32.3a1.1,1.1,0,0,1,0,2.2Z"/><path class="cls-3" d="M40.027,44.178H17.89a1.1,1.1,0,1,1,0-2.2H40.027a1.1,1.1,0,0,1,0,2.2Z"/><path class="cls-3" d="M32.3,44.178a1.1,1.1,0,0,1-1.1-1.1V22.79a1.1,1.1,0,1,1,2.2,0V43.078A1.1,1.1,0,0,1,32.3,44.178Z"/><path class="cls-3" d="M37.945,25.056a9.617,9.617,0,1,1,9.617-9.617A9.627,9.627,0,0,1,37.945,25.056Zm0-17.034a7.417,7.417,0,1,0,7.418,7.417A7.426,7.426,0,0,0,37.945,8.022Z"/><path class="cls-3" d="M36.4,19.87a1.1,1.1,0,0,1-.806-.352l-3.241-3.5a1.1,1.1,0,0,1,1.613-1.5l2.529,2.728,5.142-4.313a1.1,1.1,0,1,1,1.414,1.686L37.1,19.613A1.105,1.105,0,0,1,36.4,19.87Z"/></svg>